<?xml version="1.0" ?><!DOCTYPE svg  PUBLIC '-//W3C//DTD SVG 1.1//EN'  'http://www.w3.org/Graphics/SVG/1.1/DTD/svg11.dtd'><svg enable-background="new 0 0 512 512" id="Layer_1" version="1.1" viewBox="0 0 512 512" xml:space="preserve" xmlns="http://www.w3.org/2000/svg" xmlns:xlink="http://www.w3.org/1999/xlink"><g id="Layer_1_1_"><circle cx="256" cy="256" fill="#2D2D2D" r="238.2"/></g><g id="Layer_2_1_"><g><path d="M231.8,249.3c5.5,2.4,10.4,5.1,14.5,9    c8.3,8.1,11.8,18.2,12.5,29.4c1,16.7-3.9,31.4-15.8,43.5c-7.9,7.9-17.5,12.1-28.3,13.8c-7.3,1.2-14.7,1.7-22.1,1.7    c-25.3,0-50.7-0.1-75.9,0.1c-2.4,0-3-0.6-3-3c0.1-58.5,0.1-117,0-175.5c0-2.6,0.7-3.1,3.2-3.1c27,0.1,54.1,0.1,81,0.1    c8.8,0,17.4,1.1,25.7,3.9c17.8,6,29,20.9,29.6,39.7c0.2,5.7-0.1,11.3-1.5,16.9c-2.4,9.5-8.1,16.6-16.4,21.6    C234.2,247.9,233.2,248.4,231.8,249.3z M154.4,290.8c0,7.3,0,14.6,0,21.9c0,1.5,0.1,2.4,2,2.4c13.9-0.1,27.9,0.1,41.8-0.3    c7.5-0.2,14.4-2.6,18.9-9.3c4.6-6.7,4.9-14.2,3.7-21.9c-0.9-5.9-4.2-10.2-9.4-13.1c-4.3-2.4-8.9-3.4-13.7-3.4    c-13.7-0.2-27.5-0.2-41.2-0.3c-1.8,0-2.2,0.7-2.2,2.3C154.4,276.4,154.4,283.6,154.4,290.8z M175.4,236.8c5.3,0,10.6,0,15.9,0    c4.8,0,9.6-0.5,14.3-2.1c12-4.2,16.6-20.9,8.5-30.8c-3.8-4.7-9.1-5.5-14.5-6.2c-14.4-1.9-29-0.6-43.4-1c-1.7-0.1-1.8,0.8-1.8,2.1    c0,12,0.1,23.8,0,35.8c0,1.7,0.5,2.3,2.3,2.3C162.9,236.8,169.2,236.8,175.4,236.8z" fill="none" stroke="#FAFAFA" stroke-miterlimit="10" stroke-width="12"/><path d="M352.2,285.7c-14.4,0-28.8,0.1-43.3-0.1    c-2.4,0-3.1,0.6-2.8,3c1.2,9.9,4.4,18.5,13.1,24.4c9,6,28.1,7.1,36.9-1.4c1.7-1.6,3.5-3.1,4.4-5.2c1.4-3,3.5-3.8,6.7-3.6    c9,0.3,18,0.1,27,0.1c2,0,2.4,0.5,2,2.4c-2.1,9.6-7.7,17-14.5,23.7c-10.2,10-22.8,14.6-36.7,16c-13,1.3-25.5-0.3-37.4-5.7    c-19.9-8.9-31.2-24.1-34.1-45.8c-2-15.8-1.8-31.4,3.5-46.6c6.4-18.6,19.3-30.7,38-36.5c15.5-4.7,31.1-4,46.3,1.6    c16.2,6,26.3,18,32.3,33.8c4.7,12.2,4.8,25,4.8,37.8c0,2.1-1.2,1.9-2.6,1.9c-8.3,0-16.5,0-24.8,0    C364.9,285.7,358.5,285.7,352.2,285.7z M335.4,263.1c8.8,0,17.6,0,26.4,0c0.9,0,2.2,0.6,2-1.4c-1-10.1-5.1-18.4-14.5-22.9    c-10-4.7-20.3-4.8-29.9,1.2c-7.6,4.7-10.6,12.5-12.3,20.9c-0.4,1.9,0.4,2.2,2,2.2C318,263.1,326.7,263.1,335.4,263.1z" fill="none" stroke="#FAFAFA" stroke-miterlimit="10" stroke-width="12"/><path d="M335.1,191.1c-11,0-22-0.1-33,0.1    c-2.1,0-2.8-0.6-2.7-2.7c0.2-4.4,0.1-8.9,0-13.4c-0.1-1.8,0.6-2.3,2.3-2.3c22.4,0.1,44.7,0.1,67.1,0c1.6,0,2.1,0.5,2.1,2.1    c-0.1,4.6-0.1,9.1,0,13.7c0.1,2-0.6,2.6-2.6,2.6C357.3,191,346.2,191.1,335.1,191.1z" fill="none" stroke="#FAFAFA" stroke-miterlimit="10" stroke-width="12"/></g></g></svg>