<?xml version="1.0" ?><!DOCTYPE svg  PUBLIC '-//W3C//DTD SVG 1.1//EN'  'http://www.w3.org/Graphics/SVG/1.1/DTD/svg11.dtd'><svg enable-background="new 0 0 512 512" version="1.1" viewBox="0 0 512 512" xml:space="preserve" xmlns="http://www.w3.org/2000/svg" xmlns:xlink="http://www.w3.org/1999/xlink"><g id="Layer_1"><circle cx="256" cy="256" fill="#01ADEE" r="238.2"/></g><g id="Layer_2"><g id="Layer_2_1_"><g><path d="M103.7,192.1c4.2-4.5,8.4-9.1,12.8-13.5     c14.4-14.9,29.6-29,47-40.4c8.4-5.6,17.2-10.2,27-13.1c13.2-3.7,24.9,0.8,32,12.6c7.1,11.7,10.2,24.7,12.9,37.9     c3.8,18.9,6,38,10.8,56.7c4,15.5,7.6,31,13.8,45.8c0.8,2.1,2.1,4,3.3,6c3.6,5.8,7.9,6.4,13.2,2c5.7-4.8,10.3-10.7,14.6-16.7     c8.8-12.5,16.6-25.4,23.1-39.2c4.1-8.7,6.2-17.8,4-27.7c-3.1-13.6-14.4-19-27.3-15.7c-4.8,1.2-9.4,3.1-13.8,6     c1.3-9.1,4.1-17.2,8.3-24.9c11.4-20.9,28.6-34.9,51.3-42.4c12.7-4.2,25.4-5.2,38.4-1.8c15.9,4.1,27.7,17.8,30.1,34.1     c2.4,16.2-0.8,31.7-5.3,47c-7.8,26.9-20.7,51.4-36.5,74.5c-24.2,35.1-53.2,65.4-86.6,91.7c-6.3,5-12.5,9.9-20.2,12.8     c-13.1,5-24.8,1.7-35.6-6.3c-12.1-9-19.6-21-24.5-35.1c-7.4-21.2-13.7-42.8-20.4-64.3c-7.1-23-13.8-46-22.3-68.6     c-1.1-2.9-2.3-5.6-3.7-8.3c-1.8-3.5-5-4.2-8.6-4.1c-7.1,0.3-12.9,4-18.8,7.4c-2,1.2-3.8,2.4-5.6,3.8c-1.4,1.1-2.2,1.1-3.3-0.4     c-3.3-4.2-6.7-8.4-10-12.8C103.7,194.1,103.7,193.2,103.7,192.1z" fill="none" stroke="#FAFAFA" stroke-miterlimit="10" stroke-width="10"/></g></g></g></svg>