<?xml version="1.0" ?><!DOCTYPE svg  PUBLIC '-//W3C//DTD SVG 1.1//EN'  'http://www.w3.org/Graphics/SVG/1.1/DTD/svg11.dtd'><svg enable-background="new 0 0 512 512" version="1.1" viewBox="0 0 512 512" xml:space="preserve" xmlns="http://www.w3.org/2000/svg" xmlns:xlink="http://www.w3.org/1999/xlink"><g id="Layer_1"><circle cx="256" cy="256" fill="#D8D313" r="238.2"/></g><g id="Layer_2"><g id="Layer_2_1_"><g id="Layer_x0020_1"><path d="M178.9,226.5L178.9,226.5     c-1.2-18.9-2.6-42.5,3.7-56.7c7.3-16.4,17.8-27.8,30.8-35.1c12.9-7.3,28.2-10.5,45-10.5c7.3,0,25.6,1.3,42.8,12.4     c10.5,6.8,20.6,17.1,27.7,33.1c6.5,14.6,5,37.8,3.8,56.1c-0.1,1.8-0.2,3.6-0.3,5.2c0.4,0.1,1,0.2,1.5,0.2     c1.5-0.1,3.1-0.3,4.8-0.8c1.8-0.5,3.8-1.3,5.8-2.2c1.1-0.5,2.1-0.8,3.2-1.1c1.3-0.2,2.4-0.3,3.4-0.3l0,0c1.2,0,2.3,0.1,3.5,0.3     c1.2,0.2,2.2,0.5,3.2,1l0,0c3.1,1.1,5.5,2.7,7.3,4.8c1.9,2.2,3,4.8,3.1,7.5l0,0c0.1,3.5-1.4,6.7-4.3,9.5     c-2.6,2.5-6.4,4.8-11.4,6.8l0,0c-0.5,0.2-1.3,0.4-2,0.7c-1.2,0.4-1.7,0.5-2.1,0.7c-2.5,0.8-5.7,1.8-8.3,3.2     c-2.3,1.2-4.3,2.6-5.1,4.4c-0.3,0.8-0.4,1.8-0.3,3c0.2,1.4,0.6,2.9,1.5,4.5l0,0c0,0,0,0,0.1,0.2l0,0c0,0,0.1,0.1,0.1,0.2     c0.3,0.7,4.5,10.4,13.2,20.5c8.6,10.1,21.5,20.7,39.3,23.7c2.2,0.3,4,1.5,5.4,3.2c1.3,1.6,2,3.7,1.9,5.9c0,0.6-0.1,1.2-0.3,1.8     c-0.1,0.6-0.3,1.3-0.5,1.8l0,0c-1.7,4-5.9,7.4-12.7,10c-5.9,2.4-13.8,4.3-24.1,6c-0.3,1.2-0.7,3.1-1.1,4.4l0,0     c-0.2,0.8-0.4,1.8-0.7,3.2l0,0c-0.3,1.2-0.5,2.3-0.8,3.4l0,0c-0.6,2.1-1.8,3.9-3.4,5.1c-1.6,1.2-3.6,1.8-5.8,1.8h-0.1l0,0h-0.1     l0,0c-0.8,0-1.9-0.1-3.1-0.2c-1.1-0.1-2.3-0.3-3.7-0.6c-2-0.4-4.1-0.7-6.4-1.1s-4.8-0.4-7.6-0.4c-1.6,0-3.3,0.1-5,0.2     s-3.4,0.3-5.1,0.6c-6.2,1.1-11.8,5-18.4,9.6l0,0l0,0l0,0c-14.5,10.2-27.7,15.3-41,15.3c-13.3,0-26.5-5.2-41-15.3l0,0l0,0     c-6.5-4.6-12.1-8.6-18.4-9.6l0,0c-1.7-0.3-3.3-0.5-5.1-0.6c-1.7-0.1-3.3-0.2-5-0.2c-3,0-5.6,0.2-7.9,0.5     c-2.2,0.3-4.3,0.7-6.1,1.1c-1.3,0.2-2.4,0.5-3.5,0.6c-1.2,0.2-2.2,0.3-3.3,0.3c-2.5,0-4.5-0.7-6-1.8l0,0c-2-1.5-3-3.4-3.5-5.2     c-0.4-1.3-0.6-2.4-1-3.4c-0.2-1.1-0.5-2.1-0.7-3.2v-0.1c-0.3-1.4-0.7-3.3-1.1-4.3c-10.2-1.7-18.3-3.7-24.1-6     c-6.8-2.7-10.9-6.1-12.7-10.1l0,0c-0.2-0.6-0.4-1.2-0.5-1.7c-0.1-0.5-0.2-1.2-0.2-1.8c-0.1-2.2,0.6-4.3,1.9-5.9     c1.3-1.6,3.2-2.7,5.4-3.2c17.7-3,30.6-13.5,39.3-23.7c8.7-10.1,12.9-19.7,13.2-20.6l0,0c0.1-0.2,0.1-0.3,0.1-0.3l0,0l0,0l0,0     c0.8-1.7,1.4-3.3,1.6-4.6c0.1-1.2,0.1-2.1-0.3-3l0,0c-1.6-3.8-8.8-6.1-13.5-7.6l0,0l0,0c-0.4-0.1-0.7-0.2-2.1-0.7     c-0.8-0.3-1.6-0.5-2-0.7c-5.9-2.3-9.7-4.9-12-7.5c-3.6-3.8-4-7.6-3.5-10.6c0.6-3.5,2.9-6.2,5.8-8.2c3.1-2.1,7-3.3,10.5-3.3     c1,0,1.9,0.1,2.9,0.3c1,0.2,1.9,0.5,2.7,0.8c2.2,1.1,4.3,1.8,6.2,2.3c1.8,0.5,3.6,0.7,5.1,0.7c0.8,0,1.6-0.1,2.2-0.2     c-0.1-1-0.1-2-0.2-3.1L178.9,226.5L178.9,226.5L178.9,226.5L178.9,226.5z M330.6,275.8L330.6,275.8L330.6,275.8L330.6,275.8     L330.6,275.8L330.6,275.8z M330.6,275.8C330.6,275.7,330.6,275.7,330.6,275.8L330.6,275.8z" fill="none" stroke="#FAFAFA" stroke-miterlimit="10" stroke-width="10"/></g></g></g></svg>