<?xml version="1.0" ?><!DOCTYPE svg  PUBLIC '-//W3C//DTD SVG 1.1//EN'  'http://www.w3.org/Graphics/SVG/1.1/DTD/svg11.dtd'><svg enable-background="new 0 0 512 512" id="Layer_1" version="1.1" viewBox="0 0 512 512" xml:space="preserve" xmlns="http://www.w3.org/2000/svg" xmlns:xlink="http://www.w3.org/1999/xlink"><g id="Layer_1_1_"><circle cx="256" cy="256" fill="#FE4703" r="238.2"/></g><g><path d="M198,384.4c-9-3.6-32.3-12.3-40.1-16.9c-17.4-10.4-32-23.8-41.2-42.1c-5.9-11.6-7.9-24.2-6.5-37.3   c0.3-2.5-0.2-4-2.3-5.9c-16.6-13-19.6-35.7-7-52.2c12-15.5,35.1-18.8,51.4-6.8c1.7,1.2,2.5,1.4,4.2,0.3   c28.1-16.8,58.7-24.1,91.2-25.3c3.3-0.2,4.3-1.2,5.3-4c6.7-21.1,13.5-42.2,20.2-63.2c2-6.1,3.9-7.3,10.2-5.9   c16.9,4,33.9,7.9,50.8,12.1c3,0.8,4.5,0.5,6.1-2.5c6.4-11.6,19.9-17.2,33.2-14.3c12.9,3,22.4,14.3,23.1,27.3   c0.8,14.1-7,26.2-19.6,30.9c-18.5,6.8-38.5-5.4-40.8-24.8c-0.3-3-1.6-3.9-4-4.5c-15.1-3.4-30-7-44.9-10.4c-2.2-0.6-3.6-0.6-4.3,2.2   c-2.8,9.6-5.9,19.1-8.9,28.6c-3,9.3-6.1,18.8-9.2,28.6c10.1,1.1,20,1.7,29.8,3.6c21.3,4,41.3,10.9,59.8,22.4   c2.5,1.6,3.6,0.5,5.1-0.8c12.7-9.3,30.1-9.8,43-1.1c21.3,14.4,21.7,45.7,0.8,60.7c-2.2,1.6-3.3,3-3,5.9c2,19.6-4.3,36.7-16.5,51.9   c-13.2,16.6-30.4,27.6-49.5,36.2c-1.7,0.8-3.6,1.6-6.1,2.6 M265.4,210.6c-31.8-0.2-53,3.1-73.3,10.2c-21.4,7.5-40.7,18.3-55.3,36.2   c-21.7,26.6-18.5,59.3,6.8,83.7c13.2,12.9,28.9,21.7,46.3,27.8c43,15.1,86.2,15.2,129.2,0.6c23.8-7.9,44.6-20.3,58.9-41.6   c9.6-14.1,13-29.8,8.4-46.6c-6.1-21.7-21.3-36.2-39.8-47.2C318.6,216.9,287.6,210.9,265.4,210.6z M328.4,379.5   c-12.7,3.6-42.1,11-55.4,12.1c-25.5,2.2-50.5-0.2-75-7.3 M366.5,167.6c10.2,0,18-7.8,18-17.9c0-9.9-8.1-17.9-18-17.9   c-9.9,0-18,8.1-18,17.9C348.4,159.8,356.5,167.6,366.5,167.6z M367.7,233.1c12.7,10.7,23.3,23.1,29.2,39   c10.9-9.5,12.6-23.3,4.2-34.2C393.5,227.7,378.7,225.5,367.7,233.1z M114.1,271.1c6.4-15.8,16.8-28.1,29.4-38.5   c-9.5-7-23.5-5.3-31.4,3.7C102.9,246.9,103.5,260.4,114.1,271.1z" fill="#FAFAFA"/><path d="M202.9,296.2c13.1-0.2,24.1-11.2,24-24.3   c-0.2-12.9-11.1-23.6-24-23.8c-13.1-0.2-24.1,10.9-24.1,24.1C178.8,285.3,189.7,296.2,202.9,296.2z M307.3,296.2   c13.1-0.2,24.1-11.1,24.1-24.1S320,248,307,248.3c-12.9,0.2-23.6,11.1-23.6,24.1C283.2,285.5,293.9,296.2,307.3,296.2z    M254.9,357.5c6.8-0.2,13.5-0.2,20.2-1.3c12.7-2,24.6-5.6,34.4-14.5c4-3.8,4.6-7.4,1.7-10.6c-3-3.1-6.3-3-10.4,0.7   c-4.5,4-9.6,6.8-15.2,8.6c-12.2,3.8-24.8,4.8-37.5,3.8c-14.5-0.8-28.7-2.8-40-13.7c-2.8-2.6-6.3-2.3-8.8,0.5   c-2.6,2.8-2.8,6.3,0.2,9.3c4.1,4.3,8.9,7.8,14.4,10.1C226.7,356.2,240.7,357.5,254.9,357.5z" fill="none" stroke="#FAFAFA" stroke-miterlimit="10" stroke-width="10"/></g></svg>