<?xml version="1.0" ?><!DOCTYPE svg  PUBLIC '-//W3C//DTD SVG 1.1//EN'  'http://www.w3.org/Graphics/SVG/1.1/DTD/svg11.dtd'><svg enable-background="new 0 0 512 512" id="Layer_1" version="1.1" viewBox="0 0 512 512" xml:space="preserve" xmlns="http://www.w3.org/2000/svg" xmlns:xlink="http://www.w3.org/1999/xlink"><g id="Layer_1_1_"><circle cx="256" cy="256" fill="#90A4AE" r="238.2"/></g><g id="Layer_2_1_"><g><path d="M132.4,140c0-7.8,0.1-15.5,0-23.3    c-0.1-2,0.5-2.5,2.5-2.4c22.3,0.2,44.2,3.4,65.8,9.3c27.3,7.5,52.4,19.3,75.8,35.1c20.5,13.9,38.8,30.4,54.6,49.4    c21.3,25.6,37.3,54.1,48.1,85.6c9.4,27.6,14,56,14.5,85.1c0.1,1.6-0.6,2-2,2c-15.5-0.1-31.1-0.1-46.6,0c-1.9,0-1.9-1-1.9-2.3    c0-11-1-21.8-2.7-32.7c-3.1-19.2-8.7-37.7-16.7-55.4c-8.6-18.9-19.6-36.2-33.2-51.9c-14-16.1-30-30-48.1-41.3    c-16.2-10.2-33.4-18-51.8-23.4c-18-5.3-36.4-8.2-55.3-8.3c-2.3,0-3.1-0.5-3.1-3.1C132.5,154.9,132.4,147.4,132.4,140z" fill="none" stroke="#FAFAFA" stroke-miterlimit="10" stroke-width="10"/><path d="M132.4,230.3c0-7.7,0.1-15.3-0.1-23    c-0.1-2,0.6-2.5,2.5-2.5c20.4,0.5,40.3,4.2,59.3,11.7c23.9,9.4,44.6,23.6,62.2,42.2c16.7,17.6,29.1,37.9,37.5,60.6    c7,19.2,10.5,38.9,10.8,59.2c0.1,1.7-0.5,2.1-2.1,2.1c-15.3-0.1-30.7-0.1-46,0c-1.9,0-2.4-0.6-2.4-2.4    c-0.2-21.6-5.7-41.8-16.4-60.5c-10.1-17.6-23.8-32-40.9-43c-15.1-9.7-31.5-15.5-49.2-17.9c-4.3-0.6-8.8-1-13.2-0.7    c-1.8,0.1-2.2-0.6-2.2-2.3C132.4,246,132.4,238.1,132.4,230.3z" fill="none" stroke="#FAFAFA" stroke-miterlimit="10" stroke-width="10"/><path d="M167.3,309.8c19.2,0,34.6,15.7,34.6,35.2    c0,19.6-15.5,35.4-34.8,35.4s-34.8-15.8-34.7-35.5C132.4,325.4,147.7,309.8,167.3,309.8z" fill="none" stroke="#FAFAFA" stroke-miterlimit="10" stroke-width="10"/></g></g></svg>