<?xml version="1.0" ?><!DOCTYPE svg  PUBLIC '-//W3C//DTD SVG 1.1//EN'  'http://www.w3.org/Graphics/SVG/1.1/DTD/svg11.dtd'><svg enable-background="new 0 0 512 512" version="1.1" viewBox="0 0 512 512" xml:space="preserve" xmlns="http://www.w3.org/2000/svg" xmlns:xlink="http://www.w3.org/1999/xlink"><g id="Layer_1"><circle cx="256" cy="256" fill="#F67B10" r="238.2"/></g><g id="Layer_2"><g id="Layer_2_1_"><g><path d="M262.1,264.4c0-26.3,0-52.3,0-78.7     c0-6.3,0.4-6.8,5.4-9.1c45.1-20.4,93,12.4,103.2,62.9c0.7,3.6,1.3,7.2,1.8,10.9c0.3,2.2,0.7,3,2.9,2.1     c25.2-10.5,52.3,7.7,58.2,37.6c5.6,27.8-12.5,58.3-37,61.5c-3.1,0.4-6.1,0.6-9.3,0.6c-39,0-78.1,0-117.1-0.1     c-6.8,0-8.1-1.5-8.1-9.4C262.1,316.9,262.1,290.6,262.1,264.4z" fill="none" stroke="#FAFAFA" stroke-miterlimit="10" stroke-width="10"/><g><path d="M240,262.9c0,13,0.3,26.1-0.1,39.1      c-0.4,15.1-1.4,30.2-2.1,45.2c-0.1,3-1.6,4.9-4.3,4.9c-2.8-0.1-4.2-2.1-4.3-5.4c-0.5-10.1-1.1-20.3-1.4-30.4      c-0.9-33.5,1.1-66.9,1.4-100.4c0-3.5,2.1-6,4.5-5.6c2.8,0.4,4.1,2.4,4.1,5.7c0.4,15.7,0.8,31.3,1.1,46.9      C239.3,263,239.6,262.9,240,262.9z" fill="none" stroke="#FAFAFA" stroke-miterlimit="10" stroke-width="10"/></g><g><path d="M204.8,262.8c1,19.8,2.4,39.5,0.9,59.2      c-0.6,8.1-1,16.1-1.4,24.2c-0.1,2.9-0.5,5.8-3.7,5.8c-3.3,0.1-3.6-2.7-3.8-5.7c-2.1-28.8-2.2-57.6-1.1-86.3      c0.6-16.1,0.8-32.1,1.2-48.2c0.1-1.5-0.1-3,0.6-4.4c0.9-1.7,2.3-2.5,3.9-2c2.2,0.7,2.8,2.6,2.9,5c0.2,8.5,0.6,17.1,0.6,25.5      C204.9,245,204.8,253.9,204.8,262.8z" fill="none" stroke="#FAFAFA" stroke-miterlimit="10" stroke-width="10"/></g><g><path d="M163.3,264.3c0.4-13.7,0.8-27.4,1.2-41.1      c0-1.1,0.1-2.2,0.2-3.3c0.2-2.1,1.1-3.7,3.1-3.6c1.8,0.1,2.7,1.5,2.8,3.5c0.4,8.1,0.7,16.1,1,24.2c0.7,19.9,1.8,39.7,2,59.6      c0.1,11-1.4,22.2-2.1,33.2c-0.2,3-0.2,6-0.6,9c-0.3,2.6,0.3,6.2-3.2,6.2c-3.5,0.1-3.1-3.5-3.3-6.1c-0.6-9.1-0.9-18-1.6-27.1      C161.3,300.7,163,282.5,163.3,264.3z" fill="none" stroke="#FAFAFA" stroke-miterlimit="10" stroke-width="10"/></g><path d="M139.4,304.8c-0.9,11.8-1.9,23.7-2.8,35.8     c-0.1,2.1-0.2,4.4-0.4,6.6c-0.2,2-0.1,4.5-2.6,4.6s-2.6-2.4-2.7-4.4c-0.6-7.7-0.7-15.3-1.6-22.9c-2.4-20.3,0.5-40.4,1.6-60.6     c0.1-2,0.2-4.4,2.7-4.4c2,0,2.4,2.1,2.5,3.9C137.2,276.9,138.2,290.8,139.4,304.8z" fill="none" stroke="#FAFAFA" stroke-miterlimit="10" stroke-width="10"/><path d="M110.2,302.9c0.3,7.6-1.6,17.4-2.1,27.2     c-0.3,5.2-0.9,10.4-1.4,15.6c-0.1,1.6-0.1,3.7-2.1,3.6c-1.9-0.1-1.7-2.1-1.9-3.8c-1.1-13.3-2.4-26.4-3.1-39.7     c-0.3-6.7,0.6-13.3,1.1-20.1c0.6-7.7,1.3-15.6,1.9-23.3c0.1-1.7-0.4-4.1,1.8-4.2c2.4-0.1,2.1,2.6,2.2,4.4     C108,275.2,108.9,287.9,110.2,302.9z" fill="none" stroke="#FAFAFA" stroke-miterlimit="10" stroke-width="10"/><path d="M81.7,304.5c-1,7.4-2.1,15-3.1,22.6     c-0.1,1.1-0.6,1.9-1.6,1.7c-1.1-0.2-1.2-1.2-1.4-2.1c-1.4-11.8-3.6-23.5-1.1-35.4c0.6-2.9,0.7-5.9,1.1-9c0.1-1.2,0.2-2.4,1.4-2.5     c1.2-0.2,1.5,1,1.6,2.1C79.7,289.4,80.7,296.8,81.7,304.5z" fill="none" stroke="#FAFAFA" stroke-miterlimit="10" stroke-width="10"/></g></g></g></svg>