<?xml version="1.0" ?><!DOCTYPE svg  PUBLIC '-//W3C//DTD SVG 1.1//EN'  'http://www.w3.org/Graphics/SVG/1.1/DTD/svg11.dtd'><svg enable-background="new 0 0 512 512" version="1.1" viewBox="0 0 512 512" xml:space="preserve" xmlns="http://www.w3.org/2000/svg" xmlns:xlink="http://www.w3.org/1999/xlink"><g id="Layer_1"><circle cx="256" cy="256" fill="#00BF8F" r="238.2"/></g><g id="Layer_2"><g id="Layer_2_1_"><path d="M295.5,181.3c0-20.9,41.9-31.6,41.9,3.6    c-0.1,19.4-2.7,37.2-7.1,53.6h43.6c3.4-19.8,3.2-39.3,3.2-62.2c0-64.7-122.1-75.6-122.1,6.5c0,57.6,27.8,88,56.8,103.9    c-24.1,46.4-56.8,71.7-56.8,71.7c-91.2-72.7-82.4-195.8-82.4-195.8h-39.7c0.7,166.3,90.5,224.7,101.6,233.2    c11.1,8.7,13.2,8,26.5,7.2c13.2-0.7,43.3-30.2,80.2-86.4c3.5-5.5,6.7-10.6,9.6-15.7c15.4,3.4,26.4,3.5,26.4,3.5v-35.2    C299.8,262,295.5,197.1,295.5,181.3z" fill="none" stroke="#FAFAFA" stroke-miterlimit="10" stroke-width="10"/></g></g></svg>