<?xml version="1.0" ?><!DOCTYPE svg  PUBLIC '-//W3C//DTD SVG 1.1//EN'  'http://www.w3.org/Graphics/SVG/1.1/DTD/svg11.dtd'><svg enable-background="new 0 0 512 512" id="Layer_1" version="1.1" viewBox="0 0 512 512" xml:space="preserve" xmlns="http://www.w3.org/2000/svg" xmlns:xlink="http://www.w3.org/1999/xlink"><g id="Layer_1_1_"><circle cx="256" cy="256" fill="#FF8A65" r="238.2"/></g><g id="Layer_2_1_"><g><path d="M319.9,103.8c21.3,0.1,38.6,16.6,40,38.1    c1.5,21.5-13.4,40.2-33.1,43.4c-13.6,2.2-25.3-1.7-35-11.2c-1.6-1.5-2.4-1.7-4.2-0.3c-35.1,26.9-70.2,53.8-105.4,80.6    c-1.7,1.2-2.1,2.4-1.6,4.4c2.3,10,1.1,19.7-3.7,28.8c-1.3,2.4-0.8,3.2,1.4,4.2c32,15.2,64,30.4,96,45.6c6.1,2.9,12.3,5.8,18.4,8.8    c2.1,1.1,3.4,1.1,5.3-0.6c16.3-14.1,37.3-13.9,53.6,0.3c12.1,10.6,16.5,29.7,10.4,45.4c-6.3,16.2-21.2,26.4-38,26.1    c-26.2-0.6-44.7-25.6-38.1-51.6c0.7-2.6,0.1-3.6-2.2-4.6c-39.6-18.8-79.2-37.6-118.8-56.4c-1.7-0.8-3.1-0.9-4.8,0.1    c-24.9,13.2-55.6-3.5-58.2-31.6c-2-21.4,10.2-39.7,30.3-44.7c13.8-3.5,26.2-0.1,36.6,9.6c1.7,1.6,2.6,1.4,4.3,0.1    c35.2-27,70.4-53.9,105.6-80.7c2-1.5,2.5-3.1,2-5.4c-4-22.7,10.9-43.8,33.5-47.7C316,103.8,317.9,103.9,319.9,103.8z" fill="none" stroke="#FAFAFA" stroke-miterlimit="10" stroke-width="10"/></g></g></svg>