<?xml version="1.0" ?><!DOCTYPE svg  PUBLIC '-//W3C//DTD SVG 1.1//EN'  'http://www.w3.org/Graphics/SVG/1.1/DTD/svg11.dtd'><svg height="6.82666in" style="shape-rendering:geometricPrecision; text-rendering:geometricPrecision; image-rendering:optimizeQuality; fill-rule:evenodd; clip-rule:evenodd" viewBox="0 0 6.82666 6.82666" width="6.82666in" xml:space="preserve" xmlns="http://www.w3.org/2000/svg" xmlns:xlink="http://www.w3.org/1999/xlink"><defs><style type="text/css">
   <![CDATA[
    .fil2 {fill:none}
    .fil1 {fill:#212121}
    .fil0 {fill:#212121;fill-rule:nonzero}
   ]]>
  </style></defs><g id="Layer_x0020_1"><path class="fil0" d="M4.79252 4.02226c-0.0257717,0.0141496 -0.035189,0.0465197 -0.0210394,0.0722913 0.0141496,0.0257717 0.0465197,0.035189 0.0722913,0.0210394 0.196752,-0.108331 0.361571,-0.270024 0.47602,-0.466307 0.110425,-0.18939 0.173929,-0.410862 0.173929,-0.64752l-0.000208661 0c3.93701e-006,-0.306169 -0.106063,-0.586602 -0.282433,-0.804854 -0.179906,-0.22263 -0.432866,-0.380752 -0.721079,-0.435874 -0.028878,-0.00551969 -0.0567717,0.0134134 -0.0622913,0.0422913 -0.00551969,0.028878 0.0134134,0.0567717 0.0422913,0.0622913 0.262992,0.0502992 0.493886,0.194669 0.658165,0.397961 0.161795,0.200217 0.259094,0.457421 0.259094,0.738185l-0.000208661 0c0,0.217472 -0.0581772,0.420685 -0.159339,0.594189 -0.10463,0.179441 -0.255311,0.327264 -0.435193,0.426307z"/><path class="fil0" d="M3.41726 1.11043c1.05354,0.000177165 1.81285,0.428528 2.20287,0.993807 0.1665,0.241319 0.265894,0.507717 0.292461,0.776843 0.0266575,0.27002 -0.0199016,0.542469 -0.145406,0.794917 -0.260063,0.52313 -0.858535,0.959433 -1.84567,1.10609 -0.471421,0.675898 -1.77066,0.931638 -1.77443,0.932398l-0.00375197 0.000625984c-0.0292244,0.00373228 -0.0577441,-0.00164173 -0.0817047,-0.0155748 -0.0239252,-0.0139134 -0.0428425,-0.0356929 -0.0531575,-0.0647874l-9.84252e-005 -0.000566929c-0.00123228,-0.00364961 -0.00190157,-0.00758268 -0.00207874,-0.0117677l-0.000948819 -0.00537402 0 -1.9685e-005 0.000996063 0c0.00464567,-0.0803622 0.177945,-0.246406 0.368173,-0.428638 0.159283,-0.152587 0.331409,-0.31748 0.415512,-0.426886 -0.933461,-0.170827 -1.49252,-0.58848 -1.73704,-1.083 -0.125441,-0.253689 -0.168075,-0.527098 -0.136028,-0.797768 0.0319094,-0.269457 0.137937,-0.536106 0.309996,-0.777591 0.402488,-0.564882 1.16773,-0.992535 2.19031,-0.992701zm2.11537 1.05422c-0.372028,-0.539209 -1.10063,-0.947799 -2.11537,-0.947972 -0.98472,0.000161417 -1.71923,0.408606 -2.10364,0.948118 -0.161524,0.226697 -0.260996,0.47648 -0.290831,0.728417 -0.029689,0.250728 0.00967717,0.503724 0.12561,0.738185 0.237264,0.479839 0.795374,0.884173 1.73886,1.03904l0.0447913 0.00735039 0 0.0451496 0 1.9685e-005 -0.00583465 0.023748 -0.000251969 0.000503937 0 0.000208661c-0.0589764,0.116496 -0.278118,0.326433 -0.477701,0.517626 -0.178335,0.170839 -0.339646,0.325374 -0.339374,0.334283 0.00139764,0.00394094 0.00354724,0.00665354 0.00607087,0.00812205 0.00352756,0.00205118 0.00827953,0.00286614 0.0136693,0.00238583 0.0583937,-0.0117874 1.28128,-0.264909 1.71221,-0.898004l0.00618898 -0.00903937 0.0132756 -0.0193937 0.0231811 -0.00331496c0.961835,-0.13765 1.54077,-0.553295 1.78828,-1.05118 0.116484,-0.234303 0.159705,-0.487039 0.134988,-0.737413 -0.0248071,-0.251268 -0.117965,-0.500512 -0.274122,-0.726843z"/><path class="fil1" d="M2.48543 2.85375l0 -0.0899291 -0.192157 0.00344094 0.00682283 -0.308197 -0.14176 0 -0.00681102 0.308559 -0.115488 -0.00340945 0 0.0895354 0.116894 0 -0.00581496 0.297555 -0.000606299 0.0303465 -0.000389764 0.0261024 -0.000492126 0.0523425 -0.000244094 0.0611181 -1.1811e-005 0.0368898 5.11811e-005 0.00640945 3.93701e-005 0.00186614 0.000149606 0.00629921 0.000248031 0.0061811 8.66142e-005 0.00194882 0.000346457 0.0060748 0.000129921 0.00192126 0.000468504 0.00624016 0.000559055 0.00606299 0.00019685 0.00194882 0.000677165 0.00605906 0.000783465 0.00594882 0.000283465 0.00196063 0.000614173 0.00411024 0.00030315 0.00189764 0.00103937 0.00601969 0.00113386 0.00589764 0.00127953 0.00594488 0.000409449 0.00177165 0.000968504 0.00404331 0.000464567 0.00179921 0.00105512 0.00403543 0.000503937 0.00177953 0.00115354 0.004 0.000555118 0.0017874 0.00124016 0.00395276 0.00131102 0.00383071 0.000645669 0.00185039 0.00142913 0.00386614 0.000669291 0.00172835 0.00155118 0.00390551 0.00159449 0.00373228 0.000807087 0.00182283 0.00175591 0.00379528 0.000854331 0.00175591 0.000944882 0.00191339 0.000940945 0.00185039 0.00194882 0.00367717 0.0021063 0.00370079 0.00106299 0.00179921 0.0010748 0.00176378 0.00115748 0.00185827 0.0011811 0.00182283 0.00140945 0.00214961c0.0365512,0.0556732 0.100417,0.0708071 0.163602,0.0708071 0.0393504,0 0.0796181,-0.0117598 0.11411,-0.0302638l0.0421339 -0.0226063 -0.0297992 -0.0630551 -0.000555118 0.000330709 -0.00380315 0.00219291c-0.00161417,0.000929134 -0.00324803,0.00181102 -0.00488976,0.00268898 -0.00163386,0.000877953 -0.00327953,0.00174016 -0.00493701,0.0025748 -0.00176378,0.000885827 -0.00353937,0.00174803 -0.00532677,0.00259055 -0.00197638,0.000929134 -0.0039685,0.00182283 -0.00597638,0.0026811 -0.00221654,0.000944882 -0.00444488,0.00184646 -0.00669685,0.00270079 -0.00260236,0.000984252 -0.00522835,0.00191732 -0.00787795,0.00276378 -0.00324409,0.00103937 -0.00651969,0.00197638 -0.00982283,0.00279921 -0.00499213,0.00123622 -0.0100472,0.00220472 -0.0151457,0.00287795 -0.00562992,0.000744094 -0.0112992,0.00112598 -0.0169764,0.00112598 -0.00587795,0 -0.0117559,-0.000354331 -0.0175827,-0.00113386 -0.00517323,-0.000688976 -0.0103031,-0.00173228 -0.0153268,-0.00315748 -0.00330709,-0.000937008 -0.00656299,-0.00205118 -0.00975197,-0.00333465 -0.00593307,-0.00238976 -0.00205906,-0.000629921 -0.00758268,-0.0034685 -0.00464567,-0.00238976 -0.00160236,-0.000637795 -0.00625984,-0.00353937 -0.00404331,-0.00252362 -0.00146457,-0.000783465 -0.00525984,-0.00355512 -0.00349606,-0.00255118 -0.0012874,-0.000822835 -0.00458268,-0.00358661 -0.0029685,-0.00249213 -0.00106299,-0.000775591 -0.00401969,-0.00359055 -0.0026811,-0.00255906 -0.000980315,-0.000838583 -0.00353543,-0.00357874 -0.00243307,-0.0026063 -0.000866142,-0.000850394 -0.00306693,-0.0034685 -0.0020748,-0.00246457 -0.000665354,-0.000688976 -0.00275197,-0.0034252 -0.00207087,-0.0027126 -0.000799213,-0.00100394 -0.00248031,-0.00342913 -0.0018189,-0.00262598 -0.000622047,-0.000830709 -0.00223622,-0.00338976 -0.000692913,-0.00109449 -0.00135827,-0.00220866 -0.00200394,-0.00333465 -0.00129528,-0.00225197 -0.000535433,-0.000744094 -0.00209449,-0.00385039l-0.00136614 -0.0027126 -0.00144488 -0.00314961 -0.0013189 -0.00309843 -0.00119685 -0.00307087 -0.00107874 -0.003 -0.000996063 -0.003 -0.000917323 -0.00302362 -0.000838583 -0.00307087 -0.000673228 -0.0026063 -0.00073622 -0.00320079 -0.000570866 -0.00270472 -0.000555118 -0.00288583 -0.000433071 -0.00248031 -0.000468504 -0.0029252 -0.000366142 -0.0026063 -0.000346457 -0.00270472 -0.000271654 -0.00240945 -0.000287402 -0.00280315 -0.000228346 -0.00259843 -0.000185039 -0.00245669 -0.000173228 -0.00275984 -0.00011811 -0.00236614 -0.000106299 -0.00247244 -9.05512e-005 -0.00274409 -4.72441e-005 -0.00233071 -3.54331e-005 -0.00244882 -1.1811e-005 -0.00245276 8.26772e-005 -0.0745787 1.1811e-005 -0.00212992 0.000370079 -0.0615512 0.000307087 -0.0285787 3.14961e-005 -0.00211811 0.000271654 -0.0198937 3.93701e-005 -0.00207087 2.75591e-005 -0.00228346 0.000555118 -0.0307953 9.44882e-005 -0.00433465 3.93701e-005 -0.00221654 4.72441e-005 -0.00212598 0.00561811 -0.280744 0.190736 0zm2.06155 0.664992l-0.278976 -0.356508 -0.0171378 -0.0219449 0.0262874 -0.0294764 0.270173 -0.303988 -0.0963583 -0.0807992 -0.342681 0.42426 0.201543 0.278827 0.122201 0.169028 0.114949 -0.0793976zm-0.503047 -0.383024l0 -0.00504724 2.75591e-005 -0.0016063 0.00149606 -0.120091 0.00830709 -0.665996 -0.141579 0 -0.00976378 1.21477 0.141508 0 3.93701e-006 -0.422028zm-0.384795 -0.79274l-0.14178 0 -0.00975591 1.21477 0.141831 0 0.00970472 -1.21477zm-0.691661 1.2007l0.00360236 -0.00235433 0.00344882 -0.00232677 0.00337402 -0.00234252 0.00326772 -0.00233858 0.00317717 -0.00234646 0.00311024 -0.00235433 0.00302756 -0.00235039 0.00294488 -0.00235039 0.00282283 -0.00230315 0.00284252 -0.00237402 0.00280315 -0.00239764 0.00278346 -0.00242126 0.00256299 -0.0022874 0.00261417 -0.00238976 0.00254724 -0.00236614 0.00252756 -0.00240157 0.0024685 -0.00238583 0.00243307 -0.00240157 0.00237008 -0.00237402 0.00233071 -0.00238583 0.00229528 -0.0023937 0.00225984 -0.0023937 0.00222441 -0.00240157 0.00223228 -0.00244882 0.00214567 -0.00238189 0.0020748 -0.00235433 0.00295669 -0.00341339 0.0432126 -0.0496693 0.0151457 0.0672992 0.000488189 0.00198425 0.000547244 0.00205906 0.000598425 0.00212205 0.000606299 0.0020315 0.000653543 0.00202362 0.000681102 0.00200787 0.000724409 0.00199606 0.000787402 0.00204331 0.000826772 0.00203937 0.000870079 0.00204331 0.000893701 0.00199606 0.000944882 0.00198819 0.000988189 0.00197638 0.00104724 0.00198031 0.00111811 0.00202362 0.00113386 0.00195276 0.00120866 0.00196457 0.00130315 0.00202756 0.00132283 0.00196457 0.00138976 0.00195669 0.00148819 0.00199213 0.00151969 0.00194882 0.00160236 0.00193701 0.00200787 0.00231102c0.000389764,0.000448819 0.000791339,0.000885827 0.00120472,0.00131102l0.00251969 0.00261024c0.000551181,0.000570866 0.00113386,0.00112205 0.00170472,0.00166929 0.00069685,0.000665354 0.00139764,0.00132677 0.00211024,0.0019685 0.000732283,0.000665354 0.00148031,0.0013189 0.00223228,0.00196063 0.00080315,0.000681102 0.00161811,0.00135433 0.00244094,0.00201575 0.000830709,0.000665354 0.00166929,0.0013189 0.00251969,0.00196063 0.000877953,0.000661417 0.00177165,0.00130709 0.00266929,0.00194094 0.000988189,0.000692913 0.00198031,0.00137795 0.00298819,0.00203937 0.0010315,0.000677165 0.00207874,0.00133071 0.00313386,0.0019685 0.0011378,0.000692913 0.0022874,0.00136614 0.00344882,0.00201575 0.00124803,0.000700787 0.00251181,0.00137008 0.00378346,0.00201969 0.00135433,0.00069685 0.00272835,0.00135827 0.00411024,0.00199606 0.00153937,0.000704724 0.00309055,0.00137795 0.00465748,0.00201969 0.00177559,0.000724409 0.0035748,0.00140157 0.00538583,0.00203937 0.00210236,0.000744094 0.00422047,0.00143701 0.00635827,0.00206299 0.00264961,0.000779528 0.00533465,0.00146063 0.0080315,0.00206693 0.00385433,0.000870079 0.00775197,0.00156299 0.0116693,0.00208661 0.00653937,0.00088189 0.0131339,0.00130709 0.0197323,0.00130709 0.0070748,0 0.0141024,-0.000417323 0.021122,-0.00132677 0.00425984,-0.000551181 0.00849213,-0.00127559 0.0126969,-0.00216142 0.00311024,-0.00065748 0.00620079,-0.00140157 0.00927559,-0.00221654 0.00261417,-0.000692913 0.00521654,-0.00144882 0.00780315,-0.00224409 0.00232283,-0.000712598 0.0046378,-0.00147244 0.00693701,-0.00226378 0.00215354,-0.000744094 0.00429921,-0.00151181 0.00643307,-0.00231102 0.00200394,-0.000748031 0.00399606,-0.00152756 0.00598031,-0.00232283 0.00190945,-0.000767717 0.00381496,-0.00154724 0.00570472,-0.00235039 0.00183465,-0.000779528 0.00366142,-0.00157874 0.00548425,-0.00238976 0.00166535,-0.000740157 0.00332283,-0.00148425 0.0049685,-0.00226378l0.00528346 -0.00250394 0.00488583 -0.00240945 0.00471654 -0.0023937 0.00473622 -0.00247244 0.00446457 -0.0023937 0.00447638 -0.00246063 0.00437795 -0.00245276 0.00433071 -0.00248819 0.00423622 -0.00246457 0.00417717 -0.00248425 0.00455906 -0.00275591 -0.0228583 -0.0480512c-0.000559055,0.000228346 -0.00111811,0.00046063 -0.00167717,0.000688976 -0.00249213,0.00101969 -0.00499213,0.00200787 -0.00751181,0.00295669 -0.00294488,0.00111024 -0.00590945,0.00216929 -0.00890551,0.00313386 -0.00463386,0.00149606 -0.00935039,0.00277953 -0.0141417,0.00366535 -0.00979921,0.0018189 -0.00456299,0.00127559 -0.0132441,0.00127559 -0.00853937,0 -0.00565354,0.000307087 -0.0137244,-0.00171654 -0.005,-0.00125197 -0.00980709,-0.00316535 -0.0143425,-0.00561811 -0.00552362,-0.00298425 -0.00266535,-0.00117717 -0.00788976,-0.00497638 -0.00412205,-0.003 -0.0017126,-0.00103937 -0.00575591,-0.00462598 -0.00336614,-0.00298819 -0.00123622,-0.000944882 -0.0045,-0.00429921 -0.0029685,-0.00305118 -0.00105512,-0.000976378 -0.00376378,-0.00412992 -0.00259843,-0.00302362 -0.000870079,-0.000905512 -0.00324803,-0.00399606 -0.000992126,-0.00129134 -0.00195669,-0.0026063 -0.00288583,-0.00394488 -0.000850394,-0.00122835 -0.00167323,-0.00247244 -0.00247244,-0.00373228 -0.00080315,-0.00125984 -0.00157874,-0.00253543 -0.00232283,-0.00383071 -0.000688976,-0.00119291 -0.0013622,-0.0023937 -0.00200787,-0.00361024 -0.000629921,-0.0011811 -0.00124016,-0.00236614 -0.00182677,-0.00356693 -0.000641732,-0.00130315 -0.00126772,-0.0026063 -0.00184646,-0.00393307l-0.00114173 -0.00261024c-0.00143701,-0.0032874 -0.000625984,-0.00131496 -0.00175591,-0.00437008l-0.00112992 -0.00304331 -0.00115748 -0.00340157 -0.00105512 -0.00335039 -0.000984252 -0.00342126 -0.000940945 -0.00364173 -0.000724409 -0.00302362 -0.000720472 -0.00338189 -0.000665354 -0.00352756 -0.000519685 -0.00302362 -0.000523622 -0.00361024 -0.000417323 -0.00330315 -0.000334646 -0.00315354 -0.000271654 -0.00300787 -0.000228346 -0.00355512 -0.00015748 -0.00325984 -9.05512e-005 -0.0032126 -3.93701e-005 -0.00337402 0 -0.0023189 2.3622e-005 -0.00541732 8.26772e-005 -0.00798425 7.87402e-005 -0.00536614 0.000161417 -0.00804724 0.000283465 -0.0106024 0.000165354 -0.00535433 0.000181102 -0.00530709 0.000602362 -0.015811 0.00185827 -0.0426417 0.00688189 -0.248327 0.00015748 -0.00207087 0.000169291 -0.00240157 0.000307087 -0.00488976 0.000259843 -0.00491732 0.000106299 -0.00241339 0.000188976 -0.00496457 7.48031e-005 -0.00245276 0.000129921 -0.00496457 9.44882e-005 -0.00501575 6.29921e-005 -0.00505118 6.29921e-005 -0.00762205 1.9685e-005 -0.00514961 1.5748e-005 -0.0181811c6.69291e-005,-0.0753898 -0.0270787,-0.145807 -0.0940551,-0.185524 -0.033189,-0.0196772 -0.0716142,-0.0287677 -0.110035,-0.0287677l-0.0211063 0c-0.0484331,0 -0.0898701,0.00973228 -0.134224,0.0292087 -0.0632165,0.0277559 -0.125476,0.0716535 -0.181024,0.115547l0.0552362 0.0619016 0.00100394 -0.000755906c0.0403504,-0.0303661 0.0861299,-0.0631102 0.132138,-0.0843189 0.028,-0.0129055 0.0554016,-0.0209213 0.0863898,-0.0209213 0.0860197,0 0.127354,0.0433583 0.131933,0.130114l0.000161417 0.00311024 0.000102362 0.00275591 9.44882e-005 0.0029252 5.90551e-005 0.00291732 3.54331e-005 0.00279921 1.9685e-005 0.00325197 0 0.0845591 -0.0315157 0.0053189c-0.00503543,0.000850394 -0.0100669,0.00169291 -0.0150984,0.0025748 -0.00479134,0.000834646 -0.00958268,0.00168504 -0.0143701,0.00255906 -0.00453937,0.000834646 -0.00907874,0.00169291 -0.0136142,0.00255906 -0.0043622,0.000834646 -0.00872441,0.00168898 -0.0130827,0.00255906 -0.00418504,0.000834646 -0.00837008,0.00168504 -0.0125512,0.00255118 -0.00401969,0.000834646 -0.00803937,0.00168504 -0.0120551,0.00255118 -0.00388583,0.000838583 -0.00776772,0.0016811 -0.0116457,0.00255118 -0.00368898,0.000830709 -0.00737008,0.00168504 -0.0110512,0.00254331 -0.00357087,0.000834646 -0.00713386,0.00168504 -0.0106929,0.00254724 -0.00344488,0.000834646 -0.0068937,0.00167323 -0.0103307,0.00253937 -0.00333465,0.000834646 -0.00666929,0.00166929 -0.00999213,0.00253543 -0.00313386,0.000814961 -0.00626378,0.00164173 -0.00938583,0.00249606l-0.00952362 0.00261024c-0.00289764,0.000795276 -0.00579134,0.00160236 -0.00867717,0.00244488l-0.00890551 0.00261024c-0.00269685,0.000791339 -0.00538976,0.00161417 -0.0080748,0.00244882l-0.00840157 0.00261024c-0.00248819,0.000771654 -0.0049685,0.00157087 -0.00744094,0.0023937l-0.00782677 0.00261024c-0.00235827,0.000787402 -0.00472047,0.00157874 -0.00706693,0.00240945l-0.00715354 0.0025315 -0.00706693 0.00257874c-0.00220472,0.00080315 -0.00440551,0.00162205 -0.00660236,0.00245276 -0.00207874,0.000795276 -0.00415354,0.00160236 -0.00622441,0.0024252l-0.00633858 0.00251575 -0.00631102 0.00257874c-0.00190945,0.000779528 -0.00380315,0.0016063 -0.00570079,0.00241339 -0.00190945,0.000811024 -0.0038189,0.00161811 -0.00572047,0.00245669 -0.0017874,0.000783465 -0.00356693,0.00159055 -0.00534646,0.00240157l-0.00544094 0.00249213 -0.0051811 0.00244094 -0.0052874 0.00256693c-0.00161024,0.000783465 -0.00321654,0.00156693 -0.00481102,0.00237402 -0.00158661,0.000799213 -0.00316142,0.00163386 -0.00474409,0.00245276 -0.00153937,0.000795276 -0.00308268,0.00159055 -0.00461024,0.00240945 -0.00146063,0.000779528 -0.00291339,0.00157087 -0.0043622,0.00237402l-0.00449213 0.00248425 -0.00413386 0.00237008 -0.00420866 0.00246457 -0.00396063 0.00238583 -0.00382677 0.00237795 -0.0038189 0.00241339 -0.00370472 0.00243701c-0.0010748,0.000708661 -0.00216535,0.00140157 -0.00322047,0.0021378l-0.00374409 0.00260236c-0.0011063,0.000767717 -0.00221654,0.0015315 -0.00331102,0.00231496 -0.00109055,0.000783465 -0.00216142,0.00159449 -0.00324016,0.00238976 -0.00105118,0.000771654 -0.00211024,0.00153937 -0.00314961,0.00232677 -0.00101181,0.00076378 -0.00200394,0.00155512 -0.00300787,0.00233465 -0.000992126,0.000775591 -0.00200394,0.00153543 -0.00298819,0.00232677 -0.000980315,0.000783465 -0.00194094,0.00159449 -0.00291339,0.00238976 -0.000929134,0.000759843 -0.00186614,0.00150787 -0.00277953,0.00227953 -0.000913386,0.000771654 -0.00180315,0.00156693 -0.00270866,0.00234646 -0.000874016,0.000755906 -0.00176378,0.00150787 -0.00262992,0.00227953 -0.00084252,0.000751969 -0.00166929,0.00152756 -0.00250394,0.00229134l-0.00284252 0.0026063c-0.000712598,0.000653543 -0.00140157,0.00137795 -0.00210236,0.00205512 -0.00076378,0.00073622 -0.00154331,0.00146457 -0.00229528,0.0022126 -0.000748031,0.000744094 -0.00148031,0.00151181 -0.00221654,0.00226772l-0.00254331 0.0026063c-0.000598425,0.000614173 -0.00117717,0.00128346 -0.00175984,0.00191339l-0.00239764 0.00260236c-0.000559055,0.000610236 -0.00109449,0.00125984 -0.00163386,0.00188583l-0.00202756 0.00233465 -0.00179134 0.00214961 -0.00190157 0.00233465 -0.00173228 0.00219685 -0.00166535 0.00217323 -0.0017126 0.00229921 -0.0015748 0.0021811 -0.00157874 0.00224016 -0.00298819 0.00445669 -0.00140551 0.00223228c-0.000452756,0.000712598 -0.000913386,0.00142126 -0.00135039,0.00214173 -0.000433071,0.000708661 -0.000846457,0.00143307 -0.00126772,0.00215354l-0.00133858 0.00227953 -0.00116535 0.00210236 -0.00126378 0.00231496 -0.00114173 0.00217323 -0.00109843 0.00216535 -0.00125197 0.00253543c-0.000307087,0.000625984 -0.000582677,0.00127559 -0.000877953,0.00190945l-0.00101181 0.00216929 -0.00190157 0.00441732 -0.000834646 0.00205512 -0.000925197 0.00234646 -0.00080315 0.00211811 -0.000822835 0.00230315c-0.000216535,0.000602362 -0.000433071,0.00114173 -0.000645669,0.00174803l-0.0015748 0.00485039 -0.000645669 0.00212205 -0.000641732 0.00220866 -0.000633858 0.00223622 -0.00116929 0.00445669 -0.00104724 0.00450394 -0.00046063 0.00214961 -0.000468504 0.00231102 -0.000444882 0.00221654 -0.000779528 0.00445276 -0.000685039 0.00450787 -0.000318898 0.00230315 -0.000570866 0.00456299 -0.000452756 0.00458268 -0.000185039 0.00212205 -0.000346457 0.00472441 -0.000248031 0.00464567 -8.66142e-005 0.00215748 -0.000137795 0.0047874 -5.51181e-005 0.00536614 7.08661e-005 0.00632283 0.000141732 0.00469685 8.66142e-005 0.00229528 0.000255906 0.00475197 0.000141732 0.00211811 0.000366142 0.00484646 0.000204724 0.00214961 0.000248031 0.00244882 0.000244094 0.0023189 0.000570866 0.00470472 0.000287402 0.00211417 0.000704724 0.00475197 0.000787402 0.00466929 0.00038189 0.00208661 0.000929134 0.00474803 0.000996063 0.00456693 0.000507874 0.00214567 0.000582677 0.00237795 0.000570866 0.00227165 0.00124803 0.00461811 0.000622047 0.00212205 0.000688976 0.00230709 0.000700787 0.00225591 0.000744094 0.00229921 0.000755906 0.00227559 0.00160236 0.00455118 0.00170472 0.00447638 0.000893701 0.00219291 0.00096063 0.00234252 0.000901575 0.00211024 0.00101181 0.0022874 0.00104331 0.00230315 0.00101969 0.00215748 0.00111417 0.00229921 0.00110236 0.00218898 0.00116142 0.00225197 0.00117717 0.0021811 0.00125197 0.00229134 0.00125984 0.00219685 0.00130709 0.00225197 0.00132283 0.00216929 0.00139764 0.00225984 0.00137795 0.00212598 0.00152756 0.00231102 0.00150787 0.00219685 0.00157874 0.00224016 0.00158661 0.00218898 0.00162598 0.00215748 0.00174803 0.00227165 0.00175197 0.0021811 0.00208268 0.00255906c0.000480315,0.000586614 0.00100787,0.00115748 0.00150787,0.00173228l0.00208268 0.00237795 0.0019685 0.00216929 0.00208661 0.00222441 0.00244488 0.00255118c0.000547244,0.000570866 0.00112992,0.00111811 0.00169685,0.00166535l0.00253543 0.00244094 0.00261417 0.00244488c0.000641732,0.000606299 0.00131496,0.00118504 0.00198425,0.00176378l0.00300787 0.00261024c0.000775591,0.000673228 0.00156693,0.00132677 0.0023622,0.00198031 0.00084252,0.000688976 0.00168898,0.00137402 0.00255118,0.00203937l0.00337008 0.0026063c0.000885827,0.000685039 0.00178346,0.00135039 0.00268898,0.00200394 0.000929134,0.000677165 0.00185433,0.00135827 0.00280315,0.00200394l0.00384252 0.00261024c0.00104331,0.000708661 0.0021063,0.00138583 0.00316929,0.00206299 0.00120079,0.00076378 0.00240551,0.00151969 0.00362205,0.00225984 0.00122441,0.000744094 0.00244882,0.00148031 0.00368898,0.00219685 0.00131496,0.000759843 0.00262992,0.00150787 0.00396063,0.00223622 0.00142126,0.000779528 0.00285039,0.00153543 0.0042874,0.00228346 0.00146457,0.00076378 0.00294094,0.0015 0.00442126,0.00222441 0.00158661,0.000771654 0.0031811,0.00152756 0.00478346,0.00225984 0.00168504,0.000775591 0.00338583,0.00152756 0.00509449,0.00225591 0.00182677,0.000783465 0.00366142,0.00153937 0.00551181,0.00227165 0.00198425,0.000787402 0.00398819,0.00152756 0.00599606,0.00225591 0.00220866,0.00080315 0.00443307,0.00155906 0.00666535,0.00229528 0.00240551,0.000795276 0.00482677,0.00155118 0.00725984,0.00225984 0.00280315,0.000818898 0.00561811,0.00158268 0.00844488,0.00230315 0.00326772,0.000826772 0.00655118,0.00160236 0.00985039,0.00230315 0.00412205,0.000874016 0.00826378,0.00164173 0.0124213,0.0023189 0.00598031,0.000968504 0.0119882,0.00174016 0.0180157,0.00232677 0.0100039,0.000968504 0.0200512,0.00144488 0.0300984,0.00144488 0.00786614,0 0.0157323,-0.000468504 0.0235472,-0.00137795 0.00489764,-0.000570866 0.00977165,-0.00132283 0.0146181,-0.00224016 0.0035,-0.000665354 0.00698425,-0.00140945 0.0104488,-0.00225197 0.00285433,-0.000692913 0.00569291,-0.00145669 0.00851575,-0.00226378 0.0025,-0.000716535 0.00499213,-0.00147244 0.00746457,-0.00227559 0.00222047,-0.000720472 0.00442913,-0.00148031 0.00662598,-0.00226772 0.00201181,-0.000724409 0.00401181,-0.00147638 0.006,-0.00225984 0.00188583,-0.000740157 0.00376772,-0.0015 0.00563386,-0.0022874 0.00175984,-0.000744094 0.00350787,-0.00150787 0.00524803,-0.00229134 0.00165354,-0.000744094 0.00329528,-0.0015 0.00492913,-0.00227953 0.00159843,-0.000767717 0.00318504,-0.00154724 0.00476378,-0.00234252 0.00148425,-0.000744094 0.00296063,-0.0015 0.00442913,-0.00227559 0.00143701,-0.000759843 0.0028622,-0.00153543 0.0042874,-0.00232283 0.00137795,-0.00076378 0.00275197,-0.0015315 0.00411417,-0.0023189 0.0013189,-0.000759843 0.00263386,-0.00152756 0.00394094,-0.00231102 0.00118898,-0.000712598 0.00238583,-0.00142126 0.00355512,-0.00216535l0.00392913 -0.00248819zm-0.0917992 -0.0535472c-0.00677165,-0.000688976 -0.0135079,-0.00175591 -0.0201496,-0.00325197 -0.00416929,-0.000937008 -0.00829921,-0.00203937 -0.012374,-0.00331496 -0.00324803,-0.00101575 -0.00646063,-0.00214567 -0.00962992,-0.00338583 -0.00269291,-0.00105512 -0.00535433,-0.00219685 -0.00798031,-0.00341732 -0.00234252,-0.00109055 -0.00465748,-0.00223622 -0.00693701,-0.00346063 -0.00205118,-0.00110236 -0.0040748,-0.00225591 -0.00606693,-0.00346063 -0.00187008,-0.00113386 -0.00370866,-0.0023189 -0.00551575,-0.00354724 -0.00166929,-0.00112992 -0.00329921,-0.00230709 -0.00490945,-0.00351575 -0.00155906,-0.00116929 -0.00309055,-0.00237795 -0.00459055,-0.00362205 -0.00140157,-0.00116142 -0.00278346,-0.00235039 -0.00413386,-0.00357087 -0.00129134,-0.00117323 -0.00255118,-0.00237008 -0.00379134,-0.00359449 -0.00117323,-0.00116142 -0.00232283,-0.00234646 -0.00344882,-0.00355118 -0.00111024,-0.00118898 -0.00219291,-0.00240157 -0.00325591,-0.0036378 -0.00101575,-0.0011811 -0.00201181,-0.00238583 -0.00298425,-0.0036063 -0.000940945,-0.00118504 -0.00185039,-0.00238976 -0.00274409,-0.0036063 -0.000889764,-0.00120866 -0.00175197,-0.00243307 -0.00259055,-0.00367323 -0.00080315,-0.00118898 -0.00159449,-0.00238189 -0.00235433,-0.00359843 -0.000748031,-0.00119291 -0.00147638,-0.00240157 -0.0021811,-0.00362205 -0.000669291,-0.00116142 -0.00132677,-0.00233071 -0.00196063,-0.00351181 -0.000720472,-0.00134252 -0.0014252,-0.00268504 -0.00207874,-0.00405906l-0.00123622 -0.00260236c-0.0015,-0.00316142 -0.000629921,-0.00116929 -0.00194882,-0.00444488l-0.00123622 -0.00306299 -0.00113386 -0.00306693c-0.00121654,-0.00329134 -0.000531496,-0.00130709 -0.00148031,-0.00440551l-0.000933071 -0.00304331 -0.00096063 -0.00348031 -0.000858268 -0.0034685 -0.000755906 -0.0034252 -0.000661417 -0.0033937 -0.00061811 -0.00367323 -0.000456693 -0.00304331 -0.000448819 -0.00373622 -0.000326772 -0.00330315 -0.000240157 -0.00300787 -0.00019685 -0.00361024 -0.000114173 -0.00298425 -6.29921e-005 -0.00448425 6.29921e-005 -0.00501969 0.00011811 -0.00327953 0.000153543 -0.00319291 0.000185039 -0.00301181 0.000307087 -0.00349213 0.000311024 -0.00306299 0.000350394 -0.00304331 0.000515748 -0.00359055 0.000515748 -0.00322441 0.000531496 -0.00298031 0.000673228 -0.00335827 0.000826772 -0.00361417 0.000728346 -0.00296063 0.00092126 -0.00342913 0.00102756 -0.00341339 0.00108268 -0.00333465 0.0011811 -0.00335827 0.00130315 -0.00344488 0.00142913 -0.00345669 0.00149213 -0.00337795 0.00142126 -0.00299606c0.000598425,-0.00126378 0.00123228,-0.00251181 0.00188189,-0.00375197 0.000622047,-0.00119291 0.00125984,-0.00237795 0.00192126,-0.00355118 0.000708661,-0.00126378 0.00143701,-0.00251575 0.00219685,-0.00374803l0.00161024 -0.00261024c0.000791339,-0.00128346 0.00162205,-0.00253543 0.0024685,-0.00378346 0.000850394,-0.00125591 0.00170079,-0.00250787 0.00260236,-0.00372835l0.00192126 -0.00260236c0.000944882,-0.00127953 0.00192913,-0.00252362 0.00292913,-0.00375984 0.000905512,-0.00111811 0.00182677,-0.00222835 0.00276378,-0.00332283 0.000937008,-0.00109843 0.0018937,-0.0021811 0.0028622,-0.00325197 0.001,-0.00111024 0.00201969,-0.00220866 0.00305118,-0.00329134 0.00104331,-0.00109449 0.0021063,-0.00217717 0.00317717,-0.00324409 0.00108268,-0.0010748 0.0021811,-0.0021378 0.0032874,-0.00318898 0.00116142,-0.00109449 0.00233465,-0.00217323 0.00352362,-0.00323622 0.00118898,-0.00106299 0.00238976,-0.00211417 0.00360236,-0.00314567 0.00124409,-0.00106299 0.00250394,-0.00211024 0.00377559,-0.0031378 0.00131102,-0.00105906 0.00263386,-0.00210236 0.0039685,-0.00312992 0.0013622,-0.00104724 0.00274016,-0.00207874 0.00412598,-0.00309055 0.00140945,-0.00102756 0.00283071,-0.00203937 0.00425984,-0.00303937 0.00147244,-0.00102362 0.00295669,-0.0020315 0.00444882,-0.00302362 0.00154331,-0.00102756 0.00310236,-0.00203543 0.00466929,-0.00302756 0.00159449,-0.00100394 0.00319685,-0.00199213 0.00481102,-0.00296457 0.00165748,-0.001 0.00332677,-0.00198031 0.00500394,-0.00294882 0.00174016,-0.00100394 0.00349606,-0.00198425 0.00525591,-0.00295276 0.00178346,-0.000976378 0.00357874,-0.00193701 0.00537402,-0.00288189 0.00188189,-0.000992126 0.00377559,-0.00195276 0.00567717,-0.00290551 0.00194094,-0.000972441 0.00388976,-0.00192913 0.00584646,-0.00287008 0.00201181,-0.000964567 0.0040315,-0.00190945 0.00605512,-0.00284252 0.00209843,-0.000964567 0.00420472,-0.00190551 0.0063189,-0.00283465 0.00217717,-0.000956693 0.00436614,-0.00189764 0.00656299,-0.0028189 0.00225197,-0.000948819 0.00451181,-0.00188583 0.00677953,-0.00279921 0.00233465,-0.000940945 0.00467717,-0.0018622 0.00702362,-0.00277165 0.0025,-0.000968504 0.00499606,-0.00193307 0.00751575,-0.00285039l0.00716535 -0.0026063c0.00267323,-0.000972441 0.0053622,-0.00188976 0.00805118,-0.00281102 0.00270472,-0.000929134 0.00541732,-0.00183858 0.00813386,-0.00273228 0.00280709,-0.000929134 0.00562205,-0.00182677 0.00844094,-0.00272441 0.00290945,-0.00092126 0.00582283,-0.00183071 0.00874409,-0.00272047 0.00299213,-0.000913386 0.00598819,-0.00181496 0.00899213,-0.00269685 0.00317323,-0.000937008 0.00635039,-0.00186614 0.00953937,-0.00275197l0.0093622 -0.00260236c0.00340551,-0.000944882 0.0068189,-0.0018622 0.0102402,-0.00275197l0.0100197 -0.0026063c0.00362598,-0.000944882 0.00726378,-0.00185827 0.0109055,-0.00274409l0.0108976 -0.00264567 0.0112992 -0.00266142 0.0543189 -0.0124094 -0.000437008 0.0428268 -0.00361417 0.212531 -0.0101024 0.0107047 -0.0026811 0.00280315 -0.0027874 0.0028622 -0.00286614 0.00287795 -0.00291339 0.00285827 -0.00298819 0.00287402 -0.00315354 0.00296063 -0.00304331 0.00277953 -0.00329528 0.00295669 -0.0033189 0.0028937 -0.00338976 0.00287795 -0.00349606 0.0028937 -0.00356299 0.00287402 -0.00375984 0.00294488 -0.00343307 0.0026063c-0.00144882,0.00109843 -0.00290157,0.00218898 -0.00438583,0.00324016l-0.00366535 0.00260236c-0.00145276,0.0010315 -0.00292126,0.00204724 -0.00440157,0.00304331 -0.00146063,0.000992126 -0.00293701,0.00196457 -0.00441732,0.00292913 -0.00153937,0.001 -0.00308268,0.00199213 -0.00464173,0.00296457 -0.00157874,0.000984252 -0.00316535,0.00195669 -0.00475984,0.00291339 -0.00168504,0.00100787 -0.00338583,0.002 -0.00509055,0.00297244 -0.00177559,0.00100787 -0.00355906,0.002 -0.00535433,0.0029685 -0.00187795,0.00101575 -0.00376772,0.00201575 -0.00567323,0.00298425 -0.00201969,0.00102756 -0.00404724,0.00202756 -0.00609055,0.003 -0.00218504,0.00103937 -0.00438189,0.00204724 -0.00659449,0.00302362 -0.00238583,0.00105118 -0.00479134,0.00205906 -0.0072126,0.0030315 -0.00268898,0.00107874 -0.00539764,0.00210236 -0.00812598,0.0030748 -0.00313386,0.00111417 -0.00629134,0.00214961 -0.00947244,0.00311417 -0.00389764,0.00117717 -0.00783071,0.00224016 -0.0117953,0.00316535 -0.00604724,0.00140551 -0.0121732,0.00250787 -0.0183386,0.00324016 -0.00563386,0.000673228 -0.0113071,0.0010315 -0.0169803,0.0010315 -0.00645276,0 -0.0129094,-0.000311024 -0.0193307,-0.000968504z"/></g><rect class="fil2" height="6.82666" width="6.82666"/></svg>