<?xml version="1.0" ?><!DOCTYPE svg  PUBLIC '-//W3C//DTD SVG 1.1//EN'  'http://www.w3.org/Graphics/SVG/1.1/DTD/svg11.dtd'><svg height="6.82666in" style="shape-rendering:geometricPrecision; text-rendering:geometricPrecision; image-rendering:optimizeQuality; fill-rule:evenodd; clip-rule:evenodd" viewBox="0 0 6.82666 6.82666" width="6.82666in" xml:space="preserve" xmlns="http://www.w3.org/2000/svg" xmlns:xlink="http://www.w3.org/1999/xlink"><defs><style type="text/css">
   <![CDATA[
    .fil1 {fill:none}
    .fil0 {fill:#212121;fill-rule:nonzero}
   ]]>
  </style></defs><g id="Layer_x0020_1"><path class="fil0" d="M5.54955 3.45371c-0.0233189,0.00514961 -0.0467047,0.00977559 -0.0701339,0.0138898 -0.0451969,0.00793307 -0.0925787,0.0142087 -0.142055,0.0188031 -0.232067,0.0216811 -0.446732,-0.00153937 -0.636579,-0.0820118 -0.191366,-0.0811181 -0.356193,-0.219496 -0.486661,-0.427461l0 -0.000208661c-0.0780354,-0.1245 -0.127709,-0.256406 -0.155642,-0.393193 -0.0277559,-0.135941 -0.0340945,-0.276315 -0.0255551,-0.418728 0.00365354,-0.0585512 0.010811,-0.116445 0.0248898,-0.17272 0.014374,-0.0574567 0.0360512,-0.113421 0.0686102,-0.166972l0 -0.000208661c0.0313071,-0.0511417 0.0689528,-0.0938701 0.115201,-0.124902 0.0473898,-0.0318071 0.10276,-0.0507047 0.168185,-0.0530787 0.0930512,-0.00337008 0.172406,0.0242244 0.235378,0.0812559 0.0602677,0.0545787 0.103705,0.135138 0.127748,0.240181 0.0291339,0.127024 0.0338031,0.252685 0.0224331,0.377146 -0.0112795,0.123445 -0.0380827,0.244496 -0.0722441,0.363945l-5.51181e-005 -1.5748e-005c-0.00205512,0.00726378 -0.00580709,0.0195669 -0.0090315,0.0301339 -0.00416535,0.0136693 -0.00841732,0.0125433 -0.00734646,0.0165591 0.00092126,0.00345276 0.00504331,0.00233071 0.0170709,0.0140039 0.00602756,0.00584646 0.0130197,0.012626 0.0216417,0.0212598 0.0740039,0.0743189 0.156598,0.12 0.245476,0.145083 0.090622,0.0255709 0.188827,0.0300906 0.291819,0.0217874 0.016378,-0.00130709 0.0338346,-0.00282677 0.0483701,-0.00412992 0.00617717,-0.0157126 0.0133268,-0.0340906 0.0177874,-0.0461535l6.69291e-005 2.3622e-005c0.0571929,-0.156484 0.0975433,-0.31472 0.119311,-0.475197 0.021752,-0.160346 0.0250039,-0.323161 0.00803543,-0.488929 -0.0255512,-0.249626 -0.107768,-0.481189 -0.269118,-0.650291 -0.138445,-0.145094 -0.336669,-0.245366 -0.609496,-0.273031 -0.269177,-0.0272874 -0.514531,0.0217402 -0.714539,0.142421 -0.193909,0.117 -0.346051,0.302008 -0.43676,0.550772 -0.0533858,0.146689 -0.0814646,0.295303 -0.0894134,0.445154 -0.00800394,0.150969 0.00427953,0.303165 0.0316299,0.455894 0.0458661,0.255228 0.12872,0.486299 0.257315,0.686547 0.127972,0.199276 0.301685,0.368394 0.529882,0.500823l-5.11811e-005 9.05512e-005c0.0375591,0.021622 0.0572638,0.044252 0.0639646,0.0744921 0.00644094,0.0290512 -0.00151181,0.055685 -0.0187323,0.0885236l0 0.000208661c-0.0963661,0.183453 -0.202681,0.36122 -0.320335,0.532421 -0.117398,0.170839 -0.245472,0.334031 -0.3855,0.488555l0 0.000208661c-0.112114,0.123496 -0.144606,0.158854 -0.23039,0.0809843 -0.0213425,-0.0193819 -0.0450906,-0.0494055 -0.0784094,-0.0915433l-0.00316535 -0.00400394c-0.286008,-0.36211 -0.507524,-0.751461 -0.679622,-1.16163 -0.171976,-0.409886 -0.294882,-0.840756 -0.383689,-1.28617 -0.0236614,-0.118783 -0.0456772,-0.240598 -0.0659646,-0.365843 -0.0201969,-0.124661 -0.0377756,-0.247185 -0.0525945,-0.367626l-0.000208661 -0.00208268 -0.00307087 -0.0360984 -0.73285 -0.000440945c0.0528661,0.375484 0.119028,0.746996 0.206701,1.11215 0.0886575,0.369248 0.199445,0.732976 0.340917,1.0891 0.103791,0.26076 0.221134,0.513681 0.35998,0.754091 0.138213,0.239307 0.297764,0.465957 0.486531,0.675213 0.0608661,0.0675118 0.124638,0.131709 0.192433,0.191429 0.0675551,0.0595039 0.138768,0.114295 0.214654,0.163138 0.0828031,0.0533346 0.163673,0.0782992 0.24276,0.0760433 0.0793543,-0.00226378 0.158878,-0.0318701 0.238634,-0.0876417 0.0236063,-0.0165197 0.0477638,-0.0345394 0.0723976,-0.0540787 0.0228386,-0.0181181 0.045315,-0.0370984 0.0672913,-0.0569134l0.000102362 0.000114173c0.240795,-0.218173 0.458713,-0.454484 0.653441,-0.708941 0.193787,-0.253228 0.364441,-0.524516 0.511642,-0.813854l0.000169291 8.66142e-005c0.015311,-0.0303976 0.0319567,-0.0532992 0.0558858,-0.0700394 0.0249291,-0.017437 0.0541693,-0.0258543 0.0931063,-0.0260315l0.000208661 0c0.0594016,-0.000212598 0.119307,-0.00378346 0.179441,-0.00980709 0.0595079,-0.00596457 0.119622,-0.0144921 0.179976,-0.0246496 0.0356654,-0.00601575 0.0706496,-0.012622 0.105004,-0.019811 0.020748,-0.00434252 0.0417835,-0.00901969 0.063122,-0.0140394l0 -0.474051zm-0.0884646 -0.0911102c0.0441693,-0.00775197 0.0869567,-0.0171024 0.128256,-0.0280315l0.066878 -0.0176969 0 0.0691535 0 0.583587 0 0.0415394 -0.0404173 0.010126c-0.0347008,0.00868898 -0.0705866,0.0169213 -0.107705,0.024689 -0.0364961,0.00763386 -0.072874,0.0145236 -0.109177,0.0206457 -0.0614961,0.0103504 -0.123787,0.0191457 -0.187055,0.0254843 -0.062563,0.00626378 -0.125768,0.00998425 -0.18965,0.0102244 -0.0159409,7.08661e-005 -0.0261575,0.00229134 -0.032689,0.00685827 -0.00744488,0.00520866 -0.0142638,0.0156063 -0.0218898,0.0307874l0 0.000417323c-0.149874,0.294598 -0.324,0.571299 -0.522059,0.830106 -0.198232,0.259035 -0.420634,0.500102 -0.666874,0.723201l0 0.000208661c-0.0232165,0.0209331 -0.0473701,0.041311 -0.0722913,0.0610787 -0.0243228,0.0192953 -0.0503425,0.0386024 -0.077815,0.0578268 -0.0970433,0.0678583 -0.195835,0.103941 -0.296555,0.106815 -0.100992,0.00288189 -0.202012,-0.0275512 -0.303169,-0.0927126 -0.0811496,-0.0522283 -0.156591,-0.110197 -0.227575,-0.17272 -0.0707362,-0.062315 -0.137421,-0.129457 -0.201181,-0.200177 -0.19378,-0.214811 -0.357563,-0.447476 -0.499445,-0.693134 -0.14124,-0.244551 -0.260783,-0.50228 -0.36665,-0.768256 -0.143398,-0.360976 -0.255673,-0.729563 -0.3455,-1.10369 -0.0898228,-0.374098 -0.157087,-0.752815 -0.210512,-1.13441l-2.75591e-005 3.93701e-006 -0.00690945 -0.0479843 -0.00873228 -0.0606614 0.0614409 3.54331e-005 0.843205 0.000503937 0.0489843 3.14961e-005 0.00414173 0.0487205 0.0071063 0.0835591c0.0152717,0.124055 0.0325236,0.244965 0.0516575,0.363051 0.0190787,0.117772 0.0409764,0.238327 0.0655472,0.361677 0.0874882,0.438803 0.208409,0.862894 0.377437,1.26575 0.168902,0.402559 0.385587,0.783768 0.664622,1.13705l0.00316535 0.00400394c0.0295118,0.0373228 0.0505472,0.0639173 0.066748,0.0786299 0.00703937,0.00638976 0.0233583,-0.0115433 0.0799724,-0.0739055l0.000102362 9.44882e-005c0.137134,-0.151335 0.262248,-0.31072 0.37665,-0.477189 0.114185,-0.166157 0.218335,-0.340524 0.313665,-0.522004l8.66142e-005 4.72441e-005c0.00568898,-0.0108346 0.0091811,-0.0157402 0.00906299,-0.0162835 -0.000393701,-0.00177953 -0.00372441,7.87402e-005 -0.0132874,-0.00541732l-0.000208661 0c-0.243583,-0.141358 -0.429197,-0.322169 -0.566134,-0.535406 -0.136307,-0.21226 -0.22398,-0.456327 -0.272315,-0.725295 -0.0287953,-0.160807 -0.0417323,-0.321067 -0.0332992,-0.480059 0.00849606,-0.160106 0.0385354,-0.319012 0.0956654,-0.475988 0.0995039,-0.272882 0.267346,-0.476402 0.48176,-0.605772 0.21976,-0.132598 0.487575,-0.186642 0.779957,-0.157004 0.300693,0.0304882 0.520839,0.142756 0.676157,0.305535 0.179161,0.187768 0.270075,0.441224 0.297874,0.712787 0.0178346,0.174228 0.0144134,0.345366 -0.00845276,0.513929 -0.0228386,0.168378 -0.0650433,0.33402 -0.124795,0.497469l0 0.000208661c-0.00819291,0.0221614 -0.0309606,0.0792087 -0.0310236,0.0793701l-0.0122126 0.0305276 -0.0327874 0.00280709c-0.000129921,7.87402e-006 -0.0513346,0.00472835 -0.0818031,0.00716142 -0.114398,0.00922047 -0.224787,0.00383465 -0.328898,-0.0255433 -0.105846,-0.029874 -0.204154,-0.0842165 -0.292146,-0.172579 -0.00741732,-0.0074252 -0.0143819,-0.0141811 -0.0203898,-0.0200079 -0.0262165,-0.025437 -0.0392126,-0.0380472 -0.0458189,-0.0627598 -0.00665354,-0.0249055 -0.00153543,-0.0416693 0.00859055,-0.0748898 0.00174409,-0.00572047 0.00382283,-0.0125433 0.00825984,-0.0282402l0 -0.000208661c0.0328031,-0.114701 0.0584252,-0.229689 0.0689055,-0.344362 0.0103819,-0.113661 0.00616142,-0.228252 -0.0203465,-0.343815 -0.0191024,-0.0834685 -0.0514724,-0.145531 -0.095252,-0.185181 -0.0417756,-0.0378346 -0.0958386,-0.0560866 -0.160378,-0.053752 -0.0443346,0.0016063 -0.0814252,0.014122 -0.112768,0.0351575 -0.0324921,0.0218031 -0.0598976,0.053378 -0.0835315,0.0919882l-9.05512e-005 -5.51181e-005c-0.0262047,0.0431299 -0.0439528,0.0893976 -0.0560236,0.137654 -0.0123819,0.0495 -0.0187126,0.100909 -0.0219685,0.153138 -0.00803937,0.134028 -0.00224016,0.265307 0.0234685,0.391224 0.0255315,0.125024 0.0706693,0.245185 0.141382,0.358043l9.44882e-005 -5.90551e-005c0.118327,0.18861 0.266583,0.313591 0.437913,0.386217 0.172846,0.0732677 0.370516,0.0942008 0.585744,0.0740906 0.0438307,-0.00407087 0.0882874,-0.0100669 0.133307,-0.0179685z"/></g><rect class="fil1" height="6.82666" width="6.82666"/></svg>