<?xml version="1.0" ?><!DOCTYPE svg  PUBLIC '-//W3C//DTD SVG 1.1//EN'  'http://www.w3.org/Graphics/SVG/1.1/DTD/svg11.dtd'><svg height="6.82666in" style="shape-rendering:geometricPrecision; text-rendering:geometricPrecision; image-rendering:optimizeQuality; fill-rule:evenodd; clip-rule:evenodd" viewBox="0 0 6.82666 6.82666" width="6.82666in" xml:space="preserve" xmlns="http://www.w3.org/2000/svg" xmlns:xlink="http://www.w3.org/1999/xlink"><defs><style type="text/css">
   <![CDATA[
    .fil1 {fill:none}
    .fil2 {fill:#212121}
    .fil0 {fill:#212121;fill-rule:nonzero}
   ]]>
  </style></defs><g id="Layer_x0020_1"><path class="fil0" d="M5.92 3.41335c0,0.692126 -0.280598,1.31879 -0.734228,1.77242 -0.453626,0.453618 -1.0803,0.734217 -1.77244,0.734217 -0.692142,0 -1.31881,-0.280598 -1.77244,-0.734217 -0.45363,-0.453626 -0.734228,-1.08029 -0.734228,-1.77242 0,-0.692142 0.280598,-1.31881 0.734224,-1.77244 0.453626,-0.453626 1.0803,-0.734224 1.77244,-0.734224 0.692146,0 1.31882,0.280594 1.77245,0.73422 0.453622,0.453622 0.734217,1.08029 0.734217,1.77244zm-0.809646 1.697c0.434323,-0.434319 0.702976,-1.03432 0.702976,-1.697 0,-0.662709 -0.26865,-1.26271 -0.702965,-1.69703 -0.434323,-0.434319 -1.03433,-0.702969 -1.69703,-0.702969 -0.662697,0 -1.2627,0.268654 -1.69702,0.702972 -0.434319,0.434319 -0.702972,1.03433 -0.702972,1.69702 0,0.662681 0.268654,1.26268 0.702976,1.697 0.434319,0.434311 1.03432,0.702965 1.69702,0.702965 0.662697,0 1.2627,-0.268654 1.69702,-0.702965z"/><path class="fil1" d="M5.56828 3.40755c0,1.18826 -0.966614,2.1548 -2.15495,2.1548 -1.18814,0 -2.15463,-0.966693 -2.15463,-2.1548 0,-1.18806 0.966614,-2.15463 2.15463,-2.15463 1.18839,-3.14961e-005 2.15495,0.966583 2.15495,2.15463z"/><path class="fil0" d="M4.06686 3.32792c0.0392559,-0.137402 0.0139016,-0.327024 -0.0476378,-0.513106 -0.0685433,-0.207268 -0.181134,-0.407205 -0.299587,-0.525701 -0.0325079,-0.0325197 -0.0740039,-0.0595157 -0.121764,-0.0814567 -0.0534409,-0.0245512 -0.114823,-0.0427795 -0.180535,-0.0553661l-0.0329173 -0.0210433c-0.023063,-0.031626 -0.0539528,-0.0631102 -0.0930472,-0.0942323 -0.0388425,-0.0309213 -0.0857756,-0.0612087 -0.141161,-0.0906417 -0.107165,-0.0569094 -0.227004,-0.0965 -0.350469,-0.115984 -0.0682598,-0.0107717 -0.137669,-0.0154803 -0.206709,-0.0136575 0.00477559,0.00273622 0.00832283,0.00444882 0.0101496,0.00471654l0.0220827 0.0966654c-0.0110551,0.0075 -0.0233622,0.0134803 -0.0364921,0.0185669 0.0408504,0.00251181 0.0817874,0.00691339 0.122429,0.0132047 0.10711,0.0165866 0.212382,0.0464016 0.308921,0.0892677l-0.015622 0.101457c-0.0726299,0.00826772 -0.142173,0.0212677 -0.204764,0.0383622 -0.0602441,0.0164528 -0.114472,0.0367717 -0.159161,0.0603701 -0.127591,0.0670472 -0.208146,0.167602 -0.248382,0.298323 -0.0418425,0.135937 -0.0414134,0.305709 -0.00576378,0.505457l-0.000165354 2.75591e-005c0.0494252,0.275921 0.213122,1.05019 0.346594,1.68149 0.0644528,0.30487 0.121768,0.575933 0.157138,0.748441 0.0121024,0.0587087 0.0186732,0.115307 0.0204882,0.169654 0.00194488,0.0582008 -0.00146063,0.113209 -0.00929528,0.164984l-0.105417 -0.0158346c0.00705118,-0.0466142 0.0101496,-0.0952913 0.00846063,-0.145819 -0.00161417,-0.048311 -0.00751575,-0.0989173 -0.0184016,-0.151732 -0.0325157,-0.158587 -0.091185,-0.436059 -0.157138,-0.748024 -0.133197,-0.630008 -0.296571,-1.40273 -0.347055,-1.68465l-0.000208661 -0.000208661c-0.0384882,-0.215657 -0.0380591,-0.401854 0.00909449,-0.555039 0.0487598,-0.158406 0.146205,-0.280173 0.300469,-0.361236 0.0510669,-0.0269646 0.112669,-0.0500866 0.180831,-0.0687008 0.00477559,-0.00130315 0.00958268,-0.00258661 0.0144134,-0.00384252 -0.0300906,-0.0070748 -0.0605866,-0.0129961 -0.0912874,-0.017748 -0.100516,-0.0155591 -0.203134,-0.0185276 -0.301075,-0.00872441l-0.0576654 0.00577559 -0.000669291 -0.0582756c-0.000956693,-0.0841181 0.0626772,-0.112472 0.131602,-0.132272 -0.0221811,-0.0147362 -0.0418504,-0.027189 -0.0478622,-0.0277362l-0.00458268 -0.105209c0.13185,-0.0239094 0.268705,-0.0239843 0.401295,-0.00305512 0.135941,0.0214528 0.267319,0.0647402 0.384217,0.126819 0.0607441,0.0322795 0.113106,0.0662047 0.157413,0.101476 0.0395354,0.0314764 0.0726732,0.0642283 0.0996299,0.0980276 0.0659803,0.0138898 0.128524,0.0334291 0.184783,0.0592756 0.0591181,0.0271614 0.111189,0.0612835 0.153016,0.103126 0.129815,0.129858 0.252079,0.345591 0.325421,0.56737 0.0675906,0.204378 0.0943858,0.416331 0.0488819,0.575602l-0.102496 -0.0291654zm-0.0368228 2.47431c-0.0855079,-0.17311 -0.173646,-0.341823 -0.248878,-0.485823 -0.0512953,-0.098185 -0.0966732,-0.185043 -0.130984,-0.253591 -0.0928622,-0.18561 -0.185665,-0.413551 -0.23635,-0.63122 -0.0411181,-0.176583 -0.0549055,-0.347831 -0.0198465,-0.487772l0.103331 0.0258346c-0.0305512,0.121937 -0.0173465,0.276244 0.0202638,0.437772 0.0488189,0.209661 0.138189,0.429165 0.227602,0.60789 0.0334528,0.0668346 0.0788425,0.153713 0.13015,0.251921 0.0771339,0.147642 0.167496,0.320606 0.25013,0.487902l-0.0954173 0.0470866z"/><path class="fil0" d="M2.60718 3.07311c0,-0.0576102 0.0234606,-0.109913 0.0614449,-0.147874 0.0378268,-0.037811 0.0900276,-0.0611929 0.147701,-0.0611929 0.0575591,0 0.109823,0.0234803 0.147764,0.0614488 0.037811,0.0378346 0.0612087,0.0900276 0.0612087,0.147618 0,0.0576142 -0.0233898,0.109799 -0.0611929,0.147626 -0.0379449,0.0379685 -0.0902165,0.0614409 -0.14778,0.0614409 -0.0576693,0 -0.109882,-0.023374 -0.147717,-0.0611929 -0.0379685,-0.0379488 -0.0614291,-0.0902323 -0.0614291,-0.147874zm0.136445 -0.0724567c-0.0184055,0.0183937 -0.0297756,0.0440079 -0.0297756,0.0724567 0,0.0284724 0.0113661,0.0540748 0.0297598,0.0724567 0.0185118,0.0185039 0.0442087,0.0299409 0.0727165,0.0299409 0.0283937,0 0.0539764,-0.011374 0.0723622,-0.0297717 0.0184961,-0.0185039 0.0299409,-0.0441732 0.0299409,-0.072626 0,-0.0284291 -0.0114528,-0.0541024 -0.0299567,-0.0726181 -0.0183858,-0.0183976 -0.0439606,-0.0297795 -0.0723465,-0.0297795 -0.0285079,0 -0.0541929,0.0114409 -0.0727008,0.0299409z"/><path class="fil0" d="M3.50191 2.90221c0,-0.0514449 0.0210709,-0.098189 0.0550472,-0.13215 0.0338819,-0.0338622 0.0806063,-0.0548307 0.132012,-0.0548307 0.0515748,0 0.0982913,0.020937 0.132173,0.054752 0.0340276,0.0339685 0.0550551,0.080752 0.0550551,0.132228 0,0.0516063 -0.020937,0.098374 -0.054811,0.132272 -0.0339961,0.0340118 -0.0808031,0.0550394 -0.132417,0.0550394 -0.0514449,0 -0.0982638,-0.0210591 -0.132256,-0.0551181 -0.0338268,-0.0338898 -0.0548031,-0.080622 -0.0548031,-0.132193zm0.130047 -0.0567323c-0.0144291,0.0144213 -0.023378,0.0344803 -0.023378,0.0567323 0,0.0224173 0.00901575,0.0426299 0.0235512,0.0571929 0.0144606,0.0144882 0.0345709,0.0234488 0.0568386,0.0234488 0.0224291,0 0.0425669,-0.00893307 0.057,-0.0233701 0.0145591,-0.0145669 0.0235591,-0.034811 0.0235591,-0.0572717 0,-0.0222953 -0.00893307,-0.0423819 -0.0233858,-0.056811 -0.0145394,-0.0145118 -0.0347441,-0.0235 -0.0571732,-0.0235 -0.0222677,0 -0.0424449,0.00901969 -0.0570118,0.0235787z"/><path class="fil2" d="M2.86061 2.62188c0,0 -0.117362,-0.0530945 -0.231516,0.0186339 -0.113957,0.0715866 -0.109713,0.144839 -0.109713,0.144839 0,0 -0.0605709,-0.135 0.100866,-0.201134 0.161654,-0.0661772 0.240362,0.0376614 0.240362,0.0376614z" id="path47"/><path class="fil2" d="M3.74269 2.63307c0,0 -0.0843504,-0.0481969 -0.149811,-0.0473268 -0.134425,0.00177165 -0.171154,0.0611417 -0.171154,0.0611417 0,0 0.0225827,-0.141618 0.194638,-0.113256 0.0932205,0.0155118 0.126327,0.0994409 0.126327,0.0994409z" id="path54"/><path class="fil0" d="M3.24043 3.66507c0.0105709,-0.0638622 0.0911142,-0.150362 0.192811,-0.217134l0 -0.000208661c0.0885118,-0.0581102 0.195839,-0.10463 0.287728,-0.110433l0 -1.5748e-005c0.0261181,-0.00164173 0.054374,-0.00323622 0.0799724,-0.00467323 0.111496,-0.00627953 0.167472,-0.00943307 0.281579,-0.0367638 0.086,-0.0205394 0.255008,-0.0623465 0.400469,-0.10339 0.0909173,-0.0256575 0.170134,-0.0503543 0.20772,-0.0677244 0.0602165,-0.0277717 0.210453,-0.0235984 0.304949,0.0117835 0.0317008,0.011874 0.0590984,0.0275354 0.0782835,0.0471693 0.026185,0.0267913 0.038,0.0590197 0.0290906,0.096937 -0.00985827,0.0419331 -0.0494291,0.0873386 -0.132634,0.13374 -0.0675197,0.0377638 -0.19063,0.0907992 -0.329201,0.144087 -0.141906,0.0545669 -0.299189,0.10924 -0.428693,0.147854 -0.133382,0.0398858 -0.238902,0.024 -0.323571,0.0112559 -0.0681142,-0.010252 -0.117858,-0.0177323 -0.143547,0.0200748l0.000141732 9.44882e-005c-0.00955118,0.0141142 -0.0153937,0.0285591 -0.0166693,0.0423465 -0.00112205,0.0120827 0.00121654,0.0244882 0.00761417,0.0365512 0.00735039,0.0138583 0.0203228,0.0277165 0.0398071,0.0409016 0.0438898,0.0297047 0.115417,0.052937 0.221803,0.062811 0.199579,0.0185079 0.399173,-0.0280433 0.552295,-0.0637559 0.18026,-0.0420433 0.306953,-0.0715866 0.344846,0.0315512l7.08661e-005 -2.75591e-005c0.00409843,0.0111654 0.00620866,0.0228543 0.00643307,0.0349724 0.000984252,0.0509173 -0.0344764,0.0983386 -0.0927992,0.139583 -0.0479409,0.0339094 -0.1135,0.0657008 -0.185874,0.0922717 -0.120287,0.0441654 -0.262343,0.0748228 -0.374303,0.0769803 -0.106437,0.00200394 -0.255161,-0.026248 -0.397657,-0.0636811 -0.198921,-0.0522598 -0.390528,-0.124469 -0.437413,-0.156992l-3.14961e-005 4.72441e-005c-0.0473976,-0.0328268 -0.103705,-0.0905079 -0.139406,-0.160031 -0.0287205,-0.0559331 -0.0446575,-0.11989 -0.033815,-0.186181zm0.251047 -0.128323c-0.0790866,0.051937 -0.140272,0.110496 -0.146047,0.145409 -0.00677559,0.0414291 0.00411417,0.0832126 0.0233976,0.120764 0.0269803,0.0525472 0.0694843,0.0961024 0.10524,0.120866l0.000208661 0.000208661c0.0388031,0.0270866 0.215031,0.0916969 0.403906,0.141319 0.134728,0.0353937 0.273472,0.0621378 0.368902,0.0603425 0.0997402,-0.0019252 0.22863,-0.0300945 0.339303,-0.0707283 0.064126,-0.0235433 0.121126,-0.0509409 0.161291,-0.0793504 0.0297913,-0.0210669 0.0480236,-0.0391142 0.0477992,-0.0508346l0 -3.93701e-005 -3.54331e-005 1.1811e-005c-3.14961e-005,0.000102362 -7.48031e-005,0.000251969 -0.000145669,5.51181e-005l0 -0.000208661c-0.00529528,-0.0144843 -0.0942165,0.00625197 -0.220752,0.0357638 -0.160067,0.0373307 -0.368713,0.086 -0.586043,0.0658425 -0.126291,-0.0117205 -0.214535,-0.0415591 -0.271803,-0.080315 -0.0345827,-0.0234016 -0.0589567,-0.0505591 -0.0743898,-0.0796496 -0.0163819,-0.030878 -0.0222835,-0.0633976 -0.0192835,-0.0957165 0.00301969,-0.0325748 0.0149764,-0.0639724 0.0341732,-0.0923465l0.000208661 0c0.0634173,-0.093685 0.141039,-0.0820079 0.247362,-0.0660039 0.0742795,0.0111811 0.16685,0.0251142 0.277319,-0.00791732 0.129744,-0.038685 0.284094,-0.0922205 0.421197,-0.144941 0.133579,-0.0513701 0.251634,-0.102146 0.315445,-0.137835 0.0536732,-0.0299291 0.0772441,-0.0509134 0.0805551,-0.0649921l4.33071e-005 -0.00019685 -0.000370079 0.000358268c-0.000374016,0.000661417 -0.000925197,0.00158268 -0.00126772,0.00123228 -0.00762992,-0.00781102 -0.0215315,-0.0151654 -0.0391181,-0.021752 -0.0729528,-0.027315 -0.18276,-0.0333858 -0.22328,-0.0146969 -0.0431969,0.0199606 -0.127846,0.0465433 -0.223555,0.0735512 -0.142449,0.0401929 -0.315587,0.0829567 -0.404634,0.104224 -0.124287,0.0297677 -0.18313,0.0330866 -0.300327,0.039685 -0.0218268,0.00122835 -0.0459173,0.00258661 -0.0791378,0.00467323l-0.000208661 0c-0.0719291,0.00449606 -0.160531,0.0439094 -0.235858,0.0933622l-9.44882e-005 -0.000145669zm1.50785 -0.280492c0.000102362,-0.000519685 -7.87402e-005,-0.000161417 -0.000370079,0.000358268l0.000370079 -0.000358268zm-0.20385 0.668449c-3.93701e-006,-0.000102362 -1.5748e-005,-5.51181e-005 -3.54331e-005,1.1811e-005l3.54331e-005 -1.1811e-005z"/></g><rect class="fil1" height="6.82666" width="6.82666"/></svg>