<?xml version="1.0" ?><!DOCTYPE svg  PUBLIC '-//W3C//DTD SVG 1.1//EN'  'http://www.w3.org/Graphics/SVG/1.1/DTD/svg11.dtd'><svg height="6.82666in" style="shape-rendering:geometricPrecision; text-rendering:geometricPrecision; image-rendering:optimizeQuality; fill-rule:evenodd; clip-rule:evenodd" viewBox="0 0 6.82666 6.82666" width="6.82666in" xml:space="preserve" xmlns="http://www.w3.org/2000/svg" xmlns:xlink="http://www.w3.org/1999/xlink"><defs><style type="text/css">
   <![CDATA[
    .fil0 {fill:none}
    .fil1 {fill:#212121;fill-rule:nonzero}
   ]]>
  </style></defs><g id="Layer_x0020_1"><polygon class="fil0" points="1.31634,2.0702 1.40286,1.80646 1.57209,1.57437 1.79642,1.38937 2.00105,1.24776 2.18993,1.19661 2.37485,1.16117 2.65031,1.51139 2.45749,1.55467 2.186,1.64904 2.01283,1.77501 1.82001,1.93247 1.63112,2.23143 1.58783,2.47944 "/><polygon class="fil0" points="1.96954,1.81444 1.81216,1.95993 1.69408,2.10564 1.62719,2.25512 1.58783,2.37713 1.58783,2.51087 2.38669,3.5655 2.66999,3.88419 2.74082,3.88419 2.81955,3.778 2.91003,3.61666 2.95331,3.48281 2.95331,3.34905 2.92973,3.12871 2.87464,3.01845 "/><polygon class="fil0" points="2.67505,1.54473 2.53853,1.54872 2.32478,1.59625 2.12689,1.67742 2.02007,1.76861 1.97652,1.81426 2.92186,3.09726 3.05699,3.1636 3.35776,3.21114 3.60113,3.17554 3.70405,3.12202 3.77929,3.03482 3.72782,2.87828 "/><path class="fil1" d="M2.68708 3.86485c-0.0210551,0.0204764 -0.0215197,0.0541535 -0.00104331,0.0752087 0.0204764,0.0210551 0.0541535,0.0215197 0.0752087,0.00104331 0.0787126,-0.0764724 0.142339,-0.168638 0.185858,-0.271531 0.0419488,-0.0991693 0.0651614,-0.207866 0.0651614,-0.321598 0,-0.0479252 -0.00417717,-0.0951378 -0.0121654,-0.141295 -0.00073622,-0.00424409 -0.0015,-0.00847244 -0.00229921,-0.0126929 0.0333858,0.0151142 0.0678898,0.0280394 0.103327,0.0385945 0.0752244,0.0224134 0.15474,0.034437 0.236831,0.034437 0.0847598,0 0.166858,-0.0129094 0.244417,-0.036878 0.0801299,-0.0247677 0.154949,-0.0612913 0.222429,-0.107528 0.0242756,-0.0165669 0.0305236,-0.0496811 0.0139567,-0.0739567 -0.0165669,-0.0242756 -0.0496811,-0.0305236 -0.0739567,-0.0139567 -0.0590039,0.0404291 -0.124161,0.0722835 -0.193681,0.0937717 -0.0670433,0.0207205 -0.138618,0.031878 -0.213165,0.031878 -0.0719252,0 -0.141217,-0.0104213 -0.206413,-0.0298465 -0.0662795,-0.019748 -0.128287,-0.0485472 -0.184535,-0.0849488 -0.0139488,-0.0110591 -0.0331181,-0.0148898 -0.0511142,-0.00846457 -0.0277362,0.00990551 -0.0421929,0.0404252 -0.0322874,0.0681614l1.9685e-005 -7.87402e-006c0.0138031,0.0386496 0.0244134,0.0785394 0.0314724,0.11935 0.00688976,0.0398228 0.0104961,0.0810354 0.0104961,0.123382 0,0.0997835 -0.0200945,0.1945 -0.0564055,0.280346 -0.037815,0.0894016 -0.093311,0.169689 -0.16211,0.236531z"/><path class="fil1" d="M2.41743 1.2608c0.0279567,0.00920079 0.0580906,-0.00600394 0.0672913,-0.0339606 0.00920079,-0.0279567 -0.00600394,-0.0580906 -0.0339606,-0.0672913 -0.0580866,-0.0191142 -0.122213,-0.0248386 -0.189626,-0.0191339 -0.179469,0.0151929 -0.386106,0.112535 -0.562441,0.252591 -0.176094,0.139858 -0.323724,0.323571 -0.385677,0.511862 -0.0252717,0.0768031 -0.0365236,0.154563 -0.0300669,0.230807 0.00241339,0.0293386 0.0281614,0.0511654 0.0575,0.048752 0.0293386,-0.00241339 0.0511654,-0.0281614 0.048752,-0.0575 -0.00520866,-0.0615472 0.00415748,-0.125181 0.0250669,-0.188728 0.0552638,-0.167953 0.189618,-0.333945 0.350677,-0.461862 0.160803,-0.12772 0.3465,-0.21626 0.504937,-0.229669 0.0536299,-0.00453543 0.103594,-0.000326772 0.147547,0.0141339z"/><path class="fil1" d="M3.50267 4.23471c0.0266654,-0.091878 0.078063,-0.173059 0.146441,-0.235807 0.0681693,-0.0625591 0.153236,-0.107031 0.247551,-0.125787l0.0204173 0.104583c-0.0746339,0.0148425 -0.141949,0.0500315 -0.19589,0.0995354 -0.0544803,0.0499921 -0.0953543,0.114402 -0.116441,0.187059l-0.102079 -0.0295827z"/><path class="fil1" d="M2.03357 1.80644l0.938425 1.25951c0.0174882,0.0235866 0.0125433,0.0568858 -0.0110433,0.074374 -0.0235866,0.0174882 -0.0568858,0.0125433 -0.074374,-0.0110433l-0.935965 -1.25621c-0.13285,0.115823 -0.240169,0.256799 -0.287492,0.400673 -0.0203622,0.0619094 -0.0294291,0.124264 -0.0242795,0.185083 0.00241339,0.0293386 -0.0194134,0.0550866 -0.048752,0.0575 -0.0293386,0.00241339 -0.0550866,-0.0194134 -0.0575,-0.048752 -0.00637402,-0.0752874 0.00456693,-0.151618 0.0292795,-0.226744 0.0611417,-0.18589 0.20776,-0.364949 0.383138,-0.500736 0.175291,-0.13572 0.380996,-0.229449 0.560244,-0.244626 0.0698661,-0.00591732 0.136307,-3.54331e-005 0.19628,0.0196929 0.0279567,0.00908661 0.0432559,0.039126 0.0341693,0.0670827 -0.00908661,0.0279567 -0.039126,0.0432559 -0.0670827,0.0341693 -0.0458858,-0.0150945 -0.0983031,-0.0194646 -0.154618,-0.0146929 -0.151154,0.0127992 -0.326102,0.0906024 -0.480429,0.204717z"/><path class="fil0" d="M1.22961 1.98976l1.41349 1.87932 1.34239 0.560724 -0.229024 -1.46884 -1.41343 -1.87137c-0.29361,-0.447996 -1.41401,0.367299 -1.11342,0.900165l0 0"/><path class="fil1" d="M1.18187 2.01307c-0.129091,-0.232457 -0.0218661,-0.506776 0.175878,-0.724358 0.075189,-0.0827323 0.163854,-0.157567 0.25739,-0.218579 0.0940827,-0.0613701 0.193173,-0.108764 0.28861,-0.136232 0.196787,-0.0566457 0.379839,-0.0305866 0.48289,0.125075l1.41047 1.86745c0.00616929,0.00724409 0.0104803,0.0162283 0.0120512,0.0263189l-0.0526969 0.00821654 0.0525 -0.00812598 0.228291 1.46414c0.00266929,0.0107362 0.00203543,0.0223898 -0.00255512,0.0333819 -0.0113504,0.0271772 -0.0425906,0.0400079 -0.0697677,0.0286575l3.54331e-005 -9.05512e-005 -1.33937 -0.559465c-0.00967717,-0.00335433 -0.0185,-0.00951969 -0.025122,-0.0183228l0.042622 -0.0320591 -0.0425 0.031874c-0.467201,-0.621165 -1.41775,-1.88606 -1.41724,-1.88515l-0.00149213 -0.00273228zm0.092311 -0.0524331l1.40257 1.8648 1.2416 0.518626 -0.212283 -1.36147 -1.40553 -1.86091 -6.69291e-005 5.11811e-005c-0.00112598,-0.00148819 -0.00216142,-0.00301969 -0.0031063,-0.00458268 -0.0728898,-0.109295 -0.211811,-0.124693 -0.364453,-0.0807559 -0.0854921,0.0246063 -0.174728,0.0673701 -0.259862,0.122902 -0.0856772,0.0558858 -0.167161,0.124728 -0.236555,0.201083 -0.169201,0.186177 -0.264319,0.415059 -0.162315,0.600256z"/><path class="fil1" d="M4.06691 4.39502c-0.0216299,0.0199016 -0.0230276,0.0535748 -0.00312598,0.0752047 0.0199016,0.0216299 0.0535748,0.0230276 0.0752047,0.00312598 0.47178,-0.435642 0.754343,-0.798827 0.899913,-1.13917 0.147571,-0.345012 0.154587,-0.664559 0.0744094,-1.00951 -0.0307717,-0.132409 -0.116079,-0.268063 -0.237681,-0.375394 -0.111417,-0.0983425 -0.253681,-0.173638 -0.412657,-0.201543 -0.465539,-0.0817244 -1.18154,0.262823 -1.80081,0.790343 -0.355374,0.30272 -0.680244,0.666087 -0.908335,1.04351 -0.230559,0.381508 -0.36285,0.778606 -0.329736,1.1447 0.0277323,0.306634 0.170547,0.589661 0.467028,0.821693 0.592425,0.463634 1.47293,0.23078 2.24581,-0.323315 0.301815,-0.216378 0.587913,-0.482374 0.834012,-0.775039 0.246209,-0.292795 0.452039,-0.612106 0.593154,-0.934937 0.317205,-0.725665 0.309941,-1.46981 -0.291024,-1.97959 -0.210169,-0.178283 -0.446055,-0.276583 -0.696272,-0.309835 -0.445622,-0.0592244 -0.934476,0.0893346 -1.40196,0.359654 -0.463331,0.267917 -0.906713,0.656004 -1.26568,1.07917 -0.447457,0.527496 -0.764913,1.11162 -0.828291,1.58852 -0.00379528,0.0291063 0.0167283,0.0557874 0.0458346,0.0595827 0.0291063,0.00379528 0.0557874,-0.0167283 0.0595827,-0.0458346 0.0606339,-0.45624 0.36889,-1.02043 0.804126,-1.53352 0.351539,-0.414417 0.785185,-0.794146 1.23776,-1.05584 0.448425,-0.259299 0.914402,-0.402197 1.33488,-0.346315 0.230169,0.0305866 0.447406,0.121217 0.641272,0.285669 0.557909,0.47326 0.561287,1.17179 0.262276,1.85584 -0.137106,0.313665 -0.337307,0.624165 -0.576909,0.909102 -0.239713,0.285075 -0.51924,0.544776 -0.814839,0.756701 -0.736902,0.528303 -1.56931,0.755882 -2.11831,0.326236 -0.271031,-0.212114 -0.401465,-0.469488 -0.42661,-0.747528 -0.030878,-0.341374 0.0954646,-0.716598 0.315154,-1.08012 0.222154,-0.367598 0.539161,-0.722012 0.886248,-1.01767 0.59715,-0.508673 1.2793,-0.842366 1.71331,-0.766177 0.138886,0.0243819 0.263193,0.0901772 0.360571,0.176126 0.10515,0.0928071 0.178488,0.208272 0.20435,0.319559 0.0752087,0.323571 0.0689528,0.622567 -0.0685748,0.944091 -0.139524,0.326197 -0.413909,0.677583 -0.874079,1.1025z"/></g><rect class="fil0" height="6.82666" width="6.82666"/></svg>