<?xml version="1.0" ?><!DOCTYPE svg  PUBLIC '-//W3C//DTD SVG 1.1//EN'  'http://www.w3.org/Graphics/SVG/1.1/DTD/svg11.dtd'><svg height="6.82666in" style="shape-rendering:geometricPrecision; text-rendering:geometricPrecision; image-rendering:optimizeQuality; fill-rule:evenodd; clip-rule:evenodd" viewBox="0 0 6.82666 6.82666" width="6.82666in" xml:space="preserve" xmlns="http://www.w3.org/2000/svg" xmlns:xlink="http://www.w3.org/1999/xlink"><defs><style type="text/css">
   <![CDATA[
    .fil1 {fill:none}
    .fil0 {fill:#212121;fill-rule:nonzero}
   ]]>
  </style></defs><g id="Layer_x0020_1"><g id="_424481680"><path class="fil0" d="M5.20341 1.45402c0.0203071,-0.0500433 0.0304134,-0.0898504 0.0263583,-0.115429 -0.00165354,-0.0104449 -0.00948819,-0.0175157 -0.0251102,-0.0202953l-0.634276 0.0039252 -0.490469 1.42638 -0.0995827 0.00291732c-0.149409,-0.364606 -0.314173,-0.681091 -0.501846,-0.925689 -0.183287,-0.238878 -0.388075,-0.408398 -0.621417,-0.485795 -0.455059,-0.0718898 -0.851063,-0.0122638 -1.16083,0.239315 -0.313531,0.254634 -0.54289,0.707185 -0.661524,1.42 -0.0430827,0.543189 -0.0234213,1.01586 0.0790079,1.39546 0.100622,0.372902 0.28126,0.655287 0.56128,0.825209l0.00124803 0.000625984c0.42728,0.275724 0.817709,0.337843 1.17897,0.231091 0.364717,-0.107772 0.7035,-0.387516 1.0232,-0.793657l0.0520984 -0.066189 0.0374843 0.0753583c0.141591,0.284657 0.309827,0.508378 0.512157,0.654091 0.197756,0.142413 0.429917,0.210976 0.703906,0.18972 0.239823,-0.0995787 0.404807,-0.231965 0.50528,-0.390028 0.0997913,-0.156996 0.136524,-0.341098 0.120331,-0.544909l-0.407189 0.00691339c-0.225799,0.226878 -0.427988,0.269469 -0.609161,0.148209 -0.172047,-0.115157 -0.31672,-0.386421 -0.437512,-0.793795l0.000830709 -0.0322913 0.845933 -2.44844 0.000834646 -0.00270866zm0.131358 -0.132098c0.00737402,0.0464882 -0.00537402,0.10498 -0.0326102,0.172098l-9.05512e-005 -3.54331e-005 -0.83939 2.4295c0.112531,0.374287 0.241677,0.620283 0.389811,0.719437 0.136961,0.0916654 0.29887,0.047626 0.488909,-0.149504l0.0153031 -0.015878 0.0221969 -0.000374016 0.478134 -0.00811811 0.0481063 -0.000818898 0.00564567 0.0479016c0.0290945,0.246933 -0.00997638,0.470898 -0.131441,0.661988 -0.113134,0.177984 -0.297142,0.325677 -0.563449,0.434657l-0.015626 0.00396063c-0.303843,0.0253071 -0.561835,-0.0504528 -0.782189,-0.209138 -0.199425,-0.143618 -0.366465,-0.354559 -0.507618,-0.619303 -0.318071,0.38826 -0.657445,0.656846 -1.02524,0.765528 -0.391248,0.115614 -0.810909,0.0503898 -1.26647,-0.243587l6.69291e-005 -0.000102362c-0.304831,-0.185457 -0.500413,-0.489075 -0.608012,-0.887819 -0.105846,-0.392276 -0.126378,-0.87728 -0.082248,-1.43255l0.000625984 -0.00437795c0.12311,-0.742563 0.366028,-1.21732 0.699972,-1.48854 0.337098,-0.273772 0.762866,-0.338831 1.24929,-0.261087l0.00812205 0.00187402c0.256748,0.0840709 0.479433,0.266772 0.6765,0.523606 0.170933,0.22278 0.32285,0.501961 0.461299,0.821063l0.457421 -1.33027 0.0122402 -0.0355984 0.0379685 -0.00023622 0.676709 -0.00418898 0.00729134 0.000417323c0.0720512,0.00989764 0.109094,0.0484843 0.118772,0.109488z" id="_424481944"/><path class="fil0" d="M2.28573 4.69393c0.237217,0.0314134 0.464449,-0.0104843 0.676075,-0.166602 0.215177,-0.158736 0.415937,-0.435303 0.597122,-0.871579 -0.149346,-0.604228 -0.304925,-0.996547 -0.492429,-1.23665 -0.18248,-0.233669 -0.397421,-0.321681 -0.670106,-0.32272 -0.204598,0.00250394 -0.375327,0.156024 -0.499598,0.386618 -0.104354,0.193638 -0.175354,0.440433 -0.206583,0.699689 -0.0313189,0.260008 -0.0225433,0.531457 0.0327717,0.77348 0.0810827,0.354776 0.261976,0.645496 0.562748,0.737768zm0.738988 -0.0807677c-0.237835,0.175449 -0.492531,0.221791 -0.757984,0.185547l-0.00812598 -0.00166929c-0.345004,-0.10387 -0.549941,-0.425811 -0.639374,-0.81713 -0.0581457,-0.254425 -0.0675276,-0.538528 -0.0348583,-0.809724 0.0327598,-0.271953 0.107902,-0.532071 0.218669,-0.73761 0.142177,-0.263827 0.343756,-0.439508 0.59226,-0.442457l0.000625984 0c0.306724,0.00105512 0.548626,0.100169 0.754315,0.363559 0.199024,0.254858 0.361906,0.664846 0.516165,1.29348l-0.0025 0.0329173c-0.190898,0.465024 -0.406118,0.761142 -0.639193,0.933083z" id="_424481704"/></g></g><rect class="fil1" height="6.82666" width="6.82666"/></svg>