<?xml version="1.0" ?><!DOCTYPE svg  PUBLIC '-//W3C//DTD SVG 1.1//EN'  'http://www.w3.org/Graphics/SVG/1.1/DTD/svg11.dtd'><svg height="6.82666in" style="shape-rendering:geometricPrecision; text-rendering:geometricPrecision; image-rendering:optimizeQuality; fill-rule:evenodd; clip-rule:evenodd" viewBox="0 0 6.82666 6.82666" width="6.82666in" xml:space="preserve" xmlns="http://www.w3.org/2000/svg" xmlns:xlink="http://www.w3.org/1999/xlink"><defs><style type="text/css">
   <![CDATA[
    .fil1 {fill:none}
    .fil0 {fill:#212121;fill-rule:nonzero}
   ]]>
  </style></defs><g id="Layer_x0020_1"><g id="_428471632"><path class="fil0" d="M0.959996 0.906661l4.90667 0 0.0533346 0 0 0.0533346 0 4.90667 0 0.0533346 -0.0533346 0 -4.90667 0 -0.0533346 0 0 -0.0533346 0 -4.90667 0 -0.0533346 0.0533346 0zm4.85333 0.106669l-4.8 0 0 4.8 4.8 0 0 -4.8z" id="_428471728"/><path class="fil0" d="M4.36167 5.22895l0 0.104386 0 0.0533346 -0.0533346 0 -1.64599 0 -0.0533346 0 0 -0.0533346 0 -0.104386 0 -0.0533346 0.0533346 0 0.13628 0c0.0726063,0 0.134398,-0.0102795 0.185354,-0.0308346 0.0483307,-0.0194921 0.0874213,-0.0485118 0.117256,-0.0870472l-5.90551e-005 -4.33071e-005c0.0175118,-0.0231024 0.0313465,-0.066685 0.0413976,-0.130539 0.0108898,-0.0691575 0.0163898,-0.160327 0.0163898,-0.273283l0 -2.48107c0,-0.0963268 -0.00297638,-0.175102 -0.00881102,-0.236236 -0.00562205,-0.0589213 -0.0136378,-0.101768 -0.0239291,-0.128453l-2.75591e-005 1.1811e-005c-0.00714567,-0.0175039 -0.0180354,-0.0339449 -0.0326575,-0.0492992 -0.0158307,-0.016622 -0.0360433,-0.0321102 -0.0606142,-0.0464409l2.3622e-005 -3.93701e-005c-0.0372953,-0.0202598 -0.0753898,-0.0353661 -0.114276,-0.0454094 -0.038626,-0.00997638 -0.0786535,-0.0149134 -0.120047,-0.0149134l-0.13628 0 -0.0533346 0 0 -0.0533346 0 -0.105354 0 -0.0533346 0.0533346 0 1.64599 0 0.0533346 0 0 0.0533346 0 0.105354 0 0.0533346 -0.0533346 0 -0.139177 0c-0.0715197,0 -0.132512,0.0102441 -0.182961,0.030626 -0.0482165,0.0194764 -0.0873071,0.0484685 -0.117236,0.0868583l0.000129921 0.000102362c-0.0182992,0.0235236 -0.0327323,0.067126 -0.0431929,0.130898 -0.0113465,0.0691535 -0.0170787,0.159874 -0.0170787,0.272295l0 2.48107c0,0.0963268 0.00297638,0.175102 0.00881102,0.236236 0.00562205,0.0589213 0.0136378,0.101768 0.0239291,0.128453l2.75591e-005 -1.1811e-005c0.00706299,0.0173071 0.018063,0.0336102 0.0329685,0.0488858 0.0163583,0.0167559 0.0371457,0.0322677 0.0623346,0.0465079l3.93701e-005 -6.69291e-005c0.036811,0.0205906 0.0746654,0.036122 0.113551,0.0464606 0.0381772,0.0101496 0.0777362,0.0152835 0.118677,0.0152835l0.139177 0 0.0533346 0 0 0.0533346zm-1.50246 0.0510512l1.25889 0c-0.0320079,-0.00288189 -0.0635827,-0.00848031 -0.0947126,-0.0167559 -0.047437,-0.0126102 -0.0934882,-0.0314843 -0.138134,-0.0564606l-0.000208661 -0.000208661c-0.0346102,-0.0195394 -0.0635354,-0.0412047 -0.086748,-0.0649803 -0.0247047,-0.025315 -0.0432008,-0.0530039 -0.0554646,-0.0830512l-0.000208661 -0.000625984c-0.0138504,-0.0354646 -0.0241811,-0.088126 -0.0308346,-0.157815 -0.00638976,-0.0669213 -0.00964567,-0.149063 -0.00964567,-0.246236l0 -2.48107c0,-0.117039 0.00629528,-0.213469 0.018748,-0.289382 0.0134528,-0.0820079 0.0348543,-0.14172 0.0640276,-0.179228l0.000208661 0c0.0416654,-0.0534921 0.0954961,-0.0936417 0.16148,-0.120291 0.0517874,-0.0209252 0.110693,-0.0333583 0.176697,-0.0372323l-1.28534 0c0.0360827,0.00242126 0.071874,0.00818898 0.107366,0.0173543 0.0476654,0.012311 0.0942283,0.0308228 0.139665,0.0556575l0.00124803 0.000625984c0.0334094,0.0194882 0.0615354,0.0412244 0.0843622,0.065189 0.0240315,0.0252362 0.0421457,0.0527874 0.0543268,0.0826299l0.000208661 0.000625984c0.0138504,0.0354646 0.0241811,0.088126 0.0308346,0.157815 0.00638976,0.0669213 0.00964567,0.149063 0.00964567,0.246236l0 2.48107c0,0.116728 -0.00606299,0.213335 -0.0180591,0.289535 -0.0128976,0.0819567 -0.0334213,0.141547 -0.0613976,0.178453l-0.000417323 0.000417323c-0.0416378,0.0540157 -0.0957126,0.094437 -0.162197,0.121256 -0.0485118,0.0195669 -0.103299,0.0317244 -0.164346,0.0364724z" id="_428471872"/></g></g><rect class="fil1" height="6.82666" width="6.82666"/></svg>