<?xml version="1.0" ?><!DOCTYPE svg  PUBLIC '-//W3C//DTD SVG 1.1//EN'  'http://www.w3.org/Graphics/SVG/1.1/DTD/svg11.dtd'><svg height="6.82666in" style="shape-rendering:geometricPrecision; text-rendering:geometricPrecision; image-rendering:optimizeQuality; fill-rule:evenodd; clip-rule:evenodd" viewBox="0 0 6.82666 6.82666" width="6.82666in" xml:space="preserve" xmlns="http://www.w3.org/2000/svg" xmlns:xlink="http://www.w3.org/1999/xlink"><defs><style type="text/css">
   <![CDATA[
    .fil2 {fill:none}
    .fil0 {fill:#212121}
    .fil1 {fill:#212121;fill-rule:nonzero}
   ]]>
  </style></defs><g id="Layer_x0020_1"><g id="_424482832"><path class="fil0" d="M0.96 3.43278c0.00475591,0.104803 0.0478858,0.203776 0.122512,0.278394l2.02786 2.02786c0.0792165,0.0792205 0.185894,0.122945 0.297839,0.122945 0.111953,0 0.218626,-0.0437283 0.29785,-0.122953l2.02785 -2.02785c0.0792283,-0.0792244 0.122949,-0.18589 0.122949,-0.297846 0,-0.111953 -0.0437283,-0.218626 -0.122953,-0.297846l-0.000523622 -0.000527559 -0.0847323 0.0848937 0.000444882 0.000440945c0.0566142,0.0566181 0.0877913,0.133071 0.0877913,0.213039 0,0.0799685 -0.0311732,0.156421 -0.0877874,0.213039l-2.02786 2.02786c-0.0566142,0.0566102 -0.133067,0.0877835 -0.213031,0.0877835 -0.0799646,0 -0.156421,-0.0311772 -0.213039,-0.0877913l-2.02785 -2.02785c-0.0439567,-0.0439606 -0.0725787,-0.0998819 -0.0831772,-0.160118l-0.00505118 0 0 -0.0529173c0,-0.0800709 0.0316102,-0.156413 0.0882362,-0.213039l2.02785 -2.02785c0.0566181,-0.0566142 0.133075,-0.0877874 0.213039,-0.0877874 0.0799685,0 0.156421,0.0311732 0.213039,0.0877874l0.890382 0.890386 0.0847323 -0.0848937 -0.890303 -0.890303c-0.0792283,-0.0792283 -0.185894,-0.122949 -0.29785,-0.122949 -0.111957,0 -0.218622,0.0437205 -0.297846,0.122949l-2.02785 2.02786c-0.0792126,0.0792087 -0.122508,0.186 -0.122512,0.297843l0 0.0194528z" id="_424483168"/><path class="fil1" d="M2.03765 3.23885l0.411898 -0.425858 0.000401575 -0.000401575 -3.93701e-006 0c0.0308386,-0.0317323 0.0719173,-0.0480669 0.113236,-0.0487677 0.0412874,-0.000708661 0.082815,0.0142165 0.114618,0.0449685l0.000192913 0.000185039 0.000208661 0.000208661 0.800669 0.778323 1.74569 -1.74885c0.031437,-0.0314921 0.0728819,-0.0472795 0.114315,-0.0473228 0.0413583,-5.11811e-005 0.0827402,0.0155906 0.114157,0.0469291l0.419429 0.418445 0.000208661 0 1.9685e-005 1.9685e-005 -0.000106299 0.000106299c0.0314134,0.0314016 0.0471614,0.0727992 0.0472047,0.114181 5.11811e-005,0.0413504 -0.0155866,0.0827362 -0.0469134,0.114142l0 0.000208661 -1.9685e-005 1.9685e-005 -0.000102362 -0.000102362 -1.9291 1.93259c-0.00903937,0.00905906 -0.0187362,0.0167441 -0.0288622,0.0230512 -0.00651969,0.00405512 -0.0132913,0.00761417 -0.020252,0.0106732l-0.294508 0.304492 -0.000397638 0.000397638 3.93701e-006 0c-0.0308346,0.0317244 -0.0719094,0.048063 -0.113236,0.0487717 -0.0412835,0.000708661 -0.0828228,-0.0142047 -0.11463,-0.0449685l-0.000397638 -0.000397638 0 3.93701e-006 -1.32991 -1.2928c-0.0318228,-0.030937 -0.0482008,-0.0720827 -0.0488898,-0.113476 -0.000685039,-0.0413386 0.0142638,-0.0829016 0.0450827,-0.114764zm0.488563 -0.352114l3.93701e-006 3.93701e-006 -0.411898 0.425858c-0.0105945,0.0109528 -0.0157323,0.0252047 -0.0155,0.0393465 0.00023622,0.0141575 0.00587008,0.0282638 0.0168031,0.0388937l1.32989 1.29278 3.93701e-006 -3.93701e-006c0.010878,0.0105236 0.0250945,0.015626 0.0392126,0.0153858 0.0140709,-0.000240157 0.0280866,-0.00582283 0.0386339,-0.0166614l-3.93701e-006 -3.93701e-006 0.302693 -0.312957 0.021252 -0.0135433c0.00385039,-0.00130709 0.00762205,-0.00309055 0.0112323,-0.00533465 0.00359055,-0.00223622 0.00685827,-0.00479134 0.00969685,-0.00763386l1.9292 -1.9327 0 -0.000208661 1.9685e-005 -1.9685e-005 0.000102362 0.000102362c0.0106654,-0.0107441 0.0159921,-0.0248976 0.0159764,-0.0390354 -1.5748e-005,-0.0141063 -0.00537402,-0.0282087 -0.0160551,-0.0388701l-0.000208661 0 -1.9685e-005 -1.9685e-005 0.000102362 -0.000102362 -0.419323 -0.418343c-0.0107717,-0.010748 -0.0249724,-0.0161102 -0.0391575,-0.0160945 -0.0141142,1.5748e-005 -0.0282244,0.00537795 -0.0388976,0.0160709l-1.78283 1.78607 -0.0371535 0.0372165 -0.0376378 -0.0365906 -0.838098 -0.814709 -3.93701e-006 3.93701e-006 -0.000192913 -0.000185039c-0.010878,-0.0105197 -0.0250866,-0.015626 -0.0392008,-0.0153858 -0.0140748,0.000240157 -0.0280906,0.0058189 -0.0386378,0.0166614z" id="_424482976"/></g></g><rect class="fil2" height="6.82666" width="6.82666"/></svg>