<?xml version="1.0" ?><!DOCTYPE svg  PUBLIC '-//W3C//DTD SVG 1.1//EN'  'http://www.w3.org/Graphics/SVG/1.1/DTD/svg11.dtd'><svg height="6.82666in" style="shape-rendering:geometricPrecision; text-rendering:geometricPrecision; image-rendering:optimizeQuality; fill-rule:evenodd; clip-rule:evenodd" viewBox="0 0 6.82666 6.82666" width="6.82666in" xml:space="preserve" xmlns="http://www.w3.org/2000/svg" xmlns:xlink="http://www.w3.org/1999/xlink"><defs><style type="text/css">
   <![CDATA[
    .fil1 {fill:none}
    .fil0 {fill:#212121;fill-rule:nonzero}
   ]]>
  </style></defs><g id="Layer_x0020_1"><g id="_428470648"><path class="fil0" d="M3.79336 3.61313l0.626933 -0.666327 -0.546933 0.134232 -0.0277756 0.0068189 -0.0209724 -0.0193189 -1.15461 -1.06335 -0.0172953 -0.0159252 0 -0.0232402 0 -0.342051 -1.02587 1.04951 0.412118 -0.022248 0.0269016 -0.00144882 0.0170551 0.0210354 0.981878 1.21104 0.0154528 0.0190551 -0.00420079 0.0236496 -0.0852559 0.479953 0.600697 -0.614732 0.0354094 -0.0362402 0.0379252 0.0335315 1.0325 0.912945 -0.904992 -1.01501 -0.0323976 -0.0363346 0.0334409 -0.0355394zm0.827685 -0.724413l-0.716752 0.761787 1.46883 1.6474 -0.075 0.0752087 -1.66581 -1.47293 -0.686083 0.702114 -0.090626 -0.046248 0.111228 -0.626177 -0.949366 -1.17094 -0.521421 0.0281496 -0.0408346 -0.0902087 1.2127 -1.24064 0.0914606 0.0370827 0 0.449465 1.11635 1.0281 0.69387 -0.170295 0.0514567 0.088122z" id="_428470672"/><path class="fil0" d="M0.959996 0.906665l4.90667 0 0.0533346 0 0 0.0533346 0 4.90667 0 0.0533346 -0.0533346 0 -4.90667 0 -0.0533346 0 0 -0.0533346 0 -4.90667 0 -0.0533346 0.0533346 0zm4.85333 0.106669l-4.8 0 0 4.8 4.8 0 0 -4.8z" id="_428470312"/></g></g><rect class="fil1" height="6.82666" width="6.82666"/></svg>