<?xml version="1.0" ?><!DOCTYPE svg  PUBLIC '-//W3C//DTD SVG 1.1//EN'  'http://www.w3.org/Graphics/SVG/1.1/DTD/svg11.dtd'><svg height="6.82666in" style="shape-rendering:geometricPrecision; text-rendering:geometricPrecision; image-rendering:optimizeQuality; fill-rule:evenodd; clip-rule:evenodd" viewBox="0 0 6.82666 6.82666" width="6.82666in" xml:space="preserve" xmlns="http://www.w3.org/2000/svg" xmlns:xlink="http://www.w3.org/1999/xlink"><defs><style type="text/css">
   <![CDATA[
    .fil1 {fill:none}
    .fil0 {fill:#212121;fill-rule:nonzero}
   ]]>
  </style></defs><g id="Layer_x0020_1"><path class="fil0" d="M5.1357 3.29389c-0.00693701,0.0400748 -0.0278346,0.0743858 -0.0568701,0.0988504 -0.0294961,0.0248504 -0.0672087,0.0394055 -0.107055,0.0394055 -0.0046378,0 -0.00938583,-0.000212598 -0.0142087,-0.000629921 -0.00390551,-0.000334646 -0.00861417,-0.000980315 -0.0140197,-0.00188976l-0.000208661 0c-0.045374,-0.00790157 -0.0832598,-0.0334213 -0.107799,-0.0682795 -0.0245236,-0.0348346 -0.0357835,-0.0789606 -0.0279449,-0.124122 0.00722047,-0.0415276 0.0117008,-0.0830551 0.0134331,-0.12424 0.00173228,-0.0411732 0.000748031,-0.0833661 -0.00295276,-0.126236 -0.0107244,-0.123496 -0.0442441,-0.244425 -0.0979488,-0.357315 -0.0537283,-0.112949 -0.127913,-0.218169 -0.219937,-0.310201l0 -0.000208661c-0.0946929,-0.0947205 -0.204031,-0.171311 -0.322295,-0.227063 -0.117839,-0.0555551 -0.244677,-0.0903071 -0.374811,-0.101571 -0.0430157,-0.00373622 -0.085189,-0.00489764 -0.126201,-0.00348819 -0.0416732,0.00143307 -0.083185,0.00541339 -0.124209,0.0119213 -0.0455039,0.00720472 -0.0895079,-0.00462992 -0.123878,-0.0295866 -0.0344331,-0.0250079 -0.0593386,-0.0632165 -0.0665512,-0.108685 -0.00720472,-0.0454724 0.00464567,-0.0894803 0.0296024,-0.123843 0.0250079,-0.034437 0.0632205,-0.0593543 0.108665,-0.0665709 0.0543465,-0.00862598 0.10948,-0.0139055 0.164976,-0.0158228 0.0561693,-0.00194094 0.111764,-0.000543307 0.166346,0.00419685 0.168713,0.014622 0.333484,0.0597598 0.486882,0.131937 0.153429,0.072189 0.294909,0.171079 0.417016,0.293185 0.11922,0.119224 0.215669,0.256543 0.285925,0.40476 0.0702913,0.148295 0.114185,0.307224 0.128252,0.469602 0.00481102,0.0555354 0.00601969,0.111933 0.00362992,0.168795 -0.00238583,0.0566811 -0.00833858,0.112516 -0.0178386,0.167098zm-0.125201 0.0175984c0.0102638,-0.00864567 0.017685,-0.0209646 0.0202008,-0.0355118 0.00890551,-0.0511811 0.0144409,-0.102417 0.0165866,-0.15335 0.00214173,-0.0508898 0.000929134,-0.102839 -0.00362992,-0.155465 -0.0129921,-0.150012 -0.0534646,-0.296669 -0.118252,-0.43335 -0.0648386,-0.136787 -0.154256,-0.263921 -0.265091,-0.37476 -0.113894,-0.113894 -0.245039,-0.205748 -0.386598,-0.27235 -0.14161,-0.0666299 -0.294248,-0.10835 -0.451047,-0.121937 -0.0522165,-0.0045315 -0.10363,-0.00592913 -0.15385,-0.00419685 -0.0508622,0.00175591 -0.101539,0.00661811 -0.151638,0.0145709 -0.0162756,0.00258268 -0.0300276,0.0115984 -0.0390827,0.0240669 -0.00909055,0.0125157 -0.0134331,0.0284055 -0.0108543,0.0446772 0.00258661,0.0162992 0.0115866,0.0300551 0.0240472,0.0391024 0.0125157,0.00908661 0.0284094,0.0134173 0.0447126,0.0108386 0.0452795,-0.0071811 0.0912441,-0.0115787 0.137547,-0.0131732 0.0469646,-0.00161024 0.0933189,-0.000456693 0.138697,0.00348819 0.142413,0.0123268 0.281528,0.0505039 0.411063,0.111571 0.129083,0.0608543 0.248563,0.144583 0.352189,0.248213l0.000106299 -0.000106299c0.10037,0.100378 0.181591,0.215783 0.240772,0.340201 0.0592047,0.124453 0.0961457,0.25765 0.107949,0.393567 0.00394882,0.0457795 0.00493307,0.0924252 0.00295276,0.139567 -0.00197244,0.0469291 -0.00687008,0.0930512 -0.014685,0.137988 -0.00285039,0.0164291 0.00118898,0.0324094 0.0100236,0.0449567 0.00882283,0.0125354 0.0224094,0.0217047 0.0386339,0.0245315l-3.93701e-006 3.14961e-005c0.00116929,0.000185039 0.00299213,0.000389764 0.00548425,0.000606299 0.00162598,0.000137795 0.00331496,0.000212598 0.00504331,0.000212598 0.014622,0 0.0282598,-0.00516929 0.0387244,-0.0139882z"/><path class="fil0" d="M4.0058 3.14628c-0.0065315,-0.0755551 -0.0472402,-0.148925 -0.106815,-0.205567 -0.060248,-0.0572795 -0.139154,-0.0968346 -0.221232,-0.103957 -0.00837795,-0.000732283 -0.0147992,-0.00115748 -0.019189,-0.00125984l0 -3.93701e-006c-0.00588583,-0.000133858 -0.0120236,-6.29921e-005 -0.018378,0.000216535l-0.000208661 0c-0.045878,0.0018189 -0.0882087,-0.0150748 -0.119484,-0.0438819 -0.0312913,-0.0288189 -0.0516142,-0.0696339 -0.0535118,-0.115634l-0.000208661 -0.00208268 0 -1.9685e-005 0.000137795 0c-0.00130709,-0.0450906 0.0154921,-0.0865906 0.0438583,-0.117417 0.0288189,-0.0313031 0.0696693,-0.051626 0.115709,-0.0535315l0.00208268 -0.000208661 1.9685e-005 0 0 0.000129921c0.0122165,-0.000433071 0.024815,-0.0005 0.0377008,-0.000192913 0.0151181,0.000354331 0.0284646,0.0010315 0.0399646,0.00200787l0.000208661 0c0.163244,0.0141299 0.314087,0.0882205 0.427492,0.198012 0.113736,0.110114 0.19002,0.256449 0.203744,0.414677 0.00111811,0.0129094 0.00176378,0.0276063 0.00192913,0.0439409 0.000149606,0.0154764 -0.000232283,0.0299094 -0.00114567,0.0431772 -0.00296457,0.0436417 -0.0226732,0.082311 -0.0524764,0.110181 -0.0300591,0.0281102 -0.0701614,0.0451339 -0.113492,0.0451339l0 -0.000208661c-0.00229528,-3.93701e-006 -0.00438583,-2.3622e-005 -0.00554331,-5.90551e-005l0 -7.87402e-006 -0.00641732 -0.000204724 3.93701e-006 -4.72441e-005c-0.0455472,-0.00323622 -0.0855551,-0.0245945 -0.113461,-0.0565591 -0.0280787,-0.0321614 -0.0438976,-0.0749449 -0.0408189,-0.120693 0.000476378,-0.00681496 0.000692913,-0.0127677 0.000641732,-0.0178189 -4.33071e-005,-0.00420472 -0.000417323,-0.0102638 -0.00111024,-0.018122zm-0.0334843 -0.282646c0.0776732,0.0738504 0.130902,0.171327 0.139736,0.27348 0.000625984,0.00709055 0.001,0.0159409 0.00111024,0.0264528 9.44882e-005,0.00964567 -0.00011811,0.0182559 -0.000641732,0.0257402 -0.00112205,0.0166575 0.00452756,0.0321063 0.0145669,0.0436063 0.0100709,0.0115394 0.0245906,0.0192402 0.0411654,0.0203543l0.000622047 0c0.0024685,0.00019685 -0.000212598,0.000173228 0.00120866,0.000212598l0.000208661 0 0.0022126 5.90551e-005 0 -0.000208661c0.0158898,0 0.0303661,-0.00601969 0.0409961,-0.0159606 0.0106102,-0.00992126 0.0176417,-0.023874 0.0187205,-0.0397717 0.000870079,-0.0126102 0.00125197,-0.0243937 0.00114567,-0.0352559 -9.84252e-005,-0.0100669 -0.000748031,-0.0219685 -0.00192913,-0.0356102 -0.0114528,-0.132012 -0.0757283,-0.254717 -0.171657,-0.347591 -0.0962362,-0.0931693 -0.22415,-0.156035 -0.362492,-0.168012l0 -1.5748e-005c-0.0129843,-0.0011063 -0.0242008,-0.00177559 -0.0335039,-0.00199213 -0.0108583,-0.000255906 -0.0219331,-0.000165354 -0.033122,0.000271654l-0.00208268 0.000208661 -1.9685e-005 0 0 -8.66142e-005c-0.0155984,0.00119291 -0.0294764,0.00838976 -0.0394606,0.0192362 -0.010437,0.0113386 -0.0165472,0.0266575 -0.0158661,0.0432559l0.000208661 0.00208268 0 1.9685e-005 -8.66142e-005 0c0.00118504,0.0155551 0.00838189,0.0294055 0.0192165,0.0393858 0.0113189,0.0104252 0.026563,0.0165669 0.0430315,0.0159685l0 -7.87402e-006c0.00798031,-0.000350394 0.0164252,-0.000417323 0.025252,-0.000212598l0.000204724 0c0.0105,0.000248031 0.0191339,0.000673228 0.0258583,0.00125984 0.106642,0.00925197 0.208374,0.0598976 0.285398,0.13313z"/><path class="fil0" d="M4.40447 3.07945c-0.0068937,-0.0794134 -0.0287323,-0.157382 -0.0638031,-0.230354 -0.035189,-0.0732126 -0.0840709,-0.142035 -0.144933,-0.202898 -0.0636299,-0.063626 -0.136492,-0.114909 -0.21478,-0.15202 -0.078189,-0.0370709 -0.162126,-0.0602283 -0.248008,-0.0676614 -0.0246575,-0.00215354 -0.0481732,-0.00301181 -0.0703858,-0.00259055 -0.023248,0.000444882 -0.0464252,0.0021378 -0.0693228,0.00505512 -0.0455197,0.00577165 -0.0891535,-0.00742126 -0.122803,-0.0334567 -0.0336496,-0.0260315 -0.0574094,-0.0649252 -0.0632165,-0.110567l-0.000208661 -0.000208661 -1.1811e-005 -9.44882e-005 0.000181102 -2.3622e-005c-0.00572047,-0.0454488 0.00745276,-0.0889134 0.0333937,-0.122461 0.0260118,-0.0336417 0.0649291,-0.057374 0.110539,-0.0632205l0.000208661 -0.000208661 9.44882e-005 -1.1811e-005 2.3622e-005 0.000181102c0.0345315,-0.00440945 0.0694449,-0.00695669 0.104484,-0.00764567l0.000208661 0c0.0362087,-0.000704724 0.0714685,0.000413386 0.105516,0.0033622 0.124744,0.0107992 0.246669,0.0443386 0.360299,0.0980039 0.113524,0.0536142 0.218461,0.127161 0.309331,0.218028 0.0879488,0.0879488 0.159012,0.188689 0.210685,0.296976 0.0517835,0.108535 0.0840669,0.224638 0.0943307,0.343067 0.00276378,0.0317598 0.0038189,0.0647795 0.00316929,0.0987992 -0.000629921,0.0330669 -0.00302362,0.0659646 -0.00715748,0.0984685 -0.00531496,0.0417795 -0.0256693,0.0779567 -0.0549134,0.103752 -0.0297874,0.0262835 -0.0685984,0.0419134 -0.110016,0.0419134 -0.00221654,0 -0.00568898,-0.000153543 -0.0102717,-0.000437008 -0.0043622,-0.000271654 -0.00777165,-0.000566929 -0.0103425,-0.000870079l-0.000417323 -0.000208661c-0.0456535,-0.00580709 -0.0846063,-0.0295276 -0.110681,-0.0631969 -0.0260276,-0.0335945 -0.0392244,-0.0771969 -0.0334567,-0.122819 0.00264961,-0.0207638 0.00418504,-0.0417559 0.00459449,-0.0627795 0.000389764,-0.0201024 -0.000385827,-0.0414528 -0.00233071,-0.063874zm0.0320315 -0.276189c0.0408622,0.0850276 0.0662677,0.175409 0.0742205,0.267024 0.00205906,0.0237441 0.00283465,0.0487244 0.00233071,0.0747087 -0.000484252,0.0250433 -0.00230315,0.0499331 -0.00542913,0.0744409 -0.00207874,0.0164606 0.00273228,0.0322638 0.0122047,0.0444882 0.0093189,0.0120315 0.0231811,0.0205354 0.0394094,0.0227205l1.9685e-005 -0.000149606c0.00225591,0.000267717 0.00368504,0.000429134 0.00409843,0.000452756 0.000200787,1.1811e-005 0.00150787,1.9685e-005 0.00401969,1.9685e-005 0.0150945,0 0.029063,-0.0055315 0.0395984,-0.0148268 0.0106142,-0.0093622 0.018,-0.0224449 0.0199134,-0.0375 0.00365748,-0.0287362 0.00576772,-0.0577402 0.00632283,-0.0868071 0.000535433,-0.0281102 -0.000519685,-0.0575079 -0.00316929,-0.0879646 -0.00915354,-0.105626 -0.0380157,-0.209323 -0.0843307,-0.306398 -0.0464331,-0.097311 -0.110469,-0.188012 -0.18985,-0.267394 -0.0824488,-0.0824449 -0.177201,-0.148961 -0.279331,-0.197193 -0.101961,-0.0481535 -0.211614,-0.0782717 -0.324047,-0.0880039 -0.0326417,-0.00282677 -0.0642087,-0.00394882 -0.0944724,-0.00336614l0 3.93701e-006c-0.0314134,0.000614173 -0.0626457,0.00289764 -0.0934724,0.00683858l-0.000208661 0.000208661 -9.44882e-005 1.1811e-005 -2.3622e-005 -0.000177165c-0.0162283,0.00214173 -0.0301299,0.010685 -0.0394724,0.0227717 -0.00942126,0.012185 -0.0142047,0.027937 -0.0121142,0.0443622l0.000208661 0.000208661 1.1811e-005 9.44882e-005 -0.000177165 2.3622e-005c0.00212992,0.016252 0.0106811,0.0301535 0.0227677,0.0395 0.0122441,0.00947244 0.0280551,0.0142874 0.0444724,0.0122047 0.0266575,-0.0033937 0.0537244,-0.00537008 0.0809843,-0.00588976 0.0281181,-0.000535433 0.0552717,0.000322835 0.0812205,0.00259055 0.098248,0.00850787 0.194453,0.0350866 0.28426,0.0776614 0.0897244,0.0425315 0.172768,0.100846 0.24478,0.172854 0.0688189,0.0688228 0.124598,0.147693 0.16535,0.23248z"/><path class="fil0" d="M5.06426 4.61496c-0.0073189,0.0217717 -0.0147362,0.0418583 -0.0222244,0.0602441 -0.0737717,0.181067 -0.18965,0.310823 -0.33426,0.380307 -0.144929,0.0696417 -0.316807,0.0777992 -0.502154,0.0154843 -0.0196496,-0.0066063 -0.0383543,-0.0135197 -0.0560512,-0.0207283 -0.280563,-0.114268 -0.541933,-0.248394 -0.782843,-0.403559 -0.2415,-0.155547 -0.462091,-0.331929 -0.660469,-0.530315 -0.198386,-0.198378 -0.37478,-0.418988 -0.530339,-0.660492 -0.155185,-0.240929 -0.289319,-0.502311 -0.403587,-0.782858 -0.0071811,-0.0176299 -0.0140748,-0.0362795 -0.0206654,-0.055874 -0.0623543,-0.185394 -0.0541969,-0.357327 0.0154685,-0.502299 0.0695118,-0.144657 0.199327,-0.260575 0.38048,-0.334362 0.0183346,-0.0074685 0.0383622,-0.0148661 0.0600748,-0.0221654 0.0407323,-0.0136732 0.0814291,-0.0209961 0.122386,-0.0212165 0.0415079,-0.000228346 0.0825551,0.0067874 0.12335,0.0217953 0.0938622,0.0345315 0.25052,0.202559 0.384201,0.384921 0.135626,0.185016 0.251165,0.389724 0.256602,0.489059 0.00444882,0.0820984 -0.0213346,0.145531 -0.0621181,0.19789 -0.0378504,0.0485906 -0.0875079,0.085374 -0.136724,0.118791 -0.0727402,0.0493898 -0.109028,0.103748 -0.119142,0.16198 -0.0105866,0.0609331 0.00573228,0.129287 0.0383701,0.20265 0.0357402,0.0802717 0.0765945,0.155646 0.123063,0.225528 0.0460669,0.0692835 0.0975157,0.132866 0.154823,0.190146l0.000208661 0.000208661c0.057311,0.0573425 0.120906,0.108807 0.190189,0.154874 0.069878,0.0464646 0.145236,0.0873031 0.225484,0.123012 0.0733898,0.0326378 0.141752,0.0489567 0.202681,0.0383819 0.0582402,-0.0101102 0.112591,-0.046378 0.162004,-0.119098 0.0334134,-0.0492362 0.070185,-0.0989055 0.118768,-0.136756 0.0523504,-0.0407874 0.115772,-0.0665551 0.19787,-0.0620866 0.0993307,0.00540157 0.303976,0.120894 0.488972,0.256484 0.182413,0.133701 0.350516,0.290417 0.385063,0.38428 0.0149724,0.0407953 0.0219882,0.0818543 0.0217598,0.123366 -0.000224409,0.0409764 -0.00754724,0.081689 -0.0212441,0.122409zm-0.120972 0.0202441c0.00754724,-0.0185276 0.0142717,-0.0365433 0.0201378,-0.0539921 0.0102126,-0.0303583 0.0156693,-0.0600157 0.0158268,-0.0890787 0.000153543,-0.0285197 -0.00484252,-0.0572205 -0.0155079,-0.0862795 -0.0271063,-0.0736417 -0.17978,-0.211835 -0.347976,-0.335114 -0.171083,-0.125394 -0.353323,-0.231819 -0.431476,-0.236067 -0.0529567,-0.00288189 -0.093626,0.0135551 -0.127035,0.0395827 -0.0371732,0.0289606 -0.067874,0.0707441 -0.0962717,0.112591 -0.0674803,0.0993071 -0.14565,0.149528 -0.232004,0.164516 -0.0836693,0.0145236 -0.172028,-0.00543307 -0.263925,-0.0463031 -0.0859724,-0.0382559 -0.166488,-0.0818622 -0.240902,-0.131343 -0.0749331,-0.0498228 -0.14402,-0.105776 -0.20665,-0.168413l-0.000102362 -0.000106299 -0.000106299 -0.000102362c-0.0626063,-0.0625984 -0.118539,-0.131677 -0.168362,-0.206606 -0.0494764,-0.0744055 -0.0931024,-0.154941 -0.131394,-0.240945 -0.0408701,-0.0918701 -0.0608268,-0.180224 -0.0462913,-0.263894 0.015,-0.0863622 0.0652362,-0.164535 0.164559,-0.23198 0.0418189,-0.0283976 0.0835866,-0.0591063 0.112559,-0.0962953 0.0260315,-0.0334213 0.0424843,-0.0741024 0.0396142,-0.127055 -0.00427559,-0.0781496 -0.110748,-0.260449 -0.236185,-0.431563 -0.123256,-0.168138 -0.261394,-0.320744 -0.335035,-0.347835 -0.0290787,-0.0106969 -0.0577677,-0.0156969 -0.0862638,-0.0155433 -0.0290551,0.000153543 -0.0587008,0.00561024 -0.0890551,0.0157992 -0.0173819,0.00584646 -0.0353425,0.0125512 -0.0538228,0.0200787 -0.156094,0.0635787 -0.266827,0.161122 -0.324646,0.281449 -0.0576654,0.120004 -0.0636457,0.264602 -0.0104685,0.422717 0.00514173,0.0152953 0.0113346,0.0318346 0.0185787,0.049622 0.111878,0.274685 0.242972,0.530232 0.394421,0.765362 0.151071,0.234539 0.322744,0.44915 0.516173,0.642571 0.193421,0.193429 0.40802,0.365091 0.642547,0.51615 0.23511,0.151433 0.490654,0.282516 0.765346,0.394394 0.0178386,0.00726772 0.0344409,0.0134803 0.0497992,0.0186417 0.158063,0.0531417 0.302618,0.0471535 0.422571,-0.0104843 0.120283,-0.0577953 0.217787,-0.168469 0.281346,-0.324472z"/><path class="fil0" d="M1.01333 1.01333l0 4.79999 4.79999 0 0 -4.79999 -4.79999 0zm-0.106669 4.85333l0 -4.90666 0 -0.0533346 0.0533346 0 4.90666 0 0.0533346 0 0 0.0533346 0 4.90666 0 0.0533346 -0.0533346 0 -4.90666 0 -0.0533346 0 0 -0.0533346z"/></g><rect class="fil1" height="6.82666" width="6.82666"/></svg>