<?xml version="1.0" ?><!DOCTYPE svg  PUBLIC '-//W3C//DTD SVG 1.1//EN'  'http://www.w3.org/Graphics/SVG/1.1/DTD/svg11.dtd'><svg height="6.82666in" style="shape-rendering:geometricPrecision; text-rendering:geometricPrecision; image-rendering:optimizeQuality; fill-rule:evenodd; clip-rule:evenodd" viewBox="0 0 6.82666 6.82666" width="6.82666in" xml:space="preserve" xmlns="http://www.w3.org/2000/svg" xmlns:xlink="http://www.w3.org/1999/xlink"><defs><style type="text/css">
   <![CDATA[
    .fil1 {fill:none}
    .fil0 {fill:#212121;fill-rule:nonzero}
   ]]>
  </style></defs><g id="Layer_x0020_1"><path class="fil0" d="M1.94379 0.906665l2.93896 0c0.286445,0 0.546484,0.132409 0.734673,0.345744 0.186673,0.211618 0.302547,0.502953 0.302547,0.822929l0 2.67601c0,0.319965 -0.11587,0.611295 -0.302547,0.822909 -0.188189,0.213327 -0.448224,0.345736 -0.734673,0.345736l-2.93896 0c-0.286429,0 -0.546425,-0.132406 -0.734587,-0.345728 -0.186657,-0.211618 -0.302508,-0.502953 -0.302508,-0.822917l0 -2.67601c0,-0.319976 0.11585,-0.611319 0.302504,-0.822941 0.188161,-0.213327 0.448161,-0.345732 0.734591,-0.345732zm2.93896 0.106669l-2.93896 0c-0.254693,0 -0.486579,0.118524 -0.655008,0.30948 -0.169937,0.192669 -0.275417,0.459016 -0.275417,0.752524l0 2.67601c0,0.293496 0.10548,0.559835 0.275421,0.7525 0.168433,0.190957 0.400311,0.309476 0.655004,0.309476l2.93896 0c0.254713,0 0.486634,-0.118528 0.655091,-0.309484 0.169965,-0.192669 0.275461,-0.459004 0.275461,-0.752492l0 -2.67601c0,-0.2935 -0.1055,-0.559839 -0.275461,-0.752512 -0.168461,-0.190969 -0.400378,-0.309492 -0.655091,-0.309492z"/><path class="fil0" d="M2.84628 2.55737l0.628016 0 0.0533346 0 0 0.0533346 0 1.04055c0.169248,0.039437 0.842768,0.150634 0.945299,-0.547087 0.0155866,-0.898571 -1.04557,-0.893949 -1.04862,-0.893961l-0.0025 0c-0.00193307,-0.000102362 -0.671437,-0.0427756 -1.00351,0.492728 -0.244567,0.416098 0.0693268,0.790134 0.0702205,0.79122l0.0325394 0.0395709 -0.0381614 0.0339685 -0.45363 0.403787 -0.0420079 0.0373937 -0.0350748 -0.0442677c-0.00200394,-0.0025315 -0.708252,-0.873862 -0.0161811,-1.81904l0.00312598 -0.00375197c0.892276,-1.01014 2.39012,-0.408028 2.39445,-0.406331l0.00125197 0.000625984c0.00336614,0.00141339 1.17902,0.480094 0.77537,1.75297l-0.00291732 0.00708268c-0.473661,0.982547 -1.32289,0.825193 -1.57464,0.752894l0 0.485091 -0.000625984 0.00729134c-0.000137795,0.000976378 -0.0440236,0.340638 -0.443327,0.486425 -0.395921,0.144413 -0.756343,-0.126063 -0.75739,-0.126835l-0.021878 -0.0161024 0 -0.026815 0 -0.563213 0.091252 -0.0372913c0.0637638,0.0651496 0.135496,0.1185 0.202626,0.142492 0.029563,0.010563 0.0574449,0.0151575 0.0820945,0.0119921 0.022189,-0.00285039 0.042878,-0.0123898 0.0610197,-0.0301457 0.0176024,-0.0172323 0.0333386,-0.0423346 0.0465236,-0.0765906l0 -1.89466 0 -0.0533346 0.0533346 0zm0.574681 0.106669l-0.521346 0 0 1.85081 -0.00312598 0.0179173c-0.0193661,0.0541969 -0.0450748,0.0952559 -0.0754843,0.12502 -0.0358031,0.0350394 -0.0772953,0.0539528 -0.122272,0.0597283 -0.0425197,0.00546063 -0.0868425,-0.00112205 -0.13126,-0.0169921 -0.0504803,-0.0180394 -0.102008,-0.0484606 -0.151374,-0.0866614l0 0.416343c0.0771024,0.0501535 0.347287,0.203098 0.636346,0.0976654 0.315098,-0.115047 0.367689,-0.362728 0.373535,-0.397004l0 -0.555035 0 -0.0773465 0.0722913 0.0277638c0.00286614,0.00109843 0.993846,0.394661 1.5112,-0.672374 0.36448,-1.15612 -0.674315,-1.60245 -0.714606,-1.61931l-3.54331e-005 9.05512e-005c-0.00412992,-0.00161811 -1.43136,-0.575154 -2.27406,0.375335 -0.552669,0.756469 -0.14413,1.46044 -0.0186693,1.64304l0.373819 -0.332748c-0.0810748,-0.118894 -0.280488,-0.478567 -0.0489567,-0.871681l0.000625984 -0.00104331c0.365693,-0.590425 1.09752,-0.543717 1.09964,-0.543602l0 7.87402e-006c0.0575394,0.000350394 1.17251,0.0193189 1.15194,1.00624l-0.000417323 0.00645669c-0.1335,0.923598 -1.11643,0.627555 -1.11925,0.626732l-0.0385433 -0.0112362 0 -0.0398031 0 -1.02831z"/></g><rect class="fil1" height="6.82666" width="6.82666"/></svg>