<?xml version="1.0" ?><!DOCTYPE svg  PUBLIC '-//W3C//DTD SVG 1.1//EN'  'http://www.w3.org/Graphics/SVG/1.1/DTD/svg11.dtd'><svg height="6.82666in" style="shape-rendering:geometricPrecision; text-rendering:geometricPrecision; image-rendering:optimizeQuality; fill-rule:evenodd; clip-rule:evenodd" viewBox="0 0 6.82666 6.82666" width="6.82666in" xml:space="preserve" xmlns="http://www.w3.org/2000/svg" xmlns:xlink="http://www.w3.org/1999/xlink"><defs><style type="text/css">
   <![CDATA[
    .fil1 {fill:none}
    .fil0 {fill:#212121;fill-rule:nonzero}
   ]]>
  </style></defs><g id="Layer_x0020_1"><path class="fil0" d="M1.94684 5.27838l7.87402e-006 1.5748e-005c0.034878,0.0699213 0.095311,0.119268 0.164567,0.142441 0.0693976,0.0232165 0.147551,0.0201378 0.217673,-0.0148307l7.87402e-006 0 0.453902 -0.226358 0.0474291 -0.0236535 0.0237953 0.0477205 0.22635 0.453898c0.034878,0.0699291 0.095311,0.11928 0.164575,0.142445 0.0562008,0.0187992 0.118138,0.0203543 0.176902,0.00170079l-0.00157874 -0.00552362 0.0471654 -0.0134764c0.067378,-0.0352047 0.115012,-0.0944488 0.13765,-0.16211 0.0232165,-0.0694016 0.0201417,-0.147547 -0.0148228,-0.217669l-7.87402e-006 -1.9685e-005 -0.226346 -0.453882 -0.0236535 -0.0474291 0.0477205 -0.0237992 1.21037 -0.603602 0.0474252 -0.0236535 0.0237992 0.0477205 0.226358 0.453902 3.93701e-006 1.9685e-005c0.0348701,0.0699094 0.0953031,0.119256 0.164571,0.142425 0.0693976,0.0232126 0.147551,0.0201339 0.217673,-0.0148346l2.3622e-005 -1.1811e-005c0.0699213,-0.034878 0.119272,-0.0953071 0.142437,-0.164567 0.0232165,-0.0694055 0.0201417,-0.147555 -0.0148268,-0.217673l-0.226354 -0.453898 -0.0236575 -0.0474291 0.0477244 -0.0237992 0.453898 -0.22635c0.0699252,-0.0348701 0.119276,-0.0953071 0.142445,-0.164575 0.0230984,-0.0690591 0.0201614,-0.146783 -0.0143268,-0.216638l-0.000523622 -0.00105118c-0.0348701,-0.0699252 -0.0953031,-0.11928 -0.164563,-0.142445 -0.0693661,-0.0232047 -0.147461,-0.0201457 -0.217547,0.0147559l-0.000129921 6.69291e-005 -0.453886 0.226354 -0.0474291 0.0236496 -0.0237992 -0.0477205 -0.603598 -1.21037 -0.0236575 -0.0474252 0.0477244 -0.0237992 0.45389 -0.22635c0.0699252,-0.0348701 0.119276,-0.095311 0.142445,-0.164575 0.0232087,-0.0694055 0.0201339,-0.147559 -0.0148386,-0.217681l-0.000326772 -0.000665354c-0.0349252,-0.0695787 -0.0951969,-0.118693 -0.164248,-0.141791 -0.0694016,-0.0232165 -0.147555,-0.0201378 -0.217669,0.0148268l-0.453894 0.226358 -0.0474291 0.0236575 -0.0237992 -0.0477244 -0.226354 -0.453906c-0.034874,-0.0699252 -0.095311,-0.119276 -0.164579,-0.142445 -0.0694094,-0.0232165 -0.147559,-0.0201378 -0.217677,0.0148346l-1.9685e-005 0c-0.0699213,0.034874 -0.119272,0.095311 -0.142441,0.164579 -0.0232126,0.0693976 -0.0201417,0.147551 0.0148268,0.217665l3.93701e-006 7.87402e-006 0.226354 0.453898 0.0236535 0.0474291 -0.0477205 0.0237953 -1.21037 0.603606 -0.0474252 0.0236535 -0.0237992 -0.0477205 -0.226358 -0.453902c-0.0348701,-0.0699291 -0.095311,-0.119276 -0.164579,-0.142449 -0.0694055,-0.0232087 -0.147555,-0.0201299 -0.217677,0.0148425l-0.000661417 0.000326772c-0.0695787,0.0349252 -0.118697,0.0952008 -0.141795,0.164248 -0.0232165,0.0694055 -0.0201417,0.147551 0.0148268,0.217669l0.226358 0.453902 0.0236575 0.0474291 -0.0477244 0.0237953 -0.453902 0.226358c-0.0699213,0.0348701 -0.11928,0.095315 -0.142445,0.164579 -0.0232165,0.0694055 -0.0201417,0.147555 0.0148307,0.217677l1.1811e-005 2.3622e-005c0.0348701,0.0699173 0.0953071,0.119268 0.164567,0.142437 0.0694016,0.0232165 0.147547,0.0201417 0.217661,-0.0148268l7.87402e-006 -3.93701e-006 0.453909 -0.226354 0.0474291 -0.0236496 0.0237953 0.0477165 0.603602 1.21037 0.0236575 0.0474252 -0.0477244 0.0238031 -0.453909 0.226358c-0.0699213,0.0348701 -0.119272,0.0953071 -0.142441,0.164579 -0.0232126,0.0694016 -0.0201339,0.147555 0.0148346,0.217677zm-0.0952992 0.0471457c-0.0480197,-0.0962953 -0.0523071,-0.203402 -0.0205472,-0.298366 0.0318071,-0.0951063 0.0998031,-0.178209 0.196295,-0.226331l0.406189 -0.202563 -0.556154 -1.11522 -0.40648 0.202705 -1.1811e-005 3.93701e-006c-0.0962874,0.0480197 -0.203382,0.052315 -0.298354,0.0205433 -0.0951102,-0.031815 -0.178213,-0.099815 -0.226331,-0.196303l-1.1811e-005 -3.14961e-005c-0.0480118,-0.0962874 -0.0523071,-0.203386 -0.0205433,-0.298354 0.031811,-0.0951063 0.099811,-0.178213 0.196303,-0.226335l0.406181 -0.202559 -0.202705 -0.406472c-0.0480236,-0.0962913 -0.0523189,-0.203398 -0.0205512,-0.298366 0.031815,-0.0951063 0.099815,-0.178213 0.196311,-0.226335l0.0250984 -0.0125118 0.00112205 0.000622047c0.0892362,-0.0366063 0.18572,-0.0375748 0.272157,-0.00866535 0.0951102,0.031811 0.178213,0.0998071 0.226335,0.196299l0.202559 0.406181 1.11522 -0.556154 -0.202705 -0.406472 -3.93701e-006 -1.1811e-005c-0.0480197,-0.0962874 -0.052311,-0.20339 -0.0205433,-0.298354 0.031811,-0.0951063 0.099815,-0.178217 0.196303,-0.226335l8.26772e-005 -3.14961e-005c0.0962717,-0.0479843 0.203346,-0.0522835 0.298303,-0.0205197 0.0951102,0.031811 0.178213,0.0998071 0.226331,0.196299l0.202563 0.406185 0.406461 -0.202705c0.0962992,-0.0480197 0.203402,-0.0523189 0.298374,-0.0205472 0.0951063,0.031811 0.178209,0.099811 0.226327,0.196303l0.0125157 0.0250984 -0.000625984 0.00112598c0.0366102,0.0892362 0.0375748,0.185724 0.00866535,0.272161 -0.0318071,0.0951063 -0.0998031,0.178209 -0.196299,0.226327l-0.406169 0.202555 0.55615 1.11522 0.405772 -0.202354 0.000700787 -0.000354331c0.0962992,-0.0480079 0.203398,-0.0523031 0.298362,-0.0205354 0.0816969,0.0273268 0.154528,0.0813583 0.203941,0.157209l0.00252756 -0.000720472 0.0198622 0.0398268c0.0480197,0.0962992 0.0523189,0.203409 0.0205551,0.298374 -0.031811,0.0951102 -0.0998071,0.178209 -0.196299,0.226331l-0.406177 0.202555 0.202705 0.406469c0.0480197,0.0962953 0.052315,0.203406 0.0205472,0.29837 -0.031815,0.0951063 -0.099815,0.178209 -0.196307,0.226331l-2.75591e-005 1.1811e-005c-0.0962913,0.0480079 -0.203394,0.0523071 -0.298354,0.0205433 -0.0951142,-0.031811 -0.178213,-0.099811 -0.226327,-0.196287l-7.87402e-006 -1.9685e-005 -0.202555 -0.406169 -1.11522 0.556154 0.202705 0.406465 7.87402e-006 1.5748e-005c0.0480079,0.0962953 0.0522992,0.203402 0.0205315,0.298358 -0.0273268,0.0816969 -0.0813583,0.154531 -0.157205,0.203945l0.000720472 0.00252362 -0.0398268 0.0198622c-0.0962992,0.0480197 -0.203406,0.0523228 -0.298378,0.0205551 -0.0951063,-0.031811 -0.178209,-0.0998071 -0.226327,-0.196303l-0.202555 -0.406173 -0.406476 0.202705 -1.1811e-005 3.93701e-006c-0.0962953,0.0480157 -0.203394,0.052311 -0.298362,0.0205472 -0.0951063,-0.0318189 -0.178197,-0.099815 -0.226327,-0.196307l-7.87402e-006 -1.9685e-005zm-0.427858 -1.73507l3.93701e-006 0m0.0471535 0.0952953l-7.87402e-006 3.93701e-006m1.76538 -2.26207l0 3.93701e-006m-0.0952953 0.0471496l-3.93701e-006 -7.87402e-006m1.75521 3.28139l0 1.1811e-005m-2.56704 0.653772l3.93701e-006 0m0.0471496 0.0952953l-7.87402e-006 3.93701e-006m-0.429394 -0.222917l3.93701e-006 7.87402e-006m1.18696 -1.02938l1.11522 -0.556154 -0.556154 -1.11522 -1.11522 0.556154 0.556154 1.11522zm1.21009 -0.484657l-1.21037 0.603606 -0.0474252 0.0236496 -0.0237992 -0.0477205 -0.603606 -1.21037 -0.0236496 -0.0474252 0.0477205 -0.0237992 1.21037 -0.603602 0.0474252 -0.0236535 0.0237992 0.0477205 0.603606 1.21037 0.0236496 0.0474252 -0.0477205 0.0237992z"/></g><rect class="fil1" height="6.82666" width="6.82666"/></svg>