<?xml version="1.0" ?><!DOCTYPE svg  PUBLIC '-//W3C//DTD SVG 1.1//EN'  'http://www.w3.org/Graphics/SVG/1.1/DTD/svg11.dtd'><svg height="6.82666in" style="shape-rendering:geometricPrecision; text-rendering:geometricPrecision; image-rendering:optimizeQuality; fill-rule:evenodd; clip-rule:evenodd" viewBox="0 0 6.82666 6.82666" width="6.82666in" xml:space="preserve" xmlns="http://www.w3.org/2000/svg" xmlns:xlink="http://www.w3.org/1999/xlink"><defs><style type="text/css">
   <![CDATA[
    .fil1 {fill:none}
    .fil0 {fill:#212121;fill-rule:nonzero}
   ]]>
  </style></defs><g id="Layer_x0020_1"><path class="fil0" d="M4.66332 2.65183c0.348756,0.0200157 0.659169,0.175445 0.881567,0.413224 0.229169,0.245016 0.36487,0.577354 0.352791,0.938921 -0.0120827,0.361709 -0.169677,0.684323 -0.414685,0.913484 -0.245008,0.229161 -0.57735,0.364874 -0.938917,0.352791 -0.0247677,-0.000826772 -0.0496929,-0.00238976 -0.0747283,-0.00464567l-0.000208661 0c-0.0249843,-0.00225591 -0.0483583,-0.00496063 -0.0701181,-0.00808661l-2.36321 0 -0.0533346 0 0 -0.00951575c-0.308878,-0.0305315 -0.582319,-0.175614 -0.778929,-0.391071 -0.206634,-0.226441 -0.328453,-0.530705 -0.317406,-0.861409 0.0106417,-0.318461 0.142528,-0.604205 0.349811,-0.814362 0.197972,-0.20072 0.464776,-0.332587 0.760469,-0.358315 0.0152913,-0.366173 0.176071,-0.692524 0.424657,-0.925035 0.250795,-0.234575 0.590846,-0.373614 0.96085,-0.361701l0 -0.000165354 7.87402e-006 0 0.00166535 0.000208661c0.32965,0.0110157 0.627476,0.13972 0.854453,0.344378 0.219965,0.198327 0.373555,0.468094 0.425264,0.771299zm0.804071 0.48572c-0.210504,-0.225059 -0.506913,-0.369823 -0.839319,-0.380929 -0.0034252,-0.00011811 -0.00497244,-0.000141732 -0.00666535,-0.000169291l-0.00483071 -9.05512e-005 -0.0457165 -0.000854331 -0.00615748 -0.045189c-0.0402598,-0.295429 -0.185461,-0.559083 -0.397898,-0.750622 -0.20876,-0.188232 -0.482311,-0.306713 -0.784866,-0.317224l0 0.000141732 -7.87402e-006 0 -0.00166535 -0.000208661c-0.341638,-0.0114173 -0.655472,0.116638 -0.886689,0.332902 -0.230846,0.215913 -0.379449,0.519799 -0.391287,0.860614l0.000141732 0 0 7.87402e-006 -0.000208661 0.00166535c-0.000224409,0.00674409 -0.00038189,0.0125787 -0.000464567,0.0175551 -0.000110236,0.00632283 -0.000181102,0.0121929 -0.000212598,0.0177047l-0.000291339 0.0505866 -0.0505433 0.00233071c-0.287614,0.0132598 -0.548209,0.13661 -0.738921,0.329972 -0.189268,0.191894 -0.309685,0.45265 -0.319394,0.74311 -0.0100827,0.301819 0.101181,0.579598 0.289902,0.786409 0.189114,0.20724 0.455996,0.343142 0.756433,0.360449l0.0504173 0.00290157 0 0.00223622 2.31328 0 0.00770866 0.000625984c0.024252,0.00357874 0.0471457,0.00635827 0.0685866,0.00829528l0 1.9685e-005c0.022378,0.00201181 0.0452795,0.00342913 0.068685,0.00420866 0.332547,0.0111102 0.638035,-0.113535 0.863091,-0.324035 0.225063,-0.210508 0.369827,-0.506921 0.380929,-0.839319 0.0111063,-0.332547 -0.113535,-0.638035 -0.324035,-0.863094z"/></g><rect class="fil1" height="6.82666" width="6.82666"/></svg>