<?xml version="1.0" ?><!DOCTYPE svg  PUBLIC '-//W3C//DTD SVG 1.1//EN'  'http://www.w3.org/Graphics/SVG/1.1/DTD/svg11.dtd'><svg height="6.82666in" style="shape-rendering:geometricPrecision; text-rendering:geometricPrecision; image-rendering:optimizeQuality; fill-rule:evenodd; clip-rule:evenodd" viewBox="0 0 6.82666 6.82666" width="6.82666in" xml:space="preserve" xmlns="http://www.w3.org/2000/svg" xmlns:xlink="http://www.w3.org/1999/xlink"><defs><style type="text/css">
   <![CDATA[
    .fil1 {fill:none}
    .fil0 {fill:#212121;fill-rule:nonzero}
   ]]>
  </style></defs><g id="Layer_x0020_1"><path class="fil0" d="M5.07542 1.90459c0.230071,0.230071 0.402795,0.483807 0.518165,0.761189 0.115378,0.277409 0.173071,0.577713 0.173071,0.900886 0,0.323173 -0.0576929,0.623472 -0.173071,0.900886 -0.11537,0.277386 -0.288094,0.53113 -0.518165,0.761213 -0.230071,0.230067 -0.483811,0.402795 -0.761193,0.518165 -0.277409,0.115378 -0.577709,0.173071 -0.900882,0.173071 -0.323177,0 -0.623476,-0.0576969 -0.900886,-0.173075 -0.277386,-0.115366 -0.531122,-0.288094 -0.761189,-0.518161 -0.230079,-0.230079 -0.402815,-0.483827 -0.518185,-0.761213 -0.115382,-0.277409 -0.173075,-0.577713 -0.173075,-0.900886 0,-0.26424 0.0400866,-0.515035 0.120283,-0.752378 0.080185,-0.237319 0.200295,-0.460484 0.360339,-0.66948 0.159831,-0.208831 0.341933,-0.383551 0.546256,-0.524122 0.17228,-0.118528 0.360197,-0.212657 0.563724,-0.282366 -0.00145669,-0.00128346 -0.00289764,-0.00258661 -0.00431496,-0.00390945 -0.0317126,-0.0295827 -0.052,-0.0670276 -0.0608425,-0.112331l-3.93701e-005 1.1811e-005c-0.00877165,-0.0346339 -0.00820472,-0.0690354 0.00170866,-0.103173 0.00944094,-0.0325197 0.0270748,-0.063626 0.0528858,-0.0932874l0.000102362 9.05512e-005c0.024878,-0.0287323 0.0540945,-0.0522008 0.0876693,-0.0704252l0 -0.000208661c0.031685,-0.0171929 0.0675118,-0.0295787 0.107488,-0.0371693 0.0152913,-0.00379134 0.0302126,-0.00662205 0.0447008,-0.00843307 0.0149094,-0.00186614 0.0298031,-0.0028189 0.044626,-0.0028189 0.0742126,0 0.134185,0.0149016 0.17987,0.0446969 0.0489449,0.0319252 0.0797795,0.0786969 0.0924882,0.140315 0.0122441,0.043185 0.00949213,0.0847165 -0.00821654,0.124571 -0.00148819,0.00335039 -0.00307874,0.00667323 -0.00477165,0.0099685 0.0182008,-0.00207874 0.0364843,-0.00390945 0.0548543,-0.00548425 0.0575354,-0.00493307 0.115732,-0.00740157 0.174524,-0.00740157 0.323169,0 0.623469,0.0576929 0.900874,0.173079 0.277386,0.115374 0.531126,0.288106 0.761201,0.518181zm0.419835 0.802024c-0.109831,-0.264067 -0.274921,-0.506276 -0.495252,-0.726606 -0.220339,-0.220339 -0.462551,-0.385433 -0.726618,-0.495268 -0.264035,-0.109823 -0.550724,-0.16474 -0.860039,-0.16474 -0.0562087,0 -0.111484,0.00233071 -0.165776,0.00698425 -0.0542913,0.00465354 -0.107807,0.0116417 -0.160488,0.0209488l-0.0266772 0.00471654 -0.0195709 -0.0190906c-0.00743701,-0.00725197 -0.0132913,-0.0152362 -0.0175906,-0.0238386l-0.000208661 0c-0.00538189,-0.0107913 -0.00802756,-0.0219803 -0.00802756,-0.0334606l0 -0.0270551 0.0220866 -0.0160709c0.027563,-0.0200512 0.0457677,-0.0399961 0.0545669,-0.0597992 0.00740157,-0.0166575 0.00817323,-0.0347874 0.00230315,-0.054378l-0.00125197 -0.00479134c-0.00667717,-0.033374 -0.0220709,-0.0579291 -0.0461575,-0.0736378 -0.0277953,-0.018126 -0.0684567,-0.0271929 -0.121957,-0.0271929 -0.0106378,0 -0.0212205,0.000673228 -0.0317126,0.00198425 -0.0112402,0.00140551 -0.0220079,0.00340157 -0.0322638,0.00594488l-0.00333465 0.000625984c-0.029126,0.00531102 -0.0553504,0.0142913 -0.0786693,0.0269449l-8.66142e-005 -0.000161417c-0.0222205,0.0120709 -0.0415866,0.0276535 -0.0581024,0.046748l0 0.000208661c-0.015878,0.0182441 -0.0262913,0.0358819 -0.0312244,0.0528701 -0.0044685,0.0153898 -0.00461811,0.0313189 -0.000456693,0.0477559l0.000625984 0.00354331c0.00423228,0.0234528 0.0140433,0.0423543 0.0294213,0.0566969 0.0170236,0.0158858 0.0416772,0.0275433 0.0739291,0.0349764l0.0414606 0.00956299 0 0.042311 0 0.0095748 0 0.0398819 -0.0385433 0.0111575c-0.237276,0.068689 -0.453402,0.170106 -0.648335,0.30422 -0.194992,0.134154 -0.369035,0.301232 -0.522091,0.501209 -0.153083,0.199909 -0.267776,0.412791 -0.344087,0.638646 -0.0763071,0.225831 -0.114449,0.465378 -0.114449,0.71863 0,0.309319 0.0549134,0.596008 0.164736,0.860051 0.109831,0.264067 0.274925,0.506283 0.495272,0.72663 0.220327,0.220327 0.462539,0.385421 0.726606,0.495248 0.264043,0.109819 0.550736,0.164736 0.860051,0.164736 0.309315,0 0.596004,-0.0549134 0.860047,-0.164732 0.264063,-0.109831 0.506276,-0.274921 0.72661,-0.495252 0.220335,-0.220346 0.385421,-0.462563 0.495252,-0.72663 0.109819,-0.264047 0.164732,-0.550732 0.164732,-0.860051 0,-0.309319 -0.0549134,-0.596008 -0.164732,-0.860051z"/><path class="fil0" d="M5.10417 3.56666c0,-0.0370709 -0.00155512,-0.0739449 -0.00462205,-0.110618 -0.00205118,-0.0245394 -0.00470472,-0.0487165 -0.00794488,-0.0725276l-0.344299 -0.0516378 -0.0195827 -0.0983346 0.29987 -0.179933c-0.0391142,-0.124539 -0.0909606,-0.241583 -0.155543,-0.35111 -0.071063,-0.12052 -0.157783,-0.231988 -0.260173,-0.334374l0.000102362 -0.000102362c-0.167484,-0.16428 -0.35098,-0.287425 -0.550457,-0.369378 -0.19926,-0.0818661 -0.415327,-0.122815 -0.648181,-0.122815 -0.0370866,0 -0.0739724,0.00154331 -0.110638,0.00460236 -0.0245276,0.00204724 -0.0486969,0.00470079 -0.0725079,0.00794488l-0.0516378 0.344343 -0.0983346 0.0195827 -0.179937 -0.299898c-0.124551,0.0390984 -0.241591,0.0909409 -0.351114,0.155528 -0.120516,0.0710709 -0.231976,0.157799 -0.33437,0.260193l-0.000102362 -0.000102362c-0.164374,0.167472 -0.287504,0.350953 -0.369437,0.550417 -0.0818504,0.199268 -0.122752,0.415346 -0.122752,0.64822 0,0.0371102 0.00149213,0.0739921 0.00452756,0.110634 0.00201969,0.0244173 0.00467323,0.0485866 0.0079685,0.0725l0.34437 0.0516496 0.0195827 0.0983346 -0.299949 0.17998c0.0389488,0.124307 0.0907756,0.241276 0.155417,0.350886 0.0711102,0.120583 0.157929,0.232106 0.260374,0.334551l-0.000102362 0.000102362c0.167476,0.164339 0.350949,0.287472 0.550409,0.369413 0.199272,0.0818622 0.41535,0.12278 0.648232,0.12278 0.0370906,0 0.0739724,-0.00150787 0.110618,-0.00455118 0.0244331,-0.0020315 0.0486102,-0.00468504 0.0725236,-0.00797244l0.0516417 -0.344343 0.0983346 -0.0195827 0.179976 0.299941c0.124331,-0.0389843 0.241327,-0.0908268 0.350969,-0.155488 0.120555,-0.0710984 0.232055,-0.157882 0.334472,-0.260299l0.000102362 0.000102362c0.164276,-0.167492 0.287417,-0.350984 0.369378,-0.550472 0.0818661,-0.199256 0.122815,-0.415315 0.122815,-0.648165zm0.10163 -0.119366c0.00334646,0.0399803 0.00503937,0.0797795 0.00503937,0.119366 0,0.246264 -0.0437323,0.475795 -0.131154,0.688583 -0.0873071,0.2125 -0.218051,0.407492 -0.392185,0.584953l-0.000208661 0.000417323c-0.108457,0.108457 -0.227039,0.200661 -0.355724,0.276551 -0.128087,0.0755394 -0.266394,0.13476 -0.414898,0.177614l-0.0391772 0.0113031 -0.0210315 -0.0350512 -0.124933 -0.208209 -0.0354764 0.236543 -0.00575984 0.038378 -0.0382008 0.00641339c-0.0404134,0.00677953 -0.0802087,0.0117835 -0.119386,0.0150354 -0.0400039,0.00332283 -0.0797992,0.0049685 -0.119366,0.0049685 -0.246295,0 -0.475846,-0.0436969 -0.68865,-0.131118 -0.212484,-0.0872874 -0.407453,-0.218024 -0.58489,-0.39222l-0.000417323 -0.000208661c-0.108484,-0.108484 -0.20072,-0.227091 -0.276626,-0.355803 -0.0755236,-0.128063 -0.134732,-0.266346 -0.177535,-0.414819l-0.0112953 -0.0391811 0.0350433 -0.0210276 0.208213 -0.124937 -0.236547 -0.0354764 -0.0383425 -0.00575197 -0.00644882 -0.0382087c-0.00681496,-0.040378 -0.011815,-0.0801693 -0.0150591,-0.119366 -0.00331496,-0.0400157 -0.00494488,-0.079811 -0.00494488,-0.119382 0,-0.24628 0.0436811,-0.475835 0.131091,-0.688638 0.0872795,-0.212488 0.218012,-0.407461 0.392244,-0.584898l0.000208661 -0.000417323c0.108437,-0.108437 0.22698,-0.200583 0.355622,-0.276445 0.12824,-0.075622 0.266508,-0.134862 0.414795,-0.17772l0.0393465 -0.0113701 0.0210709 0.0351181 0.124933 0.208224 0.0354764 -0.236559 0.00576378 -0.0384134 0.0384016 -0.00637795c0.0405709,-0.00673228 0.0802992,-0.0117362 0.119161,-0.0149843 0.0399921,-0.00333858 0.0797913,-0.00501969 0.119386,-0.00501969 0.246268,0 0.475807,0.0437283 0.688598,0.131154 0.2125,0.0873031 0.407484,0.218047 0.584937,0.392185l0.000417323 0.000208661c0.108437,0.108433 0.200575,0.226988 0.276425,0.355626 0.0756181,0.12824 0.134854,0.266508 0.17774,0.414787l0.011378 0.0393425 -0.035126 0.0210748 -0.208209 0.124933 0.236543 0.0354764 0.0384409 0.00576772 0.00635039 0.0383976c0.00670866,0.0405945 0.0117126,0.0803307 0.0149646,0.119181z"/><path class="fil0" d="M3.83916 3.32709l0 -0.00959843 0.0108346 -0.0320827 0.479189 -0.634587 -0.634587 0.479189 -0.0252362 0.0190591 -0.0287205 -0.0130197c-0.0323071,-0.0146378 -0.0661063,-0.026374 -0.101378,-0.035189 -0.035374,-0.00884252 -0.0722835,-0.0147598 -0.110709,-0.0177362l-0.0312205 -0.00241732 -0.0131575 -0.0284173 -0.145594 -0.314457 -0.0117126 0.351343 -0.00105512 0.0316614 -0.0283228 0.0141732c-0.0286772,0.0143543 -0.0554567,0.0310276 -0.0802913,0.0500157 -0.0244291,0.0186772 -0.0465709,0.0393661 -0.066374,0.0620591l-0.0235709 0.0270118 -0.0337205 -0.0115945 -0.098937 -0.0340118 0.0683307 0.0712953 0.025 0.0260866 -0.015 0.0328701c-0.0144882,0.0317559 -0.0252913,0.0634409 -0.0324606,0.0950512 -0.00698819,0.0308268 -0.0104567,0.0620591 -0.0104567,0.0937008l0 0.0339606 -0.0310433 0.014374 -0.314461 0.145594 0.351323 0.0117126 0.0516693 0.00172047 0 0.0514055 0 0.0095748 -0.0108346 0.0320827 -0.479197 0.634618 0.634618 -0.479201 0.0252165 -0.0190394 0.0289488 0.0132047c0.0317323,0.0144724 0.0654055,0.0261614 0.100988,0.0350551 0.0353386,0.00883071 0.072315,0.0147205 0.11089,0.0176457l0.0311969 0.00236614 0.0131811 0.0284685 0.145571 0.314441 0.0117126 -0.351307 0.00105118 -0.0316417 0.0283268 -0.0141929c0.0285197,-0.0142913 0.0552047,-0.0309134 0.0800079,-0.0498661 0.0244961,-0.0187126 0.0467323,-0.0394567 0.0666575,-0.0622283l0.0236181 -0.0269961 0.0336732 0.0115787 0.0989646 0.0340236 -0.0683346 -0.071311 -0.0250039 -0.0260945 0.0147992 -0.0326535c0.0145709,-0.0321575 0.0254449,-0.0638819 0.0325669,-0.0951811 0.00702362,-0.0308543 0.0105551,-0.0621063 0.0105551,-0.0937756l0 -0.0339646 0.0310433 -0.0143701 0.314441 -0.145571 -0.351327 -0.0117126 -0.0516693 -0.00172047 0 -0.0514055zm0.150524 -0.0499409l0.47948 0.0159843 0.020626 0.101461 -0.487634 0.225752c-0.00187795,0.0273583 -0.00598425,0.0548898 -0.0122913,0.0825945 -0.00627953,0.0275945 -0.014685,0.0549764 -0.0251929,0.0821535l0.196157 0.204701 -0.055626 0.0872913 -0.274177 -0.0942559c-0.0179488,0.0180354 -0.0370433,0.0347756 -0.0572677,0.0502244 -0.0214094,0.0163583 -0.0443307,0.0314252 -0.0687402,0.0452008l-0.0181457 0.544232 -0.101461 0.020626 -0.226689 -0.489657c-0.033374,-0.00383465 -0.0658189,-0.00969291 -0.0973189,-0.0175669 -0.0306181,-0.00765354 -0.0605197,-0.0173346 -0.089685,-0.0290276l-0.914626 0.690634 -0.0745827 -0.0745827 0.654449 -0.866709 -0.479441 -0.0159843 -0.020626 -0.101461 0.48763 -0.225772c0.00185827,-0.0272992 0.00591732,-0.0548031 0.0121969,-0.0825236 0.00621654,-0.0274134 0.0146457,-0.054815 0.0253071,-0.0822126l-0.196197 -0.204717 0.055626 -0.0872913 0.274146 0.094248c0.0178386,-0.0179409 0.0368504,-0.0346299 0.0570157,-0.0500472 0.0214646,-0.0164134 0.0444843,-0.0315315 0.0690276,-0.0453661l0.0181417 -0.544236 0.101461 -0.020626 0.226732 0.489705c0.0332874,0.00387402 0.0656654,0.00974803 0.0971181,0.0176102 0.0308661,0.00771654 0.0608386,0.0173661 0.0898937,0.028937l0.914598 -0.690634 0.0745827 0.0745827 -0.654488 0.866732z"/><polygon class="fil0" points="2.89187,3.78354 3.20813,3.37145 3.21813,3.36166 3.60871,3.06154 3.6733,3.14571 3.28878,3.44117 2.97646,3.84813 "/><polygon class="fil0" points="3.93169,3.35363 3.61543,3.76572 3.60543,3.77552 3.21485,4.07563 3.15027,3.99147 3.53479,3.696 3.84711,3.28905 "/></g><rect class="fil1" height="6.82666" width="6.82666"/></svg>