<?xml version="1.0" ?><!DOCTYPE svg  PUBLIC '-//W3C//DTD SVG 1.1//EN'  'http://www.w3.org/Graphics/SVG/1.1/DTD/svg11.dtd'><svg height="6.82666in" style="shape-rendering:geometricPrecision; text-rendering:geometricPrecision; image-rendering:optimizeQuality; fill-rule:evenodd; clip-rule:evenodd" viewBox="0 0 6.82666 6.82666" width="6.82666in" xml:space="preserve" xmlns="http://www.w3.org/2000/svg" xmlns:xlink="http://www.w3.org/1999/xlink"><defs><style type="text/css">
   <![CDATA[
    .fil1 {fill:none}
    .fil0 {fill:#212121;fill-rule:nonzero}
   ]]>
  </style></defs><g id="Layer_x0020_1"><polygon class="fil0" points="2.49092,4.10237 5.82094,4.10237 5.90973,4.10237 5.86782,4.18071 5.15015,5.52197 5.13499,5.5503 5.10328,5.5503 1.77325,5.5503 1.77325,5.44363 5.07157,5.44363 5.73216,4.20904 2.49092,4.20904 "/><path class="fil0" d="M2.57706 1.27636l1.60759 0 0.0929331 0 -0.0470984 0.0802087 -2.41777 4.11745 -0.0445512 0.0758701 -0.0464921 -0.0746181 -0.806878 -1.29508 -0.0168307 -0.0270197 0.0157913 -0.027563 1.61706 -2.82237 0.0154016 -0.026878 0.0308465 0zm1.51466 0.106669l-1.48381 0 -1.58586 2.76793 0.743551 1.19344 2.32612 -3.96137z"/><path class="fil0" d="M5.82062 4.15341l-1.59278 -2.76314 -1.52067 0 0 -0.106669 1.55122 0 0.0305433 0 0.0154961 0.026878 1.60827 2.79002 -0.0920787 0.0529134zm-2.34368 -1.54395l0.855299 1.53526 -0.0929134 0.0516693 -0.855299 -1.53526 0.0929134 -0.0516693z"/></g><rect class="fil1" height="6.82666" width="6.82666"/></svg>