<?xml version="1.0" ?><!DOCTYPE svg  PUBLIC '-//W3C//DTD SVG 1.1//EN'  'http://www.w3.org/Graphics/SVG/1.1/DTD/svg11.dtd'><svg height="6.82666in" style="shape-rendering:geometricPrecision; text-rendering:geometricPrecision; image-rendering:optimizeQuality; fill-rule:evenodd; clip-rule:evenodd" viewBox="0 0 6.82666 6.82666" width="6.82666in" xml:space="preserve" xmlns="http://www.w3.org/2000/svg" xmlns:xlink="http://www.w3.org/1999/xlink"><defs><style type="text/css">
   <![CDATA[
    .fil1 {fill:none}
    .fil0 {fill:#212121;fill-rule:nonzero}
   ]]>
  </style></defs><g id="Layer_x0020_1"><path class="fil0" d="M5.32065 5.73601l-0.224272 -0.690472 -0.0119606 -0.036815 0.0313386 -0.0227677 0.586917 -0.426496 -0.725594 0 -0.0386457 0 -0.0119803 -0.036878 -0.22435 -0.690488 -0.22422 0.690488 -0.0119764 0.036878 -0.0386496 0 -0.725787 0 0.586937 0.426496 0.0313307 0.0227638 -0.0119528 0.0368189 -0.224209 0.690472 0.587264 -0.426768 0.0312441 -0.0227087 0.031252 0.0227087 0.587315 0.426768zm-0.111063 -0.686575l0.262941 0.809524 -0.081874 0.0595827 -0.688567 -0.500339 -0.6885 0.500339 -0.081874 -0.0595827 0.262866 -0.80952 -0.688354 -0.500189 0.031248 -0.0964606 0.851134 0 0.262854 -0.809469 0.101252 0 0.263012 0.809469 0.850941 0 0.031248 0.0964606 -0.688327 0.500185z"/><path class="fil0" d="M3.98819 5.11652c-0.215618,-0.156567 -1.01984,-0.741075 -1.02229,-0.742854l0.031248 -0.0964606 1.26384 0c0.0862402,-0.265441 0.389665,-1.19968 0.39037,-1.20186l0.101252 -0.000208661c0.000933071,0.00287795 0.308236,0.948311 0.390685,1.20207l0.583551 0 -1.02476 -3.1537 -0.832713 2.56326 -0.0119843 0.036878 -0.0386417 0 -2.69558 0 2.68191 1.95668c0.0407795,-0.125453 0.081437,-0.250598 0.115539,-0.355638l0.0675748 -0.208165zm-0.827067 -0.732646c0.256551,0.186449 0.805555,0.585437 0.920831,0.669091l0.0312362 0.0226654 -0.0118583 0.0367087c-0.0228031,0.0705866 -0.0510472,0.157732 -0.0794646,0.24526 -0.0404252,0.124512 -0.090063,0.277268 -0.138189,0.425307l-0.0226535 0.0696693 -0.0592205 -0.0432087 -2.87306 -2.09614 0.031248 -0.096252 2.82011 0 0.87135 -2.6822 0.101252 0 1.09807 3.37931 0.0226772 0.0697913 -0.0733031 0 -0.6955 0 -0.0386496 0 -0.0119764 -0.036878c-0.0440669,-0.135669 -0.254035,-0.781669 -0.352043,-1.08321 -0.0991496,0.30539 -0.312693,0.963102 -0.351724,1.08321l-0.0119882 0.036878 -0.0386378 0 -1.13851 0z"/></g><rect class="fil1" height="6.82666" width="6.82666"/></svg>