<?xml version="1.0" ?><!DOCTYPE svg  PUBLIC '-//W3C//DTD SVG 1.1//EN'  'http://www.w3.org/Graphics/SVG/1.1/DTD/svg11.dtd'><svg height="6.82666in" style="shape-rendering:geometricPrecision; text-rendering:geometricPrecision; image-rendering:optimizeQuality; fill-rule:evenodd; clip-rule:evenodd" viewBox="0 0 6.82666 6.82666" width="6.82666in" xml:space="preserve" xmlns="http://www.w3.org/2000/svg" xmlns:xlink="http://www.w3.org/1999/xlink"><defs><style type="text/css">
   <![CDATA[
    .fil1 {fill:none}
    .fil0 {fill:#212121;fill-rule:nonzero}
   ]]>
  </style></defs><g id="Layer_x0020_1"><path class="fil0" d="M2.90233 1.3682c0,0.127429 -0.0516614,0.242827 -0.135185,0.326362 -0.0835039,0.0835236 -0.198878,0.135197 -0.326307,0.135197 -0.127453,0 -0.242854,-0.0516772 -0.326382,-0.135201 -0.0835394,-0.0835276 -0.135217,-0.198925 -0.135217,-0.326358 0,-0.127421 0.0516772,-0.242823 0.135217,-0.32635 0.0835315,-0.0835236 0.198929,-0.135197 0.326382,-0.135197 0.127429,0 0.242795,0.0516732 0.326307,0.135197 0.0835197,0.0835315 0.135185,0.198929 0.135185,0.32635zm-0.210602 0.250945c0.0642126,-0.0642205 0.103933,-0.152957 0.103933,-0.250945 0,-0.0979843 -0.0397244,-0.186717 -0.103933,-0.250933 -0.0642047,-0.0642165 -0.152909,-0.103945 -0.25089,-0.103945 -0.0980118,0 -0.18674,0.0397283 -0.250965,0.103945 -0.0642283,0.0642205 -0.103965,0.152953 -0.103965,0.250933 0,0.0979882 0.0397362,0.18672 0.103965,0.250941 0.0642205,0.0642165 0.152957,0.103949 0.250965,0.103949 0.0979764,0 0.186685,-0.0397283 0.25089,-0.103945z"/><path class="fil0" d="M4.84742 1.3682c0,0.127437 -0.0516693,0.242839 -0.135197,0.326366 -0.0835157,0.0835197 -0.198902,0.135193 -0.32635,0.135193 -0.127449,0 -0.242839,-0.0516732 -0.326358,-0.135193 -0.0835354,-0.0835354 -0.135201,-0.198933 -0.135201,-0.326366 0,-0.127425 0.0516654,-0.242823 0.135201,-0.326358 0.0835197,-0.0835157 0.198909,-0.135189 0.326358,-0.135189 0.127449,0 0.242831,0.0516732 0.32635,0.135189 0.0835276,0.0835276 0.135197,0.198933 0.135197,0.326358zm-0.210614 0.250949c0.0642205,-0.0642205 0.103945,-0.152957 0.103945,-0.250949 0,-0.0979882 -0.0397244,-0.18672 -0.103945,-0.250941 -0.0642126,-0.0642087 -0.152929,-0.103937 -0.250933,-0.103937 -0.0980039,0 -0.186728,0.0397283 -0.250941,0.103937 -0.0642244,0.0642244 -0.103949,0.152957 -0.103949,0.250941 0,0.0979882 0.0397244,0.186724 0.103949,0.250949 0.0642126,0.0642126 0.152937,0.103941 0.250941,0.103941 0.0980039,0 0.186724,-0.0397283 0.250933,-0.103941z"/><path class="fil0" d="M2.13743 2.13471c0.0033937,0.00408661 1.17069,1.44206 2.52186,-0.00229134l0.091874 0.0347913c0.000228346,0.0078937 0.0801339,2.74184 0,3.67183l-0.00364173 0.0422165 -0.0419843 0.00611811c-0.00144488,0.000208661 -0.503173,0.0742047 -0.67752,-0.00416929l-0.0309016 -0.0138937 -0.000559055 -0.033811c-6.69291e-005,-0.00393701 -0.022937,-1.32983 0.013311,-2.54071 -0.183929,0.0784134 -0.65748,0.22811 -1.21041,-0.00314173 0.00577953,0.365976 0.0266299,1.844 -0.00136614,2.53706l-0.00178346 0.0441693 -0.0436339 0.00645669c-0.00124803,0.000181102 -0.434449,0.0655748 -0.668996,0.00700394l-0.0396969 -0.00991339 -0.000511811 -0.041126c-9.05512e-005,-0.00729134 -0.0320276,-2.53086 0,-3.66808l0.0939606 -0.0325zm2.51092 0.160705c-1.17104,1.15694 -2.19845,0.311579 -2.5019,0.00577953 -0.0243465,1.09462 -0.00109843,3.16777 0.00274409,3.49005 0.175028,0.030063 0.440587,0.00179528 0.544331,-0.0113898 0.0291181,-0.813031 -0.00160236,-2.56473 -0.00168898,-2.56988l-0.00147638 -0.0857992 0.0775197 0.0370472c0.695098,0.332217 1.27011,0.0023937 1.27178,0.00146063l0.0822283 -0.0460315 -0.00305906 0.0941535c-0.0362441,1.11535 -0.0200433,2.35805 -0.0166063,2.58606 0.138819,0.0374724 0.436075,0.00485039 0.546142,-0.00920472 0.0645236,-0.840642 0.0141772,-2.95588 -1.5748e-005,-3.49224z"/></g><rect class="fil1" height="6.82666" width="6.82666"/></svg>