<?xml version="1.0" ?><!DOCTYPE svg  PUBLIC '-//W3C//DTD SVG 1.1//EN'  'http://www.w3.org/Graphics/SVG/1.1/DTD/svg11.dtd'><svg height="6.82666in" style="shape-rendering:geometricPrecision; text-rendering:geometricPrecision; image-rendering:optimizeQuality; fill-rule:evenodd; clip-rule:evenodd" viewBox="0 0 6.82666 6.82666" width="6.82666in" xml:space="preserve" xmlns="http://www.w3.org/2000/svg" xmlns:xlink="http://www.w3.org/1999/xlink"><defs><style type="text/css">
   <![CDATA[
    .fil1 {fill:none}
    .fil0 {fill:#212121;fill-rule:nonzero}
   ]]>
  </style></defs><g id="Layer_x0020_1"><g id="_423670592"><path class="fil0" d="M3.41333 0.906661c0.652189,0 1.24253,0.281051 1.66974,0.735445 0.426417,0.453547 0.690165,1.0798 0.690165,1.77122 0,0.691425 -0.263748,1.31768 -0.690165,1.77122 -0.427209,0.454394 -1.01755,0.735445 -1.66974,0.735445 -0.652189,0 -1.24253,-0.281051 -1.66974,-0.735445 -0.426417,-0.453547 -0.690165,-1.0798 -0.690165,-1.77122 0,-0.691425 0.263748,-1.31768 0.690165,-1.77122 0.427209,-0.454394 1.01755,-0.735445 1.66974,-0.735445zm1.59224 0.808358c-0.407598,-0.433539 -0.970555,-0.701689 -1.59224,-0.701689 -0.621685,0 -1.18464,0.26815 -1.59224,0.701689 -0.40839,0.434374 -0.660992,1.03481 -0.660992,1.69831 0,0.663504 0.252602,1.26394 0.660992,1.69831 0.407598,0.433539 0.970555,0.701689 1.59224,0.701689 0.621685,0 1.18464,-0.26815 1.59224,-0.701689 0.40839,-0.434374 0.660992,-1.03481 0.660992,-1.69831 0,-0.663504 -0.252602,-1.26394 -0.660992,-1.69831z" id="_423670784"/><path class="fil0" d="M3.41083 1.42951c0.0126142,-0.000637795 0.0231969,-0.000952756 0.0318268,-0.000952756 0.291512,0 0.516268,0.201055 0.673043,0.523874 0.150846,0.310614 0.239047,0.736823 0.26261,1.20279 0.00438976,0.0867559 0.00659055,0.172957 0.00659055,0.258114 0,0.085626 -0.00243701,0.171961 -0.00723228,0.258484 -0.0258346,0.466063 -0.121646,0.893193 -0.275744,1.20461 -0.160024,0.323402 -0.38387,0.525134 -0.660154,0.525134 -0.00884646,0 -0.0193031,-0.000334646 -0.0313583,-0.001 -0.298807,-0.016563 -0.538626,-0.238311 -0.704768,-0.588272 -0.17013,-0.35835 -0.263886,-0.853972 -0.263886,-1.39896 0,-0.552528 0.0868701,-1.05367 0.257524,-1.41249 0.162043,-0.340709 0.399835,-0.555571 0.711547,-0.571335zm0.0318268 0.105717c-0.0107638,0 -0.0197402,0.000177165 -0.0268268,0.000535433 -0.267547,0.0135315 -0.475272,0.205571 -0.620295,0.5105 -0.163752,0.344303 -0.247106,0.829461 -0.247106,1.36707 0,0.529819 0.0900551,1.00934 0.253469,1.35354 0.149252,0.314386 0.35876,0.513272 0.61435,0.527437 0.00702362,0.000385827 0.0155354,0.000582677 0.0255236,0.000582677 0.230776,0 0.42287,-0.178843 0.564736,-0.465551 0.147795,-0.298685 0.23985,-0.711236 0.264909,-1.16336 0.00451575,-0.0815276 0.00681496,-0.16589 0.00681496,-0.25265 0,-0.0873189 -0.00206299,-0.17185 -0.00617323,-0.253114 -0.0228583,-0.452028 -0.107575,-0.863748 -0.252193,-1.16154 -0.138697,-0.285591 -0.332,-0.463457 -0.577209,-0.463457z" id="_423671216"/></g></g><rect class="fil1" height="6.82666" width="6.82666"/></svg>