<?xml version="1.0" ?><!DOCTYPE svg  PUBLIC '-//W3C//DTD SVG 1.1//EN'  'http://www.w3.org/Graphics/SVG/1.1/DTD/svg11.dtd'><svg height="6.82666in" style="shape-rendering:geometricPrecision; text-rendering:geometricPrecision; image-rendering:optimizeQuality; fill-rule:evenodd; clip-rule:evenodd" viewBox="0 0 6.82666 6.82666" width="6.82666in" xml:space="preserve" xmlns="http://www.w3.org/2000/svg" xmlns:xlink="http://www.w3.org/1999/xlink"><defs><style type="text/css">
   <![CDATA[
    .fil1 {fill:none}
    .fil0 {fill:#212121;fill-rule:nonzero}
   ]]>
  </style></defs><g id="Layer_x0020_1"><path class="fil0" d="M5.41006 3.162c0.0123346,0.0988189 0.0099252,0.19952 -0.0085315,0.297205 -0.017752,0.093937 -0.0503543,0.184807 -0.0989488,0.26826 -0.0556299,0.0956417 -0.124445,0.171622 -0.203244,0.223693 -0.079126,0.0522874 -0.167732,0.0804843 -0.262728,0.0804843 -0.220472,0 -0.300323,-0.150909 -0.43437,-0.404287 -0.100886,-0.190697 -0.235264,-0.444685 -0.492421,-0.73685 -0.463031,-0.525787 -1.05425,-0.648346 -1.25337,-0.67552 0.0174173,0.108575 0.0448583,0.344677 0.0448583,0.754827 0,0.289102 -0.100744,0.545854 -0.24389,0.737622 -0.166748,0.22339 -0.393232,0.359992 -0.588949,0.359992 -0.0450984,0 -0.0880236,-0.00919291 -0.12863,-0.0255 -0.0427441,-0.0171654 -0.0825551,-0.0423386 -0.119339,-0.0729409 -0.0599331,-0.0497874 -0.106528,-0.111547 -0.139827,-0.180012 -0.0347795,-0.0715118 -0.055126,-0.150457 -0.061063,-0.230689 -0.00159843,-0.0220118 -0.00288976,-0.0460551 -0.00385039,-0.0721535 -0.001,-0.0272874 -0.00151969,-0.0516378 -0.00151969,-0.0728622 0,-0.553976 0.22452,-1.0555 0.587528,-1.41851 0.363004,-0.363012 0.864508,-0.587535 1.41848,-0.587535 0.508114,0 0.972071,0.189047 1.32546,0.500654 0.357693,0.315402 0.602091,0.756429 0.664358,1.25412zm-0.113114 0.277622c0.016311,-0.0863189 0.0183504,-0.176031 0.00727953,-0.264709 -0.0589252,-0.470992 -0.290299,-0.888433 -0.628941,-1.18704 -0.334559,-0.295008 -0.773862,-0.473984 -1.25504,-0.473984 -0.524528,0 -0.999366,0.212579 -1.34306,0.556283 -0.343701,0.343705 -0.556276,0.818559 -0.556276,1.34309 0,0.0263346 0.000377953,0.0493189 0.00110236,0.0691142 0.000771654,0.0209882 0.00206693,0.0438189 0.00385039,0.0684055 0.00495669,0.067 0.0218346,0.132693 0.0506457,0.191933 0.0269252,0.0553543 0.0642323,0.104996 0.111906,0.144594 0.0283976,0.023626 0.0587953,0.0429252 0.0910079,0.0558622 0.0279921,0.0112402 0.0577008,0.0175787 0.0890472,0.0175787 0.163091,0 0.356665,-0.120315 0.503531,-0.317071 0.130673,-0.175059 0.222638,-0.409594 0.222638,-0.673874 0,-0.587228 -0.0553976,-0.801787 -0.0555551,-0.802417l-0.0178661 -0.0706181 0.0728661 0.0045748c0.00231496,0.000141732 0.801638,0.0441142 1.39574,0.718736 0.265035,0.301114 0.403004,0.56189 0.506587,0.757685 0.115118,0.217598 0.183689,0.347201 0.340205,0.347201 0.0736772,0 0.142476,-0.0219173 0.20398,-0.062563 0.0650827,-0.0430079 0.122618,-0.106961 0.169913,-0.188276 0.0424252,-0.0728583 0.0709094,-0.152303 0.0864449,-0.234512zm-1.88364 2.48037c-0.692157,0 -1.31879,-0.280591 -1.77238,-0.734213 -0.453606,-0.453642 -0.734173,-1.08034 -0.734173,-1.77252 0,-0.692185 0.280555,-1.31884 0.734146,-1.77244 0.453594,-0.453602 1.08024,-0.734165 1.77241,-0.734165 0.692193,0 1.31885,0.280559 1.77244,0.734157 0.453598,0.453598 0.734157,1.08026 0.734157,1.77244 0,0.692185 -0.280571,1.31888 -0.734185,1.77252 -0.453598,0.453618 -1.08024,0.734209 -1.77242,0.734209zm-1.69696 -0.80963c0.434283,0.434315 1.03426,0.702961 1.69696,0.702961 0.662728,0 1.26271,-0.268646 1.697,-0.702957 0.434307,-0.434331 0.702933,-1.03436 0.702933,-1.6971 0,-0.662744 -0.268614,-1.26274 -0.702906,-1.69703 -0.434291,-0.434291 -1.03428,-0.702906 -1.69703,-0.702906 -0.662724,0 -1.2627,0.268618 -1.69699,0.702913 -0.434283,0.434291 -0.702894,1.03428 -0.702894,1.69702 0,0.662736 0.268622,1.26277 0.702921,1.6971z"/></g><rect class="fil1" height="6.82666" width="6.82666"/></svg>