<?xml version="1.0" ?><!DOCTYPE svg  PUBLIC '-//W3C//DTD SVG 1.1//EN'  'http://www.w3.org/Graphics/SVG/1.1/DTD/svg11.dtd'><svg height="6.82666in" style="shape-rendering:geometricPrecision; text-rendering:geometricPrecision; image-rendering:optimizeQuality; fill-rule:evenodd; clip-rule:evenodd" viewBox="0 0 6.82666 6.82666" width="6.82666in" xml:space="preserve" xmlns="http://www.w3.org/2000/svg" xmlns:xlink="http://www.w3.org/1999/xlink"><defs><style type="text/css">
   <![CDATA[
    .fil1 {fill:none}
    .fil0 {fill:#212121;fill-rule:nonzero}
   ]]>
  </style></defs><g id="Layer_x0020_1"><path class="fil0" d="M1.23824 3.93472l-0.320579 -1.0125 -2.75591e-005 7.87402e-006c-0.00888976,-0.0280787 0.00666929,-0.0580551 0.034748,-0.0669449 0.00574409,-0.0018189 0.0115669,-0.00261417 0.0172717,-0.00248819l0.259681 0c0.0252598,0 0.0464213,0.0175669 0.0519331,0.0411535l0.136047 0.475803 0.125429 -0.47715 -0.00011811 -3.14961e-005c0.00635827,-0.0241811 0.0283425,-0.0400984 0.0522638,-0.0397756l0.258209 0c0.0255866,0 0.0469646,0.0180236 0.0521378,0.042063l0.120681 0.474122 0.139382 -0.477642 0.0510394 0.0147913 -0.0511969 -0.0149409c0.00687402,-0.0235591 0.0285866,-0.0387559 0.0519961,-0.0383937l0.263638 0c0.0294528,0 0.0533346,0.0238819 0.0533346,0.0533346 0,0.00720866 -0.00143307,0.0140827 -0.00402756,0.0203543l-0.324421 1.01029 -0.050626 -0.016248 0.0507795 0.0163071c-0.00737008,0.0229488 -0.0288228,0.0374488 -0.0517441,0.0370276l-0.256953 0c-0.0257126,0 -0.0471772,-0.0182008 -0.0522165,-0.0424173l-0.122146 -0.456 -0.120787 0.458626 -0.0514567 -0.0135433 0.0515748 0.0135827c-0.00638583,0.024252 -0.0284961,0.040185 -0.0525039,0.039752l-0.259925 0c-0.0245354,0 -0.0452008,-0.0165787 -0.0514173,-0.0391378zm-0.196961 -0.975256l0.287406 0.907724 0.18085 0 0.160394 -0.609024c0.00369685,-0.0194921 0.0181732,-0.0361378 0.0386181,-0.0416142 0.0284488,-0.00761811 0.0576969,0.00926772 0.065315,0.0377165l-0.0515157 0.0137992 0.0514567 -0.013748 0.164169 0.61287 0.178346 0 0.291488 -0.907724 -0.151677 0 -0.181488 0.621933c-0.00390157,0.0195039 -0.0185945,0.0360354 -0.0391575,0.0412677 -0.0285433,0.00726378 -0.0575787,-0.00998425 -0.0648425,-0.0385276l0.051685 -0.0131575 -0.0516654 0.013126 -0.158992 -0.624642 -0.176469 0 -0.163354 0.621413c-0.0036378,0.0191772 -0.0177047,0.0356535 -0.037752,0.0413819 -0.0283189,0.00809449 -0.0578465,-0.00829921 -0.0659409,-0.0366181l0.0512795 -0.0146614 -0.051248 0.0145827 -0.17902 -0.626098 -0.147886 0zm1.8899 0.975256l-0.320579 -1.0125 -2.75591e-005 7.87402e-006c-0.00888976,-0.0280787 0.00666929,-0.0580551 0.034748,-0.0669449 0.00574409,-0.0018189 0.0115669,-0.00261417 0.0172717,-0.00248819l0.259681 0c0.0252598,0 0.0464213,0.0175669 0.0519331,0.0411535l0.136047 0.475803 0.125429 -0.47715 -0.00011811 -3.14961e-005c0.00635827,-0.0241811 0.0283425,-0.0400984 0.0522638,-0.0397756l0.258209 0c0.0255866,0 0.0469646,0.0180236 0.0521378,0.042063l0.120681 0.474122 0.139382 -0.477642 0.0510394 0.0147913 -0.0511969 -0.0149409c0.00687402,-0.0235591 0.0285866,-0.0387559 0.0519961,-0.0383937l0.263638 0c0.0294528,0 0.0533346,0.0238819 0.0533346,0.0533346 0,0.00720866 -0.00143307,0.0140827 -0.00402756,0.0203543l-0.324421 1.01029 -0.050626 -0.016248 0.0507795 0.0163071c-0.00737008,0.0229488 -0.0288228,0.0374488 -0.0517441,0.0370276l-0.256953 0c-0.0257126,0 -0.0471772,-0.0182008 -0.0522165,-0.0424173l-0.122146 -0.456 -0.120787 0.458626 -0.0514567 -0.0135433 0.0515748 0.0135827c-0.00638583,0.024252 -0.0284961,0.040185 -0.0525039,0.039752l-0.259925 0c-0.0245354,0 -0.0452008,-0.0165787 -0.0514173,-0.0391378zm-0.196961 -0.975256l0.287406 0.907724 0.18085 0 0.160394 -0.609024c0.00369685,-0.0194921 0.0181732,-0.0361378 0.0386181,-0.0416142 0.0284488,-0.00761811 0.0576969,0.00926772 0.065315,0.0377165l-0.0515157 0.0137992 0.0514567 -0.013748 0.164169 0.61287 0.178346 0 0.291488 -0.907724 -0.151677 0 -0.181488 0.621933c-0.00390157,0.0195039 -0.0185945,0.0360354 -0.0391575,0.0412677 -0.0285433,0.00726378 -0.0575787,-0.00998425 -0.0648425,-0.0385276l0.051685 -0.0131575 -0.0516654 0.013126 -0.158992 -0.624642 -0.176469 0 -0.163354 0.621413c-0.0036378,0.0191772 -0.0177047,0.0356535 -0.037752,0.0413819 -0.0283189,0.00809449 -0.0578465,-0.00829921 -0.0659409,-0.0366181l0.0512795 -0.0146614 -0.051248 0.0145827 -0.17902 -0.626098 -0.147886 0zm1.8899 0.975256l-0.320579 -1.0125 -2.75591e-005 7.87402e-006c-0.00888976,-0.0280787 0.00666929,-0.0580551 0.034748,-0.0669449 0.00574409,-0.0018189 0.0115669,-0.00261417 0.0172717,-0.00248819l0.259681 0c0.0252598,0 0.0464213,0.0175669 0.0519331,0.0411535l0.136047 0.475803 0.125429 -0.47715 -0.00011811 -3.14961e-005c0.00635827,-0.0241811 0.0283425,-0.0400984 0.0522638,-0.0397756l0.258209 0c0.0255866,0 0.0469646,0.0180236 0.0521378,0.042063l0.120681 0.474122 0.139382 -0.477642 0.0510394 0.0147913 -0.0511969 -0.0149409c0.00687402,-0.0235591 0.0285866,-0.0387559 0.0519961,-0.0383937l0.263638 0c0.0294528,0 0.0533346,0.0238819 0.0533346,0.0533346 0,0.00720866 -0.00143307,0.0140827 -0.00402756,0.0203543l-0.324421 1.01029 -0.050626 -0.016248 0.0507795 0.0163071c-0.00737008,0.0229488 -0.0288228,0.0374488 -0.0517441,0.0370276l-0.256953 0c-0.0257126,0 -0.0471772,-0.0182008 -0.0522165,-0.0424173l-0.122146 -0.456 -0.120787 0.458626 -0.0514567 -0.0135433 0.0515748 0.0135827c-0.00638583,0.024252 -0.0284921,0.040185 -0.0525,0.039752l-0.259929 0c-0.0245354,0 -0.0452008,-0.0165787 -0.0514173,-0.0391378zm-0.196961 -0.975256l0.287406 0.907724 0.18085 0 0.160394 -0.609024c0.00369685,-0.0194921 0.0181732,-0.0361378 0.0386181,-0.0416142 0.0284488,-0.00761811 0.0576969,0.00926772 0.065315,0.0377165l-0.0515157 0.0137992 0.0514567 -0.013748 0.164169 0.61287 0.178346 0 0.291488 -0.907724 -0.151677 0 -0.181488 0.621933c-0.00390157,0.0195039 -0.0185945,0.0360354 -0.0391575,0.0412677 -0.0285433,0.00726378 -0.0575787,-0.00998425 -0.0648425,-0.0385276l0.051685 -0.0131575 -0.0516654 0.013126 -0.158992 -0.624642 -0.176469 0 -0.163354 0.621413c-0.0036378,0.0191772 -0.0177047,0.0356535 -0.037752,0.0413819 -0.0283189,0.00809449 -0.0578465,-0.00829921 -0.0659409,-0.0366181l0.0512795 -0.0146614 -0.051248 0.0145827 -0.17902 -0.626098 -0.147886 0z"/></g><rect class="fil1" height="6.82666" width="6.82666"/></svg>