<?xml version="1.0" ?><!DOCTYPE svg  PUBLIC '-//W3C//DTD SVG 1.1//EN'  'http://www.w3.org/Graphics/SVG/1.1/DTD/svg11.dtd'><svg height="6.82666in" style="shape-rendering:geometricPrecision; text-rendering:geometricPrecision; image-rendering:optimizeQuality; fill-rule:evenodd; clip-rule:evenodd" viewBox="0 0 6.82666 6.82666" width="6.82666in" xml:space="preserve" xmlns="http://www.w3.org/2000/svg" xmlns:xlink="http://www.w3.org/1999/xlink"><defs><style type="text/css">
   <![CDATA[
    .fil1 {fill:none}
    .fil0 {fill:#212121;fill-rule:nonzero}
   ]]>
  </style></defs><g id="Layer_x0020_1"><g id="_264860944"><path class="fil0" d="M3.41333 0.906665c0.692193,0 1.31886,0.280575 1.77248,0.734189 0.453614,0.453614 0.734189,1.08028 0.734189,1.77248 0,0.692193 -0.280575,1.31886 -0.734189,1.77248 -0.453614,0.453614 -1.08028,0.734189 -1.77248,0.734189 -0.692193,0 -1.31886,-0.280575 -1.77248,-0.734189 -0.453614,-0.453614 -0.734189,-1.08028 -0.734189,-1.77248 0,-0.692193 0.280575,-1.31886 0.734189,-1.77248 0.453614,-0.453614 1.08028,-0.734189 1.77248,-0.734189zm1.69706 0.809606c-0.434307,-0.434307 -1.03431,-0.702937 -1.69706,-0.702937 -0.662748,0 -1.26275,0.26863 -1.69706,0.702937 -0.434307,0.434307 -0.702937,1.03431 -0.702937,1.69706 0,0.662748 0.26863,1.26275 0.702937,1.69706 0.434307,0.434307 1.03431,0.702937 1.69706,0.702937 0.662748,0 1.26275,-0.26863 1.69706,-0.702937 0.434307,-0.434307 0.702937,-1.03431 0.702937,-1.69706 0,-0.662748 -0.26863,-1.26275 -0.702937,-1.69706z" id="_423177712"/><path class="fil0" d="M3.41333 1.65333c0.486004,0 0.926012,0.197 1.24451,0.515496 0.318496,0.318496 0.515496,0.758504 0.515496,1.24451 0,0.486004 -0.197,0.926012 -0.515496,1.24451 -0.318496,0.318496 -0.758504,0.515496 -1.24451,0.515496 -0.486004,0 -0.926012,-0.197 -1.24451,-0.515496 -0.318496,-0.318496 -0.515496,-0.758504 -0.515496,-1.24451 0,-0.486004 0.197,-0.926012 0.515496,-1.24451 0.318496,-0.318496 0.758504,-0.515496 1.24451,-0.515496zm1.16909 0.590913c-0.299189,-0.299189 -0.712531,-0.484244 -1.16909,-0.484244 -0.456559,0 -0.869902,0.185055 -1.16909,0.484244 -0.299189,0.299189 -0.484244,0.712531 -0.484244,1.16909 0,0.456559 0.185055,0.869902 0.484244,1.16909 0.299189,0.299189 0.712531,0.484244 1.16909,0.484244 0.456559,0 0.869902,-0.185055 1.16909,-0.484244 0.299189,-0.299189 0.484244,-0.712531 0.484244,-1.16909 0,-0.456559 -0.185055,-0.869902 -0.484244,-1.16909z" id="_267890272"/></g></g><rect class="fil1" height="6.82666" width="6.82666"/></svg>