<?xml version="1.0" ?><!DOCTYPE svg  PUBLIC '-//W3C//DTD SVG 1.1//EN'  'http://www.w3.org/Graphics/SVG/1.1/DTD/svg11.dtd'><svg height="6.82666in" style="shape-rendering:geometricPrecision; text-rendering:geometricPrecision; image-rendering:optimizeQuality; fill-rule:evenodd; clip-rule:evenodd" viewBox="0 0 6.82666 6.82666" width="6.82666in" xml:space="preserve" xmlns="http://www.w3.org/2000/svg" xmlns:xlink="http://www.w3.org/1999/xlink"><defs><style type="text/css">
   <![CDATA[
    .fil1 {fill:none}
    .fil0 {fill:#212121;fill-rule:nonzero}
   ]]>
  </style></defs><g id="Layer_x0020_1"><path class="fil0" d="M4.80325 1.00376c0.0375394,-0.0400669 0.0832717,-0.075315 0.138339,-0.0899291 0.0703583,-0.0186693 0.150622,-0.00377165 0.238933,0.0760276 0.073563,0.0664606 0.142185,0.128587 0.188382,0.180185 0.0653386,0.0729843 0.0905,0.134984 0.0429803,0.180807 -0.0478701,0.0462835 -0.113091,0.019685 -0.165425,-0.00753937 -0.00735039,0.00559055 -0.0134134,0.0117205 -0.0184331,0.0185669 -0.0101614,0.0138543 -0.0174803,0.0322047 -0.0235315,0.0560709 -0.00794094,0.0317126 -0.0167953,0.0659921 -0.0288425,0.0963465 -0.00815354,0.0205472 -0.0179646,0.0387992 -0.0300945,0.0531378 0.0141378,0.089878 0.0169449,0.206811 0.00972835,0.314618 -0.00744882,0.111374 -0.0260984,0.215665 -0.0546417,0.275433l-0.000704724 0.156406c0.0868701,0.165059 0.157252,0.469299 0.169063,0.769165 0.00977559,0.248134 -0.020378,0.495874 -0.113906,0.664811 -0.00135827,0.0782756 -0.0121063,0.467559 -0.0928465,0.658772 -0.0100236,0.0446732 -0.0877165,0.399996 -0.0715276,0.612622 0.0301457,0.0155433 0.0685945,0.0380394 0.101299,0.0608228 0.0370748,0.0258228 0.0695276,0.0542835 0.0827874,0.0794803 0.0119843,0.0227008 0.0208937,0.0504055 0.0262913,0.0754528 0.00701181,0.0325315 0.00794882,0.0651024 0.00241339,0.0823189l-0.00416929 0.00958661c-0.00323228,0.00578346 -0.0064252,0.0107756 -0.00956299,0.0149803 -0.0421102,0.0563898 -0.136594,0.0862126 -0.240043,0.0887874 -0.0967087,0.00240551 -0.204843,-0.0181142 -0.283764,-0.0622205 -0.0133622,-0.0074685 -0.0254882,-0.0152087 -0.0361417,-0.0231614l-0.018752 -0.026252c-0.0197008,-0.0602362 -0.0123976,-0.196583 -0.00435433,-0.346819 0.0065315,-0.121945 0.0135787,-0.253508 0.00720079,-0.352224 -0.010063,-0.158878 -0.0240945,-0.247142 -0.0476732,-0.395492 -0.00713386,-0.0448858 -0.0150551,-0.0946969 -0.0228189,-0.145248 -0.0786378,0.0156339 -0.161126,0.0258268 -0.246232,0.0305315 -0.0903701,0.00499606 -0.183559,0.00372441 -0.278063,-0.00384646 -0.0109016,0.0458976 -0.0234724,0.0971417 -0.036437,0.150008 -0.0535945,0.218496 -0.11428,0.465894 -0.124402,0.626831l-1.1811e-005 0c-0.00946063,0.152913 -0.0220866,0.575 -0.0234882,0.622469 0.0018622,0.0184016 0.0103307,0.0370551 0.0178858,0.0537126 0.0082874,0.0182756 0.0158504,0.0349449 0.0191732,0.0554803l0.000208661 0.00125197c0.00291732,0.0214606 0.0066063,0.0494173 0.0081063,0.0770512 0.00170472,0.0314173 0.000385827,0.062748 -0.00796063,0.0865591l-0.00312598 0.00729134c-0.0240512,0.0455472 -0.0648976,0.0786102 -0.114291,0.100406 -0.0550709,0.0242992 -0.12185,0.0346417 -0.186543,0.0325157 -0.0649528,-0.0021378 -0.128957,-0.0169291 -0.178055,-0.0428543 -0.0410984,-0.0217047 -0.0730748,-0.0515551 -0.0896614,-0.0891457l-0.00437795 -0.016874c-0.00188583,-0.0216299 0.00101969,-0.0606693 0.00742126,-0.0956102 0.00551969,-0.030122 0.0144449,-0.0595197 0.0265827,-0.0777992 0.0125354,-0.020685 0.0339409,-0.0408307 0.0565748,-0.0621299 0.0192638,-0.0181299 0.0397244,-0.0373937 0.0479882,-0.0497205 0.0105394,-0.0955354 0.0210591,-0.319213 0.0202441,-0.515902 -0.000570866,-0.138579 -0.00644094,-0.262343 -0.021374,-0.31402 -0.0318898,-0.0631496 -0.0586417,-0.169894 -0.0791654,-0.29585 -0.0213346,-0.130945 -0.0364567,-0.284606 -0.0438465,-0.431551 -0.0327087,-0.0168543 -0.0842598,-0.0450866 -0.144496,-0.0797677 -0.047185,-0.0271732 -0.0999094,-0.0584173 -0.153169,-0.0912874 -0.0476378,0.118252 -0.115657,0.196173 -0.151827,0.232004l0.0440709 0.206209c0.0274685,0.00830315 0.0604606,0.0213622 0.0898701,0.0361929 0.0408307,0.0205866 0.0780787,0.0465945 0.093378,0.072815l0 0.000208661c0.0129488,0.0222756 0.0207874,0.0445945 0.0250591,0.0656496 0.00529528,0.0260984 0.00483858,0.0500433 0.00178346,0.0695906l-0.00646063 0.0183307c-0.00680709,0.0118268 -0.0159449,0.0218622 -0.0270118,0.0302047 -0.0379409,0.0286063 -0.109012,0.0416772 -0.179945,0.0407283 -0.0684724,-0.000917323 -0.140717,-0.0146299 -0.184327,-0.0397126 -0.0159646,-0.00918504 -0.0291457,-0.020063 -0.0386535,-0.0326772l-0.00812598 -0.0154173 -0.178799 -0.543343 0.000625984 -0.0345827c0.00015748,-0.000444882 0.0524055,-0.141579 0.0395315,-0.33926 -0.223567,0.044622 -0.374165,0.212846 -0.476744,0.409059 -0.111945,0.214134 -0.167685,0.462642 -0.198756,0.626764l0.00869685 0.0382283 0.000834646 0.00437402c0.00126772,0.00904331 0.00254724,0.0337126 0.00254724,0.0549961 0,0.0174409 -0.000854331,0.0349055 -0.00317323,0.0455669l-0.00666535 0.016252c-0.00755512,0.0124528 -0.0172638,0.0234134 -0.0287323,0.0329488 -0.044122,0.0366969 -0.118988,0.0533071 -0.193504,0.0529764 -0.0721378,-0.000318898 -0.147319,-0.016378 -0.194846,-0.0452323 -0.015252,-0.00925984 -0.028315,-0.0200354 -0.0385118,-0.0322992l-0.0125 -0.0339567c0,-0.0180551 0.00334646,-0.043685 0.0105276,-0.0686929 0.00591339,-0.0206181 0.0148819,-0.0419252 0.0274213,-0.0602047l-0.000141732 -9.84252e-005c0.0104291,-0.0152835 0.0319134,-0.0353858 0.0558898,-0.0552953 0.0259724,-0.0215669 0.0553504,-0.0436181 0.0748465,-0.0577126l0.11587 -0.458256c0.0105276,-0.276043 0.0515866,-0.544555 0.118654,-0.778614 0.0613661,-0.214161 0.144866,-0.400728 0.247146,-0.539665 -0.136272,-0.181736 -0.201075,-0.372346 -0.205972,-0.547516 -0.00572835,-0.204622 0.0699646,-0.388016 0.208984,-0.513051l0.000208661 0c0.0173228,-0.0154882 0.0416811,-0.032685 0.0635394,-0.0431693 0.0290354,-0.0139291 0.058937,-0.0179606 0.0834921,-0.00333071 0.0319921,0.0192283 0.0429252,0.0442677 0.0336142,0.0819882 -0.00445669,0.0180866 -0.0153228,0.0380315 -0.0326575,0.0637717l-9.44882e-005 -6.29921e-005c-0.00535039,0.00802362 -0.0109803,0.0170197 -0.0168622,0.0269646 -0.0655551,0.110748 -0.091374,0.236748 -0.0693307,0.355591 0.0219094,0.118098 0.0916929,0.230106 0.217476,0.314024l0.00377953 0.00249606c0.357358,-0.1945 1.20218,-0.254783 1.39006,-0.265996l0.0142756 -0.0465669c-0.0124921,-0.0349921 -0.0260157,-0.0931772 -0.0348031,-0.153118 -0.00705512,-0.048122 -0.0115315,-0.0989173 -0.0105827,-0.141657 -0.0207874,-0.014315 -0.0484724,-0.0341102 -0.0757441,-0.0540039 -0.0211732,-0.0154449 -0.0425906,-0.0315315 -0.0610512,-0.0458819 -0.0159567,0.0154961 -0.0300157,0.025378 -0.0423898,0.0307047 -0.0359094,0.0154528 -0.063378,0.00668504 -0.0840866,-0.0191142 -0.012126,-0.0151102 -0.0182283,-0.0351378 -0.0200866,-0.0577165 -0.00365354,-0.0443701 0.0084685,-0.111346 0.0167205,-0.148598 0.00164961,-0.00738189 0.00480709,-0.0225472 0.00804724,-0.038126 0.0312756,-0.150268 0.0697992,-0.335335 0.304366,-0.355413l0 -1.9685e-005c0.032437,-0.00285433 0.0867598,-0.00185039 0.135953,0.0110984 0.0216575,0.00570079 0.0426142,0.013811 0.061185,0.0250039 0.0818898,-0.0437402 0.261591,-0.0889055 0.438665,-0.119087 0.173224,-0.0295197 0.349232,-0.0447126 0.435602,-0.0305512zm0.165425 0.0129843c-0.040874,0.0108465 -0.0773307,0.0453425 -0.107165,0.081748l-0.0372559 0.0454567 -0.0387756 -0.0387795c-0.0345787,-0.0165591 -0.214622,0.00256299 -0.399917,0.0341417 -0.19113,0.0325748 -0.379906,0.0785354 -0.415323,0.112937l-0.0385236 0.0580866 -0.0456457 -0.0561102c-0.00836614,-0.0102835 -0.0255709,-0.0177087 -0.0453583,-0.0229173 -0.0352638,-0.00928346 -0.0754173,-0.0098937 -0.0997008,-0.00775984l-0.000208661 0c-0.155539,0.0132441 -0.185134,0.155417 -0.209157,0.27085 -0.00228346,0.0109803 -0.00453543,0.0217795 -0.00846457,0.0393701 -0.00300394,0.0135551 -0.00664173,0.0317126 -0.00954331,0.0505236l0.0350157 -0.0442795 0.0395276 0.0660276c0.00148031,0.00247638 0.0405512,0.0274173 0.0846417,0.0595866 0.0432795,0.0315709 0.0857205,0.0619213 0.0909173,0.064378l0.0343228 0.0162362 -0.00411417 0.0375157c-0.00416929,0.0380039 0.000224409,0.0940945 0.00812205,0.147949 0.00959449,0.0654488 0.023189,0.123803 0.0322717,0.140075l0.0110276 0.0197638 -0.00664961 0.0216969 -0.0307323 0.100244 -0.0109213 0.035626 -0.0374134 0.00187402c-0.00301575,0.000149606 -1.04881,0.0500906 -1.40592,0.269181l-0.027248 0.0167205 -0.0275433 -0.0163031c-0.0110827,-0.00655906 -0.022689,-0.0138937 -0.0347598,-0.0219449 -0.151528,-0.101094 -0.235941,-0.237921 -0.262894,-0.383189 -0.0203465,-0.109685 -0.00759055,-0.223646 0.0340197,-0.330122 -0.0642677,0.0945709 -0.0976457,0.211858 -0.0940787,0.339343 0.00457874,0.163795 0.0698819,0.344535 0.208386,0.516953l0.0268031 0.0333661 -0.0268031 0.0333031c-0.104803,0.13022 -0.190614,0.316815 -0.253315,0.535638 -0.0654567,0.228425 -0.105323,0.490437 -0.115134,0.759406l-0.00146063 0.0110433 -0.121937 0.48224 -0.0216654 0.0310394c-0.0135472,0.00922441 -0.0524764,0.0373858 -0.0837559,0.0633583 -0.0170945,0.0141929 -0.0314016,0.0270472 -0.0358898,0.033626l-0.000208661 0c-0.00497638,0.00724016 -0.00919291,0.0179764 -0.0124882,0.0294685 -0.00164567,0.00572441 -0.00296063,0.0113898 -0.00395276,0.0167402 0.0316732,0.0178622 0.0843031,0.0277874 0.137205,0.0280236 0.0520394,0.000232283 0.101039,-0.00858661 0.124874,-0.0281496 7.87402e-005,-0.00380709 0.000114173,-0.00841339 0.000114173,-0.0133425 0,-0.0165315 -0.000551181,-0.032874 -0.0011378,-0.0390118l-0.0104606 -0.0459803 -0.000417323 -0.0214567c0.0318268,-0.170122 0.0899331,-0.435118 0.211197,-0.667079 0.125161,-0.239413 0.316488,-0.442382 0.613291,-0.47385l0.0519331 -0.00550394 0.00640157 0.0519646c0.0252874,0.205224 -0.0177598,0.370929 -0.0342362,0.42437l0.169425 0.514866c0.000732283,0.00046063 0.00154331,0.000948819 0.00242913,0.00146063 0.0278228,0.0160039 0.0802441,0.0248386 0.132665,0.0255394 0.0449291,0.000602362 0.0867244,-0.00436614 0.108126,-0.0155039 -0.000161417,-0.00509055 -0.000748031,-0.0105394 -0.00190945,-0.0162638 -0.00204331,-0.0100787 -0.00605118,-0.0212047 -0.0128819,-0.0329961l-9.05512e-005 5.11811e-005c-0.00401181,-0.00687795 -0.0245079,-0.0191063 -0.0492126,-0.031563 -0.0356811,-0.0179921 -0.0747795,-0.0322717 -0.0928307,-0.0342874l-0.0382087 -0.00427559 -0.00803937 -0.0375984 -0.0574291 -0.268693 -0.00677559 -0.0317047 0.0253189 -0.0205866c0.000318898,-0.000259843 0.111787,-0.0889803 0.164429,-0.26765l0.0199567 -0.0677244 0.059622 0.0379331c0.070689,0.0449685 0.143327,0.0883898 0.205839,0.12439 0.081689,0.0470354 0.145406,0.0810669 0.163638,0.0886772l0.0312441 0.0130472 0.00146457 0.0340354c0.00651969,0.151984 0.0218228,0.313937 0.0440827,0.450551 0.0192992,0.118429 0.0433386,0.215988 0.0706417,0.26785l0.00354331 0.00854331c0.0194646,0.0602362 0.0269764,0.198291 0.0276063,0.350146 0.000862205,0.208831 -0.010622,0.446606 -0.0217244,0.538043l-0.00396063 0.014378c-0.0137165,0.0326063 -0.045878,0.0628701 -0.0758858,0.0911142 -0.0177559,0.0167087 -0.0345197,0.0324843 -0.0385984,0.0395591l-0.00312205 0.00479134c-0.00280709,0.00384646 -0.00642913,0.0190236 -0.00976772,0.037248 -0.00380709,0.0207717 -0.00601575,0.042626 -0.00608268,0.0576969 0.00762205,0.0113622 0.020811,0.021685 0.0377008,0.0306024 0.0350748,0.0185197 0.0825079,0.0291457 0.131803,0.0307677 0.0495591,0.00162598 0.099874,-0.00592126 0.140299,-0.0237598 0.0268268,-0.0118386 0.0485236,-0.0280079 0.060874,-0.0486457 0.0021063,-0.0094685 0.00211024,-0.0253031 0.00116535,-0.0426969 -0.00126378,-0.0233071 -0.00456693,-0.0483858 -0.00720472,-0.067811 -0.00119291,-0.00577559 -0.00593701,-0.0162323 -0.0111102,-0.0276417 -0.0113661,-0.0250433 -0.024126,-0.0531732 -0.027189,-0.0901142l0 -0.00583071c3.93701e-005,-0.00135433 0.0137992,-0.471685 0.0236299,-0.630445l0 -0.000208661c0.0106693,-0.169575 0.0726142,-0.422118 0.127323,-0.645161 0.0163622,-0.0667126 0.0320591,-0.130693 0.0466181,-0.19402l0.0105236 -0.0457717 0.0465591 0.00472835c0.104839,0.0106378 0.20835,0.0131772 0.308295,0.00764961 0.0986299,-0.00545669 0.194012,-0.0189213 0.283933,-0.0403465l0.0564173 -0.0134449 0.00858268 0.0576102c0.0135472,0.0909843 0.0228701,0.14963 0.0309528,0.20048 0.0242205,0.152406 0.0386378,0.243083 0.0489252,0.405492 0.00672835,0.104193 -0.0005,0.239185 -0.00720079,0.364311 -0.00670079,0.125165 -0.0128465,0.239965 -0.0042874,0.292594 0.00298031,0.00186614 0.0059685,0.0036378 0.00895276,0.00530709 0.062189,0.0347559 0.149886,0.0508661 0.229598,0.0488819 0.0702953,-0.00174803 0.130957,-0.0163031 0.154575,-0.0431575 -0.000783465,-0.00456299 -0.00251181,-0.0131772 -0.00488189,-0.0241772 -0.00359843,-0.0166929 -0.00917717,-0.0344764 -0.0162913,-0.0479567 -0.00432677,-0.00822047 -0.0244882,-0.0241772 -0.0494567,-0.0415669 -0.0399843,-0.0278543 -0.0868661,-0.0540709 -0.111417,-0.064685l-0.0278701 -0.0120512 -0.00379528 -0.0300315c-0.0303465,-0.24015 0.0711732,-0.680933 0.0714606,-0.682201l0.00312598 -0.00958268c0.0832638,-0.19085 0.0863346,-0.634677 0.0863425,-0.635953l0.00729134 -0.0264567c0.0877953,-0.149768 0.11574,-0.382917 0.106425,-0.619398 -0.0115039,-0.292043 -0.079622,-0.585083 -0.162457,-0.734142l-0.00666929 -0.0260433 0.000826772 -0.183118 0.00687795 -0.026248c0.024189,-0.0423307 0.0406417,-0.137118 0.0477047,-0.242705 0.00757087,-0.113157 0.00367323,-0.235346 -0.0134843,-0.318681l-0.00982677 -0.0477126 0.0467008 -0.0139528c0.00277165,-0.000826772 -0.000338583,-0.00735039 0.00448031,-0.0194882 0.00886614,-0.0223386 0.0169173,-0.0536969 0.0242598,-0.0830157 0.00938583,-0.0370236 0.0220276,-0.067248 0.0410276,-0.0931496 0.0197992,-0.0270039 0.0451969,-0.0477126 0.0792677,-0.0644843l0.0246772 -0.0121457 0.0240748 0.0129803 0.00616929 0.00332677c0.0263504,0.0142244 0.0602992,0.0369488 0.0617559,0.0355394 0.0074252,-0.00716142 -0.0248898,-0.00704331 -0.0483976,-0.0333031 -0.0426654,-0.0476535 -0.109157,-0.107846 -0.180469,-0.172272 -0.0564764,-0.0510354 -0.10278,-0.0618976 -0.140594,-0.0518622z"/></g><rect class="fil1" height="6.82666" width="6.82666"/></svg>