<?xml version="1.0" ?><!DOCTYPE svg  PUBLIC '-//W3C//DTD SVG 1.1//EN'  'http://www.w3.org/Graphics/SVG/1.1/DTD/svg11.dtd'><svg height="6.82666in" style="shape-rendering:geometricPrecision; text-rendering:geometricPrecision; image-rendering:optimizeQuality; fill-rule:evenodd; clip-rule:evenodd" viewBox="0 0 6.82666 6.82666" width="6.82666in" xml:space="preserve" xmlns="http://www.w3.org/2000/svg" xmlns:xlink="http://www.w3.org/1999/xlink"><defs><style type="text/css">
   <![CDATA[
    .fil1 {fill:none}
    .fil0 {fill:#212121;fill-rule:nonzero}
   ]]>
  </style></defs><g id="Layer_x0020_1"><path class="fil0" d="M3.41372 2.29433c-0.111008,0 -0.219087,0.010252 -0.323417,0.0297598 -0.108024,0.0202008 -0.212465,0.0502244 -0.312398,0.0889685l-0.0725 0.0281102 0 -0.0776929 0 -1.35014 -1.05219 0 0.000787402 3.04048 0.000208661 0c0,0.485862 0.196949,0.925752 0.515354,1.24416 0.318402,0.318409 0.75828,0.515358 1.24414,0.515358 0.485882,0 0.925772,-0.196949 1.24418,-0.51535 0.318417,-0.318413 0.515366,-0.758303 0.515366,-1.24417 0,-0.485874 -0.196941,-0.925752 -0.515346,-1.24415 -0.318409,-0.318398 -0.758295,-0.515335 -1.24418,-0.515335zm-0.343 -0.0748228c0.11165,-0.020874 0.226303,-0.0318465 0.343,-0.0318465 0.515331,0 0.981882,0.208882 1.3196,0.546587 0.337717,0.337709 0.546598,0.804248 0.546598,1.31957 0,0.515307 -0.20889,0.981862 -0.546618,1.31959 -0.337713,0.337709 -0.804272,0.546602 -1.31959,0.546602 -0.515307,0 -0.98185,-0.208894 -1.31956,-0.54661 -0.337717,-0.33772 -0.546606,-0.804272 -0.546606,-1.31958l0.000208661 0 -0.00080315 -3.09381 -1.1811e-005 -0.0533346 0.0531378 0 1.15867 0 0.0533346 0 0 0.0533346 0 1.32748c0.0837874,-0.0285906 0.170161,-0.0514291 0.258646,-0.0679764zm0.343 2.53136c-0.192476,0 -0.366752,-0.0780236 -0.492898,-0.204169 -0.126138,-0.126134 -0.204165,-0.300398 -0.204165,-0.492886 0,-0.192476 0.0780276,-0.366732 0.204169,-0.492866 0.126142,-0.126138 0.300417,-0.204161 0.492894,-0.204161 0.192492,0 0.366764,0.0780157 0.492913,0.204157 0.126146,0.12613 0.204173,0.30039 0.204173,0.49287 0,0.192492 -0.0780276,0.366756 -0.204169,0.492894 -0.12615,0.126142 -0.300425,0.204161 -0.492917,0.204161zm-0.41748 -0.279587c0.106839,0.106839 0.254449,0.172917 0.41748,0.172917 0.163051,0 0.310665,-0.0660787 0.4175,-0.172909 0.106835,-0.106831 0.172917,-0.254429 0.172917,-0.417476 0,-0.163035 -0.0660827,-0.310626 -0.172921,-0.417453 -0.106835,-0.106831 -0.254445,-0.172906 -0.417496,-0.172906 -0.163031,0 -0.310642,0.0660787 -0.417476,0.172909 -0.106835,0.106831 -0.172917,0.254421 -0.172917,0.417449 0,0.163043 0.0660827,0.310642 0.172913,0.417469z"/></g><rect class="fil1" height="6.82666" width="6.82666"/></svg>