<?xml version="1.0" ?><!DOCTYPE svg  PUBLIC '-//W3C//DTD SVG 1.1//EN'  'http://www.w3.org/Graphics/SVG/1.1/DTD/svg11.dtd'><svg enable-background="new 0 0 483 322" height="6.82666in" style="shape-rendering:geometricPrecision; text-rendering:geometricPrecision; image-rendering:optimizeQuality; fill-rule:evenodd; clip-rule:evenodd" version="1.1" viewBox="0 0 6.82666 6.82666" width="6.82666in" xml:space="preserve" xmlns="http://www.w3.org/2000/svg" xmlns:cc="http://creativecommons.org/ns#" xmlns:dc="http://purl.org/dc/elements/1.1/" xmlns:inkscape="http://www.inkscape.org/namespaces/inkscape" xmlns:rdf="http://www.w3.org/1999/02/22-rdf-syntax-ns#" xmlns:sodipodi="http://sodipodi.sourceforge.net/DTD/sodipodi-0.dtd" xmlns:svg="http://www.w3.org/2000/svg" xmlns:xlink="http://www.w3.org/1999/xlink"><defs><style type="text/css">
   <![CDATA[
    .fil1 {fill:none}
    .fil0 {fill:#212121;fill-rule:nonzero}
   ]]>
  </style></defs><g id="Layer_x0020_1"><path class="fil0" d="M4.50199 3.88837c-0.0389173,-0.0272717 -0.0719843,-0.0896102 -0.0968976,-0.17878 -0.0227126,-0.0813071 -0.0404764,-0.187661 -0.0511732,-0.311531 -0.00518898,-0.0601063 -0.00724409,-0.106913 -0.00609843,-0.142969 0.00134252,-0.0421969 0.00798425,-0.0715472 0.02,-0.0910039 0.0165157,-0.0267362 0.0523386,-0.0365748 0.0946299,-0.0311339 0.0279843,0.00360236 0.0619567,0.0133661 0.0934173,0.0281969l-3.54331e-005 7.48031e-005 0.00758661 0.00356299c0.0565787,0.0265512 0.0848701,0.0398346 0.104358,0.0892087 0.0151457,0.0383898 0.0174291,0.092685 0.0219724,0.201232l0.000755906 0.0180236c0.0030748,0.0727323 0.00574803,0.126988 0.00851575,0.166732l0.00287008 -0.00461417c0.0254961,-0.0410315 0.0493228,-0.0857441 0.054874,-0.107413 0.00292126,-0.0113976 0.00562992,-0.0335984 0.00763386,-0.0601772 0.00213386,-0.0282874 0.00323622,-0.0590984 0.00279528,-0.0855787 -0.000476378,-0.0284252 -0.000925197,-0.057752 -0.00125591,-0.082063 -0.000322835,-0.0235945 -0.000531496,-0.0419409 -0.000535433,-0.0493307l-0.00019685 0 0 -4.33071e-005c0,-0.0277598 0.00971654,-0.0535591 0.0253386,-0.0727323 0.0178622,-0.0219173 0.0434173,-0.0355433 0.0723268,-0.0355591l0 -0.00019685 2.3622e-005 0c0.0213976,0 0.0700354,0.0179291 0.114591,0.0389803 0.0444449,0.0210039 0.0891732,0.047189 0.102945,0.0637992l-0.00011811 9.84252e-005c0.0135787,0.0163819 0.0205118,0.0343228 0.0209567,0.0658858 0.000291339,0.020685 -0.00246457,0.0496102 -0.00816535,0.0946969 -0.00749606,0.0593701 -0.015311,0.101433 -0.0257165,0.133157 -0.0124567,0.0379764 -0.0285984,0.0630709 -0.0511535,0.0836378 -0.031248,0.0284291 -0.0573307,0.0704567 -0.0827598,0.111425l-8.66142e-005 -5.51181e-005c-0.0455315,0.073374 -0.0893898,0.143961 -0.170315,0.167122 -0.0340118,0.00976772 -0.0876575,0.0137441 -0.136177,0.0125472 -0.0525315,-0.00130315 -0.103106,-0.00993307 -0.124906,-0.0252008zm-0.00080315 -0.205339c0.018689,0.0668858 0.0385433,0.110181 0.0578346,0.123701 0.00541339,0.00379134 0.0348386,0.00635827 0.0702205,0.00723228 0.0393543,0.000972441 0.0815472,-0.00187402 0.106484,-0.00903543 0.0441732,-0.0126417 0.0779252,-0.0670157 0.112984,-0.123512l0 -0.000192913c0.0290236,-0.0467559 0.0587874,-0.0947165 0.100335,-0.13252 0.00958661,-0.00874016 0.0169213,-0.0208465 0.0234213,-0.0406693 0.00855118,-0.026063 0.0152008,-0.0624252 0.021811,-0.114803 0.00511417,-0.0404724 0.00760236,-0.0654921 0.00738583,-0.0810197 -6.29921e-005,-0.00459055 0.00340551,-0.00181102 0.00201181,-0.00348819l-0.00019685 0c-0.00438976,-0.00529134 -0.0350866,-0.0214134 -0.0685669,-0.0372323 -0.029126,-0.0137598 -0.0570669,-0.0257402 -0.0682362,-0.0285787 -0.000925197,0.00200787 -0.0014685,0.00468898 -0.0014685,0.00785039l0 4.33071e-005 -0.00019685 0c0,0.00657087 0.000208661,0.0245315 0.000535433,0.0481575 0.000311024,0.0230669 0.000759843,0.0521693 0.00125591,0.0816772 0.000523622,0.031378 -0.000586614,0.0652717 -0.00279528,0.094563 -0.00233858,0.0309685 -0.00611024,0.0592441 -0.010752,0.0773583 -0.00824016,0.0321693 -0.0368898,0.0877283 -0.0665984,0.135539 -0.0326654,0.0525709 -0.0715551,0.0999567 -0.0955433,0.108094l1.9685e-005 6.29921e-005c-0.0478031,0.0159882 -0.074937,-0.00158268 -0.0858937,-0.0882835 -0.00531496,-0.0420512 -0.00936614,-0.113244 -0.0143386,-0.230819l-0.000755906 -0.0180236c-0.00405906,-0.0969094 -0.00609449,-0.145386 -0.0153346,-0.168807 -0.00491732,-0.0124606 -0.0211417,-0.0200827 -0.0535787,-0.0353031l-0.00774409 -0.0036378 -0.000192913 0c-0.0222795,-0.0105039 -0.0452283,-0.0172756 -0.0633465,-0.0196063 -0.000484252,-6.29921e-005 -0.000704724,-0.000507874 -0.000740157,-0.00122047 -0.000818898,0.00682677 -0.00140945,0.0159882 -0.00177953,0.0276575 -0.00096063,0.0302165 0.00109449,0.073252 0.00609843,0.131252 0.0102441,0.118661 0.0267835,0.218823 0.0476614,0.293563zm-0.0486024 -0.466598c-0.000334646,0.00053937 -0.000649606,0.00122047 -0.000952756,0.00204331l-0.000582677 0.00459449c0.00217717,-0.00614567 0.00506693,-0.0123543 0.00153543,-0.0066378zm-0.000952756 0.00204331c-0.000799213,0.00216535 -0.0015,0.00531496 -0.00209055,0.00951575 0.000338583,-0.00145669 0.000897638,-0.00318504 0.00150787,-0.00492126l0.000582677 -0.00459449z"/><path class="fil0" d="M1.82826 3.86763c-0.00329921,-0.0132126 -0.0091811,-0.0318425 -0.0159882,-0.0511772 -0.00687008,-0.0195079 -0.0146535,-0.0396024 -0.0216811,-0.0555512 -0.0153701,-0.034874 -0.0327795,-0.0846181 -0.0513465,-0.146335 -0.00640945,-0.0212992 -0.0130236,-0.0442913 -0.0198031,-0.0688425 -0.00166535,0.0465118 -0.00464961,0.0937953 -0.00819685,0.133531 -0.00401969,0.0449606 -0.00898031,0.0812441 -0.0139094,0.0979764l-0.0148543 0.050374 -0.00955906 0.0324173 -0.0337992 0.00312992 -0.110559 0.0102283 -0.110567 0.0102244 -0.0267835 0.00247638 -0.0167717 -0.0210315 -0.0247953 -0.0310984c-0.00779528,-0.00977165 -0.0229252,-0.0320827 -0.0409961,-0.0601457 -0.00550787,-0.00855512 -0.0112756,-0.0176063 -0.0171811,-0.0269646 0.000669291,0.0181102 5.51181e-005,0.0325315 -0.00203937,0.0405512 -0.00813386,0.0310945 -0.0487205,0.0609882 -0.0973189,0.0800906 -0.040374,0.0158661 -0.0897283,0.027248 -0.127756,0.0261772 -0.0455118,-0.00129528 -0.0736693,-0.0124646 -0.0957795,-0.0555945 -0.0146732,-0.0286102 -0.0227244,-0.0712598 -0.0316417,-0.142583 -0.0140591,-0.112276 -0.021752,-0.182012 -0.0250197,-0.250114 -0.00320866,-0.0668228 -0.00181102,-0.129173 0.00227165,-0.227177l0.00799606 -0.191827 0.00153543 -0.0368228 0.035378 -0.0094685 0.0492402 -0.0131732c0.0444331,-0.0118858 0.091748,-0.0166654 0.131559,-0.0148268 0.0475866,0.00219685 0.088248,0.0150433 0.109587,0.0379567 0.00827165,0.00888583 0.0271417,0.0397126 0.0508504,0.0822008 0.0223819,0.0401102 0.0499291,0.0914803 0.0772165,0.144413l0.0277244 0.0537795c0.0117795,-0.0685866 0.0294921,-0.142882 0.0498504,-0.21176 0.0257677,-0.0871969 0.0562047,-0.167067 0.0848346,-0.217689l0.0209921 -0.037122 0.0146614 -0.0259213 0.0298701 0.000728346 0.0988425 0.00242126c0.0435079,0.00106299 0.0716299,0.00288583 0.0927283,0.00715354 0.0294488,0.00595669 0.0463268,0.015752 0.0623268,0.031752 0.0202953,0.0202953 0.044878,0.0850787 0.0737362,0.194331 0.026685,0.101035 0.0596496,0.245492 0.0988819,0.433343 0.00455906,0.0218701 0.0104134,0.0464567 0.0161535,0.0684331 0.00554724,0.0212205 0.011126,0.0404291 0.0153819,0.0524764 0.00488583,0.0138346 0.00948425,0.0295591 0.0129449,0.0437441 0.00393701,0.0161142 0.00638583,0.0307441 0.00638583,0.0399685 0,0.00166142 0.00247638,0.0119016 0.00646063,0.0270472 0.00479528,0.0182205 0.0115118,0.0409882 0.0189882,0.0638937 0.0145197,0.0445039 0.0234685,0.0750472 0.0273189,0.0940157 0.0238425,0.117469 0.000334646,0.139543 -0.0680157,0.0786024 -0.0182323,0.00746457 -0.0436457,0.0155157 -0.0692756,0.0223031 -0.0375709,0.00994882 -0.0789882,0.0188701 -0.0985472,0.0199528l-0.00019685 0c-0.0259567,0.00141339 -0.0461929,-0.016752 -0.0579252,-0.0471772 -0.00454724,-0.0117874 -0.00938583,-0.0271732 -0.0134094,-0.0432913zm0.0781535 -0.0843819c0.00784252,0.0222795 0.0147205,0.0441417 0.0187205,0.0601614 0.000811024,0.00324016 0.00162598,0.00635433 0.00244094,0.00932677 0.0137362,-0.00301181 0.0297008,-0.00692913 0.0453701,-0.0110787 0.0292913,-0.00775591 0.0540709,-0.014378 0.0542638,-0.0145354l0 -0.00019685c0.000751969,-0.000622047 0.00151181,-0.00123228 0.00228346,-0.00182283 -0.00404724,-0.0135354 -0.00939764,-0.0304803 -0.0161024,-0.0510197 -0.00792126,-0.0242598 -0.0152047,-0.0490197 -0.0205551,-0.0693583 -0.00615354,-0.0233819 -0.00997244,-0.042748 -0.00997244,-0.0524409 0,-0.00212598 -0.00125197,-0.00830315 -0.00325984,-0.0165276 -0.00247244,-0.0101299 -0.00607874,-0.0222795 -0.0102126,-0.0339803 -0.00477165,-0.0135079 -0.0112087,-0.0357441 -0.0177283,-0.0606811 -0.00631496,-0.0241772 -0.0126063,-0.0505039 -0.0173189,-0.0731181 -0.0387874,-0.185728 -0.0713661,-0.328488 -0.0977165,-0.428264 -0.024185,-0.0915669 -0.0401732,-0.141248 -0.0479488,-0.149024 -0.00211811,-0.00211811 -0.00503543,-0.00356299 -0.0111535,-0.00479921 -0.0144724,-0.0029252 -0.0377441,-0.00427559 -0.0755472,-0.00520079l-0.0689724 -0.00168898 -0.00633071 0.0111969c-0.0247913,0.0438307 -0.0520669,0.11611 -0.0758504,0.196594 -0.0241654,0.0817677 -0.0443031,0.170709 -0.0543346,0.246256l-0.014126 0.106343 -0.093748 0.0164055 -0.0997362 -0.193449c-0.0275315,-0.0534055 -0.0544606,-0.103685 -0.0756575,-0.141673 -0.0199055,-0.0356732 -0.0337756,-0.0594409 -0.0367874,-0.0626732 -0.00287008,-0.00308268 -0.0184409,-0.00528346 -0.0408386,-0.0063189 -0.0301732,-0.0013937 -0.0666299,0.00238583 -0.10148,0.0117087l-0.0138622 0.00370866 -0.00646063 0.155c-0.00395276,0.094937 -0.0053189,0.155087 -0.00227165,0.218587 0.00298819,0.0622205 0.0106063,0.130665 0.0246339,0.242689 0.00752756,0.060185 0.0132165,0.0940276 0.0210906,0.109378 0.000425197,0.000830709 0.00364173,0.00112992 0.00984252,0.00130315 0.0242362,0.000681102 0.058815,-0.00779528 0.0886929,-0.0195394 0.0216299,-0.0085 0.0366811,-0.0102756 0.0371614,-0.012122 4.72441e-005,-0.000185039 -0.000905512,-0.0106693 -0.00223622,-0.0283228 -0.00169291,-0.0224488 -0.00461417,-0.0499606 -0.00833858,-0.0770906 -0.00407087,-0.0296181 -0.00741732,-0.0568386 -0.00951575,-0.076815 -0.00359843,-0.0342402 0.000299213,-0.0615512 0.0125827,-0.0736654l0.00390551 -0.0033189 1.9685e-005 -1.5748e-005 0.00234252 -0.00195276c0.0264803,-0.0186339 0.0507126,-0.0132913 0.0716339,0.0139134l0.00019685 0.00019685c0.00290551,0.00379134 0.00622047,0.00842913 0.00975197,0.0136457l-0.000133858 9.05512e-005c0.014626,0.0215945 0.0383386,0.059122 0.063315,0.100535 0.0195709,0.0324449 0.0396378,0.0646339 0.0561693,0.0903071 0.0162913,0.0252992 0.0293189,0.0446496 0.0351378,0.0519409l0.00802756 0.0100669 0.0837795 -0.00774803 0.0767598 -0.00710236 0.00529528 -0.0179528c0.00323228,-0.0109685 0.00697244,-0.0402008 0.0103898,-0.0784409 0.00361417,-0.0404488 0.00662992,-0.0898898 0.00816535,-0.138535 0.00339764,-0.107575 0.00700787,-0.18011 0.011378,-0.22298 0.0157165,-0.154146 0.0514173,-0.168335 0.10915,-0.0618937l0 0.000192913c0.00420079,0.00775591 0.0106378,0.0267756 0.0175827,0.0511339 0.00569291,0.0199449 0.0129291,0.0475 0.0203228,0.0778622 0.019189,0.0787362 0.038248,0.149543 0.0563228,0.20961 0.0173307,0.0576024 0.0332874,0.103374 0.0470551,0.13461 0.00787795,0.017878 0.0166457,0.0405236 0.0244134,0.0625827z"/><path class="fil0" d="M3.82994 3.71475c-0.00346457,-0.0546535 -0.00738583,-0.107413 -0.0108976,-0.148327 -0.00127953,-0.0148898 -0.000814961,-0.024689 -0.000240157,-0.0313622 -0.0148543,-0.0025315 -0.0339173,-0.00498031 -0.0543622,-0.00683465 -0.0561181,-0.00508268 -0.0903425,-0.011 -0.114016,-0.0239685l4.72441e-005 -8.26772e-005c-0.0372205,-0.0204409 -0.0469134,-0.0467756 -0.0469134,-0.0887559 0,-0.0457087 0.0177953,-0.0773583 0.0564213,-0.0964409 0.0282953,-0.0139764 0.0671457,-0.0177795 0.118756,-0.0125l0.0129567 0.00133071c-0.0040315,-0.0615984 -0.0126378,-0.137618 -0.0216969,-0.217654 -0.0240512,-0.212528 -0.0512047,-0.452469 -0.0064252,-0.570264l0 -0.000192913c0.00903543,-0.0237598 0.0195866,-0.0386575 0.0415039,-0.0496102 0.0167087,-0.00835039 0.0346299,-0.0106496 0.0612638,-0.0106496 0.0283071,0 0.0723898,0.0123819 0.110866,0.0282992 0.0415709,0.0172008 0.0805039,0.0412598 0.0936929,0.062626 0.00747244,0.0120984 0.0137126,0.107193 0.0173976,0.238831 0.00339764,0.121291 0.00654724,0.279799 0.00828346,0.434079l0.00117323 -0.000137795c0.0240157,-0.00276772 0.0450433,0.00177165 0.0722441,0.0195906 0.0185472,0.0121496 0.041126,0.0319685 0.0739449,0.0635197 0.00397244,0.0038189 0.00811811,0.00787795 0.0123583,0.0120984 0.0190866,0.0190039 0.0353661,0.0368228 0.046437,0.0505709 0.0271654,0.033752 0.0326457,0.065622 0.0102205,0.0889331l-0.000586614 0.000779528 -1.5748e-005 1.5748e-005c-0.0147598,0.0147598 -0.0467717,0.0286654 -0.0819055,0.0379606 -0.0307008,0.00812205 -0.0665984,0.0139016 -0.0953425,0.0140827 -0.00674409,4.33071e-005 -0.0130591,2.3622e-005 -0.018937,3.93701e-006 -0.018878,-6.29921e-005 -0.0217283,-0.0157638 -0.0250236,-0.00793307 -0.0053622,0.0127402 -0.00416535,0.0547402 -0.00177165,0.13872 0.000334646,0.0117992 0.00069685,0.0243031 0.00116142,0.0419252 0.000322835,0.0122677 0.000759843,0.0275906 0.00116142,0.041752 0.00275984,0.0974567 0.00414173,0.146201 -0.00891732,0.179138 -0.0208898,0.0526969 -0.0511535,0.0547402 -0.111697,0.058815 -0.00419291,0.000279528 -0.0087126,0.000590551 -0.0178346,0.00129528l-0.0566772 0.00440945 -0.0503189 0.00391339 -0.00319685 -0.0505906 -0.0131142 -0.207386zm0.0887087 -0.156531c0.00322047,0.0375236 0.00712205,0.0906614 0.0108976,0.15028l0.00991339 0.156795 0.0063622 -0.000496063c0.00386614,-0.000299213 0.0115,-0.000814961 0.018622,-0.00129528 0.018752,-0.00125984 0.0233976,0.0100394 0.0257598,0.0040748 0.00545276,-0.0137559 0.00426378,-0.055748 0.00188583,-0.139689 -0.000334646,-0.011878 -0.000700787,-0.0244882 -0.00116142,-0.0421378 -0.000318898,-0.0121299 -0.000759843,-0.0274213 -0.00116142,-0.0415394 -0.00279921,-0.0982441 -0.00420079,-0.14737 0.00958268,-0.180122 0.0224449,-0.0533071 0.0539094,-0.0532126 0.116819,-0.0530039 0.00575197,1.5748e-005 0.0119331,3.54331e-005 0.0185433,-3.93701e-006 0.0179409,-0.000110236 0.041626,-0.00385039 0.0637953,-0.00929528 -0.00395669,-0.00411811 -0.00814567,-0.00837795 -0.0125236,-0.0127402 -0.00336614,-0.00335039 -0.00709055,-0.00699213 -0.011185,-0.0109252 -0.0207638,-0.0199606 -0.0362323,-0.0340945 -0.0482283,-0.0435827 -0.00157087,0.00912205 -0.00480709,0.0173071 -0.0102087,0.0252835 -0.0145669,0.0214685 -0.032748,0.0279724 -0.0602874,0.0279724 -0.032122,0 -0.0508976,-0.00590157 -0.064374,-0.0353583 -0.00807874,-0.0176575 -0.00683071,-0.0345906 -0.00109449,-0.0613701 0.00183071,-0.00850787 0.00347244,-0.0195512 0.00462992,-0.0304724 0.00119685,-0.0112992 0.00190551,-0.0217441 0.00182283,-0.0285551l0 -0.00019685c-0.00169685,-0.154583 -0.00489764,-0.315831 -0.00837008,-0.439913 -0.00324016,-0.115654 -0.000637795,-0.186114 -0.00255512,-0.189217 -0.00188583,-0.00305512 -0.0220787,-0.0125472 -0.0468189,-0.0227835 -0.0278583,-0.0115236 -0.0573425,-0.0204882 -0.0729764,-0.0204882 -0.00472441,0 -0.00831496,-8.66142e-005 -0.0109331,-0.000173228 -0.0339764,0.097689 -0.00865748,0.321437 0.013811,0.519953 0.0122008,0.107815 0.0235945,0.208445 0.024437,0.283689l0.000622047 0.0556969 -0.0555039 -0.00569685 -0.0701929 -0.00720866c-0.0325394,-0.00333071 -0.053748,-0.00255118 -0.0644567,0.00273622 -0.00038189,0.000188976 -0.000562992,0.00251575 -0.000562992,0.00698425 0,0.00281102 -0.0094685,-0.000956693 -0.00528346,0.00133465l0.00019685 0c0.00947638,0.00518898 0.0329488,0.00844882 0.0749528,0.012252 0.0252756,0.00229134 0.0491299,0.00547638 0.0671811,0.00875197 0.0302283,0.00548425 0.0536417,0.0163898 0.0629252,0.0314213 0.00579528,0.00934646 0.0111339,0.0427283 0.0151181,0.0890394zm-0.0990472 -0.0334291c-5.11811e-005,-0.00134252 -0.000287402,-0.00238189 -0.000834646,-0.00326378 -0.00307087,-0.00497244 -0.00135039,-0.0015 0.000834646,0.00326378zm0.0372677 -0.969571l-1.1811e-005 4.33071e-005 6.69291e-005 -2.3622e-005 -5.51181e-005 -1.9685e-005z"/><path class="fil0" d="M5.45724 3.50577c0.0194252,-0.0190827 0.0388898,-0.0403819 0.0554961,-0.0603858 0.0182835,-0.0220276 0.032874,-0.0419843 0.0396024,-0.0548386 0.0148819,-0.0284685 0.0262126,-0.0655039 0.0329134,-0.10485 0.00629528,-0.0369685 0.00829921,-0.0752323 0.00514961,-0.109717 -0.0279606,0.034748 -0.0503189,0.0717835 -0.0698622,0.117709 -0.0232638,0.0546575 -0.0429291,0.121992 -0.0632992,0.212083zm0.132055 0.00328346c-0.0218189,0.0262913 -0.0473307,0.0539409 -0.0715512,0.0769488 -0.044378,0.0421614 -0.0752323,0.0683189 -0.0950394,0.0799213 -0.0907323,0.0531654 -0.116472,0.0275354 -0.0887756,-0.0701417 0.0012126,-0.00430315 0.0045748,-0.0181929 0.00898425,-0.0370394 0.00591339,-0.0252874 0.0113425,-0.0488386 0.0146614,-0.0637756 0.0226929,-0.102071 0.0446535,-0.178039 0.0711693,-0.240343 0.0276614,-0.0650039 0.0598858,-0.115031 0.102165,-0.163067 0.0428465,-0.0486772 0.0733898,-0.0680906 0.11165,-0.0474921 0.0286142,0.0153898 0.0390433,0.0503543 0.0462756,0.112941 0.00528346,0.0456102 0.00312992,0.0965433 -0.00514173,0.145098 -0.00834252,0.0489764 -0.0231457,0.0964213 -0.0430709,0.134535 -0.00998425,0.0190787 -0.0288071,0.0452756 -0.0513268,0.0724134zm0.00735827 -0.371441c0.00140945,-0.00251969 0.00164567,-0.00404331 -0.0013622,-0.00565748 -0.0090315,-0.0048622 -0.0045,-0.000783465 0.0013622,0.00565748z"/><path class="fil0" d="M5.20427 4.35172c-0.0210118,-0.0155984 -0.0424488,-0.0836575 -0.0587165,-0.17328 -0.0145787,-0.0803268 -0.0284409,-0.181799 -0.0365512,-0.276701 -0.00331496,-0.0389213 -0.00575197,-0.0607835 -0.00970472,-0.0731102 -0.00220472,-0.00688189 -0.00659449,-0.0119173 -0.0144961,-0.0193031 -0.0217559,-0.0203307 -0.0356181,-0.0435827 -0.0419449,-0.0660276 -0.00549606,-0.0195 -0.00551575,-0.038874 -0.000334646,-0.056311 0.00598819,-0.0201457 0.0183465,-0.0370591 0.0367402,-0.0486024 0.00955512,-0.00599213 0.0204094,-0.0103583 0.0324409,-0.0127205 0.00353937,-0.0138031 0.00646457,-0.0349331 0.00917717,-0.0645472 0.0067126,-0.0733189 0.0224764,-0.157992 0.0427559,-0.236504 0.0205276,-0.0794685 0.0459291,-0.153547 0.0716063,-0.204504 0.0306457,-0.0608228 0.0845945,-0.124051 0.14076,-0.171776 0.0598858,-0.0508858 0.125567,-0.0858701 0.174579,-0.0858701 0.0171654,0 0.0447835,0.00618898 0.0790039,0.0173189 0.029815,0.00969291 0.0673031,0.0239528 0.109102,0.0416693 0.00425984,0.00180315 0.0135472,0.00565354 0.0249803,0.0103543 0.00718898,0.00295669 0.0172756,0.00705512 0.0280512,0.0113858 0.0188504,0.00757874 0.0353583,0.0200669 0.0503976,0.0385512 0.0123661,0.015185 0.0236693,0.0344213 0.0346378,0.0585906 0.0272992,0.0601299 0.0405118,0.127406 0.0396811,0.198665l0 0.00019685c-0.000818898,0.0698268 -0.0151496,0.14328 -0.0429409,0.217256 -0.0255787,0.0680945 -0.101406,0.160004 -0.186449,0.238055 -0.0852717,0.0782559 -0.182654,0.14502 -0.251,0.162528l-0.0193898 0.0049685 0.000212598 0.0684331c0.000200787,0.0632835 0.00420472,0.126008 0.011126,0.181185 0.00655118,0.0522362 0.0155591,0.0955827 0.026185,0.123429 0.00596457,0.0156102 0.0104803,0.0318504 0.0129488,0.0454213 0.00474409,0.0260236 0.000385827,0.0494803 -0.0142087,0.0640472 -0.0140039,0.0139646 -0.0716732,0.0216654 -0.125528,0.0223976 -0.0519685,0.000708661 -0.108217,-0.0041378 -0.123122,-0.0151969zm0.0393307 -0.190854c0.0120276,0.0662677 0.0200039,0.110744 0.0200472,0.110776 0.00307087,0.00227953 0.0279331,-0.0038622 0.0625709,-0.00433071 0.0143189,-0.000192913 0.0259291,0.00194882 0.034878,0.00401969l-0.000279528 -0.00073622c-0.0135276,-0.0354409 -0.0245276,-0.0869252 -0.0320433,-0.146862 -0.00714567,-0.0569921 -0.0112913,-0.123831 -0.0115118,-0.193295l-0.000334646 -0.107039 -0.000122047 -0.0386063 0.037622 -0.0096378 0.0570118 -0.0146063c0.0518307,-0.0132756 0.133217,-0.0708189 0.208031,-0.13948 0.0750433,-0.068874 0.140669,-0.146547 0.160661,-0.199772 0.0237717,-0.0632717 0.0360157,-0.12522 0.0366969,-0.183272 0.000633858,-0.0565394 -0.00971654,-0.109598 -0.0310906,-0.156673 -0.00749213,-0.0165118 -0.0143543,-0.0285945 -0.0209685,-0.0367165 -0.00392913,-0.00483071 -0.00724409,-0.00769291 -0.0101614,-0.00886614 -0.0063189,-0.00253937 -0.0167244,-0.00679134 -0.0288307,-0.0117717 -0.00831102,-0.00341732 -0.0175748,-0.00727953 -0.0257598,-0.010748 -0.0378465,-0.0160394 -0.0726811,-0.0292402 -0.101291,-0.0385433 -0.024185,-0.00786614 -0.0411378,-0.0122402 -0.0481457,-0.0122402 -0.0247323,0 -0.0668543,0.0252795 -0.110122,0.0620433 -0.0469843,0.0399213 -0.0915827,0.0917598 -0.116154,0.140524 -0.022563,0.0447717 -0.0453583,0.11172 -0.0641811,0.184583 -0.019063,0.0738031 -0.0338268,0.152787 -0.0400236,0.220488 -0.00397638,0.043437 -0.00909449,0.0741614 -0.0164331,0.0953346 -0.012874,0.037126 -0.0329134,0.0548425 -0.0617165,0.0577677 0.00240157,0.00412992 0.00598425,0.00855906 0.0108189,0.0130748 0.0205551,0.0192165 0.0325748,0.0342047 0.0414488,0.061878 0.00712992,0.0222283 0.0104803,0.0495039 0.0143898,0.095378 0.00802756,0.0939134 0.0212677,0.191724 0.0349921,0.267331z"/><path class="fil0" d="M3.25954 3.27733c0.00171654,-0.0106614 0.00248819,-0.024315 0.00248819,-0.0393071 0,-0.0157677 -0.000889764,-0.0319252 -0.00244882,-0.0469606 -0.00107087,0.00140945 -0.00220079,0.00284252 -0.0033937,0.00429134 -0.0200748,0.0244016 -0.0402165,0.0524134 -0.0530394,0.0750591 0.026748,0.00514173 0.0450512,0.00756693 0.0563937,0.00691732zm0.102488 -0.0393071c0,0.0192126 -0.00127165,0.0383465 -0.00409843,0.0556339 -0.00722441,0.0441614 -0.0252677,0.0696929 -0.0689449,0.0800827 -0.0271772,0.00646457 -0.0640394,0.00291339 -0.119791,-0.00846063 -0.0355118,-0.00724016 -0.056189,-0.0158031 -0.0695669,-0.0384528 -0.0148937,-0.0252283 -0.0106535,-0.0474882 0.00429528,-0.0810118 0.0144409,-0.0323622 0.0453268,-0.0772992 0.075311,-0.113744 0.0360236,-0.0437835 0.0775748,-0.0783268 0.103803,-0.0783268 0.00211417,0 0.00495276,0.000299213 0.00844094,0.000846457l0.000389764 0c0.0308425,0.00505118 0.0514016,0.0389016 0.0605827,0.0845354 0.00586614,0.0291614 0.00957874,0.065752 0.00957874,0.0988976zm-0.174701 0.0396693l-0.000208661 -0.000287402 -0.000153543 0.000748031c0.000338583,0.000354331 0.000417323,0.000125984 0.000362205,-0.00046063zm-0.000208661 -0.000287402c-0.00286614,-0.00400394 -0.0047126,-0.00670866 -0.00155512,-0.00135827 0.000685039,0.00115748 0.00112598,0.00182283 0.00140157,0.0021063l0.000153543 -0.000748031zm0.0763189 -0.00046063c0.000893701,-0.000129921 0.00172441,-0.000287402 0.0025,-0.000472441 0.00283465,-0.000673228 0.000204724,-8.66142e-005 -0.0025,0.000472441z"/><path class="fil0" d="M2.89157 3.52848c-0.000866142,-0.0912402 0.000744094,-0.156843 0.00637402,-0.211839 0.00585827,-0.0572598 0.0158425,-0.103043 0.0315551,-0.153028 0.0156693,-0.049811 0.0420551,-0.0976732 0.0778898,-0.142008 0.0349094,-0.0431929 0.0790197,-0.0832047 0.131079,-0.118496 0.0336457,-0.022815 0.0523898,-0.0347283 0.0758898,-0.0408858 0.0249646,-0.00654331 0.0449764,-0.0044685 0.0809291,0.000744094 0.0565,0.00819685 0.0995551,0.0182441 0.131823,0.0311969 0.0402402,0.0161535 0.0659567,0.0375157 0.0804685,0.0654055 0.020815,0.0400197 0.0344173,0.161106 0.0380984,0.277673 0.00373228,0.118327 -0.00344094,0.237776 -0.0242677,0.27148 -0.0152559,0.0246654 -0.0816969,0.0372165 -0.152106,0.0374646 -0.0550591,0.000192913 -0.116791,-0.00396457 -0.15337,-0.0126024 -0.000515748,0.00983858 -0.000791339,0.0205512 -0.000759843,0.0315433 0.000216535,0.0712008 0.0258504,0.0927638 0.0683976,0.128543l0.00155906 0.00131102c0.0123307,0.0103701 0.027815,0.0146181 0.0440315,0.0145315 0.0225039,-0.000122047 0.046374,-0.0081811 0.0670118,-0.0203346 0.0324449,-0.0191024 0.0757323,-0.0137008 0.117551,0.00349606 0.0430039,0.0176811 0.0884173,0.0491811 0.11215,0.0744449l0.0244173 0.0259803 0.0510787 0.0543504 -0.0698268 0.0265118 -0.0592953 0.0225118c-0.0897992,0.0341181 -0.180724,0.0529094 -0.265531,0.0537165 -0.0849921,0.000807087 -0.163992,-0.0165433 -0.230161,-0.0546535 -0.0680197,-0.0391772 -0.12161,-0.0993583 -0.153433,-0.183118 -0.0197283,-0.0519331 -0.030874,-0.113043 -0.0315512,-0.183941zm0.105594 -0.201681c-0.00530315,0.0517874 -0.00681102,0.114031 -0.00598819,0.200902 0.000555118,0.0582874 0.00949606,0.107945 0.0253071,0.149563 0.0230984,0.0607992 0.0613819,0.10413 0.109677,0.131945 0.0501575,0.0288858 0.111961,0.0420236 0.179776,0.041378 0.0675906,-0.000645669 0.140945,-0.0151063 0.214878,-0.0414803 -0.0137717,-0.00919685 -0.0294882,-0.0178701 -0.0449803,-0.0242402 -0.0155157,-0.00637795 -0.0276142,-0.0107205 -0.0292677,-0.00974803 -0.0344882,0.020311 -0.0759409,0.0337835 -0.117012,0.0340039 -0.0384094,0.000208661 -0.0762992,-0.0108858 -0.108488,-0.0379646l-0.00155906 -0.00131102c-0.0646378,-0.0543583 -0.103579,-0.0871063 -0.103941,-0.204717 -7.08661e-005,-0.0243819 0.00102362,-0.0470315 0.00284252,-0.0638543 0.00331496,-0.0306417 0.0136378,-0.0547677 0.0301457,-0.0649685 0.0122717,-0.00756299 0.0300512,-0.0101732 0.0487756,-0.00826378 0.0117008,0.00118898 0.025311,0.00375591 0.0379764,0.00738189 0.0267362,0.00766142 0.0828346,0.0113386 0.133996,0.0111575 0.0400827,-0.000141732 0.0631969,0.0164961 0.0673425,0.00979528 0.0103031,-0.0166693 0.0126496,-0.113709 0.0094252,-0.216008 -0.00328346,-0.104055 -0.0131457,-0.20776 -0.0271614,-0.234705 -0.00320866,-0.00616535 -0.0123937,-0.0122953 -0.0289094,-0.0189252 -0.0244921,-0.00983071 -0.0600787,-0.017878 -0.108776,-0.0249449 -0.0230118,-0.00333465 -0.0350827,-0.00485827 -0.0418661,-0.00308268 -0.00824803,0.00216142 -0.0209606,0.0105 -0.0450315,0.0268228 -0.0435472,0.0295197 -0.0802953,0.0628031 -0.109205,0.0985748 -0.0280039,0.0346457 -0.048437,0.0714567 -0.0603071,0.109189 -0.0138268,0.0439843 -0.0225827,0.0839685 -0.0276496,0.1335z"/><path class="fil0" d="M2.53803 3.27733c0.00171654,-0.0106614 0.00248819,-0.024315 0.00248819,-0.0393071 0,-0.0157677 -0.000889764,-0.0319252 -0.00244882,-0.0469606 -0.00107087,0.00140945 -0.00220079,0.00284252 -0.0033937,0.00429134 -0.0200748,0.0244016 -0.0402165,0.0524134 -0.0530394,0.0750591 0.026748,0.00514173 0.0450512,0.00756693 0.0563937,0.00691732zm0.102488 -0.0393071c0,0.0192126 -0.00127165,0.0383465 -0.00409843,0.0556339 -0.00722441,0.0441614 -0.0252677,0.0696929 -0.0689449,0.0800827 -0.0271772,0.00646457 -0.0640394,0.00291339 -0.119791,-0.00846063 -0.0355118,-0.00724016 -0.056189,-0.0158031 -0.0695669,-0.0384528 -0.0148937,-0.0252283 -0.0106535,-0.0474882 0.00429528,-0.0810118 0.0144409,-0.0323622 0.0453268,-0.0772992 0.075311,-0.113744 0.0360236,-0.0437835 0.0775748,-0.0783268 0.103803,-0.0783268 0.00211417,0 0.00495276,0.000299213 0.00844094,0.000846457l0.000389764 0c0.0308425,0.00505118 0.0514016,0.0389016 0.0605827,0.0845354 0.00586614,0.0291614 0.00957874,0.065752 0.00957874,0.0988976zm-0.174701 0.0396693l-0.000208661 -0.000287402 -0.000153543 0.000748031c0.000338583,0.000354331 0.000417323,0.000125984 0.000362205,-0.00046063zm-0.000208661 -0.000287402c-0.00286614,-0.00400394 -0.0047126,-0.00670866 -0.00155512,-0.00135827 0.000685039,0.00115748 0.00112598,0.00182283 0.00140157,0.0021063l0.000153543 -0.000748031zm0.0763189 -0.00046063c0.000893701,-0.000129921 0.00172441,-0.000287402 0.0025,-0.000472441 0.00283465,-0.000673228 0.000204724,-8.66142e-005 -0.0025,0.000472441z"/><path class="fil0" d="M2.17006 3.52848c-0.000866142,-0.0912402 0.000744094,-0.156843 0.00637402,-0.211839 0.00585827,-0.0572598 0.0158425,-0.103043 0.0315551,-0.153028 0.0156693,-0.049811 0.0420551,-0.0976732 0.0778898,-0.142008 0.0349094,-0.0431929 0.0790197,-0.0832047 0.131079,-0.118496 0.0336457,-0.022815 0.0523898,-0.0347283 0.0758898,-0.0408858 0.0249646,-0.00654331 0.0449764,-0.0044685 0.0809291,0.000744094 0.0565,0.00819685 0.0995551,0.0182441 0.131823,0.0311969 0.0402402,0.0161535 0.0659567,0.0375157 0.0804685,0.0654055 0.020815,0.0400157 0.0344173,0.161106 0.0380984,0.277673 0.00373228,0.118327 -0.00344094,0.237776 -0.0242677,0.27148 -0.0152559,0.0246654 -0.0816969,0.0372165 -0.152106,0.0374646 -0.0550591,0.000192913 -0.116791,-0.00396457 -0.15337,-0.0126024 -0.000515748,0.00983858 -0.000791339,0.0205512 -0.000759843,0.0315433 0.000216535,0.0712008 0.0258504,0.0927638 0.0683976,0.128543l0.00155906 0.00131102c0.0123307,0.0103701 0.027815,0.0146181 0.0440315,0.0145315 0.0225039,-0.000122047 0.046374,-0.0081811 0.0670118,-0.0203346 0.0324409,-0.0190984 0.0757323,-0.0137008 0.117551,0.00349606 0.0430039,0.0176811 0.0884173,0.0491811 0.11215,0.0744449l0.0244173 0.0259803 0.0510827 0.0543504 -0.0698307 0.0265118 -0.0592953 0.0225118c-0.0897992,0.0341181 -0.180724,0.0529094 -0.265531,0.0537165 -0.0849921,0.000807087 -0.163992,-0.0165433 -0.230161,-0.0546535 -0.0680197,-0.0391772 -0.12161,-0.0993583 -0.153433,-0.183118 -0.0197283,-0.0519331 -0.030874,-0.113043 -0.0315512,-0.183941zm0.105594 -0.201681c-0.00530315,0.0517874 -0.00681102,0.114031 -0.00598819,0.200902 0.000555118,0.0582874 0.00949606,0.107945 0.0253071,0.149563 0.0230984,0.0607992 0.0613819,0.10413 0.109677,0.131945 0.0501575,0.0288858 0.111961,0.0420236 0.179776,0.041378 0.0675906,-0.000645669 0.140945,-0.0151063 0.214878,-0.0414803 -0.0137717,-0.00919685 -0.0294882,-0.0178701 -0.0449803,-0.0242402 -0.0155157,-0.00637795 -0.0276142,-0.0107205 -0.0292677,-0.00974803 -0.0344882,0.020311 -0.0759409,0.0337835 -0.117012,0.0340039 -0.0384094,0.000208661 -0.0762992,-0.0108858 -0.108488,-0.0379646l-0.00155906 -0.00131102c-0.0646378,-0.0543583 -0.103579,-0.0871063 -0.103941,-0.204717 -7.08661e-005,-0.0243819 0.00102362,-0.0470315 0.00284252,-0.0638543 0.00331496,-0.0306417 0.0136378,-0.0547677 0.0301457,-0.0649685 0.0122717,-0.00756299 0.0300512,-0.0101732 0.0487756,-0.00826378 0.0117008,0.00118898 0.025311,0.00375591 0.0379764,0.00738189 0.0267362,0.00766142 0.0828346,0.0113386 0.133996,0.0111575 0.0400827,-0.000141732 0.0631969,0.0164961 0.0673425,0.00979528 0.0103031,-0.0166693 0.0126496,-0.113709 0.0094252,-0.216008 -0.00328346,-0.104055 -0.0131457,-0.20776 -0.0271614,-0.234705 -0.00320472,-0.00616142 -0.0123937,-0.0122953 -0.0289094,-0.0189252 -0.0244921,-0.00983071 -0.0600787,-0.017878 -0.108776,-0.0249449 -0.0230118,-0.00333465 -0.0350827,-0.00485827 -0.0418661,-0.00308268 -0.00824803,0.00216142 -0.0209606,0.0105 -0.0450315,0.0268228 -0.0435472,0.0295197 -0.0802953,0.0628031 -0.109205,0.0985748 -0.0280039,0.0346457 -0.048437,0.0714567 -0.0603071,0.109189 -0.0138268,0.0439843 -0.0225827,0.0839685 -0.0276496,0.1335z"/></g><rect class="fil1" height="6.82666" width="6.82666"/></svg>