<?xml version="1.0" ?><!DOCTYPE svg  PUBLIC '-//W3C//DTD SVG 1.1//EN'  'http://www.w3.org/Graphics/SVG/1.1/DTD/svg11.dtd'><svg height="6.82666in" style="shape-rendering:geometricPrecision; text-rendering:geometricPrecision; image-rendering:optimizeQuality; fill-rule:evenodd; clip-rule:evenodd" viewBox="0 0 6.82666 6.82666" width="6.82666in" xml:space="preserve" xmlns="http://www.w3.org/2000/svg" xmlns:xlink="http://www.w3.org/1999/xlink"><defs><style type="text/css">
   <![CDATA[
    .fil1 {fill:none}
    .fil0 {fill:#212121}
   ]]>
  </style></defs><g id="Layer_x0020_1"><g id="_423494912"><path class="fil0" d="M2.11003 3.77115l0.000248031 0c-0.00133465,-0.0167795 -0.0021063,-0.033685 -0.0021063,-0.0499449l0 -0.290335c0,-0.190594 -0.0837795,-0.285933 -0.283059,-0.285933 -0.0798189,-3.93701e-006 -0.161315,0.0221929 -0.226295,0.0683465 -0.0182165,0.0177756 -0.0213071,0.0466063 -0.00615748,0.0679882 0.0168661,0.023563 0.0495787,0.0290433 0.0732047,0.0122165 0.000586614,-0.000429134 0.00109055,-0.000980315 0.00172441,-0.00140157l0.00026378 0.000338583c0.0477126,-0.0289646 0.104709,-0.0435079 0.160102,-0.0435079 0.105508,-3.93701e-006 0.167512,0.0505906 0.167512,0.14878l0 0.0201693 -0.0432835 0c-0.166094,0 -0.426012,0.0130039 -0.426012,0.236866 7.87402e-006,0.131429 0.114146,0.200701 0.251303,0.200701 0.1025,-3.93701e-006 0.177626,-0.0490709 0.222398,-0.118413l0.00294488 0c0,0.0152795 0.000102362,0.0343465 0.00123228,0.0533425 0.00509843,0.0282953 0.0316654,0.0479173 0.0604213,0.0439213 0.0295118,-0.0041811 0.050063,-0.0313425 0.0459724,-0.0608307 -6.29921e-005,-0.000799213 -0.000283465,-0.00151575 -0.000413386,-0.00229921zm-0.114563 -0.214665c-0.00280315,0.109752 -0.0692205,0.203673 -0.199256,0.203673 -0.0851693,0 -0.148732,-0.0318465 -0.148732,-0.11698 0,-0.091 0.0924331,-0.129961 0.235449,-0.129961l0.112539 0 0 0.0432677zm-0.432201 -0.468303c0.000216535,-0.00073622 0.000566929,-0.0014685 0.000799213,-0.00220079 0.0095748,-0.0299291 -0.00699606,-0.0619094 -0.0368543,-0.0714646 -0.0291102,-0.00923228 -0.0601024,0.0062126 -0.0705236,0.0345866 -0.000232283,0.000767717 -0.000669291,0.00202756 -0.00130315,0.00388189 -6.69291e-005,0.000259843 -0.000133858,0.000527559 -0.000216535,0.000799213l-6.69291e-005 0c-0.0187165,0.0535394 -0.18224,0.480311 -0.18224,0.480311l-0.00287402 0 -0.192862 -0.488008c0,0 -5.11811e-005,-7.87402e-005 -5.11811e-005,-0.000110236l-0.00268898 -0.00691732c-0.0132244,-0.0279528 -0.0459409,-0.0416496 -0.0754646,-0.030563 -0.0302795,0.0113819 -0.0458898,0.0444882 -0.0359213,0.0749685 0.023626,0.0599331 0.246315,0.600858 0.246315,0.600858l-0.0145945 0.032189c-0.024563,0.0664646 -0.052,0.111291 -0.125614,0.111291 -0.00714567,0 -0.0318622,-0.00143307 -0.0334606,-0.00162992 -0.0237323,-0.00124016 -0.045874,0.0142205 -0.0523228,0.0380669 -0.00731496,0.0271339 0.00858268,0.0550197 0.0355551,0.062815 0.0195354,0.00337402 0.0395394,0.00464961 0.0574646,0.00464961 0.135701,-3.93701e-006 0.180488,-0.0780512 0.22526,-0.192063 0,0 0.245949,-0.614638 0.25722,-0.640256 0.00179134,-0.00409449 0.00332283,-0.00773228 0.00462598,-0.0111102l-0.000181102 -9.44882e-005zm3.08733 0.0541378c-0.199295,0 -0.346587,0.145846 -0.346587,0.35528 0,0.196315 0.129921,0.355157 0.342276,0.355157 0.101413,0 0.182992,-0.0248701 0.252465,-0.088374 0.0187205,-0.019811 0.0193898,-0.0510433 0.000614173,-0.0715945 -0.0172992,-0.0190354 -0.0455197,-0.0223701 -0.0666457,-0.00917717 -0.0441378,0.0421732 -0.105929,0.0665039 -0.181091,0.0665039 -0.142878,-3.93701e-006 -0.22952,-0.0869409 -0.234449,-0.21824l0.498091 0.000405512c0.0138425,0 0.0208386,-0.00164173 0.028,-0.00498819 0.0162323,-0.00748425 0.0213071,-0.0193386 0.0254016,-0.0339961 0.00156693,-0.00564961 0.000850394,-0.0388504 0.000850394,-0.0388504 -0.0152598,-0.198197 -0.140476,-0.312118 -0.318929,-0.312118zm-0.232224 0.296035c0.0174528,-0.118461 0.0971063,-0.197358 0.227512,-0.197358 0.130528,-3.93701e-006 0.210232,0.0788976 0.217398,0.197358l-0.444909 0zm0.972539 -0.293528c-0.0888622,0 -0.188756,0.0439724 -0.227354,0.128626l-0.00280709 -7.87402e-006c0,-0.0207402 -0.000783465,-0.0414331 -0.00159843,-0.0619173l-0.000299213 7.87402e-005c-0.000169291,-0.000783465 -0.000220472,-0.00154331 -0.000452756,-0.00229921 -0.00601181,-0.0292874 -0.034685,-0.0480591 -0.0639134,-0.0419764 -0.0217874,0.00454724 -0.0377874,0.0217087 -0.0420276,0.0422402 0.00181496,0.0337874 0.00427165,0.0714134 0.00427165,0.113031l0 0.464941c0.00322441,0.0284291 0.0273701,0.0504488 0.0565591,0.0501693 0.0309646,-0.00019685 0.055878,-0.0252795 0.0560433,-0.0561181l3.93701e-006 -0.00144094c0,-0.000598425 -3.54331e-005,-0.0011811 -3.54331e-005,-0.00183465l3.54331e-005 0 0 -0.269413c0,-0.154583 0.0606181,-0.251287 0.19789,-0.251287 0.00652756,-7.87402e-006 0.0132283,0.000405512 0.0197874,0.0010748l0 -3.54331e-005c0.000858268,0 0.0016378,6.69291e-005 0.00242126,6.69291e-005 0.0314843,0.000452756 0.0573819,-0.0247441 0.0577165,-0.0562008 0.000503937,-0.0314567 -0.0247992,-0.0572717 -0.0562441,-0.0576969zm-1.40275 9.44882e-005c-0.102551,0 -0.164626,0.0491535 -0.213673,0.128531 -0.0216772,-0.046189 -0.0679016,-0.128528 -0.213685,-0.128528 -0.111303,-3.93701e-006 -0.163406,0.0620827 -0.193717,0.128528l-0.00287008 -7.87402e-006c0,-0.0210866 -0.000767717,-0.0421339 -0.0015748,-0.0630433 -0.0051378,-0.0237953 -0.0260472,-0.0418465 -0.0514488,-0.0423031 -0.0293071,-0.000559055 -0.0534528,0.0224409 -0.054622,0.0515827 0.00166929,0.0311299 0.00368504,0.0653307 0.00368504,0.102921l7.87402e-006 0.451551 0 0.000377953 0 0.0032126c0.00101575,0.0307559 0.026378,0.055189 0.0571575,0.0548465 0.0285591,-0.000346457 0.0518346,-0.0217362 0.0555079,-0.0492165l3.93701e-006 -0.274469c0,-0.154583 0.031878,-0.26 0.177728,-0.26 0.0924724,-3.93701e-006 0.129996,0.0577638 0.129996,0.206512l0 0.318736 9.84252e-005 0 0 0.000129921 0 0.00038189 0 0.00327559c0.000984252,0.0307244 0.0263346,0.0550551 0.0572953,0.0547165 0.0284094,-0.000346457 0.0517047,-0.0217087 0.0553583,-0.0491378l0 -0.274512 -0.000133858 -0.000251969 0 -0.0605512c0,-0.121299 0.0794567,-0.199299 0.174728,-0.199299 0.131394,-3.93701e-006 0.133028,0.0910157 0.133028,0.184854l3.93701e-006 0.340394 0.000153543 0c0,0.000783465 -7.08661e-005,0.0016378 -7.08661e-005,0.0024685 0.000334646,0.0311654 0.0259488,0.0561693 0.0571299,0.0557559 0.0287717,-0.000279528 0.0521535,-0.022063 0.0554252,-0.0498858l3.93701e-006 -0.354508c0,-0.17474 -0.0319803,-0.283059 -0.225516,-0.283059zm-1.04947 -3.93701e-006c-0.102547,0 -0.164587,0.0491535 -0.213685,0.128531 -0.0216929,-0.046189 -0.0678504,-0.128528 -0.213705,-0.128528 -0.111236,-3.93701e-006 -0.163406,0.0620827 -0.193736,0.128528l-0.0028189 -7.87402e-006c0,-0.0210866 -0.000799213,-0.0421339 -0.00165354,-0.0630433 -0.00509449,-0.0237953 -0.0259843,-0.0418465 -0.0513858,-0.0423031 -0.0292913,-0.000559055 -0.0534724,0.0224409 -0.0546575,0.0515827 0.0016378,0.0311299 0.00367717,0.0653307 0.00367717,0.102921l0 0.451551 0 0.000377953 0 0.0032126c0.00103543,0.0307559 0.0263819,0.055189 0.0572598,0.0548465 0.0285118,-0.000346457 0.051752,-0.0217362 0.0554449,-0.0492165l0 -0.274469c0,-0.154583 0.0319449,-0.26 0.177717,-0.26 0.0924646,-3.93701e-006 0.129972,0.0577638 0.129972,0.206512l0 0.318736 0.000185039 0 0 0.000129921 0 0.00038189 0 0.00327559c0.000933071,0.0307244 0.0262677,0.0550551 0.0571929,0.0547165 0.0284921,-0.000346457 0.0517874,-0.0217087 0.0553937,-0.0491378l0 -0.274512 -9.84252e-005 -0.000251969 0 -0.0605512c0,-0.121299 0.0794055,-0.199299 0.17476,-0.199299 0.131394,-3.93701e-006 0.132929,0.0910157 0.132929,0.184854l0 0.340394 0.000204724 0c0,0.000783465 -0.000173228,0.0016378 -3.93701e-005,0.0024685 0.000334646,0.0311654 0.0259213,0.0561693 0.0571654,0.0557559 0.0287244,-0.000279528 0.0520866,-0.022063 0.0553622,-0.0498858l0 -0.354508c0,-0.17474 -0.0319488,-0.283059 -0.225484,-0.283063z" id="_423494816"/><path class="fil0" d="M2.08895 3.75132c-0.0005,-0.0100354 -0.000775591,-0.0200827 -0.000775591,-0.0301181l0 -0.290335c0,-0.183 -0.0784134,-0.265933 -0.263063,-0.265937 -0.0736024,0 -0.155638,0.015437 -0.213484,0.0637047 -0.0120039,0.0100157 -0.0112205,0.0290433 -0.0026811,0.0410354 0.0102638,0.0144134 0.0302677,0.0180236 0.0447717,0.00791339 0.000905512,-0.000771654 0.00179134,-0.00148031 0.00280315,-0.00215354l0.0154449 -0.0102638 0.00105512 0.00135433c0.0473189,-0.0249685 0.101661,-0.0376024 0.154933,-0.0376024 0.109417,-3.93701e-006 0.187508,0.0532638 0.187508,0.168776l0 0.0401654 -0.0632795 0c-0.0524882,0 -0.10524,0.00135827 -0.157358,0.00798819 -0.125547,0.0159724 -0.248661,0.0618976 -0.248657,0.208882 3.93701e-006,0.128472 0.118138,0.180709 0.231307,0.180705 0.0855354,0 0.159012,-0.0371102 0.205598,-0.109264l0.00590945 -0.00914961 0.0338307 0 0 0.0199961c0,0.0170315 -0.000937008,0.0339921 0.00109055,0.0509724 0.00213386,0.0178504 0.0207638,0.028878 0.0377874,0.0264882 0.0188307,-0.00264173 0.0307244,-0.0199921 0.0289134,-0.0384646 -0.000102362,-0.000531496 -0.000212598,-0.00106299 -0.00030315,-0.00160236l-0.00381496 -0.0230709 0.00246457 -1.9685e-005zm-0.0734882 -0.194835c0,0.130024 -0.0867756,0.223669 -0.219252,0.223669 -0.0897165,0 -0.168728,-0.0353583 -0.168728,-0.136976 0,-0.13035 0.156339,-0.149957 0.255445,-0.149957l0.132535 0 0 0.0632638zm-0.470374 -0.476819c0.00600787,-0.0193071 -0.00462992,-0.0399409 -0.0239488,-0.0460984 -0.0183228,-0.00583465 -0.0392638,0.00326772 -0.0454882,0.0218819 -0.000346457,0.00102362 -0.000724409,0.00201969 -0.00104331,0.00305118 -9.84252e-005,0.000370079 -0.000200787,0.00073622 -0.000311024,0.0011063l-0.00431496 0.0141732 -0.00076378 0c-0.00908661,0.0252205 -0.0188307,0.0503976 -0.0282756,0.0754173 -0.0188071,0.0498268 -0.0377402,0.0996102 -0.0567008,0.149386 -0.0308228,0.0809173 -0.0617283,0.161807 -0.0927087,0.242665l-0.00492126 0.0128425 -0.0302244 0 -0.197657 -0.500142c-0.000149606,-0.00034252 -0.000287402,-0.000688976 -0.000417323,-0.00103937l-0.00256693 -0.0066063c-0.00748819,-0.0192598 -0.0314882,-0.0259685 -0.0497953,-0.0190866 -0.019685,0.0073937 -0.0314134,0.0292795 -0.0241417,0.0494724 0.0130394,0.0361929 0.0287402,0.0728228 0.0432598,0.1085 0.0256496,0.0630197 0.0515394,0.125949 0.0774685,0.188854 0.0416142,0.100949 0.0837047,0.201709 0.125268,0.302669l0.00329134 0.00799213 -0.0181654 0.040063c-0.030874,0.0680945 -0.0587205,0.123031 -0.143827,0.123031 -0.0219921,0 -0.0297047,-0.00122441 -0.0352047,-0.00170472 -0.0145984,-0.00127953 -0.027563,0.00961024 -0.0312756,0.0233583 -0.00425197,0.015752 0.00414173,0.0342953 0.0207362,0.0381142 0.0171929,0.00395669 0.0354134,0.00414173 0.0529803,0.00414173 0.126185,0 0.164622,-0.0733661 0.206685,-0.179465 0.0427835,-0.106913 0.085622,-0.213839 0.128484,-0.32072 0.028437,-0.0709134 0.0568819,-0.141819 0.0854134,-0.212693 0.0142953,-0.0355118 0.0282323,-0.0724803 0.0435866,-0.10748 0.00109449,-0.00249213 0.00216929,-0.005 0.00319291,-0.00752362l0.000377953 -0.0012874c0.000295276,-0.000996063 0.000645669,-0.00191339 0.00100787,-0.00287402zm3.29974 0.620012c-0.052689,0.0493898 -0.121823,0.0704331 -0.193205,0.0704331 -0.146878,-3.93701e-006 -0.248854,-0.0889252 -0.254429,-0.237484l-0.000779528 -0.0207638 0.518866 0.00042126c0.00693701,3.93701e-006 0.0132205,-0.000185039 0.0195669,-0.00312992 0.00944488,-0.00438583 0.0117283,-0.0111181 0.0143622,-0.0205315 0.00128346,-0.009 0.000535433,-0.0239449 0.000322835,-0.0334606 -0.00880315,-0.176579 -0.120449,-0.292839 -0.298945,-0.292843 -0.194276,-3.93701e-006 -0.326587,0.143138 -0.326587,0.33528 0,0.19128 0.126594,0.335161 0.32228,0.335161 0.0901969,0 0.172469,-0.0177441 0.238441,-0.0826339 0.0121142,-0.0119134 0.0109764,-0.0316654 -0.000141732,-0.0438701 -0.0101575,-0.0111457 -0.0266929,-0.0137795 -0.039752,-0.00657874zm-0.446248 -0.264228c0.019622,-0.133193 0.111791,-0.214437 0.247295,-0.214441 0.134228,-3.93701e-006 0.229154,0.0805197 0.237358,0.216146l0.00127953 0.0212047 -0.489307 0 0.00337402 -0.0229094zm0.74072 -0.219594l0 -1.5748e-005c-0.000133858,-0.000614173 -0.00023622,-0.00122047 -0.000350394,-0.00183465 -0.00473622,-0.0180236 -0.0214606,-0.0310354 -0.0403937,-0.0270906 -0.0126299,0.00263386 -0.0225866,0.0122047 -0.0259843,0.0244724 0.00200394,0.037122 0.00414567,0.0740039 0.00414567,0.111224l0 0.464941c0,0.0182441 0.0198425,0.0303071 0.0364055,0.0301732 0.0199173,-0.00015748 0.0361496,-0.0162047 0.0362047,-0.0361772l3.93701e-006 -0.00144094c0,-0.000594488 0,-0.00118504 0,-0.00177953l0 -0.269413c0,-0.145661 0.0546102,-0.271185 0.217874,-0.271283 0.0069685,-3.93701e-006 0.0138228,0.000728346 0.0207638,0.00106299 0.000531496,2.3622e-005 0.00106693,3.93701e-005 0.00160236,4.33071e-005 0.0204331,0.000145669 0.0373031,-0.0159449 0.0375748,-0.0364724 0.000271654,-0.0203189 -0.0159803,-0.0372953 -0.0363819,-0.0374331 -0.0811496,-0.000547244 -0.173874,0.0398346 -0.209024,0.116925l-0.00535039 0.0117362 -0.0356457 -9.84252e-005 0 -0.0199409c0,-0.0192087 -0.000685039,-0.0384094 -0.00144488,-0.0575984zm-1.43866 0.538311l9.84252e-005 0 0 0.0237835c0,0.0199646 0.0176614,0.0349449 0.0370669,0.0347205 0.0156181,-0.000181102 0.0355945,-0.0116614 0.0355945,-0.0291417l0 -0.269531 -0.000133858 -0.000251969 0 -0.0655315c0,-0.0828976 0.0365709,-0.164055 0.114031,-0.20115 0.0252402,-0.0120906 0.0527244,-0.0181457 0.0806929,-0.0181457 0.0471496,0 0.094874,0.0109134 0.123673,0.0514134 0.0299606,0.0421417 0.0293504,0.103768 0.0293504,0.153437l3.93701e-006 0.320398 0.000153543 0 0 0.0199961c0,0.000834646 -5.11811e-005,0.00159055 -7.08661e-005,0.00242126 0.000106299,0.0201417 0.016874,0.0360394 0.0369055,0.0358071 0.0161614,-0.000185039 0.0356575,-0.0120236 0.0356575,-0.0298898l3.93701e-006 -0.354508c0,-0.0647835 -0.00256299,-0.157972 -0.0471929,-0.20974 -0.0385354,-0.0447008 -0.102677,-0.0533228 -0.158327,-0.0533228 -0.092626,0 -0.149433,0.0426102 -0.196661,0.119043l-0.0194173 0.0314252 -0.0156969 -0.0334409c-0.0136299,-0.0290472 -0.0295433,-0.054063 -0.0547992,-0.0745512 -0.0397598,-0.0322559 -0.0906378,-0.0424764 -0.140783,-0.0424764 -0.0869134,0 -0.140295,0.0396063 -0.175524,0.116831l-0.00535433 0.0117323 -0.0357047 -9.84252e-005 0 -0.0199409c0,-0.0200236 0.00109449,-0.0406496 -0.00141732,-0.0605394 -0.00190157,-0.0150669 -0.0178189,-0.0245512 -0.0319803,-0.024815 -0.0176024,-0.000326772 -0.034378,0.0131969 -0.0342559,0.0314567 0.000232283,0.0343465 0.00368504,0.0685669 0.00368504,0.103055l7.87402e-006 0.455142c0,0.0198425 0.0175394,0.0350787 0.0369291,0.0348504 0.0156969,-0.000181102 0.0357441,-0.0116417 0.0357441,-0.0292205l3.93701e-006 -0.274469c3.93701e-006,-0.142441 0.025811,-0.279992 0.197724,-0.279996 0.133764,-3.93701e-006 0.149992,0.117256 0.149992,0.226508l0 0.29874zm-1.04954 0l0.000185039 0 0 0.0237835c0,0.0199134 0.0175433,0.0349449 0.0369646,0.0347205 0.0156457,-0.000181102 0.0356299,-0.011626 0.0356299,-0.0291417l0 -0.270744 -9.84252e-005 -0.000251969 0 -0.0643189c0,-0.0827323 0.0363898,-0.16374 0.113598,-0.200949 0.0253661,-0.0122244 0.0530157,-0.0183465 0.0811575,-0.0183465 0.047122,0 0.0948346,0.0108976 0.123614,0.0513858 0.0299567,0.0421417 0.029311,0.103799 0.029311,0.153465l0 0.320398 0.000204724 0 0 0.0199961c0,0.000511811 -1.9685e-005,0.00101575 -4.33071e-005,0.00151969 0.00199213,0.0196299 0.0160669,0.0369488 0.0369449,0.0367087 0.0161535,-0.000185039 0.0355945,-0.0120472 0.0355945,-0.0298898l0 -0.354508c0,-0.0647795 -0.00255906,-0.157988 -0.047185,-0.209756 -0.0385315,-0.0446929 -0.102665,-0.053311 -0.158303,-0.053311 -0.0926457,0 -0.149413,0.0426378 -0.196681,0.119055l-0.0194134 0.0313898 -0.015689 -0.0334094c-0.0136457,-0.0290472 -0.0295315,-0.0540591 -0.0547913,-0.0745551 -0.0397638,-0.0322677 -0.0906654,-0.0424764 -0.140815,-0.0424764 -0.0868819,0 -0.140311,0.0396457 -0.175547,0.116835l-0.00535039 0.0117283 -0.0356535 -9.84252e-005 0 -0.0199409c0,-0.0200315 0.00102362,-0.0406339 -0.00149606,-0.0605315 -0.00190551,-0.0150748 -0.0177402,-0.0245591 -0.0319173,-0.0248228 -0.0176024,-0.000326772 -0.0344016,0.0132126 -0.0342913,0.0314724 0.000204724,0.0343346 0.00367717,0.0685591 0.00367717,0.103039l0 0.455142c0,0.0199016 0.0176063,0.0350787 0.0370315,0.0348504 0.015689,-0.000181102 0.0356811,-0.0116654 0.0356811,-0.0292205l0 -0.274469c0,-0.142398 0.0258504,-0.279992 0.197713,-0.279996 0.13376,-3.93701e-006 0.149969,0.117272 0.149969,0.226508l0 0.29874z" id="_423494744"/><path class="fil0" d="M5.70878 3.50851l0 0c-0.00519685,0 -0.0103228,-0.000716535 -0.015252,-0.00214961l-0.0070748 -0.00352362c-0.0174882,-0.00973622 -0.216882,-0.144311 -0.218752,-0.179976 -0.000248031,-0.00466535 0.00172047,-0.00887008 0.00546063,-0.0114488 0.0039252,-0.00272441 0.00927165,-0.00409055 0.0162795,-0.00409055 0.0467677,-3.93701e-006 0.176453,0.0617559 0.252217,0.10326 0.0230315,0.0182638 0.0281535,0.0492047 0.0130787,0.0728504 -0.0101693,0.0157008 -0.0273031,0.0250827 -0.0459567,0.0250787z" id="_423495104"/><path class="fil0" d="M5.48944 3.09612l0 0c-0.00701575,0 -0.0123622,-0.00136614 -0.0162874,-0.00412205 -0.00374016,-0.00259843 -0.0057126,-0.00675197 -0.00546063,-0.0114331 0.00194094,-0.035815 0.201264,-0.170291 0.218752,-0.179941l0.00561417 -0.00290945c0.0063937,-0.00203543 0.0115472,-0.00276772 0.0167087,-0.00276772 0.0186614,0 0.0358189,0.00934252 0.0459252,0.0249843 0.0151102,0.0237244 0.0100197,0.0546654 -0.0118228,0.0720157 -0.0769843,0.0423858 -0.206677,0.104177 -0.253429,0.104173z" id="_423494456"/><path class="fil0" d="M5.82075 3.25306l-0.000720472 0c-0.00265354,0 -0.262571,-0.000614173 -0.283075,-0.0422008 -0.00201969,-0.00407874 -0.00170472,-0.00870866 0.000783465,-0.0126535 0.0191063,-0.0307244 0.258394,-0.0524173 0.278417,-0.0524488l0.0061811 6.69291e-005c0.0251102,0.00544094 0.0426142,0.0257835 0.044185,0.0497205 0.00198819,0.0279646 -0.0174213,0.0525945 -0.0450551,0.0573898l-0.000716535 0.000125984z" id="_423494864"/></g></g><rect class="fil1" height="6.82666" width="6.82666"/></svg>