<?xml version="1.0" ?><!DOCTYPE svg  PUBLIC '-//W3C//DTD SVG 1.1//EN'  'http://www.w3.org/Graphics/SVG/1.1/DTD/svg11.dtd'><svg height="6.82666in" style="shape-rendering:geometricPrecision; text-rendering:geometricPrecision; image-rendering:optimizeQuality; fill-rule:evenodd; clip-rule:evenodd" viewBox="0 0 6.82666 6.82666" width="6.82666in" xml:space="preserve" xmlns="http://www.w3.org/2000/svg" xmlns:xlink="http://www.w3.org/1999/xlink"><defs><style type="text/css">
   <![CDATA[
    .fil1 {fill:none}
    .fil0 {fill:#212121;fill-rule:nonzero}
   ]]>
  </style></defs><g id="Layer_x0020_1"><path class="fil0" d="M5.92 3.41333c0,0.692181 -0.280571,1.31886 -0.734189,1.77248 -0.453622,0.453618 -1.08029,0.734189 -1.77248,0.734189 -0.692181,0 -1.31886,-0.280571 -1.77248,-0.734189 -0.453618,-0.453618 -0.734189,-1.0803 -0.734189,-1.77248 0,-0.692193 0.280571,-1.31886 0.734189,-1.77248 0.453618,-0.453618 1.0803,-0.734189 1.77248,-0.734189 0.692181,0 1.31886,0.280571 1.77248,0.734189 0.453488,0.453492 0.73398,1.08015 0.733984,1.77248l0.000208661 0zm-0.809606 1.69706c0.434311,-0.434311 0.702937,-1.03431 0.702937,-1.69706l0.000208661 0c0,-0.662606 -0.268713,-1.26262 -0.70315,-1.69706 -0.434311,-0.434311 -1.03431,-0.702937 -1.69706,-0.702937 -0.662744,0 -1.26275,0.268626 -1.69706,0.702937 -0.434307,0.434311 -0.702937,1.03431 -0.702937,1.69706 0,0.662744 0.26863,1.26275 0.702937,1.69706 0.434307,0.434307 1.03431,0.702937 1.69706,0.702937 0.662744,0 1.26275,-0.26863 1.69706,-0.702937z"/><path class="fil0" d="M5.2594 2.93271c-0.000216535,0.0523425 -0.0136693,0.0999488 -0.0366457,0.140563 -0.0248071,0.0438504 -0.0606772,0.0794409 -0.102969,0.103992 -0.0421614,0.0244843 -0.0908858,0.0379961 -0.141531,0.0377874 -0.0469606,-0.000192913 -0.0952992,-0.0121772 -0.141209,-0.0381535 -0.052626,-0.0297835 -0.105252,-0.0578622 -0.157894,-0.0837008 -0.0526457,-0.0258346 -0.106705,-0.0501299 -0.162535,-0.0725157 -0.110531,-0.044315 -0.222665,-0.0812677 -0.336075,-0.112209 -0.112819,-0.0307795 -0.22876,-0.0559843 -0.347087,-0.0768583 -0.0815906,-0.0143858 -0.163043,-0.026315 -0.244291,-0.0358346 -0.0832559,-0.00975591 -0.166209,-0.0170827 -0.248819,-0.0220394 -0.0872244,-0.00524016 -0.173339,-0.00816535 -0.258256,-0.0086378 -0.0853465,-0.000472441 -0.171488,0.00147638 -0.258453,0.00597638 -0.0978504,0.00505906 -0.196055,0.0130551 -0.29474,0.0250787 -0.0972756,0.0118504 -0.194035,0.027626 -0.290138,0.0483819 -0.0625512,0.0135079 -0.124492,0.030126 -0.186374,0.0467244l-0.0259488 0.00695276c-0.0257165,0.00687008 -0.0518425,0.0107559 -0.0786299,0.0110512 -0.0267638,0.000295276 -0.0535079,-0.00317717 -0.080378,-0.0110354 -0.0589724,-0.0172559 -0.108776,-0.0522992 -0.144244,-0.0984606 -0.0352795,-0.0459291 -0.0563465,-0.102996 -0.0580866,-0.164602 -0.00170866,-0.060563 0.0162913,-0.118972 0.0494803,-0.166878 0.0329016,-0.0474921 0.0805,-0.0847756 0.138469,-0.103882 0.0345039,-0.011374 0.0706496,-0.0218465 0.107764,-0.0317165 0.0358701,-0.00954331 0.0718189,-0.0182402 0.107697,-0.0265315 0.089752,-0.020748 0.179331,-0.0374134 0.26876,-0.0508858 0.0878819,-0.0132402 0.178413,-0.0236929 0.270843,-0.032126 0.0963543,-0.00879528 0.192732,-0.0146142 0.289087,-0.0175276 0.0962638,-0.00291732 0.192626,-0.00294882 0.289031,-0.000188976 0.237626,0.00679921 0.472795,0.0275512 0.704705,0.0660276 0.232398,0.0385551 0.462079,0.0949882 0.688362,0.173114 0.0934134,0.0322441 0.184228,0.0680039 0.272087,0.107724 0.0893819,0.0404094 0.176445,0.0850079 0.260886,0.134276 0.0352913,0.0205984 0.0651772,0.0459055 0.0889055,0.0766496 0.0239764,0.0310591 0.0410472,0.0670394 0.0503858,0.108594 0.00319685,0.0141969 0.00453937,0.0269803 0.00588189,0.0397598 0.000633858,0.00608661 0.00125984,0.0120709 0.00154331,0.0142559l0.000417323 0.00687402zm-0.129142 0.0880669c0.0138701,-0.0245197 0.0221929,-0.0533346 0.0228504,-0.0851929 -0.000740157,-0.00590945 -0.00113386,-0.00958268 -0.00150394,-0.0131693 -0.00102362,-0.00975197 -0.00205118,-0.0195197 -0.00379528,-0.0272638 -0.00582283,-0.0259173 -0.0162598,-0.0480827 -0.0308031,-0.0669252 -0.0147913,-0.0191654 -0.0344882,-0.035563 -0.0584882,-0.0495709 -0.0819646,-0.0478228 -0.165657,-0.0907441 -0.250886,-0.129276 -0.0867441,-0.0392165 -0.174429,-0.0738386 -0.262921,-0.104386 -0.219831,-0.0758976 -0.44372,-0.130846 -0.670866,-0.168531 -0.22763,-0.0377638 -0.458039,-0.058122 -0.690531,-0.0647756 -0.0944213,-0.00270079 -0.188839,-0.00266929 -0.283205,0.000188976 -0.0942756,0.00285039 -0.188429,0.0085315 -0.282417,0.0171102 -0.0868386,0.0079252 -0.17489,0.0181969 -0.264591,0.0317087 -0.0881535,0.0132795 -0.175213,0.0294213 -0.260846,0.0492165 -0.0349724,0.00808268 -0.0698661,0.0165197 -0.104358,0.0256969 -0.033248,0.00884252 -0.0670236,0.018685 -0.10152,0.0300551 -0.0354134,0.0116693 -0.0643858,0.0342992 -0.0843031,0.0630472 -0.0206063,0.0297441 -0.0317835,0.0659882 -0.0307244,0.103547 0.00108268,0.0384409 0.0142953,0.0741339 0.0364173,0.102933 0.0219764,0.0286024 0.0527913,0.0502992 0.0892441,0.0609646 0.0167087,0.00488583 0.0333346,0.00704331 0.0499606,0.0068622 0.0166063,-0.000181102 0.033937,-0.00289764 0.0519685,-0.0077126l0.0259488 -0.00695276c0.0635276,-0.0170394 0.127114,-0.0341024 0.191374,-0.0479764 0.0994252,-0.0214764 0.19952,-0.0377953 0.300138,-0.0500512 0.0991969,-0.0120827 0.199945,-0.0202283 0.301819,-0.0254961 0.0873425,-0.00451969 0.175457,-0.0064685 0.264287,-0.00597638 0.089248,0.0005 0.177268,0.0034252 0.264091,0.0086378 0.0856969,0.00514173 0.170614,0.0126102 0.254654,0.0224567 0.0842362,0.00987008 0.16778,0.0220748 0.250535,0.0366693 0.119059,0.0210039 0.237972,0.0469803 0.356669,0.0793622 0.118091,0.0322165 0.234173,0.0704252 0.347744,0.115957 0.0569606,0.0228386 0.113469,0.0482913 0.169622,0.0758465 0.0561457,0.0275591 0.110575,0.0565472 0.16372,0.086622 0.0293622,0.0166102 0.0598425,0.0242795 0.0891299,0.0243976 0.0312087,0.000125984 0.0614409,-0.0083189 0.0877835,-0.0236142 0.0262165,-0.0152205 0.0484488,-0.0372638 0.0638031,-0.0644094z"/><path class="fil0" d="M2.98551 3.53357c-0.142094,0.000606299 -0.28635,0.0100591 -0.43098,0.0303819 -0.134445,0.0188898 -0.268846,0.0472323 -0.401673,0.0866535 -0.0276299,0.00819685 -0.0557087,0.012563 -0.084122,0.0121378 -0.0295472,-0.000440945 -0.0587008,-0.00593307 -0.0871732,-0.0174685 -0.0466772,-0.0189055 -0.0851772,-0.0516693 -0.111587,-0.0920118 -0.0264882,-0.0404646 -0.040874,-0.0888346 -0.0392126,-0.138783 0.00171654,-0.0517874 0.0186732,-0.100354 0.0478819,-0.139709 0.0288583,-0.0388858 0.0695669,-0.0687441 0.119315,-0.0839291 0.0403031,-0.0123071 0.0804055,-0.0236732 0.120236,-0.034126 0.0404252,-0.0106063 0.0817047,-0.0205669 0.123693,-0.0298898 0.102264,-0.0227165 0.203874,-0.0399173 0.304902,-0.0522795 0.100862,-0.0123425 0.20365,-0.0201811 0.308071,-0.0241417 0.221846,-0.00842126 0.441126,0.00172047 0.657783,0.0309016 0.216764,0.0291929 0.43098,0.0774646 0.642567,0.14528 0.107154,0.0343346 0.212126,0.0740551 0.314646,0.119642 0.102882,0.045748 0.202776,0.097122 0.299374,0.154575 0.0071063,0.0042126 0.0173228,0.0104646 0.0274488,0.0166575l0.00148819 0.000909449c0.0598307,0.0365472 0.094937,0.0907638 0.109051,0.148409 0.015685,0.0640591 0.00472047,0.132618 -0.0274764,0.185547 -0.0346732,0.0569724 -0.088315,0.0943819 -0.148421,0.109126 -0.0592205,0.0145276 -0.124531,0.00664961 -0.183606,-0.0266693l-0.0417795 -0.0235551c-0.0382283,-0.0218661 -0.0764764,-0.043752 -0.115433,-0.0636024 -0.121531,-0.0619449 -0.246504,-0.112925 -0.374311,-0.154677 -0.128618,-0.0420118 -0.260146,-0.074815 -0.393969,-0.100146 -0.103752,-0.0196378 -0.20748,-0.0342165 -0.312547,-0.0439409 -0.105772,-0.00979134 -0.213366,-0.014815 -0.324165,-0.0152913zm-0.445563 -0.0750354c0.148626,-0.0208819 0.29774,-0.0305984 0.445339,-0.0312165l0.000417323 0c0.114122,0.000480315 0.224839,0.00564567 0.333555,0.0157087 0.109496,0.0101378 0.216539,0.025126 0.322547,0.0451929 0.138626,0.0262402 0.274626,0.0601378 0.407299,0.103476 0.133492,0.0436063 0.263638,0.0966614 0.389728,0.160929 0.0408386,0.020811 0.080437,0.0434685 0.120016,0.0661063 0.0283504,0.0162205 0.025878,0.0150512 0.0409528,0.0235551 0.0345709,0.0194961 0.0724449,0.0241929 0.10652,0.0158346 0.0332244,-0.00814961 0.063063,-0.0291299 0.0825866,-0.0612126 0.0179803,-0.0295591 0.0239764,-0.0683937 0.0149803,-0.10513 -0.00780315,-0.031874 -0.0274724,-0.0620118 -0.0611378,-0.0825748l-0.00148819 -0.000909449c-0.0076811,-0.00469685 -0.0153031,-0.00936614 -0.0261969,-0.0158228 -0.093937,-0.0558701 -0.190193,-0.105433 -0.288539,-0.149165 -0.0986969,-0.0438858 -0.200059,-0.0822244 -0.303811,-0.115469 -0.205476,-0.0658583 -0.413583,-0.112744 -0.624236,-0.141114 -0.21078,-0.0283898 -0.424091,-0.0382559 -0.63987,-0.0300669 -0.0989961,0.00375197 -0.198606,0.0114488 -0.298906,0.0237244 -0.100146,0.0122559 -0.198531,0.0287874 -0.294902,0.0501929 -0.0395197,0.00877559 -0.0795197,0.0184528 -0.119937,0.0290551 -0.0394016,0.0103386 -0.0781378,0.0212992 -0.116071,0.0328819 -0.0269488,0.00822441 -0.0490394,0.0244449 -0.0647323,0.0455906 -0.0164803,0.0222087 -0.0260591,0.0499134 -0.0270472,0.0797087 -0.000909449,0.0274291 0.00720472,0.0543268 0.022126,0.077122 0.0148425,0.0226732 0.0363858,0.0410512 0.0624213,0.0515945 0.0162756,0.00659449 0.0324449,0.00972441 0.0484252,0.00996457 0.0171102,0.000255906 0.034811,-0.0026063 0.0528701,-0.00796457 0.13798,-0.0409528 0.277535,-0.0703819 0.417091,-0.0899921z"/><path class="fil0" d="M3.02972 3.84291c0.164587,0.00172835 0.326681,0.0136142 0.485803,0.0380984 0.160063,0.024626 0.31848,0.0620945 0.475012,0.114886 0.0861299,0.0290433 0.170429,0.0624055 0.252815,0.100181 0.0824094,0.0377874 0.162693,0.0798898 0.240776,0.12639l3.54331e-005 -6.29921e-005 0.00380709 0.00225984c0.0127913,0.00759055 0.0256496,0.0152283 0.0401929,0.0262717 0.0418228,0.0317638 0.0681732,0.0762874 0.0773307,0.124122 0.00917323,0.0479252 0.00124409,0.0991339 -0.0255,0.144106 -0.0263031,0.044252 -0.0672283,0.0752165 -0.113378,0.0897756 -0.0459291,0.0144882 -0.0971614,0.0128386 -0.144394,-0.00801969 -0.0141024,-0.00621654 -0.0269606,-0.013937 -0.0397598,-0.0216142l-0.0063189 -0.00377559 -3.54331e-005 6.29921e-005c-0.126957,-0.075252 -0.258713,-0.136106 -0.394909,-0.183646 -0.136161,-0.0475236 -0.27748,-0.0819409 -0.423551,-0.104315 -0.0904685,-0.0138504 -0.180354,-0.0231378 -0.269646,-0.0280157 -0.0905,-0.00494094 -0.180984,-0.00555512 -0.271398,-0.00200394 -0.117516,0.00461811 -0.234469,0.0151063 -0.350866,0.0308071 -0.116858,0.0157638 -0.23261,0.0366732 -0.347362,0.0620787 -0.012689,0.00279921 -0.0256535,0.00549213 -0.0390551,0.0075748 -0.0142717,0.00221654 -0.0288465,0.0037126 -0.0437402,0.00387402 -0.0487874,0.000531496 -0.0938819,-0.0164882 -0.129035,-0.045378 -0.0354882,-0.0291654 -0.0607913,-0.0705315 -0.0695,-0.118228 -0.00890945,-0.0488307 -0.00105118,-0.0965 0.0203937,-0.136701 0.0216614,-0.0406063 0.0569134,-0.073252 0.102547,-0.0915945 0.00900394,-0.00361811 0.0182441,-0.00657087 0.0275591,-0.0091378l0.000208661 0c0.00933858,-0.00257087 0.017252,-0.00442913 0.024815,-0.00612598 0.0962756,-0.0216102 0.193197,-0.040626 0.290854,-0.0563465 0.0987874,-0.0159016 0.197028,-0.0283425 0.294535,-0.0365906 0.0724606,-0.00612992 0.149949,-0.00992913 0.227429,-0.0137205 0.0321693,-0.0015748 0.0643425,-0.00315748 0.101,-0.0052126l0.00333465 0zm0.469969 0.143516c-0.154945,-0.0238425 -0.311,-0.0354646 -0.468035,-0.0372323 -0.0307795,0.00172047 -0.0660315,0.00345669 -0.101268,0.0051811 -0.0730315,0.0035748 -0.146075,0.00715354 -0.223681,0.0137205 -0.0972992,0.00822835 -0.192748,0.0202283 -0.286614,0.0353386 -0.095,0.0152913 -0.189736,0.0338937 -0.284193,0.0550945 -0.00737402,0.00165748 -0.0145039,0.00330315 -0.0200394,0.00482283l1.5748e-005 5.11811e-005c-0.00559449,0.00153937 -0.0110827,0.00329134 -0.0163071,0.00538976 -0.0216929,0.00871654 -0.0383228,0.0239882 -0.0483819,0.0428465 -0.0103858,0.0194724 -0.0140866,0.0431457 -0.00955906,0.0679528 0.00402756,0.0220551 0.0158346,0.0412717 0.0324134,0.0548976 0.0164291,0.0135039 0.0376417,0.0214567 0.0607047,0.0212047 0.00906299,-9.44882e-005 0.0186063,-0.00111417 0.0283228,-0.00262205 0.0105945,-0.00164567 0.0215315,-0.00392913 0.0323937,-0.00632283 0.118437,-0.0262205 0.237146,-0.0476969 0.35611,-0.063748 0.119421,-0.0161063 0.239689,-0.026878 0.360866,-0.0316417 0.0941063,-0.00369685 0.187791,-0.00308268 0.28098,0.00200394 0.0944055,0.00515748 0.187791,0.0147205 0.280063,0.0288504 0.15174,0.0232441 0.299429,0.0593071 0.442717,0.109315 0.143252,0.05 0.281413,0.113764 0.414075,0.192394l0.000208661 0.000208661 0.00656299 0.00392126c0.00935433,0.00561417 0.0187559,0.0112559 0.0280906,0.0153701 0.022689,0.0100197 0.047315,0.010811 0.0693937,0.00384646 0.0220433,-0.00695276 0.0414764,-0.0215472 0.0537953,-0.0422717 0.0130827,-0.0220039 0.0170079,-0.0468504 0.0125866,-0.0699409 -0.00441339,-0.0230433 -0.0169961,-0.0444134 -0.0369134,-0.0595394 -0.00761024,-0.00577953 -0.0189291,-0.0125 -0.0301929,-0.019185l-0.00380709 -0.00225984 -0.000208661 -0.000208661c-0.0750315,-0.0446969 -0.151921,-0.0850433 -0.230602,-0.121118 -0.0787835,-0.036122 -0.15961,-0.0681024 -0.242398,-0.0960157 -0.149693,-0.0504843 -0.302193,-0.0864685 -0.457098,-0.110303z"/></g><rect class="fil1" height="6.82666" width="6.82666"/></svg>