<?xml version="1.0" ?><!DOCTYPE svg  PUBLIC '-//W3C//DTD SVG 1.1//EN'  'http://www.w3.org/Graphics/SVG/1.1/DTD/svg11.dtd'><svg height="6.82666in" style="shape-rendering:geometricPrecision; text-rendering:geometricPrecision; image-rendering:optimizeQuality; fill-rule:evenodd; clip-rule:evenodd" viewBox="0 0 6.82666 6.82666" width="6.82666in" xml:space="preserve" xmlns="http://www.w3.org/2000/svg" xmlns:xlink="http://www.w3.org/1999/xlink"><defs><style type="text/css">
   <![CDATA[
    .fil1 {fill:none}
    .fil0 {fill:#212121;fill-rule:nonzero}
   ]]>
  </style></defs><g id="Layer_x0020_1"><path class="fil0" d="M1.68424 3.35028c-0.0339055,0.0543701 -0.0590669,0.171031 -0.0735984,0.306465 -0.0161693,0.150744 -0.0182795,0.321614 -0.00422047,0.456772l1.9685e-005 -3.93701e-006c0.0046378,0.0427008 0.0109055,0.0819803 0.0189331,0.115858l0 0.000208661c0.00688583,0.0290827 0.0148228,0.0529449 0.0238307,0.0699213 0.0117953,0.0223661 0.0272992,0.0400551 0.0452205,0.0521339 0.0168228,0.0113386 0.0358268,0.017752 0.0557992,0.0183661l0.00146063 0c0.013374,0.00076378 0.0256102,-0.000401575 0.120402,-0.0289134 0.10637,-0.0319921 0.295508,-0.0925236 0.66039,-0.209906l0.000204724 0c0.000925197,-0.000291339 0.320996,-0.101949 0.321205,-0.102051l0.010622 -0.00416535c0.0284843,-0.00727953 0.0524488,-0.0241063 0.0697795,-0.0475512 0.0185079,-0.0250315 0.029878,-0.0577717 0.0318622,-0.0950709l0 -0.000208661c0.00214567,-0.0387598 -0.00657087,-0.0747362 -0.023811,-0.103697 -0.0163701,-0.0274961 -0.0405945,-0.0488307 -0.0704646,-0.0600433l-0.00145669 -0.000417323c-0.000629921,-0.000251969 -0.203417,-0.0899252 -0.211264,-0.0899252l-0.0202087 -0.00416929c-0.392965,-0.162244 -0.598953,-0.246811 -0.714535,-0.291992 -0.104555,-0.0408661 -0.11926,-0.0438898 -0.132559,-0.0440039l-0.00166535 0c-0.0205433,-0.000862205 -0.0398583,0.00385827 -0.0571457,0.0137165 -0.0183189,0.0104449 -0.0349016,0.026811 -0.0489055,0.0486102l0.000106299 6.69291e-005zm-0.179433 0.295213c0.0160945,-0.150008 0.0462874,-0.282949 0.0890157,-0.351465l0.000417323 -0.000413386c0.0236181,-0.037 0.0529055,-0.0654606 0.0863031,-0.0845079 0.0345945,-0.0197283 0.073063,-0.0291811 0.113807,-0.0274724l0 1.9685e-005c0.0258189,0.000377953 0.050311,0.00475197 0.168807,0.0510709 0.11002,0.0430039 0.317598,0.128252 0.716205,0.292827l-0.000992126 0.00241339c0.058811,0.0219094 0.231472,0.0910315 0.232047,0.0912638l-4.72441e-005 0.00011811c0.0525551,0.0200984 0.094878,0.0573189 0.12322,0.104925 0.0279331,0.0469213 0.042126,0.103752 0.038811,0.163697l-1.1811e-005 0c-0.00315354,0.0585591 -0.0219567,0.111213 -0.052685,0.152776 -0.0318425,0.0430748 -0.0761102,0.0740472 -0.128945,0.0875512l-0.000145669 -0.000570866c-0.0566969,0.0185354 -0.318862,0.102476 -0.325661,0.10465l1.9685e-005 5.90551e-005c-0.371409,0.11948 -0.562717,0.180728 -0.662469,0.210732 -0.111335,0.0334882 -0.130949,0.0345551 -0.156654,0.0330866l3.93701e-006 -5.11811e-005c-0.0404646,-0.00151575 -0.0782283,-0.0141378 -0.111012,-0.0362362 -0.0322283,-0.0217205 -0.0595945,-0.0525669 -0.0798031,-0.0908819 -0.0133976,-0.025252 -0.0244606,-0.0575866 -0.0333661,-0.0951417l-4.72441e-005 1.1811e-005c-0.00883465,-0.0372835 -0.0157953,-0.0811142 -0.0210197,-0.129189l0 -0.000208661c-0.0148268,-0.142335 -0.0126969,-0.321547 0.00420079,-0.479063z"/><path class="fil0" d="M3.35935 5.73728c0.00477953,-0.0138583 0.00747638,-0.0264291 0.00953937,-0.125614 0.00224409,-0.107815 0.0031378,-0.307283 0.00414961,-0.693563l0 -0.000208661c3.93701e-006,-0.000929134 0.00169685,-0.306689 0.0025,-0.348161l-0.000271654 -1.5748e-005c0.00174409,-0.0294921 -0.00699213,-0.0578386 -0.0240866,-0.0818937 -0.018,-0.0253228 -0.0453504,-0.0462362 -0.079815,-0.0594409l-0.000208661 -0.000208661c-0.0357283,-0.0137638 -0.0725394,-0.0164764 -0.105551,-0.00900394 -0.0311417,0.00704724 -0.0589055,0.0233898 -0.0787638,0.0481929l-0.000830709 0.000830709c-0.000405512,0.000480315 -0.105579,0.133626 -0.166646,0.187984l0.00462992 0.00396063c-0.274925,0.322606 -0.418772,0.492272 -0.497961,0.588972 -0.071378,0.0871654 -0.0790079,0.100728 -0.0837795,0.114248 -0.00277559,0.00785433 -0.00475591,0.0160079 -0.00578346,0.0243819 -0.000956693,0.00779134 -0.00106693,0.0155118 -0.000228346,0.0230709l0 0.000625984c0.00112992,0.011378 0.00437795,0.0230276 0.00958268,0.0346457 0.00546457,0.0122008 0.0133307,0.024563 0.0234252,0.0367795l-1.5748e-005 1.1811e-005c0.0583504,0.069252 0.235697,0.158394 0.423039,0.227283 0.187394,0.0689094 0.380185,0.11585 0.469272,0.100657l1.5748e-005 9.05512e-005c0.0253937,-0.00476772 0.046811,-0.0139724 0.0634685,-0.0269803 0.0154646,-0.0120787 0.0271811,-0.0278031 0.0344488,-0.0466024l-0.000129921 -4.33071e-005zm0.115791 -0.123528c-0.00241339,0.116189 -0.00690551,0.134764 -0.0149567,0.15811l-0.000625984 0.00125197c-0.0142323,0.0381614 -0.0377638,0.0700787 -0.0691102,0.0945591 -0.0303346,0.023689 -0.0676024,0.0400472 -0.110362,0.0479331l-0.000625984 0.000208661c-0.107756,0.018378 -0.321622,-0.0312913 -0.523854,-0.105657 -0.202413,-0.0744291 -0.397827,-0.175311 -0.468228,-0.259173l-0.000204724 -0.000208661c-0.0158898,-0.0192244 -0.0287913,-0.0398583 -0.0384252,-0.0613622 -0.00976378,-0.0217992 -0.0159488,-0.0442913 -0.0182756,-0.0669409l-6.29921e-005 7.87402e-006c-0.00181496,-0.0163228 -0.00166142,-0.0322402 0.000228346,-0.0476535 0.00195276,-0.015874 0.00577953,-0.0315512 0.0112008,-0.0468858 0.00884646,-0.025063 0.0194843,-0.0459213 0.101701,-0.146327 0.0744134,-0.0908701 0.219528,-0.261969 0.499622,-0.590642l0.0159843 -0.018752 0.0244331 0c0.0333386,0 0.113276,-0.157008 0.12063,-0.171303l-0.000279528 -0.000224409c0.0352913,-0.0440748 0.0840315,-0.0729764 0.138346,-0.0852717 0.0529331,-0.0119764 0.111173,-0.00794094 0.166961,0.0134921l4.33071e-005 -0.000114173c0.0544724,0.020874 0.0985709,0.0551496 0.128571,0.0973543 0.0310433,0.0436811 0.0468819,0.0955157 0.0436693,0.149815l-0.000417323 0.00458268c-0.00026378,0.00179921 -0.00177559,0.329193 -0.00181102,0.337551l0 0.000208661c-0.00101575,0.387772 -0.00190945,0.587898 -0.00414961,0.695441z"/><path class="fil0" d="M4.64078 5.43604c0.0838346,-0.0334685 0.223343,-0.174346 0.346713,-0.331272 0.123335,-0.156882 0.22735,-0.325862 0.240232,-0.415567 0.00368898,-0.0258031 0.00168898,-0.0493031 -0.00548031,-0.0694843 -0.00671654,-0.0189016 -0.0182402,-0.0352362 -0.0340551,-0.0480354 -0.0110591,-0.00802362 -0.024878,-0.0151181 -0.115835,-0.0467874 -0.0987717,-0.0343898 -0.288965,-0.0972244 -0.65872,-0.218591 -0.000858268,-0.000279528 -0.276634,-0.0915433 -0.329563,-0.110571l-0.000322835 0.000834646c-0.027311,-0.0105827 -0.0569724,-0.0108465 -0.0853307,-0.0018622 -0.0297047,0.00940945 -0.0581024,0.0290669 -0.0813937,0.0578504l-0.000208661 0.000208661c-0.0242402,0.0296339 -0.0381614,0.0635787 -0.0410945,0.0972205 -0.00282283,0.0323228 0.00445276,0.0644488 0.0224331,0.092l0.000625984 0.00103937 0.130197 0.211295 0.000208661 0c0.219909,0.357311 0.337618,0.547618 0.402157,0.648295 0.0626299,0.0977087 0.0758504,0.113693 0.0869449,0.122346l0.000208661 0c0.0161575,0.012685 0.0344449,0.0200827 0.053937,0.0221535 0.0210354,0.00223228 0.0440945,-0.00144882 0.0681378,-0.0110748l0.000208661 0zm0.430461 -0.265437c-0.132961,0.169126 -0.289098,0.323276 -0.391118,0.36411l3.14961e-005 7.48031e-005c-0.0404409,0.016189 -0.0807087,0.0222244 -0.118972,0.0181614 -0.0395394,-0.00420079 -0.0763346,-0.0189724 -0.10852,-0.0442402l7.87402e-005 -0.000102362c-0.0206024,-0.0160984 -0.0399961,-0.037752 -0.11098,-0.148496 -0.0692362,-0.108008 -0.186563,-0.297626 -0.403409,-0.649957l0.000149606 -9.44882e-005 -0.1295 -0.210169 -1.1811e-005 7.87402e-006c-0.0315197,-0.0483031 -0.0443465,-0.103807 -0.0395197,-0.159079 0.00475591,-0.0545276 0.0266614,-0.108776 0.0646654,-0.155323l-2.3622e-005 -1.9685e-005c0.0367205,-0.045378 0.0828937,-0.076815 0.13222,-0.0924409 0.0508858,-0.016122 0.104988,-0.0153031 0.155748,0.00436614l0.00833465 0.00416535c0.000677165,0.000409449 0.315224,0.103189 0.316134,0.103484 0.366039,0.120146 0.555799,0.182866 0.660807,0.219425 0.109177,0.0380118 0.125685,0.0480512 0.145492,0.0627598l0.00166929 0.00125197c0.0316654,0.0254213 0.0547126,0.0580039 0.0681457,0.095811 0.0128504,0.0361654 0.0166535,0.076748 0.0104803,0.119902 -0.0156102,0.108681 -0.128752,0.297035 -0.261902,0.466402z"/><path class="fil0" d="M4.26821 3.60657c0.415835,-0.100591 0.632457,-0.153752 0.750768,-0.184854 0.105976,-0.0278583 0.121453,-0.0345472 0.133327,-0.0421299l-2.3622e-005 -3.14961e-005c0.0168622,-0.0114843 0.029563,-0.0267441 0.0376142,-0.0449094 0.00862598,-0.0194646 0.0123268,-0.042689 0.0106024,-0.0687598l-0.000208661 -0.00333465c0,-0.00109449 6.69291e-005,-0.00240945 0.00015748,-0.00379528 -0.0110315,-0.0945157 -0.102634,-0.2695 -0.212937,-0.432677 -0.110028,-0.162772 -0.235803,-0.309835 -0.315516,-0.349043 -0.0235394,-0.0112362 -0.0466496,-0.0164803 -0.0682717,-0.0156732 -0.0200394,0.000748031 -0.039248,0.00693307 -0.0566614,0.0185945l-0.000208661 0.000208661c-0.0111535,0.00737402 -0.0222165,0.0183858 -0.0831457,0.0989094 -0.0670748,0.0886496 -0.184449,0.249016 -0.407303,0.553819 -0.000562992,0.00076378 -0.183894,0.251579 -0.207134,0.280583l0.000102362 8.66142e-005c-0.0186614,0.0226693 -0.028122,0.0504134 -0.0283346,0.0795236 -0.000224409,0.0309252 0.00981102,0.0638425 0.0301417,0.0948189l0 0.000208661c0.0211417,0.0326181 0.0492835,0.0566614 0.0800354,0.0700827 0.0289449,0.0126299 0.0602953,0.0157441 0.0899528,0.00745669l0.115276 -0.0322283 -0.00283858 0.0056811c0.0384646,-0.00971654 0.0822362,-0.020248 0.134583,-0.0326378l2.3622e-005 0.000102362zm0.777854 -0.0819409c-0.115165,0.0302756 -0.332807,0.0836654 -0.753295,0.185378l-0.000417323 0.000208661c-0.0695433,0.0164606 -0.122059,0.0291024 -0.158264,0.0385039 -0.0387992,0.0100748 -0.0659843,0.0180118 -0.0846693,0.0249567l-0.00320472 -0.00464173c-0.052811,0.0139331 -0.107567,0.00844488 -0.157496,-0.0133425 -0.049374,-0.0215472 -0.0939173,-0.0591378 -0.12661,-0.10952l-9.44882e-005 6.29921e-005c-0.031878,-0.0485787 -0.0476063,-0.101945 -0.0472283,-0.153567 0.000389764,-0.0534488 0.0179134,-0.104579 0.0525079,-0.146602l0.00208268 -0.00229134c0.00576772,-0.00622835 0.200614,-0.273012 0.201193,-0.273795 0.224996,-0.307732 0.343335,-0.469425 0.408138,-0.555071 0.0709488,-0.0937717 0.0879646,-0.109323 0.109398,-0.123492l3.14961e-005 4.72441e-005c0.0341063,-0.0227717 0.0720197,-0.0348661 0.111839,-0.0363543 0.0385984,-0.00144094 0.0785276,0.00729921 0.117929,0.026126l0.000417323 0.000208661c0.0971102,0.0474685 0.238587,0.209102 0.35752,0.385051 0.118272,0.174957 0.217091,0.368012 0.230331,0.480453 0.00124409,0.00705118 0.0010748,0.0114882 0.000783465,0.0157047 0.00230315,0.0420827 -0.00448819,0.0808937 -0.019563,0.114906 -0.0161732,0.0364882 -0.0415236,0.0670354 -0.0751102,0.0899094l-0.00104331 0.000625984c-0.0212087,0.0138228 -0.040685,0.023811 -0.165173,0.0565354zm0.260886 -0.262079l3.93701e-006 7.48031e-005 3.93701e-006 -7.48031e-005 -7.87402e-006 0zm-1.31604 0.426386c-0.000574803,0.000870079 -0.00307874,0.00421654 -0.00307874,0.00421654l0.00914567 0.0045748 -0.00606693 -0.00879134z"/><path class="fil0" d="M3.38706 2.96992c-0.00701181,-0.160205 -0.0346378,-0.598535 -0.0623701,-1.0122 -0.0281142,-0.419457 -0.0561614,-0.811165 -0.0624921,-0.855469 -0.00608268,-0.0199016 -0.0167717,-0.0368976 -0.0314016,-0.0503031 -0.0162244,-0.0148661 -0.037815,-0.0259646 -0.0639606,-0.0324764 -0.0978268,-0.0242913 -0.344827,0.0191693 -0.587138,0.0872402 -0.241602,0.0678701 -0.473429,0.158693 -0.542795,0.229646 -0.0181535,0.0190394 -0.0305118,0.0397362 -0.0368976,0.0604528 -0.00544094,0.0176654 -0.00655512,0.035437 -0.00320472,0.0521339 0.018252,0.0336024 0.106874,0.175437 0.221433,0.356728 0.129256,0.204551 0.276587,0.435925 0.399512,0.628728l0.000208661 0 0.408622 0.644787 0.000208661 0.000622047c0.128039,0.207512 0.220488,0.178965 0.250634,0.169654l6.69291e-005 -1.1811e-005 0.000110236 -0.000110236c0.030185,-0.00951575 0.12124,-0.0382362 0.109465,-0.279217l0 -0.000208661zm0.0438819 -1.01928c0.0275512,0.41098 0.0551181,0.84924 0.0623622,1.01449l7.87402e-006 0c0.0157795,0.322874 -0.134295,0.370201 -0.184047,0.385886l-3.93701e-005 -0.000129921 -0.000133858 4.33071e-005 -0.00046063 7.87402e-005 3.93701e-005 0.000129921c-0.0493976,0.0152559 -0.200831,0.0620118 -0.371965,-0.214949l-0.000129921 8.26772e-005 -0.408622 -0.644787 0.000149606 -9.44882e-005c-0.131709,-0.206579 -0.285594,-0.448201 -0.39987,-0.629043 -0.122988,-0.19463 -0.217012,-0.345374 -0.229559,-0.371122l-0.00353937 -0.00979134c-0.00987008,-0.0375866 -0.00868898,-0.0772795 0.00320079,-0.11587 0.011189,-0.0362913 0.0318268,-0.0714724 0.0615866,-0.102634l0.000413386 -0.000417323c0.0823465,-0.0847402 0.333539,-0.186075 0.590614,-0.258291 0.257161,-0.0722402 0.525374,-0.116858 0.641303,-0.0880748 0.0435354,0.0108465 0.0807638,0.0304961 0.110213,0.0574764 0.0303819,0.0278346 0.0519488,0.0628819 0.0631811,0.103583l0.00125197 0.00520866c0.00625984,0.0365079 0.035252,0.43874 0.0640433,0.868224z"/></g><rect class="fil1" height="6.82666" width="6.82666"/></svg>