<?xml version="1.0" ?><!DOCTYPE svg  PUBLIC '-//W3C//DTD SVG 1.1//EN'  'http://www.w3.org/Graphics/SVG/1.1/DTD/svg11.dtd'><svg height="6.82666in" style="shape-rendering:geometricPrecision; text-rendering:geometricPrecision; image-rendering:optimizeQuality; fill-rule:evenodd; clip-rule:evenodd" viewBox="0 0 6.82666 6.82666" width="6.82666in" xml:space="preserve" xmlns="http://www.w3.org/2000/svg" xmlns:xlink="http://www.w3.org/1999/xlink"><defs><style type="text/css">
   <![CDATA[
    .fil1 {fill:none}
    .fil0 {fill:#212121;fill-rule:nonzero}
   ]]>
  </style></defs><g id="Layer_x0020_1"><path class="fil0" d="M2.08459 1.41925c-0.00143307,0.0010315 -0.000874016,0.000633858 0.000114173,-6.69291e-005l-1.1811e-005 -1.1811e-005 -0.000102362 7.87402e-005zm0.000255906 -0.000169291l0.00187795 -0.00133071c-0.00287795,0.00281102 -0.00598031,0.00571654 -0.0111614,0.00916535l-0.0679134 -0.0810394c0.00783858,-0.00821654 0.0174134,-0.0168307 0.0270039,-0.0247283 0.0111181,-0.00915354 0.0220551,-0.017189 0.0302165,-0.0224488l3.14961e-005 5.11811e-005c0.197748,-0.128594 0.411295,-0.227173 0.639031,-0.293323 0.224051,-0.0650827 0.461193,-0.0987598 0.709878,-0.0987598 0.230732,0 0.454992,0.0315709 0.668303,0.0905236 0.22002,0.0608071 0.427957,0.150815 0.618909,0.265406l-1.5748e-005 2.75591e-005c0.0177283,0.0104213 0.0523701,0.0336614 0.0854882,0.0607126 0.0241142,0.0196969 0.0479016,0.041626 0.0653031,0.0628898l-0.080622 0.069374c-0.000602362,-0.000661417 -0.00125984,-0.00123622 -0.0018622,-0.00188976l-1.1811e-005 1.1811e-005 -0.000122047 -0.000149606c-0.323063,-0.349228 -1.32199,0.454378 -1.32488,0.456685l-0.0324961 0.0259488 -0.0331299 -0.0255315c-0.179272,-0.138142 -0.350945,-0.254098 -0.508248,-0.343642 -0.15424,-0.0877992 -0.294323,-0.149949 -0.413693,-0.182354l0 -0.000208661c-0.083685,-0.0229528 -0.155614,-0.027622 -0.215039,-0.0215118 -0.0714409,0.00735039 -0.123138,0.0298701 -0.154244,0.0540669l7.87402e-006 7.87402e-006 -0.000106299 0.000102362 -1.9685e-005 -1.9685e-005 -0.000862205 0.000673228 -0.00150394 0.00116929 -0.00011811 0.000122047zm0.00187795 -0.00133071l0.000732283 -0.000507874 -0.000106299 -0.000106299 -0.000625984 0.000614173zm0.646791 -0.310244c-0.132524,0.0384921 -0.260075,0.0885276 -0.382307,0.149579 0.0413583,0.00389764 0.085878,0.0118504 0.133386,0.024874l5.11811e-005 -0.000192913c0.127406,0.0345906 0.275791,0.10028 0.438276,0.192772 0.151898,0.0864685 0.316445,0.196606 0.487874,0.326819 0.136067,-0.104417 0.670555,-0.496055 1.07992,-0.533244 -0.138433,-0.0696417 -0.284665,-0.126343 -0.436933,-0.168425 -0.20348,-0.0562362 -0.418201,-0.0863504 -0.639972,-0.0863504 -0.239421,0 -0.466661,0.0321142 -0.680295,0.0941693zm2.44089 0.675311c-0.0052874,-0.00573228 -0.0099685,-0.010437 -0.0146339,-0.0151299 -0.00718898,-0.00722835 -0.014374,-0.0144528 -0.0201063,-0.0208228l0.000114173 -0.000102362c-0.0347874,-0.0383543 -0.0731969,-0.0634055 -0.112563,-0.0787165 -0.0449764,-0.0174961 -0.0920039,-0.0225472 -0.136764,-0.0203465 -0.0486535,0.0157953 -0.169043,0.0597913 -0.337213,0.155055 -0.168,0.0951693 -0.382996,0.241024 -0.621335,0.460126 0.136945,0.137874 0.600575,0.619217 0.904264,1.11223 0.179988,0.292173 0.323799,0.553398 0.406622,0.822807 0.0668583,0.21748 0.0938346,0.439161 0.0679016,0.684661 0.141469,-0.182504 0.257264,-0.385846 0.341835,-0.604685 0.103488,-0.267783 0.160303,-0.55924 0.160303,-0.864598 0,-0.308941 -0.0582717,-0.604114 -0.164382,-0.875094 -0.11035,-0.281791 -0.272185,-0.537488 -0.473835,-0.755386l-0.000208661 0zm0.0607835 -0.0901299c0.00616929,0.00620472 0.012378,0.0124449 0.0175472,0.0180512l-0.000114173 0.000102362c0.210898,0.227917 0.379961,0.494862 0.494992,0.788614 0.110953,0.283346 0.171886,0.59161 0.171886,0.913843 0,0.318197 -0.0594724,0.62261 -0.167807,0.902929 -0.112421,0.290898 -0.277398,0.555374 -0.483051,0.781969l-0.00069685 0.0017874c-0.233736,0.256469 -0.52015,0.464539 -0.842087,0.606906 -0.309673,0.136941 -0.652106,0.21311 -1.01204,0.21311 -0.691972,0 -1.31863,-0.280685 -1.7723,-0.734358 -0.453665,-0.453677 -0.734343,-1.08036 -0.734343,-1.77234 0,-0.325524 0.0619449,-0.636634 0.174917,-0.922075 0.117028,-0.295701 0.288984,-0.563917 0.503685,-0.792118l1.9685e-005 1.9685e-005c0.013126,-0.0145945 0.128138,-0.137 0.30402,-0.148976l0.00646063 0c0.0861417,0.00498031 0.173535,0.0262283 0.259614,0.0583031 0.0848465,0.0316181 0.167949,0.0734764 0.246957,0.120394l0.00187402 0.00125197 0.00813386 0.00542126 0.00162598 0.000901575c0.32598,0.196819 0.584598,0.481846 0.58535,0.482669l0.0350276 0.0383819 -0.0377362 0.0359921c-0.158075,0.150783 -0.443201,0.481213 -0.699126,0.837512 -0.188972,0.263087 -0.361539,0.539705 -0.453906,0.76689 -0.172512,0.423433 -0.215039,0.717894 -0.216335,0.902654 0.0513543,-0.125732 0.126339,-0.261059 0.212673,-0.396102 0.234362,-0.366598 0.554169,-0.734921 0.703264,-0.894331l0 -0.000208661c0.0623228,-0.0661654 0.148059,-0.154945 0.241079,-0.250228 0.108268,-0.110906 0.226409,-0.230602 0.328705,-0.333409 0.163213,-0.165394 0.259705,-0.261807 0.259988,-0.262091l0.0369449 -0.0369409 0.0376378 0.036315c0.037437,0.036122 0.0742087,0.071752 0.110374,0.107094 0.0356614,0.0348543 0.0704606,0.0691732 0.104295,0.103043 0.155843,0.154858 0.292122,0.295602 0.409161,0.419681 0.115496,0.122445 0.214248,0.230929 0.294839,0.321012l0.000208661 0c0.0817953,0.0918543 0.200535,0.230831 0.307256,0.359327 0.0951063,0.114508 0.178988,0.218815 0.215917,0.270894 0.112441,0.157685 0.193205,0.299657 0.25089,0.418839 0.0277756,0.057378 0.0502874,0.109996 0.0684882,0.156925 0.0156535,-0.210287 -0.0103504,-0.40248 -0.0683583,-0.591165 -0.0796063,-0.258949 -0.219713,-0.513079 -0.39537,-0.798224 -0.352035,-0.5715 -0.926181,-1.1298 -0.927839,-1.13142l-0.0394646 -0.038626 0.0402992 -0.0380394c0.261476,-0.246823 0.498622,-0.408728 0.681996,-0.512606 0.185315,-0.104976 0.316512,-0.15126 0.363559,-0.16613l0.0127087 -0.00229134c0.0603583,-0.00396457 0.125126,0.00237795 0.188535,0.0270433 0.0538504,0.0209449 0.106138,0.0549331 0.153075,0.106732l0.000208661 0c0.00594094,0.00659843 0.0111457,0.0118307 0.0163583,0.0170748zm-0.947724 1.9924c-0.0776299,-0.0867638 -0.174756,-0.19339 -0.293079,-0.318831 -0.116827,-0.12385 -0.252398,-0.263882 -0.406665,-0.417177l-0.000208661 -0.000208661c-0.0330433,-0.0330787 -0.0675472,-0.0671063 -0.103252,-0.102 -0.0234764,-0.0229449 -0.047626,-0.0464055 -0.0723228,-0.070311 -0.0475354,0.0476417 -0.134528,0.134992 -0.222622,0.224264l-0.000208661 0.000208661c-0.101713,0.10222 -0.219591,0.22165 -0.328079,0.332783 -0.0918976,0.0941378 -0.177087,0.182358 -0.239835,0.248976l-0.000102362 -9.84252e-005c-0.14661,0.156768 -0.460874,0.518709 -0.691075,0.878803 -0.138461,0.216587 -0.245799,0.431043 -0.264941,0.595181 0.0170197,0.0181063 0.0342913,0.0359764 0.0518622,0.0535472 0.434354,0.434366 1.03435,0.703106 1.69688,0.703106 0.344886,0 0.672791,-0.0728898 0.96913,-0.203937 0.300299,-0.132795 0.568315,-0.325319 0.788858,-0.562209 -0.00942126,-0.0420039 -0.0409449,-0.160476 -0.126646,-0.33752 -0.0554803,-0.114618 -0.133264,-0.251315 -0.241724,-0.403421 -0.0361693,-0.0510118 -0.118094,-0.15289 -0.210917,-0.26465 -0.102402,-0.123299 -0.220224,-0.261016 -0.305169,-0.356406l0.00011811 -0.000102362zm-2.76166 1.20973c-0.0128189,-0.191315 0.0130866,-0.530205 0.219539,-1.03695 0.0955709,-0.235067 0.272748,-0.519362 0.466402,-0.788969 0.240677,-0.335071 0.507587,-0.64837 0.674059,-0.815287 -0.0789488,-0.0810157 -0.282134,-0.278102 -0.524425,-0.42478l-3.93701e-005 -1.9685e-005 -0.00583465 -0.00333465 0.000102362 -0.00015748c-0.000393701,-0.000405512 -0.00194488,-0.00158268 -0.00690945,-0.00482677l-1.5748e-005 2.3622e-005c-0.0746929,-0.0443543 -0.152236,-0.0835472 -0.229878,-0.11248 -0.0751693,-0.0280118 -0.150874,-0.046685 -0.224713,-0.0514134 -0.140854,0.0108701 -0.229311,0.113646 -0.229567,0.113941l-0.00125197 0.00145669c-0.205315,0.218224 -0.36987,0.475008 -0.482016,0.75837 -0.108126,0.273197 -0.167413,0.571083 -0.167413,0.882909 0,0.558988 0.191291,1.07348 0.511961,1.48152zm0.829701 -3.06934c-7.87402e-006,-3.93701e-006 0.000425197,0.000173228 0.000102362,-0.00015748l0.0294803 -0.0442165 0.00933071 -0.0139961 0.0163504 -0.0245276 0.00390157 -0.00585039 -0.000267717 -0.000177165 -0.00154724 -0.0010315m-0.0641575 0.0849724l-0.00188976 -0.00122835 0.0289567 -0.0445827 0.0289567 -0.0445827"/></g><rect class="fil1" height="6.82666" width="6.82666"/></svg>