<?xml version="1.0" ?><!DOCTYPE svg  PUBLIC '-//W3C//DTD SVG 1.1//EN'  'http://www.w3.org/Graphics/SVG/1.1/DTD/svg11.dtd'><svg height="6.82666in" style="shape-rendering:geometricPrecision; text-rendering:geometricPrecision; image-rendering:optimizeQuality; fill-rule:evenodd; clip-rule:evenodd" viewBox="0 0 6.82666 6.82666" width="6.82666in" xml:space="preserve" xmlns="http://www.w3.org/2000/svg" xmlns:xlink="http://www.w3.org/1999/xlink"><defs><style type="text/css">
   <![CDATA[
    .fil1 {fill:none}
    .fil0 {fill:#212121;fill-rule:nonzero}
   ]]>
  </style></defs><g id="Layer_x0020_1"><path class="fil0" d="M2.27398 2.83917c0.209669,0.185343 0.247425,0.378587 0.2875,0.583673 0.0273268,0.139878 0.0558307,0.285713 0.145717,0.433634l0.000208661 0.000208661c0.0435787,0.0729134 0.104677,0.133516 0.175756,0.179665 0.0749803,0.048685 0.160917,0.0812362 0.249102,0.0952047l0.000413386 0c0.156713,0.026122 0.314339,3.14961e-005 0.459,-0.0613976 0.160543,-0.0681772 0.30489,-0.17948 0.414693,-0.311382 0.151181,-0.193642 0.210299,-0.431638 0.269437,-0.66978 0.0439528,-0.177 0.0879449,-0.354083 0.169906,-0.519264 0.0318465,-0.0808307 0.0935236,-0.125071 0.166236,-0.145894 0.0881457,-0.0252441 0.192039,-0.0138504 0.272594,0.00666535l0.00791732 0.00270866c0.101547,0.043622 0.15939,0.127327 0.192217,0.223657 0.0304252,0.0892835 0.0385,0.189091 0.0407717,0.27511l0 0.00270472c-0.011622,0.411705 -0.159976,0.822547 -0.407516,1.15592 -0.238398,0.321067 -0.569008,0.570866 -0.958516,0.681394l-0.000208661 0c-0.368256,0.102358 -0.773681,0.067311 -1.1271,-0.0825 -0.341961,-0.144953 -0.635823,-0.397268 -0.801402,-0.736583l-0.00458268 -0.015 -0.124276 -0.766945 -0.000208661 -0.0158346c0.0279213,-0.192579 0.0936024,-0.309106 0.191331,-0.361043 0.0988937,-0.0525591 0.223606,-0.036 0.369547,0.0373661l0.0114606 0.00770866zm0.182917 0.604091c-0.0362087,-0.185319 -0.070378,-0.360028 -0.248295,-0.519988 -0.111157,-0.0547441 -0.201189,-0.0692559 -0.26563,-0.0350118 -0.0657362,0.0349331 -0.111815,0.123264 -0.134787,0.274291l0.121555 0.750146c0.154425,0.312031 0.426728,0.544563 0.743622,0.67889 0.331992,0.140728 0.712327,0.173807 1.05732,0.0779685l-1.5748e-005 -5.11811e-005c0.365764,-0.103791 0.67689,-0.339264 0.901846,-0.642228 0.234665,-0.316035 0.375382,-0.704933 0.386642,-1.09429 -0.00209055,-0.0769449 -0.00921654,-0.16537 -0.035315,-0.241949 -0.0234291,-0.068748 -0.0628504,-0.127992 -0.129685,-0.158236 -0.0655866,-0.0162323 -0.147283,-0.0252992 -0.213043,-0.00646457 -0.0428543,0.0122717 -0.0788504,0.0375433 -0.0965906,0.0830315l-0.00208268 0.00437402c-0.0774173,0.154854 -0.120374,0.327807 -0.163303,0.500673 -0.0618661,0.24911 -0.123701,0.498071 -0.289067,0.709839l-0.00103937 0.00124803c-0.120437,0.145087 -0.279098,0.267579 -0.455685,0.342571 -0.162441,0.0689803 -0.34028,0.0981378 -0.518165,0.0684843l1.1811e-005 -6.69291e-005c-0.102555,-0.0163031 -0.202567,-0.0542402 -0.289945,-0.110972 -0.084248,-0.0547047 -0.156917,-0.126949 -0.209094,-0.214248l6.29921e-005 -3.54331e-005c-0.100075,-0.164787 -0.130319,-0.319543 -0.159319,-0.467972z"/><path class="fil0" d="M3.74678 1.9994c0.11598,-0.0166654 0.20539,0.0302992 0.272055,0.106453 0.0820748,0.0937598 0.127094,0.23313 0.143075,0.344213l-0.000110236 1.5748e-005c0.0216732,0.138909 0.0341063,0.309134 0.00187402,0.461665 -0.0341378,0.161535 -0.117012,0.302969 -0.287528,0.370941l-0.021248 0.00375197c-0.155531,-0.00509449 -0.250709,-0.0978504 -0.309287,-0.219366 -0.0542087,-0.112461 -0.0754331,-0.248843 -0.0847638,-0.357421l0 -0.00229134c-0.00478346,-0.11726 -0.00372047,-0.258508 0.0296181,-0.386366 0.0353425,-0.13552 0.106165,-0.255079 0.241732,-0.31722l0.0145827 -0.00437402zm0.192055 0.176453c-0.0427244,-0.0488071 -0.0987205,-0.0796457 -0.169709,-0.0719606 -0.0963937,0.0474094 -0.148457,0.139126 -0.175748,0.243772 -0.0297559,0.11411 -0.0307323,0.244209 -0.0263701,0.353248l9.05512e-005 -7.87402e-006c0.00851575,0.0990748 0.0273543,0.222425 0.0743465,0.319917 0.0411654,0.0853976 0.105264,0.151213 0.205933,0.158776 0.123831,-0.0538661 0.185543,-0.163705 0.21213,-0.28952 0.0291772,-0.138067 0.0173622,-0.295378 -0.00280709,-0.424386l-0.000208661 -0.000625984c-0.013685,-0.0951299 -0.0509409,-0.212996 -0.117657,-0.289213z"/><path class="fil0" d="M2.81468 2.31506c0.0061378,-0.00613386 0.0120984,-0.0115866 0.0178386,-0.0163346 0.0424213,-0.0350827 0.0948268,-0.055252 0.147248,-0.0565079 0.0542874,-0.00129134 0.108122,0.0174094 0.151126,0.0603268l0.000208661 0.000208661c0.00406693,0.00407087 0.00780315,0.00805906 0.011185,0.0119488 0.119953,0.10302 0.203213,0.243114 0.245689,0.394921 0.0437087,0.156232 0.0441772,0.325402 -0.00308661,0.479547l-0.00104331 0.00333071c-0.0388228,0.101406 -0.12128,0.168953 -0.21798,0.20239 -0.048626,0.016811 -0.100862,0.0249016 -0.152732,0.0242087 -0.0523976,-0.00069685 -0.104441,-0.0101575 -0.152102,-0.0284055 -0.0931575,-0.0356654 -0.171252,-0.104457 -0.206799,-0.206894l-0.000129921 4.72441e-005c-0.0517008,-0.145992 -0.0651496,-0.312476 -0.0365315,-0.469882 0.027,-0.148516 0.0913701,-0.289307 0.196276,-0.398071l0.000834646 -0.000834646zm0.085752 0.0657441c-0.0038189,0.00315354 -0.0071811,0.00616142 -0.010063,0.00899213 -0.0896535,0.0930197 -0.144846,0.214366 -0.168217,0.342917 -0.0253071,0.139209 -0.0133937,0.286504 0.0323661,0.415717l0 0.000417323c0.0241063,0.0697205 0.0787559,0.117122 0.144425,0.142264 0.0364961,0.0139724 0.0759843,0.0212087 0.115441,0.0217362 0.0399803,0.000531496 0.0799646,-0.0056063 0.116898,-0.018374 0.0682835,-0.0236102 0.126138,-0.0702362 0.152807,-0.139437 0.0403504,-0.133728 0.0395276,-0.280764 0.00138976,-0.417083 -0.0373228,-0.133386 -0.110429,-0.256028 -0.215626,-0.345154l-0.00666535 -0.00666929c-0.00279921,-0.00338583 -0.00523622,-0.00611417 -0.00729528,-0.00816929l-0.000208661 -0.000208661c-0.0208189,-0.0208346 -0.0469882,-0.0299134 -0.0734213,-0.0292835 -0.028378,0.000677165 -0.0575118,0.0122205 -0.0818307,0.0323346z"/><path class="fil0" d="M0.96 0.906661l4.90667 0 0.0533346 0 0 0.0533346 0 4.90667 0 0.0533346 -0.0533346 0 -4.90667 0 -0.0533346 0 0 -0.0533346 0 -4.90667 0 -0.0533346 0.0533346 0zm4.85333 0.106669l-4.8 0 0 4.8 4.8 0 0 -4.8z"/></g><rect class="fil1" height="6.82666" width="6.82666"/></svg>