<?xml version="1.0" ?><!DOCTYPE svg  PUBLIC '-//W3C//DTD SVG 1.1//EN'  'http://www.w3.org/Graphics/SVG/1.1/DTD/svg11.dtd'><svg height="6.82666in" style="shape-rendering:geometricPrecision; text-rendering:geometricPrecision; image-rendering:optimizeQuality; fill-rule:evenodd; clip-rule:evenodd" viewBox="0 0 6.82666 6.82666" width="6.82666in" xml:space="preserve" xmlns="http://www.w3.org/2000/svg" xmlns:xlink="http://www.w3.org/1999/xlink"><defs><style type="text/css">
   <![CDATA[
    .fil1 {fill:none}
    .fil0 {fill:#212121;fill-rule:nonzero}
   ]]>
  </style></defs><g id="Layer_x0020_1"><path class="fil0" d="M4.08393 2.17383l0 0.887996 0.303969 0.191409 1.42255 -0.959083c-0.00540945,-0.0268425 -0.0185984,-0.0507598 -0.035126,-0.0702047 -0.0264803,-0.0311535 -0.058437,-0.0498858 -0.0788268,-0.0498858l0 -0.000208661 -1.61256 -2.3622e-005zm-0.106669 0.917252l0 -0.970378 0 -0.053126 0.0533346 0 1.6659 2.3622e-005 0 -0.000208661c0.0478465,0 0.113465,0.0329685 0.160079,0.0878071 0.0364528,0.0428858 0.0632008,0.0997992 0.0632008,0.165453l0 0.0282953 -0.0235433 0.0158701 -1.45947 0.983976 -0.013748 0.00666929c-0.00974409,0.0030748 -0.0224961,0.00452756 -0.0342205,0.00452756 -0.0113465,0 -0.0241535,-0.00150394 -0.0338622,-0.00432283l-0.0135433 -0.00603937 -0.339122 -0.213547 -0.025 -0.0157402 0 -0.0292598z"/><path class="fil0" d="M4.06059 3.27319l0.30952 0.212606 0.00145669 0.00103937c0.0132913,0.00976772 0.0329803,-0.000346457 0.0368858,-0.00252362l1.42884 -0.951827 0.0827087 -0.0550945 0 0.0994685 0 1.78351c0,0.105224 -0.0326732,0.183445 -0.0846929,0.237732 -0.0601142,0.0627283 -0.144213,0.0911732 -0.232705,0.0911732l-1.5722 0 -0.0533386 0 3.93701e-006 -0.0533346 0 -1.3188 0 -0.0533346 0.0533346 0 0.000188976 0 0.03 0.00937795zm0.24952 0.300516l0 3.93701e-006 -0.226374 -0.155496 0 1.16439 1.51887 0c0.0610157,0 0.11763,-0.0181732 0.156035,-0.058252 0.0335945,-0.0350591 0.0546929,-0.0886614 0.0546929,-0.163984l0 -1.68404 -1.34773 0.897795 -0.00229134 0.00146063c-0.00023622,0.000137795 -0.0811969,0.0495709 -0.153201,-0.00188189z"/><path class="fil0" d="M2.42824 2.92302c-0.0431496,0 -0.0815,0.00990157 -0.114984,0.0296654 -0.0346142,0.0204252 -0.0651732,0.0517205 -0.0916024,0.0938268l-9.44882e-005 -5.90551e-005c-0.0276339,0.0441457 -0.0486063,0.0963543 -0.062878,0.156594 -0.0145394,0.0613819 -0.0218228,0.130772 -0.0218228,0.208169 0,0.0786102 0.00728346,0.148559 0.0218228,0.209835 0.0141535,0.0596339 0.0350866,0.110898 0.0627638,0.153787 0.026437,0.0410354 0.0564173,0.0714134 0.0899094,0.0911772 0.0322165,0.0190118 0.0687008,0.0284882 0.109429,0.0284882l0 0.000208661c0.0424567,-7.87402e-006 0.080248,-0.00941732 0.113327,-0.0282165 0.0336378,-0.0191142 0.0632953,-0.0484213 0.088937,-0.0878937 0.0269173,-0.0414606 0.0473268,-0.0917559 0.0611811,-0.15085 0.0142362,-0.0607362 0.0213819,-0.130654 0.0213819,-0.209705 0,-0.0828543 -0.00694488,-0.156067 -0.0208543,-0.219606 -0.0134764,-0.0615551 -0.0333937,-0.113831 -0.0597638,-0.156795 -0.0249331,-0.0405984 -0.0538228,-0.070689 -0.0866772,-0.0902638 -0.0319567,-0.0190354 -0.0686496,-0.0285669 -0.110075,-0.0285709l0 0.000208661zm-0.16915 -0.0620039c0.0504134,-0.0297559 0.106831,-0.0446654 0.16915,-0.0446654l0 0.000208661c0.0610394,7.87402e-006 0.115921,0.0145394 0.164657,0.0435709 0.0478386,0.0285039 0.0888071,0.0705394 0.122929,0.126098 0.0327165,0.0533071 0.0570787,0.116559 0.0730945,0.189717 0.0155787,0.0711654 0.0233583,0.151878 0.0233583,0.242102 0,0.0868622 -0.00812205,0.164835 -0.0243031,0.23387 -0.0166142,0.070874 -0.0418937,0.132429 -0.0757638,0.184598 -0.0350748,0.054 -0.0769567,0.0948307 -0.125606,0.122476 -0.0492087,0.0279685 -0.104496,0.0419606 -0.165823,0.0419724l0 0.000208661c-0.059878,0 -0.114421,-0.0144646 -0.163594,-0.0434882 -0.0478937,-0.0282638 -0.089685,-0.0700236 -0.125327,-0.12535 -0.034374,-0.0532638 -0.0600315,-0.115504 -0.0769291,-0.186701 -0.0164882,-0.0694764 -0.0247441,-0.147626 -0.0247441,-0.234417 0,-0.0855669 0.00825591,-0.163157 0.0247441,-0.232752 0.0167598,-0.0707402 0.0423465,-0.133555 0.0767205,-0.188413l0 -0.000208661c0.0356378,-0.0567717 0.0781457,-0.0997402 0.127437,-0.128827z"/><path class="fil0" d="M2.93485 4.06397c-0.066122,0.0869803 -0.142583,0.152429 -0.229378,0.196252 -0.0872598,0.0440551 -0.184083,0.066122 -0.290476,0.066122l0 -0.000208661c-0.104291,-7.87402e-006 -0.198996,-0.0212913 -0.284146,-0.063815 -0.0850512,-0.0424724 -0.160244,-0.105913 -0.225618,-0.190287 -0.064252,-0.0831378 -0.112429,-0.178598 -0.144472,-0.286413 -0.0316654,-0.106563 -0.0475276,-0.224772 -0.0475276,-0.354677 0,-0.136862 0.0159764,-0.26111 0.0479488,-0.372717 0.0323228,-0.112839 0.081126,-0.212744 0.146413,-0.299689 0.0662677,-0.0882874 0.143587,-0.154661 0.231937,-0.199102 0.0887874,-0.0446575 0.18776,-0.0669921 0.296898,-0.0669921l0 0.000208661c0.103894,-1.1811e-005 0.198157,0.0213543 0.282693,0.0641339 0.0842913,0.0426575 0.158374,0.106323 0.222165,0.191028l0.000102362 -7.48031e-005c0.0628858,0.0833701 0.109961,0.179642 0.141205,0.288835 0.0308268,0.107713 0.0462402,0.227858 0.0462402,0.360465l-0.000208661 0c8.26772e-005,0.13611 -0.0158346,0.259496 -0.0477087,0.370114 -0.0323543,0.112283 -0.0810669,0.211236 -0.146067,0.296819zm-0.277291 0.101252c0.0724724,-0.0365906 0.136713,-0.0917598 0.192709,-0.165417 0.0570433,-0.0751063 0.0999213,-0.16239 0.128571,-0.261819 0.0290906,-0.100949 0.0436142,-0.214614 0.0435354,-0.340949l-0.000208661 0c0,-0.122886 -0.0140236,-0.233311 -0.0420669,-0.331299 -0.0276142,-0.0965118 -0.0688583,-0.181118 -0.123709,-0.253835l0 -0.000208661c-0.053685,-0.0713189 -0.115437,-0.124614 -0.185181,-0.159909 -0.0697047,-0.0352756 -0.147992,-0.0528898 -0.23478,-0.0528819l0 0.000208661c-0.0926614,0 -0.175661,0.0184449 -0.248984,0.0553228 -0.073752,0.0370984 -0.138709,0.0930551 -0.19485,0.16785 -0.0571063,0.0760512 -0.100079,0.164429 -0.128917,0.265106 -0.029189,0.101894 -0.0437756,0.216417 -0.0437756,0.343551 0,0.120197 0.0143307,0.228406 0.042937,0.324677 0.0282362,0.095 0.070437,0.178799 0.126559,0.251413 0.0551772,0.0712126 0.11815,0.124516 0.188949,0.15987 0.0706969,0.0353031 0.149571,0.0529764 0.23665,0.0529803l0 -0.000208661c0.0898504,0 0.170709,-0.0181732 0.242563,-0.0544528zm-1.64423 -2.62942l0 3.70931 2.78134 0.583138 0 -4.83081 -2.78134 0.538366zm-0.106669 3.75248l0 -3.79638 0 -0.0439016 0.0433346 -0.00838976 2.88801 -0.559016 0.0633346 -0.0122559 0 0.0645472 0 4.9609 0 0.0655354 -0.0641693 -0.0134528 -2.88801 -0.6055 -0.0425 -0.00891339 0 -0.0431693z"/></g><rect class="fil1" height="6.82666" width="6.82666"/></svg>