<?xml version="1.0" ?><!DOCTYPE svg  PUBLIC '-//W3C//DTD SVG 1.1//EN'  'http://www.w3.org/Graphics/SVG/1.1/DTD/svg11.dtd'><svg height="6.82666in" style="shape-rendering:geometricPrecision; text-rendering:geometricPrecision; image-rendering:optimizeQuality; fill-rule:evenodd; clip-rule:evenodd" viewBox="0 0 6.82666 6.82666" width="6.82666in" xml:space="preserve" xmlns="http://www.w3.org/2000/svg" xmlns:xlink="http://www.w3.org/1999/xlink"><defs><style type="text/css">
   <![CDATA[
    .fil1 {fill:none}
    .fil0 {fill:#212121;fill-rule:nonzero}
   ]]>
  </style></defs><g id="Layer_x0020_1"><g id="_422924424"><path class="fil0" d="M5.17969 1.78906c0.24185,-0.0277598 0.400354,-0.107965 0.497445,-0.226783 0.085378,-0.104488 0.125441,-0.240953 0.134417,-0.399335 -0.609606,0.156583 -1.25424,0.104571 -1.89144,0.053122 -0.868228,-0.0700984 -1.72244,-0.139051 -2.43236,0.333209 -0.283394,0.243224 -0.428024,0.559669 -0.464839,0.854846 -0.0212677,0.170528 -0.00662992,0.333335 0.0379291,0.470161 0.0434016,0.133276 0.114819,0.241193 0.208402,0.305949 0.0664055,0.0459488 0.144858,0.0703465 0.233213,0.0666063 -0.0623543,-0.463571 -0.0285709,-0.839969 0.113496,-1.11815 0.150528,-0.294748 0.419126,-0.477252 0.819484,-0.534453l0.00416535 -0.000417323c0.51476,-0.033689 1.0152,0.026689 1.53517,0.0894252 0.387614,0.0467677 0.78615,0.0948465 1.20492,0.105819zm0.579941 -0.159705c-0.115031,0.140776 -0.297331,0.23498 -0.571051,0.265866l-0.00708268 0.000208661c-0.428642,-0.0109606 -0.829445,-0.0593268 -1.21922,-0.106354 -0.514587,-0.0620866 -1.00989,-0.121839 -1.51367,-0.0891535 -0.362402,0.0522047 -0.60426,0.215067 -0.738079,0.477094 -0.136925,0.268118 -0.164323,0.641984 -0.0949094,1.10928l0.00770079 0.0518268 -0.0520748 0.00838189c-0.138732,0.0223307 -0.261138,-0.00868898 -0.362425,-0.0787795 -0.113425,-0.0784882 -0.198772,-0.205563 -0.249236,-0.360531 -0.049311,-0.151417 -0.065689,-0.33015 -0.0425118,-0.515988 0.0399134,-0.320016 0.196925,-0.662992 0.504795,-0.925606l0.005 -0.00395669c0.740976,-0.493984 1.6141,-0.423484 2.50157,-0.351831 0.652122,0.0526535 1.31215,0.105945 1.92365,-0.0681969l0.0678268 -0.019315 -0.00011811 0.070563c-0.000358268,0.211972 -0.0453937,0.396035 -0.160161,0.536492z" id="_422925072"/><polygon class="fil0" id="_422925024" points="2.49501,1.65757 1.66269,5.68046 2.39968,5.68046 3.2364,1.63632 3.34057,1.65757 2.49501,5.74442 2.48618,5.78713 2.44293,5.78713 1.59737,5.78713 1.53206,5.78713 1.54529,5.72317 2.39085,1.63632 "/><polygon class="fil0" id="_422924976" points="4.32705,1.81722 3.49535,5.68046 4.23199,5.68046 5.06844,1.79513 5.17261,1.81722 4.32705,5.74484 4.31794,5.78713 4.27497,5.78713 3.42941,5.78713 3.36347,5.78713 3.37733,5.72275 4.22289,1.79513 "/></g></g><rect class="fil1" height="6.82666" width="6.82666"/></svg>