<?xml version="1.0" ?><!DOCTYPE svg  PUBLIC '-//W3C//DTD SVG 1.1//EN'  'http://www.w3.org/Graphics/SVG/1.1/DTD/svg11.dtd'><svg height="6.82666in" style="shape-rendering:geometricPrecision; text-rendering:geometricPrecision; image-rendering:optimizeQuality; fill-rule:evenodd; clip-rule:evenodd" viewBox="0 0 6.82666 6.82666" width="6.82666in" xml:space="preserve" xmlns="http://www.w3.org/2000/svg" xmlns:xlink="http://www.w3.org/1999/xlink"><defs><style type="text/css">
   <![CDATA[
    .fil1 {fill:none}
    .fil0 {fill:#212121;fill-rule:nonzero}
   ]]>
  </style></defs><g id="Layer_x0020_1"><path class="fil0" d="M0.96 0.906661l4.90667 0 0.0533346 0 0 0.0533346 0 4.90667 0 0.0533346 -0.0533346 0 -4.90667 0 -0.0533346 0 0 -0.0533346 0 -4.90667 0 -0.0533346 0.0533346 0zm4.85333 0.106669l-4.8 0 0 4.8 4.8 0 0 -4.8z"/><path class="fil0" d="M3.04741 2.01058l0 1.18525 0.665039 0c0.0899488,0 0.163823,-0.00651181 0.221724,-0.0195236 0.0532992,-0.0119843 0.0920945,-0.028874 0.116445,-0.0506614l0.000208661 -0.000208661c0.0349528,-0.0308425 0.0624764,-0.0745827 0.0827165,-0.131283 0.0215866,-0.0604567 0.0346102,-0.134602 0.0392559,-0.2225l0.00267323 -0.050626 0.0504528 0 0.0888701 0 0.0533346 0 0 0.0533346 0 1.13804 0 0.0533346 -0.0533346 0 -0.0888701 0 -0.0462677 0 -0.00644094 -0.0460433c-0.0108898,-0.0778346 -0.0217953,-0.141083 -0.0325354,-0.189795l-0.000208661 0c-0.0104528,-0.0474291 -0.020252,-0.0804961 -0.0292441,-0.0992717l-7.08661e-005 3.54331e-005c-0.0115669,-0.0224685 -0.0270236,-0.0427087 -0.0462638,-0.0606181 -0.0197559,-0.0183819 -0.0438307,-0.0345197 -0.0721378,-0.0483189 -0.0285866,-0.013937 -0.0655157,-0.0245709 -0.11076,-0.0318031 -0.0470354,-0.00752362 -0.103547,-0.0113307 -0.169547,-0.0113307l-0.665039 0 0 1.02464c0,0.0718307 0.0015748,0.128791 0.00462598,0.170909 0.00277953,0.0384016 0.0063189,0.0629409 0.0105472,0.0736496l-0.000153543 5.90551e-005c0.00411811,0.00945276 0.00970079,0.0180984 0.0167953,0.0259685 0.00756693,0.00839764 0.0169921,0.0159173 0.0283346,0.0226024l-7.08661e-005 0.00011811c0.0101378,0.00540551 0.0270984,0.0098622 0.0507126,0.0133543 0.0278504,0.00411811 0.0631811,0.00618504 0.10578,0.00618504l0.554618 0c0.0917638,0 0.169953,-0.00295276 0.23415,-0.00904724 0.0629409,-0.00597638 0.11378,-0.0149606 0.152197,-0.0271299l0.000625984 0c0.0372756,-0.0113228 0.0739213,-0.0283189 0.110102,-0.0510472 0.0367913,-0.0231142 0.0730079,-0.0521378 0.108807,-0.0871378l-9.84252e-005 -9.84252e-005c0.0479606,-0.0479606 0.0962874,-0.107866 0.144957,-0.179594 0.0492283,-0.0725512 0.0997598,-0.158665 0.151571,-0.258217l0.0149606 -0.028752 0.0323307 0 0.0962756 0 0.0746654 0 -0.024248 0.070626 -0.281421 0.819587 -0.012378 0.0360433 -0.0380394 0 -2.51966 0 -0.0533346 0 0 -0.0533346 0 -0.0888701 0 -0.0533346 0.0533346 0 0.116028 0c0.0337559,0 0.0667244,-0.00414567 0.0988071,-0.0123504 0.032874,-0.00840157 0.0646024,-0.0208189 0.0950787,-0.0371457l0.00145669 -0.000834646c0.0198031,-0.00974016 0.0361457,-0.0218268 0.0491772,-0.0361614 0.0127008,-0.0139724 0.0225551,-0.0306339 0.0296929,-0.049878l0.000133858 5.11811e-005c0.00730315,-0.0214685 0.0130118,-0.056063 0.0171102,-0.103756 0.00438189,-0.0510433 0.00657874,-0.115626 0.00657874,-0.193736l0 -2.12385c0,-0.101409 -0.00487008,-0.182303 -0.0146969,-0.24274 -0.00878346,-0.054 -0.0203386,-0.0892913 -0.0347165,-0.105929l3.14961e-005 -2.75591e-005c-0.0224646,-0.0247638 -0.0530984,-0.043622 -0.0918976,-0.0565551 -0.0422992,-0.0140945 -0.0945551,-0.0211496 -0.156756,-0.0211496l-0.116028 0 -0.0533346 0 0 -0.0533346 0 -0.0896929 0 -0.0533346 0.0533346 0 2.51966 0 0.0505551 3.93701e-006 0.00257087 0.0508307 0.0362047 0.715902 0.00282283 0.0558346 -0.0559488 0 -0.0946299 0 -0.0438346 0 -0.00845669 -0.043126c-0.0164449,-0.0838425 -0.0336614,-0.154319 -0.0517244,-0.211508 -0.017252,-0.054626 -0.0347913,-0.0958701 -0.052689,-0.123787 -0.0175945,-0.0274488 -0.0391614,-0.0516772 -0.0648622,-0.0725669 -0.0261535,-0.0212598 -0.0569724,-0.0394016 -0.0926181,-0.054311l2.3622e-005 -5.11811e-005c-0.027748,-0.0100197 -0.0674567,-0.0178228 -0.119039,-0.023315 -0.0539646,-0.00574803 -0.120799,-0.00867323 -0.200417,-0.00867323l-0.843602 0zm-0.106669 1.23859l0 -1.29192 0 -0.0533346 0.0533346 0 0.896937 0c0.0819016,0 0.152516,0.00320472 0.211669,0.00950787 0.061185,0.00651575 0.110142,0.0166417 0.146724,0.0302441l0.00187402 0.000625984c0.0449921,0.0188189 0.0845433,0.042248 0.118862,0.0701457 0.0347756,0.0282677 0.0638228,0.0608346 0.0873661,0.0975669 0.0232441,0.0362559 0.0448031,0.0859606 0.0647756,0.149197 0.0136693,0.0432795 0.0268465,0.0935236 0.0395472,0.150764l-0.0293307 -0.579945 -2.1977 0c0.0119724,0.00294882 0.0235433,0.0062874 0.0347087,0.0100079 0.057126,0.0190433 0.103244,0.0481142 0.138327,0.0872087l0.000625984 0.000625984c0.0275748,0.0319055 0.0473071,0.0846772 0.0592992,0.158425 0.0109409,0.0673031 0.0163661,0.153878 0.0163661,0.259827l0 2.12385c0,0.0807047 -0.00233465,0.148205 -0.00699606,0.202484 -0.00488976,0.056878 -0.0126575,0.100559 -0.0232874,0.131l-0.000208661 0.00104331c-0.0117874,0.0317717 -0.028685,0.0599685 -0.0509449,0.0844606 -0.021937,0.0241299 -0.0488031,0.0441496 -0.0808386,0.0599094l-2.3622e-005 -4.33071e-005c-0.0357874,0.0190394 -0.0722795,0.033685 -0.109374,0.0438268l2.23256 0 0.226736 -0.660335c-0.0381339,0.0685591 -0.0763031,0.131008 -0.1145,0.187299 -0.0533622,0.0786457 -0.105854,0.143831 -0.157453,0.195429l-0.000417323 0.000208661c-0.041437,0.0405591 -0.0837205,0.0743976 -0.127039,0.10161 -0.0438583,0.0275512 -0.0889094,0.048374 -0.135366,0.0625433l5.51181e-005 0.000173228c-0.044685,0.0141575 -0.10289,0.0245197 -0.174283,0.0312953 -0.070122,0.00665748 -0.151587,0.00988189 -0.24415,0.00988189l-0.554618 0c-0.0472283,0 -0.0877047,-0.00248425 -0.121197,-0.00743701 -0.0367835,-0.00544488 -0.0663189,-0.014378 -0.0883504,-0.0268071l-0.00103937 -0.000413386c-0.0207441,-0.0122283 -0.0384803,-0.0265354 -0.0533346,-0.0430197 -0.0150472,-0.0167008 -0.0270157,-0.035685 -0.0360157,-0.0570709l-0.000625984 -0.00104331c-0.00811417,-0.0205551 -0.0140394,-0.055689 -0.0176339,-0.105319 -0.00332283,-0.0459213 -0.00504331,-0.105413 -0.00504331,-0.178406l0 -1.07797 0 -0.0533346 0.0533346 0 0.718374 0c0.0701654,0 0.132252,0.00437008 0.186217,0.013 0.0563858,0.00901575 0.103315,0.0227126 0.14076,0.0409685 0.0375079,0.0182835 0.0702047,0.0404055 0.0979646,0.0662402 0.0282795,0.0263228 0.0511102,0.0562992 0.0683504,0.0897835l0.000417323 0.00103937c0.0133268,0.0271535 0.026248,0.0685315 0.0384803,0.124031l-0.000200787 4.33071e-005c0.00572441,0.0259646 0.0114094,0.0551417 0.0170236,0.0875039l0 -0.867039c-0.0071811,0.0370866 -0.0163425,0.0712441 -0.0275,0.102492 -0.0262402,0.0735079 -0.0637402,0.131815 -0.112717,0.175031l-1.1811e-005 -1.1811e-005c-0.0381654,0.0340591 -0.0927165,0.0590827 -0.163728,0.0750472 -0.066563,0.0149606 -0.148213,0.0224449 -0.245055,0.0224449l-0.718374 0 -0.0533346 0 0 -0.0533346z"/></g><rect class="fil1" height="6.82666" width="6.82666"/></svg>