<?xml version="1.0" ?><!DOCTYPE svg  PUBLIC '-//W3C//DTD SVG 1.1//EN'  'http://www.w3.org/Graphics/SVG/1.1/DTD/svg11.dtd'><svg height="6.82666in" style="shape-rendering:geometricPrecision; text-rendering:geometricPrecision; image-rendering:optimizeQuality; fill-rule:evenodd; clip-rule:evenodd" viewBox="0 0 6.82666 6.82666" width="6.82666in" xml:space="preserve" xmlns="http://www.w3.org/2000/svg" xmlns:xlink="http://www.w3.org/1999/xlink"><defs><style type="text/css">
   <![CDATA[
    .fil1 {fill:none}
    .fil0 {fill:#212121;fill-rule:nonzero}
   ]]>
  </style></defs><g id="Layer_x0020_1"><g id="_423663944"><path class="fil0" d="M1.59092 5.38075l-0.393732 -4.41617 -0.00516142 -0.0579173 0.0580787 0 4.32646 0 0.0580866 0 -0.00516929 0.0579173 -0.394157 4.41548 -0.00329134 0.0368307 -0.0354606 0.00983465 -1.77172 0.491181 -0.0283307 0 -1.76685 -0.490492 -0.0354685 -0.00985039 -0.00328346 -0.036815zm-0.282732 -4.36742l0.385283 4.32144 1.71722 0.476717 1.72208 -0.477421 0.385701 -4.32073 -4.21029 0z" id="_423663800"/><path class="fil0" d="M3.41147 3.44726l0.0018622 0 0.665075 0 0.0580984 0 -0.0051811 0.0579173 -0.0628661 0.702461 -0.00333071 0.0371969 -0.0358386 0.00967717 -0.564484 0.152362 0 0.000141732 -0.0395866 0.0105787 -0.000515748 0.000137795 -0.0274961 0 -0.603209 -0.162878 -0.0358465 -0.0096811 -0.00332283 -0.0371929 -0.0342126 -0.38322 -0.244535 0 -0.192528 0 0.0674331 0.755689 1.0597 0.294201 1.06148 -0.294217 0.00487008 -0.0546614 0.127295 -1.42594 0 -0.000208661 0.00793307 -0.0873031 -0.087752 0 -1.11119 0 -0.0018622 0 -0.714846 0 -0.048563 0 -0.00435433 -0.048752 -0.0495039 -0.55463 -0.00516929 -0.0579173 0.0580866 0 0.76435 0 0.0018622 0 1.25784 0 0.00650787 -0.073 0.024685 -0.274567 0.00779528 -0.0874055 -1.29683 0 -0.0018622 0 -1.29819 0 0.00779921 0.0874055 0.128776 1.44381 1.16162 0zm0.0018622 0.106669l-0.0018622 0 -1.21019 0 -0.0485669 0 -0.00435039 -0.048752 -0.133122 -1.49256 -0.0129685 -0.145323 -0.00516535 -0.0579173 0.0580827 0 1.35628 0 0.0018622 0 1.35491 0 0.0580827 0 -0.00516535 0.0579173 -0.0129606 0.145323 -0.024685 0.274567 -0.0108543 0.121752 -0.00434646 0.048752 -0.0485709 0 -0.00172835 0 -1.30468 0 -0.0018622 0 -0.706264 0 0.0399843 0.447961 0.66628 0 0.0018622 0 1.11119 0 0.145953 0 0.0581969 0 -0.00527953 0.058126 -0.0132165 0.145429 -1.9685e-005 0 -0.127276 1.42574 -0.00814961 0.0914961 -0.00328346 0.0368307 -0.0354685 0.00983465 -1.10323 0.305787 -0.00440945 0.00129528 -0.00249213 0.000732283 -0.0291654 0.000208661 -1.10948 -0.308024 -0.0354646 -0.00984646 -0.0032874 -0.0368189 -0.0758898 -0.850425 -0.00516535 -0.0579173 0.0580827 0 0.250614 0 0.293098 0 0.0485669 0 0.00435039 0.048752 0.035248 0.39478 0.553551 0.149469 0.555059 -0.149819 0.0543504 -0.607343 -0.606972 0z" id="_423664376"/></g></g><rect class="fil1" height="6.82666" width="6.82666"/></svg>