<?xml version="1.0" ?><!DOCTYPE svg  PUBLIC '-//W3C//DTD SVG 1.1//EN'  'http://www.w3.org/Graphics/SVG/1.1/DTD/svg11.dtd'><svg height="6.82666in" style="shape-rendering:geometricPrecision; text-rendering:geometricPrecision; image-rendering:optimizeQuality; fill-rule:evenodd; clip-rule:evenodd" viewBox="0 0 6.82666 6.82666" width="6.82666in" xml:space="preserve" xmlns="http://www.w3.org/2000/svg" xmlns:xlink="http://www.w3.org/1999/xlink"><defs><style type="text/css">
   <![CDATA[
    .fil1 {fill:none}
    .fil0 {fill:#212121;fill-rule:nonzero}
   ]]>
  </style></defs><g id="Layer_x0020_1"><g id="_423671432"><path class="fil0" d="M1.59085 5.38074l-0.393748 -4.41615 -0.00516142 -0.0579173 0.0580787 0 4.32663 0 0.0580866 0 -0.00516929 0.0579173 -0.394169 4.41543 -0.00329134 0.0368307 -0.0354606 0.00983465 -1.77176 0.491232 -0.0283307 0 -1.76695 -0.490508 -0.0354685 -0.00984646 -0.00328346 -0.0368189zm-0.282748 -4.3674l0.385299 4.32142 1.71732 0.476732 1.72213 -0.477472 0.385713 -4.32068 -4.21046 0z" id="_423663728"/><path class="fil0" d="M3.40342 4.41677l-0.608343 -0.161622 -0.0359764 -0.00955906 -0.00339764 -0.0371063 -0.0350315 -0.382843 -0.437177 0 0.0674252 0.755091 1.06173 0.293976 1.06207 -0.294472 0.137598 -1.57665 -1.19536 0 -0.0214567 -0.101874 1.27374 -0.56624 0.0388661 -0.451831 -1.29115 0 -0.00549606 0 -1.29828 0 0.0385276 0.434154 1.26524 0 0.087311 0 0.0208346 0.102291 -0.087311 0.0374173 -1.23002 0.526449 0.0397992 0.453791 1.16939 0 0.661457 0 0.0580315 0 -0.00490551 0.0577087 -0.060122 0.707094 -0.00314173 0.0369134 -0.0358189 0.00996063 -0.601335 0.167146 -0.0277087 0.000208661zm-0.545276 -0.254976l0.558579 0.148402 0.551587 -0.153319 0.0520787 -0.612469 -0.603425 0 -1.21824 0 -0.0488465 0 -0.00427953 -0.048752 -0.0474331 -0.540827 -0.00335433 -0.0382795 0.0356457 -0.0152598 1.11409 -0.476831 -1.14143 0 -0.0485906 0 -0.00432677 -0.048752 -0.0479961 -0.540823 -0.0051378 -0.0579173 0.0580551 0 1.35633 0 0.00549606 0 1.34924 0 0.0580866 0 -0.00496063 0.0577087 -0.0465197 0.540823 -0.00269291 0.0312835 -0.0289764 0.0128819 -1.07356 0.477248 1.00293 0 0.0581772 0 -0.00505118 0.0579173 -0.145862 1.67132 -0.00320866 0.036752 -0.035752 0.00991339 -1.11198 0.308311 -0.0283307 0 -1.11137 -0.30772 -0.0354606 -0.0098189 -0.00329134 -0.0368465 -0.0758898 -0.849854 -0.00516929 -0.0579173 0.0580866 0 0.543744 0 0.0484764 0 0.00444094 0.0485433 0.0360787 0.39428z" id="_423664088"/></g></g><rect class="fil1" height="6.82666" width="6.82666"/></svg>