<?xml version="1.0" ?><!DOCTYPE svg  PUBLIC '-//W3C//DTD SVG 1.1//EN'  'http://www.w3.org/Graphics/SVG/1.1/DTD/svg11.dtd'><svg enable-background="new 0 0 300 300" height="6.82666in" style="shape-rendering:geometricPrecision; text-rendering:geometricPrecision; image-rendering:optimizeQuality; fill-rule:evenodd; clip-rule:evenodd" version="1.1" viewBox="0 0 6.82666 6.82666" width="6.82666in" xml:space="preserve" xmlns="http://www.w3.org/2000/svg" xmlns:xlink="http://www.w3.org/1999/xlink"><defs><style type="text/css">
   <![CDATA[
    .fil2 {fill:none}
    .fil1 {fill:white}
    .fil0 {fill:#212121;fill-rule:nonzero}
   ]]>
  </style></defs><g id="Layer_x0020_1"><path class="fil0" d="M5.92 5.13066c0,0.217969 -0.0883504,0.415311 -0.231189,0.55815 -0.142839,0.142839 -0.340181,0.231189 -0.55815,0.231189l-3.43466 0c-0.217969,0 -0.415311,-0.0883504 -0.55815,-0.231189 -0.142839,-0.142839 -0.231189,-0.340181 -0.231189,-0.55815l0 -3.43466c0,-0.217965 0.0883543,-0.415303 0.231197,-0.558142 0.142839,-0.142843 0.340177,-0.231197 0.558142,-0.231197l3.43466 0c0.217969,0 0.415307,0.0883543 0.558146,0.231193 0.142839,0.142839 0.231193,0.340181 0.231193,0.558146l0 3.43466zm-0.306606 0.482732c0.123531,-0.123531 0.199937,-0.294205 0.199937,-0.482732l0 -3.43466c0,-0.18852 -0.0764094,-0.359197 -0.199941,-0.482728 -0.123531,-0.123531 -0.294205,-0.199941 -0.482728,-0.199941l-3.43466 0c-0.18852,0 -0.359193,0.0764094 -0.482724,0.199945 -0.123535,0.123531 -0.199945,0.294205 -0.199945,0.482724l0 3.43466c0,0.188528 0.0764055,0.359201 0.199937,0.482732 0.123531,0.123531 0.294205,0.199937 0.482732,0.199937l3.43466 0c0.188528,0 0.359201,-0.0764055 0.482732,-0.199937z"/><path class="fil0" d="M3.37339 2.49914c-0.0343346,0.000629921 -0.0663031,0.0158583 -0.089685,0.0394291 -0.0229409,0.023122 -0.0371496,0.0540354 -0.0365591,0.0865866 0.00061811,0.034252 0.0150787,0.0648307 0.0381496,0.0867677 0.0233465,0.0221969 0.055563,0.0355866 0.0913465,0.0351575 0.0356929,-0.000429134 0.0668898,-0.0142362 0.0889331,-0.0367047 0.0219134,-0.0223307 0.0350157,-0.0535827 0.0347283,-0.0890748l-1.9685e-005 -0.0016063 -3.93701e-006 0c-0.000614173,-0.0337874 -0.0147165,-0.0639961 -0.0371732,-0.0856811 -0.0226181,-0.0218425 -0.0536969,-0.035126 -0.0880669,-0.0348976l-0.00164961 1.9685e-005 0 3.93701e-006zm-0.165102 -0.0355709c0.0418858,-0.0422244 0.100067,-0.0695118 0.163433,-0.0706811l0.000208661 0 0.00185827 -2.3622e-005 0.000208661 0c0.0635,-0.000523622 0.120972,0.0240354 0.162858,0.0644803 0.0420945,0.0406535 0.0685236,0.0972913 0.0696772,0.160681l0 0.000208661 2.3622e-005 0.00181496 0 0.000208661c0.00061811,0.0649094 -0.0239724,0.122744 -0.0651457,0.164701 -0.0410827,0.041874 -0.0984764,0.0675945 -0.163516,0.068374 -0.0646811,0.000779528 -0.12322,-0.0237244 -0.165929,-0.0643307 -0.0429764,-0.0408622 -0.0699134,-0.0980039 -0.0710709,-0.162177 -0.0011378,-0.0623976 0.0250669,-0.120591 0.0673937,-0.163256z"/><path class="fil0" d="M2.36851 2.62685l4.33071e-005 -0.00127165 3.93701e-006 0c0.000866142,-0.0318071 -0.0128425,-0.0624291 -0.035189,-0.0856732 -0.0227717,-0.023685 -0.0540236,-0.0393465 -0.0876614,-0.0406417l0 -7.87402e-006 -0.00140157 -4.72441e-005 0 -3.93701e-006c-0.0352402,-0.000976378 -0.067248,0.0118898 -0.0906457,0.0336299 -0.0232795,0.021626 -0.0381102,0.0520118 -0.039122,0.0861575l-3.93701e-006 0 -1.5748e-005 0.000574803c-0.00088189,0.0347598 0.0118425,0.0659409 0.0334724,0.0886024 0.0216614,0.0226969 0.0524567,0.0370354 0.0876575,0.0380748l0.00080315 2.3622e-005 0 3.93701e-006c0.0355276,0.000846457 0.068063,-0.0122283 0.0919685,-0.0340906 0.0235866,-0.0215669 0.0388071,-0.0517165 0.0400827,-0.0853307l7.87402e-006 0zm0.106295 0.00205906l-5.11811e-005 0.00148031 0 0.000208661c-0.00240551,0.0632913 -0.030748,0.119756 -0.0746654,0.159913 -0.0435512,0.0398268 -0.102433,0.0636299 -0.166343,0.0620079l-0.000208661 0 -0.00080315 -2.3622e-005c-0.0645157,-0.00190157 -0.121398,-0.0286378 -0.161823,-0.0709961 -0.0404646,-0.0423937 -0.0642795,-0.100283 -0.0626457,-0.164429l1.9685e-005 -0.000783465 0 -0.000208661c0.00189764,-0.064063 0.0295236,-0.120882 0.072878,-0.161157 0.0431811,-0.0401181 0.101921,-0.0638543 0.166264,-0.0619646l0.000208661 0 0.00161024 5.51181e-005 0.000208661 0c0.0624882,0.00240945 0.119657,0.0305787 0.160583,0.0731457 0.0412992,0.0429606 0.0665669,0.100969 0.0647677,0.162543l0 0.000208661z"/><path class="fil0" d="M4.24695 2.84298c-0.192374,0.0100472 -0.371929,0.044126 -0.53698,0.108484 -0.164138,0.0640039 -0.314209,0.158094 -0.448606,0.288476 -0.135394,0.131339 -0.233933,0.277307 -0.294319,0.440106 -0.0604016,0.16285 -0.0827677,0.343252 -0.065815,0.543445l0.00553543 0.0653543 -0.0651181 -0.00806299c-0.0222913,-0.00275984 -0.0769724,-0.00991339 -0.13076,-0.0169449 -0.103244,-0.0135 -0.201724,-0.0263819 -0.30472,-0.0350551 -0.0223031,-0.00187402 -0.0465315,-0.00138189 -0.0692283,0.00246063 -0.0184488,0.00312205 -0.0355079,0.00824016 -0.0489094,0.0158031 -0.093685,0.0528622 -0.190315,0.114232 -0.295134,0.180799 -0.0388346,0.0246654 -0.0789409,0.0501378 -0.128894,0.0813661l-0.10737 0.067126 0.0273701 -0.123791c0.0083622,-0.0378189 0.016437,-0.077252 0.0242598,-0.115445 0.0174764,-0.0853346 0.0337126,-0.164591 0.056748,-0.241177 0.00899213,-0.0298858 0.0119409,-0.0515236 0.00672441,-0.067563 -0.00520866,-0.0160197 -0.0202323,-0.0319528 -0.0473661,-0.0511457 -0.247315,-0.174606 -0.423106,-0.393472 -0.517441,-0.636579 -0.0939803,-0.242205 -0.106823,-0.507689 -0.0287874,-0.776807 0.0697913,-0.240646 0.188909,-0.435681 0.347921,-0.590878 0.169016,-0.164949 0.382461,-0.284161 0.629087,-0.364728 0.32576,-0.106406 0.671685,-0.1055 0.985823,-0.0134567 0.315835,0.0925433 0.59976,0.277209 0.799205,0.537622 0.0722362,0.0943268 0.130583,0.194622 0.17387,0.302835 0.0432638,0.108161 0.0713661,0.22413 0.0831142,0.349839l0.00514173 0.0550276 -0.0553504 0.00288976zm-0.575728 0.0093189c0.15965,-0.062252 0.331339,-0.0979055 0.513831,-0.111933 -0.0130118,-0.0941969 -0.0364843,-0.18237 -0.0697559,-0.265559 -0.0395709,-0.0989291 -0.0931732,-0.190957 -0.159705,-0.277835 -0.18539,-0.242063 -0.449791,-0.413858 -0.744205,-0.500126 -0.294193,-0.0862008 -0.618185,-0.0870394 -0.923327,0.0126299 -0.231524,0.0756339 -0.431055,0.186717 -0.587835,0.339728 -0.146059,0.142555 -0.255614,0.322165 -0.320008,0.544209 -0.0713268,0.24598 -0.0597441,0.48824 0.025874,0.708894 0.086689,0.223406 0.249587,0.425488 0.479528,0.587831 0.0469016,0.0331732 0.0745118,0.0657953 0.0873661,0.105311 0.0128425,0.0394882 0.00929134,0.0804173 -0.00589764,0.130894 -0.0217835,0.0724252 -0.0370984,0.146268 -0.0533307,0.225512l0.0220591 -0.0140079c0.102465,-0.0650709 0.196917,-0.125059 0.300126,-0.183295 0.0252441,-0.0142441 0.0540748,-0.0233307 0.0835,-0.0283071 0.0321772,-0.00544488 0.0654764,-0.00623622 0.0954724,-0.0037126 0.0991102,0.00834646 0.201929,0.0217953 0.30972,0.0358898 0.0191614,0.00250394 0.0385984,0.00504724 0.0660945,0.00853543 -0.00862992,-0.190366 0.0171417,-0.364457 0.076315,-0.523996 0.0658937,-0.17765 0.173075,-0.336602 0.320154,-0.479272 0.145173,-0.140839 0.307087,-0.242394 0.484024,-0.31139z"/><path class="fil1" d="M4.62672 3.58194c-0.0774449,-0.00053937 -0.14328,0.062874 -0.146429,0.141134 -0.00335039,0.0836929 0.061689,0.152417 0.14452,0.15263 0.0801063,0.000275591 0.143417,-0.0603228 0.146331,-0.140039 0.00309055,-0.0838858 -0.0619724,-0.15315 -0.144421,-0.153724z"/><path class="fil0" d="M4.6263 3.63507c-0.0242598,-0.000110236 -0.046878,0.00993307 -0.0637953,0.0262362 -0.0170276,0.0164094 -0.0280945,0.0390157 -0.0290906,0.0638543 -7.87402e-005,0.00200787 -0.000122047,0.00322441 -0.000122047,0.00370079 -6.29921e-005,0.0254409 0.00961024,0.0484213 0.0255197,0.0652126 0.0158268,0.0167047 0.0378268,0.0274055 0.0624882,0.0283898 0.0019252,7.48031e-005 0.00310236,0.00011811 0.00350787,0.00011811 0.025815,8.66142e-005 0.0487165,-0.00942126 0.0652362,-0.0252283 0.016563,-0.0158504 0.0270433,-0.0381496 0.0279685,-0.0635591l0.000102362 -0.00298425c0.000177165,-0.0259961 -0.00967717,-0.0495827 -0.0259094,-0.0668425 -0.0159921,-0.0170079 -0.038185,-0.0278937 -0.0629567,-0.0288031l0 -7.87402e-006 -0.00294882 -8.66142e-005zm-0.137543 -0.0504331c0.0361024,-0.0347953 0.085063,-0.056189 0.138169,-0.0558189l0.000208661 0c0.00254724,1.9685e-005 0.00444882,5.51181e-005 0.00565354,9.44882e-005l0.000208661 0c0.0540551,0.00199213 0.102217,0.0254646 0.136705,0.0621417 0.0342559,0.0364173 0.0550433,0.0858898 0.0546654,0.140173 -1.9685e-005,0.00285433 -5.51181e-005,0.00506299 -0.000102362,0.00631496 -0.00198425,0.0542953 -0.0246339,0.102181 -0.0604724,0.13648 -0.0358858,0.0343425 -0.0847087,0.0549961 -0.138984,0.054811 -0.00333465,-3.93701e-006 -0.00589764,-4.72441e-005 -0.00767323,-0.00011811 -0.0535787,-0.00214567 -0.10122,-0.0252362 -0.135402,-0.061311 -0.0340984,-0.0359803 -0.0548307,-0.0848189 -0.0546929,-0.138543 3.93701e-006,-0.00335039 4.72441e-005,-0.00601181 0.000122047,-0.00786614 0.00214567,-0.0534016 0.0255709,-0.101642 0.0615945,-0.136358z"/><path class="fil1" d="M3.70654 3.8767c0.0798465,7.87402e-005 0.145563,-0.0623976 0.148587,-0.141244 0.00318898,-0.0834764 -0.0639488,-0.153496 -0.147543,-0.153843 -0.0827598,-0.000377953 -0.152106,0.070622 -0.149213,0.152858 0.0027126,0.0785748 0.0689055,0.142126 0.148169,0.142228z"/><path class="fil0" d="M3.70654 3.82357c0.0257165,2.3622e-005 0.0491732,-0.0100315 0.0664331,-0.026437 0.0171024,-0.0162559 0.0280748,-0.0386772 0.0290276,-0.0635551l0 -0.000208661 0.000106299 -0.00300787 0 -0.000208661c0.000102362,-0.025378 -0.0100157,-0.048689 -0.0265394,-0.0659213 -0.0165827,-0.0172913 -0.0394528,-0.0284252 -0.0647598,-0.0293898 -0.00184646,-6.69291e-005 -0.003,-0.000106299 -0.00343307,-0.000106299 -0.000685039,0 -0.00188976,2.75591e-005 -0.00363386,8.66142e-005 -0.0249488,0.000874016 -0.0479252,0.0120748 -0.0647795,0.0293425 -0.016874,0.0172913 -0.0274409,0.0403386 -0.0275512,0.0648976 0,0.000637795 2.75591e-005,0.00180709 8.66142e-005,0.0035315l0 0.000208661c0.000854331,0.0247559 0.0119173,0.0473543 0.0291299,0.063874 0.0172835,0.0165906 0.0406181,0.0268622 0.0659134,0.0268937zm0.139764 0.0506417c-0.0363071,0.0345157 -0.0856496,0.0556614 -0.139764,0.0556102 -0.0539567,-6.69291e-005 -0.103362,-0.0216339 -0.139661,-0.0564764 -0.0363268,-0.0348701 -0.0597165,-0.0832756 -0.061626,-0.137004l-7.87402e-006 0c-7.08661e-005,-0.00202362 -9.84252e-005,-0.00461417 -8.66142e-005,-0.00769685 0.000248031,-0.0533701 0.022315,-0.102535 0.0575512,-0.138646 0.035252,-0.036122 0.0839016,-0.0595512 0.137283,-0.0614291 0.00203937,-7.08661e-005 0.00466929,-9.84252e-005 0.00779921,-8.66142e-005 0.00296457,1.1811e-005 0.00523228,5.11811e-005 0.00676378,0.000106299 0.0542047,0.00207087 0.102783,0.0255079 0.137681,0.0618937 0.0349016,0.0364016 0.0562913,0.0858346 0.056122,0.139878l0 0.000208661c-3.93701e-006,0.00305906 -4.33071e-005,0.00538976 -0.000106299,0.00696457l-7.87402e-006 0c-0.00211811,0.0538819 -0.0255157,0.102055 -0.0619409,0.136677z"/><path class="fil0" d="M5.11228 5.30726c-0.0410118,-0.0182598 -0.0791024,-0.0383504 -0.116717,-0.058189 -0.0789016,-0.0416142 -0.155606,-0.0820748 -0.229933,-0.0898346 -0.0612441,-0.0063937 -0.130283,0.0134213 -0.200028,0.0334409 -0.054374,0.0156063 -0.10915,0.0313307 -0.167016,0.037248 -0.203386,0.0208071 -0.396346,0.00248819 -0.57613,-0.0561654 -0.17713,-0.0577874 -0.341224,-0.154736 -0.489626,-0.291976 -0.0803031,-0.0742756 -0.147496,-0.15376 -0.201807,-0.236654 -0.139504,-0.212941 -0.196898,-0.450504 -0.175543,-0.682551 0.0213189,-0.231642 0.121232,-0.457177 0.296374,-0.646528 0.0718386,-0.0776693 0.155819,-0.148953 0.25163,-0.21172 0.292122,-0.191378 0.651843,-0.255248 0.989689,-0.204945 0.338587,0.0504173 0.656122,0.215642 0.862945,0.482299 0.182165,0.234854 0.261961,0.50878 0.240055,0.773272 -0.0217047,0.262083 -0.143201,0.514504 -0.363823,0.710244 -0.0539606,0.047874 -0.0902087,0.0900787 -0.103374,0.133031 -0.0120512,0.0393346 -0.00447638,0.0841457 0.0271496,0.141811 0.0137638,0.0251181 0.0184803,0.0504331 0.0234173,0.0769528 0.00166142,0.00894882 0.00337402,0.0181063 0.00606693,0.0288071l0.026689 0.105988 -0.10002 -0.0445315zm-0.335815 -0.253858c0.0948583,0.00990551 0.18028,0.054878 0.268122,0.101209 -0.0306496,-0.069311 -0.0350551,-0.129614 -0.0172795,-0.18763 0.0197323,-0.064378 0.0664961,-0.120917 0.134626,-0.181362 0.198945,-0.176508 0.308469,-0.403736 0.327988,-0.639409 0.0197677,-0.238673 -0.0526929,-0.486445 -0.217969,-0.699524 -0.189177,-0.243909 -0.481512,-0.395319 -0.794197,-0.441882 -0.313417,-0.0466654 -0.646402,0.0121063 -0.915941,0.188693 -0.0893228,0.0585157 -0.166736,0.12402 -0.232047,0.194634 -0.158748,0.171626 -0.249248,0.375343 -0.268453,0.584031 -0.0191693,0.20828 0.0327835,0.422173 0.158874,0.614638 0.0502047,0.076626 0.111728,0.149559 0.18472,0.217071 0.136551,0.12628 0.28752,0.215476 0.450461,0.268638 0.165634,0.0540354 0.343953,0.0708583 0.532382,0.0515827 0.0474646,-0.00485039 0.0982598,-0.0194331 0.148685,-0.0339094 0.0793937,-0.0227874 0.157984,-0.0453465 0.240028,-0.0367795z"/></g><rect class="fil2" height="6.82666" width="6.82666"/></svg>