<?xml version="1.0" ?><!DOCTYPE svg  PUBLIC '-//W3C//DTD SVG 1.1//EN'  'http://www.w3.org/Graphics/SVG/1.1/DTD/svg11.dtd'><svg height="6.82666in" style="shape-rendering:geometricPrecision; text-rendering:geometricPrecision; image-rendering:optimizeQuality; fill-rule:evenodd; clip-rule:evenodd" viewBox="0 0 6.82666 6.82666" width="6.82666in" xml:space="preserve" xmlns="http://www.w3.org/2000/svg" xmlns:xlink="http://www.w3.org/1999/xlink"><defs><style type="text/css">
   <![CDATA[
    .fil1 {fill:none}
    .fil0 {fill:#212121;fill-rule:nonzero}
   ]]>
  </style></defs><g id="Layer_x0020_1"><path class="fil0" d="M0.959996 2.55848l0.587878 0 0 -0.748181c0,-0.00233465 0.000149606,-0.00463386 0.000440945,-0.00688583 0.0121535,-0.230413 0.058748,-0.438669 0.166134,-0.591598 0.111461,-0.158736 0.284732,-0.256366 0.546657,-0.256366l1.25677 0c0.0294528,0 0.0533346,0.0238819 0.0533346,0.0533346l0 0.755201c0,0.0294528 -0.0238819,0.0533346 -0.0533346,0.0533346l-0.685937 0c-0.0959213,0 -0.167827,0.0146417 -0.214358,0.053063 -0.044878,0.0370551 -0.0701378,0.100587 -0.0755551,0.200067l7.08661e-005 0 0 0.488031 0.455787 0 0.206362 0 0.692417 0 0 -0.748181c0,-0.00233465 0.000149606,-0.00463386 0.000440945,-0.00688583 0.0121535,-0.230413 0.058748,-0.438673 0.166138,-0.591598 0.111461,-0.158736 0.284732,-0.256366 0.546654,-0.256366l1.25677 0c0.0294528,0 0.0533346,0.0238819 0.0533346,0.0533346l0 0.755201c0,0.0294528 -0.0238819,0.0533346 -0.0533346,0.0533346l-0.685937 0c-0.0957913,0 -0.167622,0.0146417 -0.21415,0.053063l-0.0339567 -0.0410394 0.0339606 0.041122c-0.00101969,0.00084252 -0.00206299,0.00164173 -0.00312598,0.0023937 -0.0430591,0.0373858 -0.0673425,0.100287 -0.0726417,0.197591l7.08661e-005 0 0 0.488031 0.662146 0c0.0294528,0 0.0533346,0.0238819 0.0533346,0.0533346l0 0.801512c0,0.0294528 -0.0238819,0.0533346 -0.0533346,0.0533346l-0.662146 0 0 2.35121c0,0.0294528 -0.0238819,0.0533346 -0.0533346,0.0533346l-0.887555 0c-0.0294528,0 -0.0533346,-0.0238819 -0.0533346,-0.0533346l0 -2.35121 -0.692417 0 -0.206362 0 -0.455787 0 0 2.35121c0,0.0294528 -0.0238819,0.0533346 -0.0533346,0.0533346l-0.887551 0c-0.0294528,0 -0.0533346,-0.0238819 -0.0533346,-0.0533346l0 -2.35121 -0.587878 0c-0.0294528,0 -0.0533346,-0.0238819 -0.0533346,-0.0533346l0 -0.801512c0,-0.0294528 0.0238819,-0.0533346 0.0533346,-0.0533346zm0.641213 0.106669l-0.587878 0 0 0.694843 0.587878 0c0.0294528,0 0.0533346,0.0238819 0.0533346,0.0533346l0 2.35121 0.780882 0 0 -2.35121c0,-0.0294528 0.0238819,-0.0533346 0.0533346,-0.0533346l0.509122 0 0.206362 0 0.745752 0c0.0294528,0 0.0533346,0.0238819 0.0533346,0.0533346l0 2.35121 0.780886 0 0 -2.35121c0,-0.0294528 0.0238819,-0.0533346 0.0533346,-0.0533346l0.662146 0 0 -0.694843 -0.662146 0c-0.0294528,0 -0.0533346,-0.0238819 -0.0533346,-0.0533346l0 -0.541327 0 -3.93701e-005c0,-0.000897638 2.3622e-005,-0.00179921 7.08661e-005,-0.00270472l0.000149606 7.87402e-006c0.00666535,-0.130661 0.0436024,-0.218654 0.110354,-0.276 0.00122047,-0.00122441 0.00250787,-0.00240551 0.00387008,-0.0035315l4.33071e-005 5.11811e-005c0.0680866,-0.0562047 0.16189,-0.077622 0.282024,-0.077622l0.632602 0 0 -0.648531 -1.20344 0c-0.222496,0 -0.367862,0.0803307 -0.459575,0.210949 -0.0945709,0.134669 -0.135874,0.324106 -0.147,0.536063l1.1811e-005 0.00116929 0 0.801516c0,0.0294528 -0.0238819,0.0533346 -0.0533346,0.0533346l-0.745752 0 -0.206362 0 -0.509122 0c-0.0294528,0 -0.0533346,-0.0238819 -0.0533346,-0.0533346l0 -0.541327 0 -3.93701e-005c0,-0.000897638 2.3622e-005,-0.00179921 7.08661e-005,-0.00270472l0.000149606 7.87402e-006c0.00680315,-0.133295 0.0451102,-0.222201 0.114437,-0.279449 0.0680945,-0.0562283 0.161827,-0.0776535 0.281854,-0.0776535l0.632602 0 0 -0.648531 -1.20343 0c-0.2225,0 -0.367866,0.0803307 -0.459579,0.210949 -0.0945669,0.134669 -0.13587,0.324106 -0.146996,0.536063l1.1811e-005 0.00116929 0 0.801516c0,0.0294528 -0.0238819,0.0533346 -0.0533346,0.0533346z"/></g><rect class="fil1" height="6.82666" width="6.82666"/></svg>