<?xml version="1.0" ?><!DOCTYPE svg  PUBLIC '-//W3C//DTD SVG 1.1//EN'  'http://www.w3.org/Graphics/SVG/1.1/DTD/svg11.dtd'><svg height="6.82666in" style="shape-rendering:geometricPrecision; text-rendering:geometricPrecision; image-rendering:optimizeQuality; fill-rule:evenodd; clip-rule:evenodd" viewBox="0 0 6.82666 6.82666" width="6.82666in" xml:space="preserve" xmlns="http://www.w3.org/2000/svg" xmlns:xlink="http://www.w3.org/1999/xlink"><defs><style type="text/css">
   <![CDATA[
    .fil1 {fill:none}
    .fil0 {fill:#212121;fill-rule:nonzero}
   ]]>
  </style></defs><g id="Layer_x0020_1"><path class="fil0" d="M5.10666 1.14171c0.129642,0 0.266067,0.0692795 0.368248,0.172665 0.0990591,0.100228 0.167244,0.233736 0.167244,0.368512l0 1.1811e-005c0,0.0858898 -0.0536417,0.202043 -0.138039,0.295122 -0.0847756,0.0934921 -0.201984,0.166402 -0.329362,0.166409l0 0.000208661 -2.3622e-005 0c-0.10663,0 -0.137657,-0.0574961 -0.177043,-0.130492 -0.0343228,-0.0636142 -0.0779252,-0.144413 -0.232937,-0.183165l-0.0075 -0.0025c-0.0438386,-0.0182756 -0.0756181,-0.0430591 -0.0970709,-0.0742677 -0.022185,-0.0322717 -0.0322756,-0.0692362 -0.0322756,-0.111039 0,-0.130783 0.0598661,-0.24628 0.142413,-0.333232 0.0988583,-0.104138 0.233059,-0.16802 0.336346,-0.168024l0 -0.000208661zm0.292413 0.247248c-0.0831929,-0.0841732 -0.19172,-0.140579 -0.292413,-0.140579l0 -0.000208661c-0.0765197,0 -0.17978,0.0513701 -0.259268,0.135102 -0.0653976,0.0688858 -0.112823,0.159217 -0.112823,0.259902 0,0.0205866 0.00409843,0.0375236 0.0131024,0.050622 0.00927559,0.0134921 0.0246614,0.0251181 0.0470472,0.0349173 0.197126,0.0505197 0.252819,0.153669 0.296713,0.235016 0.0224055,0.0415276 0.0400591,0.0742402 0.0832953,0.0742402l2.3622e-005 0 0 0.000208661c0.0938228,-3.93701e-006 0.183669,-0.0575787 0.250614,-0.131409 0.0673268,-0.074252 0.110118,-0.162299 0.110118,-0.22387l0 -1.1811e-005c0,-0.105437 -0.0556142,-0.212181 -0.136409,-0.293929z"/><path class="fil0" d="M2.97407 3.00542c0,-0.124335 0.0582756,-0.257898 0.148181,-0.357528 0.0859606,-0.095252 0.20165,-0.160949 0.324913,-0.160949l1.1811e-005 0c0.0765276,0 0.159476,0.0341929 0.22272,0.105126 0.0602953,0.067622 0.102669,0.168909 0.102677,0.305528l0.000208661 0 0 3.93701e-005c0,0.0162992 -0.0701339,0.149386 -0.163894,0.268303 -0.0952717,0.120835 -0.217933,0.238587 -0.326193,0.238622l0 0.000208661 -3.54331e-005 0c-0.0964449,0 -0.174248,-0.0425591 -0.228354,-0.115902 -0.0517953,-0.0702126 -0.0802362,-0.168602 -0.0802362,-0.283449zm0.227346 -0.286276c-0.0732205,0.0811339 -0.120677,0.188161 -0.120677,0.286276 0,0.0920551 0.0210591,0.168555 0.0594016,0.220535 0.0336811,0.0456535 0.0822362,0.0721457 0.14252,0.0721457l3.54331e-005 0 0 0.000208661c0.0675748,-2.3622e-005 0.163303,-0.0978307 0.242445,-0.198205 0.0806457,-0.102287 0.140972,-0.196087 0.140972,-0.202469l0 -3.93701e-005 0.000208661 0c-3.93701e-006,-0.107244 -0.031374,-0.184638 -0.0760079,-0.234693 -0.041685,-0.046752 -0.0948701,-0.0692913 -0.143138,-0.0692913l-1.1811e-005 0c-0.090878,0 -0.178705,0.0512402 -0.245748,0.125531z"/><path class="fil0" d="M4.20748 2.99207c0.030315,-0.109142 0.0777638,-0.195248 0.135563,-0.255185 0.064189,-0.0665669 0.140906,-0.101638 0.222,-0.101638l1.5748e-005 0c0.101642,0 0.206339,0.0617677 0.284354,0.161717 0.0747283,0.095748 0.126118,0.227874 0.126126,0.373736l0.000208661 0 0 3.93701e-005c0,0.116055 -0.036252,0.217445 -0.0947402,0.290839 -0.0627205,0.0787047 -0.15065,0.125531 -0.247902,0.125531 -0.0750236,0 -0.131024,-0.0238543 -0.17689,-0.0706378 -0.0414213,-0.042248 -0.0718583,-0.102224 -0.099878,-0.179961l-0.000133858 4.72441e-005c-0.00688976,-0.0186142 -0.0404528,-0.0870354 -0.0733189,-0.154035 -0.0404646,-0.0825 -0.0800315,-0.163161 -0.0752087,-0.190398l-0.00019685 -5.51181e-005zm0.212232 -0.181437c-0.0459921,0.0476929 -0.0843504,0.118374 -0.109736,0.209768l-0.000830709 0.0025c-0.00555118,0.0167087 0.0369882,0.0473701 0.0691575,0.112953 0.0346417,0.070622 0.0700197,0.14274 0.0779016,0.164035l0 0.000417323c0.0230079,0.0638898 0.0464409,0.111591 0.0758465,0.141583 0.0250315,0.0255315 0.0569646,0.0385512 0.101055,0.0385512 0.0636299,0 0.122043,-0.031748 0.164571,-0.0851142 0.0440787,-0.055315 0.0714016,-0.13348 0.0714016,-0.224587l0 -3.93701e-005 0.000208661 0c-3.93701e-006,-0.120705 -0.0422283,-0.229657 -0.103622,-0.308319 -0.0581142,-0.0744528 -0.132098,-0.120465 -0.200606,-0.120465l-1.5748e-005 0c-0.0517126,0 -0.101937,0.0237126 -0.145331,0.0687165z"/><path class="fil0" d="M3.52684 3.70157c0,-0.0507677 0.0196024,-0.0899252 0.0545472,-0.117276 0.0324961,-0.0254291 0.0768819,-0.0381535 0.129244,-0.0381535l7.08661e-005 0c0.201209,0 0.326417,0.0262598 0.402087,0.0610157 0.0933976,0.0428898 0.121992,0.10261 0.121992,0.151142l0 3.93701e-006c0,0.0507126 -0.0116181,0.0793701 -0.0566181,0.102594 -0.0289567,0.0149528 -0.0705669,0.0227638 -0.140921,0.035l-0.000208661 0c-0.0623307,0.0103819 -0.0814567,0.0335787 -0.095315,0.0504882l0.000125984 0.000102362c-0.021815,0.026622 -0.0382441,0.0466732 -0.0837165,0.0466732l0 -0.000208661c-0.0561457,-7.87402e-006 -0.0684724,-0.0282087 -0.0855551,-0.067315 -0.00877165,-0.0200748 -0.0209646,-0.0479803 -0.0695551,-0.0664843l7.87402e-006 -1.9685e-005c-0.0580906,-0.0214331 -0.0972913,-0.0389882 -0.124035,-0.0588346 -0.0374528,-0.0277874 -0.0519449,-0.0578386 -0.0519409,-0.0987283l-0.000208661 0zm0.119965 -0.0335276c-0.00851575,0.00666142 -0.0132953,0.0177874 -0.0132953,0.0335276l-0.000208661 0c0,0.00449213 0.00251575,0.00848819 0.00901969,0.013311 0.0171063,0.0126969 0.0486496,0.0262953 0.0979882,0.0444803l0.000622047 0.000208661c0.0815984,0.0310748 0.107909,0.0765394 0.124272,0.112579 0.0242835,-0.0290866 0.0601772,-0.0655276 0.154134,-0.0812165l-7.87402e-006 -3.54331e-005c0.0600984,-0.0104528 0.0950866,-0.0168386 0.110087,-0.0245827 0.0010315,-0.000531496 -0.00130315,-0.00201181 -0.00130315,-0.00801181l0 -3.93701e-006c0,-0.0138543 -0.0139449,-0.0335591 -0.0594882,-0.0544724 -0.0632677,-0.0290591 -0.173449,-0.0510157 -0.357921,-0.0510157l-7.08661e-005 0c-0.0288583,0 -0.0508543,0.00507874 -0.0638268,0.0152323zm0.211323 0.218657l0 -0.000208661c0.00152362,0 0.00188583,-0.000307087 0.00176378,-0.000862205 -0.00505906,0.000673228 -0.00874803,0.00107087 -0.00176378,0.00107087z"/><path class="fil0" d="M5.47664 2.94848c-0.0333071,0.276217 -0.12085,0.491512 -0.25274,0.649031 -0.184378,0.220205 -0.452457,0.325787 -0.778193,0.325787l0 -0.000208661c-0.0833819,0 -0.104685,0.0405157 -0.126098,0.0812717 -0.0310472,0.0590748 -0.0622598,0.118453 -0.163,0.135386 -0.0289488,0.0433031 -0.071378,0.090748 -0.123701,0.125638 -0.0474134,0.0316181 -0.10272,0.0531102 -0.16365,0.0531102 -0.0769173,0 -0.154106,-0.0337402 -0.216461,-0.0818268 -0.0634764,-0.0489488 -0.112925,-0.114598 -0.13187,-0.175799 -0.107976,-0.0378307 -0.137567,-0.137445 -0.161882,-0.21935 -0.00968504,-0.0326417 -0.0179961,-0.060626 -0.0228386,-0.0641535 -0.0460512,-0.0187283 -0.085874,-0.0348898 -0.120457,-0.0489173 -0.219969,-0.0892362 -0.231815,-0.0940472 -0.290429,-0.13135l-0.00146063 -0.000834646c-0.132791,-0.0905354 -0.228083,-0.19815 -0.290406,-0.330398 -0.0617008,-0.130925 -0.0902992,-0.284409 -0.0902992,-0.467988 0,-0.189531 0.0383386,-0.40776 0.107484,-0.602035 0.0640039,-0.179811 0.155114,-0.340445 0.267803,-0.441579l0.0306772 -0.0275276 0.0341142 0.0227362c0.032311,0.0215354 0.0575394,0.0375236 0.0781299,0.0475079 0.0159449,0.00773228 0.0285984,0.0116063 0.0399724,0.0116063 0.0182835,0 0.0388189,-0.0189567 0.0664409,-0.0444528 0.046563,-0.0429882 0.107283,-0.0990472 0.222051,-0.139579l-2.3622e-005 -6.69291e-005c0.202748,-0.0724173 0.202752,-0.0724173 0.202752,-0.159642 0,-0.142079 -0.0382756,-0.251827 -0.0978583,-0.327583 -0.0642205,-0.0816575 -0.153827,-0.123937 -0.24587,-0.123937 -0.119701,0 -0.238555,0.0497165 -0.328031,0.123795 -0.0878898,0.0727677 -0.146173,0.167799 -0.146173,0.25965 0,0.0425945 0.0119016,0.0857323 0.0321299,0.127736 0.0239646,0.0497795 0.059374,0.0979646 0.100772,0.142118l0.0448307 0.047811 -0.0558701 0.034063c-0.227728,0.138854 -0.407449,0.316622 -0.529209,0.525484 -0.118654,0.203535 -0.182591,0.437299 -0.182591,0.694051 0,0.0961417 0.00798425,0.157008 0.0153031,0.21285 0.0067874,0.0517598 0.0130591,0.0995866 0.0130591,0.161539 0,0.0831614 -0.015189,0.147689 -0.0302283,0.211606 -0.013315,0.0565709 -0.0265079,0.11263 -0.0265079,0.179799 0,0.0365512 0.0081063,0.0933307 0.0229252,0.15048 0.0123071,0.0474567 0.0290236,0.0944764 0.0492087,0.129165l-0.0777047 0.069374c-0.229543,-0.170693 -0.407327,-0.36702 -0.527343,-0.585224 -0.118555,-0.215555 -0.180701,-0.451898 -0.180701,-0.705425 0,-0.248437 0.058374,-0.473189 0.167425,-0.672799 0.0156614,-0.0286614 0.0323622,-0.0567835 0.0500709,-0.0843661 -0.0513622,0.0600866 -0.0982559,0.124961 -0.14024,0.194173 -0.154654,0.254949 -0.242862,0.569189 -0.242862,0.92035 0,0.239638 0.0463425,0.417154 0.0790906,0.542583 0.0193701,0.0742165 0.0343543,0.131598 0.0343543,0.177823 0,0.017437 -0.0025315,0.0440276 -0.00570472,0.0774646 -0.00481496,0.050689 -0.011311,0.119024 -0.011311,0.200484 0,0.105287 0.0406063,0.256465 0.0997992,0.407417 0.0642913,0.163941 0.149917,0.325697 0.229299,0.427752l-2.75591e-005 1.9685e-005c0.0575591,0.0731929 0.130752,0.130551 0.215602,0.169445 0.0846732,0.038815 0.181594,0.0595079 0.286898,0.0595079 0.080752,0 0.146854,-0.0124528 0.191161,-0.0354567 0.0320591,-0.0166457 0.0504764,-0.0385984 0.0504764,-0.0643701 0,-0.0141457 -0.00775591,-0.0406772 -0.0186063,-0.0778031 -0.0279094,-0.0954843 -0.0735945,-0.251752 -0.077626,-0.505614l0.100417 -0.0252087 0.311783 0.600858 7.87402e-006 -3.93701e-006c0.143724,0.273634 0.269677,0.452421 0.417598,0.561169 0.145051,0.106634 0.315551,0.147701 0.550685,0.147701l0 0.000208661c0.0973622,0 0.17474,-0.0138504 0.226303,-0.039626 0.039063,-0.0195276 0.0607008,-0.0458307 0.0607008,-0.0774055 0,-0.0136142 -0.0113661,-0.0425906 -0.0278307,-0.0845787 -0.0505354,-0.128866 -0.142339,-0.362965 -0.142339,-0.800331l0.000208661 0c3.93701e-006,-0.141535 0.0173071,-0.251445 0.0550551,-0.327728 0.0437598,-0.0884331 0.111843,-0.134024 0.207953,-0.134024 0.0747677,0 0.129937,0.0316299 0.1665,0.0988228 0.0307205,0.0564606 0.0456654,0.138559 0.0456654,0.249472 0,0.199429 -0.030626,0.409791 -0.0526378,0.561004 -0.0118504,0.0814094 -0.0211063,0.144969 -0.0211063,0.176421 0,0.0457047 0.0160039,0.0813031 0.048,0.104634 0.0360906,0.026315 0.0929803,0.040563 0.170929,0.040563l0 0.000208661c0.143028,0 0.279898,-0.0436457 0.399181,-0.119551 0.124067,-0.0789528 0.229189,-0.192839 0.30272,-0.329016 0.102705,-0.190004 0.191543,-0.464961 0.257461,-0.74511 0.0765827,-0.325469 0.121811,-0.656374 0.121811,-0.86902 0,-0.152559 -0.0174449,-0.307539 -0.0446535,-0.445441 -0.00857087,-0.043437 -0.0180748,-0.0850866 -0.0282717,-0.12435zm-0.334409 0.580701c0.155319,-0.1855 0.242819,-0.464673 0.242819,-0.844764l0.100626 -0.024374c0.0469843,0.0908307 0.092,0.231083 0.123819,0.39237 0.0284803,0.14435 0.0467402,0.306449 0.0467402,0.465858 0,0.219752 -0.046311,0.559909 -0.124732,0.893185 -0.0678189,0.288232 -0.159972,0.572512 -0.267461,0.771362 -0.0820669,0.151984 -0.199925,0.279429 -0.33939,0.368181 -0.135913,0.0864882 -0.292327,0.136217 -0.45626,0.13622l0 0.000208661c-0.100886,0 -0.178795,-0.021563 -0.233425,-0.0613976 -0.0614449,-0.0448031 -0.0921732,-0.109563 -0.0921732,-0.190469 0,-0.0378583 0.00980315,-0.105177 0.0223583,-0.191421 0.0214882,-0.147614 0.0513858,-0.35298 0.0513858,-0.546004 0,-0.0932795 -0.0105787,-0.158669 -0.0323268,-0.198638 -0.0159016,-0.0292244 -0.0401535,-0.0429882 -0.0731693,-0.0429882 -0.0513701,0 -0.0882323,0.0253228 -0.112535,0.0744409 -0.0303189,0.0612677 -0.0442205,0.155579 -0.0442205,0.280642l0.000208661 0c0,0.417752 0.0869646,0.639508 0.134835,0.761583 0.0209055,0.053311 0.0353346,0.0901024 0.0353346,0.123327 0,0.0754685 -0.0427323,0.133839 -0.119874,0.172406 -0.0662087,0.0330984 -0.15989,0.050874 -0.273799,0.050878l0 0.000208661c-0.258374,0 -0.448087,-0.0468622 -0.613598,-0.168535 -0.16263,-0.119559 -0.297618,-0.309496 -0.44885,-0.597421l-0.000208661 -0.000417323 -0.189055 -0.364335c0.0155433,0.0945 0.0359409,0.164291 0.0509252,0.215555 0.0135276,0.0462835 0.0231969,0.0793622 0.0231969,0.107386 0,0.0693425 -0.0395472,0.123205 -0.108398,0.158953 -0.0594094,0.0308465 -0.142421,0.0475433 -0.239909,0.0475433 -0.120287,0 -0.232157,-0.0241693 -0.331063,-0.0695079 -0.10076,-0.0461811 -0.187457,-0.114067 -0.255366,-0.200508l-0.000208661 -0.000208661c-0.0852402,-0.109587 -0.176437,-0.281378 -0.244299,-0.454421 -0.0636417,-0.162299 -0.107303,-0.32737 -0.107303,-0.446165 0,-0.0826732 0.00697244,-0.156051 0.0121457,-0.210484 0.00270866,-0.0285472 0.00487008,-0.0512441 0.00487008,-0.0674646 0,-0.033937 -0.0133465,-0.0850512 -0.0305984,-0.151154 -0.0343031,-0.13139 -0.0828465,-0.317335 -0.0828465,-0.569252 0,-0.370677 0.0939606,-0.70378 0.258697,-0.97535 0.169992,-0.280236 0.415217,-0.494488 0.710386,-0.61674l0.0535433 0.090622 -0.0283622 0.0227087 -0.00270866 0.00208268c-0.198512,0.139795 -0.35402,0.306083 -0.458524,0.497354 -0.100362,0.183709 -0.154087,0.391445 -0.154087,0.621965 0,0.235366 0.0575591,0.454528 0.167362,0.654173 0.0860472,0.156445 0.204213,0.301268 0.351949,0.432866 -0.0123701,-0.0555157 -0.0190354,-0.108654 -0.0190354,-0.145409 0,-0.0789213 0.0146457,-0.141161 0.0294291,-0.203965 0.0135866,-0.0577402 0.0273071,-0.116035 0.0273071,-0.187441 0,-0.057752 -0.00566929,-0.100992 -0.0118071,-0.147791 -0.00792126,-0.0604094 -0.0165551,-0.126256 -0.0165551,-0.226598 0,-0.275835 0.0690472,-0.527583 0.197181,-0.747382 0.121181,-0.207866 0.294949,-0.386563 0.51285,-0.529449 -0.0305748,-0.0381654 -0.0569921,-0.0786102 -0.0771299,-0.120445 -0.0270512,-0.0561693 -0.0429646,-0.114815 -0.0429646,-0.173988 0,-0.12498 0.0737402,-0.249669 0.184929,-0.341728 0.107248,-0.0887953 0.250618,-0.148386 0.395945,-0.148386 0.124059,0 0.244232,0.0562008 0.329618,0.164772 0.0735394,0.0935039 0.12078,0.225673 0.12078,0.393417 0,0.162339 -3.93701e-006,0.162343 -0.273587,0.260059l-0.000208661 0 -6.69291e-005 2.3622e-005c-0.0942165,0.0332559 -0.14589,0.0809567 -0.185508,0.117535 -0.0452362,0.0417559 -0.0788543,0.0727913 -0.13852,0.0727913 -0.0283307,0 -0.0553898,-0.00748819 -0.0862244,-0.0224409 -0.0168346,-0.00816535 -0.0346969,-0.0185472 -0.0548071,-0.031248 -0.0854528,0.0893701 -0.156559,0.221673 -0.209248,0.369693 -0.065126,0.182976 -0.101232,0.388366 -0.101232,0.566618 0,0.168094 0.0252992,0.306752 0.0798819,0.422571 0.0539567,0.114492 0.137362,0.208272 0.254154,0.287902l-4.33071e-005 6.69291e-005c0.0477441,0.0303268 0.0610512,0.0357323 0.271933,0.121283 0.0346811,0.0140669 0.0746339,0.0302795 0.12085,0.0490787l0.000834646 0.000417323c0.050874,0.0218071 0.0659882,0.0726811 0.083689,0.132323 0.0206693,0.0696299 0.0469882,0.158272 0.162075,0.158272 0.0321535,0 0.065622,-0.00838583 0.097689,-0.0164173 0.0354764,-0.00888583 0.0695512,-0.0174173 0.106528,-0.0174134l0 -0.000208661c0.0741969,0 0.124598,0.0318976 0.172945,0.0624961 0.0319094,0.0201969 0.0625827,0.0396063 0.0936654,0.0396063 0.0877559,0 0.109657,-0.0416654 0.131417,-0.0830748 0.0363504,-0.0691772 0.0725,-0.137945 0.220264,-0.137941l0 -0.000208661c0.293787,0 0.533843,-0.0931575 0.696524,-0.287449zm-1.11591 0.603323c-0.0296299,-0.0107165 -0.0558228,-0.0272874 -0.0826299,-0.0442559 -0.0354488,-0.022437 -0.0724094,-0.0458268 -0.116276,-0.0458268l0 -0.000208661c-0.022815,0 -0.0511693,0.00709843 -0.0806929,0.0144921 -0.0322677,0.00808268 -0.0657126,0.0164567 -0.101921,0.0189882 0.0176654,0.026815 0.0430551,0.0537205 0.0729961,0.076811 0.0452047,0.0348583 0.0995079,0.0593228 0.151461,0.0593228 0.0379606,0 0.0734449,-0.0140748 0.104484,-0.0347717 0.019315,-0.0128819 0.0369646,-0.028252 0.0525787,-0.0445512z"/><path class="fil0" d="M3.55966 1.55969c0.22452,-0.0627441 0.433398,-0.0796654 0.628177,-0.057378 0.195559,0.022374 0.376516,0.0841181 0.544508,0.178567l-0.0520866 0.0929134c-0.155933,-0.0876693 -0.323614,-0.144953 -0.504508,-0.165646 -0.181661,-0.0207874 -0.377071,-0.00483858 -0.58776,0.0540394l-0.0283307 -0.102496z"/><path class="fil0" d="M5.21556 2.05735c0.0754921,0.0906969 0.134268,0.186142 0.179248,0.291551 0.0446654,0.104681 0.0756969,0.219232 0.0959843,0.348835l-0.105 0.016252c-0.0188425,-0.120382 -0.0475866,-0.226598 -0.0888976,-0.323417 -0.0410079,-0.0960984 -0.0944567,-0.182953 -0.163004,-0.265307l0.0816693 -0.0679134z"/><path class="fil0" d="M2.10323 1.57328c0.115642,-0.063248 0.237705,-0.088685 0.365433,-0.0790157 0.128591,0.00973622 0.262307,0.055185 0.400406,0.133504l-0.0524961 0.0924961c-0.124205,-0.0704409 -0.243075,-0.111213 -0.355823,-0.119748 -0.107421,-0.00812992 -0.209874,0.0131457 -0.306685,0.0660945l-0.0508346 -0.0933307z"/></g><rect class="fil1" height="6.82666" width="6.82666"/></svg>