<?xml version="1.0" ?><!DOCTYPE svg  PUBLIC '-//W3C//DTD SVG 1.1//EN'  'http://www.w3.org/Graphics/SVG/1.1/DTD/svg11.dtd'><svg height="6.82666in" style="shape-rendering:geometricPrecision; text-rendering:geometricPrecision; image-rendering:optimizeQuality; fill-rule:evenodd; clip-rule:evenodd" viewBox="0 0 6.82666 6.82666" width="6.82666in" xml:space="preserve" xmlns="http://www.w3.org/2000/svg" xmlns:xlink="http://www.w3.org/1999/xlink"><defs><style type="text/css">
   <![CDATA[
    .fil1 {fill:none}
    .fil0 {fill:#212121;fill-rule:nonzero}
   ]]>
  </style></defs><g id="Layer_x0020_1"><path class="fil0" d="M3.19266 5.91667l-2.21127 -0.793252 -0.0354134 -0.0127087 -3.93701e-006 -0.0372913 0 -3.24111 3.93701e-006 -0.0744094 0.0704134 0.0239921 2.21127 0.753469 0.036252 0.0123543 0 0.038063 0 3.28089 0 0.0755591 -0.071252 -0.0255591zm-2.14002 -0.880547l2.1046 0.754988 0 -3.16727 -2.1046 -0.717122 0 3.12941z"/><path class="fil0" d="M3.66945 5.79111l2.10457 -0.754988 0 -3.1294 -2.10457 0.717118 0 3.16727zm2.17582 -0.667693l-2.21124 0.793252 -0.071252 0.0255591 0 -0.0755591 0 -3.28089 0 -0.038063 0.036252 -0.0123543 2.21124 -0.753469 0.0704134 -0.0239921 3.93701e-006 0.0744094 0 3.24111 -3.93701e-006 0.0372913 -0.0354134 0.0127087z"/><path class="fil0" d="M1.2122 1.53868l2.23795 -0.629925 0.030622 0.000622047 2.07509 0.669059 0.000834646 0.101043 -2.07509 0.704496 -0.033748 0 -2.23795 -0.74363 0.00229134 -0.101665zm2.25138 -0.523118l-2.05575 0.578642 2.0563 0.683272 1.90616 -0.647142 -1.90671 -0.614772z"/></g><rect class="fil1" height="6.82666" width="6.82666"/></svg>