<?xml version="1.0" ?><!DOCTYPE svg  PUBLIC '-//W3C//DTD SVG 1.1//EN'  'http://www.w3.org/Graphics/SVG/1.1/DTD/svg11.dtd'><svg height="6.82666in" style="shape-rendering:geometricPrecision; text-rendering:geometricPrecision; image-rendering:optimizeQuality; fill-rule:evenodd; clip-rule:evenodd" viewBox="0 0 6.82666 6.82666" width="6.82666in" xml:space="preserve" xmlns="http://www.w3.org/2000/svg" xmlns:xlink="http://www.w3.org/1999/xlink"><defs><style type="text/css">
   <![CDATA[
    .fil1 {fill:none}
    .fil0 {fill:#212121;fill-rule:nonzero}
   ]]>
  </style></defs><g id="Layer_x0020_1"><path class="fil0" d="M0.959996 0.906661l4.90667 0 0.0533346 0 0 0.0533346 0 4.90667 0 0.0533346 -0.0533346 0 -4.90667 0 -0.0533346 0 0 -0.0533346 0 -4.90667 0 -0.0533346 0.0533346 0zm4.85333 0.106669l-4.8 0 0 4.8 4.8 0 0 -4.8z"/><g id="_428471152"><path class="fil0" d="M1.80315 1.73441l0.62313 0 0.0533346 0 0 0.0533346 0 2.57471 1.26069 0 0.0533346 0 0 0.0533346 0 0.62313 0 0.0533346 -0.0533346 0 -1.31402 0 -0.388819 0 -0.234311 0 -0.0533346 0 0 -0.0533346 0 -3.25117 0 -0.0533346 0.0533346 0zm0.569795 0.106669l-0.516461 0 0 3.1445 0.180976 0 0.388819 0 1.26069 0 0 -0.516461 -1.26069 0 -0.0533346 0 0 -0.0533346 0 -2.57471z" id="_428471752"/><path class="fil0" d="M4.35517 3.05088l0.668346 0 0.0533346 0 0 0.0533346 0 1.9347 0 0.0533346 -0.0533346 0 -0.668346 0 -0.0533346 0 0 -0.0533346 0 -1.9347 0 -0.0533346 0.0533346 0zm0.615012 0.106669l-0.561677 0 0 1.82803 0.561677 0 0 -1.82803z" id="_428471800"/><path class="fil0" d="M4.35517 1.73441l0.668346 0 0.0533346 0 0 0.0533346 0 0.721094 0 0.0533346 -0.0533346 0 -0.668346 0 -0.0533346 0 0 -0.0533346 0 -0.721094 0 -0.0533346 0.0533346 0zm0.615012 0.106669l-0.561677 0 0 0.614425 0.561677 0 0 -0.614425z" id="_428471224"/></g></g><rect class="fil1" height="6.82666" width="6.82666"/></svg>