<?xml version="1.0" ?><!DOCTYPE svg  PUBLIC '-//W3C//DTD SVG 1.1//EN'  'http://www.w3.org/Graphics/SVG/1.1/DTD/svg11.dtd'><svg height="6.82666in" style="shape-rendering:geometricPrecision; text-rendering:geometricPrecision; image-rendering:optimizeQuality; fill-rule:evenodd; clip-rule:evenodd" viewBox="0 0 6.82666 6.82666" width="6.82666in" xml:space="preserve" xmlns="http://www.w3.org/2000/svg" xmlns:xlink="http://www.w3.org/1999/xlink"><defs><style type="text/css">
   <![CDATA[
    .fil1 {fill:none}
    .fil0 {fill:#212121;fill-rule:nonzero}
   ]]>
  </style></defs><g id="Layer_x0020_1"><path class="fil0" d="M5.81046 3.09019c-0.00485433,0.0817008 -0.0120354,0.161984 -0.0215236,0.240839 -0.0102244,0.0849724 -0.0233346,0.169925 -0.0393268,0.254835 -0.0160669,0.0850157 -0.0388819,0.175091 -0.0684488,0.27022 -0.0292244,0.0940118 -0.0654055,0.19376 -0.108563,0.299252l0 0.000208661c-0.0431063,0.10528 -0.0910079,0.20548 -0.143736,0.300559 -0.0529134,0.0954173 -0.110496,0.185421 -0.172772,0.269949 -0.0630315,0.0857244 -0.137709,0.168925 -0.223969,0.249555 -0.0855039,0.0799252 -0.182697,0.157512 -0.291524,0.232717 -0.109461,0.0756299 -0.226091,0.14039 -0.349854,0.194232 -0.123709,0.0538189 -0.254465,0.096752 -0.39224,0.128764l-7.87402e-006 -3.54331e-005c-0.074122,0.0192638 -0.148378,0.0344409 -0.222787,0.0455197 -0.0747559,0.0111299 -0.151028,0.0183228 -0.228827,0.0215669l-0.00208268 0.000208661c-0.000940945,0 0.000511811,0.000232283 -0.00135433,0.00069685 -0.00555906,0.00138976 -0.0120079,0.00331496 -0.0193071,0.00577559l-0.014374 0.00270866c-0.0655236,0.00324409 -0.129043,0.00486614 -0.190567,0.00486614 -0.0615236,0 -0.125004,-0.00162205 -0.190445,-0.00486614l-0.00166535 0c-0.397413,-0.0319961 -0.747917,-0.145984 -1.05149,-0.341941 -0.303299,-0.195776 -0.558929,-0.472862 -0.766866,-0.831236l-0.000208661 -0.000417323c-0.211878,-0.374323 -0.327433,-0.740154 -0.36074,-1.07807 -0.035685,-0.361988 0.0229961,-0.692256 0.158791,-0.967264 0.00534646,-0.0234409 0.0176772,-0.0528661 0.0369882,-0.0882677 0.0179488,-0.0328976 0.0423819,-0.072126 0.0732953,-0.117665l0 -0.0112402c-0.00628346,-0.0895512 -0.00497244,-0.175071 0.00388976,-0.256512 0.00899606,-0.0826654 0.0259134,-0.16122 0.0507087,-0.235602 0.024189,-0.0725787 0.0463386,-0.131421 0.0664685,-0.176524 0.0219606,-0.0492205 0.0426457,-0.0845 0.0620748,-0.105839 0.0148465,-0.016315 0.0291299,-0.0317756 0.0429016,-0.0464094 0.0147677,-0.0157008 0.0261181,-0.0275236 0.0339528,-0.0353583l0.0858425 -0.0858386 0.00499213 0.121465c0.00274803,0.0669291 0.0217402,0.132791 0.056937,0.197547 0.034378,0.063248 0.0840748,0.125539 0.149051,0.186843 0.012374,0.00183858 0.0239331,0.00325197 0.034685,0.00422441 0.0126181,0.00114173 0.0258189,0.00177165 0.0395787,0.0018937 0.0797953,-0.0155433 0.161669,-0.0225276 0.245567,-0.0209134 0.0749134,0.00143307 0.150976,0.0098189 0.228161,0.0251535 0.0508622,-0.0572126 0.112445,-0.105732 0.184701,-0.145547 0.0813465,-0.0448189 0.176319,-0.0787638 0.284874,-0.101807l0.00833465 -0.00104331 0.178571 -0.00938976 0.0295827 0.0989606c-0.0843031,0.0494213 -0.151661,0.109449 -0.202094,0.180071 -0.047189,0.0660748 -0.0798661,0.141898 -0.0980591,0.227472 0.0289055,0.056626 0.0613228,0.0991772 0.0972244,0.12765 0.0356299,0.0282559 0.0755315,0.042378 0.119669,0.042378l0.206783 0c0.0557126,0 0.0993543,0.00263386 0.13089,0.00788583 0.049189,0.00819685 0.0787717,0.0271378 0.0887087,0.0567677l0.00270866 0.016874 1.1811e-005 0.0046811c0.00309449,0.00795669 0.00464173,0.0165945 0.00462992,0.0259094 -3.93701e-006,0.00866929 -0.00147638,0.0174331 -0.00440945,0.0262953l0 0.00891339 -0.000417323 0.00520866c-0.00715354,0.0709724 -0.0321102,0.119925 -0.0695315,0.159224 -0.0342992,0.0360157 -0.0766772,0.0609921 -0.124894,0.0877992 -0.0338307,0.0225945 -0.0666535,0.0447559 -0.0987677,0.0667165 -0.0303228,0.0207323 -0.0559252,0.0385433 -0.076685,0.053374l-0.00291732 0.00187402c-0.0382047,0.0235276 -0.0666024,0.0431614 -0.0852008,0.0588937 -0.0077126,0.00652362 -0.0115669,-0.00772047 -0.0115669,-0.000720472l0 0.00941339 0 0.0114331c0.00456693,0.0122638 0.00863386,0.0250866 0.0122008,0.0384567 0.00681496,0.0255748 0.0119409,0.0534094 0.015374,0.0834843 0.00624409,0.0286575 0.0102087,0.0523189 0.0119055,0.0709252 0.00168898,0.0186063 0.00106299,0.0343898 -0.00187402,0.0473346l0 0.0773346 0 0.0862283 -0.0770827 -0.0385197c-0.0361102,-0.0180433 -0.0708071,-0.0328425 -0.104067,-0.0444094 -0.0279803,-0.00972835 -0.0553701,-0.0174213 -0.0821457,-0.0230787 -0.0322913,0.0147362 -0.0576535,0.0295984 -0.0760827,0.0445709 -0.0163071,0.013252 -0.0260748,0.0255276 -0.0292835,0.0367874l-0.00903543 0.0359685 -0.00759449 0.0303346c0.00133465,0.045626 0.0187047,0.0901063 0.0521142,0.133421 0.0380787,0.0493583 0.0965276,0.0973858 0.175327,0.144039l0.00145669 0.00104331c0.0307362,0.0195669 0.0619764,0.0350118 0.0937047,0.0463031 0.0308701,0.0109843 0.0620827,0.0178465 0.093622,0.0205472l0.000208661 0c0.0340472,0.003 0.0636417,0.00380315 0.0887638,0.00240945 0.0239016,-0.00132283 0.0439764,-0.0045 0.0602087,-0.00950787 0.0198307,-0.00610236 0.0415669,-0.0135945 0.065185,-0.0224528 0.0244409,-0.00916929 0.0511772,-0.0198661 0.080189,-0.0320748l0 -0.000208661c0.0295551,-0.0124094 0.0557756,-0.0228583 0.0786496,-0.0313346 0.0228386,-0.00845669 0.0415039,-0.0145197 0.0559724,-0.0181614l1.1811e-005 4.33071e-005c0.103217,-0.0273976 0.197756,-0.0288189 0.283618,-0.00427953 0.086252,0.0246535 0.162469,0.0750472 0.228654,0.151142 0.0255354,0.0258504 0.0413031,0.0526457 0.0473346,0.0802953 0.00703937,0.0322677 0.00114567,0.063189 -0.0176024,0.092685l-0.000208661 0c-0.017748,0.0278504 -0.040874,0.0465315 -0.0693386,0.0560118 -0.0222362,0.00740551 -0.0464094,0.00852756 -0.0725118,0.00335827 -0.00692913,0.00184646 -0.0132047,0.00312205 -0.0187992,0.00382283 -0.0102441,0.00128346 -0.0198031,0.000956693 -0.028626,-0.000996063 -0.0033937,0.00112598 -0.00784252,0.0028622 -0.0133425,0.00521654 -0.0109567,0.00468898 -0.020685,0.00874409 -0.0292283,0.0121732 -0.00775591,0.00311024 -0.0149134,0.00577165 -0.0216772,0.00802756l1.9685e-005 6.29921e-005c-0.00101969,0.00034252 -0.00384252,0.00190551 -0.00844094,0.00466535 -0.00644094,0.00386614 -0.0146496,0.00935433 -0.0245945,0.0164449 -0.0127795,0.00912205 -0.0233858,0.016378 -0.0317638,0.0217047l-9.44882e-005 -0.000149606c-0.0105866,0.00673622 -0.0195984,0.0119646 -0.0270394,0.0156417l3.93701e-005 7.87402e-005c-0.00451575,0.00224803 -0.0105866,0.00602362 -0.0182205,0.0113189 -0.00922441,0.00639764 -0.0205945,0.0148701 -0.0341181,0.0253661l-2.3622e-005 -2.75591e-005c-0.0158622,0.0123622 -0.0305157,0.0225866 -0.0439449,0.0306496 -0.0119764,0.00718898 -0.0232874,0.0128937 -0.0339331,0.0170945 -0.0404291,0.0292008 -0.0884016,0.0542795 -0.143909,0.0751929 -0.0573858,0.021622 -0.122815,0.0389646 -0.196268,0.0519803 -0.0587047,0.0104409 -0.11363,0.0167205 -0.164772,0.0188386 0.00272441,0.0016063 0.00538189,0.00314567 0.0079685,0.00461811l0.000208661 0.000208661c0.020563,0.011811 0.0492087,0.027689 0.0858622,0.0476024 0.0316575,0.0172008 0.0746024,0.0401772 0.128646,0.0688346l0.000208661 0.000208661c0.0479882,0.0255433 0.0928504,0.0466614 0.134547,0.0633425 0.0399685,0.0159882 0.0767087,0.0276102 0.110189,0.0348504 0.0336969,0.00736614 0.0721378,0.0128976 0.115272,0.0166024 0.0438189,0.00376378 0.0925354,0.00563386 0.14611,0.00563386 0.0519724,0 0.101173,-0.00435433 0.147587,-0.0130551 0.0465787,-0.00873228 0.0908504,-0.0217677 0.132803,-0.0390866l-3.14961e-005 -7.48031e-005c0.0423661,-0.0175669 0.0864488,-0.0414685 0.132193,-0.0717165 0.046748,-0.0309134 0.0949685,-0.0681811 0.14461,-0.111807 0.049689,-0.0436614 0.0984646,-0.0932244 0.146307,-0.148665 0.047689,-0.0552717 0.0945197,-0.116583 0.140465,-0.183925 0.00960236,-0.0159606 0.0174016,-0.0284606 0.0233898,-0.0374567 0.00845276,-0.0127126 0.0153583,-0.0217559 0.0207362,-0.0271339l0.015626 -0.015626 0.0220827 0c0.0489843,0 0.0655276,0.042126 0.0499016,0.126366 -0.00566142,0.0305157 -0.0148071,0.0714331 -0.0274213,0.122736 0.0341299,-0.067126 0.0608976,-0.151386 0.080311,-0.252764 0.0198819,-0.103988 0.0309646,-0.205957 0.0332323,-0.305874 0.00227953,-0.100378 -0.00416929,-0.199173 -0.0193465,-0.296354l-0.0146614 -0.0938543 0.0875787 0.036563c0.0449016,0.018748 0.0833898,0.0460591 0.115472,0.0819331 0.00777559,0.00869291 0.0151378,0.0178386 0.0220866,0.0274449 0.00466535,-0.0241535 0.00885827,-0.049378 0.0125748,-0.0756811 0.0107598,-0.0761142 0.0176929,-0.160827 0.0207835,-0.254098 0.00295276,-0.0922953 -0.000133858,-0.17698 -0.00927953,-0.254039 -0.0089685,-0.0755787 -0.0236969,-0.142736 -0.044189,-0.201457l-0.034689 -0.0993819 0.100524 0.0310472c0.0260709,0.00805118 0.0513583,0.0205394 0.0758543,0.0374449 -0.0326929,-0.0729961 -0.0700472,-0.135634 -0.113193,-0.194039 -0.0440118,-0.0595787 -0.0944134,-0.115244 -0.152217,-0.173197 -0.0710748,-0.0709409 -0.161496,-0.134882 -0.259335,-0.187976 -0.104539,-0.0567323 -0.216701,-0.100567 -0.322217,-0.126976l1.1811e-005 -4.72441e-005c-0.00909449,-0.00225591 -0.028,-0.00622441 -0.0469055,-0.0101969 -0.048874,-0.0102598 -0.0978189,-0.0208701 -0.0978189,-0.0647402 0,-0.0330906 0.0150354,-0.0508268 0.0465827,-0.0532165 0.0784685,-0.0216496 0.157811,-0.038 0.237996,-0.0490079 0.0331969,-0.00455512 0.0664213,-0.00820079 0.0996693,-0.010937 -0.12678,-0.0576575 -0.332094,-0.101094 -0.461661,-0.128508 -0.0276496,-0.00584646 -0.0520866,-0.0110197 -0.0712165,-0.0153504l-0.00390551 0 0 -0.000889764 -0.00248425 -0.000570866 0.00248425 -0.0108543 0 -0.0943543 0.00938976 0 0.00229921 0c0.262177,-0.0717795 0.608669,-0.00619291 0.908059,0.146358 0.214012,0.109039 0.405307,0.263154 0.526303,0.444043 0.00400787,-0.0711496 0.0103504,-0.119213 0.0185394,-0.147913 0.0384606,-0.134772 0.0878898,-0.122327 0.143654,-0.00651181l8.26772e-005 -3.93701e-005c0.0193701,0.0402559 0.0407087,0.112571 0.0625039,0.203157 0.059874,0.248878 0.125929,0.645134 0.161492,0.877193 0.0210276,-0.0358543 0.0393465,-0.059185 0.0548425,-0.0723583 0.0479016,-0.0407205 0.085878,-0.0315906 0.113138,0.0119528l0.000208661 0c0.0127559,0.0203819 0.0183661,0.0522795 0.0170591,0.0897441 -0.00294882,0.0844921 -0.0406299,0.219476 -0.109161,0.301165zm-0.127358 0.228343c0.0101496,-0.0843583 0.0175512,-0.168681 0.0221811,-0.252937l0.015 -0.0341654c0.0423543,-0.0433189 0.0709646,-0.115787 0.0844134,-0.179449 -0.0141024,0.0284961 -0.030252,0.0646457 -0.0485945,0.109638l-0.102291 -0.0139567c-0.00997638,-0.0869528 -0.103118,-0.703307 -0.18426,-1.04059 -0.00527165,-0.0219173 -0.0104724,-0.0425748 -0.015563,-0.0617244 -0.00266929,0.0523898 -0.00411024,0.119508 -0.00411024,0.203331l-0.103752 0.016874c-0.0797717,-0.237709 -0.306598,-0.44524 -0.572657,-0.580799 -0.157217,-0.0801063 -0.327276,-0.134685 -0.488118,-0.155205 0.152583,0.0437047 0.299831,0.103272 0.34848,0.18428l0.0484173 0.080626 -0.0940433 0c-0.0797913,0 -0.158087,0.0052874 -0.234874,0.0158228 -0.00500394,0.000685039 -0.0100039,0.00139764 -0.015,0.00212992 0.0788701,0.0270866 0.158453,0.0618819 0.23402,0.10289 0.105862,0.0574488 0.204634,0.127571 0.283559,0.206366l0.000208661 0.000208661c0.0611496,0.0612992 0.114799,0.120626 0.162366,0.185016 0.0480551,0.0650472 0.0895669,0.134791 0.125819,0.216197l0.000208661 0.000208661c0.0192992,0.0435236 0.0364685,0.089878 0.0514567,0.139016 0.0147756,0.0484409 0.0270236,0.0984409 0.036689,0.149941l-0.0997913 0.0335394c-0.0291535,-0.0581339 -0.059248,-0.105252 -0.0902677,-0.141346 0.00473622,0.0256811 0.00874016,0.0522323 0.0119961,0.0796654 0.00962992,0.0811496 0.0128583,0.171102 0.00969685,0.269866 -0.00324409,0.0979331 -0.0104567,0.18639 -0.0216181,0.26535 -0.0114409,0.080937 -0.0269331,0.152378 -0.0464724,0.214299l-0.026315 0.0833858 -0.0620197 -0.0617205 -0.0188701 -0.0187795 -0.0127087 -0.0197913c-0.011189,-0.0312362 -0.025248,-0.0579055 -0.0421732,-0.0799921 0.00524409,0.062811 0.0071378,0.126161 0.00568898,0.190051 -0.00242913,0.106862 -0.014063,0.214803 -0.0349016,0.323787 -0.0212953,0.111193 -0.0515591,0.205217 -0.0907992,0.282055 -0.0408504,0.0799882 -0.0914331,0.141283 -0.151748,0.183854l-0.030626 0.00979528c-0.0440866,0 -0.0616457,-0.0312047 -0.0527126,-0.0937047 0.00330315,-0.0231575 0.00977953,-0.0572402 0.0194094,-0.102268l0.000625984 -0.00229134 0.00462205 -0.0179528c-0.0158661,0.019878 -0.031874,0.0391772 -0.0480276,0.0578976 -0.0508504,0.0589252 -0.103098,0.111957 -0.156724,0.159083 -0.0536535,0.0471535 -0.105626,0.0873346 -0.155862,0.120555 -0.0515787,0.0341063 -0.10163,0.0612008 -0.150106,0.0812992l-0.000208661 0c-0.0489331,0.0202205 -0.100209,0.0353661 -0.153815,0.0454134 -0.0538307,0.0100906 -0.109559,0.0151417 -0.167169,0.0151417 -0.0561654,0 -0.107795,-0.00200787 -0.154858,-0.00605118 -0.047748,-0.00410236 -0.0907677,-0.0103268 -0.12902,-0.018689 -0.038626,-0.00835433 -0.0810591,-0.0217795 -0.127276,-0.0402677 -0.044374,-0.017752 -0.092626,-0.0404921 -0.144717,-0.0682087l-3.93701e-005 7.48031e-005c-0.0462362,-0.0245157 -0.0895,-0.0477165 -0.129898,-0.0696693 -0.0352874,-0.0191732 -0.0645157,-0.0354094 -0.0876929,-0.0487126l-3.93701e-005 6.69291e-005c-0.0235551,-0.0134055 -0.0506614,-0.030622 -0.0813189,-0.0516102 -0.0292402,-0.0200157 -0.0635591,-0.0448268 -0.102898,-0.0743425l0.045622 -0.0939567c0.0422992,0.0112835 0.0905945,0.0169331 0.144866,0.0169331 0.0557598,0 0.117335,-0.00599606 0.184697,-0.0179764 0.0674252,-0.0119488 0.126461,-0.0274803 0.177102,-0.046563 0.0495394,-0.0186654 0.0910315,-0.0405551 0.124472,-0.065622l0.0154173 -0.00812598c0.00569685,-0.00187008 0.0126614,-0.00528346 0.0208661,-0.0102087 0.00997244,-0.00598819 0.0210906,-0.0137717 0.0333425,-0.0233268l0.000208661 -0.000208661c0.0147283,-0.0114331 0.0276102,-0.021 0.0387008,-0.0286969 0.0126929,-0.00880315 0.0230551,-0.0152165 0.0311417,-0.0192402l0.000204724 0c0.00502756,-0.00248031 0.0107913,-0.00579921 0.0173071,-0.00994488l0 -0.000208661c0.00885433,-0.00562992 0.0178858,-0.011748 0.0271732,-0.018374 0.0118937,-0.00847638 0.0224606,-0.0154961 0.0316811,-0.0210276 0.0110551,-0.0066378 0.0208228,-0.0113937 0.0292756,-0.014248l0.000208661 0c0.00259449,-0.000862205 0.00784252,-0.00288976 0.0156142,-0.00600394 0.00705118,-0.00283071 0.0161024,-0.00661417 0.0271417,-0.0113386 0.0136339,-0.00583858 0.0257598,-0.0099252 0.0363386,-0.0122677 0.0139016,-0.0030748 0.0264921,-0.00322441 0.037748,-0.000472441 0.0026811,-0.000594488 0.00594488,-0.00153543 0.00976772,-0.00281496l0.0314567 -0.000622047c0.0113937,0.00328346 0.0201693,0.00389764 0.0263071,0.00185433 0.00444094,-0.00147638 0.00879134,-0.00553937 0.0130276,-0.0121614l-0.000149606 -9.44882e-005c0.00311811,-0.00490945 0.00426772,-0.00929134 0.00343701,-0.0131102 -0.00171654,-0.00787008 -0.00822047,-0.0174567 -0.0195157,-0.0287283l-0.00270866 -0.00291732c-0.0525354,-0.0608031 -0.112122,-0.100744 -0.178764,-0.119791 -0.0674449,-0.0192756 -0.143445,-0.0176614 -0.228004,0.0048622l-0.000625984 0.000208661c-0.010626,0.00267717 -0.0256811,0.00762598 -0.0451378,0.0148307 -0.0194213,0.00719685 -0.044122,0.0170945 -0.0740669,0.0296654l-7.48031e-005 -0.000177165c-0.0305394,0.0128504 -0.0586339,0.0240906 -0.0842795,0.0337126 -0.0264921,0.00993701 -0.0501732,0.018122 -0.0710197,0.0245394 -0.0245827,0.00758661 -0.053126,0.0122913 -0.085626,0.0140906 -0.031252,0.00173622 -0.0658504,0.000933071 -0.103764,-0.00240945l0 -1.9685e-005c-0.0405,-0.00348819 -0.0805315,-0.0122874 -0.120083,-0.0263622 -0.0382402,-0.0136102 -0.0762008,-0.0323504 -0.113858,-0.0561811l-5.11811e-005 8.66142e-005c-0.090374,-0.0535039 -0.158823,-0.110421 -0.205327,-0.170709 -0.0498031,-0.064563 -0.0747047,-0.132618 -0.0747047,-0.204118l0.00166929 -0.0127087 0.00935039 -0.0377638 0.00945276 -0.0376339 0.000417323 -0.00166535c0.00927953,-0.0325512 0.0308465,-0.0626142 0.0647008,-0.0901181 0.0289843,-0.0235472 0.0676811,-0.0457087 0.116091,-0.0664409l0.0304173 -0.00333465c0.0372008,0.00679921 0.0751417,0.0169213 0.113799,0.0303622 0.0131417,0.00457087 0.0263031,0.00948819 0.0394803,0.014752l0 -0.00223622 0.00562598 -0.0235433c0.00128346,-0.00259449 -0.00225984,0.000283465 -0.00291732,-0.00694094 -0.00136614,-0.0150197 -0.00492126,-0.0355079 -0.0106614,-0.061437l-0.00104331 -0.00562205c-0.0028622,-0.0256457 -0.00708268,-0.048937 -0.0126535,-0.0698465 -0.00538976,-0.0202165 -0.0119016,-0.0379724 -0.0195354,-0.0532283l-0.038563 -0.0770827 0.0573976 0c0.00814567,-0.0119921 0.0195551,-0.0241929 0.0342323,-0.0366102 0.021748,-0.0183976 0.0537283,-0.0406417 0.0959724,-0.0667402 0.0228307,-0.0162992 0.048685,-0.034311 0.0775787,-0.054063 0.0268346,-0.0183504 0.0608071,-0.0412362 0.101488,-0.0683937l0.00374803 -0.00229134c0.0411299,-0.0228386 0.0769173,-0.0435906 0.101346,-0.069248 0.0210984,-0.0221575 0.0354764,-0.0505512 0.0403583,-0.0924685l0 -0.00802362 0.000208661 0 -2.3622e-005 -0.0093937 0.00409055 -0.0177835 -0.00274803 -0.00670079c-0.000129921,0.00461811 -0.000862205,0.00935039 -0.00400394,0.00882677 -0.0248583,-0.0041378 -0.0626614,-0.00621654 -0.113394,-0.00621654l-0.206783 0c-0.0686811,0 -0.130665,-0.0218976 -0.185921,-0.0657165 -0.0516732,-0.0409803 -0.0965512,-0.101272 -0.134579,-0.180878l-0.00437402 -0.0327087c0.0202441,-0.107925 0.0600236,-0.203441 0.11937,-0.286535 0.0259488,-0.0363346 0.055563,-0.070189 0.0888701,-0.101583 -0.095937,0.0208189 -0.179354,0.050752 -0.250217,0.0897913 -0.0707874,0.0390079 -0.128957,0.0869646 -0.174441,0.14385l-0.0207126 0.0259055 -0.0322008 -0.00715748c-0.0811339,-0.0180315 -0.160622,-0.0277913 -0.238429,-0.0292835 -0.077189,-0.00148031 -0.153366,0.00529528 -0.22848,0.020311l-0.0104173 0.00104331c-0.0158268,0 -0.0338661,-0.000913386 -0.0541614,-0.00275197 -0.0193465,-0.00175591 -0.0386732,-0.00425197 -0.0579646,-0.00749606l-0.0270866 -0.0133346c-0.0796693,-0.0729843 -0.140492,-0.148079 -0.182433,-0.225236 -0.0233268,-0.0429134 -0.0408425,-0.0864331 -0.052563,-0.130551 -0.0119882,0.0131732 -0.026563,0.0390079 -0.0437283,0.0774803 -0.0190157,0.0426063 -0.0399134,0.0981142 -0.0627126,0.166524 -0.0222244,0.0666732 -0.0374764,0.13787 -0.0457087,0.213524 -0.00825197,0.0758307 -0.00935433,0.156091 -0.00326378,0.240724l0.000208661 0.00374803 0 0.0282165 -0.00958661 0.0302087c-0.0335394,0.0487244 -0.0592205,0.0894252 -0.0770472,0.122102 -0.015874,0.0290984 -0.024874,0.0500984 -0.0269921,0.0629921l-0.005 0.0152047c-0.129315,0.25863 -0.185256,0.5715 -0.151283,0.916083 0.0318976,0.323602 0.143091,0.674929 0.347173,1.03559l1.9685e-005 -1.1811e-005c0.199323,0.343528 0.443421,0.608528 0.732283,0.794984 0.288575,0.186276 0.622693,0.294705 1.00233,0.325272l-7.87402e-006 8.26772e-005c0.059315,0.00290945 0.120583,0.00436614 0.183787,0.00436614 0.0612362,0 0.120677,-0.00136614 0.178323,-0.00409843 0.00804331,-0.00261024 0.0147323,-0.0045748 0.0200906,-0.00591339 0.0108268,-0.00270472 0.0198976,-0.00403543 0.027189,-0.00403543l0 0.00011811c0.071874,-0.0030748 0.143701,-0.00995276 0.215492,-0.0206417 0.0723425,-0.0107717 0.143335,-0.0252402 0.213004,-0.0433976l0.00146063 -0.000417323c0.131512,-0.0305551 0.256016,-0.0714055 0.373492,-0.122512 0.117559,-0.0511417 0.228209,-0.112567 0.331933,-0.184232 0.104157,-0.0719764 0.197323,-0.14637 0.279445,-0.223134 0.0813386,-0.0760315 0.151567,-0.154232 0.21063,-0.234555 0.0599961,-0.081437 0.11522,-0.167689 0.165693,-0.258705 0.0506614,-0.0913543 0.0967598,-0.187803 0.138319,-0.289307l7.48031e-005 3.14961e-005c0.0414016,-0.101228 0.0764488,-0.198 0.10515,-0.290327 0.0283622,-0.0912598 0.0502047,-0.177437 0.0655354,-0.258551 0.0152559,-0.0809961 0.0279488,-0.163591 0.0380748,-0.247748z"/></g><rect class="fil1" height="6.82666" width="6.82666"/></svg>