<?xml version="1.0" ?><!DOCTYPE svg  PUBLIC '-//W3C//DTD SVG 1.1//EN'  'http://www.w3.org/Graphics/SVG/1.1/DTD/svg11.dtd'><svg height="6.82666in" style="shape-rendering:geometricPrecision; text-rendering:geometricPrecision; image-rendering:optimizeQuality; fill-rule:evenodd; clip-rule:evenodd" viewBox="0 0 6.82666 6.82666" width="6.82666in" xml:space="preserve" xmlns="http://www.w3.org/2000/svg" xmlns:xlink="http://www.w3.org/1999/xlink"><defs><style type="text/css">
   <![CDATA[
    .fil1 {fill:none}
    .fil0 {fill:#212121;fill-rule:nonzero}
   ]]>
  </style></defs><g id="Layer_x0020_1"><path class="fil0" d="M5.47303 2.08587c0.123417,0 0.235165,0.0500354 0.316047,0.130917 0.0808819,0.0808819 0.130917,0.19263 0.130917,0.316047 0,0.123417 -0.0500354,0.235165 -0.130917,0.316047 -0.0808819,0.0808819 -0.19263,0.130917 -0.316047,0.130917 -0.123417,0 -0.235165,-0.0500354 -0.316043,-0.130917 -0.0808819,-0.0808819 -0.130917,-0.19263 -0.130917,-0.316047 0,-0.123417 0.0500354,-0.235165 0.130917,-0.316047 0.080878,-0.0808819 0.192626,-0.130917 0.316043,-0.130917zm0.24063 0.206335c-0.0615748,-0.0615748 -0.146654,-0.0996654 -0.24063,-0.0996654 -0.0939724,0 -0.179055,0.0380906 -0.240626,0.0996654 -0.0615748,0.0615748 -0.0996654,0.146654 -0.0996654,0.24063 0,0.0939764 0.0380906,0.179055 0.0996654,0.24063 0.0615709,0.0615748 0.146654,0.0996654 0.240626,0.0996654 0.0939764,0 0.179055,-0.0380906 0.24063,-0.0996654 0.0615748,-0.0615748 0.0996654,-0.146657 0.0996654,-0.24063 0,-0.0939764 -0.0380906,-0.179055 -0.0996654,-0.24063z"/><path class="fil0" d="M1.16399 3.99885c0.0710472,0 0.135382,0.028811 0.181953,0.075374 0.046563,0.0465709 0.075374,0.110906 0.075374,0.181953 0,0.0710512 -0.0288031,0.135386 -0.075374,0.181957 -0.046563,0.046563 -0.110902,0.075374 -0.181953,0.075374 -0.0710512,0 -0.13539,-0.028811 -0.181953,-0.075374 -0.0465709,-0.0465709 -0.075374,-0.110906 -0.075374,-0.181957 0,-0.0710512 0.0288031,-0.135382 0.075374,-0.181953 0.046563,-0.046563 0.110902,-0.075374 0.181953,-0.075374zm0.106535 0.150791c-0.0272598,-0.0272559 -0.0649291,-0.044122 -0.106535,-0.044122 -0.0416063,0 -0.0792795,0.0168661 -0.106535,0.044122 -0.0272559,0.0272559 -0.044122,0.0649291 -0.044122,0.106535 0,0.0416063 0.0168661,0.0792835 0.044122,0.106539 0.0272559,0.0272559 0.0649291,0.044122 0.106535,0.044122 0.0416063,0 0.0792795,-0.0168661 0.106535,-0.044122 0.0272559,-0.0272559 0.044122,-0.0649331 0.044122,-0.106539 0,-0.0416063 -0.0168661,-0.0792756 -0.044122,-0.106535z"/><path class="fil0" d="M3.33287 4.4131c0.109894,0 0.209394,0.0445472 0.281417,0.116571 0.0720197,0.0720197 0.116575,0.171524 0.116575,0.281417 0,0.109894 -0.0445512,0.209398 -0.116575,0.281417 -0.0720197,0.0720236 -0.171524,0.116575 -0.281417,0.116575 -0.109894,0 -0.209398,-0.0445551 -0.281417,-0.116575 -0.0720236,-0.0720236 -0.116571,-0.171524 -0.116571,-0.281417 0,-0.109894 0.0445472,-0.20939 0.116571,-0.281413 0.0720197,-0.0720197 0.171524,-0.116575 0.281417,-0.116575zm0.206 0.191988c-0.0527126,-0.0527126 -0.125551,-0.0853189 -0.206,-0.0853189 -0.0804488,0 -0.153287,0.0326102 -0.206,0.0853228 -0.0527126,0.0527126 -0.0853189,0.125547 -0.0853189,0.205996 0,0.0804488 0.0326063,0.153287 0.0853189,0.206 0.0527126,0.0527126 0.125551,0.0853228 0.206,0.0853228 0.0804528,0 0.153287,-0.0326063 0.206,-0.0853228 0.0527165,-0.0527126 0.0853228,-0.125547 0.0853228,-0.206 0,-0.0804488 -0.0326102,-0.153287 -0.0853228,-0.206z"/><path class="fil0" d="M3.19848 1.61758c0.0783819,0 0.149358,0.0317795 0.200728,0.0831496 0.0513701,0.0513701 0.0831496,0.122343 0.0831496,0.200728 0,0.0783819 -0.0317795,0.149358 -0.0831496,0.200728 -0.0513701,0.0513701 -0.122346,0.0831496 -0.200728,0.0831496 -0.0783819,0 -0.149358,-0.0317795 -0.200728,-0.0831496 -0.0513701,-0.0513701 -0.0831496,-0.122346 -0.0831496,-0.200728 0,-0.0783819 0.0317795,-0.149358 0.0831496,-0.200728 0.0513701,-0.0513701 0.122346,-0.0831496 0.200728,-0.0831496zm0.125311 0.158567c-0.032063,-0.032063 -0.076374,-0.0518976 -0.125311,-0.0518976 -0.048937,0 -0.093248,0.0198346 -0.125311,0.0518976 -0.032063,0.032063 -0.0518976,0.076374 -0.0518976,0.125311 0,0.048937 0.0198346,0.093248 0.0518976,0.125311 0.032063,0.032063 0.076374,0.0518976 0.125311,0.0518976 0.048937,0 0.093248,-0.0198346 0.125311,-0.0518976 0.032063,-0.032063 0.0518976,-0.076374 0.0518976,-0.125311 0,-0.0489409 -0.0198346,-0.093248 -0.0518976,-0.125311z"/><path class="fil0" d="M5.05986 3.77673c0.0783858,0 0.149358,0.0317795 0.200728,0.0831496 0.0513701,0.0513701 0.0831496,0.122346 0.0831496,0.200728 0,0.0783858 -0.0317795,0.149358 -0.0831496,0.200728 -0.0513701,0.0513701 -0.122343,0.0831496 -0.200728,0.0831496 -0.0783819,0 -0.149358,-0.0317795 -0.200728,-0.0831496 -0.0513701,-0.0513701 -0.0831496,-0.122343 -0.0831496,-0.200728 0,-0.0783819 0.0317795,-0.149358 0.0831496,-0.200728 0.0513701,-0.0513701 0.122346,-0.0831496 0.200728,-0.0831496zm0.125311 0.158567c-0.032063,-0.032063 -0.0763701,-0.0518976 -0.125311,-0.0518976 -0.048937,0 -0.093248,0.0198346 -0.125311,0.0518976 -0.032063,0.032063 -0.0518976,0.076374 -0.0518976,0.125311 0,0.0489409 0.0198346,0.093248 0.0518976,0.125311 0.032063,0.032063 0.076374,0.0518976 0.125311,0.0518976 0.0489409,0 0.093248,-0.0198346 0.125311,-0.0518976 0.032063,-0.032063 0.0518976,-0.0763701 0.0518976,-0.125311 0,-0.048937 -0.0198346,-0.093248 -0.0518976,-0.125311z"/><path class="fil0" d="M2.68179 3.32793c0.0746496,0 0.142244,0.0302677 0.191165,0.079189 0.0489213,0.0489213 0.079189,0.116516 0.079189,0.191165 0,0.0746496 -0.0302677,0.14224 -0.079189,0.191161 -0.0489213,0.0489213 -0.116516,0.079189 -0.191165,0.079189 -0.0746496,0 -0.142244,-0.0302677 -0.191165,-0.079189 -0.0489213,-0.0489213 -0.079189,-0.116512 -0.079189,-0.191161 0,-0.0746496 0.0302677,-0.142244 0.079189,-0.191165 0.0489213,-0.0489213 0.116516,-0.079189 0.191165,-0.079189zm0.115748 0.154606c-0.0296142,-0.0296142 -0.0705433,-0.047937 -0.115748,-0.047937 -0.0452047,0 -0.0861339,0.0183228 -0.115748,0.047937 -0.0296142,0.0296142 -0.047937,0.0705433 -0.047937,0.115748 0,0.0452047 0.0183228,0.0861299 0.047937,0.115744 0.0296142,0.0296142 0.0705433,0.047937 0.115748,0.047937 0.0452047,0 0.0861339,-0.0183228 0.115748,-0.047937 0.0296142,-0.0296142 0.047937,-0.0705394 0.047937,-0.115744 0,-0.0452047 -0.0183228,-0.0861339 -0.047937,-0.115748z"/><polygon class="fil0" points="3.09055,2.13404 1.26692,4.09867 1.189,4.02617 3.01263,2.06154 "/><polygon class="fil0" points="1.3654,4.28164 3.01031,4.67833 2.98531,4.78166 1.3404,4.38497 "/><polygon class="fil0" points="5.41833,2.91531 5.20301,3.8605 5.09926,3.83717 5.31458,2.89198 "/><polygon class="fil0" points="3.64825,4.68304 4.88047,4.17821 4.92089,4.27654 3.68867,4.78137 "/><polygon class="fil0" points="3.14206,4.52407 2.74171,3.81353 2.83463,3.76144 3.23498,4.47198 "/><polygon class="fil0" points="2.86341,3.46497 5.08672,2.6242 5.12422,2.72378 2.90091,3.56455 "/><polygon class="fil0" points="3.43777,1.90107 5.10862,2.37413 5.07987,2.47662 3.40902,2.00356 "/><polygon class="fil0" points="3.37844,2.05077 4.92321,3.87883 4.84196,3.94758 3.29719,2.11952 "/><polygon class="fil0" points="5.21781,2.83152 3.56696,4.5639 3.48988,4.49057 5.14074,2.75819 "/><polygon class="fil0" points="3.30499,2.132 3.30499,4.47685 3.19832,4.47685 3.19832,2.132 "/><polygon class="fil0" points="3.10346,2.10987 2.79546,3.41074 2.69172,3.38658 2.99972,2.08571 "/><polygon class="fil0" points="1.28823,4.06089 2.46659,3.61528 2.50408,3.71487 1.32573,4.16047 "/></g><rect class="fil1" height="6.82666" width="6.82666"/></svg>