<?xml version="1.0" ?><!DOCTYPE svg  PUBLIC '-//W3C//DTD SVG 1.1//EN'  'http://www.w3.org/Graphics/SVG/1.1/DTD/svg11.dtd'><svg height="6.82666in" style="shape-rendering:geometricPrecision; text-rendering:geometricPrecision; image-rendering:optimizeQuality; fill-rule:evenodd; clip-rule:evenodd" viewBox="0 0 6.82666 6.82666" width="6.82666in" xml:space="preserve" xmlns="http://www.w3.org/2000/svg" xmlns:xlink="http://www.w3.org/1999/xlink"><defs><style type="text/css">
   <![CDATA[
    .fil1 {fill:none}
    .fil0 {fill:#212121;fill-rule:nonzero}
   ]]>
  </style></defs><g id="Layer_x0020_1"><g id="_267514112"><path class="fil0" d="M5.56811 3.48714l-2.12854 1.21189 -2.13196 1.21384 7.87402e-005 0.000133858c-0.0255945,0.0145709 -0.0581654,0.0056378 -0.0727362,-0.0199567 -0.0056378,-0.00990551 -0.00775984,-0.0208583 -0.00675197,-0.0314055l0.0147402 -2.44853 0.0147677 -2.45333 0.053126 0.000208661 -0.0533307 -0.000322835c0.000177165,-0.0294528 0.0242008,-0.053185 0.0536535,-0.0530079 0.0113701,6.69291e-005 0.0218819,0.00369291 0.0305,0.00980709l2.11331 1.23715 2.11723 1.23943 0.000102362 -0.000173228c0.0254173,0.014878 0.0339606,0.0475551 0.0190827,0.0729724 -0.00564961,0.00964961 -0.0138622,0.0168622 -0.0232717,0.0212913zm-2.18104 1.11939l2.05197 -1.1683 -2.03783 -1.19295 -2.03782 -1.19295 -0.0142126 2.3612 -0.0142126 2.36137 2.0521 -1.16837z" id="_267514376"/><polygon class="fil0" id="_267514064" points="1.85407,1.21878 4.51789,4.00918 4.44081,4.08251 1.777,1.29211 "/><polygon class="fil0" id="_267514352" points="1.777,5.53231 4.44081,2.74192 4.51789,2.81525 1.85407,5.60565 "/></g></g><rect class="fil1" height="6.82666" width="6.82666"/></svg>