<?xml version="1.0" ?><!DOCTYPE svg  PUBLIC '-//W3C//DTD SVG 1.1//EN'  'http://www.w3.org/Graphics/SVG/1.1/DTD/svg11.dtd'><svg height="6.82666in" style="shape-rendering:geometricPrecision; text-rendering:geometricPrecision; image-rendering:optimizeQuality; fill-rule:evenodd; clip-rule:evenodd" viewBox="0 0 6.82666 6.82666" width="6.82666in" xml:space="preserve" xmlns="http://www.w3.org/2000/svg" xmlns:xlink="http://www.w3.org/1999/xlink"><defs><style type="text/css">
   <![CDATA[
    .fil1 {fill:none}
    .fil0 {fill:#212121;fill-rule:nonzero}
   ]]>
  </style></defs><g id="Layer_x0020_1"><path class="fil0" d="M5.65529 2.3032c-0.0403307,-0.177654 -0.0904449,-0.352713 -0.149917,-0.524071 -0.0592362,-0.170677 -0.128429,-0.339126 -0.20713,-0.504224l0 -0.000208661c-0.0375945,-0.079378 -0.0970551,-0.144689 -0.169102,-0.190173 -0.072126,-0.0455354 -0.156992,-0.071185 -0.245272,-0.071185 -0.0343268,0 -0.067752,0.00372835 -0.100035,0.0110906 -0.0325906,0.00743307 -0.0647638,0.018689 -0.0962598,0.0336654l-0.000472441 0.000224409c-0.113709,0.0540394 -0.194713,0.14961 -0.233854,0.260106 -0.039189,0.110626 -0.0364094,0.23613 0.0174961,0.349862l0.000224409 0.000472441c0.131039,0.276299 0.229122,0.560713 0.294583,0.852024 0.0659291,0.293417 0.0987205,0.593106 0.0987205,0.897846 0,0.303969 -0.0327795,0.602488 -0.0978583,0.893701 -0.0649016,0.290406 -0.161811,0.572602 -0.290248,0.844776 -0.000515748,0.00124803 -0.000228346,0.000354331 -0.00174803,0.00384252 -0.00738583,0.0169567 -0.0424449,0.0974528 -0.0424449,0.189177 0,0.0157795 0.000913386,0.0354843 0.0031811,0.0557362 0.00194882,0.017378 0.00470472,0.0349173 0.00844094,0.0505394l0.000208661 0.000625984c0.0151575,0.0666417 0.0450906,0.130358 0.0890748,0.185425 0.0413189,0.0517283 0.0949961,0.0956969 0.160413,0.127126l3.93701e-005 -8.66142e-005c0.0312559,0.0148346 0.0629882,0.0258268 0.095126,0.0330276 0.0322559,0.00722441 0.0659646,0.010811 0.101016,0.010811 0.0832953,0 0.163665,-0.0230197 0.233165,-0.0641417 0.0695669,-0.0411614 0.128303,-0.100425 0.168252,-0.172846l-5.51181e-005 -2.75591e-005c0.0531654,-0.0999764 0.106303,-0.215331 0.157142,-0.347594 0.0462441,-0.120315 0.091252,-0.255992 0.133528,-0.408587l0 -0.000417323c0.0147756,-0.0514646 0.0277677,-0.0985315 0.0390787,-0.142146 0.0120906,-0.0466102 0.0235591,-0.0936299 0.0347087,-0.142795l0 -0.000208661c0.0415433,-0.181866 0.0730866,-0.366622 0.0941811,-0.553945 0.0207756,-0.184484 0.031378,-0.371917 0.031378,-0.561992 0,-0.188319 -0.010689,-0.376657 -0.031626,-0.562488 -0.0210945,-0.187193 -0.0525551,-0.372291 -0.0939331,-0.552732l0 -0.000208661zm-0.0495 -0.558654c0.0609409,0.175594 0.112157,0.354346 0.153205,0.535126l4.33071e-005 -1.1811e-005c0.0423268,0.184579 0.0744882,0.373724 0.0960197,0.564811 0.0214921,0.190732 0.0324606,0.382988 0.0324606,0.574157 0,0.192929 -0.0108819,0.384272 -0.0322126,0.573661 -0.0215315,0.191213 -0.0537756,0.380008 -0.0962677,0.566024l-4.33071e-005 -1.1811e-005c-0.0112874,0.0497598 -0.0230197,0.0978346 -0.0355,0.145937 -0.0132677,0.0511575 -0.0262598,0.0985315 -0.0394961,0.144642l-0.000106299 -3.14961e-005c-0.0428819,0.154732 -0.0890079,0.293571 -0.136752,0.417783 -0.0534606,0.139079 -0.108177,0.258201 -0.162142,0.359681l-0.000417323 0.000625984c-0.0492992,0.0897283 -0.121858,0.163071 -0.20778,0.213917 -0.085752,0.0507402 -0.184803,0.0791417 -0.287331,0.0791417 -0.0416142,0 -0.0829528,-0.00455118 -0.123929,-0.0137323 -0.0405827,-0.00909449 -0.0798268,-0.0225787 -0.11763,-0.0405236l-0.000208661 -0.000208661c-0.0809252,-0.0388228 -0.147224,-0.093063 -0.198157,-0.156831 -0.0539764,-0.0675748 -0.0907717,-0.146051 -0.109492,-0.228346l5.51181e-005 -1.1811e-005c-0.0050748,-0.0213622 -0.00855512,-0.0428504 -0.0107913,-0.062815 -0.0028622,-0.0255709 -0.00401575,-0.0491929 -0.00401575,-0.0674055 0,-0.113157 0.0426378,-0.211055 0.0516181,-0.231673 0.000429134,-0.000992126 -0.000574803,0.00129528 0.000673228,-0.00177559l0.00124803 -0.00270866c0.12585,-0.266272 0.220614,-0.541724 0.283823,-0.824551 0.0631378,-0.28252 0.094937,-0.573382 0.094937,-0.870787 0,-0.297874 -0.0318189,-0.589783 -0.0957992,-0.874516 -0.0636772,-0.28339 -0.159264,-0.560421 -0.287087,-0.829937l-0.000224409 -0.000472441c-0.0664094,-0.140106 -0.069874,-0.294598 -0.0216614,-0.430697 0.0482559,-0.136232 0.148307,-0.25415 0.288854,-0.320941l0.000472441 -0.000224409c0.0381102,-0.018122 0.0776654,-0.0318819 0.118346,-0.0411614 0.0407835,-0.00930315 0.0820118,-0.0140118 0.123366,-0.0140118 0.108437,0 0.212925,0.0316535 0.301941,0.0878543 0.0888307,0.0560787 0.162165,0.136634 0.208602,0.234587l8.26772e-005 -3.93701e-005c0.0793386,0.166433 0.149921,0.338646 0.211295,0.515476z"/><path class="fil0" d="M2.80616 3.19369c-0.131661,-0.181661 -0.304039,-0.357783 -0.495524,-0.517366 -0.207386,-0.172835 -0.437079,-0.32635 -0.661894,-0.446713l-8.66142e-005 0.000161417c-0.0300512,-0.0159567 -0.0616693,-0.0281378 -0.0939724,-0.0362717 -0.0321496,-0.00809843 -0.065311,-0.0122795 -0.0986063,-0.0122795 -0.0762913,0 -0.148768,0.0205709 -0.211008,0.057752 -0.0625315,0.0373504 -0.115083,0.0915118 -0.151193,0.158488l-8.66142e-005 -4.72441e-005c-0.0529567,0.0994921 -0.0606732,0.211236 -0.0303228,0.311555 0.0303346,0.100283 0.0987756,0.188965 0.198106,0.242346l-4.72441e-005 8.66142e-005c0.359941,0.192476 0.672579,0.457823 0.897524,0.783071 0.208764,0.301854 0.342004,0.65502 0.367594,1.04917l-0.106252 0.00666929c-0.0242717,-0.37387 -0.150717,-0.708953 -0.348839,-0.995417 -0.215126,-0.311047 -0.514787,-0.565154 -0.860189,-0.749827l-0.000208661 0c-0.125303,-0.0673386 -0.211587,-0.179035 -0.249768,-0.30526 -0.0381417,-0.126075 -0.0282402,-0.266854 0.0387402,-0.392551l0 -0.000208661c0.0453465,-0.0841102 0.111516,-0.152228 0.190358,-0.199323 0.0788583,-0.0471102 0.170098,-0.0731693 0.265591,-0.0731693 0.0416969,0 0.0835433,0.0053189 0.124441,0.0156181 0.0409961,0.0103268 0.0807441,0.0255866 0.118138,0.045437l0 0.000208661c0.230953,0.123642 0.46689,0.281323 0.679894,0.458839 0.198543,0.165461 0.377295,0.348106 0.513862,0.536539l-0.086252 0.0624961z"/><path class="fil0" d="M2.9022 3.1564c0.00498425,0.0428543 0.00909055,0.0861969 0.0119882,0.130323 0.00292913,0.0446772 0.0045748,0.0886811 0.0045748,0.131902 0,0.209909 -0.0286575,0.417902 -0.0845236,0.618224 -0.0557402,0.199854 -0.138535,0.391638 -0.246957,0.569638l-3.93701e-006 -3.93701e-006c-0.0020748,0.00374016 -0.00479921,0.00870866 -0.00898425,0.0164685 -0.00255906,0.00474016 -0.0055,0.0103819 -0.00903937,0.0174646l-7.87402e-005 -3.93701e-005c-0.0179646,0.0365315 -0.0304016,0.0745 -0.0374449,0.112882 -0.00722047,0.0393701 -0.00884646,0.0793189 -0.00504331,0.118768 0.00637008,0.0673268 0.0282874,0.133016 0.0645039,0.191094 0.0344961,0.0553307 0.0820866,0.10363 0.141661,0.139665l-5.51181e-005 9.05512e-005c0.0155039,0.00930315 0.0315039,0.0175354 0.0479724,0.024748 0.0162795,0.00713386 0.0334173,0.0133819 0.0513819,0.0187953l0.000417323 0.000204724c0.0206772,0.00634646 0.0413661,0.0112283 0.062,0.0144606 0.0200157,0.00313386 0.0411299,0.0047874 0.0634016,0.0047874 0.0765866,0 0.149705,-0.0195276 0.213508,-0.0554016 0.0638819,-0.0359173 0.118528,-0.0880669 0.158094,-0.153248 0.131291,-0.216787 0.235654,-0.448252 0.311335,-0.689091 0.0755591,-0.240457 0.122331,-0.48987 0.138567,-0.742957l0 -0.000208661c0.0025,-0.0359213 0.00425591,-0.0701496 0.00533071,-0.102795 0.00101181,-0.030689 0.00149213,-0.0653504 0.00149213,-0.103547 0,-0.289256 -0.0392913,-0.575 -0.11572,-0.849669 -0.0764646,-0.274799 -0.190268,-0.539169 -0.339228,-0.785512l5.90551e-005 -3.54331e-005c-0.00732283,-0.0119213 -0.0172087,-0.0249921 -0.0270906,-0.0380551l-0.000417323 -0.000625984 -4.33071e-005 -5.90551e-005 9.84252e-005 -7.08661e-005c-0.0142402,-0.0186339 -0.0303504,-0.0362087 -0.0480669,-0.052685 -0.0181417,-0.016874 -0.0377323,-0.0321811 -0.0584803,-0.0459134l6.29921e-005 -9.44882e-005c-0.0347165,-0.0227953 -0.0730157,-0.0407874 -0.113248,-0.0530157 -0.0387244,-0.0117638 -0.0796339,-0.0180945 -0.121213,-0.0180945 -0.0361732,0 -0.0627441,0.00197244 -0.0858425,0.00643701 -0.0230709,0.00445276 -0.044063,0.0115433 -0.0687913,0.0217323l-0.000625984 0.000417323c-0.026248,0.010378 -0.0533268,0.0226811 -0.0793937,0.0386693 -0.0257283,0.0157795 -0.0513268,0.0355354 -0.0755236,0.0612205l-0.000208661 0.000208661c-0.0243622,0.0256299 -0.0439843,0.0517047 -0.0600669,0.0783386 -0.0161732,0.0267874 -0.0286339,0.0538425 -0.0386339,0.0813819l-0.000208661 0.000417323c-0.0214055,0.0570906 -0.0304291,0.123665 -0.0239488,0.190866 0.00592913,0.0615276 0.0248819,0.123205 0.0592402,0.178059l0.000208661 0.000208661c0.0853937,0.137811 0.153469,0.284417 0.204965,0.436543 0.0533307,0.157539 0.0890669,0.321126 0.10802,0.487106zm-0.0942638 0.136992c-0.00270472,-0.0411654 -0.00667717,-0.0828189 -0.0115709,-0.124906 -0.0181299,-0.15876 -0.0522126,-0.314945 -0.10302,-0.465028 -0.0491299,-0.145138 -0.113756,-0.284488 -0.194547,-0.414874l5.90551e-005 -3.54331e-005c-0.0435512,-0.069622 -0.0675118,-0.147173 -0.0749252,-0.224067 -0.00801969,-0.083126 0.00329528,-0.16598 0.0300394,-0.23752l-4.72441e-005 -1.5748e-005c0.0124488,-0.0342835 0.0277559,-0.067622 0.0473819,-0.10013 0.0196732,-0.0325787 0.0438465,-0.0646614 0.0740354,-0.0964567l-3.93701e-006 -3.93701e-006c0.031311,-0.0332362 0.0643819,-0.0587717 0.0976024,-0.0791417 0.0328937,-0.0201732 0.0651142,-0.0349291 0.0956457,-0.047l5.51181e-005 0.000137795c0.0312008,-0.0128268 0.0581339,-0.0218386 0.0885276,-0.0277047 0.0305866,-0.00590945 0.0633346,-0.00852362 0.105843,-0.00852362 0.0512756,0 0.102614,0.00807874 0.152047,0.0230945 0.0499764,0.0151929 0.0976299,0.0376024 0.14089,0.0660315l0.000208661 0c0.0255236,0.0168937 0.0497165,0.035811 0.0722283,0.056748 0.0215945,0.0200827 0.0419134,0.0424488 0.0606811,0.0671299l0.000141732 0.000141732 0.000110236 -8.26772e-005c0.0112087,0.014815 0.0224173,0.0296378 0.0330748,0.0470472l0.000208661 0.000208661c0.153681,0.25415 0.271256,0.5275 0.350472,0.812181 0.079185,0.284571 0.119894,0.579854 0.119894,0.878 0,0.0320866 -0.00061811,0.0676024 -0.00190945,0.106878 -0.00122835,0.0373228 -0.00299213,0.0729173 -0.00533071,0.106551l-1.1811e-005 0c-0.016811,0.261748 -0.065122,0.51948 -0.143138,0.767748 -0.0780354,0.248327 -0.186024,0.487622 -0.322169,0.712421 -0.0494803,0.0815157 -0.117512,0.146559 -0.196843,0.191161 -0.0796457,0.0447795 -0.17061,0.0691575 -0.265594,0.0691575 -0.0260669,0 -0.0526575,-0.00222835 -0.0796535,-0.00645669 -0.0262323,-0.00411024 -0.051752,-0.010063 -0.076563,-0.0176575l-1.9685e-005 7.08661e-005c-0.0213976,-0.00644882 -0.0425472,-0.0142165 -0.0634606,-0.023378 -0.0206535,-0.00904724 -0.0407283,-0.0193858 -0.0602126,-0.0310827l-0.000208661 0c-0.0744134,-0.0450118 -0.133906,-0.105417 -0.177079,-0.174665 -0.0448307,-0.0718937 -0.0719882,-0.153484 -0.0799213,-0.237346 -0.00473622,-0.0491102 -0.00270472,-0.0988701 0.00629528,-0.147933 0.00883858,-0.0481575 0.0243386,-0.0955709 0.046689,-0.140969l0 -0.000204724c0.00271654,-0.00543701 0.00643307,-0.0124646 0.0107087,-0.0203858 0.00190551,-0.00353543 0.00604331,-0.0109646 0.0108622,-0.0195906l0.00103937 -0.00187402c0.103362,-0.169697 0.182252,-0.352362 0.235295,-0.542551 0.0531063,-0.190429 0.0803504,-0.388886 0.0803504,-0.589894 0,-0.0430039 -0.00149606,-0.0846299 -0.00415748,-0.125232z"/><path class="fil0" d="M4.73858 2.97359c-0.163354,-0.261201 -0.391142,-0.492705 -0.64763,-0.702071 -0.258728,-0.211201 -0.546571,-0.399933 -0.827366,-0.573949l0.0558346 -0.0904173c0.28428,0.176173 0.57585,0.367382 0.83861,0.58187 0.265004,0.216319 0.500839,0.45628 0.670969,0.728315l-0.0904173 0.056252zm-0.851496 0.628492c0.121894,0.232358 0.259409,0.506874 0.366701,0.793303 0.108362,0.28928 0.185866,0.590421 0.185866,0.872689l-0.106669 0c0,-0.268646 -0.0745472,-0.55735 -0.17878,-0.835602 -0.105299,-0.281102 -0.240953,-0.55185 -0.361283,-0.781224l0.0941654 -0.0491654z"/></g><rect class="fil1" height="6.82666" width="6.82666"/></svg>