<?xml version="1.0" ?><!DOCTYPE svg  PUBLIC '-//W3C//DTD SVG 1.1//EN'  'http://www.w3.org/Graphics/SVG/1.1/DTD/svg11.dtd'><svg height="6.82666in" style="shape-rendering:geometricPrecision; text-rendering:geometricPrecision; image-rendering:optimizeQuality; fill-rule:evenodd; clip-rule:evenodd" viewBox="0 0 6.82666 6.82666" width="6.82666in" xml:space="preserve" xmlns="http://www.w3.org/2000/svg" xmlns:xlink="http://www.w3.org/1999/xlink"><defs><style type="text/css">
   <![CDATA[
    .fil2 {fill:none}
    .fil1 {fill:#212121}
    .fil0 {fill:#212121;fill-rule:nonzero}
   ]]>
  </style></defs><g id="Layer_x0020_1"><path class="fil0" d="M4.97921 1.01735l-3.12486 -0.00438583c-0.230713,-0.000291339 -0.439768,0.0929921 -0.59124,0.244043 -0.151406,0.150984 -0.245232,0.359681 -0.245575,0.590283l-0.00440157 3.12507c-0.000287402,0.230724 0.0930039,0.439811 0.244059,0.591307 0.150988,0.151433 0.359681,0.245272 0.590252,0.245598l3.12479 0.00441732c0.230752,0.000311024 0.439811,-0.0929567 0.591283,-0.244016 0.151425,-0.151008 0.24526,-0.359764 0.24563,-0.590449l0.00438583 -3.12505 -0.000208661 0 0 -0.000153543 0.000208661 0c0.000330709,-0.230673 -0.0929134,-0.439673 -0.243929,-0.59111 -0.150961,-0.151374 -0.359642,-0.245189 -0.590236,-0.245559l0 0.000208661 -0.000153543 0 0 -0.000208661zm-3.12486 -0.110638l3.12486 0.00438583 0 -0.000208661 0.000153543 0 0 0.000208661c0.260142,0.00042126 0.49548,0.106169 0.665654,0.276811 0.17011,0.170583 0.275138,0.406094 0.274764,0.66611l0.000208661 0 0 0.000153543 -0.000208661 0 -0.00438583 3.12505c-0.00042126,0.260232 -0.106189,0.495646 -0.276882,0.665866 -0.170618,0.17015 -0.406185,0.275205 -0.666283,0.27485l-3.12479 -0.00441732c-0.260114,-0.000370079 -0.495469,-0.10615 -0.665669,-0.27685 -0.170138,-0.170634 -0.275217,-0.406236 -0.274894,-0.666307l0.00440157 -3.12507c0.000385827,-0.26015 0.10615,-0.4955 0.276827,-0.665701 0.17061,-0.170138 0.406181,-0.275205 0.66624,-0.274878z"/><path class="fil1" d="M4.51094 3.16418l-0.294693 0 0 -0.234224 0.294693 0c0.0332638,0 0.060252,-0.0272008 0.060252,-0.0604252 0,-0.0331732 -0.0270433,-0.0603937 -0.060252,-0.0603937l-0.355165 0c-0.0331811,0 -0.0602638,0.0272441 -0.0602638,0.0603937l0 0.709854c0,0.0332165 0.0270079,0.0604528 0.0602638,0.0604528l0.355165 0c0.0332559,0 0.060252,-0.0272402 0.060252,-0.0604528 0,-0.0331339 -0.0271142,-0.0602835 -0.060252,-0.0602835l-0.294693 0 0 -0.234268 0.294693 0c0.0331772,0 0.060252,-0.0271063 0.060252,-0.0602795 0,-0.0332283 -0.0269961,-0.060374 -0.060252,-0.060374zm-0.607787 0.415205l0 -0.709854c0,-0.033248 -0.0271181,-0.0603937 -0.060378,-0.0603937 -0.0332244,0 -0.0603661,0.0271772 -0.0603661,0.0603937l0 0.541035 -0.424039 -0.577469c-0.0110906,-0.0151024 -0.0293268,-0.0239606 -0.0479961,-0.0239606 -0.00650394,0 -0.0129921,0.00109843 -0.0191614,0.00314173 -0.0246969,0.00817717 -0.0412638,0.0312559 -0.0412638,0.057252l0 0.709854c0,0.0333071 0.0270472,0.0604528 0.0603701,0.0604528 0.0333858,0 0.0603661,-0.0270866 0.0603661,-0.0604528l0 -0.540748 0.423988 0.577287c0.0111063,0.0151181 0.029311,0.0239134 0.0479961,0.0239134 0.00651969,0 0.0129409,-0.00108661 0.019126,-0.00314173 0.0248189,-0.00824803 0.0413583,-0.0311535 0.0413583,-0.057311zm-0.854567 0l0 -0.709854c0,-0.033185 -0.027063,-0.0603937 -0.0602756,-0.0603937 -0.0332362,0 -0.0603307,0.0271732 -0.0603307,0.0603937l0 0.709854c0,0.033311 0.0269921,0.0604528 0.0603307,0.0604528 0.033315,0 0.0602756,-0.0271772 0.0602756,-0.0604528zm-0.333858 0.0604528c0.0334173,0 0.0603701,-0.0270591 0.0603701,-0.0604528 0,-0.033311 -0.0270748,-0.0602835 -0.0603701,-0.0602835l-0.294591 0 0 -0.649571c0,-0.0332244 -0.027063,-0.0603937 -0.060311,-0.0603937 -0.0332283,0 -0.0602717,0.0271969 -0.0602717,0.0603937l0 0.709854c0,0.0332874 0.0269409,0.0604528 0.0602717,0.0604528l0.354902 0z"/><path class="fil0" d="M5.1473 3.19755c0,-0.382898 -0.192783,-0.730799 -0.504039,-0.983394 -0.314276,-0.255047 -0.748969,-0.41302 -1.22905,-0.41302 -0.480094,0 -0.914839,0.157984 -1.22916,0.413035 -0.31128,0.252591 -0.504094,0.600492 -0.504094,0.983378 0,0.342161 0.151846,0.657169 0.406366,0.900854 0.258425,0.247429 0.62235,0.421528 1.04124,0.476933l0.00416929 0.000625984c0.0372795,0.00796457 0.082748,0.021189 0.120413,0.0422559 0.0337677,0.0188898 0.0616811,0.0441575 0.0753228,0.0778701l0 0.000208661c0.0118425,0.0296181 0.0157323,0.0653504 0.0156614,0.100331 -6.69291e-005,0.0321654 -0.00335039,0.0634764 -0.00658661,0.087811l-0.000208661 0.00166929c-6.69291e-005,0.000409449 -0.0212165,0.128496 -0.0253622,0.153295l0 0.000417323 -0.000653543 0.00368898c-0.0028937,0.0162638 -0.00782283,0.0439528 -0.00276378,0.0559724 0.00268504,0.00637795 0.0220866,0.00491339 0.0850236,-0.0215787 0.111193,-0.0468819 0.45048,-0.250689 0.786236,-0.49885 0.195736,-0.144669 0.389291,-0.303819 0.533878,-0.454594l0.0645512 -0.0707441c0.125433,-0.137469 0.218012,-0.275594 0.279047,-0.417665 0.0604331,-0.140677 0.09,-0.28576 0.09,-0.4385zm-0.436961 -1.06589c0.335705,0.272437 0.54363,0.649417 0.54363,1.06589 0,0.167217 -0.0324409,0.326224 -0.0987559,0.480587 -0.0524055,0.121984 -0.125933,0.240744 -0.221299,0.358079l0.000515748 0 -0.00909055 0.0104685c-0.0216772,0.0262992 -0.0444528,0.0525236 -0.0683386,0.0787008l-1.1811e-005 -7.87402e-006c-0.153902,0.176921 -0.382787,0.368327 -0.613835,0.539094 -0.34215,0.252886 -0.691949,0.462283 -0.808315,0.511346 -0.140063,0.0589606 -0.19972,0.0230551 -0.224189,-0.0350827 -0.0174882,-0.0415512 -0.00919685,-0.0881772 -0.00432283,-0.115555l0.000653543 -0.00368898 6.69291e-005 1.1811e-005c0.00501181,-0.0299843 0.025248,-0.152177 0.0252953,-0.15248l1.1811e-005 0c0.00275591,-0.021 0.00547638,-0.0471772 0.0055315,-0.0723937 4.33071e-005,-0.0229843 -0.00196063,-0.0451181 -0.00808661,-0.0605669l-7.08661e-005 2.75591e-005c-0.00349606,-0.0086378 -0.0142638,-0.0171339 -0.0282441,-0.0249567 -0.0262126,-0.0146614 -0.0608543,-0.0245591 -0.090122,-0.0308504 -0.440559,-0.0589685 -0.82422,-0.243283 -1.09778,-0.505209 -0.275142,-0.263433 -0.439287,-0.605181 -0.439287,-0.977524 0,-0.416461 0.207957,-0.793445 0.543685,-1.06587 0.332717,-0.26998 0.791283,-0.437209 1.29624,-0.437209 0.504941,0 0.963453,0.16722 1.29613,0.437193z"/></g><rect class="fil2" height="6.82666" width="6.82666"/></svg>