<?xml version="1.0" ?><!DOCTYPE svg  PUBLIC '-//W3C//DTD SVG 1.1//EN'  'http://www.w3.org/Graphics/SVG/1.1/DTD/svg11.dtd'><svg height="6.82666in" style="shape-rendering:geometricPrecision; text-rendering:geometricPrecision; image-rendering:optimizeQuality; fill-rule:evenodd; clip-rule:evenodd" viewBox="0 0 6.82666 6.82666" width="6.82666in" xml:space="preserve" xmlns="http://www.w3.org/2000/svg" xmlns:xlink="http://www.w3.org/1999/xlink"><defs><style type="text/css">
   <![CDATA[
    .fil1 {fill:none}
    .fil0 {fill:#212121;fill-rule:nonzero}
   ]]>
  </style></defs><g id="Layer_x0020_1"><path class="fil0" d="M3.58475 4.79762l1.18304 -0.426677 -3.14961e-005 -7.87402e-005 0.242028 -0.0916339 0.00208268 -0.000625984c0.0429685,-0.0142992 0.0736299,-0.0279646 0.0910394,-0.0415039 0.00193701,-0.00150787 0.00554724,0.00481496 0.00618898,0.00518898 -0.00265748,-0.00550787 -0.00716142,-0.010626 -0.0142874,-0.0149646 -0.0119409,-0.00726772 -0.0298937,-0.0126575 -0.0558976,-0.0152126l0 1.1811e-005 -0.233969 -0.0126299 -0.172476 0.0431378 -0.272819 0.0973425 -0.000417323 0 -0.739059 0.258957 -0.035 -0.100417 0.738689 -0.258827 -4.72441e-005 -0.000129921 0.274752 -0.0980315 0.005 -0.00145669 0.183122 -0.0457992 0.015626 -0.00146063 0.242016 0.013063 0.00208268 0.000208661c0.0447402,0.00407087 0.0784646,0.0149724 0.103815,0.0304094 0.0296535,0.018063 0.0478898,0.0417087 0.0584724,0.0681575l0.00104331 0.00312598c0.0146299,0.043874 0.000267717,0.0810709 -0.0414173,0.113492 -0.0263858,0.0205236 -0.0669764,0.0393543 -0.121067,0.0574843l2.3622e-005 6.29921e-005 -0.242028 0.0916339 -0.000830709 0.000208661 -1.18383 0.426965 -0.0358346 -0.1zm0 -0.777835c0.170717,-0.0614252 0.330039,-0.111587 0.491382,-0.147118 0.162264,-0.0357323 0.328138,-0.0571535 0.511689,-0.0610472l0 -3.14961e-005c0.145094,-0.00692913 0.295579,-0.00134646 0.448646,0.0195157 0.142811,0.0194685 0.288098,0.052311 0.433618,0.100783l3.93701e-005 -0.000125984c0.135783,0.0441378 0.242067,0.0924331 0.316472,0.146705 0.0827638,0.0603661 0.127787,0.128925 0.132165,0.207854 0.00772047,0.0824764 -0.0241378,0.155461 -0.0975354,0.221933 -0.0650945,0.0589528 -0.164472,0.11265 -0.299913,0.163697l0 3.93701e-006 -0.130803 0.0588346 -0.00416535 0.00166929 -1.10536 0.392402 -3.93701e-006 -1.1811e-005 -0.625142 0.25713 -0.0404173 -0.0983307 0.627646 -0.258161 0.0025 -0.00104331 1.10321 -0.391638 0.128791 -0.0579291 0.00333071 -0.00125197c0.124508,-0.046689 0.213728,-0.0939882 0.269079,-0.144118 0.0470669,-0.042622 0.0675669,-0.0868504 0.0627874,-0.134531l-0.000208661 -0.0025c-0.00234646,-0.0449724 -0.0325,-0.0873622 -0.0884528,-0.128173 -0.0645551,-0.0470906 -0.161051,-0.0903819 -0.28689,-0.131287l-0.000208661 -0.000208661c-0.138728,-0.0462244 -0.277701,-0.0776102 -0.414701,-0.0962835 -0.146524,-0.0199685 -0.290579,-0.025315 -0.42948,-0.0186811l-0.00145669 0c-0.175264,0.00362598 -0.334961,0.0243425 -0.492319,0.0589921 -0.158713,0.0349528 -0.313535,0.0836102 -0.478461,0.142953l-0.0358346 -0.1zm-0.776673 -0.361799l-0.34665 0.113437 -3.14961e-005 -9.05512e-005 -0.945067 0.33889 1.5748e-005 3.93701e-005 -0.0249961 0.0100039 0.527441 0.165717 0.755122 -0.26752 0.0354173 0.100417 -0.771197 0.273217 0 1.1811e-005 -0.176539 0.0654488 -4.33071e-005 -0.000114173c-0.0233819,0.00875591 -0.0460079,0.0193465 -0.0667126,0.0300787 -0.0156575,0.00811417 -0.0298819,0.0161496 -0.0424528,0.0235197 0.00276378,0.00247638 0.00654724,0.00534646 0.0113189,0.00859843l0.241681 0.0302362 0.262079 -0.0499488 0.505614 -0.188315 0.0370866 0.0995827 -0.510189 0.19002 -0.00875197 0.0025 -0.274677 0.0523504 -0.016248 0.000625984 -0.261642 -0.0327362 -0.0216693 -0.00770866c-0.0365984,-0.0228189 -0.0604055,-0.0483465 -0.0703425,-0.0767362 -0.0129803,-0.0370827 -0.00412205,-0.0719213 0.0282677,-0.104272l0.0102087 -0.00791732c0.0172992,-0.0103898 0.0380039,-0.0224764 0.0609685,-0.0343819 0.0233701,-0.0121142 0.049748,-0.024374 0.078626,-0.0351732l0.000208661 -0.000208661 0.0304646 -0.0112953 -0.519736 -0.163291c-0.110193,0.0476378 -0.194189,0.0959449 -0.250043,0.14298 -0.0496063,0.0417717 -0.0743386,0.0793346 -0.0722441,0.110776l-8.26772e-005 3.93701e-006c0.00541732,0.0545236 0.0416614,0.103366 0.106717,0.147622 0.0739921,0.0503346 0.183142,0.0936811 0.324906,0.131508 0.218311,0.059063 0.43826,0.0914528 0.660217,0.096748 0.222012,0.00529921 0.446965,-0.0164843 0.675252,-0.0657441l0.0224961 0.104165c-0.235768,0.050874 -0.469051,0.0733465 -0.700244,0.0678307 -0.231244,-0.00551969 -0.459516,-0.0390276 -0.685217,-0.100087 -0.152575,-0.0407126 -0.272374,-0.0889409 -0.356992,-0.146508 -0.0930551,-0.0633031 -0.145047,-0.138315 -0.153094,-0.227205l-0.000208661 -0.00124803c-0.00446457,-0.0669528 0.0332598,-0.134354 0.110165,-0.199114 0.0670394,-0.0564567 0.166291,-0.113102 0.295118,-0.167319l0.000850394 -4.33071e-005 -1.5748e-005 -0.00038189 0.163531 -0.0654409 0.00187402 -0.000625984 0.948417 -0.340091 0.00146063 -0.000625984 0.34665 -0.113437 0.0329134 0.101252zm-1.06042 0.847772c-0.000791339,-0.00196457 -0.00132283,-0.00333071 -0.000594488,-0.00124803 0.000137795,0.000393701 0.000334646,0.000807087 0.000594488,0.00124803z"/><path class="fil0" d="M2.84495 1.58204l0 3.44037 0.704378 0.215815 0 -2.89099c0,-0.042374 0.00192126,-0.0783898 0.00861024,-0.109953 0.00748819,-0.0353228 0.0207992,-0.064189 0.0431299,-0.0878346 0.0232638,-0.0314843 0.0483622,-0.0501024 0.0775512,-0.0580472 0.0297362,-0.00809449 0.0596339,-0.00410236 0.0925906,0.00952756 0.0681654,0.0208031 0.118508,0.0616772 0.152,0.122591 0.0314567,0.0572205 0.0467087,0.131138 0.0467087,0.221827l0 1.15631c0.108898,0.0480669 0.21111,0.0741693 0.303394,0.0751142 0.0925472,0.000944882 0.175583,-0.0235315 0.245638,-0.0767874l0.00187402 -0.00145669c0.0773661,-0.0535591 0.136882,-0.128736 0.177012,-0.227063 0.0404803,-0.0991811 0.0614606,-0.222047 0.0614606,-0.370138 0,-0.159142 -0.0156772,-0.298343 -0.0485945,-0.416709 -0.0321142,-0.11548 -0.0807323,-0.21148 -0.14735,-0.287189l-0.00270866 -0.00354331c-0.0615354,-0.0830945 -0.146642,-0.158791 -0.256846,-0.227858 -0.112382,-0.0704331 -0.250709,-0.133988 -0.416543,-0.191449l-1.5748e-005 5.11811e-005c-0.221744,-0.071752 -0.425457,-0.133693 -0.610272,-0.184988 -0.157118,-0.0436102 -0.30128,-0.0796457 -0.432016,-0.107606zm-0.106669 3.47959l0 -3.54508 0 -0.0650512 0.063752 0.0127598c0.147118,0.0294449 0.315193,0.0706929 0.503264,0.122898 0.186354,0.0517244 0.391445,0.114079 0.614437,0.186232l0.00104331 0.000417323c0.173835,0.0601614 0.319705,0.127295 0.439272,0.202232 0.120673,0.075622 0.214705,0.159189 0.283764,0.251512 0.0770276,0.0877244 0.132913,0.197591 0.169386,0.328748 0.035748,0.128531 0.0527677,0.277134 0.0527677,0.445039 0,0.16198 -0.023685,0.298173 -0.0693819,0.410138 -0.0481811,0.118047 -0.120594,0.208969 -0.215343,0.274559l-2.3622e-005 -3.14961e-005c-0.0893661,0.0672638 -0.19365,0.0982087 -0.30874,0.0970315 -0.117122,-0.00120079 -0.244819,-0.0357795 -0.378602,-0.099122l-0.030626 -0.0145039 0 -0.033622 0 -1.19043c0,-0.0728031 -0.0108976,-0.129697 -0.0333701,-0.170575 -0.0199409,-0.0362677 -0.0503189,-0.0605039 -0.0917402,-0.072685l-0.00583465 -0.00208268c-0.0118031,-0.00504724 -0.0203622,-0.00716142 -0.0257717,-0.00568898 -0.00572441,0.00155512 -0.0125827,0.0080315 -0.0213071,0.0202598l-0.00562598 0.00666535c-0.00846063,0.00846457 -0.0138898,0.021122 -0.0174961,0.0381299 -0.00474409,0.0223858 -0.0061063,0.0517756 -0.0061063,0.0878661l0 2.96289 0 0.0718976 -0.068752 -0.021063 -0.811047 -0.2485 -0.0379173 -0.0116181 0 -0.0392165z"/></g><rect class="fil1" height="6.82666" width="6.82666"/></svg>