<?xml version="1.0" ?><!DOCTYPE svg  PUBLIC '-//W3C//DTD SVG 1.1//EN'  'http://www.w3.org/Graphics/SVG/1.1/DTD/svg11.dtd'><svg height="6.82666in" style="shape-rendering:geometricPrecision; text-rendering:geometricPrecision; image-rendering:optimizeQuality; fill-rule:evenodd; clip-rule:evenodd" viewBox="0 0 6.82666 6.82666" width="6.82666in" xml:space="preserve" xmlns="http://www.w3.org/2000/svg" xmlns:xlink="http://www.w3.org/1999/xlink"><defs><style type="text/css">
   <![CDATA[
    .fil1 {fill:none}
    .fil0 {fill:#212121;fill-rule:nonzero}
   ]]>
  </style></defs><g id="Layer_x0020_1"><path class="fil0" d="M3.87651 1.43072c-0.0128425,0.0076811 -0.0224016,0.020689 -0.0251772,0.0365866 -0.00458268,0.0262717 0.0109134,0.0514094 0.0354331,0.0596614 -0.0595669,-0.0150787 -0.847657,-0.201732 -1.64081,0.276969l-0.000598425 0.000393701 -1.9685e-005 -2.75591e-005 -0.00114567 0.000677165 -6.69291e-005 -0.000110236c-0.664079,0.423894 -0.817909,1.08967 -0.853138,1.40418 0.719673,-0.944 1.63684,-1.3486 1.70047,-1.37592 0.00730315,-0.00375984 0.0155906,-0.00588189 0.0243701,-0.00588189 0.0294528,0 0.0533346,0.0238819 0.0533346,0.0533346l0 0.070378 0 0.000350394 -3.93701e-006 0c-1.1811e-005,0.0169961 -0.00813386,0.0337047 -0.0232244,0.0440236l-0.0301063 -0.0440236 0.03 0.0439567c-1.44285,0.986665 -1.83994,2.40828 -1.9532,2.81374 -0.00565354,0.020252 -0.0105709,0.0378386 -0.0160079,0.0565669 -0.0191772,0.0660512 -0.0311181,0.151705 -0.0311181,0.24524 0,0.135035 0.0252323,0.283996 0.0900827,0.409866 0.0630157,0.122311 0.164201,0.223323 0.317303,0.267772 0.055248,0.0160394 0.117976,0.0248661 0.188969,0.0248661 0.608075,0 1.22772,-0.476083 1.26823,-0.507705 0.0121417,-0.0105551 0.0288976,-0.0155236 0.0458661,-0.0120039l-0.0108386 0.0522205 0.0108346 -0.0520827c0.000393701,7.87402e-005 0.135465,0.0290472 0.51448,0.0290472 1.36725,0 1.82834,-1.03998 1.92717,-1.31781l-1.32154 0c-0.0403386,0.12089 -0.195516,0.464724 -0.65613,0.464724 -0.732374,0 -0.722193,-0.727811 -0.720071,-0.788933 -2.3622e-005,-0.000633858 -3.54331e-005,-0.00127165 -3.54331e-005,-0.00190945 0,-0.0294528 0.0238819,-0.0533346 0.0533346,-0.0533346l2.6874 0c0.0913898,-1.77456 -1.58017,-2.08497 -1.6439,-2.09621 -0.00209055,-0.000287402 -0.00418504,-0.00069685 -0.00627953,-0.00124409l1.1811e-005 -3.93701e-005c0.00140551,0.000366142 0.00283071,0.000677165 0.00428346,0.000933071l0.00916535 -0.0525 -0.0133346 0.0514567 -8.26772e-005 -1.9685e-005 0.0134173 -0.051437 -0.031248 -0.0429173 0.0039252 -0.00283465zm0.0102559 0.096248c0.00118504,0.000397638 0.0023937,0.000751969 0.00361811,0.00107087l3.14961e-005 -0.000129921 -0.00364961 -0.000940945zm0.14676 -0.0756654c0.410618,0.108 1.72451,0.583602 1.61059,2.23111l-0.053126 -0.00354331 0.0532047 0.00367717c-0.00194094,0.0281496 -0.0254016,0.0496732 -0.0532047,0.0496496l0 7.87402e-006 -2.68448 0c0.00634646,0.158303 0.0707008,0.630839 0.613421,0.630839 0.472406,0 0.56411,-0.422055 0.564386,-0.423264l0.051874 0.011874 -0.0519764 -0.0119606c0.00575197,-0.0250039 0.0282205,-0.041815 0.0528898,-0.041374l1.43369 0c0.0294528,0 0.0533346,0.0238819 0.0533346,0.0533346 0,0.00625984 -0.00108268,0.0122677 -0.00306299,0.0178465 -0.0216535,0.0761142 -0.436724,1.45997 -2.05063,1.45997 -0.29913,0 -0.455098,-0.0186339 -0.511307,-0.0272598 -0.113055,0.0851693 -0.716776,0.517783 -1.31727,0.517783 -0.0804528,0 -0.153102,-0.0104528 -0.218551,-0.0294567 -0.185134,-0.053752 -0.306925,-0.174795 -0.382303,-0.321102 -0.0735551,-0.14276 -0.102169,-0.309051 -0.102169,-0.458614 0,-0.102858 0.0137008,-0.199031 0.0357087,-0.274823 0.00364961,-0.0125827 0.00920472,-0.0324449 0.0155906,-0.055315 0.109661,-0.392594 0.480181,-1.71854 1.77709,-2.71467 -0.354516,0.19952 -0.991693,0.627854 -1.49604,1.35028l0.000181102 0.000125984c-0.0168583,0.0241496 -0.0501102,0.030063 -0.0742598,0.0132047 -0.0159291,-0.0111181 -0.0239213,-0.0293701 -0.0226811,-0.047437 -0.000944882,-0.0763622 0.0036811,-1.0876 0.913713,-1.66762l-0.000122047 -0.000188976c0.00124803,-0.000795276 0.00251575,-0.00152756 0.00379921,-0.00220866 0.777878,-0.469063 1.55485,-0.325913 1.70082,-0.293051 0.329646,-0.235102 0.797697,-0.447433 1.18196,-0.493669 0.170496,-0.0205157 0.326295,-0.00859449 0.449567,0.0477441 0.12889,0.0589094 0.220717,0.164083 0.255803,0.327972 0.0385197,0.179945 0.00618504,0.432362 -0.125799,0.77485 -0.0105827,0.0273819 -0.0413661,0.041 -0.068748,0.0304173 -0.0273819,-0.0105827 -0.041,-0.0413661 -0.0304173,-0.068748 0.12387,-0.321433 0.155244,-0.553528 0.120799,-0.714433 -0.027248,-0.127268 -0.0974921,-0.208457 -0.195803,-0.25339 -0.103929,-0.0475 -0.2405,-0.0569173 -0.392906,-0.0385787 -0.33748,0.0406102 -0.743953,0.216303 -1.05357,0.42002zm-0.516331 0.893327c0.715909,0 0.687748,0.687382 0.687689,0.689354l-0.053126 -0.00145669 0.0533071 0.00161417c-0.000874016,0.0288976 -0.0245906,0.0517283 -0.0533071,0.0517126l0 7.87402e-006 -1.30208 0c-0.0294528,0 -0.0533346,-0.0238819 -0.0533346,-0.0533346 0,-0.00141339 5.51181e-005,-0.0028189 0.000165354,-0.00420472 3.54331e-005,-0.0611024 0.0174094,-0.683693 0.720685,-0.683693zm0.579823 0.634563c-0.0107638,-0.142177 -0.0854606,-0.527894 -0.579823,-0.527894 -0.513303,0 -0.598008,0.384878 -0.611783,0.527894l1.19161 0z"/><path class="fil0" d="M2.61879 5.67447c-0.270681,0.0855039 -0.498083,0.0951654 -0.675154,0.0480551 -0.143059,-0.038063 -0.253622,-0.112874 -0.328374,-0.214858 -0.074437,-0.101559 -0.112512,-0.229122 -0.110984,-0.373224 0.00200787,-0.190047 0.0731339,-0.409287 0.221012,-0.634654l0.0484567 -0.0738425 0.0427913 0.0773819c0.000929134,0.0016811 0.314917,0.584157 1.24614,0.79239l-0.0229134 0.103748c-0.773878,-0.173047 -1.14628,-0.599307 -1.26887,-0.771205 -0.106957,0.182524 -0.158776,0.356248 -0.16037,0.507016 -0.00127953,0.120787 0.0297913,0.226555 0.0905669,0.309476 0.0604606,0.0824882 0.151205,0.14335 0.269626,0.174858 0.15837,0.0421339 0.365496,0.032311 0.61598,-0.046811l0.0320866 0.101669z"/></g><rect class="fil1" height="6.82666" width="6.82666"/></svg>