<?xml version="1.0" ?><!DOCTYPE svg  PUBLIC '-//W3C//DTD SVG 1.1//EN'  'http://www.w3.org/Graphics/SVG/1.1/DTD/svg11.dtd'><svg height="6.82666in" style="shape-rendering:geometricPrecision; text-rendering:geometricPrecision; image-rendering:optimizeQuality; fill-rule:evenodd; clip-rule:evenodd" viewBox="0 0 6.82666 6.82666" width="6.82666in" xml:space="preserve" xmlns="http://www.w3.org/2000/svg" xmlns:xlink="http://www.w3.org/1999/xlink"><defs><style type="text/css">
   <![CDATA[
    .fil1 {fill:none}
    .fil0 {fill:#212121;fill-rule:nonzero}
   ]]>
  </style></defs><g id="Layer_x0020_1"><path class="fil0" d="M4.32266 2.47619l1.36776 -0.00608661 0.0382244 -0.000169291 0.0124016 0.0362126c0.0997953,0.291449 0.157969,0.582567 0.17502,0.865071 0.0322717,0.534665 -0.082878,1.03817 -0.342,1.45491 -0.259531,0.417398 -0.662917,0.747079 -1.20662,0.93324 -0.251898,0.086248 -0.534,0.141598 -0.845921,0.160425l-0.0892008 0.00538189 0.0379488 -0.0810079c0.216484,-0.462161 0.46665,-0.844646 0.687469,-1.18226 0.531146,-0.812075 0.887382,-1.35675 0.128039,-2.09446l0.036874 -0.091252zm1.32973 0.100335l-1.20348 0.00535827c0.704165,0.752524 0.336453,1.3151 -0.202004,2.13835 -0.206031,0.315004 -0.437764,0.669319 -0.641091,1.0867 0.266157,-0.0227362 0.508728,-0.0735118 0.727465,-0.148409 0.518933,-0.177681 0.903469,-0.491583 1.15037,-0.888657 0.247303,-0.397728 0.357118,-0.879622 0.326165,-1.3924 -0.0157638,-0.261189 -0.0681024,-0.530516 -0.157425,-0.800945z"/><path class="fil0" d="M3.81944 4.70215l-0.678606 1.18756 -0.0189646 0.033189 -0.0374921 -0.00735433c-0.302516,-0.0593425 -0.583744,-0.154508 -0.836776,-0.280913 -0.479083,-0.239335 -0.857559,-0.590886 -1.08901,-1.02386 -0.231764,-0.433563 -0.31565,-0.947657 -0.205083,-1.5113 0.0512953,-0.261488 0.144406,-0.533504 0.28398,-0.812894l0.0400197 -0.0801024 0.0512283 0.0734331c0.291748,0.418201 0.498028,0.826323 0.680098,1.18656 0.437681,0.865972 0.731236,1.44678 1.74998,1.15797l0.060622 0.0777047zm-0.752028 1.10126l0.597 -1.04474c-1.00349,0.233417 -1.30684,-0.366335 -1.75057,-1.24428 -0.169689,-0.33574 -0.360567,-0.713382 -0.620567,-1.09843 -0.113417,0.241925 -0.190713,0.477287 -0.235177,0.703941 -0.10565,0.538567 -0.026126,1.02862 0.194248,1.44088 0.220689,0.412839 0.583106,0.748815 1.04276,0.978441 0.23424,0.11702 0.49363,0.206374 0.772315,0.264201z"/><path class="fil0" d="M2.1419 3.15093l-0.675228 -1.18948 -0.018811 -0.0331378 0.0254764 -0.0285276c0.205472,-0.230039 0.43078,-0.423402 0.668472,-0.576469 0.450264,-0.289969 0.945602,-0.436165 1.43587,-0.41437 0.491008,0.0218268 0.975984,0.212016 1.40455,0.594815 0.19885,0.177614 0.385343,0.396469 0.554366,0.658925l0.0484646 0.0752598 -0.0895079 0.00661417c-0.507598,0.0375236 -0.964185,0.00671654 -1.36721,-0.0204724 -0.968161,-0.065315 -1.61751,-0.109126 -1.88873,0.914142l-0.0977047 0.0127047zm-0.563807 -1.20865l0.594157 1.04667c0.311224,-0.982382 0.981772,-0.937335 1.96317,-0.871126 0.375039,0.0253031 0.796882,0.0537598 1.2614,0.0265118 -0.15028,-0.221071 -0.313264,-0.407642 -0.485437,-0.561421 -0.40913,-0.365437 -0.871169,-0.546961 -1.3383,-0.567728 -0.46787,-0.0207992 -0.941819,0.119512 -1.37379,0.397701 -0.220236,0.141827 -0.429417,0.319319 -0.621213,0.52939z"/><path class="fil0" d="M3.4663 2.50251c0.268961,0 0.512469,0.109028 0.688732,0.285287 0.176264,0.176264 0.285287,0.419768 0.285287,0.688728 0,0.268961 -0.109024,0.512465 -0.285287,0.688728 -0.176264,0.17626 -0.419772,0.285287 -0.688732,0.285287 -0.268961,0 -0.512465,-0.109024 -0.688728,-0.285287 -0.176264,-0.176264 -0.285287,-0.419768 -0.285287,-0.688728 0,-0.268961 0.109024,-0.512465 0.285287,-0.688728 0.176264,-0.176264 0.419768,-0.285287 0.688728,-0.285287zm0.613315 0.360705c-0.156957,-0.156953 -0.373799,-0.254035 -0.613315,-0.254035 -0.239516,0 -0.456358,0.0970827 -0.613311,0.254035 -0.156953,0.156953 -0.254035,0.373795 -0.254035,0.613311 0,0.239516 0.0970827,0.456358 0.254035,0.613311 0.156953,0.156953 0.373795,0.254035 0.613311,0.254035 0.239516,0 0.456358,-0.0970827 0.613315,-0.254035 0.156953,-0.156953 0.254035,-0.373795 0.254035,-0.613311 0,-0.239516 -0.0970827,-0.456358 -0.254035,-0.613311z"/></g><rect class="fil1" height="6.82666" width="6.82666"/></svg>