<?xml version="1.0" ?><!DOCTYPE svg  PUBLIC '-//W3C//DTD SVG 1.1//EN'  'http://www.w3.org/Graphics/SVG/1.1/DTD/svg11.dtd'><svg height="6.82666in" style="shape-rendering:geometricPrecision; text-rendering:geometricPrecision; image-rendering:optimizeQuality; fill-rule:evenodd; clip-rule:evenodd" viewBox="0 0 6.82666 6.82666" width="6.82666in" xml:space="preserve" xmlns="http://www.w3.org/2000/svg" xmlns:xlink="http://www.w3.org/1999/xlink"><defs><style type="text/css">
   <![CDATA[
    .fil1 {fill:none}
    .fil0 {fill:#212121;fill-rule:nonzero}
   ]]>
  </style></defs><g id="Layer_x0020_1"><path class="fil0" d="M5.17333 3.864c0,0.119402 -0.0159921,0.229646 -0.0479173,0.330732 -0.0322087,0.101988 -0.0805669,0.194374 -0.144996,0.27715l-0.000208661 0c-0.0657047,0.084122 -0.141413,0.147386 -0.227102,0.189776 -0.0860827,0.0425906 -0.181358,0.0638858 -0.285811,0.0638858 -0.0785157,0 -0.152409,-0.0126772 -0.221677,-0.0379685 -0.0692835,-0.0252992 -0.133303,-0.0630787 -0.192067,-0.113268 -0.0577362,-0.0494291 -0.108028,-0.107677 -0.150858,-0.174689 -0.0425472,-0.0665669 -0.0773976,-0.141083 -0.104535,-0.22352l-0.0154409 -0.0468976 0.0456496 -0.0189331 0.254815 -0.105701 0.0501496 -0.0208071 0.0198504 0.0505984c0.0172953,0.0440866 0.0372756,0.083437 0.0599567,0.118039 0.0222717,0.0339803 0.0467992,0.0629843 0.0735787,0.0869803l0.000208661 0c0.0256024,0.0229921 0.0533071,0.0402087 0.0831339,0.0516063 0.0298071,0.0113937 0.0622165,0.0171063 0.0972362,0.0171063 0.032937,0 0.063311,-0.00920866 0.0910787,-0.0275866 0.0304173,-0.0201339 0.0585945,-0.051189 0.0844961,-0.093126 0.0272559,-0.0441417 0.0476969,-0.0928189 0.0613386,-0.146024 0.013752,-0.0536457 0.020622,-0.112744 0.020622,-0.177311 0,-0.0713937 -0.00735039,-0.133807 -0.0220354,-0.187256 -0.0141693,-0.0515748 -0.0352362,-0.095374 -0.063185,-0.131425l-0.000208661 -0.000208661c-0.0314606,-0.0410669 -0.0721142,-0.0719961 -0.121909,-0.0927244 -0.0518307,-0.0215787 -0.114146,-0.0323937 -0.186902,-0.0323937l0 -0.000208661 -0.124319 -7.87402e-006 -0.0533346 -3.93701e-006 0 -0.053122 0 -0.149118 0.00729528 -0.0266654 0.388858 -0.672236 -0.402799 0 -0.0107913 0.0183622 -0.637146 2.15017 -0.0113622 0.0383346 -0.0396772 0 -0.0310512 0 -0.0396417 0 -0.0113976 -0.038126 -0.415256 -1.38947 -0.415217 1.38947 -0.0113898 0.038126 -0.0396496 0 -0.0310906 0 -0.0396811 0 -0.0113583 -0.0383346 -0.745957 -2.51777 -0.0202441 -0.0683346 0.0712835 0 0.326406 0 0.0397677 3.93701e-006 0.0112717 0.0383307 0.399705 1.35928 0.249039 -0.843508 -0.144713 -0.485528 -0.0204291 -0.0685433 0.0714685 0 0.326441 0 0 0.0456339 0.0510394 -0.00733465 0.39965 1.35898 0.399815 -1.35898 0.0112756 -0.0383346 0.0397638 0 0.00956299 0 0.316661 0 0.895445 0 0.0533346 0 0 0.0533346 0 0.15226 -0.00729528 0.0266654 -0.428094 0.737854c0.0616969,0.0252638 0.117508,0.0571575 0.167421,0.0956614 0.066248,0.0511024 0.121866,0.113764 0.166839,0.187937 0.0442323,0.0729055 0.0773425,0.151917 0.0993307,0.237071 0.0219764,0.0851102 0.0329606,0.175807 0.0329606,0.272114zm-0.149587 0.298646c0.0285945,-0.0905394 0.0429173,-0.190087 0.0429173,-0.298646 0,-0.0882244 -0.00973622,-0.170035 -0.0292047,-0.245445 -0.0194646,-0.075374 -0.0485472,-0.144945 -0.087252,-0.20874 -0.0379567,-0.0626063 -0.0849646,-0.115547 -0.141004,-0.158772 -0.0561732,-0.0433346 -0.121701,-0.0770118 -0.196551,-0.100984l-0.0629409 -0.0201575 0.0331496 -0.0571339 0.452642 -0.780161 0 -0.0848346 -0.84211 0 -0.286465 0 -0.439587 1.49417 -0.102079 0 -0.439394 -1.49413 -0.215217 0 0.128764 0.432016 0 0.0302087 -0.304661 1.03191 -0.102079 0 -0.43937 -1.49417 -0.215354 0 0.690339 2.33005 0.430638 -1.44108 0.102079 0 0.430665 1.44103 0.603555 -2.03682 0.00520472 -0.011874 0.0297441 -0.0506102 0.0155472 -0.0264606 0.0302874 0 0.525398 0 0.092315 0 -0.0462756 0.08 -0.427839 0.739626 0 0.0819409 0.0709843 3.93701e-006 0 -0.000208661c0.0866339,0 0.162563,0.0135984 0.227736,0.0407323 0.067315,0.0280236 0.122551,0.0702087 0.165657,0.126472l-3.14961e-005 2.3622e-005c0.0362638,0.0468465 0.0633858,0.102925 0.0813386,0.16828 0.0174646,0.0635709 0.0262087,0.135287 0.0262087,0.215169 0,0.0722992 -0.00812205,0.14015 -0.024378,0.203563 -0.0163701,0.0638543 -0.0409764,0.122394 -0.0738346,0.175606 -0.0342244,0.0554134 -0.0729606,0.0974449 -0.116165,0.126039 -0.045811,0.0303228 -0.0957717,0.0455079 -0.149827,0.0455079 -0.0479528,0 -0.0929961,-0.00807874 -0.13515,-0.0241929 -0.0421417,-0.0161063 -0.0809567,-0.0401299 -0.116472,-0.0720236l9.44882e-005 -0.000102362c-0.0342874,-0.0307441 -0.0648898,-0.0666614 -0.0917953,-0.107713 -0.0175984,-0.0268465 -0.0337835,-0.0560748 -0.0485551,-0.0876732l-0.1595 0.0661654c0.0215394,0.0562598 0.0469921,0.107378 0.0763583,0.153319 0.0369252,0.0577756 0.0804134,0.108102 0.130441,0.150933 0.0490276,0.0418701 0.102079,0.0732598 0.159154,0.0941024 0.0571024,0.0208465 0.118906,0.0312992 0.185425,0.0312992 0.0882244,0 0.167803,-0.0175433 0.238724,-0.0526339 0.0712835,-0.0352638 0.134744,-0.0884921 0.190362,-0.159673l-0.000129921 -0.000102362c0.0566063,-0.0727244 0.099126,-0.154 0.127492,-0.243819z"/><path class="fil0" d="M0.96 0.906661l4.90667 0 0.0533346 0 0 0.0533346 0 4.90667 0 0.0533346 -0.0533346 0 -4.90667 0 -0.0533346 0 0 -0.0533346 0 -4.90667 0 -0.0533346 0.0533346 0zm4.85333 0.106669l-4.8 0 0 4.8 4.8 0 0 -4.8z"/></g><rect class="fil1" height="6.82666" width="6.82666"/></svg>