<?xml version="1.0" ?><!DOCTYPE svg  PUBLIC '-//W3C//DTD SVG 1.1//EN'  'http://www.w3.org/Graphics/SVG/1.1/DTD/svg11.dtd'><svg enable-background="new 0 0 1000 1000" height="6.82666in" style="shape-rendering:geometricPrecision; text-rendering:geometricPrecision; image-rendering:optimizeQuality; fill-rule:evenodd; clip-rule:evenodd" version="1.1" viewBox="0 0 6.82666 6.82666" width="6.82666in" xml:space="preserve" xmlns="http://www.w3.org/2000/svg" xmlns:xlink="http://www.w3.org/1999/xlink"><defs><style type="text/css">
   <![CDATA[
    .fil1 {fill:none}
    .fil0 {fill:#212121;fill-rule:nonzero}
   ]]>
  </style></defs><g id="Layer_x0020_1"><g id="_267808584"><path class="fil0" d="M5.57721 1.01333l-4.32738 0c-0.0654213,0 -0.124594,0.0264449 -0.16737,0.0691969 -0.0427953,0.0427717 -0.0692874,0.101866 -0.0693268,0.167118l0.000208661 0 0 4.32717c0,0.0654252 0.0264409,0.124598 0.069189,0.167378 0.0427717,0.0427992 0.101858,0.0692953 0.16711,0.0693425l0 -0.000208661 4.32717 0c0.0653701,0 0.124484,-0.0263898 0.16724,-0.0690591 0.042811,-0.0427283 0.0693425,-0.101736 0.0694685,-0.166874l-0.000208661 0 0 -4.32796 0.000208661 0c-8.26772e-005,-0.0649882 -0.026622,-0.123984 -0.0694724,-0.166835 -0.0428504,-0.0428543 -0.10185,-0.0693937 -0.166843,-0.0694843l0 0.000208661zm-4.32738 -0.106669l4.32738 0 0 0.000208661c0.0947559,0.000133858 0.180394,0.0384449 0.24226,0.100319 0.0618661,0.0618661 0.100181,0.147496 0.100307,0.242252l0.000208661 0 0 4.32796 -0.000208661 0c-0.000185039,0.0946732 -0.0386496,0.180339 -0.10072,0.242291 -0.0621063,0.0619803 -0.14774,0.100311 -0.24224,0.100311l-4.32717 0 0 -0.000208661c-0.0947283,-6.69291e-005 -0.180476,-0.0385039 -0.242528,-0.100594 -0.0620591,-0.0621063 -0.100441,-0.147799 -0.100441,-0.242378l0 -4.32717 0.000208661 0c5.90551e-005,-0.0947244 0.0384921,-0.18048 0.100579,-0.242535 0.0620984,-0.062063 0.147795,-0.100449 0.24237,-0.100449z" id="_267807984"/><path class="fil0" d="M3.83967 4.82043c0.330795,-0.000334646 0.567539,-0.0856457 0.725043,-0.224539 0.177945,-0.156917 0.256575,-0.384756 0.256575,-0.636496l0 -1.81154c0,-0.0411378 -0.0144882,-0.077374 -0.0404843,-0.10248 -0.0251732,-0.024315 -0.0620118,-0.0391457 -0.108039,-0.0391457l0 -0.000208661 -0.881756 3.93701e-006 0 0.167713c0,0.0349606 0.014622,0.0742953 0.0433937,0.102811 0.023248,0.0230433 0.0565669,0.0388071 0.0999528,0.0388071l0.54 0 0.0533346 0 0 0.0533346 0 1.53895c0,0.290654 -0.112622,0.447043 -0.258929,0.531264 -0.142484,0.0820236 -0.312657,0.0914016 -0.439654,0.0914016l-0.831567 0c-0.126996,0 -0.297169,-0.00937795 -0.439654,-0.0914016 -0.146307,-0.0842205 -0.258929,-0.24061 -0.258929,-0.531264l0.000208661 0 3.93701e-006 -1.53896 3.93701e-006 -0.0533346 0.053122 0 0.683346 0 0 -0.1675c0,-0.0349646 -0.014622,-0.0742992 -0.0433937,-0.102819 -0.023248,-0.0230433 -0.056563,-0.0388071 -0.0999528,-0.0388071l-0.738409 0c-0.0460276,0 -0.0828661,0.0148307 -0.108039,0.0391457 -0.0259961,0.0251063 -0.0404843,0.0613425 -0.0404843,0.10248l0 1.81154c0,0.25174 0.0786299,0.479579 0.256575,0.636496 0.157811,0.139165 0.395165,0.224547 0.72698,0.224547l0.848815 0 0.00193701 0zm0.795461 -0.144539c-0.176555,0.155697 -0.437358,0.251217 -0.797398,0.251217l-0.0533346 0 0 -7.87402e-006 -0.79548 0c-0.360039,0 -0.620843,-0.0955197 -0.797398,-0.251217 -0.203087,-0.179091 -0.292827,-0.43528 -0.292827,-0.716496l0 -1.81154c0,-0.0702677 0.0262677,-0.133626 0.0734055,-0.17915 0.0444646,-0.0429488 0.106654,-0.0691457 0.181787,-0.0691457l0.738409 0c0.0744094,0 0.13298,0.0284528 0.174953,0.0700591 0.0497717,0.0493386 0.075063,0.117528 0.075063,0.178236l0 0.220835 0 0.0533346 -0.0533346 0 -0.683555 0 -3.93701e-006 1.48563 0.000208661 0c0,0.244161 0.0892441,0.372453 0.205173,0.439185 0.11974,0.0689291 0.272209,0.076811 0.38674,0.076811l0.831567 0c0.114531,0 0.267,-0.00788189 0.38674,-0.076811 0.115929,-0.0667323 0.205173,-0.195024 0.205173,-0.439185l0 -1.48562 -0.486665 0c-0.0744016,0 -0.13298,-0.0284528 -0.174953,-0.0700591 -0.0497717,-0.0493346 -0.075063,-0.117528 -0.075063,-0.178228l0 -0.220839 0 -0.053122 0.0533346 -3.93701e-006 0.935091 -3.93701e-006 0 -0.000208661c0.0751339,0 0.137323,0.0261969 0.181787,0.0691457 0.0471378,0.0455236 0.0734055,0.10889 0.0734055,0.17915l0 1.81154c0,0.281217 -0.0897402,0.537406 -0.292827,0.716496z" id="_267808392"/></g></g><rect class="fil1" height="6.82666" width="6.82666"/></svg>