<?xml version="1.0" ?><!DOCTYPE svg  PUBLIC '-//W3C//DTD SVG 1.1//EN'  'http://www.w3.org/Graphics/SVG/1.1/DTD/svg11.dtd'><svg height="6.82666in" style="shape-rendering:geometricPrecision; text-rendering:geometricPrecision; image-rendering:optimizeQuality; fill-rule:evenodd; clip-rule:evenodd" viewBox="0 0 6.82666 6.82666" width="6.82666in" xml:space="preserve" xmlns="http://www.w3.org/2000/svg" xmlns:xlink="http://www.w3.org/1999/xlink"><defs><style type="text/css">
   <![CDATA[
    .fil1 {fill:none}
    .fil0 {fill:#212121;fill-rule:nonzero}
   ]]>
  </style></defs><g id="Layer_x0020_1"><path class="fil0" d="M1.01333 1.01333l0 4.79999 4.79999 0 0 -4.79999 -4.79999 0zm-0.106669 4.85333l0 -4.90666 0 -0.0533346 0.0533346 0 4.90666 0 0.0533346 0 0 0.0533346 0 4.90666 0 0.0533346 -0.0533346 0 -4.90666 0 -0.0533346 0 0 -0.0533346zm3.77278 -0.832024c-0.134197,0.10465 -0.297925,0.145047 -0.454157,0.12576 -0.156362,-0.0193031 -0.305445,-0.0983386 -0.410161,-0.23252l-0.673248 -0.862949 0 0.483969c0,0.170047 -0.0689488,0.324035 -0.180421,0.435547 -0.11161,0.111638 -0.265642,0.180681 -0.435642,0.180681 -0.16998,0 -0.32402,-0.0690512 -0.435638,-0.180697 -0.111476,-0.111512 -0.180429,-0.265492 -0.180429,-0.435531l0 -2.27119c0,-0.170157 0.0689606,-0.324201 0.180437,-0.435697 0.111492,-0.111512 0.265512,-0.180476 0.43563,-0.180476 0.170134,0 0.324154,0.0689646 0.43563,0.180461 0.11148,0.111504 0.180429,0.265547 0.180429,0.435713l-0.000208661 0 3.93701e-006 0.34313 0.508709 -0.683413c0.101634,-0.136587 0.248886,-0.219031 0.40478,-0.241913 0.155874,-0.022878 0.320531,0.013752 0.457008,0.115295 0.136567,0.101638 0.219016,0.248898 0.241894,0.404827 0.022874,0.155882 -0.0137402,0.320567 -0.115276,0.457118l-0.498283 0.669449 0.645835 0.827882 0.000208661 0 2.75591e-005 3.54331e-005 -0.000129921 0.000102362c0.104657,0.13422 0.145059,0.297933 0.12576,0.454157 -0.0193189,0.156354 -0.0983819,0.305417 -0.232618,0.410154l0 0.000208661 -3.54331e-005 2.75591e-005 -0.000102362 -0.000129921zm-0.441244 0.0199252c0.129587,0.0159961 0.265142,-0.0173228 0.375929,-0.103752l0 -0.000208661 3.54331e-005 -2.75591e-005 0.000102362 0.000129921c0.110815,-0.0865039 0.176102,-0.209799 0.192098,-0.33924 0.0160079,-0.129579 -0.0173189,-0.265126 -0.103752,-0.375929l-0.000208661 0 -2.75591e-005 -3.54331e-005 0.000129921 -0.000102362 -0.670705 -0.85976 -0.0249488 -0.0319764 0.0241142 -0.0323976 0.522398 -0.701843c0.0839606,-0.112917 0.114224,-0.249244 0.0952756,-0.37837 -0.0189409,-0.129098 -0.0870472,-0.250906 -0.199807,-0.334827 -0.112858,-0.0839724 -0.249154,-0.114244 -0.37826,-0.0952953 -0.129063,0.0189409 -0.250862,0.0870512 -0.33478,0.199827l-0.604543 0.812157 -0.0958346 -0.0316654 -3.93701e-006 -0.503539 -0.000208661 0c0,-0.140724 -0.0570039,-0.268106 -0.149177,-0.360295 -0.0921732,-0.092189 -0.219524,-0.149209 -0.360213,-0.149209 -0.140673,0 -0.268031,0.0570236 -0.360213,0.149224 -0.0921693,0.092185 -0.149185,0.219563 -0.149185,0.36028l0 2.27119c0,0.140882 0.0570118,0.268335 0.149177,0.360531 0.0920551,0.0920787 0.219409,0.149028 0.36022,0.149028 0.140831,0 0.268177,-0.0569409 0.360224,-0.149012 0.0921654,-0.0921969 0.149169,-0.219661 0.149169,-0.360547l0 -0.638713 0.0952087 -0.0327087 0.768457 0.984984c0.0864803,0.110811 0.209831,0.176118 0.339327,0.192102z"/></g><rect class="fil1" height="6.82666" width="6.82666"/></svg>