<?xml version="1.0" ?><svg viewBox="0 0 24 24" xmlns="http://www.w3.org/2000/svg"><title/><g id="Twitch"><path d="M23.5,0H2.5a.5.5,0,0,0-.45.28l-2,4A.51.51,0,0,0,0,4.5v16a.5.5,0,0,0,.5.5H6v2.5a.5.5,0,0,0,.5.5h2a.5.5,0,0,0,.35-.15L11.71,21H17.5a.5.5,0,0,0,.35-.15l6-6A.5.5,0,0,0,24,14.5V.5A.5.5,0,0,0,23.5,0ZM22,13.5a.5.5,0,0,1-.15.35l-4,4a.5.5,0,0,1-.35.15H11.71L8.85,20.85A.5.5,0,0,1,8.5,21a.49.49,0,0,1-.19,0A.5.5,0,0,1,8,20.5V18H3.5a.5.5,0,0,1-.5-.5V2.5A.5.5,0,0,1,3.5,2h18a.5.5,0,0,1,.5.5Z" style="fill:#303c42"/><path d="M9.5,6a.5.5,0,0,0-.5.5v6a.5.5,0,0,0,1,0v-6A.5.5,0,0,0,9.5,6Z" style="fill:#303c42"/><path d="M15.5,6a.5.5,0,0,0-.5.5v6a.5.5,0,0,0,1,0v-6A.5.5,0,0,0,15.5,6Z" style="fill:#303c42"/></g></svg>