<?xml version="1.0" ?><svg viewBox="0 0 24 24" xmlns="http://www.w3.org/2000/svg"><title/><g id="Treehouse"><path d="M21.8,5.14l-1-.56a2,2,0,0,0-2.33.27A16.29,16.29,0,0,0,17,6.5,6.22,6.22,0,0,0,15.5,10c0,1.05,1.23,3,2.11,3.84a1.27,1.27,0,0,1,.25,1.49,1.25,1.25,0,0,1-2,.3,1.23,1.23,0,0,1-.19-1.5.48.48,0,0,0,0-.45c-.26-.55-.67-1.19-1.18-1.19-.74,0-1.68,3-2.22,4.38a.58.58,0,0,0,0,.43,1.47,1.47,0,0,1,.15.93,1.5,1.5,0,0,1-3-.24,1.48,1.48,0,0,1,.58-1.17.48.48,0,0,0,.13-.14,30.13,30.13,0,0,0,1.57-4.43.3.3,0,0,0-.44-.34c-.73.47-1.91,1.22-2.76,1.73a.46.46,0,0,0-.18.23,1,1,0,0,1-1.14.59,1,1,0,0,1,.24-2c.94,0,2.27-1.23,3.19-2.17a.25.25,0,0,0-.22-.42,11.11,11.11,0,0,1-1.88.1.47.47,0,0,0-.36.15,1,1,0,0,1-1,.31,1,1,0,0,1,.24-2,6,6,0,0,0,6-2.5A12.58,12.58,0,0,0,15,3.37,2.06,2.06,0,0,0,14.13.84L13,.19A1.94,1.94,0,0,0,12,0a1.94,1.94,0,0,0-1,.19l-8.82,5a2.33,2.33,0,0,0-1.2,2v9.67a2.33,2.33,0,0,0,1.2,2l8.62,4.83a2.43,2.43,0,0,0,2.37,0l8.62-4.84a2.33,2.33,0,0,0,1.2-2V7.17A2.33,2.33,0,0,0,21.8,5.14Z" style="fill:#303c42"/></g></svg>