<?xml version="1.0" ?><svg viewBox="0 0 24 24" xmlns="http://www.w3.org/2000/svg"><title/><g id="Yelp"><path d="M9.2,15.46c.49-.21,1.3-.56,1.3-1.46s-.82-1.25-1.3-1.46l-.72-.29c-.76-.31-1.8-.73-2.76-1.19C4.24,10.33,3,11.08,3,12.5v3a1.6,1.6,0,0,0,1.58,1.75,2.62,2.62,0,0,0,1.14-.3c1-.47,2-.89,2.76-1.19Z" style="fill:#303c42"/><path d="M12.68,18.77c0-.32,0-.58-.06-.78,0-.53-.13-1.41-1-1.69s-1.33.26-1.79.79l-.5.59c-.53.63-1.25,1.49-2,2.25a1.94,1.94,0,0,0-.68,1.85A1.73,1.73,0,0,0,7.89,23l2.85.93a2.12,2.12,0,0,0,.65.11,1.54,1.54,0,0,0,1.19-.51A2.08,2.08,0,0,0,13,21.75C12.82,20.7,12.74,19.58,12.68,18.77Z" style="fill:#303c42"/><path d="M19.26,16c-1.05-.18-2.14-.46-2.93-.65l-.76-.18a3.68,3.68,0,0,0-.82-.12,1.26,1.26,0,0,0-1.09.53,1.7,1.7,0,0,0,.2,1.95l.41.66c.43.69,1,1.64,1.53,2.59A1.9,1.9,0,0,0,17.45,22a1.76,1.76,0,0,0,1.4-.79l1.76-2.43a1.75,1.75,0,0,0,.28-1.67A1.94,1.94,0,0,0,19.26,16Z" style="fill:#303c42"/><path d="M14.75,13.94a3.68,3.68,0,0,0,.82-.12l.76-.18c.79-.2,1.88-.47,2.93-.65a1.94,1.94,0,0,0,1.63-1.1,1.75,1.75,0,0,0-.28-1.67L18.85,7.79A1.76,1.76,0,0,0,17.45,7,1.9,1.9,0,0,0,15.8,8.22c-.5.94-1.1,1.89-1.53,2.59l-.41.66a1.7,1.7,0,0,0-.2,1.95A1.26,1.26,0,0,0,14.75,13.94Z" style="fill:#303c42"/><path d="M9.73,11.3a1.5,1.5,0,0,0,2.77-.88l-.5-9A1.49,1.49,0,0,0,11.41.3,1.51,1.51,0,0,0,10.18,0L5.67,1a1.5,1.5,0,0,0-.95,2.26Z" style="fill:#303c42"/></g></svg>