<?xml version="1.0" ?><svg viewBox="0 0 24 24" xmlns="http://www.w3.org/2000/svg"><title/><g id="Viber"><path d="M12,1C6.68,1,1,1.73,1,10.5c0,4.64,1.64,7.5,5,8.72v2.25a1.53,1.53,0,0,0,2.68,1L10.87,20,12,20c5.32,0,11-.73,11-9.5S17.32,1,12,1Zm0,7a2,2,0,0,1,2,2,.5.5,0,0,1-1,0,1,1,0,0,0-1-1,.5.5,0,0,1,0-1Zm-.5-1.5A.5.5,0,0,1,12,6a4,4,0,0,1,4,4,.5.5,0,0,1-1,0,3,3,0,0,0-3-3A.5.5,0,0,1,11.5,6.5Zm5.5,8A3,3,0,0,1,14,17c-1.57,0-4.59-1.88-5.85-3.15S5,9.57,5,8A3,3,0,0,1,7.5,5h1a.5.5,0,0,1,.45.28s.6,1.22,1,2-.39,1.89-.87,2.37a6,6,0,0,0,1.27,2,6,6,0,0,0,2,1.27,3,3,0,0,1,1.83-1,1.15,1.15,0,0,1,.53.13l2,1a.5.5,0,0,1,.28.45Zm.5-4A.5.5,0,0,1,17,10a5,5,0,0,0-5-5,.5.5,0,0,1,0-1,6,6,0,0,1,6,6A.5.5,0,0,1,17.5,10.5Z" style="fill:#303c42"/></g></svg>