<?xml version="1.0" ?><svg viewBox="0 0 24 24" xmlns="http://www.w3.org/2000/svg"><title/><g id="Wikipedia"><path d="M23.5,3h-4a.5.5,0,0,0-.5.5v1a.5.5,0,0,0,.5.5h1L15.54,15.26,13.76,10.8,16.57,5h.93a.5.5,0,0,0,.5-.5v-1a.5.5,0,0,0-.5-.5h-4a.5.5,0,0,0-.5.5v1a.5.5,0,0,0,.5.5H14L12.59,7.87,11.44,5H12a.5.5,0,0,0,.5-.5v-1A.5.5,0,0,0,12,3H7a.5.5,0,0,0-.5.5v1A.5.5,0,0,0,7,5H8.36l2.53,6.42L9,15.26,4.94,5H5.5A.5.5,0,0,0,6,4.5v-1A.5.5,0,0,0,5.5,3H.5a.5.5,0,0,0-.5.5v1A.5.5,0,0,0,.5,5H1.86L8,20.68a.5.5,0,0,0,.92,0L12,14.35l2.5,6.34A.5.5,0,0,0,15,21h0a.5.5,0,0,0,.45-.28L23.07,5h.43a.5.5,0,0,0,.5-.5v-1A.5.5,0,0,0,23.5,3Z" style="fill:#303c42"/></g></svg>