<?xml version="1.0" ?><svg viewBox="0 0 24 24" xmlns="http://www.w3.org/2000/svg"><title/><g data-name="Woo Commerce" id="Woo_Commerce"><path d="M21.5,5H2.5A2.5,2.5,0,0,0,0,7.5v7A2.5,2.5,0,0,0,2.5,17h9.66l3.08,1.92a.5.5,0,0,0,.27.08h0a.53.53,0,0,0,.51-.5.5.5,0,0,0-.17-.37L15.1,17h6.4A2.5,2.5,0,0,0,24,14.5v-7A2.5,2.5,0,0,0,21.5,5ZM10.9,7.31c-1,1.31-1.4,5.11-1.4,7.19a.5.5,0,0,1-.72.45c-1.23-.6-1.87-2.9-2.42-5.2-.3.62-.68,1.43-1,2.11C3.93,15,3.91,15,3.5,15c-.57,0-.6,0-1.22-5.22-.1-.84-.19-1.64-.27-2.22a.5.5,0,0,1,1-.13c.08.58.17,1.38.27,2.23.13,1.05.29,2.44.43,3.42.24-.51.53-1.12.76-1.64C6.05,8,6.08,8,6.5,8s.54.32.83,1.51a17.7,17.7,0,0,0,1.21,3.75c.1-1.81.43-5.11,1.56-6.57a.5.5,0,0,1,.79.61Zm5,4.29c-.37,1.91-1.68,3.4-3,3.4a1.68,1.68,0,0,1-1.31-.64,3.63,3.63,0,0,1-.51-3c.37-1.91,1.68-3.4,3-3.4a1.68,1.68,0,0,1,1.31.64A3.63,3.63,0,0,1,15.9,11.6Zm6,0c-.37,1.91-1.68,3.4-3,3.4a1.68,1.68,0,0,1-1.31-.64,3.63,3.63,0,0,1-.51-3c.37-1.91,1.68-3.4,3-3.4a1.68,1.68,0,0,1,1.31.64A3.63,3.63,0,0,1,21.9,11.6Z" style="fill:#303c42"/><path d="M20.08,9c-.71,0-1.71,1.07-2,2.6a2.71,2.71,0,0,0,.3,2.13.67.67,0,0,0,.54.27c.71,0,1.71-1.07,2-2.6a2.71,2.71,0,0,0-.3-2.13A.67.67,0,0,0,20.08,9Z" style="fill:#303c42"/><path d="M14.08,9c-.71,0-1.71,1.07-2,2.6a2.71,2.71,0,0,0,.3,2.13.67.67,0,0,0,.54.27c.71,0,1.71-1.07,2-2.6a2.71,2.71,0,0,0-.3-2.13A.67.67,0,0,0,14.08,9Z" style="fill:#303c42"/></g></svg>