<?xml version="1.0" ?><svg viewBox="0 0 24 24" xmlns="http://www.w3.org/2000/svg"><title/><g id="Path"><path d="M12,0C5.38,0,0,4.26,0,9.5a8.15,8.15,0,0,0,2.1,5.37.5.5,0,0,0,.67.08L5.2,13.22a.5.5,0,0,0,.07-.75A4.33,4.33,0,0,1,4,9.5C4,6.47,7.59,4,12,4s8,2.47,8,5.5c0,2.2-2.53,4-5.65,4A8.15,8.15,0,0,1,12,13.14V7.5a.5.5,0,0,0-.5-.5h-3a.5.5,0,0,0-.5.5v11c0,1.27-.46,1.27-.64,1.27A3.32,3.32,0,0,1,5.8,19.1a.5.5,0,0,0-.8.4v3a.5.5,0,0,0,.15.36A4.43,4.43,0,0,0,8,24a4.44,4.44,0,0,0,4-4.5V17.13a14.9,14.9,0,0,0,3.11.35h0a9.26,9.26,0,0,0,6.51-2.34A7.65,7.65,0,0,0,24,9.5C24,4.26,18.62,0,12,0Z" style="fill:#303c42"/></g></svg>