<?xml version="1.0" ?><svg viewBox="0 0 24 24" xmlns="http://www.w3.org/2000/svg"><title/><g id="Slack"><path d="M20.57,12H20.2a2.44,2.44,0,0,0-.5.05l-.91.19L18.11,9l1-.2A2.43,2.43,0,0,0,18.57,4H18.2a2.44,2.44,0,0,0-.5.05l-.62.13-.27-1.26a2.43,2.43,0,0,0-4.81.5V3.8a2.4,2.4,0,0,0,.05.5l.19.91L9,5.89l-.2-1A2.43,2.43,0,0,0,4,5.43V5.8a2.4,2.4,0,0,0,.05.5l.13.62-1.26.27A2.43,2.43,0,0,0,3.43,12H3.8a2.44,2.44,0,0,0,.5-.05l.91-.19L5.89,15l-1,.2A2.43,2.43,0,0,0,5.43,20H5.8a2.44,2.44,0,0,0,.5-.05l.62-.13.27,1.26a2.43,2.43,0,0,0,4.81-.5V20.2a2.4,2.4,0,0,0-.05-.5l-.19-.91L15,18.11l.2,1a2.43,2.43,0,0,0,4.81-.5V18.2a2.4,2.4,0,0,0-.05-.5l-.13-.62,1.26-.27a2.43,2.43,0,0,0-.5-4.81ZM14,13.27,10.73,14,10,10.73,13.27,10Z" style="fill:#303c42"/></g></svg>