<?xml version="1.0" ?><svg viewBox="0 0 24 24" xmlns="http://www.w3.org/2000/svg"><title/><g id="Slideshare"><path d="M23.83,11.13a.5.5,0,0,0-.68,0l-.15.14V2.5A2.5,2.5,0,0,0,20.5,0H3.5A2.5,2.5,0,0,0,1,2.5v8.78l-.15-.14a.5.5,0,0,0-.75.66,12.87,12.87,0,0,0,5.29,4A15.73,15.73,0,0,0,5,19.5,4.38,4.38,0,0,0,9,24c1,0,2.5-.62,2.5-2V17.08l1,.14V22c0,1.38,1.46,2,2.5,2a4.38,4.38,0,0,0,4-4.5,15.73,15.73,0,0,0-.39-3.69,12.87,12.87,0,0,0,5.29-4A.5.5,0,0,0,23.83,11.13ZM3,12.5V2.5A.5.5,0,0,1,3.5,2h17a.5.5,0,0,1,.5.5v10c-1.52.6-3.77,1-7.5,1-.7,0-.9.66-1,1.44-.78-.58-1.36-1-1.71-1.33a.5.5,0,0,0-.32-.12c-3.73,0-6-.36-7.5-1C3,12.52,3,12.52,3,12.5Z" style="fill:#303c42"/><circle cx="8.5" cy="9.5" r="2.5" style="fill:#303c42"/><circle cx="15.5" cy="9.5" r="2.5" style="fill:#303c42"/></g></svg>