<?xml version="1.0" ?><svg viewBox="0 0 24 24" xmlns="http://www.w3.org/2000/svg"><title/><g id="Steam"><circle cx="15.5" cy="9.5" r="2.5" style="fill:#303c42"/><path d="M8.67,18.34A1.49,1.49,0,0,1,7,18.13a.5.5,0,0,0-.66.75,2.5,2.5,0,1,0,2-4.35.49.49,0,0,0-.56.43.5.5,0,0,0,.43.56,1.5,1.5,0,0,1,.47,2.83Z" style="fill:#303c42"/><path d="M12,0A12,12,0,0,0,0,11.5a.5.5,0,0,0,.14.37A.5.5,0,0,0,.4,12c.34.11,3,1.26,4.55,2a.51.51,0,0,0,.52-.07A3.84,3.84,0,0,1,8.33,13a.5.5,0,0,0,.45-.19l2.11-2.76a.5.5,0,0,0,.1-.35c0-.08,0-.15,0-.22A4.5,4.5,0,1,1,15.8,14a.5.5,0,0,0-.28.11l-3.35,2.75a.5.5,0,0,0-.18.36A4,4,0,0,1,8,21a3.94,3.94,0,0,1-3.84-2.93.5.5,0,0,0-.26-.32L2,16.82a.5.5,0,0,0-.67.68A12,12,0,1,0,12,0Z" style="fill:#303c42"/></g></svg>