<?xml version="1.0" ?><svg viewBox="0 0 24 24" xmlns="http://www.w3.org/2000/svg"><title/><g id="Zootool"><path d="M20,17a3,3,0,0,0-1.61.49A3.35,3.35,0,0,1,16.5,18c-2,0-4.34-2.9-5.34-4.4,2.51-2.12,6.27-5.45,6.78-6.82a10,10,0,0,1,.83-.62C19.76,5.47,21,4.61,21,3c0-2.21-1.08-3-2-3s-1.53,1.06-1.8,1.77A18.55,18.55,0,0,0,9,0,2.84,2.84,0,0,0,6,3a3.76,3.76,0,0,0,.81,2.5A1.6,1.6,0,0,0,8,6a2.62,2.62,0,0,0,1.62-.62A1.44,1.44,0,0,1,10.5,5a4.45,4.45,0,0,1,1.23.3,12.16,12.16,0,0,0,2.57.63L9.41,10.41A6.63,6.63,0,0,0,7,10a4.32,4.32,0,0,0-4,4.5C3,15.72,3,18,5,18a3.39,3.39,0,0,0,2.46-1.53c.74,1.36,2.3,4.21,3.07,5.31A5.32,5.32,0,0,0,15,24c1.79,0,6-1.53,6-4.5C21,18.45,21,17,20,17Z" style="fill:#303c42"/></g></svg>