<?xml version="1.0" ?><svg viewBox="0 0 24 24" xmlns="http://www.w3.org/2000/svg"><title/><g id="Vine"><path d="M22.39,10.62A12.37,12.37,0,0,1,20,11a4.5,4.5,0,0,1-4.5-4.5,2.3,2.3,0,0,1,2-2.5c.83,0,1.5.9,1.5,2a8.3,8.3,0,0,1-.54,2.35.5.5,0,0,0,.12.51A6.86,6.86,0,0,0,21.71,10a.49.49,0,0,0,.54-.34A12.15,12.15,0,0,0,23,6a5.77,5.77,0,0,0-5.5-6,6.27,6.27,0,0,0-6,6.5A8.53,8.53,0,0,0,16,14c-2.09,3.9-3.91,5.78-4.44,6C10.08,19.39,5,10.15,5,4.5A.5.5,0,0,0,4.5,4h-3a.5.5,0,0,0-.5.5C1,10.31,6.49,24,11.5,24c3.18,0,6.32-4.82,8.44-9a12.25,12.25,0,0,0,2.66-.33.5.5,0,0,0,.4-.49V11.11a.5.5,0,0,0-.61-.49Z" style="fill:#303c42"/></g></svg>