<?xml version="1.0" ?><svg viewBox="0 0 24 24" xmlns="http://www.w3.org/2000/svg"><title/><g data-name="Sound Cloud" id="Sound_Cloud"><path d="M20.5,11a3.46,3.46,0,0,0-1.5.34A6.51,6.51,0,0,0,12.5,5a.5.5,0,0,0-.5.5v12a.5.5,0,0,0,.5.5h8a3.5,3.5,0,0,0,0-7Z" style="fill:#303c42"/><path d="M1.42,12H.58a.58.58,0,0,0-.58.58V16.5a.5.5,0,0,0,.5.5h1a.5.5,0,0,0,.5-.5V12.58A.58.58,0,0,0,1.42,12Z" style="fill:#303c42"/><path d="M4.42,9H3.58A.58.58,0,0,0,3,9.58V17.5a.5.5,0,0,0,.5.5h1a.5.5,0,0,0,.5-.5V9.58A.58.58,0,0,0,4.42,9Z" style="fill:#303c42"/><path d="M7.42,10H6.58a.58.58,0,0,0-.58.58V17.5a.5.5,0,0,0,.5.5h1a.5.5,0,0,0,.5-.5V10.58A.58.58,0,0,0,7.42,10Z" style="fill:#303c42"/><path d="M10.42,6H9.58A.58.58,0,0,0,9,6.58V17.5a.5.5,0,0,0,.5.5h1a.5.5,0,0,0,.5-.5V6.58A.58.58,0,0,0,10.42,6Z" style="fill:#303c42"/></g></svg>