<?xml version="1.0" ?><svg viewBox="0 0 24 24" xmlns="http://www.w3.org/2000/svg"><title/><g id="Imo"><path d="M17,11a1,1,0,0,0-1,1v1a1,1,0,0,0,2,0V12A1,1,0,0,0,17,11Z" style="fill:#303c42"/><path d="M12,0A12,12,0,0,0,1.53,17.85a.51.51,0,0,0,.06.12C2,18.54.8,19.67.21,20.09A.5.5,0,0,0,.28,21a5.3,5.3,0,0,0,2.1.43A4.65,4.65,0,0,0,4.14,21,12,12,0,1,0,12,0ZM6,14.5a.5.5,0,0,1-1,0v-4a.5.5,0,0,1,1,0ZM5.5,9A.5.5,0,1,1,6,8.5.5.5,0,0,1,5.5,9ZM14,14.5a.5.5,0,0,1-1,0V12a1,1,0,0,0-2,0v2.5a.5.5,0,0,1-1,0V12a1,1,0,0,0-2,0v2.5a.5.5,0,0,1-1,0v-4a.5.5,0,0,1,1-.21,2,2,0,0,1,2.54.4A2,2,0,0,1,14,12ZM19,13a2,2,0,0,1-4,0V12a2,2,0,0,1,4,0Z" style="fill:#303c42"/></g></svg>