<?xml version="1.0" ?><svg viewBox="0 0 24 24" xmlns="http://www.w3.org/2000/svg"><title/><g id="Amazon"><path d="M21.9,18.7a.5.5,0,0,0-.54-.18A39.31,39.31,0,0,1,12,20C7.41,20,2.15,18.44.85,17.15a.5.5,0,0,0-.73.68A16.62,16.62,0,0,0,12,23c7.34,0,9.81-3.57,9.92-3.72A.5.5,0,0,0,21.9,18.7Z" style="fill:#303c42"/><path d="M22,16.5a8.54,8.54,0,0,0-2.68.53.5.5,0,0,0,.36.93A7.57,7.57,0,0,1,22,17.5c1,0,1,.25,1,.5a6.19,6.19,0,0,1-1.39,2.69.5.5,0,0,0,.78.63c.17-.2,1.61-2,1.61-3.32C24,16.5,22.5,16.5,22,16.5Z" style="fill:#303c42"/><path d="M6.5,12a3.79,3.79,0,0,0,4,4,5.5,5.5,0,0,0,4-1.25A7.76,7.76,0,0,0,16.29,16a.5.5,0,0,0,.57-.1l2-2a.5.5,0,0,0,.08-.6A7.17,7.17,0,0,1,18,10.5V6.44C18,3,16.13,1,13,1,9.52,1,7.62,2.4,7,5.4A.5.5,0,0,0,7.42,6l3,.5A.49.49,0,0,0,11,6.11C11.17,5.32,11.61,5,12.5,5c.67,0,1.36.19,1.48,1.54a15.66,15.66,0,0,0-4.7,1A4.58,4.58,0,0,0,6.5,12Zm5.5.5a.89.89,0,0,1-1-1c0-1.55,1.8-1.91,3-2C13.78,11.7,12.33,12.5,12,12.5Z" style="fill:#303c42"/></g></svg>