<?xml version="1.0" ?><svg viewBox="0 0 24 24" xmlns="http://www.w3.org/2000/svg"><title/><g id="Openid"><path d="M14.28,1.05l-3,1.5A.5.5,0,0,0,11,3V19.91C7,19.49,4,17.39,4,15c0-2.08,2.25-4,5.61-4.69A.5.5,0,0,0,10,9.82V7.69a.5.5,0,0,0-.17-.38.52.52,0,0,0-.4-.12C3.88,8,0,11.21,0,15c0,4.43,6.29,8,11.5,8a.49.49,0,0,0,.21,0h0l3-1.5A.5.5,0,0,0,15,21V1.5a.5.5,0,0,0-.72-.45Z" style="fill:#303c42"/><path d="M23.74,8.06a.5.5,0,0,0-.51,0L20.89,9.64a13.61,13.61,0,0,0-4.26-2,.5.5,0,0,0-.64.48v2a.5.5,0,0,0,.35.48,11.16,11.16,0,0,1,1.92.8l-1,.7a.5.5,0,0,0,.2.91l6,1h.08a.5.5,0,0,0,.5-.5v-5A.5.5,0,0,0,23.74,8.06Z" style="fill:#303c42"/></g></svg>