<?xml version="1.0" ?><svg viewBox="0 0 24 24" xmlns="http://www.w3.org/2000/svg"><title/><g id="Digg"><rect height="2" style="fill:#303c42" width="1" x="13" y="11"/><rect height="2" style="fill:#303c42" width="1" x="7" y="11"/><rect height="2" style="fill:#303c42" width="1" x="17" y="11"/><path d="M21,1H3A2,2,0,0,0,1,3V21a2,2,0,0,0,2,2H21a2,2,0,0,0,2-2V3A2,2,0,0,0,21,1ZM9,13.5a.5.5,0,0,1-.5.5h-2a.5.5,0,0,1-.5-.5v-3a.5.5,0,0,1,.5-.5H8V8.5a.5.5,0,0,1,1,0Zm2,0a.5.5,0,0,1-1,0v-3a.5.5,0,0,1,1,0Zm-.5-4A.5.5,0,1,1,11,9,.5.5,0,0,1,10.5,9.5Zm4.5,6a.5.5,0,0,1-.5.5h-2a.5.5,0,0,1,0-1H14V14H12.5a.5.5,0,0,1-.5-.5v-3a.5.5,0,0,1,.5-.5h2a.5.5,0,0,1,.5.5Zm4,0a.5.5,0,0,1-.5.5h-2a.5.5,0,0,1,0-1H18V14H16.5a.5.5,0,0,1-.5-.5v-3a.5.5,0,0,1,.5-.5h2a.5.5,0,0,1,.5.5Z" style="fill:#303c42"/></g></svg>