<?xml version="1.0" ?><svg viewBox="0 0 24 24" xmlns="http://www.w3.org/2000/svg"><title/><g id="Forrst"><path d="M22,23.31l-9.5-23a.52.52,0,0,0-.92,0L2,23.31A.5.5,0,0,0,2.5,24h7a.5.5,0,0,0,.5-.5V18.91a.5.5,0,0,0-.15-.35L8.15,16.84a.5.5,0,0,1,0-.71.51.51,0,0,1,.71,0l.29.29a.5.5,0,0,0,.85-.35V13h4v1.65a.5.5,0,0,0,.75.43.5.5,0,0,1,.53.84l-1.05.7A.5.5,0,0,0,14,17v.35a.5.5,0,0,0,.72.45L16.28,17a.51.51,0,0,1,.67.22.5.5,0,0,1-.22.67l-2.45,1.23a.5.5,0,0,0-.28.45V23.5a.5.5,0,0,0,.5.5h7a.5.5,0,0,0,.46-.69Z" style="fill:#303c42"/></g></svg>