<?xml version="1.0" ?><svg viewBox="0 0 24 24" xmlns="http://www.w3.org/2000/svg"><title/><g id="Spotify"><path d="M12,0A12,12,0,1,0,24,12,12,12,0,0,0,12,0Zm5.41,17.29a.5.5,0,0,1-.7.12C13.7,15.29,9,15.17,5.62,16a.5.5,0,0,1-.24-1C9,14.14,14,14.29,17.29,16.59A.5.5,0,0,1,17.41,17.29Zm1.5-3a.5.5,0,0,1-.7.11c-3.27-2.35-7.32-2.94-13.12-1.91a.5.5,0,1,1-.17-1c6.09-1.08,10.37-.43,13.88,2.09A.5.5,0,0,1,18.91,14.29Zm1.51-4a.5.5,0,0,1-.7.13C15.42,7.49,8.89,7.48,4.67,9A.5.5,0,1,1,4.33,8C8.8,6.45,15.71,6.48,20.28,9.59A.5.5,0,0,1,20.41,10.28Z" style="fill:#303c42"/></g></svg>