<?xml version="1.0" ?><svg viewBox="0 0 24 24" xmlns="http://www.w3.org/2000/svg"><title/><g id="Tripadvisor"><circle cx="6" cy="12.98" r="1" style="fill:#303c42"/><path d="M6,10a3,3,0,1,0,3,3A3,3,0,0,0,6,10Zm0,5a2,2,0,1,1,2-2A2,2,0,0,1,6,15Z" style="fill:#303c42"/><circle cx="18" cy="12.98" r="1" style="fill:#303c42"/><path d="M18,10a3,3,0,1,0,3,3A3,3,0,0,0,18,10Zm0,5a2,2,0,1,1,2-2A2,2,0,0,1,18,15Z" style="fill:#303c42"/><path d="M23,9.59a5.07,5.07,0,0,1,.93-1.77A.5.5,0,0,0,23.5,7H19.74A16,16,0,0,0,4.26,7H.5a.5.5,0,0,0-.38.82A5,5,0,0,1,1,9.59,6,6,0,0,0,10.48,17l1.09,1.79a.5.5,0,0,0,.85,0L13.52,17A6,6,0,0,0,23,9.59ZM6,18A5,5,0,0,1,4.84,8.12l.31-.06A5,5,0,0,1,6,8,5,5,0,0,1,6,18Zm12,0a5,5,0,0,1-4.14-2.21l0,0c-.09-.13-.15-.27-.22-.41A7.32,7.32,0,0,1,13,12.84,5,5,0,0,1,18,8a5,5,0,0,1,.86.09l.3.06A5,5,0,0,1,18,18Z" style="fill:#303c42"/></g></svg>