<?xml version="1.0" ?><svg viewBox="0 0 24 24" xmlns="http://www.w3.org/2000/svg"><title/><g id="Wordpress"><path d="M12,0A12,12,0,1,0,24,12,12,12,0,0,0,12,0Zm0,3a8.94,8.94,0,0,1,5.11,1.6c-.54.2-1.07.73-1.07,2A4.89,4.89,0,0,0,17,8.8c.69,1.12,1.47,2.39,1.18,3.36h0l-1.51,4.73L13.8,8H14a.5.5,0,0,0,0-1H9.5a.5.5,0,0,0,0,1h.37l1.58,4.48L10,16.65,7.19,8H7.5a.5.5,0,0,0,0-1h-3A9,9,0,0,1,12,3ZM8.71,20.18l0,.07v0Zm-1.26-.42A8.94,8.94,0,0,1,3.58,8.85ZM12,14l2.36,6.7a8.75,8.75,0,0,1-4.73,0Zm4.89,5.58c.66-2.06,2-6.23,2.63-8.24a14.61,14.61,0,0,0,.67-3.08,9,9,0,0,1-3.3,11.32Z" style="fill:#303c42"/></g></svg>