<?xml version="1.0" ?><svg viewBox="0 0 24 24" xmlns="http://www.w3.org/2000/svg"><title/><g id="Pinterest"><path d="M12.53,0C4.76,0,2,4.58,2,8.5a8.11,8.11,0,0,0,3.61,6.35.5.5,0,0,0,.7-.3l.83-2.75A.5.5,0,0,0,7,11.31,3.28,3.28,0,0,1,6,9C6,5.55,8.41,3.5,12.44,3.5c3.12,0,5.56,2.19,5.56,5C18,11.07,15.93,14,14.11,14A2,2,0,0,1,12,12a7,7,0,0,0,1.58-4,1.74,1.74,0,0,0-.47-1.36A3.07,3.07,0,0,0,10.94,6,2.92,2.92,0,0,0,7.81,9a5.71,5.71,0,0,0,.53,2L5.87,21.16a3.39,3.39,0,0,0,.74,2.65.5.5,0,0,0,.66.1A5.1,5.1,0,0,0,9,22.16c.45-.92,1.71-4.19,2.42-6.05L11.5,16a5.34,5.34,0,0,0,3.14,1C20.07,17,22,12.43,22,8.5,22,5.35,20,0,12.53,0Z" style="fill:#303c42"/></g></svg>