<?xml version="1.0" ?><svg viewBox="0 0 24 24" xmlns="http://www.w3.org/2000/svg"><title/><g id="Drupal"><path d="M16.24,3.82A20,20,0,0,1,11.87.17.37.37,0,0,0,11.5,0,.63.63,0,0,0,11,.29,8.75,8.75,0,0,1,8.22,3.65,10.57,10.57,0,0,0,1,13.5,10.77,10.77,0,0,0,12,24,10.77,10.77,0,0,0,23,13.5,10.45,10.45,0,0,0,16.24,3.82Zm0,17.63a6.68,6.68,0,0,1-2.91.56,7.46,7.46,0,0,1-3-.56.5.5,0,0,1,.44-.9,7.24,7.24,0,0,0,5,0,.5.5,0,1,1,.46.89ZM12.1,19.21A2.67,2.67,0,0,1,14.5,18a1.53,1.53,0,0,1,1.17.48A1.35,1.35,0,0,1,16,19.56a.5.5,0,0,1-.5.44h-.06a.5.5,0,0,1-.44-.56.37.37,0,0,0-.08-.29A.55.55,0,0,0,14.5,19a1.68,1.68,0,0,0-1.6.79.5.5,0,1,1-.81-.59Zm6.4-.71c-1.19,0-2.83-1.85-3.57-2.78C13.82,16.66,10.86,19,9,19a4,4,0,0,1-4-4c0-1.93,1.41-4,4.5-4,1.43,0,3,1,5.54,3.35.56-.42,1-.78,1.38-1.08A3.92,3.92,0,0,1,19,12c.6,0,2,.29,2,3C21,16.46,20,18.5,18.5,18.5Z" style="fill:#303c42"/></g></svg>