<?xml version="1.0" ?><svg viewBox="0 0 24 24" xmlns="http://www.w3.org/2000/svg"><title/><g id="Mixcloud"><path d="M19.33,9.93a.5.5,0,0,0-.16.69,5.44,5.44,0,0,1,0,5.77.5.5,0,0,0,.85.53,6.44,6.44,0,0,0,0-6.82A.5.5,0,0,0,19.33,9.93Z" style="fill:#303c42"/><path d="M22.42,8.22a.5.5,0,1,0-.83.55,8.58,8.58,0,0,1,0,9.45.5.5,0,1,0,.83.55,9.58,9.58,0,0,0,0-10.55Z" style="fill:#303c42"/><path d="M16.27,10.78a.5.5,0,0,0-.31.41,6.52,6.52,0,0,1-.42,1.73.51.51,0,0,1-.65.28.5.5,0,0,1-.28-.65,5.51,5.51,0,0,0-3.06-7.15l-.06,0A5.45,5.45,0,0,0,5,7.42a.5.5,0,0,0,.29.77A4.91,4.91,0,0,1,7.54,9.46a.5.5,0,0,1,0,.71.51.51,0,0,1-.71,0A4,4,0,0,0,4.68,9.07h0A3.82,3.82,0,0,0,4,9a4,4,0,0,0,0,8H14.5a3.49,3.49,0,0,0,2.28-6.14A.5.5,0,0,0,16.27,10.78Z" style="fill:#303c42"/></g></svg>