<?xml version="1.0" ?><svg viewBox="0 0 24 24" xmlns="http://www.w3.org/2000/svg"><title/><g data-name="Google Wallet" id="Google_Wallet"><path d="M11.39,18.09c-.54-1.67-2-6.09-4.52-8.93A.5.5,0,0,0,6.5,9h-5a.5.5,0,0,0-.37.83c2.41,2.67,3.79,7,4.31,8.56l.08.26A.5.5,0,0,0,6,19h5a.5.5,0,0,0,.48-.66Z" style="fill:#303c42"/><path d="M14.5,5H9.38l-.1,0h0a.49.49,0,0,0-.16.16l0,0v0A.49.49,0,0,0,9,5.5a20,20,0,0,1-.57,3.7.5.5,0,0,0,.08.41,25.13,25.13,0,0,1,3.13,6.12.5.5,0,0,0,.47.33h0a.5.5,0,0,0,.47-.34c.24-.68.45-1.35.66-2A41.74,41.74,0,0,1,16,22.6a.5.5,0,0,0,.49.4h5a.5.5,0,0,0,.49-.6c-.84-4.25-2.28-9.27-7.06-17.16A.5.5,0,0,0,14.5,5Z" style="fill:#303c42"/><path d="M22,1.37A.5.5,0,0,0,21.5,1h-5a.5.5,0,0,0-.48.63,31.58,31.58,0,0,1,.72,4.62.5.5,0,0,0,.06.2,54.75,54.75,0,0,1,5,11.06.5.5,0,0,0,.48.35h.05a.5.5,0,0,0,.44-.45c.15-1.71.23-3.53.23-5.41A44.19,44.19,0,0,0,22,1.37Z" style="fill:#303c42"/></g></svg>