<?xml version="1.0" ?><svg viewBox="0 0 24 24" xmlns="http://www.w3.org/2000/svg"><title/><g data-name="500 PX" id="_500_PX"><path d="M6.37,10.48a.5.5,0,0,0,.56-.22A7.45,7.45,0,0,1,13,7a6.5,6.5,0,0,1,0,13,6.08,6.08,0,0,1-3.5-1.1V13.5a3.5,3.5,0,1,1,2.19,3.25.5.5,0,1,0-.37.93A4.5,4.5,0,1,0,8.5,13.5V18A6.79,6.79,0,0,1,7,15.36a.5.5,0,1,0-1,.29A7.24,7.24,0,0,0,13,21,7.5,7.5,0,0,0,13,6,8.76,8.76,0,0,0,7,8.55V1H18a.5.5,0,1,0,0-1H6.5A.5.5,0,0,0,6,.5V10A.5.5,0,0,0,6.37,10.48Z" style="fill:#303c42"/><path d="M20.12,19.67A9.28,9.28,0,0,1,13,23a8.66,8.66,0,0,1-9-7.57.5.5,0,1,0-1,.15A9.73,9.73,0,0,0,13,24a10.26,10.26,0,0,0,7.88-3.67.5.5,0,1,0-.76-.65Z" style="fill:#303c42"/><path d="M9.34,3.66a.5.5,0,1,0,.35.94A9.46,9.46,0,0,1,13,4a9.28,9.28,0,0,1,7.12,3.33.5.5,0,0,0,.76-.65A10.26,10.26,0,0,0,13,3,10.47,10.47,0,0,0,9.34,3.66Z" style="fill:#303c42"/><path d="M11.15,15.35a.5.5,0,0,0,.71,0L13,14.21l1.15,1.15a.5.5,0,0,0,.71-.71L13.71,13.5l1.15-1.15a.5.5,0,0,0-.71-.71L13,12.79l-1.15-1.15a.5.5,0,0,0-.71.71l1.15,1.15-1.15,1.15A.5.5,0,0,0,11.15,15.35Z" style="fill:#303c42"/></g></svg>