<?xml version="1.0" ?><svg viewBox="0 0 24 24" xmlns="http://www.w3.org/2000/svg"><title/><g id="Line"><path d="M12,1C5.38,1,0,5.26,0,10.5,0,15.08,4.11,19,9.78,19.83l.08,0a1.67,1.67,0,0,1,1.33.73,2.16,2.16,0,0,1-.14,1.69.5.5,0,0,0,.72.65l7.75-5,0,0A8.87,8.87,0,0,0,24,10.5C24,5.26,18.62,1,12,1ZM8,14H5.5a.5.5,0,0,1-.5-.5v-5a.5.5,0,0,1,1,0V13H8a.5.5,0,0,1,0,1Zm2-.5a.5.5,0,0,1-1,0v-5a.5.5,0,0,1,1,0Zm5,0a.5.5,0,0,1-.37.48l-.13,0a.5.5,0,0,1-.43-.24L12,10.3v3.2a.5.5,0,0,1-1,0v-5a.5.5,0,0,1,.93-.26L14,11.7V8.5a.5.5,0,0,1,1,0Zm4-3a.5.5,0,0,1,0,1H17V13h2a.5.5,0,0,1,0,1H16.5a.5.5,0,0,1-.5-.5v-5a.5.5,0,0,1,.5-.5H19a.5.5,0,0,1,0,1H17v1.5Z" style="fill:#303c42"/></g></svg>