<?xml version="1.0" ?><svg viewBox="0 0 24 24" xmlns="http://www.w3.org/2000/svg"><title/><g id="Behance"><path d="M18.5,8A5.77,5.77,0,0,0,13,14a5.77,5.77,0,0,0,5.5,6,5.44,5.44,0,0,0,4.9-3.29.5.5,0,0,0-.45-.71H20.24a.5.5,0,0,0-.4.2,1.71,1.71,0,0,1-1.34.8c-.84,0-1.59-.83-1.87-2h6.85a.5.5,0,0,0,.5-.46c0-.18,0-.36,0-.54A5.77,5.77,0,0,0,18.5,8ZM17,12a1.81,1.81,0,0,1,1.47-1A1.81,1.81,0,0,1,20,12Z" style="fill:#303c42"/><rect height="3" rx="0.5" ry="0.5" style="fill:#303c42" width="7" x="15" y="4"/><path d="M10.81,11.4a3.07,3.07,0,0,0,.48-.49,4,4,0,0,0,.75-2.52,4.51,4.51,0,0,0-.73-2.57A4.68,4.68,0,0,0,7.28,4H.5a.5.5,0,0,0-.5.5v15a.5.5,0,0,0,.5.5H6.82a9.75,9.75,0,0,0,2.09-.21,4.22,4.22,0,0,0,1.79-.85,4.57,4.57,0,0,0,1.11-1.31A5.12,5.12,0,0,0,12.5,15a4.69,4.69,0,0,0-.62-2.45A3.5,3.5,0,0,0,10.81,11.4ZM7.68,9.73A2.4,2.4,0,0,1,6.46,10H4V8H6.1a5,5,0,0,1,1.46.18c.22.09.44.25.44.79S7.82,9.65,7.68,9.73ZM4,13.5H6.33a2.81,2.81,0,0,1,1.12.18.9.9,0,0,1,.55,1c0,.81-.34,1.07-.59,1.19A2.68,2.68,0,0,1,6.29,16H4Z" style="fill:#303c42"/></g></svg>