<?xml version="1.0" ?><svg viewBox="0 0 24 24" xmlns="http://www.w3.org/2000/svg"><title/><g id="Airbnb"><path d="M22.52,16.89,19.28,10l-.1-.22C17.84,7,16.5,4.18,15.62,2.31a4,4,0,0,0-7.23,0c-.92,2-2.34,5-3.73,7.88l-3.17,6.7A4.94,4.94,0,0,0,1,19a5,5,0,0,0,5,5c1.73,0,3.89-1.17,5.95-3.22l.05,0,.06,0C14.11,22.83,16.27,24,18,24a5,5,0,0,0,5-5A4.93,4.93,0,0,0,22.52,16.89ZM12,18.23c-1.21-1-3-2.94-3-5.23a3,3,0,0,1,6,0C15,15.26,13.2,17.19,12,18.23ZM18,22c-1.12,0-2.83-1-4.41-2.51C15.16,18.07,17,15.81,17,13A5,5,0,0,0,7,13c0,2.85,1.83,5.1,3.4,6.5C8.82,21,7.12,22,6,22a3,3,0,0,1-3-3,3,3,0,0,1,.29-1.26L6.46,11c1.39-2.93,2.81-5.93,3.73-7.88a2,2,0,0,1,3.61,0C14.69,5,16,7.87,17.37,10.68l.1.22,3.24,6.84A2.94,2.94,0,0,1,21,19,3,3,0,0,1,18,22Z" style="fill:#303c42"/></g></svg>