<?xml version="1.0" ?><svg id="Dribbble" viewBox="0 0 24 24" xmlns="http://www.w3.org/2000/svg"><title/><path d="M12,0A12,12,0,1,0,24,12,12,12,0,0,0,12,0Zm7.86,5.84A9.94,9.94,0,0,1,22,11.91a19.27,19.27,0,0,0-6.87-.43c-.27-.62-.55-1.24-.85-1.85A17.13,17.13,0,0,0,19.86,5.84ZM18.48,4.4a14.76,14.76,0,0,1-5.13,3.48A45.69,45.69,0,0,0,9.65,2.29,9.88,9.88,0,0,1,18.48,4.4ZM7.67,3a45,45,0,0,1,3.78,5.54,38.91,38.91,0,0,1-9.2,1.29A10,10,0,0,1,7.67,3ZM2,11.84a39.51,39.51,0,0,0,10.4-1.51q.39.77.73,1.55A16.61,16.61,0,0,0,4.3,18.37,10,10,0,0,1,2,12C2,11.94,2,11.89,2,11.84Zm3.73,7.95c2.38-3.24,5-5.24,8.16-6a37.24,37.24,0,0,1,1.93,7.49A10,10,0,0,1,5.74,19.79Zm11.95.43a39,39,0,0,0-1.79-6.81,17.89,17.89,0,0,1,5.91.51A10,10,0,0,1,17.69,20.21Z" style="fill:#303c42"/></svg>