<?xml version="1.0" ?><!DOCTYPE svg  PUBLIC '-//W3C//DTD SVG 1.1//EN'  'http://www.w3.org/Graphics/SVG/1.1/DTD/svg11.dtd'><svg enable-background="new 0 0 512 512" id="Layer_1" version="1.1" viewBox="0 0 512 512" xml:space="preserve" xmlns="http://www.w3.org/2000/svg" xmlns:xlink="http://www.w3.org/1999/xlink"><g id="Layer_1_1_"><circle cx="256" cy="256" fill="#FE3C98" r="238.2"/></g><g id="Layer_2_1_"><g><path d="M342.5,332.3c-34.9,0-64.1-23.5-72.6-57.9    c-9.5-38.3,11.9-78.1,48.6-90.8c39.2-13.5,81.6,8.6,94.3,49.2c13.4,42.8-11.9,87.9-55,97.9C352.5,331.8,347.3,332.5,342.5,332.3z" fill="none" stroke="#FAFAFA" stroke-miterlimit="10" stroke-width="10"/><path d="M95.6,256c0.1-35.9,24.3-67,58-74.5    c36.1-8,71.4,11.2,85.2,46.3c14.6,37.1-2,80.3-37.4,97.3c-39.6,18.9-86.9-1-101.3-42.7C97.1,273.9,95.4,265.1,95.6,256z" fill="none" stroke="#FAFAFA" stroke-miterlimit="10" stroke-width="10"/></g></g></svg>