<?xml version="1.0" ?><!DOCTYPE svg  PUBLIC '-//W3C//DTD SVG 1.1//EN'  'http://www.w3.org/Graphics/SVG/1.1/DTD/svg11.dtd'><svg height="6.82666in" style="shape-rendering:geometricPrecision; text-rendering:geometricPrecision; image-rendering:optimizeQuality; fill-rule:evenodd; clip-rule:evenodd" viewBox="0 0 6.82666 6.82666" width="6.82666in" xml:space="preserve" xmlns="http://www.w3.org/2000/svg" xmlns:xlink="http://www.w3.org/1999/xlink"><defs><style type="text/css">
   <![CDATA[
    .fil1 {fill:none}
    .fil0 {fill:#212121;fill-rule:nonzero}
   ]]>
  </style></defs><g id="Layer_x0020_1"><path class="fil0" d="M1.01491 1.01367l0 0.833614c1.08556,0.0142362 2.06872,0.462421 2.78414,1.17869 0.715492,0.716331 1.16304,1.70078 1.17724,2.78735l0.836657 0c-0.014252,-1.31708 -0.55552,-2.5099 -1.42232,-3.37699 -0.866776,-0.867063 -2.05923,-1.40841 -3.37571,-1.42267zm-0.106669 0.886591l0 -0.940264 0 -0.0533346 0.0533346 0c1.36677,0 2.60644,0.556362 3.50446,1.45467 0.897787,0.898087 1.45391,2.13796 1.45391,3.50533l0 0.0533346 -0.0533346 0 -0.943307 0 -0.0533346 0 0 -0.0533346c0,-1.07853 -0.438461,-2.05697 -1.14634,-2.76569 -0.707591,-0.708425 -1.68457,-1.14738 -2.76206,-1.14738l-0.0533346 0 0 -0.0533346z"/><path class="fil0" d="M1.01339 2.68042l0 0.833709c0.294343,0.00656299 0.579988,0.067378 0.845307,0.177642 0.280992,0.11678 0.539016,0.28911 0.760252,0.511228l9.44882e-005 9.44882e-005 0.000114173 0.000114173c0.221807,0.220925 0.393622,0.479122 0.510075,0.760791 0.110118,0.26635 0.170681,0.55335 0.177181,0.849331l0.83826 0c-0.0141339,-0.857508 -0.368398,-1.63383 -0.933508,-2.19923 -0.564862,-0.565142 -1.34055,-0.919535 -2.19778,-0.933681zm-0.106669 0.886437l0 -0.940264 0 -0.0533346 0.0533346 0c0.907539,0 1.73043,0.369441 2.32653,0.965843 0.59611,0.596409 0.965252,1.41978 0.965252,2.32756l0 0.0533346 -0.0533346 0 -0.944827 0 -0.0533346 0 0 -0.0533346c0,-0.301339 -0.0581929,-0.593169 -0.169437,-0.862248 -0.111067,-0.26865 -0.275091,-0.515039 -0.486953,-0.726l-0.000208661 -0.000208661c-0.211138,-0.212035 -0.4575,-0.376571 -0.725878,-0.488106 -0.268154,-0.111445 -0.558496,-0.169909 -0.857807,-0.169909l-0.0533346 0 0 -0.0533346z"/><path class="fil0" d="M1.61283 4.61141c-0.165,0 -0.314894,0.0672717 -0.423516,0.175618 -0.108559,0.108291 -0.175925,0.257756 -0.175925,0.422189 0,0.165429 0.0670945,0.314685 0.175272,0.422606 0.10865,0.108402 0.258811,0.175311 0.424169,0.175311 0.16661,0 0.316941,-0.0666929 0.425528,-0.174772 0.108472,-0.107969 0.175429,-0.257445 0.175429,-0.423146 0,-0.164701 -0.0672283,-0.31439 -0.176087,-0.422728 -0.108551,-0.108028 -0.258622,-0.175079 -0.42487,-0.175079zm-0.498516 0.100201c0.127949,-0.127626 0.304398,-0.20687 0.498516,-0.20687 0.195358,0 0.371941,0.0790157 0.49987,0.206331 0.128437,0.127823 0.207756,0.304228 0.207756,0.498146 0,0.194972 -0.0790433,0.371106 -0.207098,0.498563 -0.128004,0.127406 -0.304858,0.206024 -0.500528,0.206024 -0.194421,0 -0.37115,-0.0788386 -0.499169,-0.206563 -0.127724,-0.127425 -0.206941,-0.303331 -0.206941,-0.498024 0,-0.193642 0.0794921,-0.369819 0.207594,-0.497606z"/></g><rect class="fil1" height="6.82666" width="6.82666"/></svg>