<?xml version="1.0" ?><!DOCTYPE svg  PUBLIC '-//W3C//DTD SVG 1.1//EN'  'http://www.w3.org/Graphics/SVG/1.1/DTD/svg11.dtd'><svg height="6.82666in" style="shape-rendering:geometricPrecision; text-rendering:geometricPrecision; image-rendering:optimizeQuality; fill-rule:evenodd; clip-rule:evenodd" viewBox="0 0 6.82666 6.82666" width="6.82666in" xml:space="preserve" xmlns="http://www.w3.org/2000/svg" xmlns:xlink="http://www.w3.org/1999/xlink"><defs><style type="text/css">
   <![CDATA[
    .fil1 {fill:none}
    .fil0 {fill:#212121;fill-rule:nonzero}
   ]]>
  </style></defs><g id="Layer_x0020_1"><path class="fil0" d="M3.81687 5.01622c-0.0464606,-0.0272874 -0.0908543,-0.064378 -0.127673,-0.105846 -0.0367205,-0.0413583 -0.0663583,-0.0875709 -0.0836654,-0.133465 -0.0305906,-0.0814331 -0.0303898,-0.22422 -0.0300512,-0.463713 6.29921e-005,-0.0443701 -0.000129921,0.0817008 -0.000129921,-0.0844724l0 -1.25809 0 -0.0533346 0.0533346 0 1.09107 0 0 -0.769169 -1.09107 0 -0.0533346 0 0 -0.0533346 0 -1.08146 -0.603791 0c-0.0155039,0.110421 -0.0363189,0.212831 -0.062437,0.307079 -0.0297913,0.107492 -0.0665591,0.203929 -0.110283,0.289079 -0.0437402,0.0854882 -0.0943504,0.16448 -0.151913,0.237083 -0.0574567,0.0724685 -0.122413,0.13922 -0.194953,0.200362l8.66142e-005 0.000102362c-0.0731024,0.0617205 -0.168303,0.116028 -0.270417,0.16287 -0.0874882,0.0401339 -0.180476,0.0749134 -0.268827,0.104189l0 0.603197 0.618803 0 0.0533346 3.93701e-006 0 0.0533307 0 1.72075c0,0.110354 0.00572047,0.20687 0.0171535,0.289496 0.0112598,0.0813858 0.0279252,0.149567 0.0499764,0.204484 0.0219961,0.0544409 0.0528858,0.10776 0.0926457,0.159862 0.0402835,0.0527913 0.0895906,0.104217 0.14789,0.154189l1.5748e-005 -1.5748e-005c0.0590315,0.0499173 0.124091,0.0943189 0.195161,0.132976 0.0707677,0.0384961 0.148028,0.0715787 0.231783,0.0990315 0.0846024,0.0274724 0.159106,0.0480315 0.239327,0.0616024 0.080063,0.0135433 0.167205,0.0203189 0.277693,0.0203189 0.0984055,0 0.192622,-0.00485433 0.282693,-0.0144921 0.0904646,-0.0096811 0.177567,-0.0241614 0.261331,-0.0433661l-1.1811e-005 -4.33071e-005c0.0841969,-0.0197126 0.172961,-0.0464528 0.266299,-0.0802244 0.0841811,-0.0304606 0.173157,-0.0671024 0.266937,-0.109925l0 -0.644417c-0.100673,0.0584764 -0.201744,0.104094 -0.30322,0.136894 -0.130201,0.0420906 -0.260606,0.0630787 -0.391248,0.0630787 -0.0745866,0 -0.145461,-0.00874016 -0.212823,-0.0261811 -0.0672835,-0.0174213 -0.130441,-0.0435787 -0.189685,-0.0784291zm-0.0480906 -0.176264c0.029563,0.0332992 0.0649803,0.0629449 0.101839,0.0845945 0.050689,0.0298189 0.104835,0.0522244 0.162606,0.067185 0.0577008,0.0149409 0.119689,0.0224252 0.186154,0.0224252 0.120157,0 0.239732,-0.019189 0.358752,-0.0576614 0.120071,-0.038811 0.240094,-0.0972874 0.360094,-0.17552l0.0822913 -0.0536496 0 0.0982323 0 0.773823 0 0.0339685 -0.0308346 0.0143661c-0.10622,0.0494843 -0.208398,0.0919724 -0.30652,0.12748 -0.0981339,0.0355079 -0.190925,0.0634961 -0.278386,0.0839724l-0.000208661 0c-0.0879016,0.0201614 -0.179232,0.0353543 -0.274024,0.0454961 -0.0952559,0.0101929 -0.193232,0.0153268 -0.293945,0.0153268 -0.115831,0 -0.208547,-0.00733071 -0.295189,-0.0219882 -0.0864843,-0.0146299 -0.165575,-0.0363937 -0.254744,-0.0653504 -0.0894173,-0.0293071 -0.172657,-0.0650394 -0.249705,-0.106953 -0.077874,-0.0423583 -0.148902,-0.0907913 -0.213075,-0.145055l-0.000208661 -0.000208661c-0.0642087,-0.0550118 -0.118732,-0.111925 -0.163531,-0.170634 -0.0455236,-0.0596496 -0.0811339,-0.121307 -0.106811,-0.184862 -0.025315,-0.0630512 -0.0442087,-0.139567 -0.0566457,-0.229484 -0.0122638,-0.0886535 -0.0184055,-0.190035 -0.0184055,-0.304079l0 -1.66742 -0.618803 0 -0.0533346 0 0 -0.0533346 0 -0.695028 0 -0.0387205 0.0372913 -0.0119055c0.0952047,-0.0303858 0.198043,-0.0677008 0.294039,-0.111736 0.0937835,-0.0430236 0.180524,-0.092311 0.245835,-0.147453l0.000208661 0c0.0663504,-0.0559094 0.126346,-0.117697 0.180075,-0.185465 0.0536496,-0.0676654 0.100508,-0.140685 0.140661,-0.219161 0.0402913,-0.0784606 0.0744173,-0.168224 0.10237,-0.269079 0.0280551,-0.101248 0.0498307,-0.214169 0.0653031,-0.338539l0.00583465 -0.046878 0.0470827 0 0.703839 0 0.0533346 0 0 0.0533346 0 1.08146 1.09107 0 0.0533346 0 0 0.0533346 0 0.875839 0 0.0533346 -0.0533346 0 -1.09107 0 0 1.20476c0,0.107303 -0.000145669,-0.013685 -0.000287402,0.0844724 -0.000318898,0.227169 -0.000511811,0.36261 0.0233819,0.426217 0.0127205,0.0337283 0.0352992,0.0685984 0.0636654,0.100543z"/></g><rect class="fil1" height="6.82666" width="6.82666"/></svg>