<?xml version="1.0" ?><!DOCTYPE svg  PUBLIC '-//W3C//DTD SVG 1.1//EN'  'http://www.w3.org/Graphics/SVG/1.1/DTD/svg11.dtd'><svg height="6.82666in" style="shape-rendering:geometricPrecision; text-rendering:geometricPrecision; image-rendering:optimizeQuality; fill-rule:evenodd; clip-rule:evenodd" viewBox="0 0 6.82666 6.82666" width="6.82666in" xml:space="preserve" xmlns="http://www.w3.org/2000/svg" xmlns:xlink="http://www.w3.org/1999/xlink"><defs><style type="text/css">
   <![CDATA[
    .fil1 {fill:none}
    .fil0 {fill:#212121;fill-rule:nonzero}
   ]]>
  </style></defs><g id="Layer_x0020_1"><path class="fil0" d="M1.4484 5.80454l1.59014 0 0 -0.928134 -0.494457 -0.33911 -0.0437205 -0.0299882 0.0295551 -0.0437598 0.126764 -0.187673 0.0299606 -0.0443543 0.0442047 0.030189 0.307693 0.210102 0 -0.681555 0 -0.0533346 0.0533346 0 0.535366 0 0.0533346 0 0 0.0533346 0 0.408705 0.308902 -0.162953 0.0463583 -0.0244567 0.0250984 0.046122 0.111539 0.204996 0.025748 0.0473268 -0.047622 0.0251732 -0.470024 0.248425 0 0.163846 0.673039 -0.337031 0.0477953 -0.023937 0.0236614 0.0478937 0.0998307 0.202063 0.0233701 0.0473071 -0.0473307 0.0237362 -0.820366 0.411346 0 0.68572 1.01332 0 0.0533346 0 0 0.0087874 0.631016 0 -1.9669 -4.71504 -1.96295 4.70626zm1.64348 0.106669l-1.7234 0 -0.0799252 0 0.0307598 -0.073752 2.04287 -4.89787 0.0491654 -0.117866 0.0491654 0.117866 2.04683 4.90666 0.0307638 0.073752 -0.0799291 0 -0.764283 0 -0.0533346 0 0 -0.0087874 -1.01332 0 -0.0533346 0 0 -0.0533346 0 -0.77172 0 -0.0326654 0.0295866 -0.0148346 0.802618 -0.402449 -0.0527953 -0.106862 -0.702327 0.351697 -0.0770827 0.0385984 0 -0.0860984 0 -0.281941 0 -0.032 0.0285433 -0.0150827 0.450941 -0.238339 -0.0606929 -0.111547 -0.340665 0.179709 -0.078126 0.0412126 0 -0.0882953 0 -0.443665 -0.428697 0 0 0.729083 0 0.100858 -0.0833346 -0.0569016 -0.346819 -0.236823 -0.067248 0.099563 0.474067 0.325126 0.0233346 0.016 0 0.0279567 0 1.00942 0 0.0533346 -0.0533346 0z"/></g><rect class="fil1" height="6.82666" width="6.82666"/></svg>