<?xml version="1.0" ?><!DOCTYPE svg  PUBLIC '-//W3C//DTD SVG 1.1//EN'  'http://www.w3.org/Graphics/SVG/1.1/DTD/svg11.dtd'><svg height="6.82666in" style="shape-rendering:geometricPrecision; text-rendering:geometricPrecision; image-rendering:optimizeQuality; fill-rule:evenodd; clip-rule:evenodd" viewBox="0 0 6.82666 6.82666" width="6.82666in" xml:space="preserve" xmlns="http://www.w3.org/2000/svg" xmlns:xlink="http://www.w3.org/1999/xlink"><defs><style type="text/css">
   <![CDATA[
    .fil1 {fill:none}
    .fil0 {fill:#212121;fill-rule:nonzero}
   ]]>
  </style></defs><g id="Layer_x0020_1"><path class="fil0" d="M5.2462 2.3313c-0.0559252,-0.407563 -0.265173,-0.728043 -0.565819,-0.950594 -0.326339,-0.241567 -0.7605,-0.368618 -1.2244,-0.367575 -0.0455787,0.000102362 -0.0924882,0.00152756 -0.140661,0.00429528 -0.0462913,0.00265748 -0.0932756,0.00665748 -0.140886,0.0120079 -0.469693,0.0525315 -0.871965,0.260787 -1.15757,0.574189 -0.284063,0.311705 -0.453098,0.727654 -0.458669,1.19809 0.00398031,0.244398 0.0482638,0.455787 0.151362,0.618114 0.0956614,0.150622 0.243799,0.26024 0.45998,0.316165 0.11376,-0.224287 0.0435276,-0.340146 -0.0323701,-0.465307 -0.0489488,-0.0807205 -0.0999173,-0.164772 -0.118433,-0.279606 -0.0549449,-0.339921 0.0219488,-0.651508 0.181339,-0.909819 0.146319,-0.23713 0.362169,-0.428957 0.609098,-0.556071 0.247295,-0.127303 0.526098,-0.190071 0.797909,-0.168886 0.285697,0.0222717 0.563579,0.136835 0.789492,0.365965 0.204366,0.207402 0.297917,0.551272 0.296114,0.912602 -0.00133465,0.267969 -0.0548543,0.546496 -0.154181,0.785894 -0.100906,0.243185 -0.249555,0.44737 -0.439768,0.56224 -0.145169,0.0876732 -0.313476,0.123283 -0.502106,0.0850984l-3.93701e-005 0.000200787c-0.370921,-0.0741181 -0.411047,-0.330681 -0.348445,-0.643961 0.0257362,-0.128799 0.0705079,-0.269299 0.115283,-0.409811 0.122823,-0.385445 0.245697,-0.771087 -0.0572283,-0.891244l-7.08661e-005 0.000177165c-0.0959134,-0.0379921 -0.182717,-0.0414528 -0.259,-0.0191614 -0.100839,0.0294685 -0.186189,0.10448 -0.251862,0.204831 -0.0680433,0.103976 -0.1145,0.234437 -0.135339,0.370402 -0.030315,0.197815 -0.00640157,0.405374 0.0841614,0.557748l0.00624803 0.0375c-0.0442205,0.219126 -0.100835,0.430547 -0.158035,0.644181 -0.151626,0.566291 -0.307425,1.14835 -0.228701,1.8473 0.18437,-0.159059 0.313787,-0.375059 0.411594,-0.623693 0.112098,-0.284965 0.182917,-0.612878 0.246807,-0.94774l0.0143583 -0.075248 0.0654331 0.039622c0.0613583,0.0371496 0.113638,0.073374 0.163472,0.107898 0.141701,0.0981772 0.262732,0.182031 0.471614,0.19872l0 1.5748e-005c0.0985433,0.00748425 0.192748,0.00450394 0.282417,-0.0078937 0.363031,-0.0502087 0.657413,-0.255161 0.86878,-0.545874 0.213756,-0.293996 0.342984,-0.675319 0.373323,-1.07407 0.0127638,-0.167799 0.00805118,-0.338374 -0.0151969,-0.506504l0 -0.000208661zm-0.502488 -1.03601c0.322906,0.239035 0.547693,0.583445 0.607878,1.02164l2.75591e-005 -3.93701e-006c0.0243504,0.176098 0.0293268,0.354232 0.0160315,0.529 -0.0318071,0.418008 -0.167953,0.818677 -0.393323,1.12865 -0.227756,0.313256 -0.546291,0.534283 -0.940449,0.588795 -0.0975079,0.0134803 -0.199307,0.0167638 -0.305122,0.0087126l-0.000208661 0c-0.237161,-0.0189449 -0.369157,-0.110402 -0.523701,-0.217476 -0.0299685,-0.0207598 -0.0608307,-0.0421417 -0.0930787,-0.0633898 -0.0612638,0.313752 -0.130988,0.619575 -0.237409,0.89011 -0.117079,0.297622 -0.278319,0.552413 -0.520465,0.728457l-0.0715827 0.0520433 -0.012374 -0.087878c-0.107291,-0.762173 0.0584173,-1.38106 0.219449,-1.98248 0.0556142,-0.207701 0.110665,-0.413315 0.152783,-0.617909 -0.0952008,-0.172236 -0.120248,-0.397205 -0.0876614,-0.609858 0.0230866,-0.150646 0.0751102,-0.296031 0.151591,-0.412898 0.0788543,-0.120492 0.184114,-0.211366 0.311445,-0.248579 0.0985157,-0.0287913 0.208575,-0.0251299 0.327748,0.0220748l0 0.000208661c0.39515,0.15665 0.257236,0.589488 0.119386,1.02211 -0.0433228,0.135961 -0.0866457,0.271902 -0.111953,0.398559 -0.0507559,0.253996 -0.0216339,0.461327 0.264697,0.518543l0 0.000208661c0.160213,0.032437 0.303106,0.00223228 0.426311,-0.0721772 0.169563,-0.102402 0.30378,-0.288512 0.396437,-0.511823 0.0942244,-0.227098 0.144992,-0.491303 0.14626,-0.745476 0.00167323,-0.33528 -0.0822559,-0.651441 -0.265697,-0.837602 -0.206339,-0.20928 -0.460331,-0.313933 -0.721571,-0.334295 -0.252146,-0.0196535 -0.511169,0.0387756 -0.741248,0.157217 -0.230441,0.118626 -0.431543,0.297106 -0.567429,0.517323 -0.146626,0.237626 -0.217343,0.524366 -0.166756,0.837315 0.0152283,0.0944409 0.0606457,0.169343 0.104268,0.241276 0.0965039,0.159142 0.185453,0.305831 0.015189,0.607547l-0.0193583 0.0343031 -0.0383465 -0.00847244c-0.267882,-0.0592087 -0.449654,-0.189071 -0.565929,-0.372157 -0.114386,-0.180106 -0.163398,-0.410295 -0.167626,-0.674122l0 -0.00125197c0.00574016,-0.49822 0.184945,-0.939024 0.486185,-1.26958 0.302732,-0.332193 0.728346,-0.552843 1.22465,-0.608354 0.0486102,-0.00546457 0.0975433,-0.00959843 0.14672,-0.0124252 0.0480118,-0.00275591 0.0968819,-0.0041811 0.146496,-0.00429528 0.486327,-0.00109449 0.942913,0.133161 1.28773,0.388409z"/></g><rect class="fil1" height="6.82666" width="6.82666"/></svg>