<?xml version="1.0" ?><!DOCTYPE svg  PUBLIC '-//W3C//DTD SVG 1.1//EN'  'http://www.w3.org/Graphics/SVG/1.1/DTD/svg11.dtd'><svg height="6.82666in" style="shape-rendering:geometricPrecision; text-rendering:geometricPrecision; image-rendering:optimizeQuality; fill-rule:evenodd; clip-rule:evenodd" viewBox="0 0 6.82666 6.82666" width="6.82666in" xml:space="preserve" xmlns="http://www.w3.org/2000/svg" xmlns:xlink="http://www.w3.org/1999/xlink"><defs><style type="text/css">
   <![CDATA[
    .fil1 {fill:none}
    .fil0 {fill:#212121;fill-rule:nonzero}
   ]]>
  </style></defs><g id="Layer_x0020_1"><path class="fil0" d="M3.41332 2.19644c-0.254382,0 -0.500728,0.042248 -0.729315,0.11948 -0.236268,0.0798268 -0.453795,0.196961 -0.641827,0.343394l-0.0860433 0.0670079 0 -0.108882 0 -1.30946c0,-0.0813622 -0.0329843,-0.155035 -0.0862992,-0.20835 -0.0533189,-0.0533189 -0.126988,-0.0863031 -0.20835,-0.0863031 -0.0813661,0 -0.155035,0.0329843 -0.208354,0.0863031 -0.0533189,0.053315 -0.0863031,0.126984 -0.0863031,0.20835l0 2.45137 -0.000208661 0.000834646c-9.05512e-005,0.00476378 0.000141732,-0.00325984 0.000141732,0.00586614 0,0.00881496 -0.000232283,0.000933071 -0.000141732,0.00559055l0.000208661 0.00104331 0 0.232189c0,0.497461 0.228575,0.948858 0.597606,1.27606 0.370791,0.328756 0.883264,0.532386 1.44888,0.532386 0.56565,0 1.07814,-0.203626 1.44894,-0.532382 0.369051,-0.327197 0.59763,-0.778598 0.59763,-1.27606 0,-0.497457 -0.228583,-0.948858 -0.59763,-1.27606 -0.370803,-0.328752 -0.883295,-0.532382 -1.44894,-0.532382zm-0.763063 0.0186457c0.239744,-0.0810039 0.49752,-0.125315 0.763063,-0.125315 0.59222,0 1.12969,0.213992 1.51935,0.559469 0.391433,0.347051 0.633882,0.826559 0.633882,1.35564 0,0.529087 -0.242445,1.00859 -0.633882,1.35564 -0.389669,0.34548 -0.927134,0.559469 -1.51936,0.559469 -0.592193,0 -1.12964,-0.213988 -1.5193,-0.559472 -0.391417,-0.347047 -0.633858,-0.826551 -0.633858,-1.35564l0 -0.232189 0.000188976 0c-0.000165354,-0.00756693 -0.000255906,-0.00244094 -0.000255906,-0.00663386 0,-0.00453543 9.05512e-005,0.00133465 0.000259843,-0.00670079l-0.000192913 0 0 -2.45137c0,-0.110811 0.0449291,-0.211146 0.117555,-0.283768 0.072626,-0.072626 0.172961,-0.117555 0.283772,-0.117555 0.110803,0 0.211142,0.0449291 0.283768,0.117555 0.072626,0.072626 0.117551,0.172965 0.117551,0.283768l0 1.2039c0.176752,-0.124295 0.374945,-0.224996 0.587453,-0.296795zm0.763063 3.00893c-0.39963,0 -0.762657,-0.135531 -1.02615,-0.35435 -0.266169,-0.221031 -0.431031,-0.52689 -0.431031,-0.864787l0 -0.203311 0.00146063 -0.0116654c0.0647717,-0.285055 0.256413,-0.537268 0.519339,-0.717535 0.260008,-0.17826 0.590358,-0.286622 0.936378,-0.286622 0.399665,0 0.762709,0.135531 1.02622,0.354343 0.266185,0.221035 0.431055,0.526898 0.431055,0.864791 0,0.337894 -0.164866,0.64376 -0.431051,0.864795 -0.263504,0.218811 -0.626547,0.354343 -1.02621,0.354343zm-0.95824 -0.43602c0.244906,0.203382 0.583819,0.32935 0.95824,0.32935 0.374461,0 0.713386,-0.125969 0.958299,-0.329343 0.242252,-0.201161 0.392295,-0.478217 0.392295,-0.783126 0,-0.304906 -0.150043,-0.581961 -0.392299,-0.783122 -0.244917,-0.203374 -0.583843,-0.329343 -0.958303,-0.329343 -0.324228,0 -0.633382,0.101268 -0.876378,0.267866 -0.239524,0.16422 -0.414161,0.39148 -0.47413,0.646728l0 0.19787c0,0.304906 0.150039,0.581957 0.392276,0.783118z"/></g><rect class="fil1" height="6.82666" width="6.82666"/></svg>