<?xml version="1.0" ?><!DOCTYPE svg  PUBLIC '-//W3C//DTD SVG 1.1//EN'  'http://www.w3.org/Graphics/SVG/1.1/DTD/svg11.dtd'><svg height="6.82666in" style="shape-rendering:geometricPrecision; text-rendering:geometricPrecision; image-rendering:optimizeQuality; fill-rule:evenodd; clip-rule:evenodd" viewBox="0 0 6.82666 6.82666" width="6.82666in" xml:space="preserve" xmlns="http://www.w3.org/2000/svg" xmlns:xlink="http://www.w3.org/1999/xlink"><defs><style type="text/css">
   <![CDATA[
    .fil1 {fill:none}
    .fil0 {fill:#212121;fill-rule:nonzero}
   ]]>
  </style></defs><g id="Layer_x0020_1"><path class="fil0" d="M2.40105 4.54467l0.921528 -0.768091 -1.36183 -0.840854 -0.910154 0.729744 1.35046 0.879201zm1.04617 -0.733709l-1.00837 0.84048 -0.0301142 0.0250984 -0.0327992 -0.0213504 -1.4449 -0.940685 -0.0616378 -0.0401299 0.0572598 -0.0459094 0.996705 -0.799138 0.0292953 -0.0234843 0.0319567 0.0197323 1.45657 0.899343 0.0627677 0.0387559 -0.0567283 0.0472874z"/><path class="fil0" d="M3.50407 3.77651l0.924496 0.767996 1.34756 -0.878996 -0.910193 -0.729787 -1.36186 0.840787zm0.886783 0.874752l-1.01154 -0.840303 -0.0568425 -0.0472244 0.0628819 -0.0388189 1.4567 -0.899343 0.0319606 -0.0197323 0.0292913 0.0234843 0.996693 0.799138 0.0572047 0.0458661 -0.0615827 0.0401732 -1.44186 0.940508 -0.0327165 0.0213386 -0.0301969 -0.0250866z"/><polyline class="fil1" points="1.97136,4.37407 1.97136,4.82568 3.41626,5.68987 4.86414,4.82568 4.86414,4.37407 "/><polygon class="fil0" points="2.02469,4.37407 2.02469,4.79563 3.41628,5.62794 4.8108,4.79559 4.8108,4.37407 4.91747,4.37407 4.91747,4.82568 4.91747,4.85576 4.89143,4.8713 3.44355,5.7355 3.41622,5.7518 3.38896,5.7355 1.94407,4.8713 1.91802,4.85572 1.91802,4.82568 1.91802,4.37407 "/><path class="fil0" d="M1.05074 2.07904l0.909866 0.726736 1.36174 -0.838118 -0.921287 -0.767728 -1.35031 0.87911zm0.872835 0.833406l-0.996705 -0.796094 -0.0576181 -0.0460197 0.0617874 -0.0402283 1.4449 -0.940689 0.0327953 -0.0213504 0.0301181 0.0250984 1.00837 0.840299 0.0569646 0.0474764 -0.0630039 0.0387756 -1.45657 0.896484 -0.0318228 0.0195906 -0.0292205 -0.0233425z"/><path class="fil0" d="M4.42856 1.19992l-0.924264 0.767799 1.36176 0.838055 0.909917 -0.72678 -1.34742 -0.879075zm-1.04925 0.733539l1.01154 -0.840299 0.0302008 -0.0250866 0.0327126 0.0213386 1.44186 0.940689 0.0617283 0.0402756 -0.0575591 0.0459724 -0.996693 0.796094 -0.0292205 0.0233386 -0.0318228 -0.0195866 -1.4567 -0.896484 -0.0631102 -0.0388386 0.0570709 -0.0474134z"/></g><rect class="fil1" height="6.82666" width="6.82666"/></svg>