<?xml version="1.0" ?><!DOCTYPE svg  PUBLIC '-//W3C//DTD SVG 1.1//EN'  'http://www.w3.org/Graphics/SVG/1.1/DTD/svg11.dtd'><svg height="6.82666in" style="shape-rendering:geometricPrecision; text-rendering:geometricPrecision; image-rendering:optimizeQuality; fill-rule:evenodd; clip-rule:evenodd" viewBox="0 0 6.82666 6.82666" width="6.82666in" xml:space="preserve" xmlns="http://www.w3.org/2000/svg" xmlns:xlink="http://www.w3.org/1999/xlink"><defs><style type="text/css">
   <![CDATA[
    .fil1 {fill:none}
    .fil0 {fill:#212121;fill-rule:nonzero}
   ]]>
  </style></defs><g id="Layer_x0020_1"><path class="fil0" d="M4.49186 4.15202c0.00991339,0.131953 -0.0345472,0.25785 -0.114508,0.354843 -0.0799685,0.097 -0.195457,0.165173 -0.327575,0.181665 -0.00743307,0.000925197 -0.0154134,0.0017126 -0.0238937,0.00235039 -0.123953,0.00935039 -0.239539,-0.0294606 -0.328114,-0.10139 -0.0886654,-0.072 -0.15,-0.17702 -0.16535,-0.299953 -0.000893701,-0.00718504 -0.00166929,-0.0150079 -0.00230315,-0.0234528 -0.0100748,-0.131728 0.0344724,-0.257693 0.114512,-0.35476 0.0800551,-0.0970787 0.195638,-0.165346 0.327591,-0.181657 0.0407008,-0.00508661 0.0811417,-0.00483858 0.120622,0.000240157 0.0143307,0.00184252 0.0284764,0.00434252 0.0424016,0.00747244l0 -1.02138 -1.00168 0.186425c-5.90551e-005,0.108555 -0.000283465,0.338791 -0.000507874,0.685287 -5.11811e-005,0.0819567 -0.000106299,0.163709 -0.000106299,0.727307 0.00922047,0.130744 -0.0351024,0.255417 -0.114394,0.351677 -0.0799449,0.0970512 -0.195476,0.16528 -0.3275,0.181764 -0.00705906,0.000870079 -0.0147047,0.00162205 -0.0228858,0.00224803 -0.124469,0.00952756 -0.24039,-0.0293701 -0.329146,-0.101496 -0.088874,-0.0722205 -0.150228,-0.177543 -0.165437,-0.300752 -0.000838583,-0.0068189 -0.00157874,-0.0142992 -0.00219685,-0.0224173 -0.0102402,-0.131866 0.034122,-0.257831 0.114091,-0.354894 0.0799567,-0.0970472 0.195528,-0.165236 0.327685,-0.181547 0.0407362,-0.00507087 0.0811614,-0.00475591 0.120575,0.000377953 0.0143307,0.00186614 0.0284685,0.00438189 0.0423819,0.00752756l0 -1.59459 0 -0.0449213 0.044378 -0.00757874 1.6066 -0.27424 -7.87402e-006 -3.93701e-005 0.0015315 -0.000307087 0.063752 -0.0127795 0 0.0650709 0 0.00694094 -0.000208661 0 -0.0021378 2.10371 0.000484252 0.00294882 3.14961e-005 -3.93701e-006c0.000641732,0.00400787 0.00107874,0.00741732 0.00129921,0.0103071l1.5748e-005 0zm-0.196587 0.287346c0.0630591,-0.0764882 0.0981339,-0.175646 0.0903346,-0.279433l0 -0.000208661c-8.66142e-005,-0.00120079 -1.9685e-005,-0.00106299 -6.29921e-005,-0.00134252l0 -0.000208661c-0.000137795,-0.000877953 -6.29921e-005,0.000145669 -0.000519685,-0.00181102l-0.00125197 -0.0120827 0.00208661 -2.05301 -1.50307 0.256567 0 1.62202 0 0.0792756 -0.0735433 -0.0301102c-0.0281535,-0.0115276 -0.0580866,-0.0195669 -0.0892559,-0.023626 -0.0298386,-0.00388583 -0.0612953,-0.00401969 -0.0939134,3.93701e-005 -0.104272,0.0128661 -0.195453,0.0666614 -0.25852,0.143209 -0.0630157,0.0764843 -0.0979803,0.175689 -0.0899173,0.279484 0.000401575,0.00526772 0.001,0.0110945 0.00177953,0.0174173 0.0117244,0.0949882 0.0587047,0.175929 0.126681,0.231169 0.0680945,0.0553346 0.157571,0.0851299 0.254154,0.0777402 0.00534646,-0.000409449 0.0113071,-0.00101969 0.0178858,-0.00183071 0.10411,-0.013 0.195248,-0.0668386 0.258335,-0.143425 0.0629646,-0.0764331 0.0979685,-0.175524 0.0900118,-0.27924l-0.000208661 -0.00395669c0,-0.0797008 0.00026378,-0.324315 0.000523622,-0.728291 5.11811e-005,-0.0820709 0.000106299,-0.164374 0.000106299,-0.729437l0 -0.0441457 0.043752 -0.00814567 1.10833 -0.206276 0.0629173 -0.0117087 0 0.064 0 1.1576 0 0.0791535 -0.0733346 -0.0299882c-0.0280669,-0.0114764 -0.0579409,-0.0194331 -0.0890669,-0.023437 -0.0299488,-0.00385433 -0.0615591,-0.00392126 -0.094378,0.000177165 -0.104083,0.0128661 -0.195268,0.0667283 -0.258425,0.143319 -0.0631181,0.0765472 -0.0982598,0.175748 -0.0903386,0.27935 0.000425197,0.0056378 0.00105906,0.0118071 0.00188583,0.0184528 0.0118189,0.0946535 0.0587717,0.175295 0.126594,0.23037 0.0679173,0.0551535 0.157063,0.084878 0.253122,0.0776339 0.00570472,-0.000429134 0.0120079,-0.0010748 0.0188937,-0.00193307 0.104213,-0.0130079 0.195319,-0.0667992 0.258409,-0.143327z"/><path class="fil0" d="M3.41333 1.01333c-0.662772,0 -1.26278,0.268614 -1.69708,0.702917 -0.434303,0.434299 -0.702917,1.03431 -0.702917,1.69708 0,0.662772 0.268614,1.26278 0.702917,1.69708 0.434299,0.434303 1.03431,0.702917 1.69708,0.702917 0.662772,0 1.26278,-0.268614 1.69708,-0.702917 0.434303,-0.434299 0.702917,-1.03431 0.702917,-1.69708 0,-0.662772 -0.268614,-1.26278 -0.702917,-1.69708 -0.434299,-0.434303 -1.03431,-0.702917 -1.69708,-0.702917zm-1.7725 0.6275c0.453606,-0.45361 1.08028,-0.734169 1.7725,-0.734169 0.692217,0 1.31889,0.280559 1.7725,0.734169 0.45361,0.453606 0.734169,1.08028 0.734169,1.7725 0,0.692217 -0.280559,1.31889 -0.734169,1.7725 -0.453606,0.45361 -1.08028,0.734169 -1.7725,0.734169 -0.692217,0 -1.31889,-0.280559 -1.7725,-0.734169 -0.45361,-0.453606 -0.734169,-1.08028 -0.734169,-1.7725 0,-0.692217 0.280559,-1.31889 0.734169,-1.7725z"/></g><rect class="fil1" height="6.82666" width="6.82666"/></svg>