<?xml version="1.0" ?><!DOCTYPE svg  PUBLIC '-//W3C//DTD SVG 1.1//EN'  'http://www.w3.org/Graphics/SVG/1.1/DTD/svg11.dtd'><svg height="6.82666in" style="shape-rendering:geometricPrecision; text-rendering:geometricPrecision; image-rendering:optimizeQuality; fill-rule:evenodd; clip-rule:evenodd" viewBox="0 0 6.82666 6.82666" width="6.82666in" xml:space="preserve" xmlns="http://www.w3.org/2000/svg" xmlns:xlink="http://www.w3.org/1999/xlink"><defs><style type="text/css">
   <![CDATA[
    .fil1 {fill:none}
    .fil0 {fill:#212121;fill-rule:nonzero}
   ]]>
  </style></defs><g id="Layer_x0020_1"><g id="_435217456"><path class="fil0" d="M4.92841 4.71702c-0.0240433,0.0169134 -0.0298268,0.050122 -0.0129134,0.0741654 0.0169134,0.0240433 0.050122,0.0298268 0.0741654,0.0129134 0.0931181,-0.0657992 0.29561,-0.1235 0.48111,-0.141583 0.147138,-0.0143425 0.278787,-0.00518504 0.322378,0.0438898 0.0398976,0.0635 0.0187283,0.183165 -0.027689,0.309484 -0.0707913,0.192642 -0.198524,0.39122 -0.269602,0.451327 -0.022437,0.0189803 -0.0252323,0.052563 -0.00625197,0.075 0.0189803,0.022437 0.052563,0.0252323 0.075,0.00625197 0.0812677,-0.0687244 0.224311,-0.28761 0.300854,-0.495909 0.056622,-0.154094 0.0781142,-0.306776 0.0175906,-0.403114 -0.00154724,-0.0028189 -0.00337008,-0.00554331 -0.00547638,-0.00812598l-0.000133858 0.000106299c-0.0672323,-0.0822638 -0.235736,-0.102382 -0.416669,-0.0847441 -0.201823,0.0196772 -0.425713,0.0849764 -0.532362,0.160339z" id="_435217312"/><path class="fil1" d="M5.41478 4.98828c-0.0648937,0.0500236 -0.135189,0.0956772 -0.205488,0.136083 -0.526083,0.316185 -1.20724,0.481618 -1.79891,0.481618 -0.952276,0 -1.80412,-0.351185 -2.45037,-0.938646" id="_435216856"/><path class="fil0" d="M5.44728 5.03037c0.0232402,-0.0179488 0.0275315,-0.0513425 0.00958268,-0.0745827 -0.0179488,-0.0232402 -0.0513425,-0.0275315 -0.0745827,-0.00958268 -0.0299409,0.0230787 -0.0615315,0.0454843 -0.0940827,0.0670394 -0.0356811,0.023626 -0.0709803,0.0453228 -0.105362,0.0650866l0.0264567 0.0460394 -0.0265787 -0.0462402c-0.00150394,0.000866142 -0.00295276,0.00179528 -0.00433858,0.00277953 -0.251012,0.150319 -0.538244,0.265945 -0.834161,0.345165 -0.312772,0.0837323 -0.634878,0.126579 -0.933835,0.126579 -0.461161,0 -0.898291,-0.0834843 -1.29911,-0.23702 -0.415154,-0.159031 -0.79152,-0.393228 -1.11543,-0.687665 -0.0217441,-0.0197874 -0.0554213,-0.0182047 -0.0752087,0.00353937 -0.0197874,0.0217441 -0.0182047,0.0554213 0.00353937,0.0752087 0.333736,0.303374 0.721492,0.544669 1.14918,0.7085 0.412807,0.158126 0.862709,0.244106 1.33703,0.244106 0.307689,0 0.63928,-0.0441181 0.961331,-0.130335 0.304705,-0.0815748 0.601209,-0.201079 0.861232,-0.356815 0.000988189,-0.000488189 0.00196457,-0.00100787 0.00292913,-0.00156299l-7.87402e-005 -0.000141732 0.000791339 -0.000472441 -2.75591e-005 -5.11811e-005c0.0380157,-0.0218701 0.0751378,-0.0446102 0.11039,-0.0679528 0.0339528,-0.0224843 0.0675906,-0.0463858 0.100335,-0.071622z" id="_435217048"/><path class="fil0" d="M3.67291 3.52067c-0.0377362,0.0746496 -0.0882638,0.136268 -0.146602,0.183803 -0.0625945,0.0509961 -0.134071,0.0858268 -0.208382,0.103228l-0.0120827 0.00146063c-0.00471654,0 -0.0130079,0.00155906 -0.0221575,0.00327559 -0.0175039,0.0032874 -0.0370551,0.00696063 -0.0580709,0.00696063 -0.125437,0 -0.226248,-0.0486142 -0.296626,-0.13313 -0.0698701,-0.0839016 -0.107807,-0.202228 -0.107807,-0.341831 0,-0.174705 0.0529449,-0.304413 0.139236,-0.40061 0.0852047,-0.0949882 0.201591,-0.155098 0.330634,-0.192535l0.00270866 -0.000834646c0.0678504,-0.0158583 0.140524,-0.0264685 0.215366,-0.0330709 0.0743504,-0.00655512 0.151043,-0.00923228 0.227398,-0.00923228l0.0533346 0 0 0.0533346 0 0.121071c0,0.0757835 -0.000165354,0.0305433 -0.000110236,0.048315 0.000649606,0.215957 0.00116929,0.391232 -0.116839,0.589795zm-0.213681 0.101307c0.047748,-0.0389055 0.0891142,-0.089622 0.119929,-0.15128l0.00187402 -0.00354331c0.103555,-0.173693 0.103063,-0.336098 0.102465,-0.53628 -0.00015748,-0.0495157 -0.000307087,-0.00523228 -0.000307087,-0.048315l0 -0.0672717c-0.0557047,0.000988189 -0.111063,0.00360236 -0.164898,0.00835039 -0.0704961,0.00622047 -0.138209,0.0160394 -0.200366,0.0305669l-7.87402e-006 -3.93701e-005c-0.110323,0.0323583 -0.208575,0.0827205 -0.278335,0.160496 -0.0692441,0.0771969 -0.111732,0.183669 -0.111732,0.329776 0,0.114693 0.0291378,0.209469 0.0828071,0.273917 0.0498858,0.0599094 0.122874,0.094374 0.214957,0.094374 0.0125394,0 0.0262323,-0.0025748 0.0384882,-0.00487402 0.0123622,-0.0023189 0.0237756,-0.00446457 0.0347992,-0.00514173 0.0571535,-0.0141969 0.112063,-0.0414173 0.160327,-0.0807362z" id="_435216736"/><path class="fil0" d="M3.74069 2.3529l-0.050626 0.0039252c-0.118075,0.00913386 -0.249976,0.0193425 -0.378154,0.0363386l-0.000208661 0c-0.11335,0.0146969 -0.226925,0.0319291 -0.335642,0.0566378 -0.106319,0.0241575 -0.207783,0.0556181 -0.299327,0.099185l-0.00291732 0.00124803c-0.181988,0.0739173 -0.333,0.190579 -0.436106,0.347185 -0.096685,0.146858 -0.151925,0.329969 -0.151925,0.54724 0,0.269055 0.0815315,0.473311 0.215827,0.612469 0.14602,0.151307 0.356161,0.227402 0.592843,0.227402 0.0789961,0 0.149283,-0.00458661 0.213677,-0.0128189 0.0640157,-0.0081811 0.124417,-0.0202717 0.183358,-0.035248 0.0894331,-0.0283622 0.171972,-0.0686339 0.25463,-0.125315 0.0846496,-0.0580591 0.169732,-0.133484 0.262539,-0.230984l0.0438898 -0.0461142 0.0375669 0.0515315c0.0274843,0.0377047 0.0435787,0.0607874 0.0585512,0.0822717 0.0669803,0.0961024 0.114409,0.164154 0.256016,0.284063 0.0160118,0.00554724 0.0313898,0.00812598 0.0455,0.00707874 0.0127441,-0.000948819 0.0247165,-0.00516142 0.0353307,-0.0132638l3.14961e-005 4.33071e-005c0.0617087,-0.051374 0.14939,-0.125894 0.235929,-0.200575 0.0775748,-0.0669449 0.151685,-0.131819 0.201894,-0.17728l0.00208661 -0.00187402c0.0102008,-0.00826772 0.0147598,-0.017685 0.0154134,-0.0272913 0.00108268,-0.0158583 -0.00561811,-0.0345827 -0.0161024,-0.0528346 -0.0102598,-0.0130906 -0.0144016,-0.0183268 -0.0186339,-0.023685 -0.108957,-0.137811 -0.210669,-0.266461 -0.210669,-0.538114l0 -0.903657c0,-0.00385827 0.00034252,-0.0527795 0.000677165,-0.100906 0.00230315,-0.330173 0.0043937,-0.631783 -0.233339,-0.854016l-1.1811e-005 1.1811e-005c-0.0997126,-0.0910354 -0.225748,-0.156551 -0.358858,-0.200957 -0.159945,-0.0533583 -0.330106,-0.0761575 -0.477768,-0.0761575l-0.120319 0 0 -3.14961e-005c-0.271291,0.0161378 -0.550303,0.0874213 -0.764591,0.248835 -0.173354,0.130575 -0.305039,0.321299 -0.356346,0.591374l-0.000625984 0.00270866 -0.00030315 0.00124409 0.000149606 3.54331e-005c-0.0043622,0.0183425 -0.00113386,0.0295157 0.00505512,0.0361654 0.00866929,0.00931496 0.0228031,0.0149173 0.0347992,0.0179764l0.547594 0.0696417c0.0117087,-0.00338583 0.0209528,-0.00961417 0.0280827,-0.0175118 0.0117913,-0.0130669 0.0189724,-0.0311535 0.0225669,-0.0498189l0.000417323 -0.00166535c0.0266496,-0.116748 0.0860551,-0.206213 0.165106,-0.270587 0.0869764,-0.0708307 0.197169,-0.110413 0.312886,-0.121921l0.00520866 -0.000417323 0.0400906 0c0.0699094,0 0.143122,0.0154094 0.208713,0.046063 0.0613189,0.0286575 0.116035,0.0708661 0.155488,0.126598l0.00124803 0.00146063c0.0808622,0.123268 0.0800039,0.274862 0.0792205,0.413272 -2.75591e-005,0.00562205 6.29921e-005,-0.0151299 6.29921e-005,0.038437l-0.000208661 0.000417323 -0.000807087 0.0794764 -0.0005 0.0488937 -0.0484606 0.00381496zm-0.0585394 -0.102327l0.00174409 -0.000133858 0.000307087 -0.0301417 -0.000204724 0c0,-0.0281063 0.000185039,-0.00719291 0.000354331,-0.0388543 0.000692913,-0.122937 0.00145669,-0.257587 -0.0621339,-0.354524l0.000137795 -9.05512e-005c-0.0280394,-0.0389331 -0.0677126,-0.0690197 -0.112709,-0.0900472 -0.0507559,-0.0237205 -0.10822,-0.0356457 -0.163713,-0.0356457l-0.0389134 0c-0.0943583,0.0100276 -0.183161,0.0419449 -0.252193,0.0981654 -0.0609567,0.0496417 -0.106957,0.118961 -0.128047,0.209752l2.75591e-005 3.93701e-006c-0.00693701,0.0360394 -0.0220591,0.0723425 -0.0479843,0.101071 -0.0232835,0.0257913 -0.0545315,0.0450551 -0.095315,0.0524331l-0.0160394 0.000417323 -0.560535 -0.0712874 -0.00583465 -0.00104331 -0.0016063 -0.000389764 -0.000208661 0c-0.0276772,-0.00687795 -0.062311,-0.0213622 -0.0880157,-0.0489921 -0.0283661,-0.0304921 -0.0450906,-0.0735315 -0.0308898,-0.133244l0.000177165 -0.000177165c0.0570236,-0.298693 0.203551,-0.510244 0.396531,-0.655602 0.233843,-0.176142 0.534866,-0.253374 0.825839,-0.270264l0.00291732 -0.000208661 0.120319 0c0.157283,0 0.339311,0.0245433 0.511516,0.0819921 0.14628,0.0488031 0.285484,0.121433 0.39678,0.223043l0.000413386 0.000417323c0.272248,0.254071 0.269992,0.578059 0.26752,0.932752 -0.000125984,0.0184646 -0.000259843,0.0367126 -0.000259843,0.100488l0 0.903657c0,0.235339 0.0904449,0.349736 0.187331,0.47228 0.00968898,0.0122598 0.0195787,0.0247677 0.0216969,0.0274764l0.00396063 0.00562598c0.0211929,0.0357677 0.0347362,0.0762756 0.032,0.116339 -0.00258268,0.0379016 -0.0187165,0.0735394 -0.0544055,0.102551 -0.0538031,0.0486693 -0.127181,0.112953 -0.201657,0.177224 -0.0845197,0.072937 -0.173713,0.148665 -0.239295,0.20324l-0.00166535 0.00145669c-0.0280354,0.0214055 -0.0591693,0.0324843 -0.092,0.0349331 -0.0326496,0.00242913 -0.0665118,-0.00399213 -0.10013,-0.0173976l-0.0145827 -0.00874803c-0.159004,-0.133634 -0.209874,-0.206626 -0.282213,-0.310413 -0.00669291,-0.00960236 -0.0135551,-0.0194449 -0.0203228,-0.0291181 -0.081122,0.0812402 -0.157776,0.146717 -0.234728,0.199492 -0.0922913,0.0632913 -0.18472,0.108181 -0.285248,0.139795l-0.00270866 0.000830709c-0.0612402,0.0155748 -0.125772,0.028378 -0.196701,0.0374409 -0.070685,0.00903937 -0.145547,0.0140709 -0.227008,0.0140709 -0.265142,0 -0.502354,-0.0871142 -0.669512,-0.260323 -0.152965,-0.1585 -0.245827,-0.387638 -0.245827,-0.686217 0,-0.23863 0.0617559,-0.44139 0.169846,-0.605571 0.115197,-0.174972 0.282268,-0.304874 0.482728,-0.386728 0.0983386,-0.0467047 0.207126,-0.0804252 0.321039,-0.106307 0.11174,-0.0253976 0.228673,-0.0431378 0.345437,-0.0582795l-3.93701e-006 -2.75591e-005c0.135106,-0.0179134 0.266433,-0.0280827 0.383988,-0.0371732z" id="_435216976"/></g></g><rect class="fil1" height="6.82666" width="6.82666"/></svg>