<?xml version="1.0" ?><!DOCTYPE svg  PUBLIC '-//W3C//DTD SVG 1.1//EN'  'http://www.w3.org/Graphics/SVG/1.1/DTD/svg11.dtd'><svg height="6.82666in" style="shape-rendering:geometricPrecision; text-rendering:geometricPrecision; image-rendering:optimizeQuality; fill-rule:evenodd; clip-rule:evenodd" viewBox="0 0 6.82666 6.82666" width="6.82666in" xml:space="preserve" xmlns="http://www.w3.org/2000/svg" xmlns:xlink="http://www.w3.org/1999/xlink"><defs><style type="text/css">
   <![CDATA[
    .fil1 {fill:none}
    .fil0 {fill:#212121;fill-rule:nonzero}
   ]]>
  </style></defs><g id="Layer_x0020_1"><path class="fil0" d="M1.74497 2.68145l-0.731642 0 0 1.56165 1.16895 0 0 -2.24842 -0.383976 0 0 0.633429 0 0.0533346 -0.0533346 0zm-0.784976 -0.106669l0.731642 0 0 -0.633429 0 -0.0533346 0.0533346 0 0.490646 0 0.0533346 0 0 0.0533346 0 2.35509 0 0.0533346 -0.0533346 0 -1.27562 0 -0.0533346 0 0 -0.0533346 0 -1.66832 0 -0.0533346 0.0533346 0zm0.784976 1.38254l-0.294311 0 -0.0533346 0 0 -0.0533346 0 -0.883169 0 -0.0533346 0.0533346 0 0.294311 0 0.0533346 0 0 0.0533346 0 0.883169 0 0.0533346 -0.0533346 0zm-0.240976 -0.106669l0.187642 0 0 -0.7765 -0.187642 0 0 0.7765z"/><path class="fil0" d="M2.43198 2.57478l0.490646 0 0.0533346 0 0 0.0533346 0 1.66832 0 0.0533346 -0.0533346 0 -0.490646 0 -0.0533346 0 0 -0.0533346 0 -1.66832 0 -0.0533346 0.0533346 0zm0.437311 0.106669l-0.383976 0 0 1.56165 0.383976 0 0 -1.56165z"/><path class="fil0" d="M2.43198 1.88802l0.490646 0 0.0533346 0 0 0.0533346 0 0.490661 0 0.0533346 -0.0533346 0 -0.490646 0 -0.0533346 0 0 -0.0533346 0 -0.490661 0 -0.0533346 0.0533346 0zm0.437311 0.106669l-0.383976 0 0 0.383992 0.383976 0 0 -0.383992z"/><path class="fil0" d="M3.17214 4.2431l0.731819 0 0.0533346 0 0 0.0533346 0 0.196425 0 0.0533346 -0.0533346 0 -0.731819 0 0 0.28578 1.16915 0 0 -2.15053 -1.16915 0 0 1.56165zm0.678484 0.106669l-0.731819 0 -0.0533346 0 0 -0.0533346 0 -1.66832 0 -0.0533346 0.0533346 0 1.27582 0 0.0533346 0 0 0.0533346 0 2.2572 0 0.0533346 -0.0533346 0 -1.27582 0 -0.0533346 0 0 -0.0533346 0 -0.392449 0 -0.0533346 0.0533346 0 0.731819 0 0 -0.0897559zm-0.240976 -1.38229l0.294311 0 0.0533346 0 0 0.0533346 0 0.883169 0 0.0533346 -0.0533346 0 -0.294311 0 -0.0533346 0 0 -0.0533346 0 -0.883169 0 -0.0533346 0.0533346 0zm0.240976 0.106669l-0.187642 0 0 0.7765 0.187642 0 0 -0.7765z"/><path class="fil0" d="M4.64413 2.68145l0 1.56165 0.73187 0 0.0533346 0 0 0.0533346 0 0.196425 0 0.0533346 -0.0533346 0 -0.73187 0 0 0.28578 1.1692 0 0 -2.15053 -1.1692 0zm-0.106669 1.61499l0 -1.66832 0 -0.0533346 0.0533346 0 1.27587 0 0.0533346 0 0 0.0533346 0 2.2572 0 0.0533346 -0.0533346 0 -1.27587 0 -0.0533346 0 0 -0.0533346 0 -0.392449 0 -0.0533346 0.0533346 0 0.73187 0 0 -0.0897559 -0.73187 0 -0.0533346 0 0 -0.0533346zm0.838539 -0.339118l-0.294559 0 -0.0533346 0 0 -0.0533346 0 -0.883169 0 -0.0533346 0.0533346 0 0.294559 0 0.0533346 0 0 0.0533346 0 0.883169 0 0.0533346 -0.0533346 0zm-0.241224 -0.106669l0.18789 0 0 -0.7765 -0.18789 0 0 0.7765z"/></g><rect class="fil1" height="6.82666" width="6.82666"/></svg>