<?xml version="1.0" ?><!DOCTYPE svg  PUBLIC '-//W3C//DTD SVG 1.1//EN'  'http://www.w3.org/Graphics/SVG/1.1/DTD/svg11.dtd'><svg height="6.82666in" style="shape-rendering:geometricPrecision; text-rendering:geometricPrecision; image-rendering:optimizeQuality; fill-rule:evenodd; clip-rule:evenodd" viewBox="0 0 6.82666 6.82666" width="6.82666in" xml:space="preserve" xmlns="http://www.w3.org/2000/svg" xmlns:xlink="http://www.w3.org/1999/xlink"><defs><style type="text/css">
   <![CDATA[
    .fil1 {fill:none}
    .fil0 {fill:#212121;fill-rule:nonzero}
   ]]>
  </style></defs><g id="Layer_x0020_1"><path class="fil0" d="M3.03683 4.42286c0.0523543,0.0539134 0.110024,0.0942402 0.172996,0.120984 0.0627244,0.0266417 0.131492,0.0399606 0.206307,0.0399606l1.17864 0c0.088937,0 0.171929,0.0165945 0.248835,0.0497205 0.0765354,0.0329606 0.146567,0.0822323 0.209969,0.147728 0.0634094,0.065311 0.110996,0.137307 0.142831,0.216067 0.0318386,0.0787795 0.0477205,0.163642 0.0477205,0.254661 0,0.0911181 -0.0159094,0.176193 -0.047811,0.255138 -0.0318346,0.0787835 -0.0793937,0.150776 -0.14274,0.21587 -0.0634252,0.0653819 -0.133315,0.114531 -0.20976,0.147406 -0.0768583,0.0330512 -0.159839,0.0495984 -0.249043,0.0495984l-1.17812 0c-0.252539,0 -0.487016,-0.0463858 -0.703535,-0.139185 -0.216311,-0.0927047 -0.413976,-0.231504 -0.593087,-0.416409 -0.17911,-0.184701 -0.3135,-0.388547 -0.403185,-0.61148 -0.0897165,-0.223016 -0.134559,-0.464472 -0.134559,-0.724323l0 -2.45348c0,-0.0932008 0.0158346,-0.179579 0.0474882,-0.25915 0.0317047,-0.0797008 0.0790512,-0.151646 0.142016,-0.21585 0.0631063,-0.0642402 0.133429,-0.112571 0.210898,-0.144906 0.0774803,-0.0323425 0.161508,-0.0485472 0.25202,-0.0485472 0.0882165,0 0.170803,0.0166299 0.247591,0.049874 0.0763622,0.0330669 0.145972,0.082252 0.208638,0.147524 0.0628465,0.0651654 0.110134,0.137142 0.141791,0.215906 0.031685,0.0788189 0.0475551,0.163724 0.0475551,0.254689l0 0.561268 1.71272 0c0.0891457,0 0.172315,0.0165394 0.249484,0.049622 0.0769291,0.0329724 0.147217,0.082189 0.210839,0.147622 0.0635669,0.065189 0.111268,0.137138 0.143122,0.21574 0.0319764,0.0789016 0.0479449,0.16402 0.0479449,0.255264 0,0.0910866 -0.0159606,0.176098 -0.0478858,0.254945 -0.031811,0.0785669 -0.0794567,0.150531 -0.142925,0.215803 -0.0634409,0.0653898 -0.133413,0.114524 -0.209894,0.14737 -0.0768898,0.0330236 -0.15987,0.0495433 -0.248909,0.0495433l-1.71475 0 0 0.556244c0,0.155024 0.0522756,0.286547 0.156815,0.394776l-3.93701e-006 3.93701e-006zm0.131327 0.218898c-0.0761417,-0.0323386 -0.145406,-0.0806535 -0.207783,-0.144945l-0.000208661 -0.000208661c-0.124539,-0.128937 -0.186815,-0.285024 -0.186815,-0.468524l0 -0.609579 0 -0.0533346 0.0533346 0 1.76809 0c0.0745748,0 0.143524,-0.0136024 0.206823,-0.0407874 0.0637638,-0.0273858 0.12235,-0.0686024 0.175728,-0.123622 0.0535709,-0.0550906 0.0937165,-0.115665 0.120429,-0.181638 0.0266457,-0.0658031 0.0399646,-0.137476 0.0399646,-0.214945 0,-0.0776181 -0.0133307,-0.149398 -0.0400236,-0.215264 -0.0267283,-0.0659567 -0.0669331,-0.126512 -0.120626,-0.181575 -0.0537008,-0.0552323 -0.112461,-0.0965315 -0.176256,-0.123874 -0.0635551,-0.0272441 -0.132831,-0.0408661 -0.207815,-0.0408661l-1.76605 0 -0.0533346 0 0 -0.0533346 0 -0.614602c0,-0.0777047 -0.0132283,-0.149413 -0.0396339,-0.215106 -0.0264764,-0.0658701 -0.0664016,-0.126465 -0.119713,-0.18174 -0.0530512,-0.0552559 -0.111118,-0.0965236 -0.174055,-0.123776 -0.0626614,-0.027126 -0.131213,-0.0407008 -0.205504,-0.0407008 -0.0766024,0 -0.147016,0.0134213 -0.211185,0.0402087 -0.0642756,0.0268307 -0.122929,0.0672362 -0.175898,0.121157 -0.0530669,0.0541142 -0.0927795,0.11426 -0.119102,0.180433 -0.026374,0.0662953 -0.0395669,0.139622 -0.0395669,0.219984l0 2.45348c0,0.246594 0.0422047,0.474854 0.126638,0.68474 0.0844685,0.209969 0.211358,0.402283 0.380689,0.576898 0.169252,0.174732 0.355394,0.305614 0.558504,0.392661 0.202898,0.0869606 0.423488,0.130429 0.661866,0.130429l1.17812 0c0.0747087,0 0.143665,-0.013626 0.206957,-0.0408425 0.0637047,-0.0273937 0.122213,-0.0686299 0.175594,-0.123657 0.053622,-0.0551024 0.093685,-0.115559 0.120244,-0.181287 0.0266142,-0.0658622 0.0398898,-0.137744 0.0398898,-0.215555 0,-0.0777008 -0.013248,-0.149378 -0.0397992,-0.215079 -0.026563,-0.0657205 -0.0666575,-0.126197 -0.120335,-0.181484 -0.0534055,-0.0551693 -0.112043,-0.0965197 -0.175803,-0.12398 -0.0633622,-0.0272913 -0.132315,-0.0409646 -0.206748,-0.0409646l-1.17864 0c-0.0888504,0 -0.171508,-0.0162362 -0.247976,-0.0487165z"/></g><rect class="fil1" height="6.82666" width="6.82666"/></svg>