<?xml version="1.0" ?><!DOCTYPE svg  PUBLIC '-//W3C//DTD SVG 1.1//EN'  'http://www.w3.org/Graphics/SVG/1.1/DTD/svg11.dtd'><svg height="6.82666in" style="shape-rendering:geometricPrecision; text-rendering:geometricPrecision; image-rendering:optimizeQuality; fill-rule:evenodd; clip-rule:evenodd" viewBox="0 0 6.82666 6.82666" width="6.82666in" xml:space="preserve" xmlns="http://www.w3.org/2000/svg" xmlns:xlink="http://www.w3.org/1999/xlink"><defs><style type="text/css">
   <![CDATA[
    .fil1 {fill:none}
    .fil0 {fill:#212121;fill-rule:nonzero}
   ]]>
  </style></defs><g id="Layer_x0020_1"><path class="fil0" d="M3.41333 0.906661c0.692193,0 1.31886,0.280571 1.77248,0.734189 0.453618,0.453622 0.734189,1.08029 0.734189,1.77248 0,0.692193 -0.280571,1.31886 -0.734189,1.77248 -0.453622,0.453618 -1.08029,0.734189 -1.77248,0.734189 -0.692193,0 -1.31886,-0.280571 -1.77248,-0.734189 -0.453618,-0.453622 -0.734189,-1.08029 -0.734189,-1.77248 0,-0.692193 0.280571,-1.31886 0.734189,-1.77248 0.453622,-0.453618 1.08029,-0.734189 1.77248,-0.734189zm1.69706 0.809606c-0.434311,-0.434307 -1.03431,-0.702937 -1.69706,-0.702937 -0.662748,0 -1.26275,0.26863 -1.69706,0.702937 -0.434307,0.434311 -0.702937,1.03431 -0.702937,1.69706 0,0.662748 0.26863,1.26275 0.702937,1.69706 0.434311,0.434307 1.03431,0.702937 1.69706,0.702937 0.662748,0 1.26275,-0.26863 1.69706,-0.702937 0.434307,-0.434311 0.702937,-1.03431 0.702937,-1.69706 0,-0.662748 -0.26863,-1.26275 -0.702937,-1.69706z"/><path class="fil0" d="M1.6 3.08141l0.94439 0 -0.0615866 0.106669 -0.829469 0 0 0.450492 0.569378 0 -0.0615866 0.106669 -0.561126 0 -0.0533346 0 0 -0.0533346 0 -0.557161 0 -0.0533346 0.0533346 0zm1.66852 0l0.434492 0c0.0166732,0.0355472 0.0336457,0.0711102 0.0509567,0.106669l-0.547035 0 0.0615866 -0.106669zm1.11733 0l0.840803 0 0.0533346 0 0 0.0533346 0 0.557161 0 0.0533346 -0.0533346 0 -0.573421 0c0.000755906,-0.0193937 -0.000114173,-0.0389803 -0.0022126,-0.0584528 -0.00174409,-0.0162165 -0.00435039,-0.0323543 -0.00755512,-0.0482165l0.529854 0 0 -0.450492 -0.724205 0c-0.0210787,-0.0367008 -0.0423583,-0.0723346 -0.0632638,-0.106669zm-0.315791 0.663831l-1.18481 0 0.0615866 -0.106669 1.051 0c0.0231732,0.0366299 0.0472362,0.072437 0.0722165,0.106669z"/><path class="fil0" d="M3.19228 2.27663l0.268185 0.154835 0.000208661 0c0.0190866,0.0110276 0.0319094,0.0287795 0.0371969,0.0485118 0.00527559,0.019689 0.00301575,0.0414961 -0.00805512,0.0606614l-0.954638 1.65348 -9.05512e-005 -5.11811e-005c-0.0111142,0.0191654 -0.0288346,0.032 -0.0484134,0.037248 -0.0195906,0.00524803 -0.0413307,0.00298819 -0.0604567,-0.00805118l-0.000208661 0 -0.268331 -0.154921 -7.87402e-006 -3.93701e-006c-0.0190748,-0.0110118 -0.0319055,-0.0287756 -0.0371969,-0.0485039 -0.00527559,-0.019689 -0.00301575,-0.0414961 0.00805512,-0.0606614l8.66142e-005 5.11811e-005 0.954441 -1.65314 0.000110236 -0.000405512c0.0110118,-0.0190748 0.0287756,-0.0319055 0.0485039,-0.0371969 0.0196969,-0.00526378 0.0414961,-0.00301181 0.0606614,0.00805906l-5.11811e-005 8.66142e-005zm0.19222 0.233606l-0.222512 -0.128465 -0.928181 1.60765 0.222508 0.128469 0.928185 -1.60766z"/><path class="fil0" d="M2.10764 4.46511l0.194949 -0.144311 -0.167449 -0.0966772 -0.0275 0.240988zm0.323323 -0.107039l-0.355146 0.26289c-0.0108898,0.00945669 -0.025563,0.0144961 -0.0410236,0.0127323 -0.0292638,-0.00333858 -0.0502795,-0.0297717 -0.0469409,-0.0590354l0.0529882 0.00604724 -0.0529173 -0.00604331 0.0502402 -0.440236c0.000468504,-0.00803543 0.00276378,-0.0160827 0.00705906,-0.0235276 0.0147244,-0.0255079 0.0473465,-0.034248 0.0728543,-0.0195236l-0.00011811 0.000200787 0.303539 0.175248c0.00795669,0.00362598 0.015126,0.00925984 0.0206969,0.0167835 0.0175236,0.0236732 0.0125394,0.0570748 -0.0111339,0.0745984l-9.84252e-005 -0.000133858z"/><path class="fil0" d="M3.38552 1.84284c0.391484,0.483736 0.72372,0.934472 0.935839,1.28428 0.110531,0.18228 0.188862,0.33776 0.226602,0.457122 0.0442638,0.139984 0.0349016,0.240311 -0.0390157,0.290559 -0.00657874,0.00447638 -0.0133701,0.00838189 -0.0203701,0.0117008 -0.00651969,0.00453543 -0.013252,0.00847638 -0.0201732,0.0118268 -0.0790433,0.0382362 -0.167122,-0.00267323 -0.261787,-0.10837 -0.0803425,-0.0896969 -0.170248,-0.230346 -0.266831,-0.410555 -0.194528,-0.362937 -0.41887,-0.891039 -0.647906,-1.4875l-0.000232283 9.05512e-005c-0.0105551,-0.0274961 0.00317323,-0.0583504 0.0306693,-0.0689055 0.0235669,-0.00904724 0.0495984,-0.000251969 0.0632047,0.0197598zm0.845004 1.33928c-0.169197,-0.27902 -0.417039,-0.624575 -0.711437,-1.00082 0.182276,0.456776 0.35822,0.85663 0.514445,1.14811 0.0926772,0.172921 0.177772,0.306571 0.252248,0.38972 0.0601535,0.0671614 0.106764,0.097689 0.13637,0.0833701 0.00172835,-0.000834646 0.00348819,-0.00187008 0.00527559,-0.00309449 0.00406693,-0.00344094 0.00872441,-0.0063189 0.0139016,-0.00848031l0.0205354 0.0492205 -0.0204173 -0.0491654c0.00329921,-0.00137402 0.00594488,-0.00274409 0.00791732,-0.00408661 0.0287165,-0.0195236 0.025874,-0.0790276 -0.00307087,-0.170559 -0.0354606,-0.112146 -0.110071,-0.259906 -0.215768,-0.434209z"/><path class="fil0" d="M4.49869 3.88326c0.0483504,-0.0289291 0.106299,-0.0291496 0.160894,-0.00612598 0.0489961,0.0206614 0.0957402,0.0609213 0.128614,0.115866 0.032874,0.0549331 0.046248,0.115189 0.0412913,0.168177 -0.0055,0.0588858 -0.033122,0.109807 -0.0815551,0.138783 -0.0483425,0.0289252 -0.106295,0.0291575 -0.16089,0.00612992 -0.0489921,-0.0206575 -0.0957441,-0.0609173 -0.128622,-0.115862l-3.93701e-006 -1.5748e-005c-0.0328661,-0.0549291 -0.0462441,-0.115185 -0.0412835,-0.168169 0.00550394,-0.0588819 0.0331299,-0.109803 0.0815551,-0.138783zm0.119303 0.0917953c-0.0237953,-0.0100354 -0.0472835,-0.011 -0.0647953,-0.000523622 -0.0174291,0.0104291 -0.0276378,0.031626 -0.0300512,0.0574528 -0.0029685,0.0317165 0.00565354,0.0688071 0.0265472,0.103732l3.93701e-006 1.1811e-005c0.0208937,0.0349055 0.0495315,0.0600433 0.078937,0.0724409 0.0237953,0.0100354 0.0472795,0.0109961 0.0647913,0.000519685 0.0174291,-0.0104252 0.0276417,-0.0316299 0.0300512,-0.0574528 0.0029685,-0.0317126 -0.00565354,-0.0688071 -0.0265512,-0.103732 -0.0208898,-0.0349134 -0.0495354,-0.0600512 -0.0789331,-0.0724488zm-0.0682953 0.160665l0 7.87402e-006m-0.0912756 0.0544961l-3.93701e-006 -1.1811e-005"/><path class="fil0" d="M4.92736 4.61833c-0.00800394,-0.0732717 -0.0195591,-0.137492 -0.0386732,-0.182386 -0.0177441,-0.0416732 -0.0454882,-0.0610276 -0.0909173,-0.0408661 -0.0391181,0.0291417 -0.0360079,0.0626535 -0.00896457,0.098626 0.0292992,0.0389764 0.079122,0.0810709 0.138555,0.124626zm0.0592402 -0.224055c0.0344606,0.0809331 0.0477756,0.200913 0.0566299,0.329094l0.00749213 0.108441 -0.0902008 -0.0607323c-0.106583,-0.0717638 -0.203835,-0.143283 -0.256717,-0.213626 -0.0684921,-0.0911024 -0.0728465,-0.176791 0.0375787,-0.252756l0.00729134 -0.00437795c0.12111,-0.0577008 0.19322,-0.0110276 0.237925,0.0939567z"/></g><rect class="fil1" height="6.82666" width="6.82666"/></svg>