<?xml version="1.0" ?><!DOCTYPE svg  PUBLIC '-//W3C//DTD SVG 1.1//EN'  'http://www.w3.org/Graphics/SVG/1.1/DTD/svg11.dtd'><svg height="6.82666in" style="shape-rendering:geometricPrecision; text-rendering:geometricPrecision; image-rendering:optimizeQuality; fill-rule:evenodd; clip-rule:evenodd" viewBox="0 0 6.82666 6.82666" width="6.82666in" xml:space="preserve" xmlns="http://www.w3.org/2000/svg" xmlns:xlink="http://www.w3.org/1999/xlink"><defs><style type="text/css">
   <![CDATA[
    .fil1 {fill:none}
    .fil0 {fill:#212121;fill-rule:nonzero}
   ]]>
  </style></defs><g id="Layer_x0020_1"><path class="fil0" d="M4.29563 2.88685l-1.74639 -1.74633 -0.0595433 -0.0595394 0.0793346 -0.028378c0.133339,-0.047689 0.272126,-0.0844724 0.415283,-0.109213 0.139657,-0.0241339 0.283,-0.0367283 0.429012,-0.0367283 0.163646,0 0.323921,0.0158228 0.479362,0.0459803 0.159591,0.0309646 0.313657,0.077 0.460642,0.136496l0.033122 0.0134094 3.93701e-006 0.0359646 3.93701e-006 1.71063 0 0.128543 -0.0908346 -0.0908346zm-1.61024 -1.76102l1.59483 1.59478 -3.93701e-006 -1.54583c-0.130811,-0.0507008 -0.267043,-0.0902835 -0.407516,-0.117539 -0.148386,-0.0287874 -0.301957,-0.0438937 -0.459362,-0.0438937 -0.140449,0 -0.277791,0.0120236 -0.411098,0.0350591 -0.108114,0.018685 -0.213902,0.0446772 -0.316846,0.0774331zm1.90125 3.20751l0 -3.04504 0 -0.092315 0.08 0.0462756c0.381035,0.220413 0.698748,0.538449 0.918996,0.919996 0.212669,0.368409 0.334362,0.795681 0.334362,1.25108 0,0.16365 -0.0158228,0.323929 -0.0459843,0.479378 -0.0309606,0.159587 -0.0769961,0.313642 -0.1365,0.460626l-0.0134961 0.0333346 -0.035878 0 -1.04817 0 -0.0533346 0 0 -0.0533346zm0.106669 -2.95061l0 2.89727 0.958661 0c0.0506693,-0.130744 0.0902244,-0.266898 0.117461,-0.407291 0.0287953,-0.148394 0.0438976,-0.301969 0.0438976,-0.459378 0,-0.436661 -0.116382,-0.845827 -0.319772,-1.19817 -0.195161,-0.338091 -0.470571,-0.624205 -0.800248,-0.832437zm-2.19998 3.20391l3.04503 0 0.0923189 0 -0.0462795 0.08c-0.220437,0.381039 -0.53848,0.698752 -0.920024,0.919 -0.368409,0.212669 -0.795669,0.334362 -1.25104,0.334362 -0.163669,0 -0.323945,-0.0158189 -0.479374,-0.0459764 -0.159587,-0.0309646 -0.313646,-0.077 -0.460634,-0.136504l-0.0333346 -0.0134961 0 -0.035878 0 -1.04817 0 -0.0533346 0.0533346 0zm2.95059 0.106669l-2.89726 0 0 0.958669c0.130752,0.0506654 0.266902,0.0902244 0.407299,0.117465 0.148378,0.0287874 0.301945,0.0438898 0.459374,0.0438898 0.436634,0 0.845783,-0.116382 1.19812,-0.319772 0.338091,-0.195161 0.624217,-0.470575 0.832461,-0.800252zm-2.40372 -2.62224l-1.97071 1.97069 -0.0666969 0.0666969 -0.0226772 -0.0916969c-0.0242283,-0.0979961 -0.0427244,-0.197898 -0.0550433,-0.299311 -0.0121339,-0.0998898 -0.0184055,-0.201382 -0.0184055,-0.30411 0,-0.465043 0.126768,-0.900594 0.34763,-1.27402 0.228575,-0.386465 0.558,-0.706256 0.95202,-0.923185l0.0350709 -0.0193071 0.0282638 0.0282638 0.770547 0.770555 0.0377087 0.0377126 -0.0377087 0.0377047zm-1.97784 1.82699l1.86471 -1.8647 -0.704331 -0.704335c-0.36187,0.207161 -0.664654,0.505823 -0.876776,0.864465 -0.211331,0.357311 -0.33263,0.774323 -0.33263,1.21985 0,0.0989449 0.00598425,0.196256 0.0175709,0.291614 0.00794094,0.0653622 0.0184646,0.12976 0.0314528,0.193102zm1.17762 -0.533906l0 2.17421 0 0.0923189 -0.08 -0.0462795c-0.232173,-0.134319 -0.440717,-0.30472 -0.617933,-0.503488 -0.176201,-0.19763 -0.321697,-0.423795 -0.428917,-0.670886l-0.014437 -0.0332756 0.0254764 -0.0254764 1.02477 -1.02483 0.0910433 0.0377087zm-0.106669 2.07977l0 -1.95102 -0.908039 0.908094c0.100835,0.22302 0.235051,0.42815 0.396358,0.609075 0.149217,0.167358 0.321441,0.313646 0.511681,0.433846z"/></g><rect class="fil1" height="6.82666" width="6.82666"/></svg>