<?xml version="1.0" ?><!DOCTYPE svg  PUBLIC '-//W3C//DTD SVG 1.1//EN'  'http://www.w3.org/Graphics/SVG/1.1/DTD/svg11.dtd'><svg height="6.82666in" style="shape-rendering:geometricPrecision; text-rendering:geometricPrecision; image-rendering:optimizeQuality; fill-rule:evenodd; clip-rule:evenodd" viewBox="0 0 6.82666 6.82666" width="6.82666in" xml:space="preserve" xmlns="http://www.w3.org/2000/svg" xmlns:xlink="http://www.w3.org/1999/xlink"><defs><style type="text/css">
   <![CDATA[
    .fil1 {fill:none}
    .fil0 {fill:#212121;fill-rule:nonzero}
   ]]>
  </style></defs><g id="Layer_x0020_1"><g id="_435228808"><path class="fil0" d="M3.51114 4.21944c-0.0866693,0.128374 -0.193079,0.241146 -0.314512,0.334669 -0.121335,0.0934488 -0.257583,0.167531 -0.40402,0.218614 -0.375083,0.130839 -0.767685,0.0972795 -1.0992,-0.0627598 -0.331512,-0.160043 -0.602,-0.446591 -0.73285,-0.821701 -0.130846,-0.375091 -0.0972756,-0.767689 0.0627598,-1.0992 0.160043,-0.33152 0.446598,-0.602004 0.821701,-0.73285 0.35239,-0.122925 0.722417,-0.100965 1.04252,0.0368031 0.32011,0.137772 0.590461,0.391476 0.743465,0.731996l-0.0970787 0.0433307c-0.141524,-0.314969 -0.39189,-0.549768 -0.688472,-0.677413 -0.296602,-0.127654 -0.639283,-0.148071 -0.965429,-0.0342992 -0.347295,0.121146 -0.612638,0.371642 -0.760866,0.678685 -0.148224,0.307047 -0.179335,0.67063 -0.0581772,1.01795 0.121154,0.347303 0.37165,0.612642 0.678685,0.760866 0.307051,0.148232 0.670634,0.179331 1.01795,0.0581772 0.135594,-0.0472992 0.261724,-0.115874 0.37402,-0.202362 0.112201,-0.0864134 0.210717,-0.190902 0.291181,-0.310087l0.0883307 0.0595827z" id="_435227704"/><path class="fil0" d="M5.60338 2.41619c-0.244642,-0.312669 -0.513831,-0.398709 -0.732933,-0.352441 -0.0919843,0.0194252 -0.175449,0.0621457 -0.244591,0.121051 -0.0694567,0.0591732 -0.124409,0.134496 -0.159039,0.218827 -0.0771772,0.187953 -0.0529291,0.421921 0.137228,0.623075 0.15187,0.100402 0.316469,0.166354 0.48735,0.234815 0.214276,0.0858425 0.438165,0.175539 0.664528,0.340925l0.0145827 0.016252c0.195012,0.335205 0.140083,0.649228 -0.0387441,0.876433 -0.0802047,0.101906 -0.185594,0.185921 -0.304512,0.24602 -0.118492,0.0598819 -0.250713,0.096063 -0.385047,0.10252 -0.320382,0.0154055 -0.65165,-0.136724 -0.837917,-0.536594l-0.685276 -1.47114 0.0966693 -0.045 0.685276 1.47114c0.164909,0.354024 0.455717,0.488831 0.736248,0.475343 0.11911,-0.00572441 0.236602,-0.037937 0.342134,-0.0912677 0.105106,-0.0531181 0.198098,-0.127181 0.268677,-0.216854 0.151811,-0.192878 0.198752,-0.460059 0.0359409,-0.747583 -0.212591,-0.153354 -0.426902,-0.239224 -0.632142,-0.321445 -0.178402,-0.0714724 -0.350181,-0.140291 -0.511386,-0.247764l-0.00875197 -0.0075c-0.227445,-0.236874 -0.255783,-0.516295 -0.163189,-0.741791 0.0410984,-0.100087 0.106126,-0.189323 0.188205,-0.259244 0.0823937,-0.0701929 0.182055,-0.121146 0.292087,-0.144382 0.255094,-0.0538701 0.56428,0.0409094 0.83835,0.391189l-0.083748 0.0654173z" id="_435217288"/></g></g><rect class="fil1" height="6.82666" width="6.82666"/></svg>