<?xml version="1.0" ?><!DOCTYPE svg  PUBLIC '-//W3C//DTD SVG 1.1//EN'  'http://www.w3.org/Graphics/SVG/1.1/DTD/svg11.dtd'><svg height="6.82666in" style="shape-rendering:geometricPrecision; text-rendering:geometricPrecision; image-rendering:optimizeQuality; fill-rule:evenodd; clip-rule:evenodd" viewBox="0 0 6.82666 6.82666" width="6.82666in" xml:space="preserve" xmlns="http://www.w3.org/2000/svg" xmlns:xlink="http://www.w3.org/1999/xlink"><defs><style type="text/css">
   <![CDATA[
    .fil2 {fill:none}
    .fil1 {fill:#212121}
    .fil0 {fill:#212121;fill-rule:nonzero}
   ]]>
  </style></defs><g id="Layer_x0020_1"><path class="fil0" d="M5.19253 4.48169l-1.60017 0 -0.00520866 -0.000417323c-0.0306496,-0.00312598 -0.0581063,-0.017063 -0.0778819,-0.0381339 -0.0197402,-0.0210315 -0.0319567,-0.0490591 -0.032374,-0.0805748l-0.000208661 -0.000625984 0 -1.83186 0.000208661 -0.000625984c0.000397638,-0.028626 0.00638583,-0.0513504 0.0231142,-0.0725354 0.0147205,-0.0186417 0.0355157,-0.0322795 0.0664094,-0.0442087 0.0602795,-0.0233622 0.124492,-0.0418386 0.19102,-0.0542835 0.0644488,-0.0120591 0.130776,-0.0185906 0.197492,-0.0185906 0.278421,0 0.532012,0.106465 0.722634,0.280898 0.176358,0.161382 0.298587,0.381059 0.336453,0.628461 0.0177126,-0.00518898 0.0358425,-0.00966535 0.0543425,-0.013378 0.040874,-0.00819685 0.0824449,-0.0125433 0.124169,-0.0125433 0.173906,0 0.331508,0.0706535 0.445705,0.18489 0.114059,0.114094 0.18461,0.27165 0.18461,0.445622 0,0.173898 -0.0704803,0.330705 -0.184441,0.444189 -0.114157,0.113677 -0.271839,0.183717 -0.445874,0.183717zm-1.59741 -0.106669l1.59741 0c0.144992,0 0.276138,-0.058126 0.370874,-0.152465 0.0943937,-0.094 0.152772,-0.224165 0.152772,-0.368772 0,-0.144815 -0.0586102,-0.275846 -0.153358,-0.370622 -0.0946378,-0.0946693 -0.225551,-0.15322 -0.370287,-0.15322 -0.0360669,0 -0.070622,0.00347638 -0.103335,0.0100394 -0.0340866,0.00683858 -0.0674134,0.017189 -0.0994961,0.0305787l-0.0668976 0.0279252 -0.00643701 -0.0725079c-0.0219843,-0.247539 -0.137248,-0.468402 -0.310469,-0.626913 -0.171386,-0.156835 -0.399807,-0.252559 -0.650965,-0.252559 -0.0609882,0 -0.120697,0.00579921 -0.177909,0.0165039 -0.0602992,0.0112795 -0.118201,0.0279094 -0.172272,0.0488661 -0.0125748,0.00485433 -0.0193465,0.00826378 -0.0214094,0.010878 -5.51181e-005,7.08661e-005 -0.000114173,0.00262992 -0.000181102,0.00732677l0.00019685 0 0 1.83186 -0.000185039 0c0.000188976,0.00320472 0.00152362,0.00607874 0.00359449,0.0082874 0.00216535,0.00231102 0.00506299,0.004 0.00835827,0.00479528z"/><path class="fil1" d="M3.35706 4.38644l0 -0.000562992c-0.000287402,0.0357087 -0.0170276,0.0647441 -0.0373937,0.0647441 -0.0204764,0 -0.0372165,-0.0290354 -0.0375039,-0.0644606l-0.00765354 -0.238528 -0.00762205 -0.244909 0.0152756 -1.32609 0 -0.00666535c0.000125984,-0.0201811 0.00553937,-0.0381772 0.0139685,-0.0503701 0.0063937,-0.0090748 0.0146614,-0.0146535 0.0235354,-0.0146535 0.00701181,0 0.0135236,0.00333071 0.0191063,0.00913386 0.0106693,0.0116063 0.018126,0.0320906 0.0184488,0.0556063l0.0165787 1.33304 -0.0167402 0.483717z"/><path class="fil1" d="M3.09142 4.34435l-0.00142126 0.0484528c-0.000161417,0.0168701 -0.00428346,0.0321102 -0.0105039,0.0431575 -0.0063622,0.0108425 -0.0151102,0.0177087 -0.0244724,0.0177087 -0.0108386,0 -0.0203622,-0.0085748 -0.0268898,-0.0221102 -0.00479921,-0.00997638 -0.00781102,-0.0227323 -0.0081378,-0.0362677 -0.000125984,-0.000559055 -0.000125984,-0.0014252 -0.000125984,-0.00218504 0,0 -0.0134016,-0.490386 -0.0134016,-0.491228l0.0132402 -1.20984 0.000161417 -0.011626c0.000125984,-0.0213268 0.00651181,-0.0401024 0.0162087,-0.0509291 0.00541339,-0.00638189 0.0117756,-0.00991732 0.0189449,-0.00991732 0.00699606,0 0.0136772,0.00381496 0.0192205,0.0104843 0.00940945,0.0107598 0.0155945,0.0293189 0.0157559,0.0503622l0.0147913 1.22202 -0.0133701 0.441913z"/><path class="fil1" d="M2.88485 4.39642l0 -0.000279528c-0.000291339,0.0318071 -0.0147913,0.0564685 -0.032752,0.0564685 -0.018,0 -0.0322913,-0.0246614 -0.0327874,-0.056189l-0.0146142 -0.49426 0.0146142 -1.02663c0.000496063,-0.031811 0.0147874,-0.056752 0.0327874,-0.056752 0.0179606,0 0.0324606,0.0249409 0.032752,0.056752l0.0164016 1.02691 -0.0164016 0.49398z"/><path class="fil1" d="M2.68117 4.39948l0 -0.000279528c-0.000484252,0.0293189 -0.0136811,0.0525709 -0.0303858,0.0525709 -0.0165276,0 -0.0298858,-0.0232362 -0.0302087,-0.0522913l-0.0160945 -0.497315 0.0159331 -1.06567c0.000484252,-0.0296181 0.0138425,-0.0525748 0.0303701,-0.0525748 0.0167047,0 0.0299016,0.0229567 0.0303858,0.0525748l0.018126 1.06567 -0.018126 0.497315z"/><path class="fil1" d="M2.47921 4.40387c-0.000496063,0.0271339 -0.012874,0.0484606 -0.0280197,0.0484606 -0.0152362,0 -0.0274961,-0.0213268 -0.0279803,-0.0481732l-0.0175118 -0.501996 0.0175118 -1.09359c0.000484252,-0.027126 0.0127441,-0.0484567 0.0279803,-0.0484567 0.0151457,0 0.0275236,0.0213307 0.0280197,0.0484567l0.0195433 1.09359 -0.0195433 0.501709z"/><path class="fil1" d="M2.27861 4.4072l0 -0.000279528c-0.000484252,0.0249173 -0.0117756,0.0442598 -0.0256142,0.0442598 -0.0138543,0 -0.0251339,-0.0193425 -0.0256181,-0.0439803l-0.0187717 -0.505043c0,0 0.0187717,-1.05796 0.0187717,-1.05817 0.000484252,-0.0246535 0.0117638,-0.0442756 0.0256181,-0.0442756 0.0138386,0 0.0251181,0.019622 0.0256142,0.0442756l0.0212992 1.05817 -0.0212992 0.505043z"/><path class="fil1" d="M2.07669 4.4152l0 -0.000279528c-0.000645669,0.0224528 -0.0108307,0.0401614 -0.0234134,0.0401614 -0.012374,0 -0.0225551,-0.0177087 -0.0232126,-0.0401614l-0.0202047 -0.510268c0,0 0.0202047,-0.976571 0.0202047,-0.976571 0.00065748,-0.0223898 0.0108386,-0.0401024 0.0232126,-0.0401024 0.0125827,0 0.0227677,0.0177126 0.0234134,0.0401024l0.0228898 0.976571 -0.0228898 0.510547z"/><path class="fil1" d="M1.88225 4.41548l0 -0.000283465c-0.000645669,0.0202047 -0.00984646,0.0362913 -0.0210079,0.0362913 -0.0111181,-2.3622e-005 -0.0203661,-0.0160866 -0.0209803,-0.0360079l-0.0214567 -0.513598 0.0214567 -0.79478c0.000614173,-0.0202008 0.0098622,-0.0362047 0.0209803,-0.0362047 0.0111614,0 0.0203622,0.0160039 0.0210079,0.0359882l0.0243583 0.794996 -0.0243583 0.513598z"/><path class="fil1" d="M1.68628 4.4152c-0.000614173,0.0182756 -0.00875197,0.0318071 -0.0184488,0.0318071 -0.0100236,0 -0.0179528,-0.0135315 -0.0186102,-0.0318071l-0.0230551 -0.513594 0.0230551 -0.488398c0.00065748,-0.0182795 0.00858661,-0.0318071 0.0186102,-0.0318071 0.00985827,0 0.0178346,0.0135276 0.0184488,0.0315236l0.0261102 0.488681 -0.0261102 0.513594z"/><path class="fil1" d="M1.49213 4.4111c-0.000807087,0.0157244 -0.00781496,0.0276299 -0.0162441,0.0276299 -0.00859843,-1.5748e-005 -0.0156063,-0.0119055 -0.0163819,-0.0276299l-0.0243425 -0.5095 0.0243425 -0.526575c0.000775591,-0.0158031 0.00778346,-0.027689 0.0163819,-0.027689 0.00842913,0 0.015437,0.0118858 0.0162441,0.027689l0.0276457 0.526575 -0.0276457 0.5095z"/><path class="fil1" d="M1.2992 4.3953c-0.000818898,0.013815 -0.00671654,0.0235157 -0.0138504,0.0235157 -0.00733071,0 -0.0130669,-0.00970079 -0.0138425,-0.0235157l-0.0257795 -0.493693c0,0 0.0257795,-0.512476 0.0257795,-0.512476 0.000614173,-0.013815 0.00651181,-0.0237992 0.0138425,-0.0237992 0.00713386,0 0.0130315,0.00998425 0.0138504,0.0237992l0.0292441 0.512476 -0.0292441 0.493693z"/><path class="fil1" d="M1.10808 4.32389c-0.000980315,0.0113268 -0.00574803,0.0194213 -0.0116142,0.0194213 -0.00573622,0 -0.0106654,-0.00809449 -0.0114843,-0.0194213l-0.0271969 -0.422567 0.0271969 -0.431929c0.000818898,-0.011126 0.00574803,-0.0194213 0.0114843,-0.0194213 0.00586614,0 0.0106339,0.00809449 0.0116142,0.0194213l0.0308701 0.431929 -0.0308701 0.422567z"/><path class="fil1" d="M0.929681 4.1642c-0.000933071,0.0108425 -0.00536614,0.0185709 -0.0111181,0.0185709 -0.00573622,0 -0.0101772,-0.00772835 -0.0109882,-0.0188543l-0.0202008 -0.262602 0.0202008 -0.267c0.000811024,-0.011063 0.00525197,-0.0188583 0.0109882,-0.0188583 0.00575197,0 0.010185,0.00779528 0.0111181,0.0188583l0.0240354 0.267283 -0.0240354 0.262602z"/></g><rect class="fil2" height="6.82666" width="6.82666"/></svg>