<?xml version="1.0" ?><!DOCTYPE svg  PUBLIC '-//W3C//DTD SVG 1.1//EN'  'http://www.w3.org/Graphics/SVG/1.1/DTD/svg11.dtd'><svg height="6.82666in" style="shape-rendering:geometricPrecision; text-rendering:geometricPrecision; image-rendering:optimizeQuality; fill-rule:evenodd; clip-rule:evenodd" viewBox="0 0 6.82666 6.82666" width="6.82666in" xml:space="preserve" xmlns="http://www.w3.org/2000/svg" xmlns:xlink="http://www.w3.org/1999/xlink"><defs><style type="text/css">
   <![CDATA[
    .fil2 {fill:none}
    .fil0 {fill:#212121}
    .fil1 {fill:#212121;fill-rule:nonzero}
   ]]>
  </style></defs><g id="Layer_x0020_1"><path class="fil0" d="M3.33587 1.41211c-0.21172,0.0743976 -0.366425,0.137976 -0.366425,0.542232l0 0.194587 0.126795 -0.0255827 0 -0.168012c-0.00314173,-0.27424 0.0680827,-0.331583 0.253102,-0.411417 -0.000799213,-0.0517953 -0.00538583,-0.0955827 -0.0134724,-0.131807z"/><path class="fil0" d="M3.70445 1.32562c0.00838189,0.0391181 0.0151024,0.0817362 0.0195748,0.12748 0.331406,-0.0476654 0.325043,0.0890236 0.325043,0.374429l0 0.105429 0.125429 -0.0257126 0 -0.0797323c0,-0.44315 -0.0692402,-0.561874 -0.470047,-0.501894z"/><path class="fil0" d="M2.39847 2.26306l0 -0.582913c-0.004,-0.361035 0.182496,-0.471575 0.526756,-0.552303 0.518606,-0.121654 0.551622,0.212681 0.551622,0.425378l0 0.494114 0.126972 -0.0256772 0 -0.4575c-0.0013189,-0.402583 -0.126811,-0.704012 -0.703961,-0.573217 -0.310787,0.0705118 -0.628134,0.149791 -0.628134,0.677213l0 0.62011 0.126744 -0.0252047z"/><path class="fil1" d="M4.80519 1.98914l-3.43168 0.68615 0 2.45003 3.43168 0.686181 0.647953 -0.235657 0 -3.351 -0.647957 -0.235705zm-3.49543 0.59015l3.48895 -0.697602 0.0285433 0.00229134 0.697354 0.253673 0.0352087 0.012811 0 0.037189 0 3.42539 0 0.0371929 -0.0352087 0.0128071 -0.697354 0.253622 -0.0285433 0.00229134 -3.48895 -0.697634 -0.0429173 -0.00858268 0 -0.0437087 0 -2.53744 0 -0.0437087 0.0429173 -0.00858268z"/><path class="fil1" d="M2.83723 4.82521l-0.774165 -0.109142 -0.0460433 -0.00649213 0 -0.0462165 0 -0.642614 0 -0.0533346 0.0533346 0 0.774165 0 0.0533346 0 0 0.0533346 0 0.751756 0 0.061252 -0.060626 -0.00854331zm-0.713539 -0.208067l0.667496 0.0941024 0 -0.637165 -0.667496 0 0 0.543063z"/><path class="fil1" d="M2.84452 3.84828l-0.774165 0 -0.0533346 0 0 -0.0533346 0 -0.591098 0 -0.0462047 0.0460433 -0.00650394 0.774165 -0.109319 0.060626 -0.00855906 0 0.0612677 0 0.700417 0 0.0533346 -0.0533346 0zm-0.720831 -0.106669l0.667496 0 0 -0.585815 -0.667496 0.0942598 0 0.491555z"/><path class="fil1" d="M4.04563 4.97396l-0.975957 -0.142677 -0.045626 -0.00667323 0 -0.0460354 0 -0.757827 0 -0.0533346 0.0533346 0 0.975957 0 0.0533346 0 0 0.0533346 0 0.900504 0 0.0616299 -0.0610433 -0.00892126zm-0.914913 -0.241425l0.869287 0.127083 0 -0.785535 -0.869287 0 0 0.658453z"/><path class="fil1" d="M4.05333 3.84828l-0.975957 0 -0.0533346 0 0 -0.0533346 0 -0.706126 0 -0.0460276 0.045626 -0.0066811 0.975957 -0.142906 0.0610433 -0.00893701 0 0.0616457 0 0.849031 0 0.0533346 -0.0533346 0zm-0.922622 -0.106669l0.869287 0 0 -0.734051 -0.869287 0.127287 0 0.606764z"/></g><rect class="fil2" height="6.82666" width="6.82666"/></svg>