<?xml version="1.0" ?><!DOCTYPE svg  PUBLIC '-//W3C//DTD SVG 1.1//EN'  'http://www.w3.org/Graphics/SVG/1.1/DTD/svg11.dtd'><svg height="6.82666in" style="shape-rendering:geometricPrecision; text-rendering:geometricPrecision; image-rendering:optimizeQuality; fill-rule:evenodd; clip-rule:evenodd" viewBox="0 0 6.82666 6.82666" width="6.82666in" xml:space="preserve" xmlns="http://www.w3.org/2000/svg" xmlns:xlink="http://www.w3.org/1999/xlink"><defs><style type="text/css">
   <![CDATA[
    .fil1 {fill:none}
    .fil0 {fill:#212121;fill-rule:nonzero}
   ]]>
  </style></defs><g id="Layer_x0020_1"><path class="fil0" d="M5.78243 4.02183c-0.000720472,-0.179941 -0.00140157,-0.334945 -0.0237402,-0.471764 -0.0215787,-0.132173 -0.0638268,-0.248386 -0.147488,-0.356504 -0.0941378,-0.121531 -0.214508,-0.192807 -0.341035,-0.234697 -0.129992,-0.0430354 -0.26674,-0.0555787 -0.389272,-0.0593465l-0.0651457 -0.002 0.0147283 -0.0632087c0.0208307,-0.0894213 0.0342559,-0.183634 0.0399764,-0.282118 0.00572047,-0.0985512 0.00388583,-0.20124 -0.0057874,-0.307571l-0.000208661 -0.00458268c-0.00251181,-0.350327 -0.13348,-0.651201 -0.353921,-0.867122 -0.222079,-0.21752 -0.535559,-0.349406 -0.900748,-0.359539l-1.16601 0.000704724 -0.00104331 0c-0.19989,-0.00404724 -0.401028,0.0247283 -0.585394,0.0935276 -0.166008,0.0619488 -0.318575,0.156535 -0.444386,0.289059 -0.074874,0.078874 -0.162063,0.187138 -0.233055,0.33115 -0.0710197,0.144071 -0.125976,0.32426 -0.136457,0.54724 -0.000106299,0.223638 0.000909449,0.44802 0.00192126,0.672551 0.00195669,0.433217 0.00391732,0.867 -0.00216535,1.29829l0.000200787 0c0,0.261134 0.0206614,0.484803 0.0735787,0.676516 0.0521142,0.188795 0.135744,0.34761 0.26224,0.482213 0.12672,0.135094 0.284059,0.236961 0.47061,0.305126 0.188547,0.0688898 0.40748,0.103575 0.655382,0.103575 1.29678,0 0.704791,0.000122047 0.902122,8.26772e-005 0.783657,-0.000173228 0.317421,-0.000338583 0.902126,-0.000338583l0 0.000204724c0.219579,-0.00186614 0.422024,-0.039 0.602283,-0.109386 0.179244,-0.0699921 0.33648,-0.172949 0.466685,-0.306866 0.130012,-0.13385 0.230169,-0.296437 0.298535,-0.482602 0.0688425,-0.187469 0.105476,-0.398524 0.107957,-0.627957 -0.000125984,-0.0108425 -0.00224409,-0.19148 -0.00249213,-0.264638zm0.0812598 -0.48885c0.0235472,0.14424 0.024252,0.303531 0.0249921,0.488433l0 0.000208661c0.000248031,0.0741614 0.00249606,0.263579 0.0025,0.264122l0 0.00104331c-0.00256693,0.242551 -0.0413268,0.465819 -0.114217,0.664307 -0.0734567,0.200024 -0.181579,0.37524 -0.322283,0.520098 -0.14102,0.145043 -0.31089,0.256386 -0.504189,0.331866 -0.192075,0.075 -0.407413,0.114539 -0.640614,0.116476l-0.000417323 0.000208661c-1.18612,0 -0.719886,-0.00011811 -0.902126,-7.87402e-005 -0.79874,0.000165354 -0.206764,0.000334646 -0.902122,0.000334646 -0.259898,0 -0.490949,-0.0369173 -0.691634,-0.110244 -0.202575,-0.0740197 -0.373701,-0.184929 -0.511854,-0.332213 -0.138929,-0.147835 -0.230516,-0.321291 -0.28724,-0.526795 -0.0559213,-0.202587 -0.077752,-0.435299 -0.077752,-0.704846l0.000208661 -0.000625984c0.00608661,-0.431094 0.00412598,-0.864457 0.00217323,-1.29725 -0.00101969,-0.225386 -0.00203937,-0.450626 -0.00192126,-0.675469l0 -0.0025c0.0112598,-0.239559 0.0705906,-0.433736 0.147291,-0.589327 0.0767323,-0.155657 0.170728,-0.272417 0.251394,-0.357394 0.137378,-0.144705 0.30365,-0.24787 0.484378,-0.315311 0.197409,-0.0736654 0.411933,-0.104496 0.624531,-0.100197l1.16643 -0.000704724 0.00145669 0c0.392992,0.0108937 0.731492,0.153949 0.972445,0.389957 0.239618,0.234705 0.382185,0.560815 0.385555,0.939902 0.0100591,0.111535 0.0119724,0.218713 0.0060315,0.321043 -0.0047874,0.0824252 -0.0145748,0.161843 -0.0292126,0.23798 0.114315,0.00644488 0.23726,0.0222953 0.356004,0.0616063 0.144606,0.047874 0.28272,0.130035 0.39187,0.270949 0.0958543,0.123878 0.144016,0.255524 0.168323,0.404417zm-3.32586 -1.63097l0.988051 -0.00126772 0.000834646 0c0.216685,0.00350787 0.361335,0.132811 0.425339,0.295102 0.0242992,0.0616181 0.0367441,0.128354 0.0368307,0.19485 8.66142e-005,0.0668819 -0.0122992,0.13326 -0.0376614,0.193732 -0.0633976,0.151181 -0.205055,0.266917 -0.431866,0.266917l0 -0.000208661 -0.995154 0.000433071 -0.000834646 0c-0.223496,-0.00354724 -0.365803,-0.128614 -0.427346,-0.287201 -0.0237402,-0.0611654 -0.0351614,-0.127358 -0.034315,-0.193335 0.000846457,-0.066189 0.0139449,-0.132114 0.0392323,-0.19252 0.0657559,-0.157055 0.211705,-0.278575 0.43689,-0.276504zm0.987256 0.104984l-0.987453 0.00126772 -0.000417323 0c-0.17498,-0.00166929 -0.28772,0.091126 -0.337945,0.211087 -0.020189,0.0482244 -0.0306417,0.100591 -0.031311,0.152937 -0.000677165,0.0525669 0.00838976,0.105213 0.0272283,0.153752 0.0469764,0.121043 0.156677,0.216528 0.329835,0.21928l0.994335 -0.000433071 0 -0.000208661c0.176547,0 0.285677,-0.0873701 0.333535,-0.2015 0.0200276,-0.047752 0.0298071,-0.0999921 0.0297402,-0.15248 -6.69291e-005,-0.052878 -0.010122,-0.106339 -0.0297441,-0.156102 -0.0493583,-0.125154 -0.160846,-0.224882 -0.327803,-0.227598zm0.870055 2.77721l-1.97635 0c-0.131047,0 -0.249764,-0.0531614 -0.335752,-0.139102 -0.0861181,-0.0860669 -0.13939,-0.204807 -0.13939,-0.335787 0,-0.131201 0.0531811,-0.249965 0.139161,-0.335925 0.0859843,-0.0859724 0.204776,-0.139146 0.33598,-0.139146l1.97635 0c0.13122,0 0.250012,0.0531654 0.335988,0.13913 0.0859803,0.0859646 0.139154,0.20474 0.139154,0.335941 0,0.130961 -0.0533031,0.249677 -0.139413,0.33574 -0.0860197,0.0859646 -0.204756,0.13915 -0.335728,0.13915zm-1.97635 -0.106669l1.97635 0c0.101823,0 0.194031,-0.0412402 0.260728,-0.107898 0.0665472,-0.0665118 0.107744,-0.158547 0.107744,-0.260323 0,-0.101756 -0.0412362,-0.193866 -0.107902,-0.260524 -0.0666614,-0.0666535 -0.158791,-0.107878 -0.260571,-0.107878l-1.97635 0c-0.101764,0 -0.193894,0.0412323 -0.260563,0.107894 -0.0666693,0.0666535 -0.107909,0.15876 -0.107909,0.260508 0,0.101803 0.0411654,0.193858 0.10772,0.26037 0.0666693,0.0666299 0.158858,0.10785 0.260752,0.10785z"/></g><rect class="fil1" height="6.82666" width="6.82666"/></svg>