<?xml version="1.0" ?><!DOCTYPE svg  PUBLIC '-//W3C//DTD SVG 1.1//EN'  'http://www.w3.org/Graphics/SVG/1.1/DTD/svg11.dtd'><svg height="6.82666in" style="shape-rendering:geometricPrecision; text-rendering:geometricPrecision; image-rendering:optimizeQuality; fill-rule:evenodd; clip-rule:evenodd" viewBox="0 0 6.82666 6.82666" width="6.82666in" xml:space="preserve" xmlns="http://www.w3.org/2000/svg" xmlns:xlink="http://www.w3.org/1999/xlink"><defs><style type="text/css">
   <![CDATA[
    .fil1 {fill:none}
    .fil0 {fill:#212121;fill-rule:nonzero}
   ]]>
  </style></defs><g id="Layer_x0020_1"><path class="fil0" d="M1.04357 2.06574c-0.0241378,0.0140079 -0.033248,0.0501535 -0.0295709,0.102732 0.005,0.0714764 0.0339803,0.165732 0.082563,0.274256 0.172894,0.386264 0.379177,0.737248 0.618701,1.05098 0.208909,0.273634 0.443004,0.518787 0.702165,0.734154 -0.0136772,-0.106409 -0.0167913,-0.206425 -0.00907874,-0.301051 0.0111457,-0.136689 0.0446811,-0.262504 0.101343,-0.38039l-7.87402e-006 -3.93701e-006c0.0561417,-0.118346 0.135925,-0.21776 0.238941,-0.297437 0.0905354,-0.0700276 0.198713,-0.124488 0.32424,-0.162827l-0.0235709 -0.147236c-0.240291,-0.217382 -0.498,-0.408465 -0.773063,-0.564701 -0.262831,-0.149291 -0.541736,-0.266961 -0.836693,-0.345579 -0.0618622,-0.0165 -0.128976,-0.0262362 -0.196957,-0.0220984 -0.0664252,0.00404331 -0.134118,0.0214921 -0.199012,0.0592047zm-0.135823 0.109819c-0.00661811,-0.0946417 0.0190394,-0.165075 0.0824921,-0.201898 0.0804724,-0.0467677 0.164146,-0.0683858 0.246091,-0.073378 0.0803858,-0.0048937 0.158689,0.00634252 0.230295,0.025437 0.304094,0.0810551 0.591457,0.202268 0.862102,0.355996 0.287756,0.163445 0.556386,0.363457 0.805921,0.590866l0.0166654 0.0310394 0.0340039 0.212417 0.00759449 0.0474409 -0.0465512 0.0123504c-0.131547,0.0349094 -0.242571,0.0875748 -0.332736,0.157311 -0.0894606,0.0691969 -0.158811,0.155657 -0.207689,0.258689l-0.000208661 0.000417323c-0.0508819,0.105744 -0.0810354,0.219154 -0.091126,0.34289 -0.010252,0.125772 1.5748e-005,0.261878 0.030122,0.41102l-0.0847913 0.0522913c-0.309957,-0.24139 -0.586421,-0.522098 -0.829252,-0.840161 -0.244339,-0.320039 -0.454791,-0.678118 -0.631197,-1.07223 -0.0536732,-0.11989 -0.0858583,-0.226492 -0.0917362,-0.3105z"/><path class="fil0" d="M3.50782 3.04401c0.0977205,0.169563 0.181012,0.334323 0.250398,0.496126 0.0768622,0.17924 0.136543,0.354728 0.179736,0.528976l0.000625984 0.00333465 0.0107638 0.0591693 0.0115748 0.0379882c0.127791,0.0517441 0.257122,0.0897795 0.388201,0.111469 0.138555,0.0229252 0.279587,0.0277165 0.423406,0.0112717l7.87402e-006 6.29921e-005c0.146894,-0.0203228 0.273154,-0.0605748 0.378409,-0.121724 0.102657,-0.0596457 0.185717,-0.13974 0.248835,-0.241228l0.149386 -0.345957c-0.0969567,-0.168902 -0.223917,-0.307307 -0.38087,-0.413685 -0.162949,-0.110445 -0.359248,-0.187012 -0.588898,-0.228028l3.93701e-006 -1.1811e-005c-0.197657,-0.0303031 -0.389476,-0.0351142 -0.576803,-0.0144528 -0.168067,0.0185433 -0.332665,0.0574449 -0.494776,0.116689zm0.152484 0.537795c-0.074752,-0.174315 -0.166484,-0.352839 -0.275882,-0.537992l-0.0316063 -0.0534921 0.0578583 -0.0229646c0.19024,-0.0754921 0.383181,-0.124126 0.580252,-0.14587 0.197429,-0.0217795 0.39887,-0.0167559 0.60576,0.0150906l0.00145669 0.000208661c0.243862,0.0435551 0.453787,0.125862 0.629732,0.245114 0.178386,0.120906 0.320831,0.279173 0.427311,0.472929l0.0125669 0.0228661 -0.0102756 0.0238031 -0.161453 0.373894 -0.00353937 0.00687402c-0.0726339,0.118016 -0.168839,0.211142 -0.288213,0.280496 -0.117547,0.0682913 -0.257213,0.112996 -0.418622,0.135209l-0.00103937 0.000208661c-0.153587,0.0175591 -0.304339,0.0124213 -0.452579,-0.0121063 -0.147835,-0.0244606 -0.292693,-0.0680945 -0.434972,-0.127614l-0.0230787 -0.00965748 -0.00733858 -0.0240906 -0.0198543 -0.0651693 -0.00145669 -0.00604331 -0.0107795 -0.0592559c-0.0417677,-0.168409 -0.099626,-0.338417 -0.174248,-0.512437z"/><path class="fil0" d="M3.83457 4.09423c-0.0417756,-0.168402 -0.0996339,-0.338406 -0.174264,-0.512417 -0.0744449,-0.173587 -0.165724,-0.351339 -0.274516,-0.53565l-0.0213071 -0.0293189 -0.00166535 -0.0025 -0.116185 -0.181256 2.75591e-005 -1.5748e-005c-0.0206102,-0.0279252 -0.0365079,-0.0443228 -0.0498543,-0.0507874 -0.00612205,-0.00296457 -0.0133976,-0.00202756 -0.0227087,0.00208268 -0.0130512,0.00574803 -0.0220984,0.0123386 -0.0257087,0.0209094 -0.00522835,0.0124134 -0.00490945,0.0325197 0.00229528,0.0634331l0.00146063 0.0120827 0 0.0280433 0.0331693 0.207205 0.000417323 0.00229134 0.00783465 0.0677283 0.379354 1.04533 0.038815 0.0775787c0.0625079,0.0985945 0.127291,0.188992 0.192984,0.269862 0.0331732,0.0408307 0.0667165,0.079437 0.100457,0.115634l-0.0403307 -0.446035 -0.0193071 -0.0936811 -0.000208661 -0.00125197 -0.0107598 -0.0592717zm-0.0763504 -0.554087c0.0768661,0.179232 0.136551,0.354728 0.179756,0.528972l0.000625984 0.00333465 0.0110827 0.0610551 1.9685e-005 -3.93701e-006 0.0198543 0.0963346 0.000834646 0.00583465 0.0537835 0.594835 -0.0889567 0.0439567c-0.0714016,-0.0655827 -0.142902,-0.142264 -0.212996,-0.228547 -0.0693622,-0.0853819 -0.136843,-0.179413 -0.200976,-0.28063l-0.0025 -0.00479134 -0.0425 -0.0849488 -0.0025 -0.00562205 -0.382413 -1.05376 -0.00291732 -0.0120827 -0.00851969 -0.0736654 5.11811e-005 -3.93701e-006 -0.0336378 -0.210122 -0.000834646 -0.00833465 0 -0.0256024c-0.0109488,-0.0508819 -0.00848819,-0.0903071 0.005,-0.122331 0.0156772,-0.0372205 0.0434646,-0.060748 0.0807087,-0.0771535 0.0388819,-0.0171614 0.0741102,-0.0187047 0.111874,-0.00042126 0.0301378,0.0145984 0.0589882,0.0424134 0.0912835,0.0866417l0.00187402 0.0025 0.115051 0.179488 0.0221142 0.0304291 0.00270866 0.00416535c0.111539,0.188772 0.205346,0.371425 0.28213,0.550469z"/><path class="fil0" d="M3.45018 2.95209c0.177441,-0.066815 0.357303,-0.110358 0.540748,-0.130591 0.197429,-0.0217795 0.398874,-0.0167559 0.60576,0.0150787l0.00145669 0.000208661c0.243866,0.0435512 0.453787,0.125866 0.62972,0.24511 0.147484,0.0999646 0.270394,0.225469 0.368724,0.375445 0.127665,-0.363917 0.201236,-0.70089 0.214657,-1.0087 0.0145394,-0.333472 -0.0416654,-0.63263 -0.176378,-0.894626 -0.0218425,-0.0424843 -0.0496063,-0.082248 -0.0813701,-0.118677 -0.0346535,-0.0397402 -0.0740039,-0.0755984 -0.115657,-0.106807 -0.0740079,-0.0554528 -0.15522,-0.0784134 -0.241476,-0.0760276 -0.09,0.00248819 -0.186472,0.032122 -0.286843,0.0812362 -0.42011,0.205602 -0.758067,0.435898 -1.01295,0.691626 -0.246921,0.247744 -0.415677,0.519358 -0.505445,0.8155l0.0590512 0.111224zm0.552417 -0.0247559c-0.188142,0.020748 -0.371941,0.0670197 -0.552756,0.138772l-0.0384331 0.0152559 -0.0242756 -0.0333819 -0.0226457 -0.0311378 -0.00395669 -0.00624803 -0.073685 -0.138783 -0.00395669 -0.0397913c0.093185,-0.321799 0.272921,-0.615425 0.538268,-0.881654 0.263142,-0.264016 0.610685,-0.501106 1.0417,-0.712043 0.113543,-0.055563 0.224496,-0.0891378 0.330598,-0.0920709 0.10985,-0.00303543 0.213461,0.0263425 0.308138,0.0972795 0.0475197,0.0356063 0.0924016,0.0765039 0.131909,0.121807 0.0374724,0.0429724 0.0702087,0.0898583 0.0959528,0.139929 0.143465,0.279024 0.203394,0.595961 0.188047,0.947957 -0.015189,0.348382 -0.104299,0.731244 -0.259209,1.14578l-0.040622 0.108689 -0.0558346 -0.101606c-0.0984646,-0.179177 -0.229654,-0.325185 -0.393551,-0.436272 -0.162941,-0.110441 -0.359228,-0.187012 -0.588886,-0.228024l3.93701e-006 -1.1811e-005c-0.197654,-0.0302913 -0.389472,-0.0351024 -0.576803,-0.0144409z"/><path class="fil0" d="M3.08842 3.20408l-0.00125984 -0.0108976c-0.10598,0.0341496 -0.197228,0.0809409 -0.273535,0.139957 -0.0894606,0.0691969 -0.158811,0.155657 -0.207689,0.258689l-0.000208661 0.000208661c-0.0508543,0.105713 -0.0810118,0.219189 -0.0911142,0.343098 -0.00976378,0.119705 -0.000937008,0.24878 0.0258937,0.389535l0.199071 0.133508c0.105815,0.0318661 0.210969,0.0563228 0.314646,0.0643425 0.0994055,0.00768504 0.197205,0.000177165 0.29252,-0.0307047l0.155354 -0.164614 -0.0258465 -0.0516614 -0.0025 -0.00562205 -0.382413 -1.05376 -0.00291732 -0.0120827zm0.097315 -0.085752l0.00783465 0.0677283 0.379354 1.04533 0.0408268 0.0816024 0.0166496 0.0332835 -0.0254016 0.0269213 -0.189823 0.201134 -0.0214567 0.013752c-0.114713,0.0397165 -0.230669,0.0497165 -0.347409,0.040689 -0.114272,-0.00883858 -0.229551,-0.0360315 -0.345256,-0.071252l-0.0141654 -0.00666929 -0.223831 -0.150114 -0.0225 -0.033748c-0.0322205,-0.15961 -0.0431929,-0.305366 -0.0321969,-0.440185 0.0111378,-0.136587 0.0447047,-0.262394 0.101413,-0.38035l-9.05512e-005 -4.33071e-005c0.0561417,-0.118346 0.135925,-0.21776 0.238941,-0.297437 0.101512,-0.0785157 0.225193,-0.137461 0.37065,-0.176059l0.0593858 -0.0157559 0.0070748 0.0611693z"/><path class="fil0" d="M2.68689 4.55085l-0.077374 -0.0519016c0.0964567,0.216547 0.209681,0.410283 0.342504,0.57615 0.16372,0.204457 0.357374,0.366654 0.586315,0.477087 0.0273425,0.0131772 0.0586772,0.0201969 0.0907638,0.0217559 0.0350236,0.00170472 0.0704291,-0.00297638 0.102366,-0.0131575 0.0112244,-0.00357874 0.021563,-0.0140354 0.0309843,-0.0271535 0.0123976,-0.0172559 0.0234055,-0.040248 0.0332165,-0.061063 0.0349094,-0.0739961 0.059815,-0.163098 0.0787677,-0.268075 0.0180709,-0.100075 0.030815,-0.216055 0.0416496,-0.347882 -0.0650512,-0.0615472 -0.130067,-0.132177 -0.193921,-0.21078 -0.0560787,-0.0690276 -0.110925,-0.143701 -0.163768,-0.223264l-0.143193 0.151764 -0.02 0.0133346c-0.109193,0.0413543 -0.22372,0.0508228 -0.341673,0.0411063 -0.11452,-0.00943307 -0.232248,-0.037063 -0.351429,-0.0708386l-0.0152087 -0.00708268zm-0.164665 -0.238472l0.216646 0.145323c0.110421,0.0310394 0.219028,0.0562205 0.323406,0.0648189 0.0992638,0.00817717 0.194689,0.00126772 0.28411,-0.0302992l0.181094 -0.191937 0.0470984 -0.0499213 0.0366496 0.0578386c0.0626457,0.0988622 0.127575,0.189496 0.193429,0.270551 0.0665315,0.0818937 0.134559,0.154823 0.202646,0.217374l0.019126 0.0175709 -0.00203937 0.0257598c-0.0113819,0.143685 -0.025,0.270941 -0.045374,0.383783 -0.0206417,0.114335 -0.0481457,0.212181 -0.0870984,0.294744 -0.011626,0.0246654 -0.024815,0.0521142 -0.0432165,0.0777244 -0.021374,0.0297559 -0.0484646,0.0546299 -0.0851496,0.0663268 -0.0439173,0.0140039 -0.0921575,0.0204567 -0.139453,0.0181575 -0.0459016,-0.00223228 -0.0914134,-0.0126063 -0.132016,-0.0321732 -0.243854,-0.117626 -0.449579,-0.289713 -0.622976,-0.506252 -0.172071,-0.214882 -0.312181,-0.47352 -0.426047,-0.766059l0.0791654 -0.0633307z"/><path class="fil0" d="M4.80687 5.32338c0.0314331,0.00338976 0.0606811,-0.00375591 0.087878,-0.0163898 0.0298465,-0.0138661 0.0584449,-0.0350079 0.0851693,-0.0568898 0.116402,-0.0953386 0.21802,-0.200638 0.303618,-0.317953 0.0855118,-0.117201 0.155843,-0.247476 0.209823,-0.393008 0.058878,-0.158642 0.0925551,-0.315055 0.102539,-0.471654 0.0063937,-0.100244 0.0031811,-0.200693 -0.00924016,-0.301972l-0.0905984 0.209878 -0.00353937 0.00687402c-0.0726378,0.118012 -0.168843,0.211142 -0.288228,0.280496 -0.117555,0.0682874 -0.257224,0.112996 -0.418634,0.135209l-0.00103937 0.000208661c-0.153587,0.0175591 -0.304339,0.0124252 -0.452579,-0.0120984 -0.120843,-0.0199882 -0.239685,-0.0527953 -0.356772,-0.0966181l0.0472402 0.522484c0.0922756,0.0962677 0.194449,0.186205 0.305744,0.26648 0.109642,0.0790827 0.228555,0.149087 0.356059,0.206858 0.0208071,0.00941732 0.0417835,0.0180906 0.0622559,0.0246969 0.0198701,0.00640945 0.0400433,0.0112244 0.0603031,0.0133976zm0.132461 0.0802795c-0.0431654,0.0200512 -0.0906929,0.0312717 -0.143713,0.0255551 -0.0278583,-0.00298819 -0.0550709,-0.00944094 -0.0815472,-0.0179803 -0.025878,-0.00835039 -0.050252,-0.0183425 -0.0735079,-0.0288701 -0.133618,-0.0605433 -0.258681,-0.13422 -0.37439,-0.217685 -0.122398,-0.0882874 -0.233898,-0.18724 -0.333654,-0.292953l-0.0141693 -0.0316654 -0.0537835 -0.594811 -0.000208661 -0.00479134 -2.3622e-005 -0.0311654 -6.29921e-005 -0.0799646 0.0736063 0.0307992c0.135287,0.0566024 0.272287,0.0979646 0.411248,0.120953 0.138555,0.0229213 0.279587,0.0277087 0.423406,0.0112638l7.87402e-006 6.29921e-005c0.146894,-0.0203228 0.273161,-0.0605748 0.378421,-0.121724 0.102669,-0.0596457 0.185728,-0.139744 0.248846,-0.241228l0.15974 -0.370043 0.100831 0.00958661c0.0379528,0.170764 0.0524173,0.338303 0.0417717,0.505157 -0.0106811,0.167476 -0.0464134,0.333992 -0.108791,0.502071 -0.0570512,0.153811 -0.132146,0.292547 -0.223988,0.418417 -0.0917559,0.125756 -0.199472,0.23763 -0.321957,0.337953 -0.0321693,0.0263386 -0.0675709,0.0522441 -0.108083,0.071063z"/></g><rect class="fil1" height="6.82666" width="6.82666"/></svg>