<?xml version="1.0" ?><!DOCTYPE svg  PUBLIC '-//W3C//DTD SVG 1.1//EN'  'http://www.w3.org/Graphics/SVG/1.1/DTD/svg11.dtd'><svg height="6.82666in" style="shape-rendering:geometricPrecision; text-rendering:geometricPrecision; image-rendering:optimizeQuality; fill-rule:evenodd; clip-rule:evenodd" viewBox="0 0 6.82666 6.82666" width="6.82666in" xml:space="preserve" xmlns="http://www.w3.org/2000/svg" xmlns:xlink="http://www.w3.org/1999/xlink"><defs><style type="text/css">
   <![CDATA[
    .fil1 {fill:none}
    .fil0 {fill:#212121;fill-rule:nonzero}
   ]]>
  </style></defs><g id="Layer_x0020_1"><path class="fil0" d="M4.94636 4.57199l-0.286524 0 -0.0552402 0 0.00211417 -0.0552087 0.00604331 -0.157815 -0.000137795 0c0,-0.0247598 0.00469685,-0.0479843 0.0143543,-0.0697126 0.0096811,-0.0217874 0.0240827,-0.0409449 0.0434488,-0.0574685l-8.66142e-005 -0.000102362c0.0178543,-0.015252 0.0371732,-0.0272008 0.0585472,-0.0353898 0.0216181,-0.00827953 0.044878,-0.0126575 0.0702953,-0.0126575l0.0138701 0c0.0247874,0 0.0483031,0.00382677 0.0706417,0.0112323 0.0224646,0.00745276 0.0428543,0.0183937 0.0613189,0.0325945l0.00229134 0.00187402c0.0188858,0.0163307 0.0334803,0.0351654 0.0435551,0.0571575 0.0100669,0.0219685 0.0152323,0.0459409 0.0152323,0.0724724l-0.000208661 0.00208268 -0.00638976 0.159689 -0.00205118 0.051252 -0.0510748 0zm-0.231283 -0.106669l0.180209 0 0.00425591 -0.106354 -0.000125984 0c0,-0.0114173 -0.00177559,-0.0207638 -0.00523228,-0.0283071 -0.00327165,-0.0071378 -0.00842126,-0.0137283 -0.0153465,-0.0199173 -0.00884252,-0.00661811 -0.0183268,-0.0116732 -0.0284803,-0.0150394 -0.0107323,-0.00355906 -0.0231339,-0.00539764 -0.037311,-0.00539764l-0.0138701 0c-0.0121732,0 -0.0228701,0.00192913 -0.0323819,0.00557087 -0.00975591,0.00373622 -0.0187795,0.00936614 -0.0272953,0.0166417l-0.000208661 0c-0.00702756,0.00598425 -0.0120787,0.0125354 -0.0152402,0.0196496 -0.00320079,0.00720866 -0.00476378,0.0161614 -0.00476378,0.0267992l-0.000208661 0.00187402 -0.004 0.10448z"/><path class="fil0" d="M5.13293 4.95415l-0.126846 0 0 0.0924803c0,0.0250039 -0.00473228,0.0480039 -0.0140394,0.068748 -0.00966535,0.0215394 -0.0239409,0.0397756 -0.0426535,0.0544528l1.1811e-005 1.5748e-005c-0.0179094,0.0144567 -0.0374921,0.0247677 -0.0588465,0.0314409 -0.0205236,0.00640945 -0.0420984,0.00936614 -0.0649173,0.00936614l-0.0463583 0c-0.0223898,0 -0.0436575,-0.00302362 -0.0636417,-0.0095748 -0.0214055,-0.00701575 -0.0407165,-0.0178701 -0.0576654,-0.0331063l7.87402e-005 -8.66142e-005c-0.0171969,-0.0146693 -0.0305472,-0.0326614 -0.0395787,-0.0537283 -0.0086811,-0.0202598 -0.013252,-0.0428661 -0.013252,-0.0675276l0 -0.309339 0 -0.0533346 0.0533346 0 0.465882 0 0 -0.126335c0,-0.0439173 -0.00023622,-0.0747244 -0.000590551,-0.0985394 -0.000448819,-0.0305433 -0.00108661,-0.062063 -0.00173228,-0.0931929l-2.3622e-005 0c-0.00120472,-0.0296969 -0.00299213,-0.0561732 -0.0055748,-0.0797362 -0.0024252,-0.022126 -0.00542913,-0.0404409 -0.0091811,-0.0550394l-0.00125197 -0.00541732c-0.00338583,-0.0229882 -0.0100315,-0.0432323 -0.0200236,-0.0608701 -0.01,-0.0176457 -0.0236654,-0.0333819 -0.0410827,-0.0473661 -0.0189331,-0.0153031 -0.039626,-0.0282795 -0.0617874,-0.0386575 -0.0220906,-0.0103425 -0.0460354,-0.0183346 -0.0715709,-0.0237126l-0.00103937 -0.000208661c-0.0270354,-0.00623622 -0.0538858,-0.0099252 -0.0807126,-0.010878 -0.0268937,-0.000952756 -0.0542559,0.000787402 -0.0822835,0.00538583l-0.00125197 0.000208661c-0.0270236,0.00378346 -0.0521929,0.00999213 -0.0754803,0.0187559 -0.0227283,0.00855118 -0.043874,0.0196732 -0.0634252,0.0334882l-0.00104331 0.000625984c-0.0242008,0.0162756 -0.045063,0.0355591 -0.0628465,0.0579567 -0.0177677,0.0223819 -0.032374,0.0476339 -0.0440709,0.0758504l0.000129921 4.72441e-005c-0.0114961,0.0311614 -0.020437,0.0684567 -0.0264882,0.112224 -0.00599213,0.0433386 -0.00914173,0.0935866 -0.00914173,0.151134l0 0.401134c0,0.0787362 0.010122,0.145075 0.0301693,0.199008 0.0190669,0.0512913 0.0472717,0.0918386 0.0844252,0.121614 0.0373268,0.0299843 0.0750276,0.0524843 0.113138,0.0673031 0.0369646,0.014374 0.0749331,0.0216496 0.113957,0.0216496l0.0276496 0 0 5.90551e-005c0.0426535,-0.00251969 0.082874,-0.0129449 0.120567,-0.0310276 0.0394567,-0.0189291 0.076752,-0.0465394 0.111768,-0.0825354l0.000417323 -0.000417323c0.0239528,-0.0239921 0.0418504,-0.0517717 0.0537559,-0.0830827 0.0121732,-0.0320118 0.018311,-0.0683425 0.0184921,-0.108697 -0.00135827,-0.0160197 -0.00284646,-0.0312992 -0.00452756,-0.0442126l-0.000846457 -0.00632677zm-0.180181 -0.106669l0.225024 0 0.0433858 0 0.00869685 0.0427087c0.00397244,0.0195118 0.00698031,0.0383701 0.00933858,0.0565394 0.00266142,0.020437 0.00435039,0.0370984 0.0055748,0.0517283l0.000208661 0.00437402c0,0.0536181 -0.00848819,0.103087 -0.0255827,0.148051 -0.017248,0.045374 -0.0430512,0.0855472 -0.0775039,0.120169 -0.0435827,0.0448031 -0.0910197,0.0796575 -0.142185,0.104205 -0.0514094,0.0246654 -0.106024,0.0386496 -0.163693,0.0415945l-0.00270866 0.000208661 -0.0276496 0c-0.0517677,0 -0.102504,-0.00979528 -0.152287,-0.0291535 -0.0486378,-0.0189134 -0.0957717,-0.0468386 -0.141476,-0.0835551 -0.0521969,-0.0418346 -0.0913976,-0.0976575 -0.117339,-0.167441 -0.024752,-0.0665984 -0.0372559,-0.145315 -0.0372559,-0.236094l0 -0.401134c0,-0.0612913 0.00357874,-0.116445 0.0103937,-0.165717 0.00715748,-0.0517795 0.0179291,-0.096437 0.0319055,-0.134311l0.000834646 -0.00166535c0.0159252,-0.0389646 0.0357323,-0.0735236 0.0597756,-0.103815 0.0241457,-0.0304134 0.0527008,-0.056811 0.0860079,-0.0793543l-3.93701e-005 -5.51181e-005c0.0267953,-0.018937 0.0558543,-0.0342047 0.0871811,-0.0459921 0.0307598,-0.0115748 0.0635591,-0.0197126 0.0983937,-0.0245906l0 7.87402e-006c0.0343189,-0.00555118 0.0682008,-0.00762992 0.101866,-0.00643701 0.0341417,0.00121654 0.067622,0.00574803 0.100713,0.0133819l-3.93701e-006 1.1811e-005c0.033,0.0070315 0.0644094,0.0176142 0.0938661,0.0314055 0.0303622,0.0142205 0.058311,0.0316732 0.0834567,0.0519961 0.0279213,0.0224173 0.0501732,0.0482598 0.0669094,0.0777835 0.0165787,0.0292598 0.0274567,0.0614843 0.0327913,0.0969291 0.00472835,0.0194331 0.00832677,0.0412126 0.0110039,0.0656417 0.00272835,0.0248661 0.00464961,0.053752 0.00599213,0.0868228l0 0.00103937c0.000629921,0.0303976 0.00125984,0.0614921 0.00175591,0.0950669 0.000602362,0.0406457 0.00100787,0.0758228 0.00100787,0.0997913l0 0.179669 0 0.0533346 -0.0533346 0 -0.465882 0 0 0.256004c0,0.0103504 0.00155118,0.0189843 0.00449606,0.0258583 0.00257874,0.00601969 0.00635433,0.0110709 0.0111693,0.0150669l0.00166929 0.00125197c0.00558268,0.00501969 0.0120669,0.00864173 0.0193268,0.0110197 0.00867717,0.00284252 0.0189961,0.00415748 0.0307283,0.00415748l0.0463583 0c0.0125866,0 0.0236811,-0.00137795 0.033248,-0.00436614 0.00872441,-0.00272441 0.0166693,-0.00688976 0.0238465,-0.012685l0.000834646 -0.000625984c0.00509449,-0.00393701 0.00891339,-0.00872047 0.0113976,-0.0142598 0.00294882,-0.00657087 0.00444882,-0.0150709 0.00444882,-0.0254173l0 -0.145815 0 -0.0533346 0.0533346 0z"/><path class="fil0" d="M3.86989 4.1905c0.0222441,0 0.0433898,0.00323622 0.0636417,0.00935039 0.0196102,0.00592126 0.0384055,0.0147598 0.0565591,0.0261378l0.00166535 0.00104331c0.0194921,0.0132126 0.0345827,0.0273898 0.0452913,0.0430236 0.0131654,0.0192402 0.0197677,0.0397835 0.0197677,0.0622244l0 0.658795c0,0.0224606 -0.00667323,0.0431181 -0.0199764,0.0622953l0 0.000208661c-0.0108504,0.015622 -0.0262953,0.0296969 -0.0463346,0.0424685l-0.00166535 0.00104331c-0.0177992,0.0104409 -0.0365748,0.0184961 -0.0565591,0.0239803 -0.0202913,0.00557087 -0.0410276,0.00844882 -0.0623898,0.00844882 -0.0217441,0 -0.042815,-0.00276772 -0.0631142,-0.00813386 -0.0204921,-0.00540945 -0.0398898,-0.0135748 -0.0581102,-0.0242953l-0.00270866 -0.00166929c-0.0189488,-0.0126614 -0.0337874,-0.0267953 -0.0444134,-0.0426772 -0.012752,-0.0190748 -0.0192165,-0.0395276 -0.0192165,-0.0616693l0 -0.658795c0,-0.0219921 0.0063937,-0.0422598 0.0190079,-0.0613898l0 -0.000208661c0.0103504,-0.015685 0.0248307,-0.0298543 0.0433701,-0.0430276l0.0025 -0.00166535c0.0184567,-0.0116102 0.0381339,-0.0205945 0.0589409,-0.0265827 0.0202402,-0.00582283 0.0415197,-0.00890551 0.0637441,-0.00890551zm0.0332244 0.111429c-0.0103071,-0.00311024 -0.0213386,-0.00475984 -0.0332244,-0.00475984 -0.0122913,0 -0.0238268,0.00164173 -0.0345787,0.00473228 -0.0107677,0.00309843 -0.0208189,0.00757874 -0.0301181,0.0132677 -0.00719685,0.00522441 -0.0122717,0.00996063 -0.0151102,0.0142598l-9.44882e-005 -6.29921e-005c-0.000653543,0.00103543 -0.000992126,0.00200394 -0.000992126,0.00291339l0 0.658795c0,0.000799213 0.000299213,0.00163386 0.000877953,0.00250394 0.00258268,0.00385827 0.00734252,0.00812205 0.0141929,0.0127992 0.00920079,0.00522047 0.0191457,0.00928346 0.0297953,0.0120945 0.0109252,0.00288583 0.0229449,0.00437795 0.0360276,0.00437795 0.0127677,0 0.0242087,-0.00145669 0.0344764,-0.00427559 0.0103898,-0.00285039 0.0204331,-0.00716929 0.0301969,-0.0128425 0.007,-0.00457087 0.0119331,-0.00888976 0.0147795,-0.0129882l9.84252e-005 6.69291e-005c0.000468504,-0.000704724 0.000704724,-0.0012874 0.000704724,-0.00173622l0 -0.658795c0,-0.000496063 -0.00034252,-0.00124409 -0.00101181,-0.00222441 -0.00311024,-0.00454331 -0.00871654,-0.00949606 -0.0167441,-0.0149606 -0.00915748,-0.00558268 -0.018878,-0.0100276 -0.0292756,-0.0131654z"/><path class="fil0" d="M4.17772 4.98513l0 -0.668957c0,-0.0560787 -0.00949213,-0.103287 -0.0284094,-0.141472 -0.0180276,-0.0363819 -0.045189,-0.0654646 -0.0814173,-0.0871063l2.75591e-005 -4.72441e-005c-0.0103346,-0.00583071 -0.0221417,-0.0104134 -0.0351024,-0.0136575 -0.0133465,-0.00334252 -0.0278622,-0.00504724 -0.0432126,-0.00504724 -0.029315,0 -0.0610709,0.00713386 -0.0955,0.0212205 -0.0369252,0.0151102 -0.0774213,0.0384252 -0.121709,0.0697244l-0.0839606 0.0593346 0 -0.102874 0 -0.448449 -0.194 0 0 1.61856 0.150736 -0.00370079 0.011252 -0.0650394 0.0158425 -0.0915906 0.0710315 0.0599213c0.0374291,0.0315709 0.0730512,0.0569961 0.106693,0.076248 0.0320118,0.0183268 0.0616142,0.030685 0.0886417,0.037063 0.0261654,0.00618504 0.0497283,0.00801575 0.0708268,0.00567323 0.0195906,-0.00217717 0.0374213,-0.00801181 0.0536181,-0.0173465 0.0163819,-0.0104961 0.0311969,-0.0241024 0.0443543,-0.0409882 0.0141811,-0.018189 0.0266732,-0.0404961 0.0373898,-0.067122l-3.54331e-005 -1.1811e-005c0.0107677,-0.0274567 0.019,-0.0574685 0.0245472,-0.0898071 0.00554724,-0.0323189 0.00838583,-0.0672283 0.00838583,-0.104528zm0.106669 -0.668957l0 0.668957c0,0.0427874 -0.00340157,0.083689 -0.0100551,0.122441 -0.00676378,0.0394213 -0.0169488,0.0763937 -0.0303819,0.110642l-0.000208661 0.000417323c-0.0144173,0.0359488 -0.0319921,0.0669961 -0.052563,0.0933858 -0.021315,0.0273465 -0.0456181,0.0493858 -0.0727717,0.0664173l-0.00166929 0.00103937c-0.0291535,0.0169173 -0.0609567,0.0274449 -0.0956102,0.0312953 -0.0332717,0.00369685 -0.0687717,0.00120079 -0.106661,-0.00775984 -0.0373071,-0.00880709 -0.0765157,-0.0249134 -0.11739,-0.048315 -0.0165276,-0.00945669 -0.0334331,-0.0201772 -0.0507047,-0.0321575l-0.00365748 0.0211299 -0.00745669 0.0430906 -0.0437953 0.00107874 -0.249114 0.00611417 -0.0545827 0.00133858 0 -0.0544646 0 -1.72636 0 -0.0533346 0.0533346 0 0.300669 0 0.0533346 0 0 0.0533346 0 0.405492c0.0200551,-0.0109213 0.0397126,-0.0203346 0.059,-0.0282244 0.0479606,-0.019622 0.0930039,-0.0295591 0.1355,-0.0295591 0.0236772,0 0.0468701,0.00283465 0.0690472,0.00838583 0.0220945,0.00553543 0.0432677,0.0140315 0.0629882,0.0253701l0.000834646 0.000413386c0.0541732,0.0323622 0.0949567,0.076189 0.122252,0.131272 0.0264134,0.053315 0.0396614,0.116232 0.0396614,0.188559z"/><path class="fil0" d="M3.20937 4.11812l-0.194 0 0 0.753677c0,0.056874 0,0.101476 0.00243701,0.13022l0 0.000208661c0.00344094,0.0423976 -0.00798425,0.0823504 -0.0299961,0.115701 -0.0222205,0.0336693 -0.0553268,0.0602953 -0.0946929,0.0754055l-1.5748e-005 -4.33071e-005c-0.0385866,0.0150512 -0.0736102,0.0113661 -0.105331,-0.011815 -0.0241654,-0.0176654 -0.0436024,-0.0468701 -0.0584291,-0.0880984 -0.0050748,-0.0113228 -0.00759843,-0.0250039 -0.00809055,-0.0412362 -0.000401575,-0.0133504 0.000248031,-0.0284921 0.00159843,-0.045874l7.87402e-005 3.93701e-006c0.000629921,-0.0169449 0.00125197,-0.0357953 0.00167717,-0.055622 0.000354331,-0.0163819 0.000590551,-0.0397126 0.000590551,-0.0736496l0.000204724 0 -0.00596457 -0.758878 -0.193972 0 0.0068937 0.74587 0.000208661 0.000417323c0,0.042937 -0.00159055,0.0873583 -0.00296457,0.125831 -0.000468504,0.013185 -0.000917323,0.0256378 -0.00116535,0.0340394l0 0.00125197c-0.00102362,0.0199764 -0.00125197,0.0369843 -0.000673228,0.0510866 0.000503937,0.012378 0.00161811,0.0223189 0.00334252,0.0298661l0.00104331 0.00624803c0.00107087,0.00987008 0.00215748,0.0199764 0.00325197,0.0302835 0.00252756,0.0236929 0.00517717,0.0485276 0.00925197,0.0824291l0 0.00124803c0.00113386,0.0116732 0.00449213,0.0220748 0.0102126,0.0311063 0.00583465,0.00921654 0.0146417,0.0176417 0.0265827,0.0252205l7.08661e-005 -0.000110236c0.0132874,0.00816535 0.0274055,0.0143386 0.0424488,0.0184134l0.000208661 0c0.015689,0.00425197 0.0327913,0.0064252 0.0514252,0.0064252 0.0207717,0 0.0409764,-0.00187795 0.0608228,-0.00538976 0.0205906,-0.00364567 0.0404961,-0.00885039 0.0599921,-0.0153819l-4.33071e-005 -0.000125984c0.0202362,-0.00695669 0.0391102,-0.0149606 0.0565157,-0.0238622 0.0186063,-0.00951575 0.0365433,-0.0203543 0.0536378,-0.032311 0.0152244,-0.0106535 0.0285984,-0.0221614 0.0400906,-0.0341457 0.0114291,-0.0119213 0.0205984,-0.0239685 0.0275276,-0.0357874l0.0989606 0.0275 -0.00137008 0.11522 0.137634 -0.00229528 0 -1.18305zm-0.247335 -0.106669l0.300669 0 0.0533346 0 0 0.0533346 0 1.28863 0 0.052248 -0.0525 0.000877953 -0.244744 0.00408661 -0.0546102 0.000909449 0.000649606 -0.0546614 0.000448819 -0.0376732c-0.0203583,0.0141063 -0.0417756,0.0269685 -0.064063,0.0383661 -0.0233937,0.0119606 -0.0468937,0.0220827 -0.0702638,0.0301142l-0.000417323 0c-0.0254567,0.00855512 -0.0506575,0.0152244 -0.0757835,0.0196732 -0.0259961,0.00460236 -0.0522992,0.00705906 -0.0791535,0.00705906 -0.0280866,0 -0.0544764,-0.00344094 -0.0793386,-0.0101811l1.5748e-005 -5.51181e-005c-0.0254331,-0.00690945 -0.0489016,-0.0171063 -0.0705945,-0.030437l-0.000417323 -0.000417323c-0.0258583,-0.0162441 -0.0458819,-0.0359252 -0.0604016,-0.0588583 -0.0145,-0.0228976 -0.0230236,-0.0484646 -0.0259252,-0.0765433l-0.000122047 1.5748e-005c-0.00287795,-0.0239567 -0.00615354,-0.0546299 -0.00925197,-0.0836732l-0.00293307 -0.0273622c-0.00268504,-0.012937 -0.0043937,-0.0282913 -0.00512205,-0.046122 -0.000724409,-0.0176654 -0.000496063,-0.0378543 0.000673228,-0.0606693l3.54331e-005 0c0.00038189,-0.0127165 0.000748031,-0.0229213 0.00112992,-0.033622 0.0011811,-0.0330551 0.00254724,-0.0712362 0.00254724,-0.122083l0.000204724 0 -0.00738583 -0.799205 -0.000496063 -0.053752 0.053622 0 0.300303 0 0.0527126 0 0.000413386 0.0529173 0.00638583 0.812213 0.000208661 0.000417323c0,0.0213701 -0.000405512,0.0477795 -0.00100787,0.0757362 -0.000507874,0.0236969 -0.00114173,0.0430906 -0.00175591,0.0593622l0 0.00208268c-0.00120472,0.0154724 -0.00182677,0.0273976 -0.00159843,0.0350472 7.87402e-006,0.00026378 -0.000145669,0.000228346 -0.000397638,1.1811e-005l-0.00127559 3.54331e-005 0.00290945 0.00623228c0.00757874,0.0216732 0.014874,0.0349685 0.0219449,0.0401339 3.54331e-005,2.75591e-005 0.00134646,-0.000598425 0.00410236,-0.0016811l0.000417323 -0.000208661c0.018437,-0.0070748 0.0337717,-0.0192874 0.0438583,-0.0345709 0.00915354,-0.0138661 0.0139094,-0.0305709 0.0125079,-0.0484134l-1.5748e-005 0c-0.00285433,-0.0336693 -0.00285433,-0.0799528 -0.00285433,-0.138969l0 -0.807012 0 -0.0533346 0.0533346 0zm-0.137669 1.03468l0.00146457 0.00314173 0.00127559 -3.54331e-005c-0.00120079,-0.00103543 -0.00458661,-0.00624016 -0.00274016,-0.0031063z"/><path class="fil0" d="M2.11784 5.30008l0 -1.45804 0 -0.0533346 0.0533346 0 0.306193 0 0 -0.120906 -0.862591 0 0 0.114791 0.257012 0 0.0533346 0 0 0.0533346 0 1.46415 0.192717 0zm0.106669 -1.4047l0 1.45804 0 0.0533346 -0.0533346 0 -0.299386 0 -0.0533346 0 0 -0.0533346 0 -1.46415 -0.257012 0 -0.0533346 0 0 -0.0533346 0 -0.221461 0 -0.0533346 0.0533346 0 0.96926 0 0.0533346 0 0 0.0533346 0 0.227575 0 0.0533346 -0.0533346 0 -0.306193 0z"/><path class="fil0" d="M5.64713 3.80678l0 1.43217c0,0.0484567 -0.00523622,0.0952362 -0.0156614,0.140492 -0.0103504,0.0449213 -0.0259843,0.0881457 -0.0468425,0.129811 -0.0204882,0.0409803 -0.0446575,0.0791457 -0.0725,0.114665 -0.0279685,0.0356772 -0.0595354,0.0686772 -0.0946969,0.0991732l-2.3622e-005 -2.75591e-005c-0.0351535,0.0310827 -0.0730591,0.0584724 -0.113787,0.0824488 -0.0405315,0.0238661 -0.083874,0.0443228 -0.130106,0.0616614l-0.000208661 0.000208661c-0.0465472,0.0171693 -0.0950984,0.0304961 -0.145504,0.0394252 -0.0486929,0.00862205 -0.099063,0.0131811 -0.150957,0.0131811l-2.92967 0c-0.050937,0 -0.101244,-0.0047874 -0.150894,-0.0138386 -0.0492441,-0.00898031 -0.0968228,-0.0220709 -0.142811,-0.0387677l-0.000830709 -0.000208661c-0.0452638,-0.017248 -0.0882205,-0.0377087 -0.128736,-0.0616614 -0.0401772,-0.023748 -0.0780079,-0.0511299 -0.113374,-0.0824488l-2.3622e-005 2.75591e-005c-0.0350354,-0.0303898 -0.0665276,-0.0633228 -0.0946457,-0.0989646l-0.000208661 0c-0.0278425,-0.0352992 -0.0522598,-0.0733268 -0.0734094,-0.114248l-0.000208661 -0.000625984c-0.0208583,-0.0416654 -0.0364921,-0.0848898 -0.0468425,-0.129811 -0.0104252,-0.0452559 -0.0156614,-0.0920354 -0.0156614,-0.140492l0 -1.43217c0,-0.0465472 0.00523622,-0.0920197 0.0156614,-0.136752 0.010311,-0.0442362 0.0258071,-0.0875866 0.0464252,-0.130374l0.000417323 -0.00103937c0.0207677,-0.0408583 0.045248,-0.0795276 0.0736181,-0.115843 0.0282874,-0.0362047 0.0599882,-0.0693622 0.0952717,-0.0992717 0.0349961,-0.0296654 0.0727402,-0.0565512 0.113091,-0.0805315 0.0395787,-0.0235236 0.0822913,-0.0444646 0.128,-0.0627165l0.00103937 -0.000417323c0.0463976,-0.0173819 0.0940551,-0.0307953 0.143177,-0.0398583 0.0497874,-0.0091811 0.100472,-0.0139646 0.15222,-0.0139646l2.9284 0c0.0503386,0 0.100449,0.0046811 0.149957,0.0136732 0.0500669,0.00909055 0.0986575,0.0226102 0.145437,0.0401496l0.000830709 0.000208661c0.0456181,0.0179291 0.0890787,0.0390039 0.130102,0.0631024 0.0410787,0.0241299 0.0791181,0.0509567 0.113843,0.0803543 0.0355906,0.0301693 0.0672598,0.0631929 0.0950197,0.0988858 0.0276417,0.0355433 0.0518622,0.0745197 0.0726378,0.116728l0.000165354 -8.26772e-005c0.0212874,0.0427205 0.0368307,0.0863504 0.0471102,0.131205 0.0102874,0.044878 0.015185,0.0902677 0.015185,0.136543zm-0.106669 1.43217l0 -1.43217c0,-0.0390315 -0.00395669,-0.0765512 -0.0122638,-0.112795 -0.00830709,-0.0362559 -0.0211024,-0.0719764 -0.0387795,-0.107457l0 -0.000413386c-0.0170157,-0.0346024 -0.0375315,-0.0674252 -0.0615512,-0.098311 -0.0235709,-0.030311 -0.0501102,-0.0580512 -0.0796024,-0.0830512 -0.0305866,-0.0258898 -0.0636102,-0.0492402 -0.0988425,-0.069937 -0.0355394,-0.020878 -0.0739843,-0.0394449 -0.115102,-0.0556063l3.54331e-005 -9.05512e-005c-0.0408425,-0.0152598 -0.0830433,-0.0269961 -0.126303,-0.0348504 -0.0419488,-0.00761811 -0.0857638,-0.0115866 -0.131209,-0.0115866l-2.9284 0c-0.046437,0 -0.0907087,0.00407087 -0.133055,0.011878 -0.0430118,0.00793307 -0.0847047,0.0196654 -0.125256,0.0348583 -0.0390472,0.0156496 -0.0764094,0.0340945 -0.111961,0.0552205 -0.0352323,0.0209409 -0.0681102,0.0443465 -0.0985079,0.0701142 -0.0300472,0.0254724 -0.056752,0.0533346 -0.0802717,0.083437 -0.0234291,0.0299921 -0.0441772,0.0629724 -0.0623661,0.0987559l-6.29921e-005 -3.14961e-005c-0.0168228,0.0350866 -0.0295197,0.0707598 -0.0380315,0.10728 -0.00848031,0.0363898 -0.0127402,0.0738228 -0.0127402,0.112587l0 1.43217c0,0.0410591 0.00425984,0.0799331 0.0127402,0.116744 0.00850787,0.0369291 0.0211299,0.0720512 0.0378031,0.10548l8.26772e-005 -4.33071e-005c0.0178031,0.0344488 0.0386181,0.0667874 0.0625748,0.0971614l-0.000129921 0.000102362c0.0236693,0.0299882 0.050563,0.0580354 0.0808189,0.0842795l0.000417323 0.000417323c0.0298346,0.0264606 0.0624055,0.0499685 0.097563,0.070752 0.0349843,0.020685 0.0725315,0.0385236 0.112484,0.053748l-3.14961e-005 7.87402e-005c0.0407087,0.0147323 0.0822087,0.026185 0.124508,0.0338976 0.0421614,0.00768504 0.0861693,0.011752 0.132146,0.011752l2.92967 0c0.0458583,0 0.0901024,-0.00398031 0.132626,-0.0115118 0.0441614,-0.00782283 0.0865906,-0.0194567 0.127165,-0.0344252l4.33071e-005 0.000114173c0.0402677,-0.0151181 0.0779803,-0.0329213 0.113193,-0.0536535 0.0349252,-0.0205591 0.0674213,-0.044063 0.0975591,-0.070752l0.000417323 -0.000417323c0.0301693,-0.0261654 0.0570197,-0.0541811 0.0805315,-0.0841732 0.0236378,-0.0301496 0.0440551,-0.0623543 0.061248,-0.0967441 0.0168189,-0.0336024 0.0295354,-0.0689173 0.0380945,-0.106063 0.00848031,-0.036811 0.0127402,-0.075685 0.0127402,-0.116744z"/><g id="_435226984"><path class="fil0" d="M3.36314 2.50413c0,0.0102874 0.00189764,0.0195827 0.00561024,0.0280591 0.00415354,0.00948031 0.010815,0.0188898 0.0198386,0.0283504 0.00775197,0.00814173 0.0161063,0.014185 0.024937,0.0180079 0.00849213,0.00367323 0.0183622,0.00556299 0.0295039,0.00556299 0.0110315,0 0.0209724,-0.00178346 0.0298465,-0.0054252 0.00951181,-0.00390551 0.0187756,-0.010126 0.0278425,-0.0187441 0.00782283,-0.00744094 0.013752,-0.0159252 0.0176732,-0.025122 0.0038937,-0.0091378 0.00589764,-0.0194764 0.00589764,-0.030689l0 -0.707831c0,-0.0135236 -0.00205906,-0.0251378 -0.00606299,-0.0349331 -0.00385039,-0.00941339 -0.0100827,-0.0183504 -0.0185512,-0.0268189 -0.00940157,-0.00940157 -0.018752,-0.0161614 -0.0279921,-0.0202835 -0.00838976,-0.00374016 -0.0175354,-0.00561024 -0.027374,-0.00561024 -0.0103583,0 -0.0198465,0.00188976 -0.028311,0.00566535 -0.00905906,0.00404724 -0.0178189,0.0104409 -0.0261339,0.019185l-0.00187402 0.00187402c-0.00842126,0.00800394 -0.0146457,0.0167913 -0.0186614,0.0264055 -0.00412598,0.00987795 -0.00618898,0.0213622 -0.00618898,0.0345157l0 0.707831zm-0.0918858 0.0705551c-0.0097874,-0.0223386 -0.0147835,-0.0457283 -0.0147835,-0.0705551l0 -0.707831c0,-0.0270906 0.00483465,-0.0521575 0.0145276,-0.0753504 0.00963386,-0.023063 0.0238622,-0.0435906 0.0426929,-0.0617244 0.017689,-0.0183819 0.0374528,-0.032374 0.0589764,-0.0419843 0.0228071,-0.0101772 0.0467953,-0.0152559 0.0716417,-0.0152559 0.0243622,0 0.0479685,0.00505906 0.0707047,0.0152008 0.021748,0.00970079 0.041811,0.0236772 0.0600787,0.0419449 0.0178898,0.0178898 0.0317913,0.0385787 0.0414646,0.0622362 0.00951575,0.0232717 0.0144016,0.0482165 0.0144016,0.0749331l0 0.707831c0,0.0252717 -0.00497244,0.0496457 -0.0146535,0.0723583 -0.00960236,0.0225118 -0.0237717,0.0429409 -0.0422559,0.0605315 -0.0186654,0.0177441 -0.0388858,0.0310157 -0.0607559,0.0399961 -0.0225118,0.00924409 -0.0458898,0.0137638 -0.0702638,0.0137638 -0.0251181,0 -0.0490787,-0.00499606 -0.0715906,-0.0147362 -0.0224213,-0.00970472 -0.0424882,-0.0238504 -0.0599291,-0.0421732 -0.0174331,-0.0182795 -0.0309134,-0.0378583 -0.0402559,-0.059185z" id="_435228088"/><path class="fil0" d="M2.3197 1.84896l-0.396134 -0.866882 -0.0344606 -0.0754173 0.0827953 0 0.349575 0 0.0395669 0 0.0114724 0.0379173 0.147878 0.488598 0.148831 -0.488598 0.0115512 -0.0379173 0.0392835 0 0.348303 0 0.0807323 0 -0.0317756 0.0741693 -0.371665 0.867602 0 1.01148 0 0.0533346 -0.0533346 0 -0.319283 0 -0.0533346 0 0 -0.0533346 0 -1.01095zm-0.265 -0.83563l0.366669 0.802406 0.005 0.0220827 0 0.96876 0.212614 0 0 -0.96876 0.00437795 -0.0208346 0.344272 -0.803654 -0.228291 0 -0.188378 0.618441 -0.101874 0 -0.187177 -0.618441 -0.227213 0z" id="_435227896"/><path class="fil0" d="M2.98856 1.97233c0,-0.0608465 0.00293307,-0.117193 0.00865748,-0.168902 0.00580315,-0.0524291 0.0146181,-0.0998031 0.0262795,-0.142008l0.000622047 -0.00229134c0.015,-0.045622 0.0349567,-0.0852992 0.059815,-0.11898 0.0249921,-0.0338504 0.0547795,-0.061311 0.0893071,-0.0823386 0.034122,-0.0250197 0.0723858,-0.0436969 0.115157,-0.0561535 0.0426575,-0.0124252 0.0890276,-0.0185709 0.139484,-0.0185709 0.0428307,0 0.0826063,0.0037126 0.119465,0.0108543 0.0379606,0.00735433 0.0725157,0.0183622 0.103854,0.0327126 0.0320236,0.0127638 0.0614724,0.030685 0.087937,0.0533661 0.025752,0.0220669 0.048689,0.0488425 0.0684094,0.0799488l9.44882e-005 -6.69291e-005c0.015252,0.0222283 0.0284843,0.0461378 0.039626,0.0714528 0.011122,0.0252835 0.020248,0.0521181 0.0273031,0.0802244l0.000208661 0.00104331c0.00693701,0.0300236 0.0121181,0.064437 0.0154724,0.103146 0.00329134,0.0379606 0.0049685,0.0805354 0.0049685,0.127638l0 0.341823c0,0.062563 -0.00167717,0.117071 -0.0049685,0.163524 -0.00325591,0.0460512 -0.00822835,0.0838622 -0.0148307,0.113437 -0.00331496,0.0286299 -0.0108858,0.0584055 -0.0229409,0.0894409 -0.0120866,0.0311181 -0.0286457,0.0634764 -0.0499134,0.0971929l-0.00187402 0.00270472c-0.0220472,0.030622 -0.0452598,0.0559843 -0.069437,0.0762953 -0.0253701,0.021311 -0.0522087,0.0374173 -0.0802874,0.0485354 -0.0308976,0.0145748 -0.0633622,0.0253425 -0.0974567,0.032437 -0.0350197,0.00728346 -0.0713858,0.0108465 -0.109205,0.0108465 -0.0379724,0 -0.0749882,-0.00275591 -0.111134,-0.00867323 -0.0355551,-0.00582283 -0.0696732,-0.0147874 -0.102362,-0.0272835 -0.0326654,-0.0106024 -0.0618504,-0.0257638 -0.0869724,-0.045374 -0.0244173,-0.0190669 -0.0447717,-0.0423031 -0.0605315,-0.069626 -0.015122,-0.020563 -0.0286181,-0.044248 -0.0405315,-0.071122 -0.0116417,-0.0262559 -0.0222244,-0.0567756 -0.0317795,-0.0915984l-0.000834646 -0.00291339c-0.00698819,-0.0326732 -0.0125591,-0.0731811 -0.0162559,-0.121862 -0.00344882,-0.045374 -0.00534646,-0.0976378 -0.00534646,-0.156996l0 -0.351862zm0.114492 -0.157232c-0.00516929,0.0467244 -0.00782283,0.0991575 -0.00782283,0.157232l0 0.351862c0,0.0577008 0.00175197,0.107248 0.00492913,0.149083 0.00333858,0.0439882 0.00818898,0.0797283 0.0141693,0.107689l-2.75591e-005 3.93701e-006c0.00758268,0.0271535 0.0162244,0.0517047 0.0259724,0.0736811 0.00935433,0.0210984 0.0192835,0.0386496 0.0298071,0.0526732l0.00395669 0.00624803c0.00883071,0.0159567 0.0206929,0.0296457 0.0352205,0.0409921 0.0153307,0.0119685 0.0338976,0.0214134 0.0552913,0.0282677l0.00291732 0.00104331c0.0260157,0.0100591 0.0536299,0.0173189 0.0827953,0.0220945 0.029189,0.00477953 0.0605748,0.00700394 0.0940472,0.00700394 0.0314331,0 0.0606024,-0.00274016 0.0875354,-0.00834252 0.0269961,-0.00561417 0.052185,-0.0139803 0.0756063,-0.0252047l0.00375197 -0.00166535c0.0173268,-0.00674803 0.0346024,-0.0172244 0.0517244,-0.0316063 0.0173425,-0.0145709 0.034122,-0.032815 0.0502008,-0.0548898 0.0174213,-0.0277205 0.030752,-0.0536693 0.040189,-0.0779646 0.00905906,-0.0233268 0.0145591,-0.0451457 0.0166732,-0.0655787l0.00104331 -0.00645669c0.00562992,-0.024374 0.00997638,-0.0576969 0.0129685,-0.100008 0.00301181,-0.0425472 0.00455118,-0.0945354 0.00455118,-0.156028l0 -0.341823c0,-0.044189 -0.00153937,-0.0837008 -0.00455118,-0.118472 -0.00296063,-0.0342087 -0.00722441,-0.0634055 -0.0127283,-0.0875276l-3.14961e-005 7.87402e-006c-0.00557087,-0.0222008 -0.012748,-0.0433189 -0.0214685,-0.0631457 -0.00860236,-0.0195512 -0.0186378,-0.0377441 -0.0300433,-0.0543661l-0.00104331 -0.00187402c-0.0139094,-0.0221969 -0.0302441,-0.0413504 -0.0487126,-0.0571732 -0.0177559,-0.0152205 -0.0375197,-0.027185 -0.0589803,-0.0356142l-0.00291732 -0.00124803c-0.0240197,-0.0111142 -0.050874,-0.019685 -0.0807283,-0.0254685 -0.0297756,-0.00576772 -0.0628661,-0.00876772 -0.0994646,-0.00876772 -0.041248,0 -0.0777913,0.00462598 -0.109902,0.0139803 -0.0311457,0.00907087 -0.058874,0.0227047 -0.0834528,0.041l-0.00437402 0.00291732c-0.0233386,0.0139331 -0.043622,0.0325551 -0.0608031,0.0558268 -0.0178504,0.024185 -0.0325276,0.0537244 -0.0439803,0.088563l-7.87402e-006 -3.93701e-006c-0.00970866,0.0356969 -0.017185,0.0767402 -0.022311,0.123059z" id="_435227848"/><path class="fil0" d="M4.80143 1.48975l-0.194 0 0 0.845374c0,0.0638504 3.93701e-006,0.113921 0.00243701,0.145929l0 0.000208661c0.00326378,0.0447638 -0.00760236,0.0870118 -0.0285354,0.122327 -0.0218701,0.0369055 -0.0548307,0.066248 -0.0942756,0.0831102l-1.1811e-005 -2.75591e-005c-0.040248,0.0174921 -0.0765984,0.013374 -0.109295,-0.0132323 -0.0237362,-0.0193307 -0.0427362,-0.0510394 -0.0571063,-0.0956339 -0.00459449,-0.0113504 -0.00687008,-0.0252953 -0.00733071,-0.0420157l0 -0.000208661c-0.000385827,-0.0142283 0.000267717,-0.0307126 0.00159843,-0.0498465l6.29921e-005 3.93701e-006c0.000641732,-0.0189252 0.00126378,-0.0400315 0.00169291,-0.0624843 0.000354331,-0.0182441 0.000590551,-0.044311 0.000590551,-0.0823386l0.000208661 0 -0.00601181 -0.851165 -0.19398 0 0.00694488 0.836724 0.000208661 0.000417323c0,0.0473937 -0.00159055,0.0968622 -0.00296457,0.139705 -0.000464567,0.014563 -0.000909449,0.0283228 -0.00116535,0.0379567l0 0.00104331c-0.00103543,0.0225906 -0.00126378,0.0419173 -0.000673228,0.0580591 0.00053937,0.0147126 0.00172441,0.0264961 0.00355118,0.0354134l0.000834646 0.00562598c0.0010748,0.0109961 0.00215748,0.022248 0.00325197,0.0337283 0.00255512,0.0266732 0.00523228,0.0546457 0.00925197,0.0918583l0.000208661 0.00104331c0.00130709,0.0149449 0.00500787,0.0279764 0.011252,0.0389606 0.00625984,0.0110079 0.0153543,0.0208189 0.0274331,0.0293583l5.51181e-005 -8.26772e-005c0.0129961,0.0088937 0.0269055,0.0156457 0.0418268,0.0201496 0.015248,0.00460236 0.0319291,0.00695276 0.0501732,0.00695276 0.0204528,0 0.0403071,-0.00205118 0.0597795,-0.00588976 0.0203858,-0.00401969 0.0400906,-0.00975591 0.059378,-0.0169567l-5.11811e-005 -0.000133858c0.0196063,-0.0075 0.0383465,-0.0163976 0.0560945,-0.0265079 0.0187165,-0.0106575 0.0365787,-0.0226575 0.0534331,-0.0357874 0.0154803,-0.012063 0.0289882,-0.0249882 0.0405079,-0.0383661 0.0114764,-0.0133307 0.0208622,-0.0271378 0.0281535,-0.0409882l0.100209 0.0252087 -0.00143701 0.13463 0.137701 -0.00255906 0 -1.32956zm-0.247335 -0.106669l0.300669 0 0.0533346 0 0 0.0533346 0 1.43505 0 0.0521535 -0.0525 0.000972441 -0.244744 0.00454724 -0.0545433 0.00101575 0.000582677 -0.0545591 0.000503937 -0.047126c-0.0199094,0.0152165 -0.0406496,0.0290236 -0.0620394,0.0412047 -0.0230472,0.0131299 -0.0466772,0.0244134 -0.0706772,0.0335945l-0.000413386 0c-0.0256693,0.0096063 -0.0510748,0.0170945 -0.0764094,0.0220906 -0.026374,0.00519685 -0.0530157,0.00797638 -0.0801969,0.00797638 -0.0284685,0 -0.0552756,-0.00390551 -0.0805906,-0.0115433 -0.025626,-0.00773622 -0.0493701,-0.0192283 -0.0714094,-0.034315l-0.000417323 -0.000417323c-0.0257283,-0.018 -0.0454724,-0.0394882 -0.0595669,-0.0642756 -0.0141811,-0.0249488 -0.0223976,-0.0524291 -0.0250079,-0.0822913l9.44882e-005 -7.87402e-006c-0.00290551,-0.0270315 -0.0061063,-0.0604252 -0.0091378,-0.0920591l-0.00298031 -0.0309409c-0.00267717,-0.0140669 -0.00436614,-0.0307283 -0.0050748,-0.0500787 -0.000704724,-0.0192362 -0.000476378,-0.0413346 0.000673228,-0.0663898l2.75591e-005 0c0.000377953,-0.0140591 0.000748031,-0.025626 0.0011378,-0.037748 0.0011811,-0.036811 0.00254724,-0.0793228 0.00254724,-0.136374l0.000204724 0 -0.00738583 -0.890059 -0.000448819 -0.053752 0.0535748 0 0.300303 0 0.052748 0 0.000377953 0.053126 0.00638583 0.9045 0.000208661 0.000208661c0,0.0235551 -0.000405512,0.052874 -0.00100787,0.0840079 -0.000503937,0.0261811 -0.0011378,0.0478307 -0.00175591,0.0660197l0 0.00187795c-0.00120866,0.017315 -0.00183858,0.0308937 -0.00160236,0.0400551l3.93701e-006 0 0 0.000208661c-4.72441e-005,0.00309055 -0.00327953,-0.00131496 -0.00188976,0.00131496l0.00375197 0.00895669c0.00806693,0.0256693 0.0158425,0.0414291 0.0234016,0.0475866 0.00100787,0.000818898 -0.000948819,-0.00147244 0.000145669,-0.00194882l0.000413386 -0.000208661c0.0183504,-0.00784252 0.0338386,-0.021748 0.0442756,-0.0393622 0.0102362,-0.0172677 0.0155512,-0.0381339 0.0139685,-0.0604567l-1.5748e-005 0c-0.00285039,-0.0374921 -0.00285433,-0.0886299 -0.00285433,-0.153843l0 -0.898709 0 -0.0533346 0.0533346 0z" id="_435227056"/></g></g><rect class="fil1" height="6.82666" width="6.82666"/></svg>