<?xml version="1.0" ?><!DOCTYPE svg  PUBLIC '-//W3C//DTD SVG 1.1//EN'  'http://www.w3.org/Graphics/SVG/1.1/DTD/svg11.dtd'><svg height="6.82666in" style="shape-rendering:geometricPrecision; text-rendering:geometricPrecision; image-rendering:optimizeQuality; fill-rule:evenodd; clip-rule:evenodd" viewBox="0 0 6.82666 6.82666" width="6.82666in" xml:space="preserve" xmlns="http://www.w3.org/2000/svg" xmlns:xlink="http://www.w3.org/1999/xlink"><defs><style type="text/css">
   <![CDATA[
    .fil1 {fill:none}
    .fil0 {fill:#212121;fill-rule:nonzero}
   ]]>
  </style></defs><g id="Layer_x0020_1"><path class="fil0" d="M2.74498 3.41333c0,0.0061811 -0.000425197,0.012311 -0.00105512,0.0184291l1.69391 0.846917c0.0750866,-0.0589764 0.159311,-0.107055 0.250504,-0.141035 0.0976063,-0.0363661 0.202634,-0.0565 0.312374,-0.0565 0.253882,0 0.483705,0.102878 0.650055,0.269228 0.16635,0.16635 0.269228,0.396173 0.269228,0.650055 0,0.253862 -0.10287,0.483681 -0.269197,0.650067 -0.16648,0.166531 -0.396327,0.269504 -0.650087,0.269504 -0.253858,0 -0.483594,-0.102933 -0.649965,-0.269402 -0.166291,-0.166398 -0.269067,-0.396252 -0.269067,-0.650169 0,-0.00633858 0.00042126,-0.0125433 0.00104724,-0.0186811l-1.69398 -0.846693c-0.075315,0.0587874 -0.159657,0.106791 -0.250992,0.140732 -0.0974409,0.0362047 -0.202217,0.0562913 -0.311803,0.0562913 -0.253744,0 -0.483516,-0.102803 -0.64987,-0.269059 -0.166465,-0.166358 -0.269413,-0.396047 -0.269413,-0.649685 0,-0.25387 0.10287,-0.483685 0.269197,-0.650067 0.16648,-0.166535 0.396327,-0.269508 0.650087,-0.269508 0.109563,0 0.214362,0.0201417 0.311787,0.0563976 0.0911102,0.0339055 0.175445,0.0820157 0.250874,0.140984l1.69414 -0.846776c-0.000637795,-0.00625984 -0.00107087,-0.0125669 -0.00107087,-0.0189567 0,-0.253555 0.10289,-0.483323 0.26937,-0.649744 0.166236,-0.166181 0.395862,-0.268996 0.649661,-0.268996 0.253709,0 0.483441,0.102858 0.649787,0.269102 0.166508,0.166406 0.269496,0.39613 0.269496,0.649638 0,0.25389 -0.102862,0.483701 -0.269185,0.650075 -0.16648,0.166535 -0.396331,0.2695 -0.650098,0.2695 -0.109921,0 -0.214929,-0.0201732 -0.312417,-0.0565433 -0.0912835,-0.0340551 -0.175472,-0.0822205 -0.250488,-0.141244l-1.69389 0.84724c0.000637795,0.00623622 0.00106693,0.0125197 0.00106693,0.0188976zm-0.108535 0.0214685c0.000933071,-0.00701181 0.00186614,-0.0139921 0.00186614,-0.0214685 0,-0.00787008 -0.000948819,-0.0150079 -0.0018937,-0.022126 -0.00108661,-0.00816535 -0.00217323,-0.0163268 -0.00266929,-0.0244921l-0.00212205 -0.0348661 0.0315 -0.0157598 1.75802 -0.879315 0.0314528 -0.0157323 0.0266693 0.0226063c0.0727874,0.0617008 0.155717,0.111484 0.246118,0.145209 0.0852677,0.031811 0.177776,0.0494567 0.275331,0.0494567 0.224594,0 0.427764,-0.0908661 0.574681,-0.237831 0.147016,-0.147059 0.237933,-0.350346 0.237933,-0.575075 0,-0.224335 -0.0908858,-0.42737 -0.237827,-0.57422 -0.147031,-0.146937 -0.350236,-0.23785 -0.574787,-0.23785 -0.224638,0 -0.42774,0.0908701 -0.574661,0.237744 -0.146906,0.146854 -0.237701,0.349937 -0.237701,0.574327 0,0.00788976 0.000952756,0.0150512 0.00189764,0.0221929 0.00108268,0.00817323 0.00216929,0.0163543 0.00266535,0.0245l0.00212598 0.0348819 -0.0315039 0.0157441 -1.75802 0.878701 -0.0311969 0.0155945 -0.0267165 -0.0224685c-0.0729488,-0.0613543 -0.156157,-0.111028 -0.246957,-0.144815 -0.085185,-0.0317008 -0.177476,-0.049311 -0.274701,-0.049311 -0.224587,0 -0.427752,0.090874 -0.574669,0.237839 -0.14702,0.147067 -0.237945,0.350354 -0.237945,0.575067 0,0.224457 0.0908504,0.427465 0.237744,0.574268 0.147031,0.146941 0.350276,0.237807 0.57487,0.237807 0.0972717,0 0.189547,-0.0175591 0.274717,-0.0492047 0.0904528,-0.0336102 0.173642,-0.0832795 0.246941,-0.144839l0.0265827 -0.0223268 0.0313307 0.0156614 1.75802 0.878697 0.0315079 0.015748 -0.00212992 0.034878c-0.0005,0.00823622 -0.00159055,0.016378 -0.00267717,0.0245079 -0.000940945,0.00703937 -0.00188583,0.0140827 -0.00188583,0.0218976 0,0.224768 0.0908386,0.428098 0.237815,0.575169 0.146811,0.146902 0.34987,0.237732 0.574547,0.237732 0.224591,0 0.427756,-0.090874 0.574669,-0.237835 0.14702,-0.147071 0.237945,-0.350362 0.237945,-0.575067 0,-0.224437 -0.0909409,-0.427602 -0.237976,-0.574638 -0.147035,-0.147035 -0.350201,-0.237976 -0.574638,-0.237976 -0.0974055,0 -0.189929,0.0176102 -0.275287,0.0494134 -0.0903465,0.0336654 -0.173327,0.0833425 -0.246161,0.14498l-0.0266929 0.0225866 -0.0314291 -0.0157126 -1.75802 -0.878969 -0.0315 -0.015752 0.00212205 -0.034874c0.0005,-0.00825591 0.0016063,-0.0164961 0.00269685,-0.024685z"/></g><rect class="fil1" height="6.82666" width="6.82666"/></svg>