<?xml version="1.0" ?><!DOCTYPE svg  PUBLIC '-//W3C//DTD SVG 1.1//EN'  'http://www.w3.org/Graphics/SVG/1.1/DTD/svg11.dtd'><svg height="6.82666in" style="shape-rendering:geometricPrecision; text-rendering:geometricPrecision; image-rendering:optimizeQuality; fill-rule:evenodd; clip-rule:evenodd" viewBox="0 0 6.82666 6.82666" width="6.82666in" xml:space="preserve" xmlns="http://www.w3.org/2000/svg" xmlns:xlink="http://www.w3.org/1999/xlink"><defs><style type="text/css">
   <![CDATA[
    .fil1 {fill:none}
    .fil0 {fill:#212121;fill-rule:nonzero}
   ]]>
  </style></defs><g id="Layer_x0020_1"><g id="_267508904"><path class="fil0" d="M1.01409 3.41634c-0.00643307,0.312547 0.0979213,0.618315 0.277961,0.87078 0.181047,0.253886 0.438398,0.453429 0.736331,0.551315l0.000417323 0.000208661c0.289122,0.0971063 0.612555,0.106768 0.909417,0.0276181 0.278031,-0.0741339 0.532339,-0.226445 0.712256,-0.458024l0.000834646 -0.000830709c0.124594,-0.153858 0.204988,-0.331984 0.252677,-0.520386 0.0523976,-0.206992 0.0653701,-0.426417 0.054063,-0.640055 -0.420748,-0.00345669 -0.841374,-0.00278346 -1.26153,-0.00211024l-0.126272 0.000192913c-0.000370079,0.142031 0.000125984,0.283768 0.000712598,0.425866 0.147429,0.00340945 0.294087,0.00420472 0.440736,0.00499606 0.133815,0.000720472 0.267642,0.00144882 0.400567,0.00409055l0.0694134 0.00137795 -0.0194173 0.0665394c-0.0415984,0.142535 -0.111291,0.280004 -0.207929,0.392697 -0.0881063,0.102748 -0.198421,0.185091 -0.330118,0.232512 -0.0342953,0.015 -0.0692598,0.0277835 -0.104693,0.0384055 -0.237358,0.0711732 -0.493909,0.0443543 -0.715921,-0.0568819 -0.222098,-0.101276 -0.410055,-0.277252 -0.510138,-0.504339 -0.0148504,-0.0337047 -0.0277953,-0.0686024 -0.0386378,-0.104591 -0.00893701,-0.0238346 -0.0166929,-0.0473543 -0.0232835,-0.0705 -0.0700945,-0.246185 -0.0335748,-0.50911 0.0799252,-0.732736 0.113496,-0.223614 0.304252,-0.408508 0.542602,-0.49863 0.0245039,-0.00926772 0.0489488,-0.0173976 0.0732598,-0.0243189l7.87402e-006 2.75591e-005c0.169394,-0.0588898 0.340516,-0.0551299 0.505102,-0.0147638 0.14902,0.0365472 0.292303,0.103154 0.423657,0.179992 0.0573268,-0.0546772 0.114193,-0.111921 0.170724,-0.170768 0.0515,-0.0536102 0.102969,-0.108976 0.15439,-0.165138 -0.145028,-0.11385 -0.30815,-0.20524 -0.481583,-0.264752 -0.177402,-0.0608701 -0.365583,-0.0882677 -0.556098,-0.0720354l-0.00374803 0c-0.0102323,0.000122047 -0.0212756,0.000413386 -0.0330709,0.000858268 -0.374803,0.0142244 -0.725283,0.193358 -0.981236,0.462992 -0.255937,0.269622 -0.416748,0.629189 -0.412236,1.0043 0.000122047,0.010248 0.000409449,0.0212992 0.000858268,0.0331732l0 0.00291732zm0.191291 0.932449c-0.192354,-0.269732 -0.303984,-0.597051 -0.297575,-0.932449 -0.000405512,-0.0108583 -0.000681102,-0.0224921 -0.000826772,-0.0348386 -0.0048622,-0.403965 0.167335,-0.79015 0.441409,-1.07888 0.274071,-0.28872 0.65065,-0.480583 1.05457,-0.495913 0.00993307,-0.000374016 0.0205433,-0.000645669 0.0318228,-0.000807087l-3.93701e-006 -5.11811e-005c0.205673,-0.0175276 0.408496,0.0119409 0.599429,0.0774528 0.203303,0.0697598 0.393165,0.180524 0.558539,0.318941l0.0425512 0.0356181 -0.0373425 0.0410512c-0.0632165,0.0694961 -0.127472,0.139118 -0.194469,0.208862 -0.0651299,0.0677953 -0.132614,0.135213 -0.20389,0.201909l-0.0294173 0.0275315 -0.0343307 -0.0208622c-0.132484,-0.0805118 -0.278091,-0.151354 -0.428413,-0.18822 -0.147051,-0.0360669 -0.299075,-0.039563 -0.448028,0.0128622l-0.00291732 0.00103937c-0.0226102,0.00643701 -0.0442598,0.0135906 -0.0649291,0.0214055 -0.212598,0.0803858 -0.383177,0.24615 -0.485098,0.446961 -0.101917,0.200807 -0.134929,0.436138 -0.0724291,0.655657 0.00633858,0.0222598 0.0134331,0.0438228 0.0212874,0.0646024l0.00124803 0.00353937c0.00958268,0.0319646 0.0211063,0.063063 0.0343858,0.0932008 0.0892402,0.202484 0.257575,0.359736 0.456807,0.450583 0.199307,0.0908819 0.429161,0.115094 0.641339,0.0514724 0.0319055,-0.00956299 0.0634764,-0.0211575 0.0945236,-0.0348425l0.00353937 -0.00146063c0.113945,-0.0407992 0.209657,-0.112287 0.286331,-0.201701 0.0715,-0.0833858 0.126634,-0.182209 0.164791,-0.286453 -0.109327,-0.00165748 -0.218173,-0.00224803 -0.327008,-0.00283465 -0.165252,-0.000893701 -0.330516,-0.00179134 -0.494685,-0.00629528l-0.0514724 -0.00141339 -0.00019685 -0.0517126 -3.93701e-006 -0.000838583c-0.000748031,-0.176894 -0.00149213,-0.353106 -0.000744094,-0.530106l0.000224409 -0.0528346 0.0529016 -8.26772e-005 0.179217 -0.000275591c0.437047,-0.000704724 0.874602,-0.00140945 1.31205,0.00253543l0.049252 0.000444882 0.00345669 0.0491378c0.0168071,0.239028 0.00543701,0.4875 -0.0539567,0.722134 -0.0511457,0.202067 -0.137898,0.39385 -0.27278,0.56072l0.000102362 7.87402e-005c-0.194866,0.250819 -0.469504,0.415571 -0.769335,0.49552 -0.316323,0.0843386 -0.661213,0.0739961 -0.969815,-0.0295512l-1.9685e-005 6.29921e-005c-0.320094,-0.105169 -0.596213,-0.319028 -0.790087,-0.590898z" id="_267509072"/><path class="fil0" d="M4.92229 2.77531l0.000295276 -0.0302598 0.053126 0.000417323 0 -0.0533346 0.442898 0 0.0528543 0 0.000271654 0.053126c0.000374016,0.0748583 0.000940945,0.149917 0.00149213,0.224976 0.000413386,0.0559134 0.000830709,0.111831 0.00117323,0.167685 0.126811,0.00110236 0.25376,0.00176378 0.380142,0.00241339l0.0123189 6.29921e-005 0.0529134 0.000271654 3.93701e-006 0.0528543 3.93701e-006 0.148028 -3.93701e-006 0.295559 -3.93701e-006 0.0528543 -0.0529134 0.000271654 -0.392665 0.00199213c-0.00111024,0.123685 -0.00172835,0.246744 -0.00234646,0.37022l-0.000114173 0.0229724 -0.000267717 0.053185 -0.0530669 -0.000267717c-0.0987717,-0.000496063 -0.1975,-0.000326772 -0.295996,-0.000165354 -0.111303,0.000185039 -0.072185,0.000374016 -0.147441,0.000374016l-0.0526142 0 -0.000511811 -0.0529173c-0.000704724,-0.0725157 -0.00107087,-0.145323 -0.00143307,-0.21802 -0.000287402,-0.0582717 -0.00057874,-0.116492 -0.00105118,-0.174866 -0.0568189,-0.000511811 -0.113524,-0.000929134 -0.170106,-0.00128346 -0.0742441,-0.000468504 -0.148504,-0.000854331 -0.222547,-0.00122441l-0.053126 -0.000271654 0 -0.0528543 0 -0.443587 0 -0.0528268 0.053126 -0.000299213 0.00281102 -1.5748e-005c0.129587,-0.000661417 0.259236,-0.00133465 0.389661,-0.00246457 0.000748031,-0.121024 0.00193701,-0.242043 0.00311811,-0.362606zm0.106031 0.0234921c-0.00127953,0.130705 -0.00253937,0.261858 -0.00319291,0.391972l-0.000267717 0.0524134 -0.0524409 0.000503937c-0.130862,0.00125984 -0.261555,0.00200394 -0.392177,0.0026811l0 0.337878c0.0564134,0.000291339 0.112921,0.000598425 0.169421,0.000956693 0.0745866,0.000468504 0.148969,0.00103937 0.222756,0.00177953l0.0521732 0.000523622 0.000535433 0.052185c0.000767717,0.0755157 0.00114961,0.151461 0.00152756,0.227496 0.000271654,0.0547638 0.000551181,0.109594 0.000976378,0.164689 0.112303,7.87402e-006 0.0834016,5.51181e-005 0.0947717,3.93701e-005 0.081,-0.000133858 0.162161,-0.000275591 0.243343,-4.33071e-005 0.000665354,-0.131205 0.00137008,-0.26198 0.00269685,-0.392929l0.000531496 -0.0524449 0.0523858 -0.00026378 0.392165 -0.00198819 3.93701e-006 -0.242701 -3.93701e-006 -0.0951732c-0.130823,-0.000681102 -0.262102,-0.00141339 -0.392374,-0.00268504l-0.0524409 -0.000511811 -0.000267717 -0.0524055c-0.000374016,-0.0732677 -0.000925197,-0.146705 -0.0014685,-0.220122 -0.00042126,-0.057315 -0.000850394,-0.114626 -0.00119685,-0.17185l-0.337457 0z" id="_267508976"/></g></g><rect class="fil1" height="6.82666" width="6.82666"/></svg>