<?xml version="1.0" ?><!DOCTYPE svg  PUBLIC '-//W3C//DTD SVG 1.1//EN'  'http://www.w3.org/Graphics/SVG/1.1/DTD/svg11.dtd'><svg height="6.82666in" style="shape-rendering:geometricPrecision; text-rendering:geometricPrecision; image-rendering:optimizeQuality; fill-rule:evenodd; clip-rule:evenodd" viewBox="0 0 6.82666 6.82666" width="6.82666in" xml:space="preserve" xmlns="http://www.w3.org/2000/svg" xmlns:xlink="http://www.w3.org/1999/xlink"><defs><style type="text/css">
   <![CDATA[
    .fil1 {fill:none}
    .fil0 {fill:#212121;fill-rule:nonzero}
   ]]>
  </style></defs><g id="Layer_x0020_1"><g id="_435229696"><path class="fil0" d="M4.91373 2.58661c0.0477047,0.0836575 0.0996417,0.179465 0.140114,0.294547 0.0408189,0.116063 0.0694528,0.250244 0.0694528,0.408406 0,0.108937 -0.0161457,0.231535 -0.048311,0.367835 -0.0314803,0.133386 -0.0785984,0.280547 -0.141232,0.441543l-0.244295 0.816323 -0.101457 0.00166535 -0.886732 -2.63678 -0.0222559 -0.0661693 0.0697559 -0.00383071c0.142768,-0.00783858 0.271992,-0.0228189 0.277555,-0.0234646l-3.93701e-006 -2.3622e-005c0.023063,-0.00270866 0.0366772,-0.0153937 0.0417402,-0.0304803 0.00229528,-0.00684252 0.00309055,-0.0145315 0.00243307,-0.0223819 -0.000633858,-0.00761811 -0.0026811,-0.0149016 -0.00606693,-0.0212008 -0.00711811,-0.0132402 -0.0217008,-0.0228701 -0.0434724,-0.0221378l3.93701e-006 5.90551e-005c-0.00115354,9.05512e-005 -0.40015,0.0316693 -0.658134,0.0316693 -0.242362,0 -0.648921,-0.0315787 -0.650094,-0.0316693l3.93701e-006 -5.11811e-005c-0.0223898,-0.000771654 -0.0373543,0.0106417 -0.0443622,0.0256969 -0.00322835,0.00693701 -0.00509843,0.0143937 -0.00554724,0.0217717 -0.000468504,0.00766929 0.000374016,0.0151181 0.00257874,0.0217244 0.00471654,0.0141417 0.0173425,0.0255906 0.038689,0.0267913l0.00333071 0.000208661c0.000358268,3.93701e-005 0.12513,0.0155512 0.254449,0.0234882l0.0348898 0.00214173 0.0119843 0.0328583 0.381929 1.04706 0.000417323 0.0347913 -0.53685 1.61018 -0.100835 0.000208661 -0.893602 -2.65724 -0.022252 -0.0661693 0.069752 -0.00383071c0.142783,-0.00783858 0.27222,-0.0228189 0.277791,-0.0234646l-3.93701e-006 -2.3622e-005c0.0231142,-0.00270472 0.0367244,-0.0153465 0.0417717,-0.0303858 0.00229134,-0.00682677 0.00307874,-0.0145118 0.00242126,-0.0223622 -0.000637795,-0.00761417 -0.00268504,-0.0149016 -0.00607087,-0.0212047 -0.00714567,-0.0132913 -0.0217559,-0.0229882 -0.0435118,-0.022252l3.93701e-006 6.29921e-005c-0.00114961,9.05512e-005 -0.399846,0.0316693 -0.658343,0.0316693 -0.0331654,0 -0.0839764,-0.00125591 -0.138315,-0.00259449l-0.0204449 -0.0005 -0.0957913 -0.00234252 0.0526654 -0.0799488c0.228394,-0.346701 0.540236,-0.633457 0.906862,-0.831323 0.35348,-0.190772 0.757803,-0.299102 1.18729,-0.299102l0 0.000208661c0.320118,-7.87402e-006 0.626102,0.0600787 0.907315,0.169469 0.292299,0.113701 0.557988,0.280717 0.785146,0.488913l-0.038752 0.0922913c-0.00788583,-0.000440945 -0.0104724,-0.00065748 -0.0128898,-0.000862205 -0.0053937,-0.000452756 -0.0108268,-0.000917323 -0.0156535,-0.000917323 -0.101465,0 -0.188547,0.0427402 -0.251362,0.109063 -0.0676575,0.071437 -0.1075,0.170181 -0.1075,0.27285 0,0.172169 0.0955866,0.32628 0.204406,0.501728 0.00937008,0.0151102 0.0188465,0.0303819 0.0283543,0.0458228l0.00103937 0.00166929zm0.0396969 0.329547c-0.0374843,-0.106591 -0.0867953,-0.197441 -0.132193,-0.277051l7.87402e-006 -3.93701e-006c-0.00916142,-0.0148701 -0.0182913,-0.0295866 -0.0273228,-0.0441496 -0.117472,-0.189402 -0.220657,-0.355764 -0.220657,-0.557563 0,-0.129791 0.050811,-0.255075 0.137091,-0.346181 0.0604843,-0.0638661 0.138252,-0.110976 0.228114,-0.131311 -0.195087,-0.160756 -0.416091,-0.291417 -0.655854,-0.384681 -0.269457,-0.104819 -0.56252,-0.162386 -0.868984,-0.162382l0 0.000208661c-0.411524,0 -0.798657,0.10365 -1.13687,0.286181 -0.32263,0.174122 -0.600846,0.419882 -0.813398,0.715807 0.0188425,0.000299213 0.0379803,0.000484252 0.0580039,0.000484252 0.255437,0 0.648878,-0.0311654 0.650012,-0.031252l0.00145669 0c0.0697756,-0.0037874 0.118661,0.0306417 0.14413,0.0780236 0.0105,0.0195394 0.016752,0.0411142 0.0185748,0.062874 0.00181102,0.0215197 -0.000751969,0.043752 -0.00783858,0.0648583 -0.0172677,0.0514409 -0.0601457,0.0942283 -0.13052,0.102472l-0.000208661 0c-0.000322835,3.54331e-005 -0.0947717,0.0111063 -0.214264,0.0195276l0.820937 2.44115 0.480752 -1.44193 -0.363728 -0.997157c-0.12124,-0.00858268 -0.225413,-0.0215551 -0.22574,-0.0215906l0 -3.93701e-006c-0.070189,-0.00516535 -0.113035,-0.0471614 -0.130358,-0.0990827 -0.00664173,-0.0199094 -0.00926378,-0.0410315 -0.00799606,-0.0617244 0.00128346,-0.0209843 0.00637402,-0.0417165 0.0151299,-0.0605197 0.0240945,-0.0517717 0.0741732,-0.0908819 0.147693,-0.0868976l0.00124803 0c0.00115748,8.66142e-005 0.40235,0.031252 0.642181,0.031252 0.254929,0 0.648665,-0.0311654 0.649803,-0.031252l0.00145669 0c0.0698071,-0.00378346 0.118642,0.0305945 0.144091,0.0779134 0.0105039,0.0195276 0.016752,0.0411063 0.0185709,0.0628701 0.00180315,0.0215276 -0.000767717,0.0437717 -0.00785039,0.064878 -0.0172756,0.0514685 -0.0601654,0.094311 -0.130488,0.102567l-0.000208661 0c-0.000322835,3.54331e-005 -0.0945945,0.0111063 -0.214028,0.0195276l0.811244 2.41231 0.196535 -0.656724 0.00145669 -0.00395669c0.0611339,-0.156819 0.107118,-0.300276 0.137831,-0.430417 0.0302205,-0.128059 0.0453898,-0.242602 0.0453898,-0.343669 0,-0.145252 -0.0260591,-0.267791 -0.0632008,-0.373406z" id="_435230320"/><path class="fil0" d="M5.34713 3.34739c0.0687795,-0.172051 0.114559,-0.326335 0.143051,-0.467783 0.0282717,-0.140354 0.0396024,-0.269193 0.0396024,-0.391024 0,-0.0448661 -0.00137795,-0.0871732 -0.00405512,-0.127122 -0.00274803,-0.0410079 -0.00680709,-0.0802795 -0.0120906,-0.117984l0.099374 -0.0329173c0.0994606,0.181508 0.177063,0.376417 0.229319,0.581244 0.0507165,0.198807 0.0776654,0.407043 0.0776654,0.621531 0,0.453992 -0.120913,0.879862 -0.332272,1.24733 -0.218945,0.380654 -0.534917,0.698252 -0.91402,0.91915l-0.076874 -0.0633307 0.749465 -2.1666 0.000834646 -0.0025zm0.247217 -0.446949c-0.0298425,0.148138 -0.077378,0.308701 -0.148469,0.486531l-2.75591e-005 -1.1811e-005 -0.699441 2.022c0.307256,-0.205476 0.564429,-0.479898 0.749236,-0.801201 0.202075,-0.351335 0.317681,-0.759106 0.317681,-1.19442 0,-0.205587 -0.0257913,-0.405016 -0.0743268,-0.59528 -0.027248,-0.106803 -0.0616378,-0.210701 -0.10263,-0.311161 -0.00111024,0.121791 -0.0134016,0.251457 -0.0420236,0.393547z" id="_435229840"/><path class="fil0" d="M3.41363 5.92029c-0.121031,0 -0.240409,-0.00879528 -0.357551,-0.0256654 -0.11965,-0.0172244 -0.236724,-0.0429764 -0.350622,-0.0764567l-0.0535236 -0.0157362 0.0181063 -0.0525945 0.736441 -2.13891 0.100417 -0.000834646 0.753575 2.0647 3.14961e-005 -1.1811e-005c0.00166142,0.00423622 0.00356299,0.00822441 0.00559449,0.012063 0.00231496,0.00437008 0.00488583,0.00872047 0.0075315,0.0130709l0.034126 0.056063 -0.0618346 0.0218543c-0.131807,0.0465827 -0.268724,0.0824961 -0.409602,0.106591 -0.137701,0.0235512 -0.278953,0.0358622 -0.422689,0.0358622zm-0.342551 -0.131083c0.111429,0.0160472 0.225776,0.0244134 0.342551,0.0244134 0.138232,0 0.273488,-0.0117402 0.404776,-0.0341929 0.115291,-0.0197205 0.22774,-0.0476732 0.336661,-0.0831811l-0.696646 -1.90873 -0.669228 1.94369c0.0918071,0.0246929 0.18587,0.0441732 0.281886,0.0579961z" id="_435230296"/><path class="fil0" d="M0.906665 3.41333c0,-0.178366 0.0189843,-0.352575 0.054811,-0.52087 0.0369213,-0.173429 0.0919055,-0.340539 0.162575,-0.499394l0.0985394 0.00353937 1.17028 3.2064 -0.073126 0.0660433c-0.424811,-0.206154 -0.782736,-0.529126 -1.0321,-0.92724 -0.24139,-0.38539 -0.38098,-0.840819 -0.38098,-1.32848zm0.158976 -0.498783c-0.034189,0.160606 -0.0523071,0.327406 -0.0523071,0.498783 0,0.467591 0.133484,0.903697 0.364311,1.27222 0.214776,0.342894 0.513913,0.627622 0.868291,0.82511l-1.07636 -2.94908c-0.0431575,0.113705 -0.0780984,0.231587 -0.103933,0.352961z" id="_435230392"/><path class="fil0" d="M1.01465 3.41333c0,0.662488 0.2685,1.26224 0.702618,1.69635 0.434114,0.434118 1.03387,0.702618 1.69635,0.702618 0.662386,0 1.26217,-0.268528 1.69632,-0.702685 0.43411,-0.43411 0.70265,-1.03383 0.70265,-1.69629 0,-0.662354 -0.268567,-1.26211 -0.702717,-1.69626 -0.43415,-0.43415 -1.0339,-0.702717 -1.69625,-0.702717 -0.662457,0 -1.26218,0.268543 -1.69629,0.702654 -0.434157,0.434154 -0.702685,1.03393 -0.702685,1.69632zm0.627201 1.77177c-0.453429,-0.453425 -0.73387,-1.07984 -0.73387,-1.77177 0,-0.691831 0.280469,-1.31827 0.733937,-1.77174 0.453417,-0.453417 1.07981,-0.733906 1.7717,-0.733906 0.691799,0 1.31821,0.280512 1.77167,0.733969 0.453457,0.453457 0.733969,1.07987 0.733969,1.77167 0,0.691898 -0.280484,1.31829 -0.733902,1.7717 -0.453465,0.453469 -1.07991,0.733937 -1.77174,0.733937 -0.691933,0 -1.31835,-0.280441 -1.77177,-0.73387z" id="_435229384"/></g></g><rect class="fil1" height="6.82666" width="6.82666"/></svg>