<?xml version="1.0" ?><!DOCTYPE svg  PUBLIC '-//W3C//DTD SVG 1.1//EN'  'http://www.w3.org/Graphics/SVG/1.1/DTD/svg11.dtd'><svg height="6.82666in" style="shape-rendering:geometricPrecision; text-rendering:geometricPrecision; image-rendering:optimizeQuality; fill-rule:evenodd; clip-rule:evenodd" viewBox="0 0 6.82666 6.82666" width="6.82666in" xml:space="preserve" xmlns="http://www.w3.org/2000/svg" xmlns:xlink="http://www.w3.org/1999/xlink"><defs><style type="text/css">
   <![CDATA[
    .fil1 {fill:none}
    .fil0 {fill:#212121;fill-rule:nonzero}
   ]]>
  </style></defs><g id="Layer_x0020_1"><g id="_435218032"><path class="fil0" d="M1.63963 1.97292l0.646787 0.000594488 0.173232 -0.167618 0 -0.658059 -0.82002 0.825083zm0.668299 0.106866l-0.79137 -0.000728346c-0.0150787,0.00129528 -0.0306102,-0.00379921 -0.042185,-0.0153031 -0.0208898,-0.0207598 -0.0209921,-0.0545315 -0.000232283,-0.0754213l0.0378268 0.0375945 -0.0377087 -0.0375 0.998193 -1.00435c0.00978346,-0.0114291 0.024311,-0.0186772 0.0405315,-0.0186772 0.0294528,0 0.0533346,0.0238819 0.0533346,0.0533346l0 0.809567 -7.87402e-006 0c0,0.0139409 -0.00542913,0.0278661 -0.0162402,0.0383268l-0.000102362 -0.000106299 -0.202209 0.195654c-0.00977953,0.0109449 -0.024,0.0178307 -0.0398307,0.0178189l0 -0.000204724z" id="_435218152"/><path class="fil0" d="M4.8826 3.51488l-0.0515 -0.00950394c-0.116756,-0.0214921 -0.301146,-0.0543268 -0.446878,-0.0775945 -0.0987677,-0.0157638 -0.179016,-0.027063 -0.205626,-0.027063l0 -0.000208661 -0.0298543 -7.87402e-006 0 -0.053126 -1.5748e-005 0.0533307c-0.0294528,-7.87402e-006 -0.0533228,-0.0238937 -0.053315,-0.0533465 0,-0.00361811 0.000362205,-0.00715354 0.00105118,-0.0105669l0.00397638 -0.0265906c0.00144882,-0.00991732 0.0260984,-0.167354 0.107748,-0.27526 0.0471614,-0.0623307 0.112217,-0.109067 0.201244,-0.109067 0.053378,0 0.11061,0.0220118 0.17126,0.0657008 0.0551142,0.0397008 0.114157,0.0981535 0.176717,0.175047 0.0877795,0.107953 0.151732,0.214358 0.155516,0.220657l0.000145669 -8.66142e-005 0.000476378 0.000814961 3.54331e-005 6.29921e-005 0.000562992 0.00100787 0.000110236 0.000192913 0.000413386 0.000783465 0.00030315 0.000586614 0.000216535 0.000429134 0.000425197 0.000877953 8.66142e-005 0.000188976 2.3622e-005 5.11811e-005 0.0262126 0.0440197 0.000232283 -0.000137795c0.0150669,0.0253071 0.00676772,0.0580394 -0.0185394,0.0731063 -0.0128543,0.00765354 -0.0276299,0.00927559 -0.0410276,0.00570079zm-0.481709 -0.192098c0.123248,0.0196772 0.273307,0.0460276 0.38761,0.0667362 -0.0262283,-0.0398543 -0.066189,-0.0975197 -0.113591,-0.155815 -0.0567087,-0.0697008 -0.108929,-0.121748 -0.156299,-0.155874 -0.0418031,-0.0301102 -0.0783031,-0.0452835 -0.109181,-0.0452835 -0.0494055,0 -0.0874606,0.0285236 -0.116244,0.066563 -0.048185,0.0636811 -0.0720551,0.151598 -0.0818071,0.197043 0.0423031,0.0041378 0.110638,0.0140433 0.189512,0.0266299z" id="_435217768"/><path class="fil0" d="M3.99047 4.61897c-0.11098,0.0100079 -0.313941,0.0438189 -0.460256,0.157425l-0.0327087 -0.0420827 0.0327087 0.042126c-0.00103937,0.000807087 -0.00209843,0.00156299 -0.00317323,0.00228346 -0.0957795,0.0755236 -0.166484,0.187984 -0.166484,0.355398 0,0.243413 0.0707047,0.399894 0.168559,0.499882 0.151835,0.155146 0.372539,0.179327 0.495008,0.179327l0.532772 0c0.022811,-0.00433465 0.108799,-0.024311 0.220732,-0.0948504 0.0660709,-0.0416339 0.140409,-0.10078 0.214874,-0.18452 0.164079,-0.184638 0.272524,-0.423626 0.34289,-0.678091 0.0935866,-0.338437 0.119815,-0.704689 0.119815,-1.00867 0,-0.845118 -0.0581614,-1.34683 -0.130299,-1.65626 -0.0704882,-0.302362 -0.153732,-0.417094 -0.207811,-0.491551l-6.29921e-005 4.33071e-005c-0.000992126,-0.00136614 -0.00190551,-0.00276378 -0.00274803,-0.00418504 -0.00721654,-0.00990157 -0.0137283,-0.0188819 -0.0181181,-0.0252362 -0.00713386,-0.0103307 -0.0135984,-0.0202441 -0.0192638,-0.0300472 -0.0322835,-0.0555984 -0.144843,-0.120685 -0.276433,-0.174579 -0.147193,-0.0602835 -0.314398,-0.103587 -0.421846,-0.103587l-0.614445 0c-0.0216142,0 -0.0402283,-0.0128622 -0.0486063,-0.0313504l-0.00522441 -0.0093622 -0.000153543 8.66142e-005c-0.000405512,-0.000724409 -0.000787402,-0.00145276 -0.00115354,-0.00218504 -0.00975984,-0.0164213 -0.0867874,-0.139524 -0.245831,-0.225201 -0.0853268,-0.0459606 -0.194157,-0.0804409 -0.328634,-0.0804409 -0.0814567,0 -0.147591,0.00652362 -0.199102,0.0197598 -0.0465472,0.0119567 -0.080685,0.0291654 -0.103055,0.0517835 -0.0429921,0.0434646 -0.0423583,0.115358 -0.0416142,0.19152l3.93701e-006 0 3.93701e-006 0.000240157 0.000200787 -3.93701e-006 3.93701e-006 0.000858268 3.93701e-006 0c1.1811e-005,0.00148425 -3.93701e-005,0.00295276 -0.000145669,0.00440945 0.000204724,0.0153858 0.000397638,0.0210591 0.000397638,0.0265512l0 0.706866c0,0.0155748 -0.0066811,0.0295945 -0.0173307,0.0393425l-0.217319 0.229343 0.000102362 9.44882e-005c-0.0104843,0.011063 -0.0245827,0.0166457 -0.0387126,0.0166457l0 3.93701e-006 -0.931969 0c-0.0333622,0.0275906 -0.104,0.0947598 -0.155287,0.204193 -0.034,0.0725512 -0.059311,0.16385 -0.059311,0.27489 0,0.0343268 0.0018622,0.247547 0.0441142,0.517807 0.022874,0.146291 0.0576654,0.309933 0.110543,0.472165 0.076248,0.233724 0.173488,0.415197 0.290906,0.543508 0.114315,0.124929 0.248346,0.199665 0.401287,0.223335 0.0596811,0.00925591 0.119205,0.0163504 0.17811,0.0212598 0.0569961,0.00475197 0.111929,0.0071378 0.164366,0.0071378 0.207343,0 0.351937,-0.0363898 0.452531,-0.0848858 0.186185,-0.0897638 0.215894,-0.207984 0.215894,-0.209752 0,-0.181728 0.00454331,-0.479335 0.00554724,-0.545287l0.000188976 -0.0127323 0.0475787 0.000559055 -7.87402e-006 -1.5748e-005 -0.0477717 -0.000708661c2.3622e-005,-0.00160236 0.000122047,-0.00318504 0.000283465,-0.00475197l0.0016811 -0.0959606 0.053126 0.000834646 -0.0533228 -0.000933071c0.000511811,-0.0294488 0.0248071,-0.0529016 0.0542559,-0.0523898 0.0219409,0.00038189 0.0405472,0.0139646 0.0484016,0.0330433l0.0440787 0.0842598 9.44882e-005 -5.11811e-005 5.51181e-005 0.000102362 0.000232283 0.000433071 9.44882e-005 -5.11811e-005c0.000409449,0.000787402 0.000799213,0.00157874 0.00116929,0.00237402 0.0216772,0.0395748 0.271346,0.481646 0.620531,0.481646l3.14961e-005 0c0.1755,0 0.357138,0.0478346 0.495469,0.139965 0.143606,0.0956457 0.241276,0.238169 0.241283,0.424209l0.000208661 0 0 1.5748e-005 0 0.455406c0,0.00239764 -0.000161417,0.00475984 -0.000468504,0.0070748 -0.00473622,0.072689 -0.0334055,0.179886 -0.104642,0.25735 -0.0534055,0.0580669 -0.12915,0.0996496 -0.233988,0.0996496l-0.530917 0c-0.0134961,0 -0.0258189,-0.00501969 -0.0352126,-0.0132874l-0.00411417 -0.00315354 0.000366142 -0.000480315 -8.26772e-005 -9.05512e-005 -0.000456693 0.000594488c-0.00157087,-0.00120472 -0.00304724,-0.00248031 -0.00444488,-0.0038189 -0.0138346,-0.0113425 -0.0575551,-0.0490157 -0.0992205,-0.104823 -0.0497677,-0.0666693 -0.0985118,-0.160437 -0.0985118,-0.27198 0,-0.124283 0.0350669,-0.201874 0.0848622,-0.249386 0.0519764,-0.0495984 0.117071,-0.0642598 0.175878,-0.0642598 0.0261063,0 0.0530394,0.000917323 0.0784409,0.00225197 0.00711024,0.000374016 0.0139803,0.000783465 0.0205748,0.00121654l0 -0.21826zm-0.525654 0.0732441c0.197394,-0.153244 0.477764,-0.178791 0.572394,-0.182933 0.00216142,-0.000267717 0.0043622,-0.000405512 0.00659449,-0.000405512 0.0294528,0 0.0533346,0.0238819 0.0533346,0.0533346l0 0.332913c0,0.00184252 -9.84252e-005,0.00370079 -0.000295276,0.0055748 -0.00307874,0.0292913 -0.0293228,0.0505433 -0.0586142,0.0474646l1.5748e-005 -0.000137795c-0.0180118,-0.00188976 -0.0436142,-0.00417323 -0.0737677,-0.00575984 -0.0206929,-0.00108661 -0.0450787,-0.00183465 -0.0730236,-0.00183465 -0.035878,0 -0.0745079,0.00791339 -0.102547,0.0346693 -0.0302323,0.0288465 -0.0515236,0.0814252 -0.0515236,0.172307 0,0.083437 0.0382283,0.155945 0.0772598,0.208232 0.0313898,0.0420512 0.0622323,0.0703346 0.076063,0.0821378l0.512602 0c0.0705787,0 0.120791,-0.0271496 0.155657,-0.0650591 0.0521299,-0.056685 0.0732205,-0.136909 0.0767795,-0.191697l-7.87402e-006 -0.000649606 0 -0.455406 0 -1.5748e-005 0.000208661 0c-3.93701e-006,-0.14572 -0.0784449,-0.258642 -0.19378,-0.335461 -0.120618,-0.0803346 -0.280803,-0.122043 -0.43672,-0.122043l-3.14961e-005 0c-0.323634,0 -0.565768,-0.306701 -0.66563,-0.458154 -0.00157087,0.113071 -0.00391732,0.305886 -0.00391732,0.461114 0,0.00288976 -0.0380236,0.190701 -0.276311,0.305587 -0.113437,0.054685 -0.273614,0.0957205 -0.498783,0.0957205 -0.0549291,0 -0.112787,-0.00252362 -0.173114,-0.00755512 -0.0580827,-0.00484252 -0.120094,-0.0123543 -0.185614,-0.0225118 -0.177469,-0.0274685 -0.332232,-0.113354 -0.463366,-0.256665 -0.128043,-0.139925 -0.232945,-0.334343 -0.313827,-0.582264 -0.0545236,-0.16728 -0.0905315,-0.336862 -0.114291,-0.488827 -0.0438543,-0.280484 -0.0457835,-0.498917 -0.0457835,-0.534059 0,-0.128083 0.0297559,-0.234598 0.0697283,-0.31989 0.0693622,-0.148008 0.170051,-0.231622 0.199433,-0.253866 0.00918504,-0.00749606 0.0209173,-0.0119961 0.0336969,-0.0119961l0.927634 0 0.189335 -0.199811 0 -0.685815 -1.5748e-005 -0.0255551c-0.000133858,-0.00148425 -0.000216535,-0.00298425 -0.000228346,-0.0045l3.93701e-006 0 -3.93701e-006 -7.08661e-005 3.93701e-006 0 -1.1811e-005 -0.000570866 0.0533307 -0.000523622 -0.053126 0.000417323c-0.000972441,-0.0992756 -0.00189764,-0.193035 0.0720276,-0.267772 0.0357874,-0.036185 0.0863583,-0.0626732 0.152638,-0.0796969 0.0613071,-0.015752 0.136138,-0.0235157 0.225354,-0.0235157 0.154299,0 0.280016,0.0400157 0.379051,0.0933622 0.162512,0.0875472 0.253504,0.212937 0.28089,0.255091l0.584106 0c0.120209,0 0.30322,0.0467874 0.462264,0.111925 0.150787,0.0617559 0.283268,0.142378 0.328094,0.219579 0.00447638,0.00774803 0.00937402,0.0152795 0.0146811,0.0229606 0.00622441,0.00901181 0.0113228,0.0160984 0.0164134,0.0230984 0.00114173,0.0012874 0.00223228,0.00264173 0.00326378,0.00406299l-0.0431535 0.0313386 0.043126 -0.031248c0.0590394,0.0812913 0.149953,0.206539 0.225343,0.529929 0.0737559,0.316374 0.13322,0.82635 0.13322,1.68043 0,0.31098 -0.0271378,0.686776 -0.123988,1.037 -0.0743937,0.269024 -0.189937,0.522697 -0.365803,0.720594 -0.0816299,0.0917992 -0.164079,0.157236 -0.237787,0.203685 -0.128681,0.0810945 -0.233012,0.104685 -0.260122,0.109756 -0.00435433,0.00114961 -0.00892126,0.00176378 -0.0136378,0.00176378l-0.536413 0c-0.139504,0 -0.391843,-0.0285079 -0.570843,-0.211413 -0.115756,-0.11828 -0.199394,-0.299051 -0.199394,-0.574465 0,-0.205799 0.0881142,-0.344961 0.207484,-0.439035 0.00109055,-0.00100394 0.00223228,-0.00197244 0.0034252,-0.00289764l1.9685e-005 2.75591e-005z" id="_435218104"/></g></g><rect class="fil1" height="6.82666" width="6.82666"/></svg>