<?xml version="1.0" ?><!DOCTYPE svg  PUBLIC '-//W3C//DTD SVG 1.1//EN'  'http://www.w3.org/Graphics/SVG/1.1/DTD/svg11.dtd'><svg height="6.82666in" style="shape-rendering:geometricPrecision; text-rendering:geometricPrecision; image-rendering:optimizeQuality; fill-rule:evenodd; clip-rule:evenodd" viewBox="0 0 6.82666 6.82666" width="6.82666in" xml:space="preserve" xmlns="http://www.w3.org/2000/svg" xmlns:xlink="http://www.w3.org/1999/xlink"><defs><style type="text/css">
   <![CDATA[
    .fil0 {fill:none}
    .fil1 {fill:#212121;fill-rule:nonzero}
   ]]>
  </style></defs><g id="Layer_x0020_1"><rect class="fil0" height="6.82666" width="6.82666"/><path class="fil1" d="M2.26844 2.54222l0.600886 0 0 -0.764445c0,-0.00233465 0.000149606,-0.00463386 0.000440945,-0.00688976 0.0123819,-0.234933 0.0598661,-0.447256 0.169315,-0.603118 0.113524,-0.161673 0.290031,-0.261106 0.556866,-0.261106l0.962276 0c0.0294528,0 0.0533346,0.0238819 0.0533346,0.0533346l0 0.770524c0,0.0294528 -0.0238819,0.0533346 -0.0533346,0.0533346l-0.379858 0c-0.0979803,0 -0.171496,0.0150079 -0.219185,0.0543898l-0.0339567 -0.0410394 0.0339567 0.041126c-0.0010315,0.000850394 -0.00208661,0.00164961 -0.00315748,0.00241339 -0.0442047,0.0383465 -0.069122,0.102795 -0.0745394,0.202461l7.48031e-005 0 0 0.499016 0.676665 0c0.0294528,0 0.0533346,0.0238819 0.0533346,0.0533346l0 0.817776c0,0.0294528 -0.0238819,0.0533346 -0.0533346,0.0533346l-0.676665 0 0 2.4c0,0.0294528 -0.0238819,0.0533346 -0.0533346,0.0533346l-0.905563 0c-0.0294528,0 -0.0533346,-0.0238819 -0.0533346,-0.0533346l0 -2.4 -0.600886 0c-0.0294528,0 -0.0533346,-0.0238819 -0.0533346,-0.0533346l0 -0.817776c0,-0.0294528 0.0238819,-0.0533346 0.0533346,-0.0533346zm0.65422 0.106669l-0.600886 0 0 0.711106 0.600886 0c0.0294528,0 0.0533346,0.0238819 0.0533346,0.0533346l0 2.4 0.798894 0 0 -2.4c0,-0.0294528 0.0238819,-0.0533346 0.0533346,-0.0533346l0.676665 0 0 -0.711106 -0.676665 0c-0.0294528,0 -0.0533346,-0.0238819 -0.0533346,-0.0533346l0 -0.552311 0 -3.93701e-005c0,-0.000897638 2.3622e-005,-0.00179921 7.08661e-005,-0.00270472l0.000149606 7.87402e-006c0.0067874,-0.133043 0.044378,-0.222602 0.112299,-0.280913 0.00121654,-0.00122047 0.0025,-0.0023937 0.00385827,-0.00351575l4.33071e-005 5.11811e-005c0.069252,-0.0571614 0.164732,-0.0789449 0.287055,-0.0789449l0.326524 0 0 -0.663854 -0.908941 0c-0.227409,0 -0.376012,0.0821378 -0.469787,0.215689 -0.096626,0.137606 -0.138823,0.331114 -0.150177,0.547591l1.1811e-005 0.00116535 0 0.81778c0,0.0294528 -0.0238819,0.0533346 -0.0533346,0.0533346z"/></g><rect class="fil0" height="6.82666" width="6.82666"/></svg>