<?xml version="1.0" ?><!DOCTYPE svg  PUBLIC '-//W3C//DTD SVG 1.1//EN'  'http://www.w3.org/Graphics/SVG/1.1/DTD/svg11.dtd'><svg height="6.82666in" style="shape-rendering:geometricPrecision; text-rendering:geometricPrecision; image-rendering:optimizeQuality; fill-rule:evenodd; clip-rule:evenodd" viewBox="0 0 6.82666 6.82666" width="6.82666in" xml:space="preserve" xmlns="http://www.w3.org/2000/svg" xmlns:xlink="http://www.w3.org/1999/xlink"><defs><style type="text/css">
   <![CDATA[
    .fil1 {fill:none}
    .fil0 {fill:#212121;fill-rule:nonzero}
   ]]>
  </style></defs><g id="Layer_x0020_1"><g id="_264862720"><path class="fil0" d="M4.81689 4.01175c-0.00606693,-0.00946063 -0.033626,-0.0224685 -0.0747913,-0.0419055 -0.010189,-0.00480709 -0.0210945,-0.00996063 -0.0338661,-0.0161496l-0.00103937 -0.000417323c-0.041811,-0.0212638 -0.181362,-0.0895787 -0.297075,-0.144276 -0.0757559,-0.035811 -0.141484,-0.0660118 -0.163587,-0.0739409 -0.0249606,-0.00896457 -0.0458346,-0.0158425 -0.0598189,-0.0142677 -0.00917323,0.00103543 -0.0190709,0.0086378 -0.0316417,0.0277047l0 0.000208661c-0.0182677,0.0274331 -0.0494961,0.0674134 -0.083374,0.108913 -0.0547677,0.0670906 -0.113618,0.135059 -0.138043,0.162803l-0.000102362 -9.05512e-005c-0.0289134,0.0328858 -0.0593307,0.0514449 -0.0968937,0.0559843 -0.0340394,0.00411417 -0.070311,-0.00466929 -0.11385,-0.026063l-0.000413386 -0.000208661c-0.00746063,-0.00374409 -0.0239764,-0.0108701 -0.0444134,-0.019689 -0.0996378,-0.0429882 -0.293705,-0.126724 -0.517138,-0.324543 -0.080248,-0.0710315 -0.150303,-0.147969 -0.208492,-0.219846 -0.0943661,-0.116559 -0.158024,-0.220205 -0.183307,-0.263858 -0.0602244,-0.10328 -0.00905512,-0.154453 0.0381929,-0.201709l7.87402e-006 -7.87402e-006 0.000208661 0c0.0189961,-0.0189567 0.0412756,-0.0457402 0.0636299,-0.0726063 0.0132913,-0.0159724 0.026626,-0.0320039 0.0368031,-0.0437362l-1.5748e-005 -1.5748e-005c0.0246142,-0.028626 0.0355787,-0.0510157 0.050374,-0.0812402 0.00311024,-0.0063622 0.00640157,-0.0130669 0.0102402,-0.0207283l-8.66142e-005 -4.33071e-005c0.0063189,-0.0127323 0.00798819,-0.024315 0.00690157,-0.0348268 -0.00126772,-0.0122559 -0.00607874,-0.0245 -0.012,-0.0360276l-0.000417323 -0.000622047c-0.0117205,-0.0236142 -0.0751378,-0.17678 -0.133587,-0.317949 -0.0237205,-0.0572953 -0.0464843,-0.112268 -0.0786772,-0.188969 -0.0354213,-0.0844528 -0.0641575,-0.0825827 -0.0861969,-0.0811535 -0.00687795,0.000448819 -0.0134724,0.000877953 -0.0183898,0.000877953 -0.0192441,0 -0.0412953,-0.00140157 -0.0641496,-0.00284646 -0.0211575,-0.00133858 -0.043122,-0.00273228 -0.0669567,-0.00273228 -0.0199528,0 -0.0471339,0.0041378 -0.0757441,0.0175315 -0.0220354,0.010311 -0.0451378,0.0262441 -0.0669252,0.050185l-0.000417323 0.000413386c-0.00285433,0.00306299 -0.00785827,0.00832283 -0.0132323,0.0139764 -0.0666929,0.0701063 -0.212083,0.222933 -0.212083,0.515157 0,0.315996 0.234039,0.624429 0.268157,0.669394l0.000208661 0 0.00034252 0.000452756 -5.90551e-005 4.33071e-005c0.00418504,0.00545669 0.00988583,0.0137835 0.0181535,0.0258819 0.0901063,0.131783 0.504343,0.737618 1.12676,0.98072 0.561374,0.219055 0.651264,0.197299 0.731551,0.177874 0.0199488,-0.00483071 0.0394252,-0.00954331 0.0648504,-0.0118937 0.0614921,-0.00577559 0.167201,-0.0514449 0.259854,-0.116142 0.0726457,-0.0507283 0.134909,-0.111646 0.15626,-0.171004 0.0230669,-0.0642717 0.0362205,-0.12487 0.0424173,-0.175236 0.00715354,-0.0581378 0.0066063,-0.0953307 0.00181102,-0.103346l5.51181e-005 -3.14961e-005zm-0.029374 -0.138157c0.0586535,0.0276929 0.0977559,0.0461575 0.120362,0.0833976l0.000208661 0.000208661c0.0148661,0.0248386 0.0228268,0.0891299 0.0127717,0.170843 -0.00692126,0.056252 -0.0218504,0.124594 -0.048252,0.198157 -0.0295906,0.0822756 -0.106882,0.160417 -0.195425,0.222248 -0.106736,0.0745315 -0.233575,0.127614 -0.311106,0.134898 -0.0172205,0.00159055 -0.0331299,0.00544488 -0.0494331,0.00938976 -0.0957441,0.0231654 -0.202933,0.0491063 -0.795299,-0.182039 -0.652965,-0.255031 -1.0825,-0.883236 -1.17593,-1.01989 -0.00793701,-0.0116102 -0.0133071,-0.0194646 -0.0147638,-0.0213425l-0.000417323 -0.000417323 -0.00034252 -0.000452756 0.000133858 -9.84252e-005c-0.0371772,-0.0489961 -0.290169,-0.38263 -0.290169,-0.733461 0,-0.334453 0.165673,-0.508598 0.241673,-0.588488 0.00381102,-0.00400394 0.00732283,-0.00769291 0.012,-0.0127126l-1.9685e-005 -1.5748e-005c0.0319409,-0.0350945 0.0668425,-0.058937 0.100673,-0.0747677 0.0456142,-0.0213543 0.088937,-0.0279488 0.120744,-0.0279488 0.0239213,0 0.0492362,0.00160236 0.073626,0.00314961 0.0195039,0.00123622 0.0383268,0.00242913 0.0574803,0.00242913 0.00464173,0 0.00811417,-0.000228346 0.0117205,-0.00046063 0.0548898,-0.00356693 0.126449,-0.00822047 0.191197,0.146154 0.00687402,0.016378 0.0419252,0.101031 0.0786772,0.189803 0.0574921,0.138858 0.11987,0.289512 0.130673,0.31128l-7.87402e-005 3.93701e-005c0.0110512,0.0216378 0.0201102,0.0457953 0.0229134,0.0728622 0.00301181,0.0290787 -0.00112992,0.060122 -0.0173189,0.092748l-0.000208661 0.000204724c-0.00337795,0.00674016 -0.00674016,0.0136024 -0.00994488,0.0201496 -0.0184134,0.0376063 -0.0320512,0.0654724 -0.0649567,0.103736l-0.000208661 0.000208661c-0.0135157,0.0155709 -0.0246339,0.028937 -0.0357441,0.0422913 -0.0243976,0.0293228 -0.0487126,0.0585472 -0.0701969,0.0800039l0.000106299 0.000106299 -7.87402e-006 7.87402e-006c-0.0194291,0.0194291 -0.0404685,0.0404843 -0.0215315,0.0729606 0.0239921,0.0414213 0.084374,0.139744 0.173724,0.25011 0.0552047,0.068189 0.121307,0.140862 0.196413,0.207343 0.209976,0.185906 0.394213,0.265402 0.488807,0.306213 0.0186969,0.00806693 0.0338583,0.0146142 0.0494094,0.0223937 0.0243307,0.0119528 0.0419016,0.017189 0.054685,0.0156457 0.00920866,-0.00111024 0.0186024,-0.00786614 0.0294921,-0.0202677l0 -0.000208661c0.0255118,-0.0289803 0.085374,-0.098 0.135547,-0.159465 0.0316811,-0.0388071 0.0606654,-0.0758701 0.077122,-0.100583l9.84252e-005 6.29921e-005c0.0327638,-0.049626 0.0681063,-0.0704921 0.108622,-0.075063 0.0357362,-0.00402756 0.0690669,0.0063622 0.107323,0.0201024 0.0271969,0.00975984 0.095878,0.0411496 0.173169,0.077689 0.11961,0.0565394 0.259539,0.124957 0.299988,0.145528l-3.54331e-005 6.69291e-005c0.010626,0.00514567 0.0216811,0.0103622 0.0320276,0.015248z" id="_264862888"/><path class="fil0" d="M5.91949 3.35058c0,0.674366 -0.275614,1.28517 -0.721291,1.72737 -0.445492,0.442004 -1.06076,0.715472 -1.74037,0.715472 -0.212484,0 -0.418461,-0.0267008 -0.614992,-0.0769764 -0.195067,-0.0499094 -0.380878,-0.123138 -0.554543,-0.216602l-1.31175 0.417449 -0.100177 0.031878 0.0337165 -0.0995866 0.426484 -1.25969c-0.107665,-0.181311 -0.192598,-0.377752 -0.250657,-0.585224 -0.0584291,-0.208815 -0.0897441,-0.428528 -0.0897441,-0.654941 0,-0.674496 0.275665,-1.28536 0.721472,-1.72758 0.44561,-0.442024 1.06107,-0.71548 1.74098,-0.71548 0.679327,0 1.29448,0.273551 1.73989,0.715811 0.445457,0.442319 0.720984,1.0533 0.720984,1.7281zm-0.796291 1.65195c0.42611,-0.42278 0.689622,-1.00691 0.689622,-1.65195 0,-0.645484 -0.263425,-1.2298 -0.689315,-1.65269 -0.425957,-0.422953 -1.01458,-0.684559 -1.66489,-0.684559 -0.650909,0 -1.23983,0.261512 -1.66598,0.684228 -0.42624,0.422811 -0.689803,1.007 -0.689803,1.65217 0,0.217327 0.0298583,0.427508 0.0855709,0.62661 0.0577402,0.206339 0.143165,0.401118 0.251846,0.579953l0.0129055 0.0212323 -0.00790551 0.0233504 -0.400618 1.18328 1.23326 -0.392469 0.0218386 -0.00695276 0.0198307 0.0109134c0.171335,0.094252 0.355535,0.167831 0.54952,0.217465 0.188008,0.0480945 0.385185,0.0736378 0.58874,0.0736378 0.650606,0 1.23934,-0.261524 1.66537,-0.68422z" id="_264862336"/></g></g><rect class="fil1" height="6.82666" width="6.82666"/></svg>