<?xml version="1.0" ?><!DOCTYPE svg  PUBLIC '-//W3C//DTD SVG 1.1//EN'  'http://www.w3.org/Graphics/SVG/1.1/DTD/svg11.dtd'><svg height="6.82666in" style="shape-rendering:geometricPrecision; text-rendering:geometricPrecision; image-rendering:optimizeQuality; fill-rule:evenodd; clip-rule:evenodd" viewBox="0 0 6.82666 6.82666" width="6.82666in" xml:space="preserve" xmlns="http://www.w3.org/2000/svg" xmlns:xlink="http://www.w3.org/1999/xlink"><defs><style type="text/css">
   <![CDATA[
    .fil1 {fill:none}
    .fil0 {fill:#212121;fill-rule:nonzero}
   ]]>
  </style></defs><g id="Layer_x0020_1"><path class="fil0" d="M2.2002 1.91198c-0.103398,0.231886 -0.0778228,0.639079 -0.0572638,0.966402l0 0.000208661 1.5748e-005 0.000251969 1.1811e-005 0 0.00155118 0.024689c0.00185039,0.0294567 0.00373228,0.0592795 0.00578346,0.0952047l0.00190157 0.0332126 -0.0291929 0.0161614c-0.0133465,0.00738976 -0.0324882,0.0157047 -0.0575,0.0211575 -0.0179173,0.00390551 -0.0391417,0.0065315 -0.0637953,0.0065315 -0.0366142,0 -0.0762677,-0.00570472 -0.118646,-0.0170394 -0.0402283,-0.0107559 -0.0835,-0.0269567 -0.129496,-0.0485197 -0.00745669,-0.00349213 -0.015689,-0.00615748 -0.0246063,-0.00798425 -0.00893701,-0.00183071 -0.019185,-0.00274803 -0.0306654,-0.00274803 -0.0425354,0 -0.0894961,0.014752 -0.12663,0.0402913 -0.030563,0.0210236 -0.0536102,0.0487638 -0.0595748,0.0802008 -0.00499213,0.026252 0.000271654,0.0601575 0.0350118,0.0974646 0.0322756,0.0346614 0.0875945,0.0711378 0.177717,0.106736 0.0119134,0.00470472 0.0217559,0.00824016 0.0306142,0.011189l0.0370551 0.0117008 0.000204724 0.000208661 0.000110236 3.54331e-005 -1.9685e-005 5.90551e-005c0.103205,0.0327717 0.258961,0.0822953 0.306925,0.19526l0 0.000208661c0.0137126,0.0323268 0.0179528,0.0683937 0.0127677,0.107882 -0.00468898,0.0356929 -0.0171142,0.0741732 -0.0372165,0.115169l7.87402e-006 3.93701e-006 -0.000476378 0.00100787 0 0.000208661c-0.000929134,0.00194488 0.00026378,-0.00122441 -0.000744094,0.00121654l-0.000208661 0.000834646c-0.00648031,0.0150748 -0.087622,0.200205 -0.252791,0.394823 -0.166402,0.196067 -0.418417,0.40272 -0.767287,0.46015 -0.0121457,0.00200394 -0.0226181,0.00848819 -0.0299055,0.0175787 -0.00723622,0.00902362 -0.0112638,0.0206772 -0.0105827,0.0330827 0.000232283,0.0041063 0.000952756,0.0086811 0.00213386,0.0136654 0.00127165,0.00535433 0.00277165,0.0100945 0.00447638,0.0141535l7.48031e-005 -3.14961e-005c0.0192283,0.0449606 0.0749449,0.0861614 0.168453,0.124157 0.103661,0.042122 0.248606,0.0774409 0.436287,0.106567l0.0345827 0.0208346c0.0196929,0.0266575 0.0344134,0.0938976 0.0435315,0.135591l0.000216535 0.000988189c0.00379921,0.0174724 0.00767717,0.0352638 0.012437,0.0552835 0.00464961,0.0195394 0.00949606,0.0385276 0.0146496,0.0560551 0.00390551,0.013311 0.0108425,0.0277244 0.0230748,0.0366811l9.84252e-005 -0.000133858c0.00967717,0.00704331 0.0239646,0.011748 0.0448346,0.011748 0.0125906,0 0.0270197,-0.00156299 0.0429921,-0.00402756 0.0186457,-0.00287795 0.0374567,-0.00656693 0.0576063,-0.0105236 0.0317992,-0.0062126 0.0694882,-0.0135748 0.116941,-0.0199252 0.0463425,-0.00620472 0.0982205,-0.010752 0.15478,-0.010752 0.0317598,0 0.0642795,0.00139764 0.097315,0.0041811 0.0317953,0.0026811 0.0647913,0.00684646 0.098748,0.0124724l0.000204724 0c0.136051,0.0226614 0.246,0.100378 0.37328,0.190343l-3.93701e-006 7.87402e-006 5.51181e-005 2.75591e-005c0.241122,0.170488 0.45802,0.255886 0.672984,0.255957 0.214988,7.48031e-005 0.432051,-0.0851614 0.673492,-0.255909l9.44882e-005 0.000137795 0.000377953 -0.000267717 0 -0.000204724c0.127358,-0.0899449 0.237114,-0.167457 0.37326,-0.190091 0.0338858,-0.00562598 0.0668425,-0.0097874 0.0986339,-0.0124685 0.0330394,-0.0027874 0.0655787,-0.00418504 0.0973583,-0.00418504 0.0543858,0 0.103402,0.00349606 0.148559,0.00888189 0.0446339,0.00532283 0.0850866,0.0124803 0.123157,0.0199173 0.0216732,0.00424016 0.0413386,0.00745669 0.0588622,0.00961811 0.0162323,0.00200394 0.030189,0.00301575 0.0417323,0.00301575l0.000834646 0.000208661 0.00202362 3.14961e-005 0 -0.000192913 0.00276378 0c0.0169606,0 0.0305551,-0.00382677 0.0402835,-0.0111142 0.00992126,-0.00743307 0.0174646,-0.0193386 0.0221378,-0.0353386l0 -0.000208661c0.00590157,-0.0200236 0.0106142,-0.038 0.014689,-0.0549213l0 -0.000208661c0.00316535,-0.0131339 0.00766142,-0.0335118 0.0123701,-0.0550354l8.66142e-005 -0.000397638c0.00906299,-0.0415118 0.0238228,-0.109087 0.0435394,-0.135681l0.0345827 -0.0208346c0.187744,-0.0291496 0.332705,-0.0644409 0.436339,-0.106472 0.0935079,-0.0379213 0.149185,-0.0789646 0.168343,-0.123661l0 -0.000208661c0.00228346,-0.00530315 0.00391339,-0.00997244 0.0048622,-0.0139528 0.00102362,-0.00429134 0.0016811,-0.00893701 0.00196063,-0.013878 0.000688976,-0.0124173 -0.0033189,-0.0240551 -0.0105354,-0.0330551 -0.00728346,-0.00907874 -0.0177559,-0.0155551 -0.0299016,-0.0175512 -0.349028,-0.0575236 -0.601059,-0.264189 -0.767429,-0.460228 -0.164965,-0.19439 -0.246197,-0.379862 -0.252673,-0.394953l-0.000370079 -0.000795276c0,5.51181e-005 -0.000110236,-0.000129921 -0.000464567,-0.000822835l-0.000208661 -0.000622047c-0.0203543,-0.0412756 -0.0328976,-0.0800079 -0.0376102,-0.115917 -0.0051811,-0.0394961 -0.00092126,-0.0755709 0.0127835,-0.107909 0.0250984,-0.0591575 0.0794488,-0.101169 0.141339,-0.132488 0.0563661,-0.0285157 0.117291,-0.0478543 0.165807,-0.0632244 0.0174016,-0.00552362 0.0340197,-0.0108031 0.0370315,-0.0118071 0.0103976,-0.00347638 0.0206024,-0.00709449 0.0307087,-0.0110709l-2.75591e-005 -7.08661e-005c0.0767756,-0.0303228 0.133441,-0.0631535 0.169724,-0.0982323 0.0302559,-0.029252 0.0452362,-0.0596299 0.0447165,-0.0908937l-3.93701e-006 0c-0.000464567,-0.0237756 -0.0104449,-0.0468346 -0.0280433,-0.0670079 -0.0198425,-0.0227441 -0.0492677,-0.0419173 -0.0861496,-0.0550906l3.14961e-005 -8.26772e-005 -0.00279921 -0.00105118c-0.0118819,-0.00492913 -0.0250472,-0.00877559 -0.0388386,-0.0114173 -0.013752,-0.00263386 -0.0283307,-0.00401181 -0.0430669,-0.00401181l0 -0.000208661c-0.011,0 -0.0249764,0.000838583 -0.0397323,0.00382677 -0.0104449,0.00211417 -0.021315,0.00535433 -0.0317008,0.0102087 -0.0424882,0.0199134 -0.082752,0.0352677 -0.120539,0.0459803 -0.0390512,0.0110709 -0.0761969,0.0174252 -0.111165,0.0189921l-0.00458268 0c-0.0216496,-0.00101181 -0.0400827,-0.00395276 -0.0555157,-0.0077874 -0.021874,-0.00543701 -0.0384882,-0.0127047 -0.0502323,-0.0191693l-0.0294094 -0.016189 0.00190945 -0.0333937c0.00257087,-0.0449921 0.00543307,-0.0881772 0.00840551,-0.133087 0.0209094,-0.315929 0.0474528,-0.716772 -0.0583858,-0.954063 -0.117429,-0.263299 -0.284311,-0.434661 -0.456984,-0.545925 -0.285252,-0.183807 -0.587173,-0.204803 -0.708677,-0.204803 -0.28315,0 -0.538701,0.0524016 -0.752969,0.172705 -0.213035,0.119614 -0.386646,0.307264 -0.50761,0.57848zm-0.163504 0.973071l-1.1811e-005 0c-0.0212795,-0.338819 -0.047752,-0.760307 0.066437,-1.0164 0.130988,-0.293693 0.320039,-0.497484 0.552602,-0.628063 0.231335,-0.129886 0.504366,-0.186461 0.805055,-0.186461 0.131134,0 0.457122,0.022748 0.766173,0.22189 0.188,0.121142 0.369445,0.307154 0.496567,0.592177 0.116709,0.261661 0.0892165,0.676835 0.0675591,1.00406 -0.00214567,0.0324055 -0.00423622,0.0639646 -0.00605512,0.0930866 0.00787795,0.00165354 0.0168661,0.00291732 0.0270157,0.0035 0.0257008,-0.00136614 0.0539764,-0.00642913 0.0846299,-0.0151181 0.0328543,-0.00931496 0.067689,-0.0225827 0.104287,-0.0397362 0.0186732,-0.00872835 0.0377598,-0.0144528 0.0558661,-0.018122 0.0228071,-0.00461811 0.0440039,-0.00591732 0.0605669,-0.00591339l0 -0.000208661c0.0208031,0 0.0421575,0.00209055 0.0630669,0.00609843 0.0198937,0.00381102 0.0392441,0.00941339 0.057189,0.0166535l0.000251969 6.29921e-005c0.0539528,0.0192717 0.0985276,0.0490709 0.130315,0.0855079 0.0340157,0.0389882 0.0533228,0.0853504 0.0542953,0.134921l0 0.000208661c0.00116929,0.0620551 -0.0246929,0.118661 -0.0772165,0.169441 -0.0465591,0.0450157 -0.11478,0.0853701 -0.204307,0.120728l-0.000208661 0c-0.010122,0.00398819 -0.022374,0.00829134 -0.0358898,0.012811 -0.0209646,0.00700394 -0.0298346,0.00983071 -0.0386929,0.0126417 -0.0453701,0.014374 -0.102335,0.0324488 -0.14998,0.0565551 -0.0421181,0.021311 -0.0779528,0.047189 -0.0913386,0.0787402 -0.00621654,0.0146693 -0.00797638,0.0323583 -0.00527953,0.0529094 0.0031378,0.0239252 0.0122559,0.0513228 0.0273228,0.0819961l7.87402e-005 -3.93701e-005c0.000456693,0.000897638 0.000318898,0.000830709 0.00194094,0.0043622l7.87402e-005 -3.54331e-005c0.000405512,0.000885827 0.000992126,0.0022126 0.00172835,0.00395276 0.00598031,0.0139331 0.0810433,0.18526 0.236012,0.367874 0.153571,0.180961 0.385169,0.371551 0.703264,0.423976 0.0390945,0.00642913 0.0725906,0.0270315 0.0957283,0.0558819 0.023189,0.0289173 0.036063,0.0660866 0.033874,0.105559 -0.000598425,0.0106299 -0.00223228,0.0215433 -0.00488189,0.032626 -0.0027126,0.0113465 -0.00614961,0.021874 -0.0102795,0.0314567l-7.87402e-005 -3.14961e-005c-0.0308228,0.0717244 -0.105646,0.131681 -0.226177,0.180563 -0.105118,0.0426339 -0.248555,0.0785157 -0.431654,0.108209 -0.00596457,0.0204843 -0.0134685,0.0548307 -0.0186417,0.0785276l-8.66142e-005 0.000397638c-0.0035,0.0160039 -0.00727165,0.032937 -0.0132047,0.0575394l-4.72441e-005 -1.1811e-005c-0.00499606,0.0207441 -0.0102283,0.0409094 -0.0158937,0.0601417l-5.90551e-005 -1.5748e-005c-0.0113425,0.0386969 -0.0319409,0.0692323 -0.0604094,0.090563 -0.0287047,0.0215 -0.0638543,0.0327835 -0.104031,0.0327835l-0.00276378 0 -0.000834646 -0.000208661 -0.00202362 -3.14961e-005 0 0.000192913c-0.0156496,0 -0.0339213,-0.00129134 -0.0546457,-0.00385039 -0.0195157,-0.00240945 -0.041689,-0.00604331 -0.0663661,-0.0108701 -0.0358268,-0.007 -0.0737835,-0.0137244 -0.115236,-0.0186654 -0.0409173,-0.00487795 -0.0857165,-0.00804724 -0.136063,-0.00804724 -0.029248,0 -0.0588661,0.00125984 -0.0886102,0.00376772 -0.0307126,0.00259055 -0.0608976,0.00633465 -0.0902953,0.0112165 -0.111571,0.0185512 -0.212256,0.0896575 -0.329094,0.172169l-9.44882e-005 -0.000137795 -0.000377953 0.000267717 0 0.000204724c-0.259535,0.183543 -0.496201,0.275169 -0.734744,0.275083 -0.238559,-8.26772e-005 -0.475055,-0.0918701 -0.734236,-0.27513l3.93701e-006 -7.87402e-006 -5.51181e-005 -2.75591e-005c-0.11672,-0.0825 -0.217547,-0.153772 -0.329524,-0.172421l3.93701e-006 -3.14961e-005c-0.0293937,-0.00486614 -0.0595472,-0.00860236 -0.0902087,-0.011189 -0.0297362,-0.00250394 -0.0593307,-0.00376378 -0.0885669,-0.00376378 -0.0532165,0 -0.100083,0.00401575 -0.141031,0.0095 -0.0398425,0.00533071 -0.0780394,0.0127953 -0.110272,0.0190906 -0.0225157,0.00442126 -0.0435,0.00853937 -0.0617717,0.0113583 -0.020937,0.00323228 -0.0405866,0.00527953 -0.0592441,0.00527953 -0.0459252,0 -0.0808307,-0.0128858 -0.107331,-0.0321654l0 -0.000208661c-0.0353346,-0.0257165 -0.0535079,-0.0610945 -0.0627559,-0.0925906 -0.00664961,-0.0226142 -0.0118622,-0.0427362 -0.0163189,-0.0614724 -0.00433858,-0.0182598 -0.00863386,-0.0379528 -0.0128543,-0.0573701l-0.000216535 -0.000988189c-0.00520472,-0.0237953 -0.0126929,-0.0580118 -0.0186417,-0.0784331 -0.183047,-0.0296732 -0.326472,-0.0655906 -0.431594,-0.108307 -0.120665,-0.0490315 -0.195559,-0.109205 -0.226366,-0.181236l0 -0.000208661c-0.00457874,-0.0108071 -0.00805118,-0.0211654 -0.0103858,-0.031 -0.00243701,-0.0102717 -0.00399213,-0.0210984 -0.0046378,-0.0324134 -0.00216535,-0.0394803 0.0107283,-0.0766614 0.0339213,-0.105587 0.0231299,-0.0288465 0.056626,-0.0494606 0.0957323,-0.0559094 0.317945,-0.0523386 0.549528,-0.242921 0.703122,-0.423898 0.154827,-0.182429 0.230118,-0.354181 0.23613,-0.368161l0.00011811 5.11811e-005c0.00183858,-0.00443307 0.00220866,-0.00524409 0.00249606,-0.00585039l7.87402e-005 3.93701e-005 0.000397638 -0.000838583 0.000417323 -0.000834646c0.0152362,-0.030937 0.0244606,-0.0585591 0.027626,-0.0826693 0.00268504,-0.0204646 0.000964567,-0.0380866 -0.00518898,-0.0527047l-7.48031e-005 3.14961e-005c-0.0290079,-0.0683228 -0.156736,-0.10889 -0.241283,-0.135736l-5.51181e-005 0 -5.51181e-005 0.000173228c-0.00687402,-0.00217323 -0.0138622,-0.00438583 -0.0382992,-0.0125354 -0.0150906,-0.00502756 -0.0278583,-0.00946457 -0.0364488,-0.0128583 -0.106134,-0.0419252 -0.174146,-0.0879606 -0.216465,-0.133406 -0.0634055,-0.0680945 -0.0719685,-0.135472 -0.0616811,-0.189543 0.0116772,-0.0615236 0.051626,-0.112268 0.10374,-0.148114 0.0548071,-0.0376929 0.124173,-0.0594646 0.187047,-0.0594646 0.0174843,0 0.0348346,0.00175591 0.0519173,0.00525197 0.0170039,0.00348425 0.0331654,0.0087874 0.0483543,0.0158976 0.039437,0.0184882 0.0768622,0.0324646 0.111992,0.0418583 0.0330394,0.00883465 0.0635039,0.0132835 0.0911496,0.0132835 0.0159843,0 0.029185,-0.00149606 0.0399961,-0.00374803 -0.00108661,-0.0176457 -0.00227559,-0.0365315 -0.00344488,-0.0551811l-0.00155118 -0.024689 0 -0.000208661 -1.5748e-005 -0.000251969zm2.71565 0.882744l0 -0.000114173 -0.000208661 -0.000444882 -1.1811e-005 7.87402e-006 0.000220472 0.000551181zm-0.000208661 -0.000559055c-0.000102362,-0.000216535 -7.87402e-005,-0.00015748 -1.1811e-005,7.87402e-006l1.1811e-005 -7.87402e-006z"/></g><rect class="fil1" height="6.82666" width="6.82666"/></svg>