<?xml version="1.0" ?><!DOCTYPE svg  PUBLIC '-//W3C//DTD SVG 1.1//EN'  'http://www.w3.org/Graphics/SVG/1.1/DTD/svg11.dtd'><svg height="6.82666in" style="shape-rendering:geometricPrecision; text-rendering:geometricPrecision; image-rendering:optimizeQuality; fill-rule:evenodd; clip-rule:evenodd" viewBox="0 0 6.82666 6.82666" width="6.82666in" xml:space="preserve" xmlns="http://www.w3.org/2000/svg" xmlns:xlink="http://www.w3.org/1999/xlink"><defs><style type="text/css">
   <![CDATA[
    .fil1 {fill:none}
    .fil0 {fill:#212121;fill-rule:nonzero}
   ]]>
  </style></defs><g id="Layer_x0020_1"><path class="fil0" d="M0.908673 3.24976l-0.00179921 -1.59502 -5.11811e-005 -0.0464488 0.0460945 -0.00625984 1.96269 -0.266528 0.0604173 -0.00820079 0 0.0609094 0 1.86155 0 0.0533346 -0.0533346 0 -1.96089 0 -0.053063 0 -6.29921e-005 -0.0533346zm0.104504 -1.54857l0.00168898 1.49524 1.85449 0 0 -1.7473 -1.85618 0.252063zm2.22909 -0.413209l2.61625 -0.380685 0.0608346 -0.00885039 0 0.0615591 0 2.28976 0 0.0533346 -0.0533346 0 -2.61625 0 -0.0533346 0 0 -0.0533346 0 -1.90907 0 -0.0460354 0.0458346 -0.00667323zm2.57041 -0.266417l-2.50958 0.365165 0 1.8097 2.50958 0 0 -2.17487zm0.107114 2.55534l-0.000653543 2.28977 -1.9685e-005 0.0612047 -0.0603976 -0.00849606 -2.61625 -0.368067 -0.0460433 -0.00648031 0 -0.0462283 0 -1.9217 0 -0.0533346 0.0533346 0 2.6169 0 0.0531378 0 -1.1811e-005 0.0533346zm-0.10689 2.22856l0.000622047 -2.17523 -2.51043 0 0 1.82213 2.5098 0.353094zm-2.8973 -0.295823l-1.96109 -0.268791 -0.0460394 -0.00631102 -3.93701e-006 -0.0463976 -0.000102362 -1.61124 0 -0.0533346 0.053126 0 1.9612 0 0.0533346 0 0 0.0533346 0 1.88003 0 0.0609882 -0.0604173 -0.00827953zm-1.90089 -0.367898l1.85464 0.254201 0 -1.76571 -1.85473 0 9.44882e-005 1.51151z"/></g><rect class="fil1" height="6.82666" width="6.82666"/></svg>