<?xml version="1.0" ?><!DOCTYPE svg  PUBLIC '-//W3C//DTD SVG 1.1//EN'  'http://www.w3.org/Graphics/SVG/1.1/DTD/svg11.dtd'><svg height="6.82666in" style="shape-rendering:geometricPrecision; text-rendering:geometricPrecision; image-rendering:optimizeQuality; fill-rule:evenodd; clip-rule:evenodd" viewBox="0 0 6.82666 6.82666" width="6.82666in" xml:space="preserve" xmlns="http://www.w3.org/2000/svg" xmlns:xlink="http://www.w3.org/1999/xlink"><defs><style type="text/css">
   <![CDATA[
    .fil1 {fill:none}
    .fil0 {fill:#212121;fill-rule:nonzero}
   ]]>
  </style></defs><g id="Layer_x0020_1"><path class="fil0" d="M5.21334 3.4818c-0.00716142,-0.0464055 -0.0189843,-0.088252 -0.0354724,-0.125571 -0.0222559,-0.0503661 -0.0531496,-0.0925827 -0.0926929,-0.126728l-0.000208661 0c-0.040311,-0.0350906 -0.0854252,-0.0613819 -0.135276,-0.0787992 -0.0505118,-0.0176535 -0.106744,-0.0265118 -0.168634,-0.0265118 -0.0670709,0 -0.125909,0.00941339 -0.176594,0.0280906 -0.0494016,0.0182047 -0.0914724,0.0453583 -0.126272,0.0813189l-0.000208661 0.000208661c-0.0360354,0.0367559 -0.0654409,0.0805354 -0.0882913,0.131327 -0.0159567,0.0354724 -0.0286969,0.0743661 -0.038248,0.116665l0.861898 0zm0.0620236 -0.168484c0.0279291,0.0632047 0.0447598,0.135925 0.0505118,0.218276l0.00397244 0.056878 -0.0570984 0 -0.985217 0 -0.0615551 0 0.00884646 -0.0608346c0.011122,-0.0764961 0.0303504,-0.145252 0.0577874,-0.206248 0.0278819,-0.0619724 0.0642953,-0.115961 0.109331,-0.161949l-3.93701e-006 -3.93701e-006c0.0460512,-0.0475866 0.101311,-0.0833701 0.165854,-0.107154 0.0627205,-0.0231142 0.133783,-0.0347598 0.213264,-0.0347598 0.0733031,0 0.141209,0.0109488 0.203634,0.0327638 0.0632441,0.0220984 0.120028,0.0550591 0.170276,0.0987992l-9.05512e-005 0.000102362c0.0517087,0.0446772 0.0918661,0.0993583 0.120488,0.16413z"/><path class="fil0" d="M5.89996 3.47046c0.00636614,0.0425906 0.0112795,0.0935709 0.0146614,0.152909 0.0032126,0.0563819 0.00496457,0.121449 0.00516929,0.195197l0.000208661 0 0 0.033185 -0.000208661 0c-3.54331e-005,0.0102953 -0.000102362,0.0204055 -0.000188976,0.030311 -8.66142e-005,0.0104646 -0.000208661,0.0207598 -0.000350394,0.0309173l-0.000740157 0.0527087 -0.0523858 0 -1.53515 0c0.00796063,0.0782992 0.0260394,0.146035 0.0542913,0.203161 0.0334685,0.0676732 0.0817126,0.120823 0.144787,0.15937l0.000830709 0.000417323c0.0389449,0.0247323 0.081878,0.0431535 0.12874,0.0553465 0.0477165,0.0124173 0.100374,0.0185748 0.157906,0.0185748 0.0597283,0 0.113425,-0.00742126 0.16102,-0.0224055 0.0461732,-0.0145394 0.0869961,-0.0363661 0.122394,-0.0656181l0.000417323 -0.000208661c0.0190236,-0.0153976 0.0369882,-0.0339961 0.0539134,-0.0556063 0.0179016,-0.0228622 0.0346929,-0.0490433 0.050374,-0.0783386l0.0151654 -0.0283346 0.0317087 0 0.583547 0 0.0600079 0 -0.00709055 0.0595827c-0.00849606,0.071378 -0.0319449,0.142992 -0.0704882,0.214941 -0.0375394,0.0700827 -0.0892283,0.140102 -0.155209,0.210173l1.1811e-005 1.1811e-005c-0.103406,0.112256 -0.227681,0.19661 -0.372705,0.25289 -0.143504,0.055685 -0.306555,0.0836102 -0.489024,0.0836102 -0.151165,0 -0.293898,-0.0235354 -0.428232,-0.0705 -0.134217,-0.0469252 -0.25937,-0.117122 -0.375508,-0.210492l-0.000204724 -0.000208661c-0.118461,-0.0959094 -0.207193,-0.221205 -0.26611,-0.375988 -0.0579252,-0.152181 -0.0869331,-0.332606 -0.0869331,-0.54137 0,-0.195543 0.026,-0.368756 0.0780591,-0.519677 0.0527244,-0.152854 0.132169,-0.28272 0.238382,-0.389646 0.106039,-0.106591 0.227681,-0.186417 0.365083,-0.239634 0.136791,-0.0529803 0.288386,-0.0793937 0.454949,-0.0793937 0.0983346,0 0.192126,0.00879528 0.281358,0.0264882 0.0893937,0.0177283 0.174283,0.0445354 0.254638,0.0805197 0.0810669,0.0363622 0.154921,0.0830669 0.22161,0.140228 0.0663228,0.0568465 0.125622,0.124083 0.177937,0.201811l3.93701e-006 -3.93701e-006c0.0471496,0.0685236 0.0859646,0.142488 0.116591,0.222051 0.0303858,0.078937 0.0525236,0.163087 0.0665591,0.252602l0.000208661 0.000417323zm-0.0915906 0.158744c-0.00313386,-0.0550079 -0.00777165,-0.102803 -0.0138268,-0.143327l0.000137795 -1.9685e-005c-0.0128937,-0.0820433 -0.033063,-0.158835 -0.0606535,-0.230504 -0.0273976,-0.0711772 -0.0623307,-0.137646 -0.104921,-0.199547l-0.000417323 -0.000625984c-0.0468701,-0.069748 -0.0999252,-0.129965 -0.159193,-0.180764 -0.0590827,-0.0506417 -0.124331,-0.091937 -0.195776,-0.123984 -0.0724331,-0.032437 -0.149685,-0.056748 -0.231724,-0.0730157 -0.0822087,-0.0162992 -0.169193,-0.0244016 -0.260941,-0.0244016 -0.153933,0 -0.292756,0.0239173 -0.416618,0.0718898 -0.123252,0.0477362 -0.232535,0.119512 -0.327996,0.215469 -0.0944921,0.095126 -0.165465,0.211524 -0.212965,0.349228 -0.0481654,0.139642 -0.0722244,0.301323 -0.0722244,0.485094 0,0.195898 0.0266417,0.363685 0.0798465,0.503457 0.0521732,0.137071 0.129996,0.247445 0.233382,0.33122l1.9685e-005 -2.3622e-005c0.106709,0.0857874 0.221307,0.15015 0.343839,0.192988 0.122421,0.0427992 0.253484,0.064248 0.393232,0.064248 0.169799,0 0.320063,-0.0254173 0.450693,-0.0761063 0.129406,-0.0502165 0.240346,-0.125539 0.332705,-0.225803l0.000417323 -0.000417323c0.0600236,-0.063689 0.106437,-0.126217 0.139362,-0.187689 0.021185,-0.0395433 0.0368622,-0.0788228 0.0470591,-0.117854l-0.488366 0c-0.0140354,0.023689 -0.0288425,0.0455276 -0.0444213,0.0654213 -0.0218937,0.0279567 -0.0452953,0.0521654 -0.0702283,0.0723976l6.29921e-005 7.87402e-005c-0.0460906,0.0380866 -0.099,0.0664291 -0.158638,0.0852087 -0.0582205,0.0183307 -0.122465,0.0274055 -0.192689,0.0274055 -0.0656693,0 -0.127213,-0.00740551 -0.184575,-0.0223307 -0.0582205,-0.0151496 -0.111295,-0.0378661 -0.15915,-0.0682598l4.33071e-005 -6.69291e-005c-0.080248,-0.0492362 -0.141551,-0.116807 -0.184,-0.202634 -0.0413346,-0.0835866 -0.0643031,-0.184106 -0.0690039,-0.3015l-0.00222047 -0.0554173 0.0553465 0 1.53954 0 3.14961e-005 -0.00726772 -0.000208661 0 0 -0.033185 0.000208661 0c-0.000192913,-0.0696299 -0.00194488,-0.13278 -0.00516929,-0.189362z"/><path class="fil0" d="M2.76554 3.97463c0,-0.0697598 -0.0136969,-0.127791 -0.0410748,-0.173929 -0.0266181,-0.0448504 -0.0671181,-0.0797244 -0.121472,-0.104445l-0.000417323 -0.000204724c-0.0319409,-0.0147756 -0.0711024,-0.0260394 -0.117295,-0.0338504 -0.048563,-0.00821654 -0.103882,-0.0126142 -0.165783,-0.0132795l0 0.000204724 -0.602055 0 0 0.707161 0.591969 0c0.0634094,0 0.119201,-0.00405512 0.167413,-0.0123504 0.0465984,-0.00801575 0.0859055,-0.0197756 0.117961,-0.0354291l-7.87402e-005 -0.000161417c0.0566299,-0.028185 0.0989646,-0.068878 0.126992,-0.122181 0.0292244,-0.0555866 0.0438425,-0.126063 0.0438425,-0.211535zm0.0505945 -0.228094c0.037378,0.0629882 0.0560748,0.139087 0.0560748,0.228094 0,0.102681 -0.0187835,0.189677 -0.0563465,0.261118 -0.0387717,0.0737362 -0.0966614,0.129693 -0.173661,0.168016l-0.000413386 0c-0.0418858,0.0205197 -0.0908701,0.0355079 -0.147051,0.0451732 -0.0547323,0.00941732 -0.116472,0.0140197 -0.185327,0.0140197l-0.645303 0 -0.0533307 0 -3.93701e-006 -0.0533346 0 -0.813831 0 -0.0533346 0.0533346 0 0.65539 0 0.000417323 0.000208661c0.068626,0.000716535 0.129646,0.0055315 0.182862,0.0145354 0.0555079,0.00938976 0.103559,0.0233543 0.143961,0.0419882l3.93701e-006 -1.1811e-005c0.074874,0.0340512 0.13135,0.083252 0.169394,0.147358z"/><path class="fil0" d="M1.71744 3.03721l0.592705 0c0.0625197,0 0.118539,-0.00583858 0.168142,-0.0175039 0.0482283,-0.0113425 0.0904803,-0.0281575 0.126831,-0.0504213l0.000208661 0c0.0319606,-0.0194134 0.0559764,-0.0466575 0.0721063,-0.0817008 0.0172441,-0.0374764 0.0258268,-0.0845709 0.0258268,-0.14126 0,-0.0617126 -0.0112362,-0.111937 -0.0337283,-0.150575 -0.0210197,-0.0360984 -0.0528346,-0.0632047 -0.0954567,-0.0812165 -0.0437598,-0.0144567 -0.093874,-0.0255354 -0.150244,-0.0330354 -0.0566181,-0.00752756 -0.120425,-0.0113976 -0.191362,-0.0113976l-0.515028 0 0 0.56711zm0.592705 0.106669l-0.646039 0 -0.0533346 0 0 -0.0533346 0 -0.67378 0 -0.0533346 0.0533346 0 0.568362 0c0.0738465,0 0.142276,0.00429134 0.20511,0.0126496 0.0640669,0.00851969 0.121425,0.0213346 0.171921,0.0381772l0.00333465 0.00125197c0.0658386,0.0272756 0.115425,0.0696339 0.148776,0.126909 0.0322205,0.0553504 0.0483189,0.123362 0.0483189,0.203906 0,0.0719055 -0.0119016,0.133858 -0.0358268,0.185843 -0.0250197,0.0543504 -0.0628583,0.0969803 -0.113622,0.127858l5.51181e-005 9.44882e-005c-0.0461693,0.0282795 -0.0988307,0.0493976 -0.158083,0.0633346 -0.057878,0.0136142 -0.121949,0.0204252 -0.192307,0.0204252z"/><path class="fil0" d="M3.38813 3.54232c0.042626,0.0661063 0.0745984,0.139189 0.0958976,0.21924 0.0210787,0.0792283 0.031622,0.164795 0.031622,0.256693l-0.000208661 0c1.1811e-005,0.0955906 -0.0118031,0.186236 -0.035622,0.271937 -0.0240512,0.0865394 -0.0600787,0.167807 -0.108248,0.243791l-6.29921e-005 -3.93701e-005c-0.0306181,0.0502402 -0.0649094,0.0964921 -0.10287,0.138661 -0.0377559,0.0419409 -0.0795787,0.0801969 -0.125488,0.114697l2.75591e-005 3.54331e-005c-0.051874,0.0399528 -0.108531,0.0735591 -0.169807,0.100815 -0.0610984,0.0271732 -0.126768,0.0480197 -0.196827,0.0625276 -0.0681142,0.0141024 -0.139169,0.0247205 -0.213083,0.0318031 -0.0746654,0.00715354 -0.150862,0.010748 -0.22852,0.010748l-1.37495 0 -0.0533346 0 0 -0.0533346 0 -3.05313 0 -0.0533346 0.0533346 0 1.47453 0 0.000834646 0.000208661c0.192539,0.0031811 0.357783,0.0329213 0.495713,0.0895551 0.141008,0.0578976 0.253327,0.143583 0.336941,0.257402l0.000208661 0.000417323c0.0503425,0.0698622 0.0879252,0.146433 0.112846,0.22965 0.0247953,0.082815 0.0371457,0.172 0.0371457,0.267524 0,0.0985591 -0.0125433,0.187835 -0.0376929,0.267988 -0.0255039,0.0812598 -0.0640472,0.152909 -0.115697,0.21511l1.9685e-005 1.5748e-005c-0.0292756,0.0355197 -0.0648622,0.0689528 -0.106768,0.10026 -0.0151535,0.0113228 -0.0312362,0.0224488 -0.0482559,0.0333819 0.0427047,0.021752 0.0821969,0.0464449 0.118437,0.074126 0.0635236,0.0485276 0.116854,0.106236 0.15978,0.173307l9.44882e-005 -5.90551e-005zm-0.00701575 0.246327c-0.0183583,-0.069 -0.0458858,-0.131945 -0.0825669,-0.188831l0 -0.000208661c-0.0359094,-0.0561417 -0.0809291,-0.104744 -0.134874,-0.145953 -0.0543937,-0.0415472 -0.118083,-0.0755866 -0.190866,-0.10226l-0.114728 -0.0420433 0.109106 -0.0554567c0.0481614,-0.0244764 0.0905433,-0.0504016 0.127142,-0.077748 0.0357205,-0.026689 0.0651969,-0.0541457 0.088437,-0.0823386l0.000204724 -0.000208661c0.0425,-0.0511339 0.0744449,-0.110787 0.0958819,-0.179091 0.021815,-0.0695197 0.0326929,-0.14824 0.0326929,-0.236319 0,-0.0854803 -0.0108268,-0.164528 -0.0325551,-0.237106 -0.0215669,-0.0720157 -0.0537913,-0.137906 -0.096752,-0.197614l-5.90551e-005 4.33071e-005c-0.0718307,-0.0977835 -0.169016,-0.171681 -0.291524,-0.221984 -0.125386,-0.0514843 -0.277445,-0.0785945 -0.45613,-0.0816181l0 0.000192913 -1.4212 0 0 2.94646 1.32161 0c0.0767992,0 0.149657,-0.00331496 0.21852,-0.00991339 0.0699528,-0.00670079 0.137256,-0.0167638 0.201831,-0.0301339 0.0624016,-0.0129213 0.120709,-0.0314094 0.174748,-0.0554409 0.0535551,-0.0238189 0.102984,-0.053126 0.148138,-0.0879016l0.000625984 -0.000417323c0.0398858,-0.0299173 0.0767717,-0.063752 0.110669,-0.101402 0.0339646,-0.0377283 0.0645236,-0.0789606 0.0916811,-0.123618l0.000417323 -0.000830709c0.0428071,-0.0675276 0.0746772,-0.139213 0.095752,-0.215043 0.0213071,-0.0766654 0.031874,-0.15787 0.0318661,-0.243606l-0.000208661 0c0,-0.083252 -0.00929134,-0.159791 -0.0278661,-0.229606z"/><polygon class="fil0" points="4.14229,2.18666 5.42229,2.18666 5.42229,2.29333 4.14229,2.29333 "/></g><rect class="fil1" height="6.82666" width="6.82666"/></svg>