<?xml version="1.0" ?><!DOCTYPE svg  PUBLIC '-//W3C//DTD SVG 1.1//EN'  'http://www.w3.org/Graphics/SVG/1.1/DTD/svg11.dtd'><svg height="6.82666in" style="shape-rendering:geometricPrecision; text-rendering:geometricPrecision; image-rendering:optimizeQuality; fill-rule:evenodd; clip-rule:evenodd" viewBox="0 0 6.82666 6.82666" width="6.82666in" xml:space="preserve" xmlns="http://www.w3.org/2000/svg" xmlns:xlink="http://www.w3.org/1999/xlink"><defs><style type="text/css">
   <![CDATA[
    .fil1 {fill:none}
    .fil0 {fill:#212121;fill-rule:nonzero}
   ]]>
  </style></defs><g id="Layer_x0020_1"><path class="fil0" d="M4.99066 4.03161l-0.0715236 -2.00344c-0.000200787,-0.00567323 -0.000311024,-0.00662992 -0.000311024,-0.00745276 0,-0.0543622 0.0214016,-0.103732 0.0564606,-0.140067 0.0350157,-0.0362953 0.0836378,-0.059437 0.138126,-0.0614016 0.00563386,-0.000200787 0.00667717,-0.000311024 0.00746063,-0.000311024l0.616413 0c0.0120472,0 0.0238386,0.00106299 0.0352717,0.00309843 0.0436024,0.00776378 0.0803819,0.0295276 0.106421,0.0606339 0.0260512,0.0311142 0.0410197,0.0710709 0.0410197,0.115201 0,0.0114331 -0.00103543,0.0232323 -0.00318504,0.0352913l0 0.000208661 -0.358173 2.00574 -0.00785039 0.0439606 -0.0446496 0 -0.462354 0 -0.0512913 0 -0.00183465 -0.0514606zm0.0347283 -2.00719l0.069685 1.95198 0.366417 0 0.350323 -1.96178 3.54331e-005 7.87402e-006c0.000996063,-0.00566929 0.00148031,-0.0112795 0.00148031,-0.0167598 0,-0.0184882 -0.00585039,-0.0347205 -0.0160197,-0.0468701 -0.0101732,-0.0121535 -0.0250551,-0.0207559 -0.0430827,-0.0239646 -0.00526772,-0.000937008 -0.0109331,-0.00142913 -0.0169409,-0.00142913l-0.616413 0c-0.00452362,0 -0.0017874,-0.000173228 -0.0037126,-0.000106299 -0.0257795,0.000929134 -0.0487323,0.0118228 -0.0652047,0.0288976 -0.0164291,0.0170276 -0.0264606,0.0403937 -0.0264606,0.0663189 0,0.00451969 -0.000173228,0.00176772 -0.000106299,0.00370472zm0.611114 2.66031c0,0.0888819 -0.0363228,0.16965 -0.0948346,0.228161 -0.0585118,0.0585118 -0.13928,0.0948346 -0.228161,0.0948346l-0.0770906 0c-0.088878,0 -0.169646,-0.0363228 -0.228157,-0.0948346 -0.0585118,-0.0585118 -0.0948346,-0.139283 -0.0948346,-0.228161l0 -0.0770906c0,-0.0888819 0.0363228,-0.16965 0.0948346,-0.228161 0.0585079,-0.0585118 0.13928,-0.0948346 0.228157,-0.0948346l0.0770906 0c0.0888819,0 0.16965,0.0363228 0.228161,0.0948346 0.0585118,0.0585118 0.0948346,0.139283 0.0948346,0.228161l0 0.0770906zm-0.170252 0.152744c0.0392283,-0.0392283 0.0635827,-0.0933031 0.0635827,-0.152744l0 -0.0770906c0,-0.059437 -0.0243543,-0.113516 -0.0635827,-0.152744 -0.0392283,-0.0392283 -0.0933031,-0.0635827 -0.152744,-0.0635827l-0.0770906 0c-0.059437,0 -0.113516,0.0243543 -0.15274,0.0635827 -0.0392283,0.0392283 -0.0635827,0.0933031 -0.0635827,0.152744l0 0.0770906c0,0.059437 0.0243543,0.113516 0.0635827,0.152744 0.0392283,0.0392283 0.0933031,0.0635827 0.15274,0.0635827l0.0770906 0c0.0594409,0 0.113516,-0.0243543 0.152744,-0.0635827zm-2.65696 -2.91187c-0.498024,0 -0.948303,0.16772 -1.27369,0.438866 -0.322681,0.268902 -0.522272,0.639772 -0.522272,1.04886 0,0.409087 0.199591,0.779957 0.522272,1.04886 0.325386,0.271146 0.775665,0.438866 1.27369,0.438866 0.498,0 0.94826,-0.167717 1.27364,-0.43887 0.322669,-0.268902 0.522256,-0.639772 0.522256,-1.04885l0 -7.87402e-006c0,-0.409083 -0.199583,-0.779949 -0.522252,-1.04884 -0.325528,-0.271283 -0.775807,-0.439083 -1.27363,-0.439083l0 0.000208661 -1.1811e-005 0zm-1.3416 0.357197c0.343921,-0.286594 0.818303,-0.463866 1.3416,-0.463866l1.1811e-005 0 0 0.000208661c0.523433,3.93701e-006 0.997791,0.177193 1.34155,0.463665 0.346614,0.288846 0.561008,0.688516 0.561008,1.13051l0 7.87402e-006c0,0.442 -0.214398,0.841669 -0.561012,1.13052 -0.343913,0.286598 -0.818276,0.46387 -1.34156,0.46387 -0.523299,0 -0.997681,-0.177272 -1.3416,-0.463866 -0.346626,-0.288854 -0.561028,-0.688528 -0.561028,-1.13053 0,-0.442 0.214402,-0.841673 0.561028,-1.13053zm2.57442 0.875626l-0.335524 0 -0.535783 0.535783 0 0.282193 0.409016 0 0.0533346 0 0 0.0533346 0 0.308236 0 0.0533346 -0.0533346 0 -1.23288 0 -0.0533346 0 0 -0.0533346 0 -0.308236 0 -0.0533346 0.0533346 0 0.40902 0 0 -0.282193 -0.844024 -0.843961 -0.180469 0 -0.0533346 0 0 -0.0533346 0 -0.308236 0 -0.0533346 0.0533346 0 0.922772 0 0.0533346 0 0 0.0533346 0 0.308236 0 0.0533346 -0.0533346 0 -0.0738543 0 0.382965 0.382976 0.100787 -0.100783 0 -0.335528 0 -0.0533346 0.0533346 0 0.924642 0 0.0533346 0 0 0.0533346 0 0.308177 0 0.0533346 -0.0533346 0zm-0.357606 -0.106669l0.304272 0 0 -0.201508 -0.817972 0 0 0.304276 0 0.0220866 -0.015626 0.015622 -0.154122 0.154118 -0.0377087 0.0377126 -0.0377087 -0.0377126 -0.511713 -0.511728 -0.0910394 -0.0910433 0.128748 0 0.149268 0 0 -0.201567 -0.816102 0 0 0.201567 0.149217 0 0.0377087 0.015626 0.875276 0.875213 0.015626 0.015622 0 0.0220866 0 0.35761 0 0.0533346 -0.0533346 0 -0.40902 0 0 0.201567 1.12621 0 0 -0.201567 -0.409016 0 -0.0533346 0 0 -0.0533346 0 -0.35761 0 -0.0220827 0.015626 -0.015626 0.567035 -0.567035 0.015626 -0.015626 0.0220827 0z"/></g><rect class="fil1" height="6.82666" width="6.82666"/></svg>