<?xml version="1.0" ?><!DOCTYPE svg  PUBLIC '-//W3C//DTD SVG 1.1//EN'  'http://www.w3.org/Graphics/SVG/1.1/DTD/svg11.dtd'><svg height="6.82666in" style="shape-rendering:geometricPrecision; text-rendering:geometricPrecision; image-rendering:optimizeQuality; fill-rule:evenodd; clip-rule:evenodd" viewBox="0 0 6.82666 6.82666" width="6.82666in" xml:space="preserve" xmlns="http://www.w3.org/2000/svg" xmlns:xlink="http://www.w3.org/1999/xlink"><defs><style type="text/css">
   <![CDATA[
    .fil1 {fill:none}
    .fil0 {fill:#212121;fill-rule:nonzero}
   ]]>
  </style></defs><g id="Layer_x0020_1"><path class="fil0" d="M1.23179 2.59157c-0.0607126,0 -0.115547,0.023874 -0.155098,0.0624606 -0.0391457,0.038189 -0.0633622,0.0910079 -0.0633622,0.14937l0 1.06073c0,0.0583858 0.0242165,0.111209 0.0633583,0.149402 0.0395551,0.0385984 0.0943858,0.0624724 0.155102,0.0624724 0.0607205,0 0.115551,-0.023874 0.155102,-0.0624685 0.0391378,-0.0381929 0.0633543,-0.0910157 0.0633543,-0.149406l0 -1.06073c0,-0.0583701 -0.0242087,-0.111189 -0.0633543,-0.149378 -0.0395472,-0.0385827 -0.0943701,-0.0624528 -0.155102,-0.0624528zm-0.229264 -0.0137913c0.058815,-0.057378 0.13989,-0.092878 0.229264,-0.092878 0.0893898,0 0.170461,0.0354961 0.229268,0.0928701 0.0592283,0.0577835 0.0958583,0.137571 0.0958583,0.22563l0 1.06073c0,0.0880787 -0.0366378,0.167866 -0.0958583,0.225657 -0.058811,0.0573858 -0.13989,0.0928858 -0.229268,0.0928858 -0.089378,0 -0.170457,-0.0355 -0.229268,-0.0928898 -0.0592244,-0.0577874 -0.0958622,-0.137579 -0.0958622,-0.225654l0 -1.06073c0,-0.0880591 0.0366417,-0.167843 0.0958661,-0.225622z"/><path class="fil0" d="M5.59487 2.4849c0.089374,0 0.170449,0.0355 0.229264,0.092878 0.0592244,0.0577795 0.0958661,0.137563 0.0958661,0.225622l-0.000208661 0 3.93701e-006 1.06073 0.000208661 0c0,0.0880748 -0.0366378,0.167866 -0.0958622,0.225654 -0.058815,0.0573898 -0.13989,0.0928898 -0.229276,0.0928898 -0.089378,0 -0.170457,-0.0355 -0.229264,-0.0928858 -0.0592244,-0.0577874 -0.0958583,-0.137579 -0.0958583,-0.225657l0 -1.06073c0,-0.0880551 0.0366378,-0.167839 0.0958622,-0.225622 0.058811,-0.0573819 0.139882,-0.092878 0.229264,-0.092878zm0.155098 0.16913c-0.0395512,-0.0385866 -0.0943858,-0.0624606 -0.155098,-0.0624606 -0.0607205,0 -0.115547,0.023874 -0.155098,0.0624606 -0.0391417,0.038189 -0.0633583,0.0910079 -0.0633583,0.14937l0 1.06073c0,0.0583898 0.0242126,0.111213 0.0633543,0.149406 0.0395472,0.0385906 0.0943819,0.0624685 0.155098,0.0624685 0.0607165,0 0.115555,-0.023878 0.15511,-0.0624724 0.0391417,-0.0381929 0.0633583,-0.0910157 0.0633583,-0.149402l0.000208661 0 -3.93701e-006 -1.06073 -0.000208661 0c0,-0.0583622 -0.0242165,-0.111181 -0.0633622,-0.14937z"/><path class="fil0" d="M1.82255 2.54303l0 1.88414c0,0.0673858 0.0313937,0.122421 0.0729724,0.164614 0.0689606,0.0699764 0.159866,0.104969 0.191925,0.104969l0.397748 0 0.0533346 0 0 0.0533346 0 0.807295c0,0.0596102 0.024378,0.113547 0.0637756,0.152555 0.039437,0.0390394 0.0941181,0.063189 0.154685,0.063189 0.0605748,0 0.115272,-0.0241535 0.154709,-0.0631929 0.0394134,-0.0390118 0.0637913,-0.0929488 0.0637913,-0.152551l0 -0.807295 0 -0.0533346 0.0533346 0 0.7425 0 0.0533346 0 0 0.0533346 0 0.807295c0,0.0596102 0.024378,0.113547 0.0637756,0.152555 0.0394291,0.0390354 0.0941142,0.063189 0.154685,0.063189 0.0605709,0 0.115252,-0.0241496 0.154681,-0.063189 0.0394016,-0.0390039 0.0637756,-0.0929449 0.0637756,-0.152555l0 -0.807295 0 -0.0533346 0.0533346 0 0.424307 0c0.0320591,0 0.122965,-0.0349921 0.191925,-0.104969 0.0415787,-0.0421929 0.0729724,-0.0972283 0.0729724,-0.164614l0 -1.88414 -3.18157 0zm-0.106669 1.88414l0 -1.93747 0 -0.0533346 0.0533346 0 3.28824 0 0.0533346 0 0 0.0533346 0 1.93747c0,0.0995945 -0.0446575,0.179173 -0.103807,0.239197 -0.0900394,0.0913661 -0.219681,0.137055 -0.26776,0.137055l-0.370972 0 0 0.753961c0,0.0889843 -0.0364764,0.169598 -0.0954449,0.227972 -0.0589331,0.0583465 -0.140154,0.0944409 -0.229681,0.0944409 -0.0895276,0 -0.170752,-0.0360984 -0.229685,-0.0944409 -0.0589646,-0.058378 -0.0954449,-0.138988 -0.0954449,-0.227972l0 -0.753961 -0.635831 0 0 0.753961c0,0.0889843 -0.0364843,0.169591 -0.0954606,0.227969 -0.0589409,0.0583465 -0.140181,0.0944449 -0.229709,0.0944449 -0.0895197,0 -0.170744,-0.0360945 -0.229685,-0.0944409 -0.0589646,-0.058378 -0.0954449,-0.138988 -0.0954449,-0.227972l0 -0.753961 -0.344413 0c-0.0480787,0 -0.17772,-0.045689 -0.26776,-0.137055 -0.0591496,-0.0600236 -0.103807,-0.139602 -0.103807,-0.239197z"/><path class="fil0" d="M2.71061 1.53026c0.073315,0 0.139681,0.0297165 0.187724,0.0777598 0.0480433,0.0480433 0.0777638,0.114429 0.0777638,0.187724 0,0.0733031 -0.0297205,0.139681 -0.0777638,0.187724 -0.0480354,0.0480354 -0.114409,0.0777559 -0.187724,0.0777559 -0.0732992,0 -0.139665,-0.0297244 -0.187693,-0.0777638 -0.0480354,-0.0480472 -0.077752,-0.114421 -0.077752,-0.187717 0,-0.073311 0.0297087,-0.139685 0.0777441,-0.187728 0.0480315,-0.0480433 0.114402,-0.0777559 0.187701,-0.0777559zm0.112307 0.153177c-0.0287323,-0.0287323 -0.068437,-0.0465079 -0.112307,-0.0465079 -0.0438543,0 -0.0835591,0.0177717 -0.112283,0.0465039 -0.0287244,0.0287323 -0.0464921,0.068437 -0.0464921,0.112311 0,0.0438583 0.0177717,0.0835669 0.0465,0.112299 0.0287283,0.0287323 0.0684291,0.0465118 0.112276,0.0465118 0.0438701,0 0.0835787,-0.0177756 0.112307,-0.0465039 0.0287362,-0.0287362 0.0465118,-0.0684488 0.0465118,-0.112307 0,-0.0438583 -0.0177756,-0.0835709 -0.0465118,-0.112307z"/><path class="fil0" d="M4.08955 1.53026c0.0732953,0 0.139669,0.0297244 0.187713,0.0777677 0.0480433,0.0480433 0.0777677,0.114421 0.0777677,0.187717 0,0.0732953 -0.0297244,0.139673 -0.0777677,0.187713 -0.0480394,0.0480433 -0.114409,0.0777677 -0.187713,0.0777677l0 -0.000208661c-0.0734291,-3.93701e-006 -0.139799,-0.0296496 -0.18772,-0.077563 -0.0480433,-0.0480394 -0.0777677,-0.114413 -0.0777677,-0.187709 0,-0.073311 0.0297244,-0.139677 0.0777598,-0.18772 0.0480512,-0.0480472 0.114433,-0.0777638 0.187728,-0.0777638zm0.112295 0.153185c-0.0287362,-0.0287362 -0.0684449,-0.0465157 -0.112295,-0.0465157 -0.0438583,0 -0.0835748,0.0177756 -0.112311,0.0465118 -0.0287283,0.0287323 -0.0465079,0.0684409 -0.0465079,0.112303 0,0.0438504 0.0177795,0.0835591 0.0465157,0.112291 0.0288701,0.0288661 0.0685945,0.0467283 0.112303,0.0467283l0 -0.000208661c0.0438543,0 0.083563,-0.0177795 0.112295,-0.0465157 0.0287362,-0.0287323 0.0465157,-0.0684409 0.0465157,-0.112295 0,-0.0438504 -0.0177795,-0.083563 -0.0465157,-0.112299z"/><path class="fil0" d="M5.00411 2.43216c0,-0.160004 -0.0313622,-0.313453 -0.089,-0.455953 -0.0596102,-0.147366 -0.147201,-0.283232 -0.257177,-0.40276l-0.153516 -0.144567c-0.144697,-0.11824 -0.31485,-0.213252 -0.502579,-0.278102 -0.181626,-0.062748 -0.380165,-0.0972441 -0.58852,-0.0972441 -0.214744,0 -0.419465,0.036874 -0.606283,0.103717 -0.193654,0.0692913 -0.368106,0.170823 -0.514551,0.296874l-2.3622e-005 -2.3622e-005 -0.140024 0.137406c-0.105035,0.118114 -0.188539,0.251591 -0.245311,0.395909 -0.0548189,0.139362 -0.0845827,0.288972 -0.0845827,0.444744l-0.106669 0c0,-0.16911 0.0324055,-0.331768 0.0920866,-0.483492 0.0616457,-0.15672 0.152559,-0.301685 0.267043,-0.429945l0.00229134 -0.0025 0.143106 -0.140433 0.0025 -0.0025c0.156193,-0.134445 0.342094,-0.242673 0.548299,-0.316457 0.198083,-0.070874 0.414917,-0.109969 0.642118,-0.109969 0.219535,0 0.429799,0.0367126 0.623102,0.103496 0.200791,0.0693661 0.382819,0.171228 0.537547,0.298114l0.00270866 0.00229134 0.154232 0.145244 0.0025 0.00270866c0.120059,0.129835 0.215598,0.277587 0.280449,0.437906 0.0627677,0.155181 0.0969213,0.321969 0.0969213,0.495535l-0.106669 0z"/><path class="fil0" d="M5.03261 1.12202c0.0208228,-0.0208228 0.0208228,-0.0545945 0,-0.0754173 -0.0208228,-0.0208228 -0.0545945,-0.0208228 -0.0754173,0l-0.359272 0.359272c-0.0208228,0.0208228 -0.0208228,0.0545945 0,0.0754173 0.0208228,0.0208228 0.0545945,0.0208228 0.0754173,0l0.359272 -0.359272z"/><path class="fil0" d="M1.84957 1.0466c-0.0208228,-0.0208228 -0.0545945,-0.0208228 -0.0754173,0 -0.0208228,0.0208228 -0.0208228,0.0545945 0,0.0754173l0.359272 0.359272c0.0208228,0.0208228 0.0545945,0.0208228 0.0754173,0 0.0208228,-0.0208228 0.0208228,-0.0545945 0,-0.0754173l-0.359272 -0.359272z"/></g><rect class="fil1" height="6.82666" width="6.82666"/></svg>