<?xml version="1.0" ?><!DOCTYPE svg  PUBLIC '-//W3C//DTD SVG 1.1//EN'  'http://www.w3.org/Graphics/SVG/1.1/DTD/svg11.dtd'><svg height="6.82666in" style="shape-rendering:geometricPrecision; text-rendering:geometricPrecision; image-rendering:optimizeQuality; fill-rule:evenodd; clip-rule:evenodd" viewBox="0 0 6.82666 6.82666" width="6.82666in" xml:space="preserve" xmlns="http://www.w3.org/2000/svg" xmlns:xlink="http://www.w3.org/1999/xlink"><defs><style type="text/css">
   <![CDATA[
    .fil1 {fill:none}
    .fil0 {fill:#212121;fill-rule:nonzero}
   ]]>
  </style></defs><g id="Layer_x0020_1"><g id="_264859288"><path class="fil0" d="M5.86667 3.6897l-0.392732 0 0 0.392732 0 0.0533346 -0.0533346 0 -0.446075 0 -0.0533346 0 0 -0.0533346 0 -0.392732 -0.392752 0 -0.0533346 0 0 -0.0533346 0 -0.446067 0 -0.0533346 0.0533346 0 0.392752 0 0 -0.39274 0 -0.0533346 0.0533346 0 0.446075 0 0.0533346 0 0 0.0533346 0 0.39274 0.392732 0 0.0533346 0 0 0.0533346 0 0.446067 0 0.0533346 -0.0533346 0zm-0.446067 -0.106669l0.392732 0 0 -0.339398 -0.392732 0 -0.0533346 0 0 -0.0533346 0 -0.39274 -0.339406 0 0 0.39274 0 0.0533346 -0.0533346 0 -0.392752 0 0 0.339398 0.392752 0 0.0533346 0 0 0.0533346 0 0.392732 0.339406 0 0 -0.392732 0 -0.0533346 0.0533346 0z" id="_264859480"/><path class="fil0" d="M2.52119 5.02786c-0.44961,0 -0.853213,-0.178799 -1.14447,-0.470055 -0.291256,-0.29126 -0.470055,-0.694862 -0.470055,-1.14447 0,-0.44961 0.178799,-0.853217 0.470059,-1.14447 0.291256,-0.29126 0.694862,-0.470059 1.14447,-0.470059 0.214858,0 0.413457,0.0390354 0.593004,0.111618 0.186559,0.0754173 0.351902,0.186713 0.492972,0.327783l0.0386496 0.0386535 -0.0396929 0.0375945 -0.423776 0.401409 -0.0377677 0.0357795 -0.0366063 -0.0366102c-0.0592874,-0.0592913 -0.145469,-0.125303 -0.262224,-0.171173 -0.0893189,-0.0350906 -0.196866,-0.0585472 -0.324559,-0.0585472 -0.251161,0 -0.476264,0.104 -0.639102,0.270634 -0.165177,0.169028 -0.266559,0.402476 -0.266559,0.65739 0,0.254917 0.101382,0.488366 0.266559,0.657394 0.162839,0.166634 0.387937,0.270634 0.639102,0.270634 0.240311,0 0.416929,-0.0687953 0.544594,-0.164547 0.157181,-0.117882 0.241413,-0.276665 0.278909,-0.39789l-0.823504 0 -0.0533346 0 0 -0.0533346 0 -0.535287 0 -0.0533346 0.0533346 0 1.47204 0 0.041563 0 0.0101024 0.0404173c0.0239567,0.095878 0.0239606,0.165126 0.0239606,0.2805l0 5.90551e-005 0 1.5748e-005c0,0.460374 -0.156181,0.8525 -0.428028,1.13012 -0.271984,0.277756 -0.658709,0.43978 -1.11963,0.43978l-1.5748e-005 0zm-1.06906 -0.545472c0.271894,0.27189 0.64889,0.438803 1.06906,0.438803l1.5748e-005 0c0.431205,0 0.791654,-0.150201 1.04379,-0.407693 0.252264,-0.257622 0.397193,-0.623791 0.397193,-1.05554l0 -1.5748e-005 0 -5.90551e-005c0,-0.0894764 -3.93701e-006,-0.149201 -0.0118701,-0.214248l-1.3758 0 0 0.428618 0.838807 0 0.0650394 0 -0.012748 0.063752c-0.028252,0.14126 -0.123661,0.366488 -0.336091,0.525807 -0.14448,0.108362 -0.342272,0.186217 -0.608343,0.186217 -0.280988,0 -0.532961,-0.116492 -0.715354,-0.303138 -0.184028,-0.188319 -0.296976,-0.448118 -0.296976,-0.731559 0,-0.283437 0.112949,-0.543236 0.296976,-0.731555 0.182394,-0.186646 0.43437,-0.303138 0.715354,-0.303138 0.14198,0 0.262539,0.0264606 0.363307,0.0660512 0.110268,0.0433189 0.196476,0.102201 0.261134,0.159409l0.346717 -0.328421c-0.122315,-0.113429 -0.26226,-0.203657 -0.417736,-0.266512 -0.166807,-0.0674331 -0.352118,-0.103697 -0.553421,-0.103697 -0.420161,0 -0.797161,0.166913 -1.06905,0.438807 -0.271894,0.27189 -0.438807,0.64889 -0.438807,1.06906 0,0.420165 0.166913,0.797161 0.438803,1.06906z" id="_264860008"/></g></g><rect class="fil1" height="6.82666" width="6.82666"/></svg>