<?xml version="1.0" ?><!DOCTYPE svg  PUBLIC '-//W3C//DTD SVG 1.1//EN'  'http://www.w3.org/Graphics/SVG/1.1/DTD/svg11.dtd'><svg height="6.82666in" style="shape-rendering:geometricPrecision; text-rendering:geometricPrecision; image-rendering:optimizeQuality; fill-rule:evenodd; clip-rule:evenodd" viewBox="0 0 6.82666 6.82666" width="6.82666in" xml:space="preserve" xmlns="http://www.w3.org/2000/svg" xmlns:xlink="http://www.w3.org/1999/xlink"><defs><style type="text/css">
   <![CDATA[
    .fil1 {fill:none}
    .fil0 {fill:#212121;fill-rule:nonzero}
   ]]>
  </style></defs><g id="Layer_x0020_1"><g id="_435229168"><path class="fil0" d="M2.17567 5.81333l0.204673 0 0.337677 -1.58336 0.00901969 -0.0422913 0.043063 0 1.01105 0c0.480335,0 0.92015,-0.15026 1.26376,-0.427866 0.331551,-0.267862 0.574173,-0.654906 0.677858,-1.14057 0.0294094,-0.137547 0.0430394,-0.265913 0.0430394,-0.38526 0,-0.349669 -0.118051,-0.619811 -0.298697,-0.815634 -0.181244,-0.196472 -0.425941,-0.31926 -0.678134,-0.373185 -0.0997205,-0.0213228 -0.200819,-0.0318346 -0.299811,-0.0318346l-2.36976 0 -1.04575 4.8 0.750264 0 0.351744 0zm0.247736 0.106669l-0.247736 0 -0.351744 0 -0.816417 0 -0.0661496 0 0.0140669 -0.0645827 1.06899 -4.90667 0.00916929 -0.0420866 0.0429134 0 2.41267 0c0.105799,0 0.214335,0.0113386 0.321898,0.0343386 0.272319,0.0582283 0.537197,0.191524 0.734378,0.405272 0.197783,0.214402 0.327035,0.508642 0.327035,0.887713 0,0.126083 -0.0144213,0.261799 -0.0455433,0.407346 -0.109028,0.510673 -0.365098,0.918417 -0.715354,1.20139 -0.362689,0.29302 -0.82572,0.451622 -1.33043,0.451622l-0.967984 0 -0.337677 1.58336 -0.00901575 0.0422913 -0.0430669 0z" id="_435229408"/><path class="fil0" d="M3.27555 1.90595l0.693437 0c0.0559843,0 0.109445,0.00719685 0.159567,0.0207835 0.118075,0.0320157 0.21672,0.0994134 0.28598,0.191894 0.0690157,0.0921457 0.108484,0.208516 0.108484,0.338787 0,0.0595197 -0.00827165,0.122067 -0.0257717,0.186618l-2.75591e-005 -7.87402e-006c-0.0463189,0.197311 -0.164441,0.37448 -0.318496,0.502295 -0.155531,0.129035 -0.348374,0.208457 -0.541902,0.208457l-0.664606 0 -0.066563 0 0.014689 -0.065 0.303335 -1.34216 0.00942126 -0.0416693 0.0424528 0zm0.693437 0.106669l-0.65098 0 -0.279228 1.23549 0.598043 0c0.168047,0 0.336807,-0.0700551 0.473988,-0.183866 0.13748,-0.114059 0.242587,-0.271413 0.283106,-0.445831l0.000417323 -0.00187402c0.0149488,-0.0551457 0.0220157,-0.108469 0.0220157,-0.159122 0,-0.106886 -0.0315866,-0.201299 -0.086815,-0.275039 -0.0549803,-0.0734134 -0.133787,-0.127055 -0.228476,-0.152728 -0.041063,-0.0111339 -0.0852992,-0.0170276 -0.132071,-0.0170276z" id="_435229576"/></g></g><rect class="fil1" height="6.82666" width="6.82666"/></svg>