<?xml version="1.0" ?><!DOCTYPE svg  PUBLIC '-//W3C//DTD SVG 1.1//EN'  'http://www.w3.org/Graphics/SVG/1.1/DTD/svg11.dtd'><svg height="6.82666in" style="shape-rendering:geometricPrecision; text-rendering:geometricPrecision; image-rendering:optimizeQuality; fill-rule:evenodd; clip-rule:evenodd" viewBox="0 0 6.82666 6.82666" width="6.82666in" xml:space="preserve" xmlns="http://www.w3.org/2000/svg" xmlns:xlink="http://www.w3.org/1999/xlink"><defs><style type="text/css">
   <![CDATA[
    .fil1 {fill:none}
    .fil0 {fill:#212121;fill-rule:nonzero}
   ]]>
  </style></defs><g id="Layer_x0020_1"><g id="_435230464"><path class="fil0" d="M5.22029 3.46667l0 0.648488c0,0.110461 -0.0455551,0.211098 -0.118996,0.284098 -0.0732677,0.0728268 -0.174232,0.118098 -0.285311,0.118098 -0.116016,0 -0.220941,-0.048874 -0.295386,-0.139209 -0.0674724,-0.0818661 -0.108921,-0.197268 -0.108921,-0.339988l0 -0.604563 -0.30063 0.105335 -0.036874 -0.000625984 -0.25765 -0.101508 0 0.601362c0,0.309244 0.109559,0.57537 0.286906,0.765331 0.181236,0.194126 0.433768,0.309016 0.712555,0.309016 0.275102,0 0.524272,-0.111921 0.704748,-0.292398 0.180752,-0.180748 0.292602,-0.43026 0.292602,-0.704949l0 -0.648488 -0.593043 0zm-0.106669 0.648488l0 -0.701823 -3.93701e-006 -0.0533346 0.0533386 0 0.699713 0 0.0533346 0 0 0.0533346 0 0.701823c0,0.30411 -0.123795,0.580311 -0.323854,0.780366 -0.199764,0.199764 -0.475594,0.32365 -0.780165,0.32365 -0.309035,0 -0.589189,-0.127594 -0.790469,-0.343189 -0.195122,-0.209 -0.315661,-0.500429 -0.315661,-0.837827l0 -0.679591 0 -0.0782244 0.0727087 0.0286417 0.312161 0.122984 0.352787 -0.12361 0.0708346 -0.0248189 0 0.0750276 0 0.679591c0,0.116858 0.0320906,0.209106 0.0843307,0.272492 0.0534961,0.0649134 0.129272,0.100035 0.213307,0.100035 0.0820197,0 0.156433,-0.0332913 0.210311,-0.0868465 0.0538937,-0.0535709 0.0873268,-0.127492 0.0873268,-0.208681z" id="_435230872"/><path class="fil0" d="M3.81652 2.93928l0.277945 0.110969 0.317209 -0.11263 0 -0.302858c0,-0.240476 -0.115264,-0.473622 -0.300382,-0.645236 -0.180181,-0.167039 -0.426299,-0.275358 -0.696843,-0.275358 -0.275835,0 -0.52587,0.111744 -0.706858,0.292327 -0.180772,0.180366 -0.292728,0.429602 -0.292728,0.704898l0 1.40377c0,0.110504 -0.0454685,0.211189 -0.118902,0.284205 -0.0731811,0.0727638 -0.174059,0.117992 -0.28528,0.117992 -0.110476,0 -0.211043,-0.0453307 -0.283957,-0.11824 -0.0729094,-0.0729134 -0.11824,-0.17348 -0.11824,-0.283957l0 -0.648488 -0.595154 0 0 0.648488c0,0.274461 0.112102,0.523795 0.292827,0.70452 0.180724,0.180724 0.430063,0.292827 0.704524,0.292827 0.275551,0 0.52539,-0.112 0.706346,-0.292591 0.180996,-0.180634 0.293114,-0.430051 0.293114,-0.704756l0 -1.40377c0,-0.110461 0.0454803,-0.21113 0.118945,-0.284126 0.0731969,-0.0727283 0.174098,-0.117949 0.285362,-0.117949 0.102472,0 0.196307,0.0390551 0.266988,0.0942047 0.0828031,0.0646102 0.135083,0.153512 0.135083,0.23124l0 0.30452zm0.257441 0.217165l-0.330358 -0.131894 -0.033752 -0.0134724 0 -0.0359016 0 -0.340417c0,-0.045878 -0.036315,-0.102614 -0.0938307,-0.147492 -0.0534843,-0.0417323 -0.12435,-0.0712835 -0.201571,-0.0712835 -0.082189,0 -0.156563,0.0332402 -0.210362,0.0866969 -0.0539055,0.0535591 -0.0872756,0.127504 -0.0872756,0.208709l0 1.40377c0,0.303898 -0.124232,0.580024 -0.324783,0.780173 -0.200283,0.199878 -0.476657,0.323843 -0.781346,0.323843 -0.303906,0 -0.579925,-0.124063 -0.779941,-0.324079 -0.200016,-0.200016 -0.324079,-0.476031 -0.324079,-0.779937l0 -0.701823 0 -0.0533346 0.0533346 0 0.701823 0 0.0533386 0 -3.93701e-006 0.0533346 0 0.701823c0,0.0810315 0.0333504,0.154902 0.0869882,0.208539 0.0536378,0.0536378 0.127508,0.0869882 0.208539,0.0869882 0.0821378,0 0.156484,-0.033252 0.21028,-0.0867402 0.053874,-0.0535669 0.0872323,-0.127528 0.0872323,-0.208787l0 -1.40377c0,-0.30452 0.124067,-0.580433 0.324398,-0.780315 0.200339,-0.19989 0.476917,-0.323579 0.781858,-0.323579 0.29861,0 0.570339,0.11963 0.769339,0.304114 0.206177,0.191138 0.334555,0.452358 0.334555,0.72315l0 0.340417 0 0.037563 -0.035626 0.0126457 -0.371465 0.131894 -0.0372913 -0.000834646z" id="_435229912"/></g></g><rect class="fil1" height="6.82666" width="6.82666"/></svg>