<?xml version="1.0" ?><!DOCTYPE svg  PUBLIC '-//W3C//DTD SVG 1.1//EN'  'http://www.w3.org/Graphics/SVG/1.1/DTD/svg11.dtd'><svg height="6.82666in" style="shape-rendering:geometricPrecision; text-rendering:geometricPrecision; image-rendering:optimizeQuality; fill-rule:evenodd; clip-rule:evenodd" viewBox="0 0 6.82666 6.82666" width="6.82666in" xml:space="preserve" xmlns="http://www.w3.org/2000/svg" xmlns:xlink="http://www.w3.org/1999/xlink"><defs><style type="text/css">
   <![CDATA[
    .fil1 {fill:none}
    .fil0 {fill:#212121;fill-rule:nonzero}
   ]]>
  </style></defs><g id="Layer_x0020_1"><path class="fil0" d="M1.01333 3.41336c0,0.281665 0.114165,0.536665 0.298744,0.721232 0.184575,0.184567 0.439587,0.298724 0.721276,0.298724 0.281661,0 0.536657,-0.114161 0.721228,-0.298728 0.184567,-0.184571 0.298728,-0.439567 0.298728,-0.721228l0 -7.87402e-006c0,-0.281689 -0.114161,-0.536697 -0.298728,-0.721276 -0.184571,-0.184575 -0.439563,-0.298736 -0.72122,-0.298736l-7.87402e-006 0c-0.281693,0 -0.536705,0.114161 -0.721283,0.298736 -0.184575,0.184579 -0.298736,0.439591 -0.298736,0.721283zm0.223327 0.79665c-0.203886,-0.203874 -0.329996,-0.485539 -0.329996,-0.79665 0,-0.311138 0.126106,-0.592815 0.329988,-0.796701 0.203886,-0.203882 0.485563,-0.329988 0.796701,-0.329988l7.87402e-006 0c0.311102,0 0.59276,0.126106 0.796638,0.329988 0.203874,0.203886 0.32998,0.485563 0.32998,0.796693l0 7.87402e-006c0,0.311106 -0.126102,0.592764 -0.32998,0.796646 -0.203882,0.203878 -0.485539,0.32998 -0.796646,0.32998 -0.311134,0 -0.592811,-0.126102 -0.796693,-0.329976zm2.53664 -0.79665c0,0.281657 0.114173,0.536654 0.298752,0.72122 0.184583,0.184571 0.439594,0.298736 0.721264,0.298736 0.281669,0 0.536681,-0.114165 0.721264,-0.298736 0.184579,-0.184567 0.298752,-0.439563 0.298752,-0.72122 0,-0.281685 -0.114169,-0.536693 -0.298744,-0.721268 -0.184583,-0.184587 -0.439602,-0.298752 -0.721272,-0.298752 -0.281669,0 -0.536685,0.114169 -0.721272,0.298752 -0.184575,0.184575 -0.298744,0.439583 -0.298744,0.721268zm0.223335 0.796638c-0.203886,-0.203874 -0.330004,-0.485531 -0.330004,-0.796638 0,-0.31113 0.12611,-0.592799 0.329996,-0.796685 0.203894,-0.20389 0.485575,-0.330004 0.796689,-0.330004 0.311114,0 0.592799,0.12611 0.796689,0.330004 0.203886,0.203886 0.329996,0.485555 0.329996,0.796685 0,0.311106 -0.126118,0.592764 -0.330004,0.796638 -0.203894,0.203882 -0.485571,0.329988 -0.796681,0.329988 -0.31111,0 -0.592787,-0.126106 -0.796681,-0.329988z"/></g><rect class="fil1" height="6.82666" width="6.82666"/></svg>