<?xml version="1.0" ?><!DOCTYPE svg  PUBLIC '-//W3C//DTD SVG 1.1//EN'  'http://www.w3.org/Graphics/SVG/1.1/DTD/svg11.dtd'><svg height="6.82666in" style="shape-rendering:geometricPrecision; text-rendering:geometricPrecision; image-rendering:optimizeQuality; fill-rule:evenodd; clip-rule:evenodd" viewBox="0 0 6.82666 6.82666" width="6.82666in" xml:space="preserve" xmlns="http://www.w3.org/2000/svg" xmlns:xlink="http://www.w3.org/1999/xlink"><defs><style type="text/css">
   <![CDATA[
    .fil1 {fill:none}
    .fil0 {fill:#212121;fill-rule:nonzero}
   ]]>
  </style></defs><g id="Layer_x0020_1"><path class="fil0" d="M5.1377 3.76572l-0.40372 -0.808335 -0.169992 0 0.0328346 0.0612283 -0.0910394 0.0545827c-0.0420551,-0.0625709 -0.10572,-0.102244 -0.178441,-0.12648 -0.0766811,-0.0255551 -0.164264,-0.0341969 -0.248669,-0.0341969 -0.36185,0 -0.46335,0.141343 -0.490933,0.22415l0.155866 0c0.0253465,-0.0633543 0.0999291,-0.166787 0.316882,-0.166787 0.100134,0 0.189835,0.0248504 0.254299,0.0733425 0.0643543,0.0484134 0.103134,0.118366 0.103134,0.208744l0 0.0540197 0 0.0533346 -0.0533346 0 -0.304098 0c-0.162232,0 -0.291087,0.0193622 -0.384925,0.0583622 -0.0850984,0.0353701 -0.140228,0.0869055 -0.163953,0.154799l-0.102709 -0.0258346c0.00261024,-0.0163268 0.00472835,-0.0340787 0.00625984,-0.0532598 0.00137008,-0.0171575 0.00209449,-0.0349646 0.00209449,-0.0533465 0,-0.15087 -0.0518189,-0.285858 -0.147012,-0.380673 -0.0894016,-0.0890394 -0.218189,-0.143555 -0.379543,-0.143555 -0.311071,0 -0.401882,0.15778 -0.40215,0.158232l-0.0989606 -0.0272913 0 -0.563358 -0.143413 0 0 0.885102 -0.106461 0.000834646 -1.9685e-005 -0.000834646 -0.000188976 0 0 -0.0066811c-0.00367323,-0.104177 -0.0441772,-0.23524 -0.153575,-0.328335 -0.0837638,-0.0712835 -0.209197,-0.120965 -0.391594,-0.120965 -0.174173,0 -0.331244,0.0384764 -0.436941,0.136795 -0.0893307,0.0830945 -0.144063,0.211689 -0.144063,0.399921 0,0.165583 0.0460354,0.298504 0.145614,0.386988 0.0950039,0.0844173 0.240866,0.131346 0.444425,0.131346 0.344492,0 0.457224,-0.154012 0.493508,-0.241752l-0.152366 0c-0.0340433,0.0641535 -0.129106,0.187685 -0.356575,0.187685 -0.123102,0 -0.229547,-0.0422165 -0.305681,-0.114031 -0.0769252,-0.0725512 -0.122256,-0.174346 -0.122256,-0.29265l0 -0.0533346 0.0533346 0 0.979504 0 0.0533346 0 0 0.0533346 0 0.291807c0,0.0415315 -0.00164567,0.0941024 -0.00314173,0.133268l0.140488 0c0.0019685,-0.0271142 0.0038937,-0.0624134 0.0038937,-0.0968937l0.0977087 -0.0291654c0.000311024,0.000472441 0.105209,0.165031 0.404992,0.165031 0.12715,0 0.23728,-0.0349055 0.323209,-0.0967244 0.0871929,-0.0627283 0.15039,-0.153827 0.181933,-0.264795l0.103957 0.021248c-0.000562992,0.00445276 -0.000988189,0.0097126 -0.00129528,0.0155827 -0.000200787,0.0038189 -0.000287402,0.00979528 -0.000287402,0.0172677 0,0.0966969 0.0387283,0.171646 0.104059,0.222953 0.073311,0.0575709 0.180539,0.0876063 0.305969,0.0876063 0.332441,0 0.433957,-0.174075 0.434256,-0.174571l0.098752 0.0275c1.5748e-005,0.0375512 0.0014685,0.0758543 0.00292126,0.104961l0.122461 0c-0.00235433,-0.0333425 -0.00471654,-0.0746772 -0.00471654,-0.106472l0 -0.538709c0,-0.0333701 -0.00258661,-0.0631732 -0.00751575,-0.089815 -0.00491339,-0.0265512 -0.0120709,-0.0505551 -0.0212244,-0.0723228l0.0958307 -0.045626 0.467047 0.876315 0.0132913 0.024937 -0.0130827 0.0248543 -0.178043 0.338197 0.156024 0 0.706028 -1.38587 -0.143937 0 -0.402634 0.808335 -0.0476457 0.0956496 -0.0477717 -0.0956496zm-0.323079 -0.885417l0.370724 0.742268 0.369724 -0.742268 0.0147362 -0.0295866 0.0329724 0 0.26389 0 0.0869803 0 -0.0394803 0.0775 -0.760366 1.49254 -0.0148622 0.0291693 -0.0326378 0 -0.276878 0 -0.0882126 0 0.0411299 -0.078126 0.206091 -0.391472 -0.320429 -0.601217 0 0.446315c0,0.0616181 0.00855512,0.154335 0.00857874,0.154598l0.00577165 0.0585433 -0.058689 0 -0.230228 0 -0.0496929 0 -0.00343307 -0.0497913c-3.93701e-006,-9.44882e-005 -0.00102362,-0.0137677 -0.00221654,-0.0357244 -0.0801693,0.0609567 -0.216689,0.127626 -0.430433,0.127626 -0.149071,0 -0.279311,-0.0378937 -0.371803,-0.110528 -0.0531339,-0.0417323 -0.093622,-0.0942913 -0.118118,-0.157114 -0.0383819,0.0574055 -0.0862756,0.107031 -0.142335,0.147362 -0.104071,0.0748661 -0.235433,0.117142 -0.385287,0.117142 -0.195453,0 -0.324681,-0.0636417 -0.401724,-0.121413 -0.00174016,0.0209291 -0.00320866,0.0344291 -0.00321654,0.0345236l-0.00504331 0.0479173 -0.047874 0 -0.244728 0 -0.0559173 0 0.00279134 -0.0558346c7.87402e-006,-0.000220472 0.00280315,-0.057685 0.00425197,-0.119646 -0.0788228,0.103154 -0.233394,0.211154 -0.535283,0.211154 -0.231252,0 -0.400657,-0.0566063 -0.51526,-0.158433 -0.124091,-0.110264 -0.181449,-0.270299 -0.181449,-0.466571 0,-0.220882 0.0677087,-0.375024 0.178236,-0.477835 0.127917,-0.118988 0.310276,-0.165551 0.509437,-0.165551 0.210469,0 0.358689,0.0602913 0.460343,0.146799 0.0331811,0.0282362 0.0612559,0.0592008 0.0848268,0.0917441l0 -0.614331 0 -0.0533346 0.0533346 0 0.250083 0 0.0533346 0 0 0.0533346 0 0.489913c0.0761102,-0.0544016 0.201531,-0.110831 0.394441,-0.110831 0.191252,0 0.345681,0.0663858 0.454543,0.174807 0.0541614,0.0539449 0.0967677,0.118079 0.126772,0.189413 0.0077874,-0.0849331 0.0792087,-0.367516 0.606657,-0.367516 0.0935512,0 0.192236,0.0101142 0.282,0.0400315 0.00961024,0.00320472 0.0191102,0.00663386 0.0284764,0.0102992l-0.00292913 -0.00546457 0.0888858 0 0.291807 0 0.0329291 0 0.0147795 0.0295866zm-1.29013 0.363035l-0.0277717 0c0.0130197,0.0449488 0.0214606,0.0921063 0.0251181,0.140846 0.0319567,-0.0252402 0.069622,-0.0468465 0.11289,-0.0648307 0.107248,-0.0445709 0.249748,-0.0667008 0.42576,-0.0667008l0.250764 0 0 -0.000685039c0,-0.0540551 -0.0226417,-0.0954803 -0.0602126,-0.123744 -0.0454173,-0.0341614 -0.112732,-0.0516732 -0.190551,-0.0516732 -0.214732,0 -0.223815,0.118323 -0.223846,0.118661l-0.00473622 0.048126 -0.0481811 0 -0.259232 0zm-1.61442 0.375811l0.229437 0 0 -0.0589921 -0.86861 0c0.0105157,0.0648268 0.0402402,0.120287 0.0842756,0.161819 0.0566575,0.0534409 0.137634,0.0848583 0.232768,0.0848583 0.227484,0 0.271165,-0.149551 0.271295,-0.149976l0.011563 -0.0377087 0.0392717 0zm-0.744169 -0.277445c0,-0.111732 0.0479606,-0.200945 0.121106,-0.264173 0.0798937,-0.069063 0.189937,-0.105984 0.29872,-0.105984 0.117531,0 0.217232,0.036874 0.288201,0.101409 0.0720512,0.0655118 0.113559,0.158193 0.113559,0.268748l0 0.0533346 -0.0533346 0 -0.714917 0 -0.0533346 0 0 -0.0533346zm0.190689 -0.183756c-0.0385551,0.0333268 -0.0670197,0.0771496 -0.0784724,0.130421l0.598071 0c-0.00998425,-0.0554488 -0.0357677,-0.101965 -0.0739291,-0.136665 -0.0514291,-0.0467677 -0.126252,-0.0734882 -0.216531,-0.0734882 -0.0845591,0 -0.169031,0.0277756 -0.229138,0.0797323zm1.47269 0.75063c-0.134756,0 -0.240764,-0.0506339 -0.315343,-0.130469 -0.0814449,-0.087185 -0.123799,-0.20863 -0.123799,-0.335854 0,-0.121492 0.0400709,-0.245791 0.123862,-0.335315 0.072626,-0.0775984 0.176547,-0.128449 0.31361,-0.128449 0.130937,0 0.239161,0.0484961 0.315717,0.129815 0.0780591,0.0829173 0.121913,0.199126 0.121913,0.331736 0,0.136622 -0.0465079,0.250874 -0.121728,0.332496 -0.0799409,0.0867441 -0.19161,0.136039 -0.314232,0.136039zm-0.237429 -0.202965c0.0550433,0.0589252 0.134709,0.0962953 0.237429,0.0962953 0.0924606,0 0.176287,-0.0367598 0.235902,-0.101449 0.0577087,-0.062622 0.0933898,-0.151972 0.0933898,-0.260417 0,-0.105118 -0.0333622,-0.195748 -0.0927402,-0.258823 -0.0566496,-0.0601732 -0.13822,-0.0960591 -0.23822,-0.0960591 -0.104807,0 -0.182811,0.0373228 -0.236114,0.0942756 -0.0640551,0.068437 -0.094689,0.166063 -0.094689,0.262819 0,0.101122 0.0325197,0.196425 0.0950433,0.263358zm1.82607 -0.167189c0,0.0664449 -0.024937,0.192299 -0.133209,0.281118 -0.0684764,0.0561772 -0.169256,0.0971024 -0.316169,0.0971024 -0.0990945,0 -0.173335,-0.0243307 -0.225252,-0.0633819 -0.0638504,-0.0480354 -0.0930551,-0.116177 -0.0930551,-0.189272 0,-0.129535 0.0823898,-0.19335 0.225303,-0.223795 0.12189,-0.0259646 0.289567,-0.0262638 0.489047,-0.0262638l0.0533346 0 0 0.0533346 0 0.0711575zm-0.200705 0.199039c0.0764291,-0.0626969 0.0940354,-0.151906 0.0940354,-0.199039l0 -0.0177953c-0.170382,0.000224409 -0.313622,0.00243307 -0.413626,0.0237323 -0.0892598,0.0190157 -0.14072,0.0535709 -0.14072,0.11963 0,0.0407913 0.0157323,0.0783937 0.0501339,0.104272 0.0341693,0.0256969 0.0869685,0.0417126 0.161504,0.0417126 0.119043,0 0.197535,-0.0305591 0.248673,-0.0725118z"/></g><rect class="fil1" height="6.82666" width="6.82666"/></svg>