<?xml version="1.0" ?><!DOCTYPE svg  PUBLIC '-//W3C//DTD SVG 1.1//EN'  'http://www.w3.org/Graphics/SVG/1.1/DTD/svg11.dtd'><svg height="6.82666in" style="shape-rendering:geometricPrecision; text-rendering:geometricPrecision; image-rendering:optimizeQuality; fill-rule:evenodd; clip-rule:evenodd" viewBox="0 0 6.82666 6.82666" width="6.82666in" xml:space="preserve" xmlns="http://www.w3.org/2000/svg" xmlns:xlink="http://www.w3.org/1999/xlink"><defs><style type="text/css">
   <![CDATA[
    .fil1 {fill:none}
    .fil0 {fill:#212121;fill-rule:nonzero}
   ]]>
  </style></defs><g id="Layer_x0020_1"><path class="fil0" d="M5.51202 3.81803c0.0128031,-0.0667244 0.0225118,-0.133921 0.0289252,-0.201394 0.00624016,-0.0656693 0.00945276,-0.133476 0.00945276,-0.203339 0,-0.590102 -0.239209,-1.12433 -0.625925,-1.51104 -0.38674,-0.38672 -0.921016,-0.625913 -1.51112,-0.625913 -0.0698346,0 -0.137602,0.00320866 -0.203236,0.00943307 -0.0675157,0.00640551 -0.134736,0.0160984 -0.201476,0.0288701l-0.0253346 0.00485039 -0.0196654 -0.0171417c-0.232091,-0.202295 -0.524689,-0.29848 -0.814343,-0.288457 -0.287189,0.00993701 -0.571575,0.124657 -0.791157,0.344248 -0.219606,0.219563 -0.334346,0.503953 -0.344272,0.791161 -0.0100118,0.289638 0.0861969,0.582224 0.288551,0.814343l0.0171535 0.0196772 -0.0048622 0.0253228c-0.0128031,0.0667047 -0.0225276,0.133894 -0.0289409,0.201366 -0.00624016,0.0656496 -0.00945669,0.133437 -0.00945669,0.203276 0,0.590138 0.239209,1.12439 0.625921,1.5111 0.386736,0.386736 0.92102,0.625937 1.51112,0.625937 0.0698661,0 0.137677,-0.0032126 0.203358,-0.00944882 0.0674803,-0.00641339 0.134697,-0.016126 0.201453,-0.0289291l0.0253307 -0.0048622 0.0196693 0.0171535c0.232047,0.202331 0.524598,0.298528 0.814232,0.288516 0.287193,-0.0099252 0.571591,-0.12465 0.791189,-0.344236 0.219563,-0.219571 0.334283,-0.503976 0.344213,-0.791197 0.0100118,-0.289642 -0.0861732,-0.582224 -0.288488,-0.814303l-0.0171535 -0.0196772 0.0048622 -0.0253228zm0.13476 -0.191394c-0.00601969,0.0633543 -0.0145748,0.12548 -0.0255118,0.186283 0.20911,0.249874 0.308406,0.560409 0.297783,0.867744 -0.0108465,0.313728 -0.135846,0.624075 -0.375047,0.863283 -0.239236,0.239224 -0.549575,0.364228 -0.863276,0.375071 -0.307335,0.010622 -0.617843,-0.088689 -0.867685,-0.297811 -0.0608307,0.0109409 -0.122969,0.0194961 -0.186331,0.0255157 -0.0714843,0.0067874 -0.142673,0.0102835 -0.213358,0.0102835 -0.619543,0 -1.18049,-0.251146 -1.58654,-0.657189 -0.40602,-0.406024 -0.657173,-0.966937 -0.657173,-1.58652 0,-0.0706614 0.0035,-0.141831 0.0102913,-0.213276 0.00602362,-0.0633583 0.0145827,-0.125476 0.0255236,-0.186256 -0.209146,-0.249913 -0.308465,-0.560453 -0.297843,-0.867783 0.0108425,-0.31372 0.135858,-0.624051 0.375106,-0.863248 0.23922,-0.239228 0.549543,-0.364228 0.863244,-0.375083 0.30735,-0.0106339 0.617894,0.0886654 0.867791,0.29776 0.0608307,-0.0109173 0.12298,-0.0194528 0.186358,-0.0254646 0.0714409,-0.00677559 0.142594,-0.0102677 0.213236,-0.0102677 0.619543,0 1.18049,0.251138 1.58654,0.657165 0.406024,0.406008 0.657177,0.966909 0.657177,1.58645 0,0.070685 -0.00349606,0.141866 -0.0102874,0.213339zm-2.19168 1.18908c-0.333807,0 -0.640677,-0.075248 -0.864378,-0.196335 -0.232843,-0.126031 -0.378307,-0.303075 -0.378307,-0.50078 0,-0.0970787 0.0300315,-0.190201 0.0945433,-0.256933 0.0570276,-0.0589843 0.13913,-0.0962677 0.248713,-0.0962677 0.156232,0 0.245205,0.0904646 0.346079,0.193039 0.113768,0.115689 0.245142,0.249272 0.523945,0.249272 0.115028,0 0.20813,-0.0241181 0.272291,-0.064126 0.0589961,-0.0367835 0.0920827,-0.0871102 0.0920827,-0.14298 0,-0.131228 -0.126638,-0.162642 -0.334791,-0.214264 -0.0246929,-0.00612205 -0.0260591,-0.00641339 -0.0376299,-0.00930709l2.3622e-005 -9.44882e-005 -0.422236 -0.103083 -0.000208661 0c-0.216374,-0.0534646 -0.409299,-0.125394 -0.550083,-0.248004 -0.144709,-0.126031 -0.232728,-0.302217 -0.232728,-0.560504 0,-0.623858 0.608638,-0.85448 1.12964,-0.85448 0.293638,0 0.589488,0.0613898 0.805315,0.168807 0.207469,0.10326 0.344004,0.250346 0.344004,0.430024l0 1.5748e-005c0,0.0963346 -0.0331496,0.187646 -0.0936417,0.255354 -0.0612638,0.0685669 -0.149756,0.112358 -0.259465,0.112362l0 0.000208661 -1.5748e-005 0c-0.143768,0 -0.221949,-0.0703819 -0.309425,-0.149134 -0.0937165,-0.0843661 -0.200102,-0.180138 -0.432681,-0.180138 -0.120941,0 -0.218205,0.0162165 -0.282118,0.0504528 -0.0495472,0.0265394 -0.0773898,0.0653071 -0.0773898,0.117362 0,0.0601614 0.0300669,0.0977874 0.0806339,0.12511 0.062315,0.0336693 0.154465,0.0549055 0.260925,0.0785906l0.000417323 0 0.299713 0.0688386c0.208811,0.0477638 0.438382,0.116071 0.61811,0.238228 0.186453,0.126724 0.317854,0.308827 0.317854,0.580366 0,0.286972 -0.127492,0.503142 -0.321354,0.653043 -0.223319,0.172669 -0.534815,0.255354 -0.837835,0.255354zm-0.813961 -0.290083c0.20898,0.113118 0.497819,0.183413 0.813961,0.183413 0.281591,0 0.569201,-0.0754016 0.772835,-0.23285 0.168724,-0.130465 0.279685,-0.318752 0.279685,-0.568878 0,-0.22987 -0.111937,-0.3845 -0.270768,-0.492453 -0.165555,-0.112524 -0.383248,-0.17687 -0.582276,-0.222394l-0.299713 -0.0688386 1.9685e-005 -8.66142e-005c-0.114591,-0.0255 -0.214031,-0.0485197 -0.288031,-0.0885039 -0.0858465,-0.0463858 -0.136886,-0.111949 -0.136886,-0.218858 0,-0.0955315 0.0482323,-0.165138 0.134059,-0.21111 0.0802835,-0.0430039 0.194528,-0.063374 0.332118,-0.063374 0.27328,0 0.395906,0.110394 0.503933,0.207642 0.0713425,0.0642244 0.135106,0.12163 0.238173,0.12163l1.5748e-005 0 0 0.000208661c0.0769331,0 0.13835,-0.0299921 0.180299,-0.0769449 0.0427244,-0.0478228 0.0661378,-0.113815 0.0661378,-0.18452l0 -1.5748e-005c0,-0.133878 -0.113047,-0.24911 -0.284831,-0.334606 -0.201441,-0.10026 -0.479862,-0.157555 -0.757819,-0.157555 -0.471799,0 -1.02297,0.201831 -1.02297,0.747811 0,0.223291 0.0741496,0.373913 0.196059,0.480087 0.125839,0.109594 0.304028,0.175307 0.5055,0.225091l-1.1811e-005 4.72441e-005 0.422433 0.10313 0.000417323 0 0.0372126 0.00930709c0.258669,0.0641535 0.416043,0.103189 0.416043,0.317594 0,0.0943858 -0.0511969,0.176472 -0.1425,0.233398 -0.0804213,0.0501457 -0.193024,0.080378 -0.328543,0.080378 -0.323079,0 -0.471366,-0.15078 -0.59978,-0.281358 -0.0841063,-0.0855236 -0.158287,-0.160953 -0.270244,-0.160953 -0.0780118,0 -0.13452,0.0245354 -0.172043,0.0633465 -0.0440394,0.0455551 -0.0645433,0.112165 -0.0645433,0.183185 0,0.155425 0.123835,0.29974 0.322055,0.407031z"/></g><rect class="fil1" height="6.82666" width="6.82666"/></svg>