<?xml version="1.0" ?><!DOCTYPE svg  PUBLIC '-//W3C//DTD SVG 1.1//EN'  'http://www.w3.org/Graphics/SVG/1.1/DTD/svg11.dtd'><svg height="6.82666in" style="shape-rendering:geometricPrecision; text-rendering:geometricPrecision; image-rendering:optimizeQuality; fill-rule:evenodd; clip-rule:evenodd" viewBox="0 0 6.82666 6.82666" width="6.82666in" xml:space="preserve" xmlns="http://www.w3.org/2000/svg" xmlns:xlink="http://www.w3.org/1999/xlink"><defs><style type="text/css">
   <![CDATA[
    .fil1 {fill:none}
    .fil0 {fill:#212121;fill-rule:nonzero}
   ]]>
  </style></defs><g id="Layer_x0020_1"><path class="fil0" d="M2.31669 4.71841c0,0.0379921 -0.0134567,0.0704803 -0.037063,0.094185l-0.000106299 0.000102362 -0.000102362 0.000106299c-0.0237244,0.023622 -0.0562362,0.0370669 -0.0941929,0.0370669l-1.1471 0c-0.0377559,0 -0.0705,-0.0135315 -0.094252,-0.0372835 -0.0235079,-0.0235079 -0.0372087,-0.0559843 -0.0372087,-0.0941772l0 -0.218894c0,-0.18189 0.0784213,-0.373327 0.214571,-0.513224 0.122264,-0.125626 0.290827,-0.210217 0.490933,-0.210217 0.19365,0 0.37024,0.0815118 0.498228,0.21322 0.127169,0.130862 0.206295,0.311228 0.206295,0.51022l0 0.218894zm-0.112272 0.0189764c0.00356299,-0.00356299 0.00560236,-0.0100591 0.00560236,-0.0189764l0 -0.218894c0,-0.170358 -0.0674606,-0.324488 -0.175878,-0.436055 -0.108476,-0.11163 -0.258047,-0.180717 -0.421976,-0.180717 -0.168925,0 -0.311323,0.0715118 -0.414681,0.177713 -0.116846,0.120063 -0.184154,0.283831 -0.184154,0.439059l0 0.218894c0,0.00858268 0.00219291,0.0149961 0.00595669,0.0187598 0.00383858,0.00383858 0.0103504,0.0060315 0.0188346,0.0060315l1.1471 0c0.00891339,0 0.0154134,-0.00203543 0.0189843,-0.0056063l0.000208661 -0.000208661z"/><path class="fil0" d="M1.61776 2.50389c0.178587,0 0.340457,0.0724252 0.45772,0.189421 0.11739,0.117118 0.190047,0.278744 0.190047,0.456972 0,0.178583 -0.0725315,0.339976 -0.189752,0.45685 -0.117307,0.116953 -0.279299,0.18915 -0.458016,0.18915 -0.178169,0 -0.339906,-0.072252 -0.457039,-0.189291 -0.116976,-0.116878 -0.189453,-0.278217 -0.189453,-0.456709 0,-0.17828 0.0725236,-0.339835 0.189535,-0.456831 0.117094,-0.117075 0.278776,-0.189563 0.456957,-0.189563zm0.38272 0.264839c-0.0979173,-0.0976929 -0.233252,-0.158169 -0.38272,-0.158169 -0.148748,0 -0.283744,0.0605354 -0.381539,0.158311 -0.0977205,0.0977047 -0.158283,0.232594 -0.158283,0.381413 0,0.149276 0.0603622,0.283953 0.157783,0.381291 0.0977953,0.0977165 0.232984,0.158039 0.382039,0.158039 0.149642,0 0.285094,-0.0602677 0.383016,-0.157898 0.0976575,-0.0973661 0.158083,-0.232098 0.158083,-0.381433 0,-0.149016 -0.0605472,-0.283949 -0.158378,-0.381555z"/><path class="fil0" d="M4.03586 4.71978c0,0.0380827 -0.0134449,0.0701457 -0.0368465,0.0934567 -0.0235866,0.0234961 -0.0559488,0.0366299 -0.0935354,0.0366299l-1.27366 0c-0.0375748,0 -0.0699724,-0.0131339 -0.0935984,-0.0366417 -0.0234094,-0.0232953 -0.0368819,-0.0553504 -0.0368819,-0.0934449l0 -0.24448c0,-0.221681 0.0860827,-0.414563 0.220728,-0.554031 0.141488,-0.146551 0.336571,-0.234008 0.541925,-0.234008 0.222661,0 0.408425,0.0901063 0.542181,0.22661 0.14728,0.150307 0.231059,0.357071 0.231059,0.561429l-0.000208661 0.000208661 -0.00137402 0.244272 0.000208661 0zm-0.111846 0.0180394c0.00328346,-0.00327165 0.00517717,-0.0093937 0.00517717,-0.0180394l0.000208661 -0.000208661 0.00137402 -0.244272 -0.000208661 0c0,-0.177299 -0.0725984,-0.356594 -0.200224,-0.486846 -0.114815,-0.117173 -0.274559,-0.194524 -0.466346,-0.194524 -0.176189,0 -0.343673,0.0751535 -0.465256,0.201087 -0.116343,0.120512 -0.190728,0.287673 -0.190728,0.480283l0 0.24448c0,0.00861811 0.00190551,0.0147402 0.0052126,0.0180276 0.00347244,0.00345669 0.00987795,0.00538976 0.0185984,0.00538976l1.27366 0c0.00869291,0 0.0150748,-0.00192913 0.0185354,-0.00537795z"/><path class="fil0" d="M3.26536 2.26078c0.197839,0 0.377177,0.0800551 0.506953,0.209831 0.12948,0.129472 0.20963,0.308433 0.20963,0.506748 0,0.197634 -0.0803346,0.376791 -0.210063,0.50652 -0.129728,0.129728 -0.308886,0.210063 -0.50652,0.210063 -0.198323,0 -0.377307,-0.0801575 -0.506811,-0.209642 -0.129791,-0.129776 -0.209866,-0.30911 -0.209866,-0.506941 0,-0.397157 0.319524,-0.716579 0.716677,-0.716579zm0.431535 0.285248c-0.110445,-0.110445 -0.263102,-0.178579 -0.431535,-0.178579 -0.338039,0 -0.610008,0.271874 -0.610008,0.609909 0,0.168421 0.0681496,0.321075 0.178614,0.431524 0.110197,0.110181 0.262547,0.17839 0.431394,0.17839 0.168193,0 0.320673,-0.0683819 0.431102,-0.178811 0.110429,-0.110429 0.178811,-0.262909 0.178811,-0.431102 0,-0.168839 -0.0682047,-0.321161 -0.178378,-0.431331z"/><path class="fil0" d="M5.92 4.71978c0,0.0383189 -0.0135945,0.0705669 -0.0375709,0.094 -0.023689,0.0231496 -0.0561772,0.0360866 -0.0942835,0.0360866l-1.4358 0c-0.0381299,0 -0.0701969,-0.0133622 -0.0935197,-0.036563 -0.0237244,-0.0236024 -0.0369606,-0.0559882 -0.0369606,-0.0935236l0 -0.291827c0,-0.251449 0.0972874,-0.457346 0.242453,-0.605441 0.164819,-0.168142 0.391748,-0.261118 0.608031,-0.261118l0.000177165 0c0.243598,0 0.455583,0.101717 0.606705,0.26113 0.150606,0.15887 0.240508,0.375252 0.240555,0.605252l0.000208661 0 0 0.000177165 0 0.291827zm-0.111736 0.017748c0.00322835,-0.00315748 0.00506693,-0.00918898 0.00506693,-0.017748l0 -0.291827 0 -0.000177165 0.000208661 0c-4.33071e-005,-0.202154 -0.0790394,-0.392319 -0.211382,-0.531921 -0.131827,-0.139063 -0.31687,-0.227791 -0.529626,-0.227791l-0.000177165 0c-0.18902,0 -0.38763,0.0815512 -0.532197,0.229031 -0.126701,0.12926 -0.211618,0.309689 -0.211618,0.530858l0 0.291827c0,0.00849213 0.00189764,0.0147283 0.00529134,0.0181063 0.00338189,0.00336614 0.00966929,0.00531102 0.0185197,0.00531102l1.4358 0c0.00950787,0 0.0163976,-0.0020315 0.0201181,-0.00566929z"/><path class="fil0" d="M5.06442 1.9768c0.215217,0 0.410244,0.0884921 0.551531,0.231398 0.141079,0.142697 0.228374,0.339669 0.228374,0.556843 0,0.216488 -0.0873898,0.412933 -0.228614,0.555299 -0.141189,0.142335 -0.336118,0.230488 -0.551291,0.230488 -0.215819,0 -0.411146,-0.0881024 -0.552606,-0.230366 -0.141559,-0.142358 -0.229067,-0.33885 -0.229067,-0.555421 0,-0.21726 0.0874961,-0.414354 0.229039,-0.557173 0.141429,-0.142705 0.33676,-0.231067 0.552634,-0.231067zm0.475697 0.30598c-0.121697,-0.123087 -0.289894,-0.199311 -0.475697,-0.199311 -0.186504,0 -0.355173,0.076252 -0.477217,0.199398 -0.122228,0.123331 -0.197787,0.293878 -0.197787,0.482173 0,0.187539 0.0755669,0.357484 0.197815,0.480421 0.122016,0.122709 0.290669,0.198697 0.477189,0.198697 0.185827,0 0.354087,-0.0760433 0.475874,-0.198819 0.121917,-0.122902 0.197362,-0.292799 0.197362,-0.480299 0,-0.188252 -0.0755118,-0.358831 -0.197539,-0.48226z"/></g><rect class="fil1" height="6.82666" width="6.82666"/></svg>