<?xml version="1.0" ?><!DOCTYPE svg  PUBLIC '-//W3C//DTD SVG 1.1//EN'  'http://www.w3.org/Graphics/SVG/1.1/DTD/svg11.dtd'><svg height="6.82666in" style="shape-rendering:geometricPrecision; text-rendering:geometricPrecision; image-rendering:optimizeQuality; fill-rule:evenodd; clip-rule:evenodd" viewBox="0 0 6.82666 6.82666" width="6.82666in" xml:space="preserve" xmlns="http://www.w3.org/2000/svg" xmlns:xlink="http://www.w3.org/1999/xlink"><defs><style type="text/css">
   <![CDATA[
    .fil2 {fill:none}
    .fil1 {fill:black;fill-rule:nonzero}
    .fil0 {fill:#212121;fill-rule:nonzero}
   ]]>
  </style></defs><g id="Layer_x0020_1"><path class="fil0" d="M4.77206 5.92l-2.59366 0c-0.400846,0 -0.717732,-0.106783 -0.935638,-0.306744 -0.219039,-0.201008 -0.336102,-0.493795 -0.336102,-0.864697l0 -2.54918c0,-0.38385 0.113953,-0.70587 0.312764,-0.932728 0.200508,-0.228795 0.485862,-0.359984 0.826728,-0.359984l2.81969 0c0.271083,0 0.552535,0.13722 0.756343,0.383634 0.178539,0.21585 0.297811,0.515583 0.297811,0.879705l0 2.5641c0,0.33176 -0.125866,0.627941 -0.332122,0.841346 -0.206768,0.213937 -0.493898,0.344547 -0.815811,0.344547zm-2.59366 -0.106669l2.59366 0c0.292012,0 0.55213,-0.11813 0.739142,-0.311626 0.187626,-0.19413 0.302122,-0.464307 0.302122,-0.767598l0 -2.5641c0,-0.33737 -0.109425,-0.613764 -0.27322,-0.811791 -0.183217,-0.22152 -0.434067,-0.344878 -0.674264,-0.344878l-2.81969 0c-0.308957,0 -0.566646,0.117827 -0.746728,0.323315 -0.181858,0.207516 -0.286094,0.505256 -0.286094,0.862728l0 2.54918c0,0.339835 0.105016,0.606043 0.301512,0.786366 0.197776,0.181488 0.490173,0.278406 0.863559,0.278406z"/><path class="fil0" d="M3.41333 2.57219c-0.201846,0 -0.384461,0.0816969 -0.516508,0.213831 -0.132134,0.132217 -0.213862,0.314992 -0.213862,0.517047 0,0.201673 0.0817559,0.384276 0.213929,0.516445 0.132165,0.132165 0.31476,0.213925 0.516441,0.213925 0.201669,0 0.384268,-0.0817598 0.516437,-0.213933 0.132173,-0.132169 0.213933,-0.314768 0.213933,-0.516437 0,-0.202047 -0.0817362,-0.384823 -0.213866,-0.517039 -0.132055,-0.132138 -0.314669,-0.213839 -0.516504,-0.213839zm-0.591925 0.138831c0.151606,-0.151705 0.360909,-0.2455 0.591925,-0.2455 0.231008,0 0.440311,0.0937992 0.591921,0.245508 0.151437,0.151539 0.245118,0.360835 0.245118,0.592039 0,0.23111 -0.0937008,0.440378 -0.245185,0.591854 -0.151476,0.151484 -0.360744,0.245185 -0.591854,0.245185 -0.231126,0 -0.440382,-0.0937008 -0.591858,-0.245177 -0.151484,-0.151476 -0.245181,-0.360744 -0.245181,-0.591862 0,-0.231213 0.0936693,-0.440508 0.245114,-0.592047z"/><path class="fil1" d="M3.41333 4.59973c-0.357634,0 -0.681941,-0.145488 -0.916827,-0.380366 -0.234886,-0.234882 -0.380378,-0.559181 -0.380378,-0.916803 0,-0.357469 0.145539,-0.68163 0.380516,-0.916508 0.234894,-0.234799 0.559165,-0.380193 0.916689,-0.380193 0.35752,0 0.681823,0.145402 0.916756,0.380217 0.234988,0.23487 0.380559,0.559024 0.380559,0.916484 0,0.35761 -0.14552,0.681902 -0.380421,0.91678 -0.234925,0.23489 -0.559268,0.38039 -0.916894,0.38039zm-0.841409 -0.455783c0.215591,0.215583 0.51322,0.349114 0.841409,0.349114 0.328185,0 0.625854,-0.133547 0.841476,-0.349138 0.215606,-0.215583 0.349169,-0.513201 0.349169,-0.841362 0,-0.32828 -0.133453,-0.62574 -0.34889,-0.841067 -0.215622,-0.215516 -0.51339,-0.348965 -0.841756,-0.348965 -0.32837,0 -0.626102,0.133441 -0.841689,0.348941 -0.215417,0.215327 -0.348846,0.512799 -0.348846,0.841091 0,0.328177 0.133539,0.625803 0.349126,0.841386z"/><path class="fil0" d="M5.23866 1.9957c0,0.0767244 -0.0311811,0.146283 -0.0815591,0.196685 -0.0505157,0.0505354 -0.120126,0.0818071 -0.196823,0.0818071l-0.3335 0c-0.0766969,0 -0.146307,-0.0312717 -0.196823,-0.0818071 -0.050378,-0.0504016 -0.0815591,-0.119961 -0.0815591,-0.196685l0 -0.333898c0,-0.0765354 0.0312835,-0.146063 0.081815,-0.196508 0.0503976,-0.0503071 0.119921,-0.0814764 0.196567,-0.0814764l0.3335 0c0.0766457,0 0.146169,0.0311693 0.196567,0.0814764 0.0505315,0.0504449 0.081815,0.119972 0.081815,0.196508l0 0.333898zm-0.156976 0.121685c0.0310709,-0.0310866 0.0503071,-0.0741142 0.0503071,-0.121685l0 -0.333898c0,-0.0473425 -0.0191732,-0.0901732 -0.0501457,-0.121091 -0.0310669,-0.0310079 -0.0740551,-0.0502244 -0.121567,-0.0502244l-0.3335 0c-0.0475118,0 -0.0905,0.0192165 -0.121567,0.0502244 -0.0309724,0.0309173 -0.0501457,0.073748 -0.0501457,0.121091l0 0.333898c0,0.0475709 0.0192362,0.0905984 0.0503071,0.121685 0.0309606,0.0309724 0.0738858,0.0501378 0.121406,0.0501378l0.3335 0c0.0475197,0 0.0904449,-0.0191654 0.121406,-0.0501378z"/><polygon class="fil0" points="0.96,2.6109 2.34079,2.6109 2.34079,2.71757 0.96,2.71757 "/><polygon class="fil0" points="4.50316,2.6109 5.88394,2.6109 5.88394,2.71757 4.50316,2.71757 "/><path class="fil0" d="M2.27419 0.970657c0,-0.0294528 -0.0238819,-0.0533346 -0.0533346,-0.0533346 -0.0294528,0 -0.0533346,0.0238819 -0.0533346,0.0533346l0 1.31555c0,0.0294528 0.0238819,0.0533346 0.0533346,0.0533346 0.0294528,0 0.0533346,-0.0238819 0.0533346,-0.0533346l0 -1.31555z"/><path class="fil0" d="M1.97333 0.970657c0,-0.0294528 -0.0238819,-0.0533346 -0.0533346,-0.0533346 -0.0294528,0 -0.0533346,0.0238819 -0.0533346,0.0533346l0 1.31555c0,0.0294528 0.0238819,0.0533346 0.0533346,0.0533346 0.0294528,0 0.0533346,-0.0238819 0.0533346,-0.0533346l0 -1.31555z"/><path class="fil0" d="M1.67246 1.04218c0,-0.0294528 -0.0238819,-0.0533346 -0.0533346,-0.0533346 -0.0294528,0 -0.0533346,0.0238819 -0.0533346,0.0533346l0 1.24403c0,0.0294528 0.0238819,0.0533346 0.0533346,0.0533346 0.0294528,0 0.0533346,-0.0238819 0.0533346,-0.0533346l0 -1.24403z"/></g><rect class="fil2" height="6.82666" width="6.82666"/></svg>