<?xml version="1.0" ?><!DOCTYPE svg  PUBLIC '-//W3C//DTD SVG 1.1//EN'  'http://www.w3.org/Graphics/SVG/1.1/DTD/svg11.dtd'><svg height="6.82666in" style="shape-rendering:geometricPrecision; text-rendering:geometricPrecision; image-rendering:optimizeQuality; fill-rule:evenodd; clip-rule:evenodd" viewBox="0 0 6.82666 6.82666" width="6.82666in" xml:space="preserve" xmlns="http://www.w3.org/2000/svg" xmlns:xlink="http://www.w3.org/1999/xlink"><defs><style type="text/css">
   <![CDATA[
    .fil1 {fill:none}
    .fil0 {fill:#212121;fill-rule:nonzero}
   ]]>
  </style></defs><g id="Layer_x0020_1"><g id="_267512264"><path class="fil0" d="M3.9813 4.05342c-0.00529134,0.000775591 -0.0112362,0.00119685 -0.0177244,0.00127559l-0.000208661 0c-0.0270157,0.000314961 -0.051315,-0.00791732 -0.0704094,-0.0232874 -0.0199606,-0.0160787 -0.0333268,-0.0388701 -0.0374331,-0.0668583l0 -0.000208661c-0.000673228,-0.00463386 -0.00106299,-0.0100394 -0.0011378,-0.0162283 -0.000799213,-0.0621732 -0.000531496,-0.124693 -0.000267717,-0.187114 9.44882e-005,-0.0219843 0.000192913,-0.0439764 0.00023622,-0.0654016 4.72441e-005,-0.0322559 0.00759449,-0.0565669 0.0272559,-0.0773189 0.0169961,-0.0179331 0.0400709,-0.0288425 0.0730787,-0.0364173 0.0258543,-0.00592126 0.050622,-0.0129173 0.0730906,-0.0227165 0.0209331,-0.00912992 0.0404921,-0.0209803 0.0579764,-0.0372165 0.0218661,-0.0203189 0.0382205,-0.0429488 0.0502795,-0.0674843 0.00349213,-0.0071063 0.00665354,-0.0144528 0.00952362,-0.0220236l-0.287024 -0.000551181 -0.106551 -0.000200787c-0.00552756,-3.93701e-006 -0.0110748,1.5748e-005 -0.0166063,3.14961e-005 -0.0115827,4.33071e-005 -0.0231811,8.26772e-005 -0.034563,-0.000110236 -0.0460984,-0.00076378 -0.0855157,-0.0177087 -0.113827,-0.0464961 -0.0282441,-0.0287362 -0.0445591,-0.0683583 -0.0445433,-0.114528 5.11811e-005,-0.162894 0.000224409,-0.325807 0.000385827,-0.488713l0.000244094 -0.259244 -0.000208661 0c0,-0.0426496 0.00654331,-0.0851063 0.0276339,-0.119484 0.0245669,-0.0400472 0.0643268,-0.0661496 0.127453,-0.0661496l0 0.000208661c0.101992,-5.11811e-005 0.203992,-4.33071e-005 0.30598,-4.33071e-005 0.141854,3.93701e-006 0.283717,1.1811e-005 0.425583,-0.000137795 0.155169,-0.000185039 0.155154,0.12276 0.155134,0.217614l0.000208661 0 0 0.00251969 -0.000208661 0 2.3622e-005 0.233339c2.3622e-005,0.197776 5.11811e-005,0.395563 -9.84252e-005,0.593354 -0.000141732,0.174917 -0.0635197,0.327303 -0.168409,0.443291 -0.108787,0.120299 -0.26189,0.200937 -0.434866,0.226299zm-0.0189764 -0.104976l3.14961e-005 0 2.75591e-005 0c0.000444882,-1.9685e-005 0.0016063,-0.000165354 0.0035,-0.000440945 0.148606,-0.0217913 0.279398,-0.090248 0.371535,-0.192134 0.0877598,-0.0970433 0.140783,-0.224913 0.140906,-0.372039 0.000149606,-0.197791 0.000122047,-0.395579 9.84252e-005,-0.593354l-2.3622e-005 -0.233339 -0.000208661 0 0 -0.00251969 0.000208661 0c7.87402e-006,-0.0485197 1.5748e-005,-0.111417 -0.0488819,-0.111362 -0.141866,0.000149606 -0.283728,0.000141732 -0.425583,0.000137795 -0.101988,0 -0.203988,-7.87402e-006 -0.30598,4.33071e-005l0 0.000208661c-0.0199646,0 -0.0310866,0.00588189 -0.0366181,0.0148976 -0.00900394,0.0146772 -0.0117992,0.0383819 -0.0117992,0.0640669l-0.000208661 0 -0.000244094 0.259244c-0.000161417,0.162906 -0.000334646,0.325819 -0.000385827,0.488713 -3.93701e-006,0.0170591 0.00516929,0.0308346 0.014126,0.0399449 0.00898819,0.00914173 0.022685,0.0145472 0.0396614,0.0148268 0.0110827,0.000188976 0.022,0.000149606 0.0328937,0.000110236 0.0055315,-1.5748e-005 0.0110787,-3.54331e-005 0.0166063,-3.14961e-005l0.106551 0.000200787c0.118689,0.000216535 0.237386,0.000448819 0.356087,0.000688976l0.0633898 0.000133858 -0.0108898 0.0621575c-0.00688976,0.0393268 -0.0181969,0.0769606 -0.0356693,0.112516 -0.0178346,0.0362874 -0.0416654,0.0694252 -0.0732008,0.0987283 -0.0270079,0.0250787 -0.0566142,0.0431181 -0.0879764,0.0567992 -0.0298307,0.0130118 -0.0605472,0.0217992 -0.0918386,0.0289685 -0.0120315,0.00275984 -0.0184843,0.00466535 -0.019748,0.006 -0.00138976,0.0014685 0.00192126,-3.93701e-006 0.00191732,0.00398819 -4.72441e-005,0.0222677 -0.000145669,0.0440433 -0.00023622,0.0658189 -0.000259843,0.0617953 -0.000527559,0.123685 0.000267717,0.185445 0,0.000220472 6.29921e-005,0.000767717 0.000181102,0.00161024l0.00150394 -2.75591e-005zm-0.00269685 5.11811e-005l8.26772e-005 0c-0.000291339,-0.000188976 -0.000429134,-0.000279528 -8.26772e-005,0z" id="_267512408"/><path class="fil0" d="M5.43267 2.70045c-0.0363465,-0.198165 -0.0978189,-0.383626 -0.184382,-0.55628 -0.0864606,-0.172457 -0.198272,-0.33261 -0.335382,-0.480358 -0.0576181,-0.0620945 -0.118803,-0.12022 -0.183476,-0.174346 -0.0647677,-0.0542047 -0.132886,-0.104268 -0.20428,-0.150169 -0.133449,-0.0857913 -0.272484,-0.154827 -0.417165,-0.206925 -0.144594,-0.052063 -0.295732,-0.0875118 -0.453488,-0.106146 -0.0130512,-0.00154724 -0.0258858,-0.00247244 -0.0386969,-0.00338583 -0.0260276,-0.0018622 -0.052063,-0.00372835 -0.078878,-0.00950787l-0.24978 0c-0.0113386,0.00584646 -0.0235472,0.0053189 -0.0355709,0.00473228 -0.0340039,0.00303937 -0.0680787,0.00652362 -0.102272,0.0108425 -0.0338976,0.00427953 -0.0682795,0.00951575 -0.103366,0.0161693 -0.252476,0.0478425 -0.482205,0.133681 -0.68872,0.257551 -0.206024,0.123571 -0.38937,0.285299 -0.549587,0.485205 -0.131079,0.163535 -0.232846,0.339071 -0.305854,0.525976 -0.0735787,0.188362 -0.117961,0.388524 -0.133717,0.599811 -0.00759449,0.101984 -0.00770866,0.203472 -0.000338583,0.304331 0.00738583,0.101087 0.0221969,0.20126 0.0444213,0.30039l0 0.000208661c0.0165945,0.0740591 0.0373937,0.147154 0.0624882,0.219106 0.0244764,0.070185 0.0533504,0.139626 0.0867087,0.208169l-0.000169291 8.26772e-005 0.00383465 0.00765354c0.00150787,0.00301575 -0.00349213,-0.00696457 0.013937,0.0272559l0 0.000208661c0.0547874,0.107882 0.117343,0.209799 0.188197,0.305378 0.0707795,0.0954843 0.15002,0.184874 0.238252,0.267819 0.0461732,0.0434016 0.0942441,0.0849803 0.14448,0.124465 0.049626,0.0390039 0.101173,0.0757047 0.154878,0.109799 0.165469,0.105028 0.338358,0.184917 0.518744,0.238992 0.179311,0.053752 0.365945,0.082185 0.56,0.0846299 0.0265709,0.000338583 0.0454449,0.00573228 0.0616772,0.0218701 0.0163425,0.016248 0.0220748,0.0354528 0.0219291,0.0629449 -0.000893701,0.172035 -0.000787402,0.344028 -0.000688976,0.516016l3.54331e-005 0.0709961c0.177835,-0.0864449 0.348906,-0.182945 0.512543,-0.290453 0.181138,-0.119008 0.353685,-0.251976 0.516791,-0.400248 0.0328819,-0.0298858 0.0643898,-0.0598346 0.0946102,-0.0898307 0.0305551,-0.0303307 0.0608543,-0.0617165 0.0909134,-0.0941024 0.0102047,-0.0109921 0.0223031,-0.0241693 0.0344961,-0.0374606 0.0137874,-0.0150236 0.0276181,-0.0300906 0.0428583,-0.0464055 0.0239803,-0.0256496 0.0466929,-0.0542205 0.0694055,-0.0827874 0.013626,-0.0171417 0.0272638,-0.0342953 0.0410197,-0.0507087 0.0212205,-0.0253189 0.0411575,-0.0511654 0.060374,-0.0772913 0.0205669,-0.0279646 0.0394094,-0.0548346 0.0578898,-0.0814606 0.0420709,-0.0606102 0.0817283,-0.12226 0.118559,-0.185106 0.0365945,-0.0624449 0.0708465,-0.126902 0.102417,-0.193665 0.0163307,-0.0345197 0.0319921,-0.0685354 0.0465236,-0.101713 0.015,-0.0342441 0.0292638,-0.0684724 0.0424803,-0.102685l0.00475591 -0.00915748c0.0352953,-0.0924606 0.0644291,-0.186819 0.0878898,-0.282866 0.0236811,-0.0969528 0.0415354,-0.196268 0.0540748,-0.297646 0.00435039,-0.0351142 0.00792913,-0.0702598 0.0108504,-0.105366 0.00314961,-0.0378346 0.00547638,-0.0730039 0.00711811,-0.105906 0.00375984,-0.0751811 0.00318504,-0.150437 -0.00174016,-0.225654 -0.00490551,-0.0749764 -0.0141063,-0.149346 -0.0276024,-0.222972zm-0.0893819 -0.603776c0.0911732,0.18185 0.155843,0.376756 0.193965,0.58461 0.0143819,0.0784449 0.0241339,0.15698 0.0292717,0.235469 0.00514567,0.0785866 0.00571654,0.157736 0.00174016,0.237323 -0.00194488,0.0389488 -0.00429528,0.0757008 -0.00711811,0.109654 -0.00305118,0.0366772 -0.00677165,0.0732244 -0.0112677,0.109531 -0.0128425,0.103819 -0.0315118,0.207106 -0.0565787,0.309732 -0.024815,0.101587 -0.0559764,0.201961 -0.0940315,0.300933l0.000114173 4.33071e-005c-0.00177559,0.00468898 -0.00358268,0.00805906 -0.00540551,0.0108504 -0.0132835,0.0340906 -0.0272283,0.0674843 -0.0416378,0.100378 -0.0157874,0.0360472 -0.0317323,0.0707362 -0.0477677,0.104634 -0.0324252,0.0685669 -0.0682362,0.135846 -0.107,0.201996 -0.0385236,0.0657323 -0.0795551,0.129575 -0.122732,0.191776 -0.0200748,0.0289252 -0.040063,0.0574528 -0.0595512,0.0839567 -0.0208504,0.0283465 -0.0422283,0.0560866 -0.0645394,0.0827087 -0.0135787,0.0162047 -0.0264764,0.0324252 -0.0393583,0.0486299 -0.0239055,0.0300669 -0.047815,0.0601417 -0.0748228,0.0890315 -0.0133189,0.0142598 -0.027878,0.030122 -0.0424409,0.0459882 -0.0109094,0.0118937 -0.021937,0.0239016 -0.0349134,0.037878 -0.0302874,0.0326299 -0.0615433,0.0649803 -0.0938268,0.0970236 -0.0326102,0.0323661 -0.0652598,0.0634567 -0.0979409,0.0931614 -0.166425,0.151291 -0.343457,0.287602 -0.53013,0.410248 -0.186102,0.122264 -0.381303,0.230508 -0.584697,0.326075l3.93701e-005 7.87402e-005c-0.0028189,0.00133071 -0.00706693,0.0030315 -0.0125157,0.00520472l-0.00544882 0.00224409 -0.0700866 0.0287362 -0.00324803 -0.0758189 -0.000507874 -0.00948031c-0.000314961,-0.00590551 -0.000610236,-0.0112362 -0.000633858,-0.0195551l-6.29921e-005 -0.126776c-9.84252e-005,-0.165012 -0.000200787,-0.330028 0.000582677,-0.494957 -0.196965,-0.00433465 -0.386154,-0.0340157 -0.567665,-0.0884252 -0.190067,-0.0569764 -0.371839,-0.140906 -0.545406,-0.251071 -0.0565433,-0.0358937 -0.111012,-0.0746929 -0.163634,-0.116051 -0.0520157,-0.0408819 -0.102469,-0.0845748 -0.151559,-0.130717 -0.0926811,-0.0871299 -0.176087,-0.181252 -0.250756,-0.281984 -0.0745709,-0.100591 -0.14028,-0.207591 -0.197697,-0.32063l-8.26772e-005 4.33071e-005c-0.00806299,-0.0158268 -0.00317717,-0.00660236 -0.013937,-0.0280906l-0.00408268 -0.00814961 -0.000417323 -0.000413386c-0.0345709,-0.0710354 -0.0649764,-0.144382 -0.0912913,-0.219839 -0.0262402,-0.0752323 -0.0481339,-0.152299 -0.0657756,-0.230996l-4.33071e-005 1.1811e-005c-0.0235591,-0.105071 -0.0392047,-0.210524 -0.0469252,-0.316224 -0.00775197,-0.106047 -0.0076378,-0.212669 0.000338583,-0.31974 0.0165315,-0.221701 0.0632677,-0.43215 0.140803,-0.630646 0.076874,-0.196803 0.184047,-0.381657 0.322106,-0.553898 0.168035,-0.209661 0.360831,-0.379583 0.577917,-0.509787 0.217406,-0.130402 0.458803,-0.220681 0.72372,-0.270882 0.0355906,-0.00675197 0.0722559,-0.0122874 0.109618,-0.0170039 0.0298937,-0.00377953 0.0600591,-0.00696457 0.0903701,-0.00979528l0.00302756 -0.0070315 0.0350472 0 0.278358 0 0.0122913 0.00146063c0.0214252,0.00511024 0.0448346,0.0067874 0.0682323,0.00846457 0.014685,0.00104724 0.0293858,0.00211024 0.0436969,0.00380315 0.164846,0.0194724 0.323768,0.0568701 0.476827,0.11198 0.152969,0.0550827 0.299217,0.127594 0.438827,0.217343 0.0753543,0.0484449 0.147083,0.10115 0.215114,0.158083 0.0678622,0.0567953 0.132244,0.117976 0.193059,0.18352 0.143713,0.154862 0.261217,0.323346 0.352469,0.505358zm-2.09064 -1.0787c0.00069685,-7.87402e-006 0.00141732,-1.5748e-005 0.00176772,-3.93701e-006l-1.5748e-005 -0.000153543 -0.00175197 0.00015748zm2.13711 2.98258l0.0011063 -0.00137402 -1.9685e-005 -1.1811e-005 -0.00108661 0.00138583z" id="_267512888"/><path class="fil0" d="M2.65829 4.05342c-0.00529134,0.000775591 -0.0112362,0.00119685 -0.0177244,0.00127559l-0.000208661 0c-0.0270197,0.000314961 -0.051315,-0.00792126 -0.0704094,-0.0232874 -0.0199606,-0.0160787 -0.0333268,-0.0388701 -0.0374331,-0.0668583l0 -0.000208661c-0.000673228,-0.00463386 -0.00106299,-0.0100394 -0.0011378,-0.0162283 -0.000799213,-0.0621732 -0.000531496,-0.124693 -0.000267717,-0.187114 9.44882e-005,-0.0219843 0.000192913,-0.0439764 0.00023622,-0.0654016 4.72441e-005,-0.0322559 0.00759449,-0.0565669 0.0272559,-0.0773189 0.0169921,-0.0179291 0.0400709,-0.0288425 0.0730787,-0.0364173 0.0258543,-0.00592126 0.050626,-0.0129173 0.0730906,-0.0227165 0.020937,-0.00913386 0.0404961,-0.0209803 0.0579803,-0.0372165 0.0218622,-0.0203189 0.0382165,-0.0429488 0.0502756,-0.0674843 0.00349213,-0.0071063 0.00665354,-0.0144528 0.00952362,-0.0220236l-0.287024 -0.000551181 -0.106551 -0.000200787c-0.00552756,-3.93701e-006 -0.0110748,1.5748e-005 -0.0166063,3.14961e-005 -0.0115827,4.33071e-005 -0.0231811,8.26772e-005 -0.034563,-0.000110236 -0.0460984,-0.00076378 -0.0855197,-0.0177087 -0.113823,-0.0464961 -0.028252,-0.0287362 -0.0445551,-0.0683543 -0.0445472,-0.114528 5.11811e-005,-0.162894 0.000224409,-0.325807 0.000385827,-0.488713l0.000244094 -0.259244 -0.000208661 0c0,-0.0426496 0.00654331,-0.0851063 0.0276339,-0.119484 0.0245669,-0.0400472 0.0643268,-0.0661496 0.127453,-0.0661496l0 0.000208661c0.101992,-5.11811e-005 0.203992,-4.33071e-005 0.305984,-4.33071e-005 0.14185,3.93701e-006 0.283717,1.1811e-005 0.425579,-0.000137795 0.155169,-0.000185039 0.155157,0.122772 0.155138,0.217622l0.000208661 0 0 0.00251181 -0.000208661 0 1.9685e-005 0.230386c2.3622e-005,0.19876 5.11811e-005,0.397531 -9.84252e-005,0.596307 -0.000141732,0.174917 -0.0635197,0.327303 -0.168409,0.443291 -0.108787,0.120299 -0.26189,0.200937 -0.434866,0.226299zm-0.0189764 -0.104976l3.14961e-005 0 3.14961e-005 0c0.000444882,-1.9685e-005 0.00160236,-0.000165354 0.00349606,-0.000440945 0.148606,-0.0217913 0.279398,-0.090248 0.371535,-0.192134 0.0877598,-0.0970433 0.140783,-0.224913 0.140906,-0.372039 0.000149606,-0.198776 0.000122047,-0.397547 9.84252e-005,-0.596307l-1.9685e-005 -0.230386 -0.000208661 0 0 -0.00251181 0.000208661 0c7.87402e-006,-0.0485197 1.9685e-005,-0.111425 -0.0488858,-0.11137 -0.141862,0.000149606 -0.283728,0.000141732 -0.425579,0.000137795 -0.101992,0 -0.203992,-7.87402e-006 -0.305984,4.33071e-005l0 0.000208661c-0.0199646,0 -0.0310866,0.00588189 -0.0366181,0.0148976 -0.00900394,0.0146772 -0.0117992,0.0383819 -0.0117992,0.0640669l-0.000208661 0 -0.000244094 0.259244c-0.000161417,0.162906 -0.000334646,0.325819 -0.000385827,0.488713 -3.93701e-006,0.0170551 0.00517323,0.0308346 0.0141299,0.0399449 0.00898819,0.00914173 0.022685,0.0145472 0.0396575,0.0148268 0.0110827,0.000188976 0.022,0.000149606 0.0328937,0.000110236 0.0055315,-1.5748e-005 0.0110787,-3.54331e-005 0.0166063,-3.14961e-005l0.106551 0.000200787c0.118689,0.000216535 0.237386,0.000448819 0.356087,0.000688976l0.0633937 0.000133858 -0.0108937 0.0621575c-0.00688976,0.0393268 -0.0181969,0.0769606 -0.0356693,0.112516 -0.0178346,0.0362874 -0.0416654,0.0694213 -0.0731969,0.0987283 -0.0270157,0.0250827 -0.056622,0.0431181 -0.0879803,0.0567992 -0.0298307,0.0130118 -0.0605472,0.0217992 -0.0918386,0.0289685 -0.0120315,0.00275984 -0.0184803,0.00466142 -0.019748,0.006 -0.0013937,0.0014685 0.00192126,-3.93701e-006 0.00191732,0.00398819 -4.72441e-005,0.0222677 -0.000145669,0.0440433 -0.00023622,0.0658189 -0.000259843,0.0617953 -0.000527559,0.123685 0.000267717,0.185445 0,0.000220472 6.29921e-005,0.000767717 0.000181102,0.00161024l0.00150394 -2.75591e-005zm-0.00269685 5.11811e-005l7.87402e-005 0c-0.000291339,-0.000188976 -0.000425197,-0.000279528 -7.87402e-005,0z" id="_267512792"/></g></g><rect class="fil1" height="6.82666" width="6.82666"/></svg>