<?xml version="1.0" ?><!DOCTYPE svg  PUBLIC '-//W3C//DTD SVG 1.1//EN'  'http://www.w3.org/Graphics/SVG/1.1/DTD/svg11.dtd'><svg height="6.82666in" style="shape-rendering:geometricPrecision; text-rendering:geometricPrecision; image-rendering:optimizeQuality; fill-rule:evenodd; clip-rule:evenodd" viewBox="0 0 6.82666 6.82666" width="6.82666in" xml:space="preserve" xmlns="http://www.w3.org/2000/svg" xmlns:xlink="http://www.w3.org/1999/xlink"><defs><style type="text/css">
   <![CDATA[
    .fil1 {fill:none}
    .fil0 {fill:#212121;fill-rule:nonzero}
   ]]>
  </style></defs><g id="Layer_x0020_1"><path class="fil0" d="M5.77641 3.83624c-0.0492323,-0.0568937 -0.0995394,-0.112524 -0.151039,-0.166728 -0.0646614,-0.0680591 -0.131583,-0.134287 -0.20102,-0.198425 -0.323118,-0.298425 -0.673547,-0.530382 -1.05321,-0.691079 -0.37965,-0.160693 -0.789118,-0.250531 -1.23035,-0.264748 -0.0214488,-0.00069685 -0.0474173,0.00122835 -0.0733228,0.00314961 -0.0660118,0.00489764 -0.131768,0.00977559 -0.187232,-0.023252l-0.000208661 0c-0.0609961,-0.0363661 -0.0799567,-0.102894 -0.0990866,-0.169992 -0.0073622,-0.0258307 -0.0147638,-0.0517874 -0.0236378,-0.0717008l-7.87402e-005 3.54331e-005c-0.000452756,-0.00101181 -0.00116535,-0.00272441 -0.00242913,-0.00598425 -0.000933071,-0.00240551 -0.00187008,-0.00520866 -0.0027874,-0.00856693l-0.000417323 -0.00145669c-0.000740157,-0.00302756 0.00264173,-0.00218898 0.00116142,-0.0030748 -0.000590551,-0.000350394 -0.00484252,-0.000129921 -0.0120906,0.000535433l-0.000208661 0c-0.0616654,0.00555118 -0.118618,0.0102795 -0.169685,0.0139803 -0.0473346,0.00342913 -0.0960866,0.0065315 -0.146453,0.00924803 0.0102323,0.0308898 0.0198701,0.0614882 0.0295079,0.0920709 0.0123976,0.0393622 0.0248071,0.0787362 0.0392087,0.120606l0 0.000208661c0.00875984,0.0256496 0.0123071,0.0475591 0.00305512,0.0702244 -0.0114449,0.0280433 -0.0341102,0.043811 -0.0752165,0.0468071 -0.00791339,0.000562992 -0.018374,0.00337008 -0.0288189,0.00617323 -0.00580315,0.00155118 -0.0116102,0.00311417 -0.0178543,0.00457087 -0.202701,0.0471496 -0.39385,0.113079 -0.566094,0.209244 -0.170976,0.0954528 -0.324079,0.221122 -0.452339,0.388437 -0.116791,0.152378 -0.195787,0.31735 -0.248516,0.491024 -0.0511969,0.16863 -0.0778819,0.34635 -0.0904331,0.529252 0.149724,0.0013937 0.299764,-0.0124606 0.449811,-0.0263189 0.057815,-0.00533858 0.115638,-0.0106811 0.153756,-0.0137559 0.174496,-0.014063 0.348992,-0.0281969 0.523476,-0.0423189 0.436791,-0.0353543 0.873583,-0.0707205 1.31045,-0.105181 -0.100638,-0.253067 -0.189071,-0.479362 -0.277528,-0.705713 -0.0701929,-0.17963 -0.140449,-0.359402 -0.222213,-0.566283 -0.0174134,-0.0440472 -0.0190984,-0.0746024 0.00015748,-0.101374 0.0189252,-0.026311 0.0477677,-0.034 0.0924488,-0.0337244 0.0956575,0.000633858 0.190374,0.00498031 0.283803,0.0149055 0.0947126,0.010063 0.188713,0.0257756 0.281823,0.0490315l-1.1811e-005 5.11811e-005c0.242772,0.0605709 0.461094,0.159961 0.660512,0.289295 0.198657,0.128839 0.378146,0.287118 0.544098,0.466114 0.00184252,0.00199213 0.00396063,0.00386614 0.0061063,0.00577165 0.0211024,0.0187087 0.043685,0.0387362 0.0421614,0.0870984l-0.00151575 0.0480157 -0.0478622 0.00344488c-0.0531811,0.00382283 -0.106346,0.00760236 -0.159476,0.0113701 -0.158047,0.0112126 -0.315909,0.0224252 -0.479067,0.0353976 -0.0693386,0.00544488 -0.0901181,-0.0309409 -0.111083,-0.0676654 -0.00073622,-0.00129134 -0.00147244,-0.0025748 -0.00526378,-0.00874016l0 -0.000208661c-0.0578071,-0.0942677 -0.115437,-0.188665 -0.172965,-0.283106 -0.00840945,-0.0138071 -0.0882283,-0.145165 -0.172295,-0.283516l-9.05512e-005 5.51181e-005c-0.00679921,-0.0111614 -0.0132638,-0.0212913 -0.0198622,-0.0277283 -0.00465748,-0.00454724 -0.0104803,-0.00809843 -0.0186378,-0.0100748 -0.0659764,-0.0159173 -0.132189,-0.0291693 -0.198972,-0.0381181 -0.0614331,-0.00823622 -0.123142,-0.0127953 -0.185276,-0.0124055 0.112209,0.224366 0.222453,0.448941 0.332693,0.673516 0.0428228,0.0872402 0.0851142,0.173398 0.162413,0.330157 0.0457756,0.0929724 0.0472362,0.0928504 0.147654,0.0842047l0.0110669 -0.000952756c0.328894,-0.0279921 0.66511,-0.0554016 1.00128,-0.0828071 0.156362,-0.0127441 0.311953,-0.0254291 0.497547,-0.0407244 0.0936417,-0.00772047 0.193323,-0.016374 0.292118,-0.0249488l0.0383425 -0.00332283zm-0.0739606 -0.240059c0.0665512,0.0700472 0.130756,0.141917 0.192886,0.215339 0.000334646,0.000397638 0.000885827,0.000972441 0.00143307,0.00155118 0.0168071,0.0176811 0.0353543,0.037189 0.0210433,0.0842795l-0.0105236 0.0346181 -0.035937 0.00309055c-0.0135906,0.00116535 -0.072252,0.00625984 -0.124118,0.0107559 -0.0948543,0.00823228 -0.190614,0.0165472 -0.292535,0.0249488 -0.146213,0.0120472 -0.322484,0.0264213 -0.497965,0.0407244 -0.331232,0.027 -0.662484,0.0540079 -1.00087,0.0828071l-0.0110669 0.000952756c-0.171366,0.0147598 -0.173862,0.0149685 -0.251819,-0.14337 -0.0312402,-0.0633504 -0.0971024,-0.197524 -0.162413,-0.330575 -0.112874,-0.229937 -0.225744,-0.45987 -0.340047,-0.68822 -0.0258583,-0.0517283 -0.0243858,-0.0848701 0,-0.111205 0.0214488,-0.0231535 0.0491772,-0.0261614 0.0865827,-0.0268307 0.0729803,-0.00137402 0.14472,0.00355512 0.21563,0.0130591 0.0703465,0.0094252 0.140177,0.0234055 0.209807,0.0402047 0.0291969,0.00708268 0.0504291,0.0202008 0.0678031,0.0371535 0.0154331,0.0150591 0.0260118,0.0312874 0.0365315,0.048563l0 0.000208661c0.0307441,0.0506024 0.065748,0.108181 0.172386,0.283252 0.0574961,0.0943937 0.115098,0.188744 0.17287,0.282957l9.44882e-005 -5.90551e-005c0.000397638,0.000645669 0.00367323,0.00638583 0.0069252,0.0120787 0.00403543,0.00707087 0.00804331,0.0140827 0.0102559,0.0139094 0.156248,-0.0124252 0.317972,-0.0239094 0.479902,-0.0353976l0.0642913 -0.00456299c-0.153217,-0.161791 -0.317827,-0.304843 -0.49822,-0.421835 -0.189768,-0.123075 -0.397425,-0.217626 -0.628213,-0.275181l-0.000208661 0c-0.0884528,-0.0220945 -0.177575,-0.0370039 -0.26724,-0.0465276 -0.0872559,-0.00926772 -0.174531,-0.0135276 -0.261878,-0.0143937 0.066374,0.168028 0.142213,0.362098 0.218098,0.556287 0.0958031,0.245154 0.191638,0.490386 0.27798,0.707488 0.0178346,0.044937 0.0200472,0.0756181 0.0020748,0.102921 -0.018063,0.0274646 -0.0462638,0.0365945 -0.0903504,0.0400512l0 1.5748e-005c-0.43787,0.0345354 -0.875665,0.0699803 -1.31346,0.105417 -0.174484,0.014122 -0.34898,0.0282559 -0.523476,0.0423189 -0.0640236,0.00516535 -0.108276,0.00925591 -0.152504,0.0133386 -0.154185,0.0142402 -0.308358,0.0284764 -0.46487,0.026689 -0.000980315,-7.87402e-006 -0.00449213,0.000169291 -0.00797638,0.000346457l-0.000208661 0c-0.00659449,0.000326772 -0.0131299,0.00065748 -0.0202992,0.000208661 -0.0443228,-0.0027874 -0.0782835,-0.0192677 -0.0736457,-0.0928346 0.012374,-0.197122 0.0404094,-0.389693 0.0963701,-0.574012 0.0563504,-0.185602 0.140776,-0.361913 0.265602,-0.524772 0.137657,-0.179579 0.301894,-0.314402 0.485252,-0.416768 0.182094,-0.101665 0.382315,-0.170933 0.593598,-0.220079 0.00454724,-0.00105906 0.00954724,-0.00240551 0.0145236,-0.00373622 0.0069252,-0.00185827 0.0138622,-0.00372047 0.021063,-0.0053189 -0.0111969,-0.033437 -0.0223307,-0.0687795 -0.0334646,-0.104118 -0.0118504,-0.0376063 -0.0237047,-0.0752362 -0.0360984,-0.111717 -0.0106614,-0.0314724 -0.0119685,-0.0561142 0.00240551,-0.0796929 0.0147441,-0.0242165 0.0385748,-0.035378 0.0767283,-0.0373268l0 -1.1811e-005c0.0540039,-0.00275197 0.110154,-0.00629528 0.168083,-0.0104921 0.0615,-0.00445276 0.117063,-0.00898031 0.167807,-0.0135433l0 -1.9685e-005c0.0294528,-0.00270079 0.0545276,0.00105512 0.0762559,0.0140472 0.0230472,0.0137874 0.0385472,0.0350669 0.0467992,0.0662283l0.000169291 0.000358268 0 0.000208661c0.0127165,0.0284449 0.0209488,0.057311 0.0291339,0.0860394 0.0133465,0.0468228 0.0265866,0.093248 0.0511732,0.107906l-5.51181e-005 9.05512e-005c0.0262717,0.0155157 0.075748,0.0118425 0.125417,0.00816142 0.027563,-0.00204331 0.0551811,-0.00409449 0.0841496,-0.00314961 0.454531,0.0146457 0.876622,0.107315 1.26828,0.273087 0.391642,0.165768 0.752311,0.404283 1.08404,0.710661 0.0708228,0.0654173 0.139421,0.133327 0.20602,0.203425zm-2.238 0.439094c0.000566929,0.00297638 0.000425197,0.00516929 0.00279134,0.00156693 0.00229134,-0.00348031 0.000291339,-0.00234252 -0.00279134,-0.00156693zm-0.423484 -1.31734c-0.00274016,0.00380709 -0.00104724,0.00262992 0.0019252,0.000901575 0.00034252,-0.00284646 0.000582677,-0.00438976 -0.0019252,-0.000901575zm0.230583 0.174665l-1.1811e-005 -2.3622e-005 -0.00340157 0.00170079c-0.00390157,0.00424016 -0.00104331,0.00177953 0.00341339,-0.00167717zm-1.1811e-005 -2.3622e-005c-0.000405512,-0.000838583 -0.00116142,-0.000716535 -0.0031063,0.00138189l-0.000295276 0.000318898 0.00340157 -0.00170079zm-0.489874 0.840839l-0.138551 0.0120906c-0.243583,0.0212205 -0.487157,0.0424488 -0.71002,0.0643504 -0.0406732,0.00401969 -0.0713898,-0.000523622 -0.0953819,-0.0199567 -0.0263543,-0.0213583 -0.0364961,-0.0523858 -0.0323661,-0.098815 0.00173622,-0.0194921 0.00125197,-0.0408661 0.000771654,-0.0622441 -0.000334646,-0.0148543 -0.000673228,-0.0297205 -0.000673228,-0.0317992l0.000208661 0c-0.000429134,-0.217823 0.0579134,-0.405626 0.169146,-0.556177 0.111421,-0.150803 0.274937,-0.262992 0.48461,-0.329295 0.0258386,-0.00817323 0.047252,-0.0131732 0.0721378,-0.00566535 0.028378,0.00855906 0.0484252,0.0286811 0.0616654,0.0693228 0.0473189,0.144929 0.0933898,0.284539 0.13789,0.417516 0.0434055,0.129709 0.0903268,0.267925 0.14148,0.416417l-0.000185039 6.29921e-005c0.0249016,0.0721142 0.00284646,0.101248 -0.0418189,0.116677 -0.014374,0.00496457 -0.0270118,0.0058622 -0.0407992,0.00682677l-0.00811417 0.000688976zm-0.147717 -0.0941614l0.13228 -0.0115433c-0.0428228,-0.124496 -0.0882953,-0.258791 -0.135961,-0.40122 -0.0480906,-0.143713 -0.0935512,-0.281311 -0.13687,-0.413949 -0.000566929,0.000244094 -0.00119685,0.000472441 -0.00190157,0.00069685 -0.187945,0.0594331 -0.333449,0.158547 -0.43128,0.290957 -0.0975394,0.132016 -0.148697,0.298409 -0.148311,0.492846l0.000208661 0c0,0.0184094 0.000129921,0.0240709 0.000255906,0.0297126 0.00053937,0.0240039 0.00108661,0.0479882 -0.00118898,0.0734961 -0.000700787,0.00788583 -0.0100709,0.00416929 -0.00638976,0.00715354 0.00131496,0.00106299 0.00520472,-0.00212992 0.0178858,-0.00338189 0.25052,-0.024622 0.480882,-0.0446969 0.711272,-0.0647677zm-0.132819 -0.831272c-0.000783465,-0.00023622 -0.00130315,-0.000188976 -0.00174803,5.90551e-005 0.00290945,0.000472441 0.00488189,0.000885827 0.00174803,-5.90551e-005z"/></g><rect class="fil1" height="6.82666" width="6.82666"/></svg>