<?xml version="1.0" ?><!DOCTYPE svg  PUBLIC '-//W3C//DTD SVG 1.1//EN'  'http://www.w3.org/Graphics/SVG/1.1/DTD/svg11.dtd'><svg height="6.82666in" style="shape-rendering:geometricPrecision; text-rendering:geometricPrecision; image-rendering:optimizeQuality; fill-rule:evenodd; clip-rule:evenodd" viewBox="0 0 6.82666 6.82666" width="6.82666in" xml:space="preserve" xmlns="http://www.w3.org/2000/svg" xmlns:xlink="http://www.w3.org/1999/xlink"><defs><style type="text/css">
   <![CDATA[
    .fil1 {fill:none}
    .fil0 {fill:#212121;fill-rule:nonzero}
   ]]>
  </style></defs><g id="Layer_x0020_1"><path class="fil0" d="M5.15754 1.34109c-0.00854331,-0.000275591 -0.0161732,-0.000464567 -0.0230472,-0.000570866 -0.00804724,-0.000129921 -0.0155984,-0.000204724 -0.0228661,-0.000240157l0 0.000208661 -0.0211732 0 0 -0.000204724c-0.308972,0.00258661 -0.568161,0.0952244 -0.77761,0.277984 -0.19189,0.167449 -0.343528,0.41122 -0.454949,0.731374 0.0298425,-0.00915748 0.0594567,-0.016874 0.0888465,-0.0231339 0.0644252,-0.0137323 0.127811,-0.0206614 0.190256,-0.0206614 0.141654,0 0.245315,0.0417323 0.310929,0.125244 0.0636339,0.0809882 0.0875039,0.198303 0.0715748,0.351972l0.000102362 7.87402e-006c-0.0077874,0.0905551 -0.0404606,0.200402 -0.0979488,0.329492 -0.0560118,0.125772 -0.135921,0.270614 -0.239657,0.434484l0 0.000204724c-0.104587,0.16478 -0.196602,0.28902 -0.276126,0.372772 -0.0874606,0.0921063 -0.164264,0.13813 -0.230524,0.13813 -0.0885,0 -0.167744,-0.0727008 -0.237972,-0.218016 -0.0624528,-0.129224 -0.121551,-0.32085 -0.177472,-0.574791l5.11811e-005 -1.1811e-005c-0.0189606,-0.0758425 -0.0450669,-0.208331 -0.0782362,-0.397535 -0.0318307,-0.181602 -0.0717402,-0.425555 -0.119685,-0.732197l-3.14961e-005 3.93701e-006c-0.0426772,-0.269339 -0.119185,-0.465488 -0.229559,-0.588441 -0.105437,-0.117457 -0.244449,-0.16787 -0.417043,-0.151228l-0.000208661 0c-0.0723346,0.00668898 -0.165413,0.0447953 -0.279307,0.114244 -0.118146,0.0720433 -0.256409,0.17678 -0.414846,0.314122l3.54331e-005 3.93701e-005c-0.109012,0.0990197 -0.226906,0.205382 -0.355496,0.320575 -0.115106,0.103114 -0.223244,0.199413 -0.323236,0.287732l0.169134 0.218272c0.0910945,-0.0633465 0.164937,-0.111984 0.221343,-0.145984 0.0736772,-0.0444055 0.124602,-0.0665354 0.152299,-0.0665354 0.10448,0 0.201362,0.0749134 0.290602,0.224717 0.0813622,0.136591 0.159374,0.339618 0.234,0.609059l0.000208661 0.000417323c0.0806181,0.298268 0.172961,0.637291 0.265252,0.97615 0.043685,0.160406 0.0873819,0.320803 0.13098,0.481189 0.0954331,0.256079 0.201209,0.447618 0.316921,0.574547 0.110406,0.121106 0.229413,0.181681 0.356638,0.181681 0.219083,0 0.465083,-0.104882 0.737803,-0.31465 0.278591,-0.214283 0.58324,-0.536673 0.913724,-0.967154l0.000208661 -0.000208661c0.320087,-0.41298 0.562728,-0.781957 0.728079,-1.107 0.163295,-0.321004 0.250346,-0.597354 0.261295,-0.829134l1.1811e-005 0c0.00073622,-0.0159094 0.00127559,-0.030311 0.00162598,-0.0432559 0.000393701,-0.0148031 0.000645669,-0.0288976 0.00073622,-0.0422165l-0.000208661 0 0 -0.0298071 0.000204724 0c-0.00199606,-0.268346 -0.0587559,-0.469807 -0.170295,-0.604307 -0.109307,-0.131815 -0.274366,-0.200945 -0.495154,-0.207335l-0.000208661 0zm-0.021378 -0.106823c0.00896457,0.000141732 0.0172677,0.000330709 0.0247087,0.000570866l0 7.87402e-006c0.253047,0.00735827 0.444421,0.0892717 0.57411,0.245665 0.127492,0.15374 0.192323,0.377776 0.194472,0.672012l0.000208661 0.000208661 0 0.0298071 -0.000208661 0.000208661c-9.84252e-005,0.0152362 -0.000350394,0.0300709 -0.00073622,0.0445039 -0.000440945,0.0163189 -0.000988189,0.0315315 -0.0016378,0.0455512l0 0.000208661c-0.011685,0.247362 -0.102488,0.538161 -0.272547,0.872465 -0.167972,0.330201 -0.414169,0.704657 -0.738736,1.12344l3.14961e-005 2.3622e-005c-0.336138,0.437843 -0.647315,0.76676 -0.933307,0.986736 -0.292224,0.224772 -0.559898,0.337154 -0.802803,0.337154 -0.158425,0 -0.303713,-0.0722441 -0.435386,-0.216681 -0.125311,-0.137453 -0.238559,-0.341898 -0.339295,-0.613256l-0.00166535 -0.00458661c-0.0436417,-0.160539 -0.087378,-0.321091 -0.131106,-0.48165 -0.0849173,-0.311776 -0.169843,-0.623571 -0.265252,-0.976567l8.66142e-005 -2.3622e-005c-0.0720394,-0.260031 -0.146264,-0.454157 -0.222634,-0.582366 -0.0685551,-0.115079 -0.135016,-0.17263 -0.19935,-0.17263 -0.00825197,0 -0.0406969,0.0170039 -0.0972992,0.0511181 -0.0632835,0.0381457 -0.148937,0.0950787 -0.256689,0.170917l-0.0415118 0.0292205 -0.0311969 -0.0402598 -0.230823 -0.297878 -0.0305906 -0.0394803 0.0374646 -0.0330197c0.131988,-0.116315 0.251457,-0.222461 0.360272,-0.319937 0.109854,-0.0984094 0.228626,-0.205673 0.354661,-0.320157l0.00104331 -0.000834646c0.163465,-0.141764 0.306772,-0.25026 0.43002,-0.325413 0.127654,-0.0778425 0.235929,-0.120941 0.324933,-0.129224l0 -1.9685e-005c0.208256,-0.0200787 0.376988,0.0418622 0.506209,0.185811 0.124291,0.138453 0.209406,0.352799 0.255394,0.643024l0 0.000208661c0.045937,0.293843 0.0858898,0.537346 0.119717,0.730323 0.0330472,0.188528 0.0587205,0.319004 0.0769331,0.391504l0.000417323 0.00146063c0.0542795,0.246476 0.110606,0.430331 0.169142,0.551453 0.0507677,0.105043 0.0981102,0.157598 0.142138,0.157598 0.0359646,0 0.0870945,-0.0349134 0.153445,-0.104791 0.0742795,-0.0782323 0.161992,-0.197055 0.263205,-0.35652l9.05512e-005 5.90551e-005c0.10113,-0.159772 0.178654,-0.300122 0.232488,-0.421 0.0523701,-0.117594 0.0819843,-0.215917 0.0887756,-0.294909l0.000208661 -0.00104331c0.0131535,-0.125618 -0.0033189,-0.217724 -0.0493819,-0.276354 -0.0442244,-0.0562835 -0.119965,-0.0844094 -0.227181,-0.0844094 -0.0555236,0 -0.111551,0.00609055 -0.168169,0.0181575 -0.0576614,0.0122835 -0.115965,0.0306024 -0.175004,0.0548268l-0.104004 0.0426772 0.0329606 -0.107469c0.119673,-0.390193 0.293008,-0.684307 0.520063,-0.882441 0.229358,-0.200134 0.511736,-0.301516 0.847193,-0.30424l0.000417323 -0.000208661 0.0211732 0 0.000208661 0.000208661c0.00842126,3.93701e-005 0.0166102,0.000114173 0.0243268,0.000240157z"/></g><rect class="fil1" height="6.82666" width="6.82666"/></svg>