<?xml version="1.0" ?><!DOCTYPE svg  PUBLIC '-//W3C//DTD SVG 1.1//EN'  'http://www.w3.org/Graphics/SVG/1.1/DTD/svg11.dtd'><svg height="6.82666in" style="shape-rendering:geometricPrecision; text-rendering:geometricPrecision; image-rendering:optimizeQuality; fill-rule:evenodd; clip-rule:evenodd" viewBox="0 0 6.82666 6.82666" width="6.82666in" xml:space="preserve" xmlns="http://www.w3.org/2000/svg" xmlns:xlink="http://www.w3.org/1999/xlink"><defs><style type="text/css">
   <![CDATA[
    .fil2 {fill:none}
    .fil0 {fill:none;fill-rule:nonzero}
    .fil1 {fill:#212121;fill-rule:nonzero}
   ]]>
  </style></defs><g id="Layer_x0020_1"><path class="fil0" d="M1.20488 3.83747c-0.0409331,-0.0241102 -0.0785315,-0.0532874 -0.111917,-0.0866732 -0.101087,-0.101083 -0.16361,-0.240724 -0.16361,-0.394957 0,-0.154232 0.0625236,-0.293874 0.16361,-0.394957 0.101083,-0.101087 0.240724,-0.16361 0.394957,-0.16361 0.142059,0 0.27174,0.0530472 0.370319,0.140413"/><path class="fil0" d="M5.62178 3.83747c0.0409331,-0.0241102 0.0785315,-0.0532874 0.111917,-0.0866732 0.101087,-0.101083 0.16361,-0.240724 0.16361,-0.394957 0,-0.154232 -0.0625236,-0.293874 -0.16361,-0.394957 -0.101083,-0.101087 -0.240724,-0.16361 -0.394957,-0.16361 -0.142059,0 -0.27174,0.0530472 -0.370319,0.140413"/><g id="_264867904"><path class="fil1" d="M2.9585 3.73146c0,-0.074563 -0.0302835,-0.14213 -0.0791339,-0.19102 -0.048752,-0.0487835 -0.116205,-0.0790079 -0.190661,-0.0790079 -0.0746024,0 -0.14226,0.0303031 -0.191217,0.0792244 -0.0488189,0.0487756 -0.0790748,0.116264 -0.0790748,0.190803 0,0.0745512 0.0302402,0.142067 0.079063,0.190854 0.0489331,0.0488898 0.116567,0.079185 0.191228,0.079185 0.0744488,0 0.141894,-0.0302283 0.190646,-0.0790197 0.0488661,-0.0489016 0.0791496,-0.116476 0.0791496,-0.19102zm-0.00371654 -0.26602c0.0681496,0.0682047 0.110386,0.162303 0.110386,0.26602 0,0.103697 -0.0422402,0.197807 -0.110402,0.26602 -0.0682953,0.0683465 -0.162441,0.110689 -0.266063,0.110689 -0.103815,0 -0.19798,-0.042248 -0.266228,-0.110437 -0.0683819,-0.0683307 -0.110732,-0.162543 -0.110732,-0.266272 0,-0.103724 0.0423701,-0.197909 0.110744,-0.26622 0.0682717,-0.0682244 0.162472,-0.110476 0.266217,-0.110476 0.10363,0 0.197783,0.0423346 0.266079,0.110677z" id="_264868624"/><path class="fil1" d="M4.17901 3.46143c-0.0744567,0 -0.141902,0.0302205 -0.19065,0.0790039 -0.0488504,0.0488898 -0.079126,0.116457 -0.079126,0.191024 0,0.0745827 0.030248,0.142181 0.0791102,0.191083 0.0487087,0.048748 0.11613,0.0789567 0.190665,0.0789567 0.0745394,0 0.141965,-0.0302008 0.190681,-0.0789528 0.0488661,-0.0489055 0.0791142,-0.116504 0.0791142,-0.191087 0,-0.0746024 -0.0302441,-0.142193 -0.0790984,-0.191083 -0.0487165,-0.048748 -0.116146,-0.0789449 -0.190697,-0.0789449zm-0.266067 0.00400394c0.0682913,-0.0683425 0.162433,-0.110673 0.266067,-0.110673 0.103736,0 0.197854,0.0423071 0.266114,0.110614 0.0681614,0.0682047 0.11035,0.162339 0.11035,0.266083 0,0.103728 -0.0421969,0.197866 -0.110366,0.266087 -0.0682559,0.0683071 -0.16237,0.110622 -0.266098,0.110622 -0.103728,0 -0.197831,-0.0423189 -0.266083,-0.110626 -0.0681654,-0.0682205 -0.110362,-0.162362 -0.110362,-0.266083 0,-0.10372 0.0422283,-0.197819 0.110378,-0.266024z" id="_264869056"/><path class="fil1" d="M3.43315 2.45998c0.303622,0 0.593906,0.0391535 0.859339,0.110098 0.276276,0.0738465 0.52572,0.182283 0.735406,0.317012 0.218465,0.14037 0.394882,0.309858 0.515783,0.499795 0.117795,0.185055 0.182811,0.388957 0.182811,0.603843 0,0.214886 -0.0650157,0.418787 -0.182811,0.603843 -0.120902,0.189937 -0.297319,0.359425 -0.515783,0.499795 -0.209685,0.134728 -0.45913,0.243165 -0.735406,0.317012 -0.265433,0.0709449 -0.555717,0.110098 -0.859339,0.110098 -0.303622,0 -0.593906,-0.0391535 -0.859335,-0.110098 -0.276276,-0.0738465 -0.52572,-0.182283 -0.735406,-0.317012 -0.218465,-0.14037 -0.394882,-0.309858 -0.515783,-0.499795 -0.117795,-0.185055 -0.182811,-0.388957 -0.182811,-0.603843 0,-0.214886 0.0650157,-0.418787 0.182811,-0.603843 0.120902,-0.189937 0.297319,-0.359425 0.515783,-0.499795 0.209685,-0.134728 0.45913,-0.243165 0.735406,-0.317012 0.265429,-0.0709449 0.555713,-0.110098 0.859335,-0.110098zm0.831843 0.213012c-0.256382,-0.0685236 -0.537346,-0.106343 -0.831843,-0.106343 -0.2945,0 -0.575465,0.0378189 -0.831839,0.106343 -0.265717,0.0710236 -0.504969,0.174894 -0.705406,0.303681 -0.205866,0.132276 -0.371331,0.290764 -0.483697,0.467291 -0.106787,0.16776 -0.165724,0.352394 -0.165724,0.546764 0,0.19437 0.058937,0.379004 0.165724,0.546764 0.112366,0.176528 0.277831,0.335016 0.483697,0.467291 0.200437,0.128787 0.439689,0.232657 0.705406,0.303681 0.256374,0.0685236 0.537339,0.106343 0.831839,0.106343 0.294496,0 0.575461,-0.0378189 0.831843,-0.106343 0.265717,-0.0710236 0.504969,-0.174894 0.705406,-0.303681 0.205866,-0.132276 0.371331,-0.290764 0.483697,-0.467291 0.106787,-0.16776 0.165724,-0.352394 0.165724,-0.546764 0,-0.19437 -0.058937,-0.379004 -0.165724,-0.546764 -0.112366,-0.176528 -0.277831,-0.335016 -0.483697,-0.467291 -0.200437,-0.128787 -0.439689,-0.232657 -0.705406,-0.303681z" id="_264868888"/><path class="fil1" d="M1.178 3.8833c-0.0226024,-0.013311 -0.0440827,-0.0278622 -0.0643031,-0.0435236 -0.0211969,-0.0164134 -0.0407244,-0.0335512 -0.0584488,-0.0512756 -0.0561929,-0.056189 -0.101606,-0.123638 -0.132764,-0.198858 -0.0299449,-0.0722835 -0.0464724,-0.151272 -0.0464724,-0.233807 0,-0.0825354 0.0165276,-0.161524 0.0464724,-0.233807 0.0311575,-0.0752205 0.0765709,-0.142669 0.132764,-0.198858 0.056189,-0.0561929 0.123638,-0.101606 0.198858,-0.132764 0.0722835,-0.0299449 0.151272,-0.0464724 0.233807,-0.0464724 0.0760787,0 0.149146,0.0140276 0.216713,0.0396457 0.0699134,0.0265118 0.133764,0.0655236 0.188815,0.114311l-0.0704173 0.0795827c-0.0453622,-0.0402008 -0.0980787,-0.0723898 -0.155894,-0.094311 -0.0554882,-0.0210354 -0.115894,-0.0325591 -0.179217,-0.0325591 -0.0687677,0 -0.134075,0.013563 -0.19339,0.0381339 -0.0614646,0.0254606 -0.117055,0.0630433 -0.163858,0.10985 -0.0468071,0.0468031 -0.0843898,0.102394 -0.10985,0.163858 -0.0245709,0.059315 -0.0381339,0.124622 -0.0381339,0.19339 0,0.0687677 0.013563,0.134075 0.0381339,0.19339 0.0254606,0.0614646 0.0630433,0.117055 0.10985,0.163858 0.0157205,0.0157205 0.0317717,0.0299331 0.0480315,0.0425276 0.0170787,0.0132283 0.0348071,0.0252717 0.0530512,0.0360197l-0.053748 0.0916693z" id="_264869152"/><path class="fil1" d="M5.45789 1.44753c0.0445197,0.0445551 0.0804094,0.0976969 0.104882,0.156642 0.0236772,0.0570315 0.0367559,0.119319 0.0367559,0.18437 0,0.0650433 -0.0130827,0.127339 -0.0367638,0.184374 -0.0244724,0.0589449 -0.0603661,0.112094 -0.10489,0.15665 -0.0447677,0.0447992 -0.0980591,0.0808898 -0.157075,0.105469 -0.0570551,0.0237638 -0.119366,0.0368937 -0.184406,0.0368937 -0.0650945,0 -0.127433,-0.0130827 -0.1845,-0.0367717 -0.0589764,-0.0244764 -0.11215,-0.060378 -0.156728,-0.104921 -0.0448189,-0.0447874 -0.0809134,-0.0981024 -0.1055,-0.15715 -0.0237717,-0.0570984 -0.0369016,-0.119453 -0.0369016,-0.184543 0,-0.0650906 0.0131339,-0.127433 0.0369016,-0.184504 0.0245906,-0.0590472 0.0606969,-0.112358 0.105512,-0.15713 0.0445866,-0.0445512 0.0977638,-0.0804567 0.15674,-0.104941 0.0570748,-0.0236969 0.119406,-0.0367835 0.184476,-0.0367835 0.0650433,0 0.127362,0.0131299 0.184425,0.0368898 0.0590157,0.0245748 0.112307,0.0606575 0.157071,0.105457zm0.00655118 0.197476c-0.0191535,-0.0461339 -0.0472008,-0.0876811 -0.0819685,-0.122476 -0.0347795,-0.0348071 -0.0763386,-0.0629094 -0.122488,-0.082126 -0.0441654,-0.0183898 -0.0926693,-0.0285512 -0.143591,-0.0285512 -0.0509882,0 -0.0995079,0.010122 -0.143642,0.0284449 -0.0461654,0.0191654 -0.087752,0.0472323 -0.122575,0.0820276 -0.0348307,0.0347953 -0.0629528,0.076374 -0.0821811,0.122547 -0.0183976,0.0441772 -0.028563,0.0927047 -0.028563,0.143669 0,0.0509685 0.0101654,0.0995157 0.028563,0.143709 0.0192283,0.0461811 0.0473425,0.0877638 0.0821693,0.122567 0.034815,0.0347874 0.0763937,0.0628465 0.122563,0.0820079 0.044122,0.018315 0.0926496,0.0284331 0.143665,0.0284331 0.0509134,0 0.0994094,-0.0101614 0.143571,-0.0285551 0.0461457,-0.0192205 0.0877047,-0.0473268 0.122492,-0.0821378 0.0347717,-0.0347953 0.0628228,-0.0763504 0.0819764,-0.122484 0.0183071,-0.0440984 0.0284252,-0.0925827 0.0284252,-0.143539 0,-0.0509685 -0.0101142,-0.0994449 -0.0284173,-0.143535z" id="_264869128"/><path class="fil1" d="M3.3959 2.49605c-0.00954724,0.0277283 0.00518898,0.0579528 0.0329173,0.0675 0.0277283,0.00954724 0.0579528,-0.00518898 0.0675,-0.0329173l0.343661 -0.991378 0.833264 0.223276c0.0284173,0.00759055 0.0576142,-0.00929134 0.0652047,-0.0377087 0.00759055,-0.0284173 -0.00929134,-0.0576142 -0.0377087,-0.0652047l-0.878335 -0.23535c-0.0275236,-0.00888583 -0.0572323,0.00582677 -0.066752,0.0332874l0.0503898 0.0174685 -0.0502087 -0.0172913 -0.359933 1.03832z" id="_264868816"/><path class="fil1" d="M2.65358 4.59051c-0.025311,-0.0149567 -0.0579606,-0.00655906 -0.0729173,0.018752 -0.0149567,0.025311 -0.00655906,0.0579606 0.018752,0.0729173 0.269614,0.159236 0.544173,0.232157 0.823079,0.228795 0.277547,-0.00333858 0.55824,-0.0824528 0.841634,-0.227339 0.0261181,-0.0133425 0.0364685,-0.0453386 0.023126,-0.0714567 -0.0133425,-0.0261181 -0.0453386,-0.0364685 -0.0714567,-0.023126 -0.268909,0.13748 -0.533965,0.212531 -0.794555,0.215669 -0.259236,0.00312205 -0.515276,-0.0651496 -0.767661,-0.214213z" id="_264868240"/><path class="fil1" d="M5.59491 3.79163c0.0182441,-0.010748 0.0359724,-0.0227913 0.0530512,-0.0360197 0.0162598,-0.0125945 0.032311,-0.0268071 0.0480315,-0.0425276 0.0468071,-0.0468031 0.0843898,-0.102394 0.10985,-0.163858 0.0245709,-0.059315 0.0381339,-0.124622 0.0381339,-0.19339 0,-0.0687677 -0.013563,-0.134075 -0.0381339,-0.19339 -0.0254606,-0.0614646 -0.0630433,-0.117055 -0.10985,-0.163858 -0.0468031,-0.0468071 -0.102394,-0.0843898 -0.163858,-0.10985 -0.059315,-0.0245709 -0.124622,-0.0381339 -0.19339,-0.0381339 -0.0633228,0 -0.123728,0.0115236 -0.179217,0.0325591 -0.057815,0.0219213 -0.110531,0.0541102 -0.155894,0.094311l-0.0704173 -0.0795827c0.0550512,-0.0487874 0.118902,-0.0877992 0.188815,-0.114311 0.0675669,-0.0256181 0.140634,-0.0396457 0.216713,-0.0396457 0.0825354,0 0.161524,0.0165276 0.233807,0.0464724 0.0752205,0.0311575 0.142669,0.0765709 0.198858,0.132764 0.0561929,0.056189 0.101606,0.123638 0.132764,0.198858 0.0299449,0.0722835 0.0464724,0.151272 0.0464724,0.233807 0,0.0825354 -0.0165276,0.161524 -0.0464724,0.233807 -0.0311575,0.0752205 -0.0765709,0.142669 -0.132764,0.198858 -0.0177244,0.0177244 -0.037252,0.0348622 -0.0584488,0.0512756 -0.0202205,0.0156614 -0.0417008,0.0302126 -0.0643031,0.0435236l-0.053748 -0.0916693z" id="_264868456"/></g></g><rect class="fil2" height="6.82666" width="6.82666"/></svg>