<?xml version="1.0" ?><!DOCTYPE svg  PUBLIC '-//W3C//DTD SVG 1.1//EN'  'http://www.w3.org/Graphics/SVG/1.1/DTD/svg11.dtd'><svg height="6.82666in" style="shape-rendering:geometricPrecision; text-rendering:geometricPrecision; image-rendering:optimizeQuality; fill-rule:evenodd; clip-rule:evenodd" viewBox="0 0 6.82666 6.82666" width="6.82666in" xml:space="preserve" xmlns="http://www.w3.org/2000/svg" xmlns:xlink="http://www.w3.org/1999/xlink"><defs><style type="text/css">
   <![CDATA[
    .fil2 {fill:none}
    .fil0 {fill:black}
    .fil1 {fill:#212121;fill-rule:nonzero}
   ]]>
  </style></defs><g id="Layer_x0020_1"><path class="fil0" d="M2.91149 1.37925c-0.00207874,0.000267717 -0.00387402,0.000795276 -0.00566929,0.00105906 0.00332677,-0.000791339 0.00519685,-0.00105906 0.00519685,-0.00105906l0.000472441 0z"/><path class="fil0" d="M2.12557 5.06482l0.00026378 -0.00073622c-0.0153425,-0.0122638 -0.0322756,-0.0234724 -0.0473937,-0.036 0.0278543,0.0221299 0.0471299,0.0367362 0.0471299,0.0367362z"/><g id="_435220072"><path class="fil1" d="M3.41334 5.92c-0.692142,0 -1.31878,-0.280622 -1.77241,-0.73424 -0.453661,-0.453661 -0.734272,-1.08037 -0.734272,-1.77244 0,-0.692165 0.280587,-1.31883 0.734209,-1.77245 0.453622,-0.453618 1.0803,-0.734205 1.77247,-0.734205l3.54331e-005 0c0.692154,0 1.31881,0.280583 1.77242,0.734197 0.453484,0.453488 0.733984,1.08014 0.733996,1.77243l0.000208661 0 0 3.54331e-005c0,0.692071 -0.280606,1.31877 -0.734268,1.77243 -0.453618,0.453622 -1.08026,0.734244 -1.77239,0.734244zm-1.69699 -0.809657c0.434311,0.434307 1.03429,0.702988 1.69699,0.702988 0.662689,0 1.26267,-0.268681 1.69698,-0.702992 0.43435,-0.43435 0.703016,-1.03439 0.703016,-1.69702l0 -3.54331e-005 0.000208661 0c-7.87402e-006,-0.662567 -0.268728,-1.26257 -0.703161,-1.69701 -0.434307,-0.434307 -1.0343,-0.702945 -1.697,-0.702945l-3.54331e-005 0c-0.662728,0 -1.26274,0.268642 -1.69705,0.702953 -0.434315,0.434311 -0.702957,1.03431 -0.702957,1.69704 0,0.66263 0.268665,1.26267 0.70302,1.69702z" id="_435220288"/><path class="fil1" d="M2.51779 1.11109c0.491248,0.591677 0.895197,1.27329 1.22812,2.02803 0.332496,0.753783 0.594398,1.5808 0.801882,2.46424l-0.103748 0.0241654c-0.206016,-0.877185 -0.46589,-1.69795 -0.79563,-2.44549 -0.329319,-0.746579 -0.72811,-1.41987 -1.21229,-2.00303l0.0816693 -0.0679134z" id="_435219856"/><path class="fil1" d="M5.1885 1.71316c-0.593724,0.692177 -1.20593,1.05963 -1.89324,1.26311 -0.683559,0.202374 -1.43843,0.241244 -2.32358,0.27685l-0.00416535 -0.106252c0.877661,-0.0353031 1.62587,-0.0737638 2.29774,-0.272677 0.66813,-0.197799 1.26378,-0.555618 1.84241,-1.2302l0.0808346 0.0691654z" id="_435220456"/><path class="fil1" d="M1.71335 5.20396c0.542984,-0.856012 1.16641,-1.35989 1.81703,-1.61216 0.774004,-0.300114 1.58399,-0.243122 2.34186,0.00124016l-0.0324961 0.101252c-0.73672,-0.237539 -1.52262,-0.29352 -2.27104,-0.00332677 -0.630173,0.244339 -1.23557,0.734858 -1.76536,1.57007l-0.09 -0.0570787z" id="_435220048"/></g></g><rect class="fil2" height="6.82666" width="6.82666"/></svg>